<?xml version="1.0" standalone="no"?>
<!DOCTYPE svg PUBLIC "-//W3C//DTD SVG 1.1//EN" "http://www.w3.org/Graphics/SVG/1.1/DTD/svg11.dtd" >
<svg xmlns="http://www.w3.org/2000/svg">
<metadata>Generated by IcoMoon</metadata>
<defs>
<font id="icomoon" horiz-adv-x="1024">
<font-face units-per-em="1024" ascent="960" descent="-64" />
<missing-glyph horiz-adv-x="1024" />
<glyph unicode="&#x20;" horiz-adv-x="512" d="" />
<glyph unicode="&#xe900;" glyph-name="Active-protection" horiz-adv-x="978" d="M0 705.181c1.358 24.656 2.118 49.421 4.019 74.023 3.088 31.050 28.089 55.378 59.172 57.395l0.188 0.010c27.589 1.847 55.341 2.227 82.876 5.105 114.184 12.333 217.492 50.218 306.917 107.8l-2.786-1.679c10.73 7.561 24.074 12.084 38.474 12.084 7.608 0 14.92-1.262 21.74-3.589l-0.474 0.14c6.231-2.233 11.61-4.927 16.598-8.17l-0.306 0.186c77.288-49.616 168.33-85.446 266.026-101.535l4.162-0.566c33.096-5.566 71.472-8.948 110.565-9.338l0.389-0.003c0.713 0.028 1.549 0.044 2.39 0.044 35.993 0 65.171-29.178 65.171-65.171 0-0.015 0-0.031 0-0.046v0.002c1.542-20.030 2.421-43.379 2.421-66.932 0-30.876-1.51-61.399-4.461-91.5l0.302 3.814c-14.309-184.148-85.439-349.378-195.658-480.695l1.068 1.308c-70.266-82.898-157.538-149.116-256.653-193.674l-4.574-1.839c-8.343-3.972-18.129-6.292-28.458-6.292-10.773 0-20.956 2.523-29.991 7.011l0.393-0.177c-94.447 42.657-174.571 101.168-240.491 172.935l-0.479 0.529c-84.083 92.008-147.475 204.39-181.897 328.805l-1.342 5.686c-21.847 76.102-34.696 163.591-35.299 253.988l-0.002 0.341zM68.375 772.036c-0.706-12.22-1.738-24.168-2.009-36.224-0.286-8.549-0.45-18.598-0.45-28.686 0-52.801 4.47-104.558 13.051-154.913l-0.762 5.41c16.074-100.117 48.584-189.958 94.918-270.867l-2.049 3.883c71.253-126.803 178.346-226.217 307.499-286.099l4.182-1.74c1.751-0.882 3.816-1.398 6.001-1.398s4.25 0.516 6.079 1.434l-0.078-0.036c122.181 55.874 221.653 143.528 290.401 252.504l1.619 2.749c78.961 125.26 125.814 277.638 125.814 440.959 0 19.713-0.683 39.266-2.025 58.637l0.145-2.612c0 5.431-1.086 11.296-1.466 17.162l-5.54 0.434c-43.567 0.569-85.777 4.497-126.924 11.539l4.783-0.677c-108.2 18.348-204.81 56.527-290.117 110.873l3.147-1.874c-1.47 1.197-3.366 1.922-5.431 1.922s-3.961-0.725-5.447-1.934l0.016 0.012c-16.293-9.776-32.586-19.714-49.53-28.567-90.176-49.042-196.232-81.124-308.947-89.090l-2.461-0.14c-17.759-1.14-35.518-1.847-54.309-2.715v0zM688.315 750.312h-399.118c-16.934-0.031-30.654-13.75-30.685-30.682v-429.643c0.031-16.934 13.75-30.654 30.682-30.685h199.589c0.273-0.017 0.592-0.027 0.913-0.027 8.488 0 15.37 6.881 15.37 15.37s-6.881 15.37-15.37 15.37c-0.321 0-0.64-0.010-0.957-0.029l0.043 0.002h-199.586v429.694h399.173v-429.64h-107.478c-0.273 0.017-0.592 0.027-0.913 0.027-8.488 0-15.37-6.881-15.37-15.37s6.881-15.37 15.37-15.37c0.321 0 0.64 0.010 0.957 0.029l-0.043-0.002h107.478c16.934 0.031 30.654 13.75 30.685 30.682v429.643c-0.031 16.953-13.781 30.685-30.739 30.685 0 0 0 0 0 0v0zM350.566 688.997h-30.685v-30.685h30.685zM657.63 688.997h-30.685v-30.685h30.685v30.685zM626.945 320.726h30.685v30.685h-30.685v-30.685zM319.881 320.726h30.685v30.685h-30.685zM565.522 596.943v-122.739c0-0.016 0-0.035 0-0.054 0-8.458 6.857-15.315 15.315-15.315 0 0 0 0 0 0v0c2.183-0.242 4.714-0.38 7.277-0.38 38.572 0 69.842 31.269 69.842 69.842 0 2.563-0.138 5.095-0.407 7.586l0.027-0.309c0.155 1.761 0.243 3.81 0.243 5.879 0 39.322-31.877 71.199-71.199 71.199-2.016 0-4.013-0.084-5.987-0.248l0.258 0.017c-0.016 0-0.035 0-0.054 0-8.458 0-15.315-6.857-15.315-15.315 0 0 0 0 0 0v0zM626.945 535.574c0-26.068-9.721-40.135-30.685-44.479v88.741c17.908-3.993 31.095-19.747 31.095-38.582 0-2.004-0.149-3.973-0.437-5.897l0.027 0.217zM458.044 612.421c-0.016 0-0.035 0-0.054 0-8.458 0-15.315-6.857-15.315-15.315 0 0 0 0 0 0v0-122.739c0-0.016 0-0.035 0-0.054 0-8.458 6.857-15.315 15.315-15.315 0 0 0 0 0 0v0c2.244-0.256 4.845-0.402 7.48-0.402 38.572 0 69.842 31.269 69.842 69.842 0 2.513-0.133 4.996-0.392 7.44l0.026-0.304c0.156 1.766 0.245 3.821 0.245 5.897 0 39.322-31.877 71.199-71.199 71.199-2.093 0-4.166-0.090-6.213-0.267l0.266 0.019zM473.413 491.257v88.578c17.904-3.996 31.088-19.749 31.088-38.58 0-1.985-0.147-3.937-0.429-5.843l0.026 0.216c0-26.394-9.721-40.243-30.685-44.534zM519.468 428.313h-184.217c-8.086-0.496-14.456-7.175-14.456-15.342s6.37-14.846 14.413-15.34l0.043-0.002h184.217c0.273-0.017 0.592-0.027 0.913-0.027 8.488 0 15.37 6.881 15.37 15.37s-6.881 15.37-15.37 15.37c-0.321 0-0.64-0.010-0.957-0.029l0.043 0.002zM580.891 397.628h61.424c8.086 0.496 14.456 7.175 14.456 15.342s-6.37 14.846-14.413 15.34l-0.043 0.002h-61.424c-0.273 0.017-0.592 0.027-0.913 0.027-8.488 0-15.37-6.881-15.37-15.37s6.881-15.37 15.37-15.37c0.321 0 0.64 0.010 0.957 0.029l-0.043-0.002zM319.881 474.204c0.496-8.086 7.175-14.456 15.342-14.456s14.846 6.37 15.34 14.413l0.002 0.043v45.891h30.685v-46c-0.017-0.273-0.027-0.592-0.027-0.913 0-8.488 6.881-15.37 15.37-15.37s15.37 6.881 15.37 15.37c0 0.321-0.010 0.64-0.029 0.957l0.002-0.043v122.847c0.017 0.273 0.027 0.592 0.027 0.913 0 8.488-6.881 15.37-15.37 15.37s-15.37-6.881-15.37-15.37c0-0.321 0.010-0.64 0.029-0.957l-0.002 0.043v-46h-30.685v46c-0.496 8.086-7.175 14.456-15.342 14.456s-14.846-6.37-15.34-14.413l-0.002-0.043z" />
<glyph unicode="&#xe901;" glyph-name="arrows-h" d="M799.918 618.83c-9.372-9.372-9.372-24.568 0-33.942l103.856-102.888h-783.548l103.856 102.888c9.372 9.372 9.372 24.568 0 33.942l-14.142 14.14c-9.372 9.372-24.568 9.372-33.94 0l-168.97-168c-9.372-9.372-9.372-24.568 0-33.942l168.97-168c9.372-9.372 24.568-9.372 33.94 0l14.142 14.14c9.372 9.372 9.372 24.568 0 33.942l-103.856 102.89h783.546l-103.856-102.888c-9.372-9.372-9.372-24.568 0-33.942l14.142-14.14c9.372-9.372 24.568-9.372 33.94 0l168.97 168c9.374 9.372 9.374 24.568 0 33.942l-168.97 168c-9.372 9.372-24.568 9.372-33.94 0l-14.14-14.142z" />
<glyph unicode="&#xe903;" glyph-name="dynamic" d="M694.685 304.646c153.249 0 277.943 124.694 277.943 277.943s-124.694 277.943-277.943 277.943c-153.249 0-277.943-124.694-277.943-277.943 0-17.642 1.814-34.816 4.974-51.522 31.422-0.029 62.815 0 94.267-0.029 1.931 0 4.184 0.468 5.705-0.322 1.814-0.995 3.657-2.896 4.272-4.74 0.761-2.136 0.176-4.71 0.176-7.080 0-52.253 0-104.536 0-156.818 46.811-35.869 105.15-57.432 168.55-57.432zM464.343 380.012l-0.029 47.192v50.703c0 7.168-0.556 7.782-8.133 7.812-7.227 0-14.453 0.029-21.68 0l-31.1-0.059c-20.597-0.059-39.234-6.261-55.852-17.525-31.481-21.299-49.006-51.463-55.472-87.274-3.628-20.070-2.838-40.433 2.399-60.562 5.647-21.592 15.36-40.989 30.574-57.666 20.831-22.791 46.665-36.191 78.702-36.805 17.437-0.322 34.904-0.088 52.341-0.059 7.344 0.029 8.251 0.936 8.251 7.929v146.315zM235.581 340.603c4.125 37.069-5.003 71.358-28.76 101.288-22.001 27.736-50.469 44.12-87.771 43.856-15.857-0.088-31.715-0.029-47.572 0-8.836 0-8.953-0.117-8.953-8.426v-121.066c0-40.843 0-81.715 0.029-122.587 0-7.314 0.644-7.899 8.016-7.899 17.086 0 34.172-0.117 51.259 0.029 23.757 0.176 44.88 7.782 63.283 22.031 30.749 23.815 46.314 55.764 50.469 92.774zM694.685 889.789c169.399 0 307.2-137.801 307.2-307.2s-137.801-307.2-307.2-307.2c-62.23 0-120.101 18.725-168.55 50.644v-137.275c0.029-7.665-0.731-8.426-8.777-8.426-84.758 0-169.487 0-254.245 0h-252.138c-0.878 0-1.785 0-2.662 0-7.49 0.117-8.192 0.761-8.192 7.841 0 108.515 0 217.029 0.029 325.544 0 3.394-0.029 6.788-0.029 10.181-0.029 6.027 0.907 6.934 7.344 7.139 2.458 0.088 4.915 0.029 7.402 0.029h377.3c-2.867 16.794-4.681 33.909-4.681 51.522 0 169.399 137.801 307.2 307.2 307.2zM65.229 42.818c0.439 14.014 0.439 28.116 0 42.16-0.293 10.679-7.402 18.373-16.355 18.666-6.846 0.176-13.692 0.146-20.539 0.029-5.266-0.059-6.32-1.463-6.32-7.841-0.029-10.62 0-21.27 0-31.89h0.088c0-5.413 0-10.796-0.029-16.238 0-5.413-0.029-10.796-0.059-16.208-0.029-6.817 1.141-8.221 6.934-8.309 6.232-0.088 12.493-0.088 18.695 0.029 10.123 0.146 17.203 7.665 17.584 19.602zM81.232 106.043c2.867-5.471 5.237-12.2 5.53-18.491 0.761-16.355 0.702-32.827 0.029-49.211-0.41-10.62-3.482-20.919-11.878-26.536-4.652-3.101-10.211-5.617-15.389-5.851-17.964-0.79-35.928-0.439-53.862-0.585-4.447-0.029-5.647 2.867-5.647 7.607 0.117 16.618 0.059 33.207 0.059 49.796h-0.059v50.322c0 5.851 1.229 7.636 6.085 7.665 15.682 0.059 31.364 0.556 47.016-0.263 10.65-0.585 21.738-2.37 28.116-14.453zM182.015 37.391c0.41 17.349 0.234 34.757 0.059 52.136-0.059 5.617-2.955 9.509-7.285 11.586-8.806 4.242-17.876 3.862-26.741 0.848-6.203-2.107-9.333-7.87-9.421-15.536-0.088-7.578-0.029-15.126-0.029-22.674h0.205c0-8.631-0.293-17.232 0.117-25.834 0.351-7.344 5.237-13.458 11.41-14.043 6.788-0.673 13.722-0.644 20.509-0.029 6.232 0.585 11.001 6.144 11.176 13.546zM203.197 93.74c1.287-10.181 1.112-20.626 1.609-30.983-0.322 0-0.644 0-0.965-0.029 0-8.953 0.556-17.964-0.117-26.858-1.258-16.325-10.328-26.653-24.049-29.14-13.107-2.37-26.273-2.984-39.175 0.468-5.442 1.463-10.854 4.915-15.419 8.836-4.769 4.125-7.461 10.913-7.607 17.847-0.38 19.339-0.848 38.707 0.117 57.958 0.644 12.464 7.402 21.211 17.759 25.161 17.291 6.554 34.699 6.407 51.814-0.468 8.982-3.628 14.658-11.849 16.033-22.791zM286.056 24.632c2.224-0.117 6.027-1.96 6.261-3.657 0.614-4.623-0.029-9.626-0.731-14.336-0.117-0.907-2.721-1.697-4.213-1.726-16.208-0.117-32.417-0.059-48.655-0.146-4.418-0.029-4.652 3.745-4.652 7.812 0 16.823 0 33.646 0 50.439v49.913c0.029 7.812 0.878 8.894 6.934 8.865 2.428 0 4.886 0.029 7.314-0.029 5.442-0.088 6.554-1.551 6.554-8.426-0.029-26.507-0.059-53.014-0.059-79.521-0.029-8.309 0.527-9.011 7.139-9.011 8.016 0 16.091 0.263 24.108-0.176zM373.128 22.718c9.040 1.258 14.395 9.743 14.043 20.187-0.322 9.977-3.833 13.809-14.248 15.36-2.838 0.41-5.676 0.585-8.514 0.702-5.325 0.234-6.788 1.989-6.583 7.695 0.146 4.506 2.136 6.29 6.261 6.671 4.769 0.468 9.83 0.995 14.014 3.16 4.623 2.37 5.793 10.708 3.833 17.905-1.346 4.974-6.495 9.889-11.44 10.181-6.027 0.322-12.083-0.029-18.11 0.234-4.857 0.176-6.495-2.341-6.437-7.344 0.146-11.352 0.029-22.674 0.029-34.026h0.059c0-11.703-0.029-23.406 0-35.109 0-3.131 0.293-6.261 4.008-6.261 7.695 0 15.506-0.41 23.084 0.644zM395.042 64.468c13.897-6.085 16.296-25.717 13.546-36.337-3.803-14.892-13.605-22.060-26.887-22.733-18.227-0.936-36.513-0.439-54.769-0.614-3.686-0.029-5.061 2.165-5.061 5.822 0 4.389 0.029 8.777 0.029 13.166-0.029 29.989-0.059 59.948-0.059 89.936 0 6.846 0.995 8.016 7.227 8.046 14.892 0 29.813 0.176 44.705-0.117 7.782-0.176 15.711-1.375 21.475-7.548 3.277-3.511 6.29-8.397 7.168-13.136 1.755-9.45 2.516-19.456-4.769-27.268-1.96-2.107-4.506-3.599-7.87-6.173 2.194-1.287 3.657-2.341 5.266-3.043zM483.287 121.561c3.072-0.176 6.203 0.029 9.275-0.029 5.032-0.176 5.91-1.638 3.599-7.051-2.896-6.817-6.144-13.429-9.304-20.070-6.729-14.277-13.663-28.438-20.187-42.832-1.229-2.75-1.492-6.32-1.551-9.538-0.176-9.86 0-19.719-0.029-29.55-0.029-5.91-1.287-7.461-6.32-7.665-4.155-0.146-8.338 0.029-12.522 0-4.096-0.059-5.851 2.253-5.764 7.080 0.146 9.304-0.351 18.637 0.263 27.911 0.527 7.929-2.75 14.043-5.559 20.392-7.080 16.121-14.424 32.066-21.709 48.069-1.083 2.399-2.545 4.593-3.365 7.109-1.2 3.599-0.351 6.144 3.394 6.173 3.891 0 7.899 0.702 11.586-0.263 2.633-0.702 5.822-2.984 7.139-5.676 6.788-14.014 13.049-28.409 19.485-42.657 0.234-0.439 0.673-0.731 2.165-2.341 2.955 5.91 5.676 11.264 8.28 16.647 4.798 9.918 9.567 19.895 14.307 29.901 1.521 3.218 3.716 4.564 6.817 4.389zM685.115 647.262c-0.439 0.468-0.644 1.317-0.644 1.989-0.059 13.078-0.059 26.156-0.029 39.234 0.029 0.848 0.263 1.755 0.614 2.516 4.769 10.708 11.293 20.1 19.661 28.058 7.519 7.109 15.945 12.815 25.337 17.057 6.554 2.955 13.341 4.944 20.304 6.232 3.013 0.585 6.115 0.79 9.187 0.907 4.096 0.176 8.251 0.351 12.347-0.029 6.524-0.614 13.283-0.702 19.28-4.037 4.593-2.545 7.285-6.583 7.987-12.083 0.819-6.115-1.17-10.942-5.266-15.184-11.674-11.937-23.201-24.020-34.904-35.899-1.58-1.638-2.165-3.16-1.785-5.266 1.258-7.461 2.575-14.892 3.745-22.352 0.263-1.638 1.141-2.136 2.458-2.341 6.905-1.112 13.868-1.872 20.685-3.482 2.896-0.673 4.301 0.322 6.056 2.136 11.761 12.229 23.552 24.43 35.372 36.571 4.418 4.564 9.918 5.822 15.799 4.155s9.889-5.764 11.176-11.995c1.083-5.413 1.785-10.913 2.341-16.413 1.258-11.966-0.41-23.669-4.037-35.021-3.452-10.854-8.777-20.714-15.887-29.608-6.115-7.607-13.166-14.014-21.182-19.339-1.521-1.024-2.37-0.878-3.628 0.439-3.92 4.272-8.046 8.397-12.142 12.61 28.76 17.291 41.106 42.862 37.654 76.537l-0.702 0.468c-0.527-0.527-1.083-1.024-1.638-1.58-12.551-12.99-25.161-25.98-37.742-39-0.907-0.965-1.697-1.434-3.218-1.141-14.219 2.575-28.496 4.974-42.745 7.431-4.564 0.761-4.681 0.761-5.5 5.5-1.492 8.777-2.867 17.613-4.272 26.419-0.965 5.881-1.785 11.761-2.896 17.584-0.322 1.609 0 2.516 1.024 3.599 12.639 13.019 25.249 26.068 37.888 39.117 0.497 0.527 0.995 1.083 1.785 1.931-15.974 2.399-30.866 0.439-44.793-7.256-13.956-7.665-24.459-18.9-31.013-33.851-6.495-14.833-8.046-30.281-4.447-46.577-0.761 0.351-1.053 0.38-1.2 0.527-3.686 3.803-7.402 7.578-11.030 11.44zM672.513 515.604c0.614 0.585 0.907 1.404 1.375 2.136 3.657-6.729 6.963-12.756 10.416-19.076-0.234-0.205-0.761-0.761-1.317-1.287-21.124-20.275-42.277-40.55-63.4-60.826-7.87-7.548-17.145-12.668-28.175-14.248-14.453-2.048-27.56 1.229-39 10.094-9.684 7.49-15.565 17.291-17.584 28.906-2.253 13.078 0.761 25.249 9.099 36.016 1.989 2.516 4.242 4.886 6.583 7.139 30.34 29.169 60.738 58.28 91.107 87.42 2.019 1.96 2.048 1.96 4.008 0.059 4.184-4.008 8.368-8.016 13.049-12.493-0.965-0.702-1.755-1.141-2.37-1.726-30.369-29.14-60.709-58.309-91.165-87.391-5.061-4.827-8.836-10.269-9.86-17.057-1.141-7.578 0.673-14.57 5.588-20.685 6.437-8.016 15.184-11.147 25.483-10.386 6.963 0.497 13.019 3.248 18.022 8.016 22.733 21.767 45.436 43.564 68.14 65.39zM833.243 482.477c1.931 1.931 1.931 1.931-0.029 3.862-25.307 25.337-50.615 50.615-75.922 75.952-5.881 5.881-12.902 9.011-22.411 8.865-3.189 0.293-7.285-0.644-11.205-2.458-10.913-5.12-16.94-13.868-17.935-25.629-0.761-8.689 2.37-16.443 8.572-22.674 25.512-25.6 51.112-51.112 76.624-76.712 1.463-1.463 2.253-1.317 3.628 0.059 12.873 12.961 25.776 25.834 38.678 38.736zM634.383 642.572c0.088 0.614 0.146 0.878 0.146 1.141 0 9.187 0.059 18.373-0.029 27.56-0.029 0.878-0.878 2.019-1.638 2.604-8.631 6.554-17.291 13.019-25.951 19.515-9.655 7.256-19.31 14.482-28.935 21.767-1.346 1.024-2.224 0.965-3.452-0.322-3.92-4.067-7.87-8.075-11.966-11.937-1.726-1.58-1.463-2.604-0.205-4.272 13.663-18.11 27.268-36.25 40.843-54.418 0.878-1.2 1.814-1.697 3.306-1.668 6.817 0.059 13.634 0.029 20.451 0.029h7.431zM770.984 576.977c26.010-25.98 51.99-52.019 78.058-77.97 4.125-4.125 6.115-9.040 6.144-14.746 0.088-5.647-2.165-10.416-6.085-14.365-14.219-14.248-28.35-28.584-42.745-42.657-7.841-7.695-20.187-7.051-27.355 0.088-26.361 26.244-52.634 52.575-78.936 78.877-7.899 7.899-12.434 17.554-14.043 28.467-1.697 11.703 1.024 22.616 7.109 32.651 0.878 1.434 0.556 2.136-0.468 3.131-16.911 16.881-33.821 33.792-50.673 50.703-1.053 1.024-2.077 1.375-3.511 1.375-13.926-0.029-27.853 0-41.779-0.059-1.638 0-2.633 0.497-3.628 1.843-15.682 20.948-31.422 41.838-47.104 62.786-3.891 5.149-7.724 10.328-11.557 15.477l40.141 40.141c3.365-2.516 6.963-5.179 10.562-7.899 20.421-15.301 40.872-30.632 61.294-45.934 2.282-1.726 4.652-3.335 6.788-5.179 0.761-0.673 1.346-1.96 1.375-2.984 0.088-13.985 0.059-27.999 0.029-41.984-0.029-1.492 0.351-2.604 1.434-3.686 16.911-16.794 33.733-33.646 50.527-50.527 1.17-1.2 2.048-1.258 3.365-0.41 9.333 5.939 19.69 7.899 30.544 6.992 11.82-0.965 22.060-5.676 30.515-14.131z" />
<glyph unicode="&#xe904;" glyph-name="FA-Battery-bolt2x" d="M1024 552.96v-230.4c0-21.208-17.192-38.4-38.4-38.4h-12.8v-25.6c0-42.416-34.384-76.8-76.8-76.8h-254.896l28.845 51.2h226.051c14.117 0 25.6 11.483 25.6 25.6v76.8h51.2v204.8h-51.2v76.8c0 14.117-11.483 25.6-25.6 25.6h-145.242c-21.157 14.728-45.166 22.95-69.456 25.056l6.354 24.312c0.162 0.61 0.306 1.221 0.459 1.832h207.885c42.416 0 76.8-34.384 76.8-76.8v-25.6h12.8c21.208 0 38.4-17.192 38.4-38.4zM51.2 258.56v358.4c0 14.117 11.483 25.6 25.6 25.6h152.621l5.136 51.2h-157.757c-42.416 0-76.8-34.384-76.8-76.8v-358.4c0-42.416 34.384-76.8 76.8-76.8h239.574c0.054 0.213 0.101 0.427 0.155 0.64l12.336 50.56h-252.066c-14.117 0-25.6 11.483-25.6 25.6zM727.386 491.378l-212.723-377.589c-12.195-21.821-34.966-34.429-58.686-34.429-43.672 0-76.232 41.442-64.968 84.294l54.39 222.906h-90.192c-39.584 0-70.64 34.101-66.899 73.542l27.603 275.2c3.269 34.502 32.242 60.858 66.898 60.858h165.691c44.25 0 76.338-42.035 64.901-84.627l-31.408-120.173h86.733c51.251 0 83.661-55.245 58.661-99.982zM668.723 540.16h-153.034l48.264 184.651c2.72 10.13-4.925 20.149-15.453 20.149h-165.693c-8.264 0.031-15.18-6.26-15.93-14.49l-0.013-0.139-0.014-0.139-27.584-275.010c-0.837-9.326 6.542-17.424 15.936-17.424h155.387l-70.067-287.122c-2.757-10.488 5.398-20.077 15.45-20.077 4.547 0 10.611 2.155 13.99 8.205l0.086 0.154 212.654 377.466c5.909 10.614-1.792 23.776-13.981 23.776z" />
<glyph unicode="&#xe905;" glyph-name="FA-Battery-three-quarters2x" d="M896 642.56c14.117 0 25.6-11.483 25.6-25.6v-76.8h51.2v-204.8h-51.2v-76.8c0-14.117-11.483-25.6-25.6-25.6h-819.2c-14.117 0-25.6 11.483-25.6 25.6v358.4c0 14.117 11.483 25.6 25.6 25.6h819.2zM896 693.76h-819.2c-42.416 0-76.8-34.384-76.8-76.8v-358.4c0-42.416 34.384-76.8 76.8-76.8h819.2c42.416 0 76.8 34.384 76.8 76.8v25.6h12.8c21.208 0 38.4 17.192 38.4 38.4v230.4c0 21.208-17.192 38.4-38.4 38.4h-12.8v25.6c0 42.416-34.384 76.8-76.8 76.8zM204.8 344.96v185.6c0 5.302-4.298 9.6-9.6 9.6h-32c-5.302 0-9.6-4.298-9.6-9.6v-185.6c0-5.302 4.298-9.6 9.6-9.6h32c5.302 0 9.6 4.298 9.6 9.6zM307.2 344.96v185.6c0 5.302-4.298 9.6-9.6 9.6h-32c-5.302 0-9.6-4.298-9.6-9.6v-185.6c0-5.302 4.298-9.6 9.6-9.6h32c5.302 0 9.6 4.298 9.6 9.6zM409.6 344.96v185.6c0 5.302-4.298 9.6-9.6 9.6h-32c-5.302 0-9.6-4.298-9.6-9.6v-185.6c0-5.302 4.298-9.6 9.6-9.6h32c5.302 0 9.6 4.298 9.6 9.6v0zM512 344.96v185.6c0 5.302-4.298 9.6-9.6 9.6h-32c-5.302 0-9.6-4.298-9.6-9.6v-185.6c0-5.302 4.298-9.6 9.6-9.6h32c5.302 0 9.6 4.298 9.6 9.6zM614.4 344.96v185.6c0 5.302-4.298 9.6-9.6 9.6h-32c-5.302 0-9.6-4.298-9.6-9.6v-185.6c0-5.302 4.298-9.6 9.6-9.6h32c5.302 0 9.6 4.298 9.6 9.6zM716.8 344.96v185.6c0 5.302-4.298 9.6-9.6 9.6h-32c-5.302 0-9.6-4.298-9.6-9.6v-185.6c0-5.302 4.298-9.6 9.6-9.6h32c5.302 0 9.6 4.298 9.6 9.6v0z" />
<glyph unicode="&#xe906;" glyph-name="FA-Bolt2x" d="M776.341 640h-230.8l85.2 259.6c8 30.4-15 60.4-46.4 60.4h-288c-24 0-44.4-17.8-47.6-41.6l-64-480c-3.8-28.8 18.6-54.4 47.6-54.4h237.4l-92.2-389c-7.2-30.4 16-59 46.6-59 16.6 0 32.8 8.8 41.6 24l352 608c18.6 31.8-4.4 72-41.4 72zM464.941 86.2l67 283.2 18.6 78.8h-300l59.8 447.8h251.8l-77.4-236-27.6-84h291.4l-283.6-489.8z" />
<glyph unicode="&#xe907;" glyph-name="FA-Briefcase2x" d="M928 706.56h-224v144c0 26.52-21.48 48-48 48h-288c-26.52 0-48-21.48-48-48v-144h-224c-53.020 0-96-42.98-96-96v-512c0-53.020 42.98-96 96-96h832c53.020 0 96 42.98 96 96v512c0 53.020-42.98 96-96 96zM384 834.56h256v-128h-256v128zM960 98.56c0-17.64-14.36-32-32-32h-832c-17.64 0-32 14.36-32 32v288h320v-80c0-26.5 21.5-48 48-48h160c26.5 0 48 21.5 48 48v80h320v-288zM448 322.56v64h128v-64h-128zM960 450.56h-896v160c0 17.64 14.36 32 32 32h832c17.64 0 32-14.36 32-32v-160z" />
<glyph unicode="&#xe908;" glyph-name="FA-Camera2x" d="M648.6 834.56c6.6 0 12.6-4.2 15-10.4l44.2-117.6h220.2c17.6 0 32-14.4 32-32v-576c0-17.6-14.4-32-32-32h-832c-17.6 0-32 14.4-32 32v576c0 17.6 14.4 32 32 32h220.4l40.2 107.2c4.6 12.4 16.6 20.8 30 20.8h262zM648.6 898.56h-262c-40 0-75.8-24.8-89.8-62.2l-24.8-65.8h-176c-53 0-96-43-96-96v-576c0-53 43-96 96-96h832c53 0 96 43 96 96v576c0 53-43 96-96 96h-176l-28.6 76c-11.6 31.4-41.4 52-74.8 52zM512 146.56c-132.4 0-240 107.6-240 240s107.6 240 240 240c132.4 0 240-107.6 240-240s-107.6-240-240-240zM512 562.56c-97 0-176-79-176-176s79-176 176-176c97 0 176 79 176 176s-79 176-176 176z" />
<glyph unicode="&#xe909;" glyph-name="FACE-RECOGNITION" horiz-adv-x="1037" d="M19.968 769.608c-0.016 0-0.034 0-0.053 0-10.926 0-19.797 8.799-19.915 19.697v150.987c0 10.891 13.225 19.708 24.117 19.708h150.976c10.581-0.556 18.95-9.272 18.95-19.942s-8.369-19.385-18.901-19.94l-0.049-0.002h-135.209v-130.801c-0.117-10.91-8.988-19.708-19.915-19.708 0 0-0.001 0-0.001 0v0zM1017.361 769.608c-0.016 0-0.034 0-0.053 0-10.926 0-19.797 8.799-19.915 19.697v130.812h-113.426c-10.581 0.556-18.95 9.272-18.95 19.942s8.369 19.385 18.901 19.94l0.049 0.002h137.75c10.891 0 15.559-8.869 15.559-19.708v-150.976c-0.117-10.91-8.988-19.708-19.915-19.708 0 0-0.001 0-0.001 0v0zM175.092-64h-150.976c-10.891 0-24.117 8.817-24.117 19.708v150.976c0.556 10.581 9.272 18.95 19.942 18.95s19.385-8.369 19.94-18.901l0.002-0.049v-130.749h135.209c10.581-0.556 18.95-9.272 18.95-19.942s-8.369-19.385-18.901-19.94l-0.049-0.002zM1021.822-64h-137.854c-10.581 0.556-18.95 9.272-18.95 19.942s8.369 19.385 18.901 19.94l0.049 0.002h113.426v130.801c0 11.013 8.928 19.942 19.942 19.942s19.942-8.928 19.942-19.942v0-150.976c0-10.891-4.564-19.708-15.559-19.708zM375.183 565.575c-5.924 18.964-9.336 40.769-9.336 63.371 0 0.148 0 0.296 0 0.444v-0.023c0 103.209 69.705 186.71 155.592 186.71s155.592-83.656 155.592-186.71c0-0.125 0-0.273 0-0.421 0-22.602-3.412-44.407-9.75-64.928l0.414 1.557h143.404c10.581-0.556 18.95-9.272 18.95-19.942s-8.369-19.385-18.901-19.94l-0.049-0.002h-160c-24.606-48.169-73.079-81.014-129.402-82.975l-0.257-0.007c-56.581 1.968-105.054 34.813-129.264 82.131l-0.396 0.851h-164.512c-10.581 0.556-18.95 9.272-18.95 19.942s8.369 19.385 18.901 19.94l0.049 0.002zM416.674 565.575h209.737c7.517 18.721 11.878 40.425 11.878 63.148 0 0.227 0 0.453-0.001 0.68v-0.035c0.38 3.78 0.596 8.17 0.596 12.611 0 68.055-50.885 124.225-116.683 132.54l-0.659 0.068c-66.457-8.383-117.342-64.553-117.342-132.608 0-4.44 0.217-8.83 0.64-13.16l-0.043 0.549c0-0.152-0.001-0.333-0.001-0.513 0-22.772 4.38-44.521 12.343-64.451l-0.413 1.172zM603.384 525.692h-163.475c18.573-25.343 48.229-41.614 81.686-41.614s63.113 16.271 81.488 41.331l0.198 0.283zM630.665 403.656c90.273-0.030 163.445-73.202 163.475-163.472v-50.57c0-32.253-26.146-58.399-58.399-58.399v0h-428.24c-0.046 0-0.101 0-0.156 0-32.235 0-58.369 26.117-58.399 58.344v50.57c0 0.015 0 0.034 0 0.052 0 90.313 73.213 163.527 163.527 163.527 0.036 0 0.073 0 0.109 0h-0.006c35.060 0 51.864-19.449 108.914-19.449s74.165 19.449 109.070 19.449zM755.138 189.562v50.567c0 68.745-55.729 124.473-124.473 124.473v0c-31.567-9.195-68.648-16.083-106.773-19.303l-2.141-0.146c-40.254 3.349-77.336 10.238-113.012 20.453l4.098-1.004c-68.745 0-124.473-55.729-124.473-124.473v0-50.567c0.029-10.73 8.719-19.42 19.446-19.449h428.139c10.618 0.175 19.162 8.81 19.19 19.446v0.003z" />
<glyph unicode="&#xe90a;" glyph-name="FA-Child2x" d="M896.975 778.508c-47.42 47.414-126.664 54.424-186.636-5.552-2.636 103.594-87.724 187.044-191.938 187.044-104.208 0-189.294-83.458-191.938-187.042-60.174 60.174-139.422 52.758-186.632 5.556-49.908-49.912-49.908-131.116-0.004-181.022l154.574-154.514v-394.978c0-61.758 50.244-112 112-112h32c31.308 0 59.656 12.912 80 33.692 20.344-20.78 48.692-33.692 80-33.692h32c61.756 0 112 50.242 112 112v394.978l154.572 154.512c49.904 49.908 49.904 131.112 0.002 181.018zM518.401 896c70.692 0 128-57.308 128-128s-57.308-128-128-128c-70.692 0-128 57.308-128 128s57.308 128 128 128zM851.658 642.744l-173.256-173.256v-421.488c0-26.51-21.49-48-48-48h-32c-26.51 0-48 21.49-48 48v224h-64v-224c0-26.51-21.49-48-48-48h-32c-26.51 0-48 21.49-48 48v421.488l-173.256 173.256c-24.992 24.994-24.992 65.518 0 90.512 24.996 24.992 65.514 24.994 90.512 0l157.256-157.256h170.976l157.256 157.256c24.996 24.992 65.514 24.994 90.512 0 24.992-24.994 24.992-65.518 0-90.512v0z" />
<glyph unicode="&#xe90b;" glyph-name="FA-Connection2x" d="M517.911 344.162c-2.237 0.16-4.473 0.639-6.71 0.639-70.61 0-127.8-57.191-127.8-127.8s57.191-127.8 127.8-127.8c70.61 0 127.8 57.191 127.8 127.8 0 12.78-2.396 24.761-5.911 36.423l-115.18 90.738zM511.201 140.321c-42.334 0-76.68 34.346-76.68 76.68s34.346 76.68 76.68 76.68c42.334 0 76.68-34.346 76.68-76.68s-34.346-76.68-76.68-76.68zM6.071 603.597c-7.828-7.508-8.147-19.969-0.479-27.637l9.106-9.106c7.349-7.349 19.33-7.508 26.838-0.479 30.512 28.915 63.101 54.155 97.128 76.361l-42.174 33.228c-31.311-21.726-61.823-45.209-90.419-72.367zM980.867 566.375c7.508-7.189 19.49-7.029 26.838 0.479l9.106 9.106c7.668 7.668 7.508 20.129-0.479 27.637-211.829 200.966-514.556 251.447-772.074 151.284l48.245-38.021c232.916 78.597 499.539 28.595 688.364-150.485zM505.61 549.122l71.249-56.232c82.751-12.301 162.626-47.606 228.922-106.554 7.668-6.869 19.49-6.39 26.519 1.118l8.786 9.266c7.508 7.828 7.029 20.288-1.118 27.477-94.892 84.668-214.705 126.203-334.358 124.925v0zM1017.61 80.894l-980.867 772.233c-5.432 4.473-13.579 3.674-17.892-1.917l-15.975-19.969c-4.473-5.591-3.515-13.579 1.917-17.892l980.867-772.393c5.432-4.473 13.579-3.515 17.892 1.917l15.975 19.969c4.473 5.591 3.674 13.579-1.917 18.052zM182.115 424.197c-7.988-7.189-8.467-19.649-0.959-27.477l8.786-9.266c7.189-7.508 18.851-7.988 26.678-1.118 41.216 36.743 88.981 65.338 140.74 84.348l-45.848 36.104c-46.328-20.288-90.099-47.606-129.398-82.591z" />
<glyph unicode="&#xe90c;" glyph-name="FA-Download2x" d="M878.491 429.714l-338.286-339.429c-10.743-10.743-28.114-10.743-38.857 0l-338.286 339.429c-10.743 10.743-10.743 28.114 0 38.857l16.229 16.229c10.743 10.743 28.114 10.743 38.857 0l263.771-265.143v712.914c0 15.086 12.343 27.429 27.429 27.429h22.857c15.086 0 27.429-12.343 27.429-27.429v-712.914l263.771 264.914c10.743 10.743 28.114 10.743 38.857 0l16.229-16.229c10.743-10.514 10.743-27.886 0-38.629zM959.634-36.571v18.286c0 15.086-12.343 27.429-27.429 27.429h-822.857c-15.086 0-27.429-12.343-27.429-27.429v-18.286c0-15.086 12.343-27.429 27.429-27.429h822.857c15.086 0 27.429 12.343 27.429 27.429z" />
<glyph unicode="&#xe90d;" glyph-name="FA-Eye2x" d="M511.999 388.836c57.811 0 104.676 46.865 104.676 104.676s-46.865 104.676-104.676 104.676c-1.636 0-3.075-0.393-4.661-0.474 10.298-28.359 3.245-60.116-18.089-81.451s-53.091-28.387-81.451-18.089c0-1.636-0.474-3.075-0.474-4.661 0-57.811 46.865-104.676 104.676-104.676v0zM977.347 465.052c-88.696 173.058-264.289 290.148-465.348 290.148s-376.701-117.171-465.348-290.164c-7.588-15.009-7.588-32.732 0-47.742 88.696-173.058 264.289-290.148 465.348-290.148s376.701 117.171 465.348 290.164c7.588 15.009 7.588 32.732 0 47.742zM511.999 702.862c115.621 0 209.351-93.73 209.351-209.351s-93.73-209.351-209.351-209.351c-115.621 0-209.351 93.73-209.351 209.351 0.126 115.569 93.782 209.225 209.351 209.351zM511.999 179.485c-175.593 0-336.041 100.276-418.702 261.689 46.49 91.265 120.836 165.354 212.262 211.526-34.134-44.193-55.249-98.951-55.249-159.189 0-144.527 117.162-261.689 261.689-261.689s261.689 117.162 261.689 261.689c0 60.238-21.115 114.996-55.249 159.189 91.426-46.172 165.773-120.261 212.262-211.526-82.645-161.413-243.109-261.689-418.702-261.689z" />
<glyph unicode="&#xe90e;" glyph-name="FA-Eye-Slash2x" d="M1017.61 80.814l-980.867 772.393c-5.511 4.404-13.548 3.51-17.956-1.997l-15.975-19.985c-4.408-5.506-3.521-13.543 1.981-17.956l980.867-772.393c2.647-2.12 6.029-3.101 9.4-2.726s6.455 2.074 8.572 4.723l15.975 19.985c4.404 5.511 3.51 13.548-1.997 17.956zM511.201 702.642c112.88-0.123 204.357-91.6 204.48-204.48 0-34.538-9.425-66.6-24.602-95.163l40.656-31.95c21.726 37.509 35.065 80.562 35.065 127.113 0 58.836-20.624 112.32-53.964 155.485 89.322-45.093 161.966-117.457 207.404-206.605-27.154-52.716-63.865-99.93-108.263-139.238l40.449-31.854c45.481 41.982 84.46 91.473 113.311 147.785 7.411 14.66 7.411 31.971 0 46.631-86.633 169.032-258.141 283.397-454.538 283.397-71.755 0.038-142.667-15.456-207.867-45.417l73.118-57.51c36.088 31.806 82.926 51.807 134.749 51.807zM608.425 468.081c10.158 30.961 4.735 64.923-14.559 91.182s-50.083 41.582-82.665 41.14c-1.598 0-3.019-0.383-4.553-0.463 6.201-16.605 6.064-34.913-0.383-51.424l102.16-80.434zM260.777 546.614c-3.321-15.94-5.055-32.17-5.176-48.452-0.334-87.034 43.81-168.209 117.047-215.235s165.419-53.387 244.421-16.867l-47.254 37.206c-18.691-5.639-38.1-9.585-58.596-9.585-112.883 0.123-204.364 91.598-204.496 204.48 0 3.898 0.943 7.54 1.15 11.374l-47.094 37.078zM511.201 191.441c-171.508 0-328.239 97.943-408.961 255.601 27.844 54.315 65.641 100.195 109.125 138.536l-41.311 32.541c-45.497-41.982-84.46-91.457-113.311-147.769-7.411-14.66-7.411-31.971 0-46.631 86.569-169.032 258.077-283.397 454.458-283.397 71.754-0.037 142.667 15.457 207.867 45.417l-46.727 36.743c-50.817-19.601-104.988-31.040-161.14-31.040z" />
<glyph unicode="&#xe90f;" glyph-name="FA-Headset2x" d="M701.44 256h-9.4c-24.32 0-48-5.8-71-13.6-72.4-24.56-150.88-24.56-223.28 0-22.96 7.8-46.58 13.56-70.84 13.56h-9.48c-141.369 0-255.978-114.591-256-255.96 0-35.346 28.654-64 64-64h768c35.346 0 64 28.654 64 64 0 141.385-114.615 256-256 256zM125.44 0c0.11 105.993 86.007 191.89 192 192h9.48c13.84 0 29.84-3.24 50.32-10.18 85.709-29.067 178.611-29.067 264.32 0 20.62 6.98 36.66 10.22 50.48 10.22h9.4c105.993-0.11 191.89-86.007 192-192l-768-0.040zM157.44 512c17.673 0 32 14.327 32 32v32c0 176.44 143.56 320 320 320s320-143.56 320-320v-32c-0.099-88.324-71.676-159.901-160-160h-64c0 35.346-28.654 64-64 64h-64c-35.346 0-64-28.654-64-64s28.654-64 64-64h192c123.648 0.154 223.846 100.352 224 224v32c0 211.76-172.24 384-384 384s-384-172.24-384-384v-32c0-17.673 14.327-32 32-32zM509.44 768c75.763 0.338 144.575-44.105 175.427-113.303s17.921-150.087-32.967-206.217c0-0.18 0.26-0.3 0.36-0.48h17.18c33.009 0.073 63.655 17.137 81.1 45.16 8.9 26.12 14.9 53.68 14.9 82.84 0 141.385-114.615 256-256 256s-256-114.615-256-256c0-80.84 38.2-152 96.7-198.94-0.12 2.34-0.7 4.56-0.7 6.94 0.144 22.544 6.31 44.639 17.86 64-51.153 56.066-64.294 137.082-33.485 206.442s99.732 113.925 175.625 113.558v0z" />
<glyph unicode="&#xe910;" glyph-name="FA-Info-circle2x" d="M512 893.935c244.895 0 445.935-198.348 445.935-445.935 0-246.278-199.453-445.935-445.935-445.935-246.181 0-445.935 199.354-445.935 445.935 0 246.097 199.436 445.935 445.935 445.935v0zM512 960c-282.75 0-512-229.333-512-512 0-282.833 229.25-512 512-512s512 229.167 512 512c0 282.667-229.25 512-512 512zM437.677 249.806h24.774v247.742h-24.774c-13.682 0-24.774 11.093-24.774 24.774v16.516c0 13.682 11.093 24.774 24.774 24.774h99.097c13.682 0 24.774-11.093 24.774-24.774v-289.032h24.774c13.682 0 24.774-11.093 24.774-24.774v-16.516c0-13.682-11.093-24.774-24.774-24.774h-148.645c-13.682 0-24.774 11.093-24.774 24.774v16.516c0 13.682 11.093 24.774 24.774 24.774zM512 745.29c-36.486 0-66.065-29.578-66.065-66.065s29.578-66.065 66.065-66.065c36.486 0 66.065 29.578 66.065 66.065s-29.578 66.065-66.065 66.065z" />
<glyph unicode="&#xe911;" glyph-name="FA-keyboard2x" d="M938.667 796.16h-853.333c-47.129 0-85.333-38.204-85.333-85.333v-512c0-47.129 38.204-85.333 85.333-85.333h853.333c47.129 0 85.333 38.204 85.333 85.333v512c0 47.129-38.204 85.333-85.333 85.333zM967.111 198.827c0-15.685-12.759-28.444-28.444-28.444h-853.333c-15.685 0-28.444 12.759-28.444 28.444v512c0 15.685 12.759 28.444 28.444 28.444h853.333c15.685 0 28.444-12.759 28.444-28.444v-512zM298.667 433.493v42.667c0 11.781-9.552 21.333-21.333 21.333h-42.667c-11.781 0-21.333-9.552-21.333-21.333v-42.667c0-11.781 9.552-21.333 21.333-21.333h42.667c11.781 0 21.333 9.552 21.333 21.333zM469.333 433.493v42.667c0 11.781-9.552 21.333-21.333 21.333h-42.667c-11.781 0-21.333-9.552-21.333-21.333v-42.667c0-11.781 9.552-21.333 21.333-21.333h42.667c11.781 0 21.333 9.552 21.333 21.333zM640 433.493v42.667c0 11.781-9.552 21.333-21.333 21.333h-42.667c-11.781 0-21.333-9.552-21.333-21.333v-42.667c0-11.781 9.552-21.333 21.333-21.333h42.667c11.781 0 21.333 9.552 21.333 21.333zM810.667 433.493v42.667c0 11.781-9.552 21.333-21.333 21.333h-42.667c-11.781 0-21.333-9.552-21.333-21.333v-42.667c0-11.781 9.552-21.333 21.333-21.333h42.667c11.781 0 21.333 9.552 21.333 21.333zM213.333 291.271v42.667c0 11.781-9.552 21.333-21.333 21.333h-42.667c-11.781 0-21.333-9.552-21.333-21.333v-42.667c0-11.781 9.552-21.333 21.333-21.333h42.667c11.781 0 21.333 9.552 21.333 21.333zM896 291.271v42.667c0 11.781-9.552 21.333-21.333 21.333h-42.667c-11.781 0-21.333-9.552-21.333-21.333v-42.667c0-11.781 9.552-21.333 21.333-21.333h42.667c11.781 0 21.333 9.552 21.333 21.333zM213.333 575.716v42.667c0 11.781-9.552 21.333-21.333 21.333h-42.667c-11.781 0-21.333-9.552-21.333-21.333v-42.667c0-11.781 9.552-21.333 21.333-21.333h42.667c11.781 0 21.333 9.552 21.333 21.333zM384 575.716v42.667c0 11.781-9.552 21.333-21.333 21.333h-42.667c-11.781 0-21.333-9.552-21.333-21.333v-42.667c0-11.781 9.552-21.333 21.333-21.333h42.667c11.781 0 21.333 9.552 21.333 21.333zM554.667 575.716v42.667c0 11.781-9.552 21.333-21.333 21.333h-42.667c-11.781 0-21.333-9.552-21.333-21.333v-42.667c0-11.781 9.552-21.333 21.333-21.333h42.667c11.781 0 21.333 9.552 21.333 21.333zM725.333 575.716v42.667c0 11.781-9.552 21.333-21.333 21.333h-42.667c-11.781 0-21.333-9.552-21.333-21.333v-42.667c0-11.781 9.552-21.333 21.333-21.333h42.667c11.781 0 21.333 9.552 21.333 21.333zM896 575.716v42.667c0 11.781-9.552 21.333-21.333 21.333h-42.667c-11.781 0-21.333-9.552-21.333-21.333v-42.667c0-11.781 9.552-21.333 21.333-21.333h42.667c11.781 0 21.333 9.552 21.333 21.333zM725.333 305.493v14.222c0 11.781-9.552 21.333-21.333 21.333h-384c-11.781 0-21.333-9.552-21.333-21.333v-14.222c0-11.781 9.552-21.333 21.333-21.333h384c11.781 0 21.333 9.552 21.333 21.333z" />
<glyph unicode="&#xe912;" glyph-name="FA-Lock2x" d="M508.567 119.641c-21.957 0-39.922 17.965-39.922 39.922v127.75c0 21.957 17.965 39.922 39.922 39.922s39.922-17.965 39.922-39.922v-127.75c0-21.957-17.965-39.922-39.922-39.922zM955.693 415.064v-383.251c0-52.897-42.916-95.813-95.813-95.813h-702.628c-52.897 0-95.813 42.916-95.813 95.813v383.251c0 52.897 42.916 95.813 95.813 95.813h31.938v127.75c0 176.455 143.719 319.975 320.374 319.376 176.455-0.599 318.378-145.915 318.378-322.37v-124.756h31.938c52.897 0 95.813-42.916 95.813-95.813zM253.066 510.877h511.002v127.75c0 140.925-114.576 255.501-255.501 255.501s-255.501-114.576-255.501-255.501v-127.75zM891.818 31.813v383.251c0 17.566-14.372 31.938-31.938 31.938h-702.628c-17.566 0-31.938-14.372-31.938-31.938v-383.251c0-17.566 14.372-31.938 31.938-31.938h702.628c17.566 0 31.938 14.372 31.938 31.938z" />
<glyph unicode="&#xe913;" glyph-name="FA-Mail2x" d="M928 837.12h-832c-53 0-96-43-96-96v-576c0-53 43-96 96-96h832c53 0 96 43 96 96v576c0 53-43 96-96 96zM96 773.12h832c17.6 0 32-14.4 32-32v-82.8c-43.8-37-106.4-88-301.2-242.6-33.8-26.8-100.4-91.4-146.8-90.6-46.4-0.8-113.2 63.8-146.8 90.6-194.8 154.6-257.4 205.6-301.2 242.6v82.8c0 17.6 14.4 32 32 32zM928 133.12h-832c-17.6 0-32 14.4-32 32v410c45.6-37.4 117.6-95.2 261.4-209.4 41-32.8 113.4-105 186.6-104.6 72.8-0.6 144.6 71 186.6 104.6 143.8 114.2 215.8 172 261.4 209.4v-410c0-17.6-14.4-32-32-32z" />
<glyph unicode="&#xe914;" glyph-name="FA-mask2x" d="M513.072 755.2c-708.16 0-572.112-614.4-253.536-614.4 63.84 0 123.952 33.104 162.272 89.376l41.168 60.464c12.528 18.4 31.312 27.6 50.096 27.6s37.584-9.2 50.096-27.6l41.168-60.464c38.32-56.272 98.432-89.376 162.272-89.376 303.776 0 465.008 614.4-253.536 614.4zM766.608 196.656c-47.376 0-92.672 24.976-121.152 66.816l-41.168 60.464c-21.696 31.872-54.944 50.144-91.2 50.144-36.272 0-69.504-18.272-91.2-50.144l-41.168-60.464c-28.48-41.84-73.776-66.816-121.168-66.816-124.64 0-208.352 116.080-208.352 224.512 0 49.664 16.4 121.584 94.512 182.272 80.768 62.752 207.792 95.904 367.36 95.904 160.096 0 286.96-32.464 366.896-93.856 76.72-58.944 92.832-129.68 92.832-178.624 0-108.88-84.672-230.208-206.192-230.208zM307.2 559.712c-75.088 0-123.904-47.888-146.432-76.624-9.552-12.192-9.552-30.048 0-42.224 22.528-28.736 71.344-76.624 146.432-76.624s123.904 47.888 146.432 76.624c9.552 12.192 9.552 30.048 0 42.224-22.528 28.736-71.344 76.624-146.432 76.624zM307.2 420.080c-42.928 0-74.464 22.080-94.112 41.888 19.648 19.808 51.2 41.888 94.112 41.888s74.464-22.080 94.112-41.888c-19.648-19.808-51.184-41.888-94.112-41.888zM716.8 559.712c-75.088 0-123.904-47.888-146.432-76.624-9.552-12.192-9.552-30.048 0-42.224 22.528-28.736 71.344-76.624 146.432-76.624s123.904 47.888 146.432 76.624c9.552 12.192 9.552 30.048 0 42.224-22.528 28.736-71.344 76.624-146.432 76.624zM716.8 420.080c-42.928 0-74.464 22.080-94.112 41.888 19.648 19.808 51.2 41.888 94.112 41.888 42.928 0 74.464-22.080 94.112-41.888-19.648-19.808-51.184-41.888-94.112-41.888z" />
<glyph unicode="&#xe915;" glyph-name="FA-Microphone---slash2x" d="M421.86 687.353c0 55.067 45.003 99.839 100.355 99.839s100.355-44.772 100.355-99.839v-232.906l48.139-37.596c0.941 6.864 2.038 13.728 2.038 20.904v249.597c0 82.679-67.426 149.758-150.533 149.758s-150.533-67.079-150.533-149.758v-36.348l50.178-39.312v75.659zM773.103 437.756v87.359c0 6.864-5.645 12.48-12.544 12.48h-25.089c-6.899 0-12.544-5.616-12.544-12.48v-87.359c0-19.188-3.607-37.44-8.781-55.067l42.337-33.228c10.663 27.456 16.621 57.095 16.621 88.295zM660.204 88.319h-112.9v101.399c42.651 4.212 81.695 19.812 115.409 42.588l-41.397 32.448c-32.929-18.72-71.503-29.016-112.743-26.208-106.627 7.020-187.068 99.995-187.068 206.23v54.911l-44.689 35.1c-3.136-2.34-5.488-5.46-5.488-9.516v-78.467c0-130.103 96.749-243.513 225.799-256.461v-102.023h-112.9c-6.899 0-12.544-5.616-12.544-12.48v-24.96c0-6.864 5.645-12.48 12.544-12.48h275.977c6.899 0 12.544 5.616 12.544 12.48v24.96c0 6.864-5.645 12.48-12.544 12.48v0zM522.215 287.997c19.757 0 38.417 4.056 55.666 10.92l-50.491 39.624c-1.725-0.156-3.293-0.468-5.175-0.468-49.080 0-89.849 35.256-98.474 81.743l-52.059 40.56v-22.62c0-82.679 67.426-149.758 150.533-149.758zM1019.287 80.208l-962.783 754.096c-5.331 4.368-13.328 3.588-17.562-1.872l-15.681-19.5c-4.391-5.46-3.45-13.26 1.882-17.472l962.783-754.252c5.331-4.368 13.328-3.432 17.562 1.872l15.681 19.5c4.391 5.46 3.607 13.26-1.882 17.628z" />
<glyph unicode="&#xe916;" glyph-name="FA-Microphone2x" d="M522.24 294.4c84.832 0 153.6 68.768 153.6 153.6v256c0 84.832-68.768 153.6-153.6 153.6s-153.6-68.768-153.6-153.6v-256c0-84.832 68.768-153.6 153.6-153.6zM419.84 704c0 56.464 45.936 102.4 102.4 102.4s102.4-45.936 102.4-102.4v-256c0-56.464-45.936-102.4-102.4-102.4s-102.4 45.936-102.4 102.4v256zM765.44 550.4h-25.6c-7.072 0-12.8-5.728-12.8-12.8v-89.6c0-117.536-99.52-212.288-218.768-204.336-108.752 7.248-190.832 102.56-190.832 211.552v82.384c0 7.072-5.728 12.8-12.8 12.8h-25.6c-7.072 0-12.8-5.728-12.8-12.8v-80.544c0-133.424 98.64-249.792 230.4-263.088v-104.368h-115.2c-7.072 0-12.8-5.728-12.8-12.8v-25.6c0-7.072 5.728-12.8 12.8-12.8h281.6c7.072 0 12.8 5.728 12.8 12.8v25.6c0 7.072-5.728 12.8-12.8 12.8h-115.2v104.016c129.136 12.944 230.4 121.904 230.4 254.384v89.6c0 7.072-5.728 12.8-12.8 12.8z" />
<glyph unicode="&#xe917;" glyph-name="FA-Plane2x" d="M853.333 557.227h-203.182l-186.844 327.004c-5.072 8.862-14.501 14.33-24.711 14.329h-157.084c-18.898 0-32.533-18.080-27.342-36.249l87.164-305.084h-113.778l-76.8 102.4c-5.369 7.164-13.813 11.378-22.756 11.378h-99.538c-18.507 0-32.089-17.387-27.591-35.342l56.018-192.213-56.018-192.213c-4.498-17.956 9.084-35.342 27.591-35.342h99.538c8.96 0 17.387 4.213 22.756 11.378l76.8 102.4h113.778l-87.164-305.067c-5.191-18.169 8.444-36.267 27.342-36.267h157.084c10.204 0 19.627 5.476 24.693 14.329l186.862 327.004h203.182c62.844 0 170.667 50.933 170.667 113.778s-107.822 113.778-170.667 113.778zM853.333 386.56h-236.196l-195.040-341.333h-102.862l97.529 341.333h-217.653l-85.333-113.778h-47.378l49.742 170.667-49.778 170.667h47.413l85.333-113.778h217.636l-97.511 341.333h102.88l195.040-341.333h236.178c46.649 0 111.307-38.667 113.778-56.729-2.471-18.382-67.129-57.049-113.778-57.049z" />
<glyph unicode="&#xe918;" glyph-name="FA-Plug2x" d="M842.88 640h-672c-26.51 0-48-21.49-48-48v-96c0-26.51 21.49-48 48-48h16c0-165.93 126.294-302.356 288-318.412v-193.588h64v193.588c161.706 16.056 288 152.482 288 318.412h16c26.51 0 48 21.49 48 48v96c0 26.51-21.49 48-48 48zM826.88 512h-64v-64c0-141.48-114.498-256-256-256-141.48 0-256 114.498-256 256v64h-64v64h640v-64zM666.88 672v256c0 17.674 14.326 32 32 32s32-14.326 32-32v-256h-64zM282.88 672v256c0 17.674 14.326 32 32 32s32-14.326 32-32v-256h-64z" />
<glyph unicode="&#xe919;" glyph-name="FA-Question-circle2x" d="M512 274.581c-31.926 0-57.806-25.881-57.806-57.806s25.881-57.806 57.806-57.806c31.926 0 57.806 25.881 57.806 57.806s-25.881 57.806-57.806 57.806zM527.835 324.129h-33.032c-13.682 0-24.774 11.093-24.774 24.774v0.787c0 145.224 159.876 131.342 159.876 221.746 0 41.323-36.668 83.016-118.586 83.016-60.168 0-91.386-19.921-122.242-59.235-8.068-10.281-22.821-12.377-33.544-4.905l-27.115 18.89c-11.613 8.091-14.163 24.301-5.461 35.462 43.821 56.211 95.814 92.369 188.362 92.369 108.015 0 201.166-61.421 201.166-165.597 0-139.177-159.876-131.817-159.876-221.746v-0.787c0-13.682-11.093-24.774-24.774-24.774zM512 893.935c244.895 0 445.935-198.348 445.935-445.935 0-246.278-199.453-445.935-445.935-445.935-246.181 0-445.935 199.354-445.935 445.935 0 246.097 199.436 445.935 445.935 445.935v0zM512 960c-282.75 0-512-229.333-512-512 0-282.833 229.25-512 512-512s512 229.167 512 512c0 282.667-229.25 512-512 512z" />
<glyph unicode="&#xe91a;" glyph-name="FA-Settings2x" d="M981.917 358.656l-67.324 38.869c4.232 33.518 4.232 67.435 0 100.953l67.324 38.869c19.77 11.413 29.306 34.894 22.805 56.776-23.151 77.933-64.361 148.084-118.782 205.615-15.761 16.661-40.913 20.307-60.773 8.84l-67.225-38.809c-26.889 20.464-56.259 37.445-87.41 50.539v77.655c0 22.978-15.798 42.95-38.161 48.242-77.717 18.393-159.211 18.395-236.945 0-22.361-5.291-38.161-25.261-38.161-48.242v-77.655c-31.151-13.094-60.52-30.075-87.41-50.539l-67.225 38.809c-19.863 11.466-45.015 7.82-60.773-8.84-54.421-57.532-95.63-127.684-118.782-205.615-6.501-21.882 3.035-45.362 22.805-56.776l67.324-38.869c-4.232-33.518-4.232-67.435 0-100.953l-67.324-38.869c-19.77-11.413-29.306-34.894-22.805-56.776 23.151-77.931 64.361-148.084 118.782-205.615 15.761-16.661 40.913-20.307 60.773-8.842l67.225 38.809c26.889-20.464 56.259-37.445 87.41-50.537v-77.655c0-22.978 15.798-42.95 38.161-48.242 77.719-18.393 159.211-18.395 236.945 0 22.361 5.291 38.161 25.261 38.161 48.242v77.655c31.15 13.094 60.52 30.074 87.41 50.537l67.225-38.809c19.861-11.466 45.013-7.82 60.773 8.842 54.421 57.532 95.63 127.684 118.782 205.615 6.501 21.882-3.035 45.362-22.805 56.776v0zM846.734 151.253l-95.606 55.205c-55.717-47.63-75.477-59.615-146.661-84.767v-110.408c-59.75-12.325-121.387-12.325-181.137 0v110.408c-69.411 24.524-89.507 35.912-146.661 84.767l-95.606-55.205c-40.692 45.605-71.616 99.074-90.692 156.817l95.647 55.205c-13.492 73.119-13.498 96.297 0 169.453l-95.647 55.205c19.076 57.742 50.003 111.213 90.692 156.839l95.606-55.246c56.52 48.38 76.517 60.005 146.661 84.788v110.406c59.748 12.346 121.389 12.346 181.137 0v-110.408c70.148-24.785 90.147-36.412 146.661-84.788l95.606 55.246c40.69-45.624 71.616-99.095 90.692-156.839l-95.647-55.205c13.494-73.138 13.498-96.297 0-169.453l95.647-55.205c-19.076-57.74-50.001-111.211-90.692-156.814zM513.899 646.194c-109.285 0-198.194-88.908-198.194-198.194s88.908-198.194 198.194-198.194c109.285 0 198.194 88.908 198.194 198.194s-88.908 198.194-198.194 198.194zM513.899 315.871c-72.857 0-132.129 59.272-132.129 132.129s59.272 132.129 132.129 132.129c72.857 0 132.129-59.272 132.129-132.129s-59.272-132.129-132.129-132.129z" />
<glyph unicode="&#xe91b;" glyph-name="FA-Tasks2x" d="M1012.023 691.924h-614.799c-6.587 0-11.977 5.389-11.977 11.977v47.906c0 6.587 5.389 11.977 11.977 11.977h614.799c6.587 0 11.977-5.389 11.977-11.977v-47.906c0-6.587-5.389-11.977-11.977-11.977zM1024 384.524v47.906c0 6.587-5.389 11.977-11.977 11.977h-614.799c-6.587 0-11.977-5.389-11.977-11.977v-47.906c0-6.587 5.389-11.977 11.977-11.977h614.799c6.587 0 11.977 5.389 11.977 11.977zM1024 65.148v47.906c0 6.587-5.389 11.977-11.977 11.977h-614.799c-6.587 0-11.977-5.389-11.977-11.977v-47.906c0-6.587 5.389-11.977 11.977-11.977h614.799c6.587 0 11.977 5.389 11.977 11.977zM138.529 168.945c-39.722 0-71.86-32.137-71.86-71.86s32.137-71.86 71.86-71.86c39.722 0 71.061 32.137 71.061 71.86s-31.339 71.86-71.061 71.86zM343.13 833.846l-14.771 14.771c-9.382 9.382-24.552 9.382-33.934 0l-157.293-158.091-76.65 76.65c-9.382 9.382-24.552 9.382-33.934 0l-17.765-17.765c-9.382-9.382-9.382-24.552 0-33.934l108.388-108.388c9.382-9.382 24.552-9.382 33.934 0l0.399 0.399 191.426 192.225c9.581 9.581 9.581 24.752 0.2 34.133zM343.928 514.47l-14.771 14.771c-9.382 9.382-24.552 9.382-33.934 0l-157.293-158.091-76.65 76.65c-9.382 9.382-24.552 9.382-33.934 0l-17.366-17.765c-9.382-9.382-9.382-24.552 0-33.934l108.388-108.388c9.382-9.382 24.552-9.382 33.934 0l-0.399 0.399 192.225 192.225c9.182 9.581 9.182 24.752-0.2 34.133z" />
<glyph unicode="&#xe91c;" glyph-name="FA-Tools2x" d="M1003.241 182.519l-248.315 248.515c-31.139 31.139-72.059 46.709-112.979 46.709-30.74 0-61.48-8.783-88.028-26.548l-170.667 170.667v146.514l-255.501 191.626-127.75-127.75 191.626-255.501h146.514l170.667-170.667c-41.12-62.079-34.333-146.314 20.36-201.007l248.515-248.515c12.376-12.376 28.744-18.763 45.112-18.763s32.736 6.188 45.112 18.763l135.535 135.535c24.752 25.151 24.752 65.472-0.2 90.423zM319.376 644.416v-3.793h-95.813l-139.128 185.637 49.304 49.304 185.637-139.128v-92.020zM822.593 1.871l-248.315 248.515c-18.165 18.165-28.145 42.118-28.145 67.668s9.981 49.703 28.145 67.668c18.165 18.165 42.118 28.145 67.668 28.145s49.703-9.981 67.668-28.145l248.515-248.315-135.535-135.535zM127.75 97.684c0-17.566 14.372-31.938 31.938-31.938s31.938 14.372 31.938 31.938c0 17.566-14.372 31.938-31.938 31.938s-31.938-14.372-31.938-31.938zM552.521 826.461c45.312 45.312 104.995 69.664 167.273 69.664 13.773 0 27.546-1.198 41.319-3.593l-138.33-138.529 27.546-165.676 165.876-27.546 138.33 138.33c13.374-76.251-10.579-153.301-66.071-208.593-17.765-17.765-38.126-31.938-59.883-42.916l47.108-47.108c20.759 12.376 40.321 27.147 57.887 44.912 75.453 75.453 105.195 182.444 79.245 286.041-4.591 18.963-19.362 33.934-38.126 39.124-18.963 5.19-39.323 0-53.296-13.973l-127.551-127.551-88.228 14.771-14.771 88.228 127.551 127.551c13.773 13.773 19.163 34.133 13.973 52.897-5.19 18.963-20.36 33.535-39.323 38.325-103.198 25.75-210.189-3.793-285.842-79.245-25.75-25.75-45.711-55.691-60.083-87.828v-135.336l44.114-44.114c-19.163 80.642 3.194 164.080 61.28 222.166zM213.583 27.621c-33.135-33.135-91.022-33.135-124.158 0-34.133 34.133-34.133 90.024 0 124.158l291.63 291.63-45.112 45.112-291.63-291.63c-59.085-59.085-59.085-155.297 0-214.581 28.544-28.544 66.67-44.313 107.191-44.313s78.646 15.769 107.191 44.513l203.203 203.004c-13.374 18.364-23.554 38.525-30.94 59.484l-217.375-217.375z" />
<glyph unicode="&#xe91d;" glyph-name="FA-trophy2x" d="M796.444 784.782v92.444c0 11.733-9.6 21.333-21.333 21.333h-526.222c-11.733 0-21.333-9.6-21.333-21.333v-92.444h-206.222c-11.733 0-21.333-9.6-21.333-21.333v-109.511c0-110.4 121.067-238.933 285.689-263.289 52.267-107.911 131.022-160.533 197.867-172.267v-173.156h-152.889c-25.6 0-46.222-20.8-46.222-46.4 0-5.867 4.8-10.489 10.667-10.489h433.778c5.867 0 10.667 4.622 10.667 10.489 0 25.6-20.622 46.4-46.222 46.4h-152.889v173.156c67.022 11.733 145.6 64.356 197.867 172.267 164.8 24.356 285.689 153.067 285.689 263.289v109.511c0 11.733-9.6 21.333-21.333 21.333h-206.222zM56.889 653.938v73.956h170.667v-42.667c0-92.089 12.444-168.711 32.889-231.467-121.956 31.467-203.556 128.356-203.556 200.178zM512 272.782c-128 0-227.556 184.889-227.556 412.444v156.444h455.111v-156.444c0-227.556-99.556-412.444-227.556-412.444zM967.111 653.938c0-71.822-81.778-168.711-203.556-200.178 20.444 62.756 32.889 139.378 32.889 231.467v42.667h170.667v-73.956z" />
<glyph unicode="&#xe91e;" glyph-name="FA-Umbrella2x" d="M1022.58 448.142c-51.999 218.288-256.799 353.697-481.298 364.523v57.5c0 15.617-12.778 28.395-28.395 28.395s-28.395-12.778-28.395-28.395v-57.5c-223.612-10.648-427.879-144.638-481.298-364.345-10.648-42.415 40.463-78.264 78.264-44.545 87.847 81.814 159.545 49.159 222.547-49.159 20.232-31.59 61.759-29.992 80.926 0 26.975 41.705 55.371 79.861 99.738 91.397v-342.694c0-31.412-25.378-56.79-56.79-56.79-24.136 0-45.61 15.262-53.596 37.801-5.324 14.73-21.474 22.539-36.204 17.392s-22.539-21.474-17.215-36.204c15.972-45.255 59.097-75.78 107.192-75.78 62.647 0 113.581 50.934 113.581 113.581v342.339c53.418-14.73 79.151-59.097 99.738-90.864 19.167-30.17 60.872-31.412 80.926 0 64.244 99.206 135.942 129.553 222.547 49.159 37.091-33.542 88.202 1.775 77.732 44.19zM682.016 397.208c-43.125 70.455-102.755 109.144-169.129 109.144-78.974 0-127.068-47.917-168.064-109.144-73.827 120.324-190.78 137.539-277.030 69.746 61.937 185.456 251.297 289.631 445.094 289.631 193.974 0 385.109-105.24 445.804-290.518-103.465 77.909-202.493 38.866-276.675-68.858z" />
<glyph unicode="&#xe91f;" glyph-name="FA-Unplugged2x" d="M667.765 248.791l45.416-45.416c-14.048-11.858-29.131-22.529-45.095-31.856l-47.175 47.175c16.745 8.335 32.445 18.45 46.854 30.097zM340.555 576h-76.951l-64 64h76.951l64-64zM186.88 565.835v-53.835h53.835l10.165-10.165v-53.835c0-141.502 114.52-256 256-256 16.808 0 33.235 1.616 49.135 4.701l52.287-52.287c-22.16-7.4-45.4-12.441-69.421-14.826v-193.588h-64v193.588c-161.706 16.056-288 152.482-288 318.412h-16c-26.51 0-48 21.49-48 48v96c0 10.662 3.476 20.512 9.357 28.478l54.643-54.643zM427.445 576l-64 64h479.435c26.51 0 48-21.49 48-48v-96c0-26.51-21.49-48-48-48h-16c0-75.996-26.492-145.803-70.744-200.691l-45.543 45.543c32.812 43.036 52.287 96.799 52.287 155.148v64h64v64h-399.435zM666.88 672v256c0 17.674 14.326 32 32 32s32-14.326 32-32v-256h-64zM282.88 718.515v209.485c0 17.674 14.326 32 32 32s32-14.326 32-32v-256h-19.2l-44.8 46.515zM125.365 796.16l753.040-753.040-43.445-43.445-753.040 753.040 43.445 43.445z" />
<glyph unicode="&#xe920;" glyph-name="FA-User-headset2x" d="M701.44 256h-9.4c-24.32 0-48-5.8-71-13.6-72.4-24.56-150.88-24.56-223.28 0-22.96 7.8-46.58 13.56-70.84 13.56h-9.48c-141.369 0-255.978-114.591-256-255.96 0-35.346 28.654-64 64-64h768c35.346 0 64 28.654 64 64 0 141.385-114.615 256-256 256zM125.44 0c0.11 105.993 86.007 191.89 192 192h9.48c13.84 0 29.84-3.24 50.32-10.18 85.709-29.067 178.611-29.067 264.32 0 20.62 6.98 36.66 10.22 50.48 10.22h9.4c105.993-0.11 191.89-86.007 192-192l-768-0.040zM157.44 512c17.673 0 32 14.327 32 32v32c0 176.44 143.56 320 320 320s320-143.56 320-320v-32c-0.099-88.324-71.676-159.901-160-160h-64c0 35.346-28.654 64-64 64h-64c-35.346 0-64-28.654-64-64s28.654-64 64-64h192c123.648 0.154 223.846 100.352 224 224v32c0 211.76-172.24 384-384 384s-384-172.24-384-384v-32c0-17.673 14.327-32 32-32zM509.44 768c75.763 0.338 144.575-44.105 175.427-113.303s17.921-150.087-32.967-206.217c0-0.18 0.26-0.3 0.36-0.48h17.18c33.009 0.073 63.655 17.137 81.1 45.16 8.9 26.12 14.9 53.68 14.9 82.84 0 141.385-114.615 256-256 256s-256-114.615-256-256c0-80.84 38.2-152 96.7-198.94-0.12 2.34-0.7 4.56-0.7 6.94 0.144 22.544 6.31 44.639 17.86 64-51.153 56.066-64.294 137.082-33.485 206.442s99.732 113.925 175.625 113.558v0z" />
<glyph unicode="&#xe921;" glyph-name="FA-Wheel2x" d="M512 960c-282.771 0-512-229.229-512-512s229.229-512 512-512c282.771 0 512 229.229 512 512s-229.229 512-512 512zM860.42 726.346l-129.827-129.827c-18.757 27.544-42.527 51.315-70.072 70.072l129.827 129.827c25.873-20.698 49.374-44.199 70.072-70.072zM512 249.806c-109.285 0-198.194 88.908-198.194 198.194s88.908 198.194 198.194 198.194c109.285 0 198.194-88.908 198.194-198.194s-88.908-198.194-198.194-198.194zM363.481 666.593c-27.544-18.757-51.315-42.527-70.072-70.072l-129.827 129.827c20.698 25.873 44.199 49.374 70.072 70.072l129.827-129.827zM125.632 670.869l136.545-136.547c-19.252-55.721-19.262-116.889 0-172.643l-136.545-136.547c-79.531 137.734-79.484 308.086 0 445.737zM293.407 299.481c18.757-27.544 42.527-51.315 70.072-70.072l-129.827-129.827c-25.872 20.699-49.373 44.199-70.072 70.072l129.827 129.827zM790.346 99.58l-129.827 129.827c27.544 18.757 51.315 42.527 70.072 70.072l129.827-129.827c-20.698-25.873-44.199-49.374-70.072-70.072zM898.368 225.131l-136.547 136.547c19.252 55.721 19.262 116.889 0 172.643l136.547 136.547c79.531-137.734 79.484-308.086 0-445.737z" />
<glyph unicode="&#xe922;" glyph-name="Fn-key-Ctrol-swap" d="M547.632 872.756c6.733 6.966 17.838 7.154 24.804 0.421v0l95.055-91.882c0 0 0 0 0 0 6.95-6.718 7.138-17.797 0.42-24.747-0.010-0.010-0.020-0.020-0.030-0.030l0.002 0.002-91.994-95.171c-0.008-0.009-0.018-0.019-0.028-0.029-6.718-6.95-17.797-7.138-24.747-0.42 0 0 0 0 0 0v0l-10.501 10.15c-6.966 6.733-7.154 17.838-0.421 24.804v0l45.577 47.151c-109.772 32.31-231.253 4.469-314.883-82.049-0.041-0.042-0.081-0.084-0.122-0.126l0.006 0.006c-0.024-0.025-0.053-0.055-0.082-0.085-115.907-119.91-116.688-308.671-4.662-429.495l0.551-0.581c6.263-6.785 6.21-17.31-0.257-24-0.016-0.017-0.033-0.034-0.049-0.051l0.003 0.003-10.178-10.53c-0.012-0.013-0.026-0.027-0.041-0.042-6.702-6.934-17.756-7.121-24.69-0.419-0.204 0.197-0.401 0.397-0.593 0.601l0.027-0.029c-131.075 140.6-130.398 359.809 4.122 498.974 0.054 0.056 0.107 0.111 0.161 0.167l-0.009-0.009c0.048 0.050 0.106 0.11 0.164 0.169 92.088 95.268 223.794 129.122 344.014 100.694l1.838-0.5-43.246 41.803c-6.966 6.733-7.154 17.838-0.421 24.804v0zM735.081 691.564c0.003 0.004 0.008 0.008 0.012 0.012 6.718 6.95 17.797 7.138 24.747 0.42 0.193-0.187 0.381-0.377 0.564-0.571l-0.026 0.027c131.075-140.6 130.398-359.809-4.122-498.974-0.054-0.056-0.107-0.111-0.161-0.167l0.009 0.009c-0.048-0.050-0.106-0.11-0.164-0.169-92.088-95.268-223.794-129.122-344.014-100.694l-1.838 0.5 43.246-41.803c0 0 0 0 0 0 6.95-6.718 7.138-17.797 0.42-24.747-0.010-0.010-0.020-0.020-0.030-0.030l0.002 0.002-10.15-10.501c0 0 0 0 0 0-6.723-6.955-17.806-7.153-24.773-0.45l-0.002 0.002-95.055 91.882c-6.966 6.733-7.154 17.838-0.421 24.804v0l91.994 95.171c6.733 6.966 17.838 7.154 24.804 0.421v0l10.501-10.15c6.937-6.737 7.115-17.82 0.392-24.776 0 0 0 0 0 0l-45.578-47.151c109.82-32.269 231.327-4.393 314.985 82.155 0.005 0.005 0.010 0.010 0.014 0.015l-0.001-0.001c0.032 0.033 0.070 0.073 0.109 0.112 115.902 119.904 116.673 308.661 4.635 429.469l-0.55 0.58c-6.263 6.785-6.21 17.31 0.257 24 0.016 0.017 0.033 0.034 0.049 0.051l-0.003-0.003z" />
<glyph unicode="&#xe923;" glyph-name="games" d="M755.2 663.040c120.32 0 217.6-97.28 217.6-217.6s-97.28-217.6-217.6-217.6c-67.36 0-128 38.4-155.2 64h-176c-27.2-25.6-68.96-64-155.2-64-120.32 0-217.6 97.28-217.6 217.6s97.28 217.6 217.6 217.6h486.4zM755.2 714.24h-486.4c-148.48 0-268.8-120.32-268.8-268.8s120.32-268.8 268.8-268.8c66.4 0 127.2 24.16 174.080 64h138.24c46.88-39.84 107.68-64 174.080-64 148.48 0 268.8 120.32 268.8 268.8s-120.32 268.8-268.8 268.8zM819.2 554.24c-31.84 0-57.6-25.76-57.6-57.6s25.76-57.6 57.6-57.6c31.84 0 57.6 25.76 57.6 57.6s-25.76 57.6-57.6 57.6zM716.8 451.84c-31.84 0-57.6-25.76-57.6-57.6s25.76-57.6 57.6-57.6c31.84 0 57.6 25.76 57.6 57.6s-25.76 57.6-57.6 57.6zM288 477.44v73.6c0 5.28-4.32 9.6-9.6 9.6h-44.8c-5.28 0-9.6-4.32-9.6-9.6v-73.6h-73.6c-5.28 0-9.6-4.32-9.6-9.6v-44.8c0-5.28 4.32-9.6 9.6-9.6h73.6v-73.6c0-5.28 4.32-9.6 9.6-9.6h44.8c5.28 0 9.6 4.32 9.6 9.6v73.6h73.6c5.28 0 9.6 4.32 9.6 9.6v44.8c0 5.28-4.32 9.6-9.6 9.6h-73.6z" />
<glyph unicode="&#xe925;" glyph-name="Keep-my-display" d="M19.712 769.638c-10.857 0.029-19.654 8.808-19.712 19.655v150.944c0 10.906 13.056 19.763 23.808 19.763h149.043c10.584-0.553 18.957-9.27 18.957-19.942s-8.373-19.389-18.908-19.94l-0.049-0.002h-133.478v-130.816c-0.058-10.835-8.826-19.603-19.655-19.661h-0.006zM1004.339 769.638c-10.857 0.029-19.654 8.808-19.712 19.655v130.822h-111.974c-10.584 0.553-18.957 9.27-18.957 19.942s8.373 19.389 18.908 19.94l0.049 0.002h136.090c10.752 0 15.36-8.858 15.36-19.763v-150.938c-0.058-10.835-8.826-19.603-19.655-19.661h-0.006zM172.851-63.949h-149.043c-10.752 0-23.808 8.806-23.808 19.661v150.938c0.549 10.446 9.153 18.708 19.686 18.708s19.137-8.262 19.684-18.659l0.002-0.049v-130.765h133.478c10.584-0.553 18.957-9.27 18.957-19.942s-8.373-19.389-18.908-19.94l-0.049-0.002zM1008.742-63.949h-136.090c-10.584 0.553-18.957 9.27-18.957 19.942s8.373 19.389 18.908 19.94l0.049 0.002h111.974v130.714c0.549 10.446 9.153 18.708 19.686 18.708s19.137-8.262 19.684-18.659l0.002-0.049v-150.989c0-10.854-4.506-19.61-15.258-19.61zM275.2 448c-0.058 16.13-13.148 29.184-29.286 29.184-0.018 0-0.036 0-0.054 0h-63.075c-16.16 0-29.261-13.101-29.261-29.261s13.101-29.261 29.261-29.261v0h63.13c16.169 0.058 29.257 13.165 29.286 29.335v0.003zM303.053 615.322c5.308-5.304 12.639-8.584 20.736-8.584s15.428 3.28 20.736 8.584v0c5.267 5.325 8.521 12.65 8.521 20.736s-3.254 15.411-8.524 20.739l-44.643 44.643c-5.241 4.952-12.331 7.997-20.131 7.997-16.203 0-29.338-13.135-29.338-29.338 0-7.801 3.044-14.89 8.010-20.145l-0.013 0.014zM511.949 684.646c16.168 0.087 29.251 13.17 29.338 29.329v63.086c-0.675 15.667-13.54 28.112-29.312 28.112s-28.637-12.445-29.31-28.051l-0.002-0.061v-63.13c0.087-16.157 13.176-29.229 29.332-29.286h0.006zM841.011 477.338h-63.027c-0.366 0.016-0.794 0.026-1.225 0.026-16.203 0-29.338-13.135-29.338-29.338s13.135-29.338 29.338-29.338c0.431 0 0.86 0.009 1.286 0.028l-0.061-0.002h63.13c0.366-0.016 0.794-0.026 1.225-0.026 16.203 0 29.338 13.135 29.338 29.338s-13.135 29.338-29.338 29.338c-0.431 0-0.86-0.009-1.286-0.028l0.061 0.002zM699.955 606.771c7.982 0.057 15.203 3.27 20.485 8.453l44.744 44.744c4.952 5.241 7.997 12.331 7.997 20.131 0 16.203-13.135 29.338-29.338 29.338-7.801 0-14.89-3.044-20.145-8.010l0.014 0.013-44.646-44.646c-5.258-5.3-8.508-12.6-8.508-20.659s3.249-15.359 8.509-20.661l-0.002 0.002c5.201-5.339 12.448-8.664 20.472-8.704h0.008zM720.435 280.576c-5.36 5.731-12.967 9.303-21.409 9.303-16.174 0-29.286-13.112-29.286-29.286 0-8.403 3.539-15.98 9.209-21.321l0.015-0.014 44.646-44.646c5.224-5.288 12.465-8.572 20.474-8.602h0.006c7.982 0.057 15.203 3.27 20.485 8.453l-0.005-0.005c5.304 5.308 8.584 12.639 8.584 20.736s-3.28 15.428-8.584 20.736v0l-44.646 44.493zM660.224 596.582c-37.993 38.014-90.49 61.528-148.48 61.528-115.936 0-209.92-93.984-209.92-209.92s93.984-209.92 209.92-209.92c115.905 0 209.87 93.934 209.92 209.827v0.005c0.001 0.202 0.001 0.44 0.001 0.679 0 57.695-23.338 109.938-61.088 147.806l0.005-0.005zM663.245 448.102c0-83.728-67.875-151.603-151.603-151.603s-151.603 67.875-151.603 151.603c0 83.728 67.875 151.603 151.603 151.603v0c0.061 0 0.133 0 0.205 0 83.795 0 151.728-67.915 151.757-151.703v-0.003zM512 211.354c-16.179-0.058-29.28-13.158-29.338-29.332v-63.136c0.675-15.667 13.54-28.112 29.312-28.112s28.637 12.445 29.31 28.051l0.002 0.061v63.13c-0.058 16.161-13.129 29.251-29.278 29.338h-0.008zM323.84 289.126c-0.014 0-0.030 0-0.046 0-8.086 0-15.403-3.288-20.689-8.6l-44.647-44.647c-5.305-5.308-8.585-12.64-8.585-20.737 0-16.107 12.98-29.182 29.051-29.336h0.015c7.982 0.057 15.203 3.27 20.485 8.453l44.744 44.744c5.304 5.308 8.584 12.639 8.584 20.736s-3.28 15.428-8.584 20.736v0c-5.227 5.201-12.378 8.472-20.292 8.652l-0.034 0.001z" />
<glyph unicode="&#xe926;" glyph-name="LE-Acoustic-echo-cancellation2x" d="M792.722-63.961c-5.506 0-11.013 2.096-15.215 6.289-84.75 84.615-131.468 197.168-131.555 316.909-0.077 119.74 46.476 232.342 131.101 317.083 8.405 8.405 22.035 8.424 30.45 0.019s8.424-22.035 0.019-30.45c-76.501-76.597-118.581-178.389-118.504-286.623 0.068-108.235 42.312-209.968 118.919-286.459 8.414-8.405 8.424-22.045 0.019-30.45-4.202-4.212-9.718-6.318-15.234-6.318zM878.081 21.511c-5.506 0-11.013 2.096-15.215 6.289-61.913 61.826-96.053 144.046-96.111 231.511-0.068 87.484 33.947 169.752 95.773 231.646 8.405 8.405 22.026 8.424 30.45 0.019 8.414-8.405 8.424-22.045 0.010-30.459-53.692-53.75-83.234-125.198-83.176-201.168 0.058-75.979 29.706-147.388 83.485-201.071 8.414-8.395 8.424-22.035 0.019-30.45-4.202-4.212-9.718-6.318-15.234-6.318zM969.118 112.671c-5.506 0-11.013 2.096-15.215 6.289-37.56 37.502-58.262 87.378-58.3 140.443-0.029 53.074 20.606 102.98 58.117 140.52 8.395 8.405 22.035 8.424 30.45 0.019 8.405-8.405 8.414-22.035 0.010-30.45-29.377-29.416-45.539-68.502-45.51-110.061s16.239-80.626 45.665-109.993c8.414-8.395 8.424-22.035 0.019-30.45-4.202-4.212-9.718-6.318-15.234-6.318zM241.303-54.574c-32.594 0-61.788 12.356-84.847 36.024-33.010 33.869-49.693 88.653-44.631 146.548 1.034 11.853 11.428 20.441 23.32 19.582 11.844-1.043 20.615-11.486 19.572-23.33-3.98-45.578 8.192-87.726 32.575-112.746 16.171-16.587 36.178-24.306 59.479-22.837 70.328 4.309 108.274 81.872 138.771 144.191l3.97 8.124c9.438 19.214 18.818 38.506 28.199 57.817 38.748 79.717 78.819 162.169 124.136 240.186 55.112 94.875 99.83 196.56 54.311 297.288-39.598 87.649-134.067 160.7-219.735 169.926-122.561 13.264-250.861-99.405-293.791-212.895-4.212-11.109-16.635-16.703-27.754-12.53-11.119 4.212-16.722 16.645-12.52 27.754 48.418 128 191.758 256.309 338.683 240.485 101.26-10.897 208.229-92.914 254.358-195.004 53.683-118.813 1.662-236.843-56.31-336.645-44.525-76.655-84.238-158.363-122.638-237.394-9.419-19.359-18.818-38.709-28.286-57.982l-3.941-8.057c-33.541-68.531-79.466-162.401-174.814-168.255-2.724-0.164-5.429-0.251-8.105-0.251zM254.062 176.482c-16.915 0-33.85 4.782-48.698 16.036-51.219 38.806-55.48 144.761-21.272 195.507 15.959 23.697 36.197 39.105 55.769 54.002 15.515 11.824 30.179 22.982 41.82 37.675 19.649 24.75 28.836 63.15 7.187 85.543-10.762 11.138-31.116 14.78-45.355 8.153-9.718-4.531-13.863-12.365-12.665-23.977 1.092-10.588-6.608-20.065-17.195-21.147-10.568-1.237-20.055 6.608-21.156 17.186-2.869 27.909 10.114 51.413 34.748 62.879 29.377 13.679 66.946 6.83 89.33-16.287 37.308-38.603 25.88-97.782-4.685-136.308-14.655-18.471-31.947-31.638-48.679-44.389-17.862-13.602-34.748-26.45-47.152-44.872-23.562-34.942-20.905-117.866 12.587-143.244 20.915-15.853 52.833-6.811 71.612 11.1 45.993 43.848 75.109 104.525 103.269 163.193 4.956 10.327 9.892 20.615 14.887 30.739 36.439 73.941 68.444 146.422 59.991 220.276-8.781 76.655-63.179 131.178-138.597 138.916-76.249 7.738-156.508-61.392-183.586-130.946-3.854-9.921-15.032-14.848-24.953-10.965-9.921 3.854-14.829 15.032-10.974 24.953 32.092 82.413 126.599 165.231 223.454 155.3 94.14-9.651 162.034-77.515 172.95-172.882 9.651-84.238-24.624-162.391-63.71-241.683-4.927-10.018-9.805-20.181-14.713-30.392-29.648-61.788-60.319-125.682-111.413-174.399-18.5-17.65-45.636-29.966-72.801-29.966z" />
<glyph unicode="&#xe927;" glyph-name="LE-Active-pen-battery2x" d="M896 642.56h-819.2c-14.117 0-25.6-11.483-25.6-25.6v-358.4c0-14.117 11.483-25.6 25.6-25.6h819.2c14.117 0 25.6 11.483 25.6 25.6v76.8h51.2v204.8h-51.2v76.8c0 14.117-11.483 25.6-25.6 25.6zM896 693.76c42.416 0 76.8-34.384 76.8-76.8v-25.6h12.8c21.208 0 38.4-17.192 38.4-38.4v-230.4c0-21.208-17.192-38.4-38.4-38.4h-12.8v-25.6c0-42.416-34.384-76.8-76.8-76.8h-819.2c-42.416 0-76.8 34.384-76.8 76.8v358.4c0 42.416 34.384 76.8 76.8 76.8h819.2zM614.4 344.96c0-5.302-4.298-9.6-9.6-9.6h-32c-5.302 0-9.6 4.298-9.6 9.6v185.6c0 5.302 4.298 9.6 9.6 9.6h32c5.302 0 9.6-4.298 9.6-9.6v-185.6zM716.8 344.96c0-5.302-4.298-9.6-9.6-9.6h-32c-5.302 0-9.6 4.298-9.6 9.6v185.6c0 5.302 4.298 9.6 9.6 9.6h32c5.302 0 9.6-4.298 9.6-9.6v-185.6zM512 344.96c0-5.302-4.298-9.6-9.6-9.6h-32c-5.302 0-9.6 4.298-9.6 9.6v185.6c0 5.302 4.298 9.6 9.6 9.6h32c5.302 0 9.6-4.298 9.6-9.6v-185.6zM280.137 513.106l51.207-51.209-111.193-111.198-45.655-5.040c-6.112-0.676-11.276 4.492-10.596 10.604l5.080 45.689 111.157 111.154zM363.015 520.731c7.5-7.5 7.5-19.66 0-27.164l-22.619-22.62-51.207 51.209 22.619 22.62c7.5 7.5 19.663 7.5 27.163 0l24.043-24.044z" />
<glyph unicode="&#xe928;" glyph-name="LE-Always-on-usb2x" d="M896 642.56c14.117 0 25.6-11.483 25.6-25.6v-76.8h51.2v-204.8h-51.2v-76.8c0-14.117-11.483-25.6-25.6-25.6h-819.2c-14.117 0-25.6 11.483-25.6 25.6v358.4c0 14.117 11.483 25.6 25.6 25.6h819.2zM896 693.76h-819.2c-42.416 0-76.8-34.384-76.8-76.8v-358.4c0-42.416 34.384-76.8 76.8-76.8h819.2c42.416 0 76.8 34.384 76.8 76.8v25.6h12.8c21.208 0 38.4 17.192 38.4 38.4v230.4c0 21.208-17.192 38.4-38.4 38.4h-12.8v25.6c0 42.416-34.384 76.8-76.8 76.8zM614.4 344.96v185.6c0 5.302-4.298 9.6-9.6 9.6h-32c-5.302 0-9.6-4.298-9.6-9.6v-185.6c0-5.302 4.298-9.6 9.6-9.6h32c5.302 0 9.6 4.298 9.6 9.6zM716.8 344.96v185.6c0 5.302-4.298 9.6-9.6 9.6h-32c-5.302 0-9.6-4.298-9.6-9.6v-185.6c0-5.302 4.298-9.6 9.6-9.6h32c5.302 0 9.6 4.298 9.6 9.6v0zM512 344.96c0-5.302-4.298-9.6-9.6-9.6h-32c-5.302 0-9.6 4.298-9.6 9.6v185.6c0 5.302 4.298 9.6 9.6 9.6h32c5.302 0 9.6-4.298 9.6-9.6v-185.6zM318.903 525.531c0-7.314-3.2-13.486-9.6-18.514-1.371-0.457-2.057-2.057-2.057-4.8-0.914-15.086-2.971-26.514-6.171-34.286-4.571-11.886-13.486-22.4-26.743-31.543s-21.486-16.914-24.686-23.314c-5.029-8.686-7.543-20.8-7.543-36.343v-16.457c0-5.486 2.286-9.6 6.857-12.343 0.914-0.457 3.2-2.514 6.857-6.171 6.4-7.314 9.6-15.086 9.6-23.314 0-9.6-3.314-17.714-9.943-24.343s-14.743-9.943-24.343-9.943c-9.6 0-17.714 3.314-24.343 9.943s-9.943 14.743-9.943 24.343v0.686c0 12.343 5.486 21.943 16.457 28.8 4.114 3.2 6.171 7.314 6.171 12.343 0 5.943-2.286 12.114-6.857 18.514-3.2 4.571-10.514 10.514-21.943 17.829-14.171 9.6-23.314 20.114-27.429 31.543-2.743 6.857-4.8 15.771-6.171 26.743-0.457 3.657-1.371 6.171-2.743 7.543-7.314 4.571-10.971 10.971-10.971 19.2 0 6.4 2.057 11.657 6.171 15.771s9.371 6.171 15.771 6.171c6.4 0 11.657-2.057 15.771-6.171s6.171-9.371 6.171-15.771c0-7.771-2.743-13.714-8.229-17.829-1.829-1.371-2.743-4.571-2.743-9.6 0-4.571 1.6-10.971 4.8-19.2 3.2-6.4 9.143-13.029 17.829-19.886s14.629-10.286 17.829-10.286c3.657 0 5.486 2.743 5.486 8.229v134.4c0 0.457-0.686 1.371-2.057 2.743h-0.686v0.686c-6.857 4.571-10.286 10.743-10.286 18.514 0 6.4 2.057 11.657 6.171 15.771s9.371 6.171 15.771 6.171c6.4 0 11.657-2.057 15.771-6.171s6.171-9.371 6.171-15.771c0-8.229-3.2-14.4-9.6-18.514-0.914-0.914-1.371-2.057-1.371-3.429v-96c0-3.2 0.343-5.371 1.029-6.514s2.171-1.486 4.457-1.029c4.571 0.914 11.314 5.029 20.229 12.343s14.057 13.029 15.429 17.143c2.743 8.686 4.343 18.057 4.8 28.114v0.686l-2.057 4.114c-7.314 4.571-10.971 10.971-10.971 19.2 0 6.4 2.057 11.657 6.171 15.771s9.371 6.171 15.771 6.171c6.4 0 11.657-2.057 15.771-6.171s6.171-9.371 6.171-15.771zM154.331 481.646c0-7.314 3.657-10.971 10.971-10.971s10.971 3.657 10.971 10.971c0 7.314-3.657 10.971-10.971 10.971s-10.971-3.657-10.971-10.971zM220.16 569.417c0-7.314 3.657-10.971 10.971-10.971s10.971 3.657 10.971 10.971c0 7.314-3.657 10.971-10.971 10.971s-10.971-3.657-10.971-10.971zM285.989 525.531c0-7.314 3.657-10.971 10.971-10.971s10.971 3.657 10.971 10.971c0 7.314-3.657 10.971-10.971 10.971s-10.971-3.657-10.971-10.971z" />
<glyph unicode="&#xe929;" glyph-name="LE-Battery-charge-treshold2x" d="M896 642.56h-819.2c-14.117 0-25.6-11.483-25.6-25.6v-358.4c0-14.117 11.483-25.6 25.6-25.6h819.2c14.117 0 25.6 11.483 25.6 25.6v76.8h51.2v204.8h-51.2v76.8c0 14.117-11.483 25.6-25.6 25.6zM896 693.76c42.416 0 76.8-34.384 76.8-76.8v-25.6h12.8c21.208 0 38.4-17.192 38.4-38.4v-230.4c0-21.208-17.192-38.4-38.4-38.4h-12.8v-25.6c0-42.416-34.384-76.8-76.8-76.8h-819.2c-42.416 0-76.8 34.384-76.8 76.8v358.4c0 42.416 34.384 76.8 76.8 76.8h819.2zM614.4 344.96c0-5.302-4.298-9.6-9.6-9.6h-32c-5.302 0-9.6 4.298-9.6 9.6v185.6c0 5.302 4.298 9.6 9.6 9.6h32c5.302 0 9.6-4.298 9.6-9.6v-185.6zM716.8 344.96c0-5.302-4.298-9.6-9.6-9.6h-32c-5.302 0-9.6 4.298-9.6 9.6v185.6c0 5.302 4.298 9.6 9.6 9.6h32c5.302 0 9.6-4.298 9.6-9.6v-185.6zM512 344.96c0-5.302-4.298-9.6-9.6-9.6h-32c-5.302 0-9.6 4.298-9.6 9.6v185.6c0 5.302 4.298 9.6 9.6 9.6h32c5.302 0 9.6-4.298 9.6-9.6v-185.6zM354.795 530.712c8.354-3.552 13.845-11.953 13.845-21.266 0-106.234-63.782-165.424-104.004-182.562-5.538-2.352-11.78-2.352-17.318 0-50.219 21.41-103.957 87.273-103.957 182.562 0 9.313 5.491 17.714 13.892 21.266l90.112 38.404c5.544 2.352 11.775 2.352 17.318 0l90.112-38.404zM258.91 341.046c45.901 18.626 94.711 83.912 94.665 168.4 0.047 3.12-1.783 5.905-4.599 7.105l-90.112 38.404c-1.83 0.768-3.942 0.768-5.773 0l-90.112-38.404c-2.769-1.2-4.599-3.984-4.599-7.105 0-84.488 48.811-149.775 94.758-168.4 1.83-0.768 3.895-0.768 5.773 0zM322.833 497.061l3.989-4.128c2.159-2.256 2.159-5.905-0.047-8.161l-84.715-85.928c-2.206-2.208-5.773-2.208-7.979 0.048l-40.316 41.572c-2.159 2.256-2.159 5.905 0.047 8.161l3.989 4.080c2.206 2.208 5.773 2.208 7.979-0.048l32.384-33.363 76.689 77.816c2.206 2.208 5.773 2.208 7.979-0.048z" />
<glyph unicode="&#xe92a;" glyph-name="LE-Battery-gauge-reset2x" d="M896 642.56h-819.2c-14.117 0-25.6-11.483-25.6-25.6v-358.4c0-14.117 11.483-25.6 25.6-25.6h819.2c14.117 0 25.6 11.483 25.6 25.6v76.8h51.2v204.8h-51.2v76.8c0 14.117-11.483 25.6-25.6 25.6zM896 693.76c42.416 0 76.8-34.384 76.8-76.8v-25.6h12.8c21.208 0 38.4-17.192 38.4-38.4v-230.4c0-21.208-17.192-38.4-38.4-38.4h-12.8v-25.6c0-42.416-34.384-76.8-76.8-76.8h-819.2c-42.416 0-76.8 34.384-76.8 76.8v358.4c0 42.416 34.384 76.8 76.8 76.8h819.2zM614.4 344.96c0-5.302-4.298-9.6-9.6-9.6h-32c-5.302 0-9.6 4.298-9.6 9.6v185.6c0 5.302 4.298 9.6 9.6 9.6h32c5.302 0 9.6-4.298 9.6-9.6v-185.6zM716.8 344.96c0-5.302-4.298-9.6-9.6-9.6h-32c-5.302 0-9.6 4.298-9.6 9.6v185.6c0 5.302 4.298 9.6 9.6 9.6h32c5.302 0 9.6-4.298 9.6-9.6v-185.6zM512 344.96c0-5.302-4.298-9.6-9.6-9.6h-32c-5.302 0-9.6 4.298-9.6 9.6v185.6c0 5.302 4.298 9.6 9.6 9.6h32c5.302 0 9.6-4.298 9.6-9.6v-185.6zM409.6 344.96c0-5.302-4.298-9.6-9.6-9.6h-32c-5.302 0-9.6 4.298-9.6 9.6v185.6c0 5.302 4.298 9.6 9.6 9.6h32c5.302 0 9.6-4.298 9.6-9.6v-185.6zM195.571 461.865c-8.876-8.876-13.163-19.287-13.163-32.027s4.287-23.15 13.163-32.027c8.876-8.876 19.287-13.163 32.027-13.163s23.15 4.287 32.027 13.163c8.876 8.876 13.163 19.287 13.163 32.027v14.040h39.048v-14.040c0-23.116-8.436-43.318-24.952-59.834-16.17-16.17-36.198-24.404-59.286-24.404-23.102 0-43.217 8.335-59.56 24.678s-24.678 36.458-24.678 59.56c0 23.102 8.335 43.217 24.678 59.56 12.939 12.939 28.242 20.858 45.52 23.596v37.406l93.19-62.127-93.19-54.361v39.095c-6.676-2.077-12.613-5.768-17.987-11.143z" />
<glyph unicode="&#xe92b;" glyph-name="LE-Battery-Life-mode2x" d="M273.3 286.033c13.018-17.101 28.549-32.010 45.925-44.246h0.014c2.093-1.474 4.211-2.907 6.357-4.302 0.166-0.107 0.338-0.211 0.506-0.318 1.92-1.24 3.858-2.451 5.818-3.629 0.483-0.29 0.974-0.566 1.459-0.853 1.656-0.976 3.323-1.939 5.006-2.869 0.632-0.349 1.27-0.685 1.904-1.027 1.558-0.84 3.123-1.666 4.702-2.464 0.717-0.365 1.438-0.72 2.16-1.074 1.518-0.747 3.045-1.477 4.582-2.186 0.77-0.357 1.542-0.709 2.318-1.054 1.514-0.677 3.037-1.333 4.568-1.973 0.798-0.333 1.595-0.667 2.398-0.99 1.539-0.622 3.088-1.218 4.643-1.8 0.803-0.302 1.602-0.608 2.408-0.899 1.603-0.579 3.219-1.128 4.838-1.667 0.765-0.254 1.525-0.52 2.293-0.765 1.766-0.566 3.549-1.094 5.333-1.613 0.627-0.182 1.25-0.379 1.878-0.557 2.408-0.674 4.83-1.307 7.267-1.893 0.008-0.003 0.018-0.005 0.026-0.008 2.472-0.594 4.962-1.138 7.461-1.64 0.621-0.125 1.248-0.224 1.87-0.344 1.845-0.352 3.693-0.694 5.552-0.995 0.904-0.147 1.816-0.267 2.725-0.402 1.587-0.235 3.174-0.466 4.77-0.664 1.018-0.128 2.042-0.23 3.062-0.339 1.501-0.165 3.002-0.322 4.51-0.451 1.074-0.090 2.149-0.165 3.226-0.24 1.47-0.102 2.942-0.194 4.419-0.262 1.101-0.053 2.202-0.094 3.306-0.128 1.469-0.046 2.939-0.074 4.414-0.088 1.365-0.013 2.73-0.026 4.098-0.010 0.546 0.006 1.088 0.010 1.634 0.021 2.155 0.042 4.315 0.11 6.482 0.222 0.334 0.016 0.669 0.043 1.003 0.062 1.891 0.106 3.782 0.242 5.678 0.402 0.574 0.048 1.15 0.096 1.726 0.149 2.181 0.203 4.363 0.432 6.55 0.707 0.211 0.026 0.424 0.061 0.637 0.088 2.013 0.259 4.029 0.555 6.045 0.875 0.578 0.093 1.155 0.187 1.733 0.283 2.214 0.373 4.429 0.768 6.648 1.214 6.808 1.373 13.917 3.202 21.203 5.458 2.888 0.805 5.75 1.653 8.595 2.531 0.907 0.28 1.8 0.579 2.701 0.867 1.939 0.618 3.874 1.24 5.79 1.893 1.042 0.352 2.072 0.723 3.109 1.086 1.768 0.622 3.533 1.251 5.282 1.902 1.061 0.392 2.11 0.795 3.162 1.2 1.73 0.662 3.45 1.339 5.162 2.030 1.014 0.411 2.030 0.826 3.040 1.248 1.76 0.733 3.506 1.482 5.245 2.245 0.93 0.408 1.862 0.813 2.789 1.23 1.877 0.845 3.738 1.715 5.594 2.595 0.758 0.358 1.525 0.712 2.28 1.077 2.288 1.109 4.555 2.248 6.806 3.406 0.306 0.158 0.616 0.309 0.922 0.466 2.653 1.381 5.282 2.794 7.883 4.245 128.306 71.531 193.338 229.133 158.488 401.896-0.518 2.568-1.069 5.138-1.638 7.707-0.229 1.030-0.475 2.062-0.714 3.094-0.326 1.424-0.656 2.848-0.998 4.272-0.291 1.213-0.595 2.426-0.898 3.638-0.309 1.224-0.619 2.446-0.938 3.67-0.334 1.288-0.67 2.576-1.018 3.864-0.294 1.090-0.6 2.178-0.902 3.266-0.944 3.394-1.922 6.784-2.949 10.162-0.019 0.061-0.037 0.12-0.053 0.179-0.501 1.638-1.018 3.274-1.536 4.907-0.229 0.72-0.456 1.438-0.688 2.157-0.526 1.634-1.064 3.266-1.611 4.894-0.218 0.645-0.437 1.29-0.658 1.936-0.586 1.722-1.176 3.442-1.784 5.157-8.374 23.635-18.686 46.501-30.488 67.435-12.902-25.314-29.49-47.981-49.061-67.435-0.003-0.003-0.005-0.006-0.008-0.008-5.275-5.245-10.77-10.251-16.469-15.013-0.099-0.085-0.2-0.166-0.301-0.251-5.622-4.683-11.443-9.128-17.453-13.322-0.141-0.098-0.28-0.197-0.421-0.294-6.018-4.182-12.219-8.112-18.595-11.781-0.118-0.067-0.234-0.136-0.352-0.203-1.56-0.894-3.128-1.773-4.709-2.635-0.088-0.048-0.176-0.094-0.264-0.144-22.766-12.392-47.627-21.522-74.070-26.856l-100.858-20.346c-111.194-22.43-183.453-131.208-161.022-242.403 3.382-16.768 9.259-32.245 16.32-47.090 60.33 63.864 148.51 122.323 278.112 148.467 11.094 2.238 22.003-5.008 24.242-16.102 2.237-11.093-5.008-22.003-16.104-24.24-125.314-25.28-208.579-82.749-264.118-144.333zM568.889 196.364c-0.92-0.442-1.842-0.88-2.768-1.315-17.499-8.226-35.936-15.122-55.291-20.51-8.269-2.587-16.739-4.819-25.438-6.574-57.261-11.552-113.832-2.243-161.955 22.622h-0.008c-0.054 0.027-0.106 0.056-0.158 0.083-1.045 0.541-2.080 1.098-3.117 1.653-1.018 0.544-2.030 1.098-3.040 1.658-1.013 0.56-2.029 1.117-3.034 1.693-1.661 0.95-3.309 1.923-4.946 2.912-1.003 0.605-1.997 1.221-2.99 1.84-1.016 0.634-2.026 1.275-3.032 1.922-1.29 0.829-2.571 1.667-3.845 2.52-1.254 0.838-2.502 1.685-3.741 2.546-0.942 0.656-1.878 1.322-2.813 1.99-1.043 0.749-2.080 1.509-3.112 2.272-1.264 0.936-2.517 1.882-3.763 2.842-1.117 0.861-2.232 1.728-3.336 2.608-0.872 0.696-1.741 1.4-2.605 2.107-1.114 0.912-2.216 1.837-3.312 2.77-1.134 0.963-2.259 1.936-3.378 2.922-1.037 0.912-2.067 1.83-3.088 2.76-0.805 0.733-1.605 1.467-2.4 2.21-1.251 1.173-2.49 2.357-3.718 3.554-0.907 0.885-1.803 1.779-2.699 2.678-0.965 0.97-1.923 1.944-2.872 2.931-0.736 0.765-1.472 1.53-2.198 2.304-0.134 0.144-0.274 0.283-0.406 0.427h0.014c-3.322 3.557-6.56 7.2-9.674 10.957-2.707-3.661-5.317-7.317-7.85-10.965-4.55-6.558-8.822-13.083-12.834-19.542-0.006-0.011-0.013-0.021-0.018-0.030-2.651-4.27-5.186-8.51-7.611-12.715-0.038-0.067-0.078-0.134-0.117-0.202-2.421-4.202-4.734-8.363-6.941-12.48-0.008-0.013-0.016-0.029-0.024-0.043-1.109-2.070-2.194-4.13-3.25-6.176-32.651-63.17-40.44-113.584-40.59-114.813-1.571-11.731-12.555-19.064-23.227-17.542-11.202 1.546-19.088 12.026-17.542 23.226 0.2 1.182 7.32 47.878 35.851 109.126 0.928 1.992 1.88 4.002 2.853 6.022 0.056 0.115 0.112 0.23 0.168 0.344 0.901 1.867 1.824 3.749 2.765 5.64 0.094 0.189 0.187 0.378 0.282 0.568 1.994 3.994 4.080 8.037 6.256 12.122 0.123 0.232 0.246 0.461 0.37 0.693 2.194 4.101 4.48 8.245 6.866 12.424 0.098 0.17 0.195 0.339 0.294 0.51 1.155 2.021 2.333 4.045 3.536 6.080 0.051 0.086 0.101 0.173 0.152 0.259 1.283 2.17 2.594 4.346 3.931 6.53 0.002 0.003 0.003 0.005 0.005 0.008 9.381 15.318 20.086 30.97 32.301 46.582-12.597 22.125-21.971 46.474-27.286 72.824-26.957 133.635 59.594 263.926 193.229 290.885l100.858 20.346c2.222 0.446 4.426 0.939 6.619 1.448 0.584 0.136 1.166 0.277 1.749 0.416 1.907 0.461 3.806 0.941 5.693 1.446 0.301 0.082 0.605 0.155 0.904 0.237 2.13 0.582 4.242 1.198 6.342 1.838 0.557 0.171 1.112 0.347 1.669 0.522 1.717 0.538 3.426 1.094 5.122 1.67 0.454 0.155 0.912 0.304 1.368 0.462 2.035 0.706 4.056 1.442 6.062 2.203 0.515 0.198 1.026 0.402 1.541 0.6 1.605 0.624 3.198 1.266 4.781 1.923 0.538 0.224 1.078 0.443 1.614 0.672 1.944 0.827 3.877 1.677 5.79 2.557 0.446 0.205 0.888 0.419 1.333 0.627 1.549 0.725 3.088 1.466 4.614 2.224 0.574 0.286 1.15 0.571 1.723 0.862 1.861 0.944 3.712 1.907 5.541 2.901 0.32 0.174 0.634 0.358 0.954 0.534 1.566 0.862 3.118 1.744 4.658 2.642 0.582 0.339 1.163 0.682 1.741 1.026 1.59 0.946 3.166 1.909 4.725 2.894 0.246 0.154 0.496 0.302 0.739 0.458 42.68 27.16 74.811 68.554 91.446 118.27 2.71 8.026 8.806 12.928 15.488 14.275 7.187 1.451 15.187-1.134 20.494-8.592 25.379-35.523 46.512-78.63 61.051-123.954v-0.002c1.923-5.995 3.734-12.026 5.421-18.086 0.693-2.478 1.365-4.958 2.018-7.445 0.318-1.224 0.627-2.45 0.938-3.677 0.768-3.038 1.515-6.080 2.221-9.128 0.131-0.574 0.256-1.149 0.387-1.725 0.811-3.565 1.589-7.133 2.309-10.704 33.045-163.818-17.558-320.818-127.95-411.544-1.384-1.139-2.778-2.269-4.182-3.386-0.802-0.638-1.606-1.275-2.416-1.906-1.547-1.21-3.106-2.405-4.677-3.589-0.928-0.701-1.862-1.395-2.8-2.085-1.44-1.064-2.888-2.118-4.349-3.162-0.907-0.646-1.818-1.29-2.733-1.93-1.339-0.936-2.69-1.861-4.045-2.779-1.256-0.853-2.52-1.698-3.79-2.533-1.406-0.926-2.818-1.846-4.238-2.754-1.059-0.675-2.123-1.341-3.19-2.005-1.147-0.714-2.304-1.418-3.462-2.12-1.624-0.984-3.261-1.957-4.906-2.915-1.283-0.749-2.568-1.496-3.862-2.227-1.221-0.69-2.448-1.368-3.68-2.045-0.997-0.549-2-1.090-3.003-1.629-2.062-1.106-4.139-2.19-6.229-3.256-1.050-0.536-2.094-1.075-3.149-1.6-1.358-0.675-2.725-1.334-4.094-1.994zM985.6 600.186c21.208 0 38.4-17.192 38.4-38.4v-230.4c0-21.208-17.192-38.4-38.4-38.4h-12.8v-25.6c0-42.416-34.384-76.8-76.8-76.8h-244.011c6.059 4.47 12.013 9.109 17.837 13.947 13.851 11.51 26.862 23.958 39.038 37.253h187.136c14.117 0 25.6 11.483 25.6 25.6v76.8h51.2v204.8h-51.2v76.8c0 14.117-11.483 25.6-25.6 25.6h-81.403c-0.605 3.309-1.23 6.618-1.899 9.926-2.794 13.846-6.2 27.634-10.138 41.274h93.44c42.416 0 76.8-34.384 76.8-76.8v-25.6h12.8zM76.8 241.786h57.248c-9.006-16.581-17.197-33.661-24.523-51.2h-32.725c-42.416 0-76.8 34.384-76.8 76.8v358.4c0 42.416 34.384 76.8 76.8 76.8h318.578l-17.136-3.456c-38.998-7.867-75.315-23.158-107.944-45.45-1.102-0.754-2.184-1.528-3.274-2.294h-190.224c-14.117 0-25.6-11.483-25.6-25.6v-358.4c0-14.117 11.483-25.6 25.6-25.6z" />
<glyph unicode="&#xe92c;" glyph-name="LE-Breached-accounts2x" d="M34.207 755.923h955.229c-0.002 14.837 0.004 28.992-0.004 43.144-0.009 21.471-2.964 24.409-24.618 24.409-240.865 0.002-481.732 0.004-722.597 0-62.882 0-125.763 0.026-188.645-0.060-13.82-0.017-18.98-4.030-19.26-15.677-0.409-17.001-0.104-34.018-0.104-51.817zM989.734 720.901h-955.611v-11.257c0.002-182.649 0-365.296 0.011-547.945 0.002-16.47 4.058-20.524 20.959-20.526 187.624-0.041 375.247-0.043 562.869-0.055h12.455v-33.623c-3.365-0.162-6.794-0.469-10.223-0.471-188.334-0.034-376.668-0.075-564.999-0.032-31.79 0.006-55.16 23.414-55.167 55.128-0.038 213.918-0.041 427.836 0.004 641.756 0.006 29.533 23.974 53.689 53.352 53.693 305.6 0.043 611.197 0.043 916.795-0.011 27.149-0.004 52.879-22.443 53.062-48.364 0.608-85.626 0.23-171.26 0.23-257.794h-33.738v169.501zM989.406 405.827c0 29.286-0.426 49.902 0.213 70.486 0.252 8.105-2.194 11.749-9.984 14.295-55.612 18.166-110.999 37.027-166.658 55.037-6.553 2.12-14.946 2.307-21.456 0.205-56.348-18.198-112.419-37.255-168.697-55.67-7.071-2.314-8.958-5.704-8.873-12.88 0.405-34.455-0.429-68.929 0.416-103.367 0.505-20.513 1.616-41.285 5.357-61.4 18.208-97.936 71.748-171.377 156.909-222.296 25.075-14.991 25.028-15.018 50.375 0.047 78.546 46.686 130.248 113.634 152.985 202.486 10.244 40.033 10.005 80.873 9.412 113.057zM580.011 511.686c35.291 11.726 70.255 23.315 105.201 34.962 36.012 11.999 71.946 24.239 108.075 35.875 4.964 1.599 11.331 1.761 16.247 0.149 68.769-22.537 137.372-45.577 206.109-68.215 6.069-2 8.099-4.732 8.056-11.137-0.296-44.778 1.094-89.6-0.418-134.327-4.565-134.965-65.097-237.867-180.026-308.722-11.781-7.265-23.787-14.193-35.946-20.799-2.606-1.416-7.101-2.143-9.434-0.855-45.526 25.139-89.556 52.243-124.433 91.967-60.014 68.358-91.91 147.654-93.306 238.701-0.723 47.232-0.126 94.484-0.126 142.4zM102.828 500.131h135.152v135.129h-135.152v-135.129zM68.793 465.691v203.433h203.42v-203.433h-203.42zM68.699 210.077v32.86h476.333v-32.86h-476.333zM69.1 380.467v32.886h476.333v-32.886h-476.333zM307.926 551.057v32.873h322.804v-32.873h-322.804zM171.407 772.833v32.868h32.689v-32.868h-32.689zM120.132 772.726v33.084h32.888v-33.084h-32.888zM68.755 772.79v32.83h32.913v-32.83h-32.913zM913.199 329.93c-20.283 16.65-38.216 34.186-58.811 47.648-34.66 22.652-71.607 22.243-106.090-0.476-20.266-13.351-37.897-30.704-57.939-47.273 19.863-16.671 37.355-34.144 57.506-47.65 35.57-23.84 73.315-23.454 108.698 0.484 19.816 13.406 37.014 30.681 56.636 47.266zM964.534 330.013c-27.499-23.908-53.122-48.064-80.698-69.733-45.797-35.984-115.272-36.941-161.946-1.546-28.695 21.765-54.809 46.938-83.124 71.482 29.448 24.832 56.581 50.644 86.653 72.384 46.838 33.86 115.935 30.512 161.016-5.813 26.218-21.125 51.245-43.729 78.098-66.773zM823.098 345.101c-0.072-13.688-6.728-20.329-20.434-20.383-14.167-0.054-21 7.009-20.712 21.408 0.268 13.433 7.276 20.002 21.067 19.739 13.659-0.26 20.153-6.978 20.078-20.764zM864.253 324.927c0.18-20.915-30.31-41.358-61.698-41.364-30.825-0.005-61.25 19.941-61.76 40.488-0.514 20.842 29.731 41.543 61.099 41.819 31.249 0.274 62.179-20.034 62.359-40.943z" />
<glyph unicode="&#xe92d;" glyph-name="LE-Camera-privacy-mode2x" d="M495.483 181.76c-126.466 0-229.243 103.669-229.243 231.232 0 42.699 11.717 82.576 31.788 116.928l48.611-38.417c-12.246-23.5-19.268-50.197-19.268-78.511 0-93.467 75.469-169.571 168.113-169.571 42.586 0 81.435 16.219 111.091 42.679l48.787-38.555c-41.314-40.647-97.691-65.784-159.877-65.784zM492.089 632.32c123.966 0 224.711-104.338 224.711-232.724 0-18.608-2.359-36.639-6.347-53.996l-54.073 43.848c0.192 3.376 0.499 6.712 0.499 10.148 0 94.071-73.977 170.666-164.789 170.666-17.085 0-33.556-2.721-49.069-7.745l-53.901 43.729c30.872 16.562 65.827 26.074 102.969 26.074zM915.649 44.501c1.831-1.467 3.861-2.757 5.951-3.95-6.369-1.349-12.957-2.151-19.744-2.151h-808.569c-51.51 0-93.287 41.043-93.287 91.647v549.942c0 20.609 7.165 39.42 18.848 54.73l48.783-37.543c-3.423-4.908-5.434-10.833-5.434-17.188v-549.942c0-16.796 13.992-30.543 31.089-30.543h750.91l71.453-55.004zM262.004 713.473l-77.684 61.696h83.817l23.578 63.433c13.317 36.050 47.35 59.958 85.374 59.958h249.074c31.755 0 60.083-19.861 71.103-50.126l27.199-73.265h167.322c50.387 0 91.254-41.459 91.254-92.534v-538.014l-60.842 44.509v493.505c0 16.959-13.687 30.838-30.411 30.838h-209.337l-42.015 113.362c-2.297 5.982-8.002 10.029-14.271 10.029h-249.074c-12.733 0-24.142-8.094-28.523-20.058l-38.219-103.333h-48.343zM1019.47 78.119c5.278-4.15 6.026-11.572 1.812-16.755l-15.084-18.547c-4.076-5.046-11.756-5.942-16.876-1.792l-984.827 756.466c-5.14 4.013-6.046 11.436-1.812 16.618l15.065 18.547c4.076 5.202 11.776 5.942 16.896 1.773l984.827-756.31z" />
<glyph unicode="&#xe92e;" glyph-name="LE-ChargeFromShutdown2x" d="M998.4 299.52c14.144 0 25.6-11.456 25.6-25.6v-76.8c0-70.576-57.408-128-128-128h-768c-70.592 0-128 57.424-128 128v76.8c0 14.144 11.456 25.6 25.6 25.6h76.8v435.2c0 56.48 45.952 102.4 102.4 102.4h614.4c56.448 0 102.4-45.92 102.4-102.4v-435.2h76.8zM153.6 734.72v-435.2h244.592c6.496 0 11.232-5.008 12.672-11.344 5.168-22.816 25.568-39.856 49.936-39.856h102.4c24.368 0 44.768 17.040 49.936 39.856 1.44 6.336 6.176 11.344 12.672 11.344h244.592v435.2c0 28.272-22.928 51.2-51.2 51.2h-614.4c-28.272 0-51.2-22.928-51.2-51.2zM972.8 197.12v51.2h-311.6c-10.544-29.792-38.992-51.2-72.4-51.2h-153.6c-33.392 0-61.856 21.408-72.4 51.2h-311.6v-51.2c0-42.352 34.448-76.8 76.8-76.8h768c42.352 0 76.8 34.448 76.8 76.8zM679.488 523.378c9.183-5.302 12.33-17.044 7.028-26.228l-19.2-33.255c-5.302-9.183-17.044-12.33-26.228-7.028l-5.543 3.2c-33.186-57.48-104.221-79.48-163.449-52.701l-38.718-67.061-22.17 12.8 38.718 67.061c-52.805 37.903-69.27 110.421-36.084 167.901l-5.543 3.2c-9.183 5.302-12.33 17.044-7.028 26.228l19.2 33.255c5.302 9.183 17.044 12.33 26.228 7.028l232.788-134.4zM648.345 482.237l12.8 22.17-221.703 128-12.8-22.17 22.17-12.8-12.8-22.17c-28.3-49.018-11.529-111.585 37.481-139.881 49.018-28.3 111.585-11.529 139.881 37.481l12.8 22.17 22.17-12.8zM624.92 569.663l51.2 88.681c3.535 6.122 11.363 8.22 17.485 4.685s8.22-11.363 4.685-17.485l-51.2-88.681-22.17 12.8zM491.898 646.463l51.2 88.681c3.535 6.122 11.363 8.22 17.485 4.685s8.22-11.363 4.685-17.485l-51.2-88.681-22.17 12.8z" />
<glyph unicode="&#xe92f;" glyph-name="LE-Charging-USB---SS2x" d="M515.254 643.659c25.549 1.575 67.698 5.416 76.246 11.521 8.229 5.76 18.926 18.926 32.091 39.497 17.28 25.509 36.206 41.966 56.777 49.371 12.343 4.937 28.388 8.64 48.137 11.109 6.583 0.823 11.109 2.469 13.577 4.937 8.229 13.166 19.748 19.749 34.56 19.749 11.52 0 20.983-3.703 28.389-11.109s11.109-16.869 11.109-28.389c0-11.52-3.703-20.983-11.109-28.389s-16.869-11.109-28.389-11.109c-13.989 0-24.686 4.937-32.091 14.811-2.469 3.291-8.229 4.937-17.28 4.937-8.229 0-19.748-2.88-34.56-8.64-11.52-5.76-23.451-16.457-35.794-32.091s-18.514-26.331-18.514-32.091c0-6.583 4.937-9.874 14.811-9.874h241.92c0.823 0 2.469 1.234 4.937 3.703v1.234h1.234c8.229 12.343 19.337 18.514 33.326 18.514 11.52 0 20.983-3.703 28.389-11.109s11.109-16.869 11.109-28.389c0-11.52-3.703-20.983-11.109-28.389s-16.869-11.109-28.389-11.109c-14.812 0-25.92 5.76-33.326 17.28-1.646 1.646-3.703 2.469-6.171 2.469-51.622 0-90.338 0-116.149 0-12.589 0-31.473 0-56.651 0-5.76 0-9.669-0.617-11.726-1.851s-2.674-3.909-1.851-8.023c1.646-8.229 9.051-20.366 22.217-36.411s23.451-25.303 30.857-27.771c15.634-4.937 32.503-7.817 50.606-8.64h1.234l7.406 3.703c8.229 13.166 19.748 19.749 34.56 19.749 11.52 0 20.983-3.703 28.389-11.109s11.109-16.869 11.109-28.389c0-11.52-3.703-20.983-11.109-28.389s-16.869-11.109-28.389-11.109c-13.166 0-24.274 5.76-33.326 17.28-0.823 2.469-3.703 3.703-8.64 3.703-27.154 1.646-47.726 5.349-61.714 11.109-21.394 8.229-40.32 24.274-56.777 48.137s-30.446 38.674-41.966 44.434c-15.634 9.051-37.44 13.577-65.417 13.577h-55.795c0.319-3.157 0.478-6.393 0.478-9.705 0-25.874-9.613-46.169-28.841-60.886s-45.11-22.075-77.648-22.075c-22.589 0-43.16 4.21-61.715 12.629s-32.706 19.953-42.454 34.601c-9.748 14.648-14.622 31.623-14.622 50.926h60.707c0-32.993 19.361-49.489 58.085-49.489 14.387 0 25.614 2.978 33.681 8.933s12.101 14.272 12.101 24.95c0 11.636-4.034 20.569-12.101 26.798s-22.588 12.8-43.564 19.713c-20.975 6.913-37.58 13.724-49.816 20.432-33.345 18.344-50.017 43.054-50.017 74.13 0 16.154 4.471 30.563 13.412 43.226s21.782 22.554 38.521 29.673c16.74 7.119 35.53 10.678 56.37 10.678 20.975 0 39.664-3.867 56.068-11.602s29.143-18.652 38.219-32.753c9.076-14.101 13.614-30.118 13.614-48.051h-60.505c0 13.69-4.235 24.334-12.706 31.932s-20.37 11.397-35.698 11.397c-14.79 0-26.286-3.183-34.488-9.549s-12.303-14.751-12.303-25.155c0-9.72 4.807-17.865 14.42-24.436s23.765-12.732 42.454-18.481c34.421-10.541 59.496-23.615 75.228-39.221 2.29-2.272 4.414-4.626 6.371-7.060zM226.013 591.99c0 11.636-4.034 20.569-12.101 26.798s-22.588 12.8-43.564 19.713c-20.975 6.913-37.58 13.724-49.816 20.432-33.345 18.344-50.017 43.054-50.017 74.13 0 16.154 4.471 30.563 13.412 43.226s21.782 22.554 38.521 29.673c16.74 7.119 35.53 10.678 56.37 10.678 20.975 0 39.664-3.867 56.068-11.602s29.143-18.652 38.219-32.753c9.076-14.101 13.614-30.118 13.614-48.051h-60.505c0 13.69-4.235 24.334-12.706 31.932s-20.37 11.397-35.698 11.397c-14.79 0-26.286-3.183-34.488-9.549s-12.303-14.751-12.303-25.155c0-9.72 4.807-17.865 14.42-24.436s23.765-12.732 42.454-18.481c34.421-10.541 59.496-23.615 75.228-39.221s23.597-35.046 23.597-58.319c0-25.874-9.613-46.169-28.841-60.886s-45.11-22.075-77.648-22.075c-22.589 0-43.16 4.21-61.715 12.629s-32.706 19.953-42.454 34.601c-9.748 14.648-14.622 31.623-14.622 50.926h60.707c0-32.993 19.361-49.489 58.085-49.489 14.387 0 25.614 2.978 33.681 8.933s12.101 14.272 12.101 24.95zM776.643 760.094c-13.166 0-19.749-6.583-19.749-19.749s6.583-19.749 19.749-19.749c13.166 0 19.749 6.583 19.749 19.749s-6.583 19.749-19.749 19.749zM934.631 641.603c-13.166 0-19.749-6.583-19.749-19.749s6.583-19.749 19.749-19.749c13.166 0 19.749 6.583 19.749 19.749s-6.583 19.749-19.749 19.749zM855.637 523.112c-13.166 0-19.749-6.583-19.749-19.749s6.583-19.749 19.749-19.749c13.166 0 19.749 6.583 19.749 19.749s-6.583 19.749-19.749 19.749zM742.4 355.84h-491.52c-8.47 0-15.36-6.89-15.36-15.36v-215.040c0-8.47 6.89-15.36 15.36-15.36h491.52c8.47 0 15.36 6.89 15.36 15.36v46.080h30.72v122.88h-30.72v46.080c0 8.47-6.89 15.36-15.36 15.36zM742.4 386.56c25.45 0 46.080-20.63 46.080-46.080v-15.36h7.68c12.725 0 23.040-10.315 23.040-23.040v-138.24c0-12.725-10.315-23.040-23.040-23.040h-7.68v-15.36c0-25.45-20.63-46.080-46.080-46.080h-491.52c-25.45 0-46.080 20.63-46.080 46.080v215.040c0 25.45 20.63 46.080 46.080 46.080h491.52zM634.88 177.28c0-3.181-2.579-5.76-5.76-5.76h-19.2c-3.181 0-5.76 2.579-5.76 5.76v111.36c0 3.181 2.579 5.76 5.76 5.76h19.2c3.181 0 5.76-2.579 5.76-5.76v-111.36zM675.2 248.32c3.181 0 5.76-2.579 5.76-5.76v-19.2c0-3.181-2.579-5.76-5.76-5.76h-111.36c-3.181 0-5.76 2.579-5.76 5.76v19.2c0 3.181 2.579 5.76 5.76 5.76h111.36z" />
<glyph unicode="&#xe930;" glyph-name="LE-Charging-USB2x" d="M639.269 480.183c-13.166 0-24.274 5.76-33.326 17.28-0.823 2.469-3.703 3.703-8.64 3.703-27.154 1.646-47.726 5.349-61.714 11.109-21.394 8.229-40.32 24.274-56.777 48.137s-30.446 38.674-41.966 44.434c-15.634 9.051-37.44 13.577-65.417 13.577h-29.623c-9.874 0-17.28-4.114-22.217-12.343-0.823-1.646-4.526-5.76-11.109-12.343-13.166-11.52-27.154-17.28-41.966-17.28-17.28 0-31.886 5.966-43.817 17.897s-17.897 26.537-17.897 43.817c0 17.28 5.966 31.886 17.897 43.817s26.537 17.897 43.817 17.897h1.234c22.217 0 39.497-9.874 51.84-29.623 5.76-7.406 13.166-11.109 22.217-11.109 10.697 0 21.806 4.114 33.326 12.343 8.229 5.76 18.926 18.926 32.091 39.497 17.28 25.509 36.206 41.966 56.777 49.371 12.343 4.937 28.388 8.64 48.137 11.109 6.583 0.823 11.109 2.469 13.577 4.937 8.229 13.166 19.748 19.749 34.56 19.749 11.52 0 20.983-3.703 28.389-11.109s11.109-16.869 11.109-28.389c0-11.52-3.703-20.983-11.109-28.389s-16.869-11.109-28.389-11.109c-13.989 0-24.686 4.937-32.091 14.811-2.469 3.291-8.229 4.937-17.28 4.937-8.229 0-19.748-2.88-34.56-8.64-11.52-5.76-23.451-16.457-35.794-32.091s-18.514-26.331-18.514-32.091c0-6.583 4.937-9.874 14.811-9.874h241.92c0.823 0 2.469 1.234 4.937 3.703v1.234h1.234c8.229 12.343 19.337 18.514 33.326 18.514 11.52 0 20.983-3.703 28.389-11.109s11.109-16.869 11.109-28.389c0-11.52-3.703-20.983-11.109-28.389s-16.869-11.109-28.389-11.109c-14.812 0-25.92 5.76-33.326 17.28-1.646 1.646-3.703 2.469-6.171 2.469h-172.8c-5.76 0-9.669-0.617-11.726-1.851s-2.674-3.909-1.851-8.023c1.646-8.229 9.051-20.366 22.217-36.411s23.451-25.303 30.857-27.771c15.634-4.937 32.503-7.817 50.606-8.64h1.234l7.406 3.703c8.229 13.166 19.748 19.749 34.56 19.749 11.52 0 20.983-3.703 28.389-11.109s11.109-16.869 11.109-28.389c0-11.52-3.703-20.983-11.109-28.389s-16.869-11.109-28.389-11.109zM560.274 776.411c-13.166 0-19.749-6.583-19.749-19.749s6.583-19.749 19.749-19.749c13.166 0 19.749 6.583 19.749 19.749s-6.583 19.749-19.749 19.749zM718.263 657.92c-13.166 0-19.749-6.583-19.749-19.749s6.583-19.749 19.749-19.749c13.166 0 19.749 6.583 19.749 19.749s-6.583 19.749-19.749 19.749zM639.269 539.429c-13.166 0-19.749-6.583-19.749-19.749s6.583-19.749 19.749-19.749c13.166 0 19.749 6.583 19.749 19.749s-6.583 19.749-19.749 19.749zM742.4 376.32h-491.52c-8.47 0-15.36-6.89-15.36-15.36v-215.040c0-8.47 6.89-15.36 15.36-15.36h491.52c8.47 0 15.36 6.89 15.36 15.36v46.080h30.72v122.88h-30.72v46.080c0 8.47-6.89 15.36-15.36 15.36zM742.4 407.040c25.45 0 46.080-20.63 46.080-46.080v-15.36h7.68c12.725 0 23.040-10.315 23.040-23.040v-138.24c0-12.725-10.315-23.040-23.040-23.040h-7.68v-15.36c0-25.45-20.63-46.080-46.080-46.080h-491.52c-25.45 0-46.080 20.63-46.080 46.080v215.040c0 25.45 20.63 46.080 46.080 46.080h491.52zM634.88 197.76c0-3.181-2.579-5.76-5.76-5.76h-19.2c-3.181 0-5.76 2.579-5.76 5.76v111.36c0 3.181 2.579 5.76 5.76 5.76h19.2c3.181 0 5.76-2.579 5.76-5.76v-111.36zM675.2 268.8c3.181 0 5.76-2.579 5.76-5.76v-19.2c0-3.181-2.579-5.76-5.76-5.76h-111.36c-3.181 0-5.76 2.579-5.76 5.76v19.2c0 3.181 2.579 5.76 5.76 5.76h111.36z" />
<glyph unicode="&#xe931;" glyph-name="LE-Conservation-mode2x" d="M896 642.56h-819.2c-14.117 0-25.6-11.483-25.6-25.6v-358.4c0-14.117 11.483-25.6 25.6-25.6h819.2c14.117 0 25.6 11.483 25.6 25.6v76.8h51.2v204.8h-51.2v76.8c0 14.117-11.483 25.6-25.6 25.6zM896 693.76c42.416 0 76.8-34.384 76.8-76.8v-25.6h12.8c21.208 0 38.4-17.192 38.4-38.4v-230.4c0-21.208-17.192-38.4-38.4-38.4h-12.8v-25.6c0-42.416-34.384-76.8-76.8-76.8h-819.2c-42.416 0-76.8 34.384-76.8 76.8v358.4c0 42.416 34.384 76.8 76.8 76.8h819.2zM614.4 344.96c0-5.302-4.298-9.6-9.6-9.6h-32c-5.302 0-9.6 4.298-9.6 9.6v185.6c0 5.302 4.298 9.6 9.6 9.6h32c5.302 0 9.6-4.298 9.6-9.6v-185.6zM716.8 344.96c0-5.302-4.298-9.6-9.6-9.6h-32c-5.302 0-9.6 4.298-9.6 9.6v185.6c0 5.302 4.298 9.6 9.6 9.6h32c5.302 0 9.6-4.298 9.6-9.6v-185.6zM512 344.96c0-5.302-4.298-9.6-9.6-9.6h-32c-5.302 0-9.6 4.298-9.6 9.6v185.6c0 5.302 4.298 9.6 9.6 9.6h32c5.302 0 9.6-4.298 9.6-9.6v-185.6zM245.76 570.88c79.195 0 143.36-64.165 143.36-143.36s-64.165-143.36-143.36-143.36c-79.195 0-143.36 64.165-143.36 143.36s64.165 143.36 143.36 143.36zM245.76 302.658c68.847 0 124.862 56.014 124.862 124.862s-56.014 124.862-124.862 124.862c-68.847 0-124.862-56.014-124.862-124.862s56.014-124.862 124.862-124.862zM297.901 387.171c3.295 3.931 9.133 4.451 13.064 1.214s4.451-9.076 1.156-13.006c-16.475-19.77-40.696-31.1-66.362-31.1s-49.887 11.33-66.304 31.042c-3.295 3.931-2.775 9.711 1.156 13.006 3.873 3.295 9.711 2.775 13.006-1.156 12.949-15.492 31.967-24.394 52.141-24.394s39.193 8.902 52.141 24.394zM199.515 436.769c-10.232 0-18.498 8.266-18.498 18.498s8.266 18.498 18.498 18.498c10.232 0 18.498-8.266 18.498-18.498s-8.266-18.498-18.498-18.498zM292.005 436.769c-10.232 0-18.498 8.266-18.498 18.498s8.266 18.498 18.498 18.498c10.232 0 18.498-8.266 18.498-18.498s-8.266-18.498-18.498-18.498z" />
<glyph unicode="&#xe932;" glyph-name="LE-CoolingDown2x" d="M212.49 694.829c2.621-1.372 7.127-2.847 13.292-2.847 6.185 0 10.67 1.475 13.292 2.847-2.621 1.372-7.107 2.847-13.292 2.847-6.164 0-10.67-1.475-13.292-2.847v0zM225.782 661.262c-26.276 0-46.121 14.418-46.121 33.567s19.845 33.567 46.121 33.567c26.296 0 46.121-14.418 46.121-33.567s-19.825-33.567-46.121-33.567v0zM788.941 405.119c-16.876 0-27.791 10.916-27.791 27.791v26.706c-2.294-1.659-4.772-3.604-7.475-5.837-7.557-7.66-22.897-12.411-37.786 2.499-7.987 7.967-9.38 15.749-9.155 20.869 0.225 4.936 2.171 12.247 10.179 18.903 12.37 10.465 27.218 18.698 44.237 24.494v76.083l-67.953-37.642c3.052-15.38 3.215-31.846 0.492-49.132-2.273-10.424-6.656-17.203-13.189-21.094-4.137-2.458-10.936-4.813-20.193-2.171-8.212 1.782-14.868 6.103-18.862 12.575-2.621 4.26-5.222 11.428-2.703 21.484 0.655 2.662 1.147 5.284 1.454 7.905l-23.9-14.008c-9.298-4.69-17.162-5.509-24.228-2.888-4.567 1.659-10.834 5.591-14.766 14.766-3.83 7.557-4.628 15.401-2.028 22.487 1.659 4.588 5.591 10.854 14.766 14.787l22.487 12.452c-2.97 1.495-6.144 2.908-9.503 4.198-14.008 3.953-21.238 17.306-17.183 33.608l0.799 2.355c6.164 14.377 19.108 20.664 33.894 16.466 16.63-4.895 31.703-13.373 45.015-25.334l67.154 37.192-66.99 38.134c-12.063-10.998-27.075-19.374-44.79-24.965-20.234-5.079-31.048 4.977-34.734 15.995-5.038 22.303 6.144 33.341 18.125 36.762 2.458 0.881 4.833 1.823 7.066 2.785l-22.712 12.534c-7.803 3.256-11.735 9.544-13.394 14.111-2.601 7.086-1.802 14.95 2.417 23.327 3.543 8.356 9.81 12.268 14.377 13.947 7.086 2.58 14.93 1.802 23.327-2.417l24.699-13.619c-0.307 2.314-0.758 4.649-1.352 7.045-2.519 10.035 0.082 17.224 2.703 21.463 3.994 6.492 10.65 10.793 19.743 12.82 8.581 2.396 15.421 0.164 19.517-2.212 6.308-3.645 10.568-9.83 12.718-18.412 3.011-17.797 2.826-35-0.41-51.896l68.137-37.745v76.063c-17.019 5.816-31.887 14.049-44.339 24.596-7.905 6.574-9.851 13.865-10.076 18.821-0.225 5.12 1.167 12.882 9.155 20.869 5.693 5.693 11.899 8.888 18.412 9.482 5.181 0.512 12.984-0.512 20.419-7.946 2.273-1.884 4.403-3.523 6.431-4.977v26.788c0 16.896 10.916 27.812 27.791 27.812 16.896 0 27.812-10.916 27.812-27.812v-26.685c2.314 1.659 4.792 3.584 7.475 5.816 4.751 4.833 12.042 7.639 19.374 7.004 6.533-0.594 12.718-3.789 18.432-9.482 11.325-11.346 10.711-26.604-1.577-38.851-12.083-11.080-26.644-19.538-43.704-25.416v-75.878l66.601 37.458c-3.256 16.916-3.482 33.935-0.676 50.79 2.806 11.428 8.438 16.63 12.698 19.19s11.489 5.079 21.729 2.519c10.24-2.56 15.442-8.172 18.002-12.452 2.56-4.26 5.079-11.489 2.519-21.729-0.471-2.294-0.717-4.833-0.799-7.578l25.129 13.865c8.929 4.485 16.794 5.304 23.88 2.703 4.567-1.679 10.854-5.591 14.766-14.766 3.809-7.557 4.628-15.421 2.048-22.508-1.679-4.567-5.591-10.854-14.787-14.787l-22.467-12.431c2.97-1.516 6.144-2.908 9.503-4.198 13.988-3.953 21.238-17.306 17.162-33.628-4.506-15.79-17.859-23.020-34.181-18.944-19.292 6.676-34.775 15.155-46.899 25.477l-65.802-37.028 66.048-37.151c13.251 11.141 28.508 19.62 45.507 25.272 17.51 4.444 30.802-2.826 35.185-18.084 4.219-16.835-3.031-30.188-18.309-34.57-2.847-1.106-5.591-2.355-8.253-3.707l23.306-12.861c8.622-3.953 12.349-9.994 13.988-14.438 2.58-7.086 1.761-14.93-2.417-23.327-3.543-8.335-9.83-12.268-14.397-13.926-7.066-2.621-14.93-1.782-23.327 2.396l-24.801 14.52c0.307-2.642 0.799-5.263 1.454-7.946 2.519-10.035-0.061-17.203-2.683-21.463-4.014-6.472-10.67-10.793-19.784-12.8-8.479-2.458-15.38-0.184-19.497 2.212-6.287 3.625-10.568 9.81-12.698 18.391-3.707 20.173-4.137 37.499-1.413 52.142l-66.335 37.315v-75.899c17.039-5.857 31.539-14.234 43.233-24.945 12.759-12.718 13.373-27.955 2.048-39.281-5.714-5.734-11.899-8.929-18.432-9.503-7.414-0.676-14.623 2.15-20.419 7.946-2.273 1.884-4.403 3.523-6.431 4.977v-26.808c0-16.876-10.916-27.791-27.812-27.791v0zM512.481-27.214h-477.225v271.77l37.929-20.091c30.7-16.261 93.389-24.781 114.954-26.706 81.531-10.752 112.333 0.553 124.047 11.919 6.963 6.799 14.5 19.415 10.609 57.057-4.096 39.834-4.055 60.15 13.66 87.327-23.839 7.434-43.684 13.824-58.532 18.924-28.406 9.789-48.927 16.876-47.043 39.404 0.881 10.568 8.561 22.159 23.777 24.146 4.547 0.594 27.75 7.209 52.081 17.326 21.279 8.847 31.314 15.34 35.574 18.616-1.761 11.51-9.114 30.392-14.766 41.636l-11.407 22.712 22.487 11.776c18.555 9.728 37.704 15.073 54.62 19.784 12.349 3.461 25.027 7.004 31.56 11.018 1.393 0.86 2.109 3.748 0.963 5.775l-0.983 1.802-111.329 232.755 46.633 22.282 111.145-232.387c14.213-24.986 5.775-58.696-19.292-74.199-12.78-7.864-28.324-12.206-44.79-16.814-7.455-2.089-15.053-4.198-22.467-6.676 5.591-15.073 10.301-32.44 9.605-47.043-1.188-25.743-30.638-42.66-60.641-55.747 5.632-1.782 11.756-3.666 18.432-5.734 15.319-4.69 27.3-16.2 32.87-31.58 5.632-15.565 3.727-32.338-5.202-46.019-6.963-10.67-9.564-14.664-5.55-53.78 6.226-60.416-11.858-85.688-26.030-99.43-29.696-28.877-82.309-37.212-165.458-26.235-5.632 0.512-53.535 5.161-95.785 17.633v-139.551h349.901c-13.394 36.352-30.454 87.204-35.922 123.433-2.744 18.268 3.809 36.475 17.551 48.722 1.331 1.167 3.174 3.359 5.181 5.652 7.27 8.253 17.572 19.948 31.785 28.508l7.127 226.14c0.061 39.465 23.45 66.294 58.184 66.294 34.693 0 57.528-28.242 57.631-70.246l3.092-74.404 1.229-96.358c17.183 4.055 35.676-0.86 49.213-8.192 6.39-3.461 12.083-7.557 16.896-12.145 8.643 3.441 18.534 5.243 29.225 5.243 22.364 0 40.243-7.209 51.323-20.173 9.257 1.946 18.022 1.946 23.532 1.946 35.246 0 65.946-32.502 65.946-68.198l-0.594-9.646c3.338-68.178-0.532-128.676-11.489-178.012l-3.318-14.991-50.442 11.182 3.318 15.012c9.994 44.995 13.435 101.11 10.301 166.769l-0.041 0.901 0.635 10.179c-0.143 6.451-8.417 15.135-12.759 15.135-6.451 0-10.404-0.287-12.82-0.614l-0.86-25.272-50.647 6.533-0.123 33.976c-0.123 1.618-2.376 3.584-11.182 3.584-8.663 0-11.981-1.659-12.513-2.253v-15.36l-15.462-1.29h-36.311v26.399c-0.901 1.147-3.113 3.441-7.209 5.652-6.226 3.359-11.284 3.686-12.636 3.338-10.568-7.025-10.609-8.479-10.916-26.276l-0.328-18.002-51.2 0.184-2.437 189.501-3.092 74.752c-0.020 10.424-2.744 18.309-4.608 19.415h-0.041c-7.004 0-7.844-9.523-7.844-15.217l-8.192-261.55-17.777-5.386c-9.708-2.929-18.985-13.455-25.764-21.156-3.564-4.055-6.676-7.496-9.626-10.117-0.655-0.594-0.983-1.495-0.84-2.437 6.738-44.687 34.693-118.006 46.387-147.456l14.090-35.369z" />
</font>
</defs>
</svg>
