<?xml version="1.0" encoding="UTF-8"?>
<svg width="30px" height="30px" viewBox="0 0 30 30" version="1.1" xmlns="http://www.w3.org/2000/svg" xmlns:xlink="http://www.w3.org/1999/xlink">
    <!-- Generator: Sketch 55.2 (78181) - https://sketchapp.com -->
    <title>thermal/balance</title>
    <desc>Created with Sketch.</desc>
    <g id="thermal/balance" stroke="none" stroke-width="1" fill="none" fill-rule="evenodd">
        <path d="M15,22.56 C10.8247273,22.56 7.44,19.1752727 7.44,15 C7.44,10.8247273 10.8247273,7.44 15,7.44 C19.1752727,7.44 22.56,10.8247273 22.56,15 C22.56,19.1752727 19.1752727,22.56 15,22.56 Z M14.9998048,20.4 C15.3389948,20.4 15.5581321,20.1537158 15.5581321,19.7729688 L15.5581321,19.1681171 C15.5988349,19.2009242 15.6415934,19.2378899 15.6872298,19.2804005 C15.8035823,19.4111667 15.9483033,19.4749326 16.0971357,19.4596842 C16.2282892,19.4467463 16.3524533,19.3746631 16.4671611,19.245283 C16.6945212,18.9897574 16.682187,18.6459761 16.4260472,18.3590297 C16.1912867,18.1173662 15.9002,17.9283789 15.5581321,17.7962264 L15.5581321,16.083789 L16.8898123,16.9256835 C16.8351308,17.2560647 16.8437648,17.6469773 16.918181,18.1021178 C16.9609395,18.2957258 17.0468676,18.4352715 17.1730874,18.5170581 C17.2557264,18.5711205 17.3942803,18.6224104 17.564492,18.5669619 C17.747449,18.5216789 17.8810693,18.4241817 17.9616526,18.2781671 C18.0142784,18.1820562 18.066082,18.0203311 18.0155118,17.793916 C18.0023554,17.7333847 17.992488,17.6742395 17.986321,17.6146323 L18.4842107,17.942241 C18.6527778,18.0365036 18.8106553,18.0554486 18.9524984,17.9963035 C19.0441825,17.9588756 19.1704022,17.8701579 19.2415294,17.6820947 C19.3254018,17.4926453 19.3418473,17.315672 19.2900438,17.1557951 C19.2571526,17.0555256 19.1823253,16.9192145 19.0092356,16.8300347 L18.541359,16.5398537 C18.5948072,16.509357 18.6498998,16.4811706 18.7070482,16.4562187 C19.0137582,16.3573354 19.1593014,16.0560647 19.0746068,15.6762418 C18.9866229,15.3319985 18.7197935,15.1679631 18.3682694,15.2682326 C18.0270237,15.3957643 17.7207249,15.587062 17.4547178,15.8384289 L16.1287935,15.000231 L17.4497841,14.1648055 C17.6931786,14.3976896 18.004,14.5889873 18.3912932,14.7396226 C18.7189712,14.8315749 18.9870341,14.6684636 19.0774848,14.3122064 C19.1593014,13.9439353 19.0137582,13.6426646 18.73295,13.5534848 C18.6655231,13.5243743 18.6017965,13.4929534 18.5421813,13.4587601 L18.9932012,13.1782826 C19.1778027,13.0895649 19.2563303,12.9477089 19.2900438,12.844667 C19.3418473,12.6847901 19.3254018,12.5073547 19.2489298,12.3368502 C19.1704022,12.1298421 19.0441825,12.0415865 18.9524984,12.0036965 C18.8102442,11.9450135 18.6523667,11.9634964 18.4731099,12.06469 L17.9686419,12.3775125 C17.9702865,12.3155949 17.9752202,12.258298 17.9846764,12.206546 C18.0360688,11.9755102 17.9854987,11.8123989 17.9341062,11.716288 C17.8827139,11.6197151 17.7782844,11.4931074 17.5727148,11.4353485 C17.3671451,11.3775895 17.2220129,11.4344243 17.136496,11.4921833 C17.050979,11.5499423 16.9379157,11.6673084 16.8815895,11.9251444 C16.8252635,12.3054293 16.829786,12.6894108 16.8951572,13.071082 L15.5581321,13.916211 L15.5581321,12.2042356 C15.9006111,12.0716211 16.1929312,11.8807855 16.4355034,11.6308048 C16.682187,11.3544859 16.6945212,11.0102426 16.4671611,10.7542549 C16.3524533,10.625799 16.2282892,10.5537158 16.0971357,10.5403158 C15.9499479,10.5259915 15.8035823,10.5892953 15.708198,10.6983442 C15.6543387,10.74871 15.6045908,10.7921448 15.5581321,10.8295726 L15.5581321,10.2274933 C15.5581321,9.84628417 15.3389948,9.6 14.9998048,9.6 C14.6610261,9.6 14.4418888,9.84628417 14.4418888,10.2274933 L14.4418888,10.8318829 C14.401186,10.7990758 14.3584275,10.7621101 14.312791,10.7195995 C14.1635474,10.5518676 14.0069034,10.528764 13.9028851,10.5403158 C13.7721428,10.5537158 13.6475676,10.625799 13.5332709,10.7542549 C13.3729265,10.9344629 13.3449691,11.109588 13.3494916,11.2251059 C13.3540141,11.3369272 13.3930724,11.5014247 13.5517722,11.6497497 C13.8017449,11.8877166 14.100232,12.0734694 14.4418888,12.2046977 L14.4418888,13.9208317 L13.0740282,13.0692337 C13.1389883,12.6880247 13.1426885,12.2998845 13.082251,11.8983442 C13.0390814,11.7047362 12.9535644,11.5651906 12.8269335,11.4829419 C12.7447057,11.4293415 12.6073851,11.3789757 12.4351177,11.4330381 C12.2525719,11.4787832 12.1189516,11.5758183 12.0387794,11.7222949 C11.9861536,11.8179438 11.9339389,11.9801309 11.984509,12.206546 C11.996432,12.2606084 12.0054771,12.3132845 12.0116442,12.3654987 L11.5158102,12.058221 C11.3472431,11.9630343 11.1897767,11.9454755 11.0475225,12.0036965 C10.9558384,12.0415865 10.8300298,12.1298421 10.7589027,12.3183673 C10.674208,12.5073547 10.6581735,12.6847901 10.7103882,12.844667 C10.7436905,12.9477089 10.8226293,13.0895649 10.9792733,13.1630343 L11.4352269,13.4458221 C11.3904127,13.4675395 11.3427205,13.4887948 11.2933838,13.5086639 C11.0528673,13.5858298 10.8283852,13.8348864 10.9295255,14.3380824 C11.0035306,14.5866769 11.2206121,14.8135541 11.6268178,14.6989603 C11.9824533,14.5728148 12.2838185,14.3838275 12.5259795,14.135695 L13.8708163,14.9960724 L12.5226904,15.8351945 C12.2554498,15.5653446 11.9528513,15.374047 11.6190062,15.2636119 C11.3221636,15.1688872 11.0623235,15.3107432 10.9385706,15.6351174 L10.9225361,15.6882557 C10.8411305,16.0560647 10.9862627,16.3573354 11.267482,16.4465152 C11.3349089,16.4756257 11.3986355,16.5075087 11.4582507,16.5412399 L11.0068197,16.8221795 C10.8226293,16.9108972 10.7436905,17.0522911 10.7103882,17.1557951 C10.6581735,17.315672 10.674208,17.4926453 10.7510911,17.6631498 C10.8300298,17.8701579 10.9558384,17.9588756 11.0475225,17.9963035 C11.1893655,18.0554486 11.3472431,18.0369657 11.5339003,17.9311513 L12.0136999,17.6150943 C12.0075328,17.6742395 11.9976655,17.7333847 11.984509,17.793454 C11.9339389,18.0203311 11.9861536,18.1820562 12.0387794,18.2781671 C12.1189516,18.4241817 12.2525719,18.5216789 12.4174387,18.5618791 C12.6032737,18.6214863 12.7397719,18.5683481 12.8228221,18.5128995 C12.9539756,18.4251059 13.0419593,18.2721602 13.0875958,18.0369657 C13.1422774,17.6469773 13.1389883,17.2754717 13.0777285,16.9284559 L14.4418888,16.0791683 L14.4418888,17.7957644 C14.100232,17.9265306 13.802156,18.1122834 13.5538278,18.348402 C13.3930724,18.4985753 13.3540141,18.6635349 13.3494916,18.7748941 C13.3449691,18.890412 13.3729265,19.0659992 13.5332709,19.2457451 C13.8321692,19.5821332 14.1401125,19.4749326 14.2918229,19.3021178 C14.3460933,19.251752 14.3958412,19.2078552 14.4418888,19.1704274 L14.4418888,19.7729688 C14.4418888,20.1537158 14.6610261,20.4 14.9998048,20.4 Z M27.8463853,5.28 C28.207344,5.28 28.5,5.57248185 28.5,5.93322581 L28.5,10.8629032 C28.5,11.2236472 28.207344,11.516129 27.8463853,11.516129 L22.9115222,11.516129 C22.5505635,11.516129 22.2579075,11.2236472 22.2579075,10.8629032 L22.2579075,10.3185484 C22.2579075,9.95780443 22.5505635,9.66532256 22.9115222,9.66532256 L25.3566033,9.66532256 C23.4201608,5.91346573 19.5052809,3.35080645 14.9919623,3.35080645 C8.73343781,3.35080645 3.67119175,8.26175807 3.35184649,14.3852601 C3.33381762,14.7305988 3.04551905,15 2.69948452,15 L2.15393409,15 C1.78213625,15 1.48234496,14.6903165 1.50080958,14.3191754 C1.85561344,7.17968949 7.76015104,1.5 14.9919623,1.5 C19.9607414,1.5 24.3021049,4.18154637 26.6480916,8.17526006 L26.6480916,5.93322581 C26.6480916,5.57248185 26.9407476,5.28 27.3017063,5.28 L27.8463853,5.28 Z M27.8460659,15 C28.2178638,15 28.517655,15.3096835 28.4991904,15.6808246 C28.1443866,22.8203105 22.2399034,28.5 15.0080377,28.5 C10.0393131,28.5 5.69789506,25.8184536 3.3519084,21.8247399 L3.3519084,24.0667742 C3.3519084,24.4275181 3.0592524,24.72 2.69829367,24.72 L2.15361473,24.72 C1.79265599,24.72 1.5,24.4275181 1.5,24.0667742 L1.5,19.1370968 C1.5,18.7763528 1.79265599,18.483871 2.15361473,18.483871 L7.08847776,18.483871 C7.4494365,18.483871 7.74209252,18.7763528 7.74209252,19.1370968 L7.74209252,19.6814516 C7.74209252,20.0421956 7.4494365,20.3346774 7.08847776,20.3346774 L4.64285196,20.3346774 C6.58337962,24.0933387 10.5085539,26.6491935 15.0080377,26.6491935 C21.2471171,26.6491935 26.3286993,21.7586008 26.648208,15.6147399 C26.6661824,15.2694012 26.9545899,15 27.3005699,15 L27.8460659,15 Z" id="Shape" fill="#FBFDFF" fill-rule="nonzero"></path>
    </g>
</svg>