<?xml version="1.0" encoding="UTF-8"?>
<svg width="30px" height="30px" viewBox="0 0 30 30" version="1.1" xmlns="http://www.w3.org/2000/svg" xmlns:xlink="http://www.w3.org/1999/xlink">
    <!-- Generator: Sketch 55.2 (78181) - https://sketchapp.com -->
    <title>thermal/performance</title>
    <desc>Created with Sketch.</desc>
    <g id="thermal/performance" stroke="none" stroke-width="1" fill="none" fill-rule="evenodd">
        <path d="M7.12500002,18 C7.12500002,18.6215625 6.6215625,19.125 6,19.125 C5.3784375,19.125 4.875,18.6215625 4.875,18 C4.875,17.3784375 5.3784375,16.875 6,16.875 C6.6215625,16.875 7.12500002,17.3784375 7.12500002,18 Z M15,10.125 C15.6215625,10.125 16.125,9.6215625 16.125,8.99999998 C16.125,8.37843752 15.6215625,7.875 15,7.875 C14.3784375,7.875 13.875,8.37843752 13.875,8.99999998 C13.875,9.6215625 14.3784375,10.125 15,10.125 Z M8.62499998,10.5 C8.00343751,10.5 7.49999999,11.0034375 7.49999999,11.625 C7.49999999,12.2465625 8.00343751,12.75 8.62499998,12.75 C9.24656249,12.75 9.75000001,12.2465625 9.75000001,11.625 C9.75000001,11.0034375 9.24656249,10.5 8.62499998,10.5 Z M21.8465625,11.041875 C22.1690625,11.3025 22.21875,11.775 21.958125,12.0965625 L17.4046875,17.7215625 C17.7740625,18.2203125 18,18.8315625 18,19.5 C18,21.1570313 16.6570313,22.5 15,22.5 C13.3429687,22.5 12,21.1570313 12,19.5 C12,17.8429688 13.3429687,16.5 15,16.5 C15.4439062,16.5 15.8615625,16.6021875 16.2407813,16.775625 L20.791875,11.1534375 C21.0525,10.8309375 21.523125,10.7821875 21.8465625,11.041875 L21.8465625,11.041875 Z M16.5,19.5 C16.5,18.6717187 15.8282813,18 15,18 C14.1717187,18 13.5,18.6717187 13.5,19.5 C13.5,20.3282812 14.1717187,21 15,21 C15.8282813,21 16.5,20.3282812 16.5,19.5 Z M24,16.875 C23.3784375,16.875 22.875,17.3784375 22.875,18 C22.875,18.6215625 23.3784375,19.125 24,19.125 C24.6215625,19.125 25.125,18.6215625 25.125,18 C25.125,17.3784375 24.6215625,16.875 24,16.875 Z M28.5,18 C28.5,20.475 27.8320312,22.7934375 26.6690625,24.7875 C26.4060937,25.2384375 25.905,25.5 25.3828125,25.5 L4.6171875,25.5 C4.095,25.5 3.59390625,25.2384375 3.3309375,24.7875 C2.16796875,22.7934375 1.5,20.475 1.5,18 C1.5,10.5440625 7.54406248,4.5 15,4.5 C22.4559375,4.5 28.5,10.5440625 28.5,18 Z M27,18 C27,11.383125 21.616875,6 15,6 C8.38312501,6 3,11.383125 3,18 C3,20.1215625 3.5625,22.2070312 4.6265625,24.031875 L25.3828125,24 C26.4375,22.2070312 27,20.1215625 27,18 Z" id="Shape" fill="#FBFDFF" fill-rule="nonzero"></path>
    </g>
</svg>