<?xml version="1.0" encoding="UTF-8"?>
<svg width="30px" height="30px" viewBox="0 0 30 30" version="1.1" xmlns="http://www.w3.org/2000/svg" xmlns:xlink="http://www.w3.org/1999/xlink">
    <!-- Generator: Sketch 55.2 (78181) - https://sketchapp.com -->
    <title>thermal/quiet</title>
    <desc>Created with Sketch.</desc>
    <g id="thermal/quiet" stroke="none" stroke-width="1" fill="none" fill-rule="evenodd">
        <path d="M8.70615236,19.2176872 C9.04938986,19.6663867 9.45890389,20.0575713 9.91706014,20.3786467 L9.91743986,20.3786467 C9.97262111,20.4173118 10.0284774,20.4549273 10.0850508,20.4915353 C10.0894383,20.4943481 10.0939524,20.4970769 10.098382,20.4998896 C10.149007,20.5324254 10.2000961,20.5642055 10.2517758,20.5951039 C10.2645164,20.6027026 10.277468,20.6099655 10.2902508,20.6174801 C10.3339149,20.6430889 10.3778742,20.6683618 10.4222555,20.6927532 C10.4389195,20.7019052 10.4557524,20.7107213 10.4724586,20.7197054 C10.5135492,20.7417457 10.5548086,20.7634082 10.5964476,20.7843571 C10.6153476,20.7939289 10.6343742,20.8032488 10.6534008,20.8125267 C10.6934367,20.8321322 10.7336836,20.8512758 10.7742258,20.8698736 C10.794518,20.8792355 10.8148945,20.8884715 10.8353555,20.8975395 C10.8752649,20.9152977 10.9154274,20.9325102 10.9558008,20.9493028 C10.9768524,20.958035 10.9978617,20.9668092 11.0190399,20.9752894 C11.0596242,20.9916203 11.1004617,21.0072374 11.141468,21.0225188 C11.1626461,21.0304533 11.1836976,21.0384718 11.2049601,21.0461124 C11.247232,21.0613098 11.2898414,21.0757095 11.3325351,21.0898573 C11.3527008,21.0965324 11.3727399,21.1035013 11.3929899,21.1099245 C11.4395649,21.124786 11.4865617,21.1386399 11.5336008,21.152242 C11.5501383,21.1570278 11.5665492,21.1621916 11.5831289,21.1668516 C11.6466211,21.1845258 11.710493,21.2011505 11.7747445,21.2165158 C11.7749555,21.2165998 11.7752086,21.2166417 11.7754195,21.2167257 C11.8405992,21.2323009 11.906243,21.2465747 11.9721399,21.2597569 C11.9885086,21.2630315 12.0050461,21.2656343 12.021457,21.2687829 C12.0700992,21.2780189 12.1188258,21.2870029 12.1678476,21.2948955 C12.1916836,21.2987578 12.2157305,21.3019064 12.239693,21.3054329 C12.281543,21.3116042 12.323393,21.3176495 12.3654539,21.3228553 C12.3922851,21.3262138 12.4192851,21.3289006 12.4462008,21.3317554 C12.4857726,21.3360795 12.5253445,21.3401936 12.5651274,21.3435941 C12.5934351,21.3459451 12.6217851,21.3479183 12.6501774,21.3498914 C12.6889476,21.3525782 12.7277601,21.3549712 12.7666992,21.3567764 C12.7957242,21.3581618 12.8247492,21.3592533 12.8538586,21.3601349 C12.8925867,21.3613524 12.931357,21.3620661 12.9702539,21.3624439 C13.0062399,21.3628917 13.0422258,21.3631156 13.0782961,21.3626958 C13.092682,21.3625279 13.1069836,21.3624439 13.1213695,21.36215 C13.1781961,21.3610585 13.2351492,21.3592533 13.2922711,21.3563146 C13.3010883,21.3558948 13.3099055,21.3551811 13.3187226,21.3546773 C13.3685883,21.3519065 13.4184539,21.3483381 13.4684461,21.3441399 C13.4835914,21.3428805 13.4987789,21.3416211 13.5139664,21.3402356 C13.571468,21.334904 13.6290117,21.3289006 13.686682,21.3216798 C13.6922508,21.3210081 13.6978617,21.3200844 13.7034726,21.3193708 C13.7565445,21.3125698 13.8097008,21.3048031 13.862857,21.2964068 C13.8780867,21.2939719 13.8933164,21.291495 13.9085461,21.2889761 C13.9669336,21.2791944 14.0253211,21.2688249 14.0838351,21.257112 C14.263343,21.2210918 14.450782,21.1731068 14.6429039,21.1139128 C14.7190524,21.092796 14.7945258,21.0705457 14.8695351,21.0474978 C14.8934555,21.040151 14.9169961,21.0323005 14.9407476,21.0247438 C14.9918789,21.0085389 15.0428836,20.9922081 15.0934242,20.9750796 C15.1208883,20.9658436 15.148057,20.9561039 15.1753945,20.946574 C15.2220117,20.9302432 15.2685445,20.9137444 15.3146555,20.8966579 C15.3426258,20.8863724 15.3703008,20.875793 15.398018,20.8651717 C15.4436226,20.8477913 15.4889742,20.8300331 15.5341149,20.811897 C15.5608617,20.8011077 15.5876508,20.7902345 15.6142711,20.7791513 C15.6606774,20.7599238 15.7067039,20.7402764 15.7525617,20.7202511 C15.7770726,20.7095459 15.801668,20.6989245 15.8260945,20.6879673 C15.8755805,20.665801 15.9246445,20.642963 15.973582,20.6198731 C15.9935789,20.6104692 16.0137867,20.6011913 16.0336992,20.5916195 C16.0940274,20.5625262 16.153807,20.5326353 16.2131649,20.5022406 C16.2212226,20.4980844 16.229407,20.4941382 16.2374649,20.4900239 C16.3074117,20.4537939 16.3767258,20.4167241 16.4453226,20.3786467 C19.8283805,18.5017746 21.5430914,14.3665436 20.6242055,9.83349471 C20.6105367,9.76611423 20.5960242,9.69869173 20.5810055,9.63126928 C20.5749726,9.60423312 20.5684758,9.57715494 20.5621899,9.55007681 C20.5535836,9.5127132 20.544893,9.47534953 20.5358649,9.43798592 C20.5281867,9.40616383 20.5201711,9.3743418 20.5121976,9.3425197 C20.5040555,9.31040378 20.4958711,9.27832983 20.4874758,9.24621391 C20.4786586,9.21241866 20.4697992,9.17862348 20.4606445,9.14482829 C20.452882,9.11623882 20.4448242,9.08769133 20.4368508,9.05914383 C20.4119601,8.97010078 20.3861836,8.88114178 20.3590992,8.79251858 C20.358593,8.79092325 20.3581289,8.78936994 20.357707,8.78781663 C20.3445024,8.74482746 20.3308758,8.70192222 20.317207,8.65905901 C20.3111742,8.64016731 20.3051836,8.62131752 20.2990664,8.60246779 C20.2851867,8.55960457 20.2710117,8.51678333 20.2565836,8.47404601 C20.2508461,8.45712746 20.2450664,8.44020886 20.2392445,8.42324829 C20.2238039,8.37807607 20.2082367,8.33294582 20.1922055,8.28794153 C19.9713961,7.66778911 19.6994976,7.06782983 19.3883226,6.5185424 C19.0481226,7.18273355 18.6107649,7.77748705 18.0947274,8.28794153 C18.094643,8.28802552 18.0946008,8.28810945 18.0945164,8.28815142 C17.9554242,8.42576718 17.8105524,8.55712764 17.6602805,8.68206493 C17.6576649,8.68428994 17.655007,8.68643102 17.6523492,8.68865603 C17.5041024,8.81153623 17.3506242,8.92816119 17.192168,9.03819499 C17.1884555,9.04075585 17.1847851,9.04335874 17.1810726,9.04591961 C17.0224055,9.15565952 16.8588867,9.25876637 16.6907695,9.35503025 C16.6876476,9.35679345 16.6846101,9.35859868 16.6814883,9.36036188 C16.6403555,9.38382961 16.5990117,9.40687751 16.5573305,9.42950561 C16.5550101,9.43076509 16.5526899,9.43198254 16.5503695,9.43328398 C15.9500836,9.75843158 15.2945742,9.99797865 14.5973414,10.1379454 L11.9380101,10.6717836 C9.00614764,11.2603239 7.10087579,14.114486 7.69230236,17.0320823 C7.78148671,17.4720496 7.93644139,17.8781378 8.12261486,18.2676432 C9.71333671,16.591947 12.0384164,15.0580647 15.4556461,14.3720851 C15.7481742,14.3133528 16.0358086,14.5034876 16.0948289,14.7945881 C16.153807,15.0856466 15.962782,15.3719193 15.6702117,15.4306096 C12.3660445,16.0939191 10.1705649,17.6018148 8.70615236,19.2176872 Z M16.4999976,21.5704628 C16.4757399,21.5820497 16.4514399,21.5935527 16.4270133,21.6049717 C15.9656086,21.8207992 15.479482,22.00174 14.9691399,22.1431341 C14.7511149,22.2110183 14.5277742,22.2695827 14.2984008,22.3156365 C12.7885945,22.6187438 11.2969711,22.3744947 10.0280976,21.7220584 L10.0278867,21.7220584 C10.0264524,21.7213447 10.0251024,21.7205891 10.0237101,21.7198754 C9.99616171,21.7056856 9.96886639,21.691076 9.94152889,21.6765084 C9.91469764,21.6622346 9.88799296,21.647709 9.86137264,21.6330154 C9.83466796,21.6183218 9.80787889,21.6037122 9.78138514,21.5885989 C9.73759454,21.5636618 9.69414139,21.538137 9.65098361,21.5121923 C9.62453204,21.4963233 9.59833361,21.4801604 9.57213514,21.4639135 C9.54534611,21.4472888 9.51872579,21.4304541 9.49218986,21.4134936 C9.45818671,21.3917471 9.42439454,21.3697487 9.39081329,21.3473725 C9.35773829,21.3253742 9.32483204,21.3031659 9.29217889,21.2805798 C9.26733046,21.2633673 9.24265079,21.245903 9.21801329,21.2283546 C9.19050704,21.2087072 9.16316954,21.1887659 9.13595861,21.1687407 C9.10263046,21.1441815 9.06959764,21.1193704 9.03673361,21.0941814 C9.00728671,21.0715953 8.97788204,21.0488412 8.94877264,21.0257514 C8.92578046,21.0074894 8.90287264,20.9890175 8.88009139,20.9704616 C8.85072889,20.9465321 8.82166171,20.9222667 8.79276329,20.8977914 C8.76285236,20.8725185 8.73319454,20.8469936 8.70370546,20.821133 C8.67636796,20.7972035 8.64919921,20.773106 8.62228361,20.7487147 C8.60106329,20.7294871 8.57996954,20.7102176 8.55900236,20.6907381 C8.52601171,20.6599655 8.49335861,20.6288991 8.46095861,20.5974969 C8.43703829,20.5742811 8.41341329,20.5508133 8.38978829,20.5272197 C8.36434921,20.5017788 8.33907889,20.476212 8.31406171,20.4503094 C8.29465546,20.4302421 8.27524921,20.4101749 8.25609611,20.3898558 C8.25255236,20.3860775 8.24888204,20.3824251 8.24538046,20.3786467 L8.24576014,20.3786467 C8.15817889,20.2853216 8.07279139,20.1897295 7.99069454,20.0911566 C7.91931329,20.1872106 7.85050546,20.2831385 7.78372264,20.3788566 C7.66374139,20.5509393 7.55110079,20.7221403 7.44533671,20.8916201 C7.44516796,20.891914 7.44499921,20.8921659 7.44487264,20.8924178 C7.37496796,21.0044667 7.30814296,21.1157179 7.24418671,21.2260456 C7.24317421,21.2278089 7.24211954,21.2295721 7.24110704,21.2313353 C7.17727736,21.341579 7.11627421,21.4507733 7.05809764,21.5587919 C7.05788671,21.5591278 7.05767579,21.5595476 7.05746486,21.5599255 C7.02822889,21.6142496 6.99962579,21.66828 6.97178204,21.7219745 C6.11086172,23.3794506 5.90549297,24.7022493 5.90152734,24.7344912 C5.86009922,25.0423004 5.57048203,25.2347022 5.28909141,25.1947776 C4.99373672,25.1542234 4.78579453,24.8792438 4.82654766,24.5853725 C4.83182109,24.5543481 5.01955547,23.3291147 5.77184297,21.7220584 C5.79631172,21.6697913 5.82141328,21.6170624 5.84706328,21.5640396 C5.84853984,21.5610169 5.85001641,21.5579943 5.85149297,21.5550136 C5.87524453,21.5060211 5.89958672,21.4566507 5.92439297,21.4070284 C5.92688203,21.4020746 5.92932891,21.3971207 5.93181797,21.3921249 C5.98438359,21.2873388 6.03939609,21.1812513 6.09677109,21.0740722 C6.10001953,21.0679849 6.10326797,21.0619815 6.10651641,21.0558942 C6.16435547,20.9482953 6.22464141,20.8395629 6.28754297,20.7299069 C6.29011641,20.7254568 6.29268984,20.7210068 6.29530547,20.7165148 C6.32576484,20.663492 6.35681484,20.6103852 6.38853984,20.5569846 C6.38988984,20.5547177 6.39119766,20.5524506 6.39254766,20.5501836 C6.42638203,20.4932566 6.46093359,20.4361616 6.49620234,20.3788566 C6.49624453,20.3787727 6.49628672,20.3787307 6.49632891,20.3786467 C6.74367422,19.9767148 7.02595079,19.5660506 7.34801014,19.156394 C7.01586796,18.5758722 6.76869141,17.936996 6.62854453,17.2456008 C5.91776953,13.7392123 8.19986014,10.3205654 11.7234445,9.61321716 L14.3827758,9.07937894 C14.4413742,9.06766606 14.4994664,9.05473572 14.5573055,9.04138559 C14.5727039,9.03781717 14.5880601,9.03412278 14.6034164,9.03047037 C14.6537039,9.01837967 14.7037805,9.00578518 14.7535195,8.99251899 C14.7614508,8.99037791 14.7694664,8.98844679 14.7773555,8.98630571 C14.833507,8.9710244 14.8891945,8.9548615 14.9445867,8.93806885 C14.959268,8.9335768 14.973907,8.9289588 14.9885883,8.92438282 C15.0338555,8.91027699 15.0789117,8.89566739 15.1236305,8.88055401 C15.1356117,8.87648181 15.1476774,8.87257753 15.1597008,8.86842134 C15.2133633,8.84990746 15.2666461,8.83059591 15.3195492,8.81061266 C15.3331336,8.80540694 15.3465914,8.80007527 15.3601758,8.79486955 C15.4024899,8.77849669 15.4445086,8.76166207 15.486232,8.74440762 C15.500407,8.73853019 15.5146664,8.73277872 15.5287992,8.72677534 C15.580057,8.70507086 15.6310195,8.68277861 15.6814758,8.65968874 C15.6932461,8.6543151 15.7048899,8.64868953 15.716618,8.64323195 C15.7574555,8.62421429 15.7980399,8.60477679 15.8382867,8.58487748 C15.853432,8.57736281 15.8686195,8.56989006 15.8837226,8.56224943 C15.9327867,8.53748025 15.9815976,8.51220734 16.029818,8.48613672 C16.0382555,8.48156074 16.0465242,8.47673284 16.0549617,8.47211489 C16.0962633,8.44948678 16.1371851,8.4263549 16.1777695,8.40280323 C16.1931258,8.39390312 16.2084399,8.38491909 16.2236695,8.37589303 C16.2656039,8.35108188 16.3071586,8.32580897 16.3482492,8.2999483 C16.3547461,8.29591806 16.3613274,8.29201373 16.3677399,8.28794153 C17.4930914,7.57530359 18.3403008,6.48919725 18.7789242,5.18470252 C18.8503899,4.97412274 19.0111242,4.84549107 19.1872992,4.81014255 C19.3768055,4.77206522 19.587743,4.83990751 19.7276789,5.03558382 C20.396857,5.96765965 20.9540695,7.0987283 21.3374274,8.28794153 L21.3374274,8.2879835 C21.3881367,8.44528862 21.435893,8.60351732 21.4803586,8.76254368 C21.4986258,8.82757324 21.5163445,8.89264471 21.533557,8.95788417 C21.5419524,8.99000009 21.5500945,9.02215798 21.5582789,9.0543579 C21.5785289,9.134081 21.5982305,9.21388803 21.6168351,9.293863 C21.6202945,9.30893441 21.6235851,9.32400583 21.6270445,9.33911921 C21.6484336,9.43265425 21.6689367,9.52627322 21.6879211,9.61997619 C22.5592195,13.9183059 21.2249555,18.0377519 18.3142289,20.4182774 C18.2777367,20.4481683 18.2409914,20.4778073 18.2039508,20.5071105 C18.1828149,20.5238612 18.1615945,20.5405698 18.1402476,20.5571106 C18.0994524,20.5888487 18.0583617,20.620209 18.0169336,20.6512754 C17.9924649,20.6696633 17.9678274,20.6878833 17.9431055,20.7059774 C17.9051367,20.7338952 17.866957,20.761561 17.8284399,20.788933 C17.8045195,20.8058936 17.7805149,20.8227703 17.7563836,20.8395629 C17.7210726,20.8641221 17.6854664,20.8883875 17.6497336,20.912485 C17.6166164,20.9348611 17.5832883,20.9570274 17.5497914,20.9789419 C17.5127086,21.0032492 17.4754992,21.0273886 17.4380367,21.0511922 C17.4101086,21.0689085 17.3820539,21.0863728 17.3539149,21.1037952 C17.3236664,21.122519 17.2931649,21.1409909 17.2626211,21.1594208 C17.2198008,21.1852395 17.176643,21.2107643 17.1332742,21.2359113 C17.0994399,21.2555587 17.0655633,21.2751641 17.0314336,21.2943497 C16.9992445,21.3124438 16.9668867,21.330244 16.9344024,21.3480023 C16.9081195,21.3624019 16.881668,21.3765917 16.8552164,21.3907395 C16.8008367,21.4197488 16.7460774,21.4482123 16.6909805,21.4761721 C16.6633055,21.490236 16.635757,21.5043838 16.6079555,21.5181537 C16.5721383,21.5358699 16.5361101,21.5531664 16.4999976,21.5704628 Z M27.4875,10.9747775 C28.0466953,10.9747775 28.5,11.42587 28.5,11.9823363 L28.5,18.0276889 C28.5,18.5841552 28.0466953,19.0352477 27.4875,19.0352477 L27.15,19.0352477 L27.15,19.7069535 C27.15,20.8198861 26.2433907,21.7220711 25.125,21.7220711 L18.6911109,21.7220711 C18.850875,21.6047744 19.0078547,21.4830697 19.1614172,21.3561173 C19.5266344,21.0541016 19.8697032,20.7274846 20.19075,20.3786594 L25.125,20.3786594 C25.4972203,20.3786594 25.8,20.0773573 25.8,19.7069535 L25.8,17.691836 L27.15,17.691836 L27.15,12.3181892 L25.8,12.3181892 L25.8,10.3030717 C25.8,9.93266788 25.4972203,9.63136585 25.125,9.63136585 L22.9786266,9.63136585 C22.9626797,9.54454786 22.9461844,9.45772988 22.92855,9.3709119 C22.8548907,9.00760298 22.7650734,8.64584741 22.66125,8.28795416 L25.125,8.28795416 C26.2433907,8.28795416 27.15,9.19013904 27.15,10.3030717 L27.15,10.9747775 L27.4875,10.9747775 Z M3.525,20.3786594 L5.03446875,20.3786594 C4.79699531,20.8137148 4.5810375,21.2618686 4.38786093,21.7220711 L3.525,21.7220711 C2.40660938,21.7220711 1.5,20.8198861 1.5,19.7069535 L1.5,10.3030717 C1.5,9.19013904 2.40660938,8.28795416 3.525,8.28795416 L11.9249953,8.28795416 L11.4731672,8.37863444 C10.4448891,8.58505803 9.48731717,8.98627632 8.6269875,9.57116418 C8.59792033,9.59093754 8.56940158,9.61125664 8.54067185,9.63136585 L3.525,9.63136585 C3.15277968,9.63136585 2.85,9.93266788 2.85,10.3030717 L2.85,19.7069535 C2.85,20.0773573 3.15277968,20.3786594 3.525,20.3786594 Z" id="Shape" fill="#FBFDFF" fill-rule="nonzero"></path>
    </g>
</svg>