<svg id="icon_hardware_pci-laptop" xmlns="http://www.w3.org/2000/svg" width="48" height="48">
  <rect id="footprint" height="48" width="48" fill="none" opacity="0"/>
  <g id="icon">
   <path opacity="0" fill="#fff" d="m11.301672,8.926l3.967,1.309l29.951,0a2.922,2.922 0 0 1 2.777,3.055l0,19.636a2.919,2.919 0 0 1 -2.777,3.055l-29.951,0l-3.967,1.309l-4.165,0a2.99,2.99 0 0 1 -2.777,-3.055l0,-22.254l6.942,-3.055z" id="Path_266"/>
   <path fill="#4a81fd" d="m43.042,10.235l-29.951,0l-3.967,-1.309l-4.165,0a2.99,2.99 0 0 0 -2.777,3.055l0,22.254a2.99,2.99 0 0 0 2.777,3.055l4.165,0l3.967,-1.309l29.951,0a2.922,2.922 0 0 0 2.776,-3.055l0,-19.636a2.919,2.919 0 0 0 -2.776,-3.055zm-0.2,5.236l1.29,0l0,1.309l-1.289,0a0.987,0.987 0 0 0 -0.992,1.091a0.987,0.987 0 0 0 0.992,1.091l1.289,0l0,4.8l-1.289,0a1.1,1.1 0 0 0 0,2.182l1.289,0l0,1.309l-1.289,0a1.1,1.1 0 0 0 0,2.182l1.289,0l0,1.309l-1.289,0a1.1,1.1 0 0 0 0,2.182l1.289,0a1.16,1.16 0 0 1 -1.091,1.2l-30.247,0l-0.2,0.109l-3.769,1.2l-3.866,0a1.16,1.16 0 0 1 -1.091,-1.2l0,-3.273l0.3,0a0.987,0.987 0 0 0 0.992,-1.091l0,-4.581a0.987,0.987 0 0 0 -0.992,-1.091l-0.2,0l0,-2.728l0.2,0a0.987,0.987 0 0 0 0.992,-1.091l0,-4.254a0.987,0.987 0 0 0 -0.992,-1.091l-0.2,0l0,-2.945a1.16,1.16 0 0 1 1.091,-1.2l3.867,0l3.769,1.2l0.2,0.109l30.147,0a1.16,1.16 0 0 1 1.091,1.2l-1.29,0a0.987,0.987 0 0 0 -0.992,1.091a0.9,0.9 0 0 0 0.992,0.981l-0.001,0z" id="Path_267"/>
   <g id="Group_2013">
    <path fill="#4a81fd" d="m28.959001,16.562l0,3.273a0.987,0.987 0 0 1 -0.992,1.091l-2.975,0a0.987,0.987 0 0 1 -0.992,-1.091l0,-3.273a0.987,0.987 0 0 1 0.992,-1.091l2.975,0a0.987,0.987 0 0 1 0.992,1.091z" id="Path_268"/>
   </g>
   <path fill="#4a81fd" d="m36.893,16.562l0,3.273a0.987,0.987 0 0 1 -0.992,1.091l-2.975,0a0.987,0.987 0 0 1 -0.992,-1.091l0,-3.273a0.987,0.987 0 0 1 0.992,-1.091l2.975,0a0.987,0.987 0 0 1 0.992,1.091z" id="Path_269"/>
   <path fill="#4a81fd" d="m19.041,25.29l0,4.364l-3.967,0l0,-4.364l3.967,0m0.992,-2.182l-5.95,0a0.987,0.987 0 0 0 -0.992,1.091l0,6.545a0.987,0.987 0 0 0 0.992,1.091l5.95,0a0.987,0.987 0 0 0 0.992,-1.091l0,-6.545a0.987,0.987 0 0 0 -0.992,-1.091z" id="Path_270"/>
  </g>
</svg>