<svg xmlns="http://www.w3.org/2000/svg" width="20" height="20" viewBox="0 0 20 20">
	<defs>
		<style>.a{fill:rgba(0,0,0,0);}.b{fill:#34495e;}</style>
	</defs>
	<rect class="a" width="20" height="20"/>
		<path class="b" d="M32.363,33.581a.832.832,0,0,1-.831.831H19.461a.832.832,0,0,1-.831-.831V21.51a.832.832,0,0,1,.831-.831h8.307V19.57H19.461a1.942,1.942,0,0,0-1.94,1.94V33.581a1.942,1.942,0,0,0,1.94,1.94H31.532a1.942,1.942,0,0,0,1.94-1.94V25.606H32.363Zm-3.539-16.06v1.108h4.8L22.611,29.648l.784.784L34.413,19.413v4.8h1.108v-6.7Z" transform="translate(-16.521 -16.521)"/>
</svg>