<svg id="icon_hardware_pci-desktop" xmlns="http://www.w3.org/2000/svg" width="48" height="48" viewBox="0 0 48 48">
  <rect id="footprint" width="48" height="48" fill="#4a81fd" opacity="0"/>
  <g id="icon" transform="translate(2 9)">
    <path id="Path_271" data-name="Path 271" d="M42.6,17H23.3a.764.764,0,0,1-.5-.2l-3-2.9a.764.764,0,0,0-.5-.2H6.2V10a.945.945,0,0,0-1-1H3a.945.945,0,0,0-1,1,.945.945,0,0,0,1,1H4.2v5.7H4.1a.945.945,0,0,0-1,1v3.6a.945.945,0,0,0,1,1h.1v1.3H4.1a.945.945,0,0,0-1,1v3.6a.945.945,0,0,0,1,1h.1V35a.945.945,0,0,0,1,1,.945.945,0,0,0,1-1V32H24.7v1a1,1,0,1,0,2,0V32h2.1v1a1,1,0,0,0,2,0V32h2.1v1a1,1,0,1,0,2,0V32H37v1a1,1,0,0,0,2,0V32h3.7a3.372,3.372,0,0,0,3.4-3.4V20.5A3.612,3.612,0,0,0,42.6,17Zm1.7,11.5a1.666,1.666,0,0,1-1.6,1.7H6.3V15.6H19l2.7,2.6a2.837,2.837,0,0,0,1.7.7H42.7a1.605,1.605,0,0,1,1.6,1.7Z" transform="translate(-2 -9)" fill="#4a81fd"/>
    <path id="Path_272" data-name="Path 272" d="M16.7,20.3H12.1a.945.945,0,0,0-1,1V26a.945.945,0,0,0,1,1h4.6a.945.945,0,0,0,1-1V21.3A.945.945,0,0,0,16.7,20.3Zm-1,4.7H13.1V22.3h2.6V25Z" transform="translate(-2 -9)" fill="#4a81fd"/>
    <path id="Path_273" data-name="Path 273" d="M38.8,23.2H37a.945.945,0,0,0-1,1V26a.945.945,0,0,0,1,1h1.8a.945.945,0,0,0,1-1V24.1A.923.923,0,0,0,38.8,23.2Z" transform="translate(-2 -9)" fill="#4a81fd"/>
    <path id="Path_274" data-name="Path 274" d="M32.6,23.2H30.8a.945.945,0,0,0-1,1V26a.945.945,0,0,0,1,1h1.8a.945.945,0,0,0,1-1V24.1A.987.987,0,0,0,32.6,23.2Z" transform="translate(-2 -9)" fill="#4a81fd"/>
  </g>
</svg>
