<svg id="icon_hardware_pci-laptop" xmlns="http://www.w3.org/2000/svg" width="48" height="48" viewBox="0 0 48 48">
  <rect id="footprint" width="48" height="48" fill="#4a81fd" opacity="0"/>
  <g id="icon" transform="translate(2.182 8.926)">
    <path id="Path_266" data-name="Path 266" d="M4.777,10H8.942l3.967,1.309H42.86a2.922,2.922,0,0,1,2.777,3.055V34a2.919,2.919,0,0,1-2.777,3.055H12.909L8.942,38.364H4.777A2.99,2.99,0,0,1,2,35.309V13.055A2.99,2.99,0,0,1,4.777,10Z" transform="translate(-2 -10)" fill="#fff"/>
    <path id="Path_267" data-name="Path 267" d="M42.86,11.309H12.909L8.942,10H4.777A2.99,2.99,0,0,0,2,13.055V35.309a2.99,2.99,0,0,0,2.777,3.055H8.942l3.967-1.309H42.86A2.922,2.922,0,0,0,45.636,34V14.364A2.919,2.919,0,0,0,42.86,11.309Zm-.2,5.236H43.95v1.309H42.661a.987.987,0,0,0-.992,1.091.987.987,0,0,0,.992,1.091H43.95v4.8H42.661a1.1,1.1,0,0,0,0,2.182H43.95v1.309H42.661a1.1,1.1,0,0,0,0,2.182H43.95v1.309H42.661a1.1,1.1,0,0,0,0,2.182H43.95a1.16,1.16,0,0,1-1.091,1.2H12.612l-.2.109-3.769,1.2H4.777a1.16,1.16,0,0,1-1.091-1.2V32.036h.3a.987.987,0,0,0,.992-1.091V26.364a.987.987,0,0,0-.992-1.091h-.2V22.545h.2a.987.987,0,0,0,.992-1.091V17.2a.987.987,0,0,0-.992-1.091h-.2V13.164a1.16,1.16,0,0,1,1.091-1.2H8.744l3.769,1.2.2.109H42.86a1.16,1.16,0,0,1,1.091,1.2H42.661a.987.987,0,0,0-.992,1.091A.9.9,0,0,0,42.661,16.545Z" transform="translate(-2 -10)" fill="#4a81fd"/>
    <g id="Group_2013" data-name="Group 2013" transform="translate(21.818 6.545)">
      <path id="Path_268" data-name="Path 268" d="M28.959,17.091v3.273a.987.987,0,0,1-.992,1.091H24.992A.987.987,0,0,1,24,20.364V17.091A.987.987,0,0,1,24.992,16h2.975A.987.987,0,0,1,28.959,17.091Z" transform="translate(-24 -16)" fill="#4a81fd"/>
    </g>
    <path id="Path_269" data-name="Path 269" d="M36.959,17.091v3.273a.987.987,0,0,1-.992,1.091H32.992A.987.987,0,0,1,32,20.364V17.091A.987.987,0,0,1,32.992,16h2.975A.987.987,0,0,1,36.959,17.091Z" transform="translate(-2.248 -9.455)" fill="#4a81fd"/>
    <path id="Path_270" data-name="Path 270" d="M18.95,25.182v4.364H14.983V25.182H18.95M19.942,23h-5.95A.987.987,0,0,0,13,24.091v6.545a.987.987,0,0,0,.992,1.091h5.95a.987.987,0,0,0,.992-1.091V24.091A.987.987,0,0,0,19.942,23Z" transform="translate(-2.091 -8.818)" fill="#4a81fd"/>
  </g>
</svg>
