<svg id="icon_hardware_motherboard" xmlns="http://www.w3.org/2000/svg" width="48" height="48" viewBox="0 0 48 48">
  <rect id="footprint" width="48" height="48" fill="#4a81fd" opacity="0"/>
  <g id="icon" transform="translate(2.182 6.436)">
    <path id="Path_254" data-name="Path 254" d="M42.562,10.163a.906.906,0,0,1,.893.926V40.82a.906.906,0,0,1-.893.926H5.074a.906.906,0,0,1-.893-.926V11.089a.906.906,0,0,1,.893-.926H42.562m0-2.263H5.074A3.149,3.149,0,0,0,2,11.089V40.82a3.149,3.149,0,0,0,3.074,3.189H42.562a3.149,3.149,0,0,0,3.074-3.189V11.089A3.149,3.149,0,0,0,42.562,7.9Z" transform="translate(-2 -7.9)" fill="#4a81fd"/>
    <g id="Group_2011" data-name="Group 2011" transform="translate(4.364 4.424)">
      <path id="Path_255" data-name="Path 255" d="M18.4,14.463V24.648H8.582V14.463H18.4M19.491,12.2h-12A1.122,1.122,0,0,0,6.4,13.332V25.779a1.122,1.122,0,0,0,1.091,1.132h12a1.122,1.122,0,0,0,1.091-1.132V13.332A1.122,1.122,0,0,0,19.491,12.2Z" transform="translate(-6.4 -12.2)" fill="#4a81fd"/>
      <g id="Group_2010" data-name="Group 2010" transform="translate(5.256 5.452)">
        <rect id="Rectangle_1435" data-name="Rectangle 1435" width="3.669" height="3.806" fill="#4a81fd"/>
      </g>
    </g>
    <path id="Path_256" data-name="Path 256" d="M25.091,26.911A1.122,1.122,0,0,1,24,25.779V13.332a1.092,1.092,0,1,1,2.182,0V25.779A1.122,1.122,0,0,1,25.091,26.911Z" transform="translate(-2.182 -7.776)" fill="#4a81fd"/>
    <path id="Path_257" data-name="Path 257" d="M30.191,26.911A1.122,1.122,0,0,1,29.1,25.779V13.332a1.092,1.092,0,1,1,2.182,0V25.779A1.122,1.122,0,0,1,30.191,26.911Z" transform="translate(-2.224 -7.776)" fill="#4a81fd"/>
    <path id="Path_258" data-name="Path 258" d="M35.391,22.076A1.122,1.122,0,0,1,34.3,20.944V13.332a1.092,1.092,0,1,1,2.182,0v7.613A1.122,1.122,0,0,1,35.391,22.076Z" transform="translate(-2.267 -7.776)" fill="#4a81fd"/>
    <path id="Path_259" data-name="Path 259" d="M40.491,22.076A1.122,1.122,0,0,1,39.4,20.944V13.332a1.092,1.092,0,1,1,2.182,0v7.613A1.122,1.122,0,0,1,40.491,22.076Z" transform="translate(-2.309 -7.776)" fill="#4a81fd"/>
    <path id="Path_260" data-name="Path 260" d="M27.326,33.063H7.491a1.132,1.132,0,0,1,0-2.263H27.326a1.132,1.132,0,0,1,0,2.263Z" transform="translate(-2.036 -7.242)" fill="#4a81fd"/>
    <path id="Path_261" data-name="Path 261" d="M27.326,38.163H7.491a1.132,1.132,0,0,1,0-2.263H27.326a1.132,1.132,0,0,1,0,2.263Z" transform="translate(-2.036 -7.095)" fill="#4a81fd"/>
    <path id="Path_262" data-name="Path 262" d="M35.674,30.4H33.1a.582.582,0,0,0-.6.617v2.058c0,.309.2.514.6.514h2.579a.477.477,0,0,0,.5-.514V31.017a.57.57,0,0,0-.5-.617Z" transform="translate(-2.252 -7.253)" fill="#4a81fd"/>
    <path id="Path_263" data-name="Path 263" d="M35.674,35.4H33.1a.562.562,0,0,0-.6.514v2.16a.583.583,0,0,0,.6.617h2.579c.3,0,.5-.206.5-.617v-2.16a.477.477,0,0,0-.5-.514Z" transform="translate(-2.252 -7.109)" fill="#4a81fd"/>
    <path id="Path_264" data-name="Path 264" d="M40.974,30.4H38.4c-.3,0-.5.206-.5.617v2.058a.477.477,0,0,0,.5.514h2.579a.477.477,0,0,0,.5-.514V31.017a.468.468,0,0,0-.5-.617Z" transform="translate(-2.297 -7.253)" fill="#4a81fd"/>
    <path id="Path_265" data-name="Path 265" d="M40.974,35.4H38.4a.477.477,0,0,0-.5.514v2.16a.57.57,0,0,0,.5.617h2.579c.3,0,.5-.206.5-.617v-2.16c.1-.309-.1-.514-.5-.514Z" transform="translate(-2.297 -7.109)" fill="#4a81fd"/>
  </g>
</svg>
