<svg id="icon_hardware_processor" xmlns="http://www.w3.org/2000/svg" width="48" height="48" viewBox="0 0 48 48">
  <rect id="footprint" width="48" height="48" fill="#4a81fd" opacity="0"/>
  <g id="icon" transform="translate(2 2)">
    <path id="Path_248" data-name="Path 248" d="M30.1,16.7H18a1.11,1.11,0,0,0-1.1,1.1V30A1.11,1.11,0,0,0,18,31.1H30.2A1.11,1.11,0,0,0,31.3,30V17.8A1.278,1.278,0,0,0,30.1,16.7ZM29,28.9H19v-10H29Z" transform="translate(-2 -2)" fill="#4a81fd"/>
    <path id="Path_249" data-name="Path 249" d="M44.9,21.5a1.1,1.1,0,1,0,0-2.2H41.6V14.4h3.3a1.1,1.1,0,1,0,0-2.2H41.6V9.5a3.116,3.116,0,0,0-3.1-3.1H35.8V3.1a1.1,1.1,0,1,0-2.2,0V6.4H28.7V3.1a1.1,1.1,0,0,0-2.2,0V6.4H21.6V3.1a1.1,1.1,0,0,0-2.2,0V6.4H14.5V3.1a1.1,1.1,0,0,0-2.2,0V6.4H9.5A3.116,3.116,0,0,0,6.4,9.5v2.7H3.1a1.1,1.1,0,0,0,0,2.2H6.4v4.9H3.1a1.1,1.1,0,0,0,0,2.2H6.4v4.9H3.1a1.1,1.1,0,1,0,0,2.2H6.4v4.9H3.1a1.1,1.1,0,1,0,0,2.2H6.4v2.8a3.116,3.116,0,0,0,3.1,3.1h2.8v3.3a1.1,1.1,0,0,0,2.2,0V41.6h4.9v3.3a1.1,1.1,0,0,0,2.2,0V41.6h4.9v3.3a1.1,1.1,0,0,0,2.2,0V41.6h4.9v3.3a1.1,1.1,0,1,0,2.2,0V41.6h2.7a3.116,3.116,0,0,0,3.1-3.1V35.7h3.3a1.1,1.1,0,1,0,0-2.2H41.6V28.6h3.3a1.1,1.1,0,1,0,0-2.2H41.6V21.5Zm-5.5,17a.9.9,0,0,1-.9.9H9.5a.9.9,0,0,1-.9-.9V9.5a.9.9,0,0,1,.9-.9h29a.9.9,0,0,1,.9.9Z" transform="translate(-2 -2)" fill="#4a81fd"/>
  </g>
</svg>
