<?xml version="1.0" encoding="utf-8"?>
<!-- Generator: Adobe Illustrator 24.1.2, SVG Export Plug-In . SVG Version: 6.00 Build 0)  -->
<svg version="1.1" id="Layer_1" xmlns="http://www.w3.org/2000/svg" xmlns:xlink="http://www.w3.org/1999/xlink" x="0px" y="0px"
	 viewBox="0 0 20 20" style="enable-background:new 0 0 20 20;" xml:space="preserve">
<style type="text/css">
	.st0{fill:#667481;}
</style>
<path id="路径_39" class="st0" d="M10,12.71c-0.5,0-0.9,0.4-0.9,0.9c0,0.5,0.4,0.9,0.9,0.9c0.5,0,0.9-0.4,0.9-0.9c0,0,0,0,0,0
	C10.9,13.11,10.5,12.71,10,12.71z M10.25,11.94H9.73c-0.21,0-0.39-0.17-0.39-0.39l0,0v-0.01c0-2.27,2.5-2.05,2.5-3.47
	c0-0.65-0.57-1.3-1.85-1.3C9.24,6.72,8.51,7.07,8.08,7.7C7.95,7.86,7.72,7.89,7.56,7.77l-0.42-0.3c-0.18-0.12-0.22-0.36-0.1-0.54
	c0-0.01,0.01-0.01,0.01-0.02c0.67-0.95,1.78-1.49,2.94-1.44c1.69,0,3.14,0.96,3.14,2.59c0,2.18-2.5,2.06-2.5,3.47v0.01
	C10.63,11.76,10.46,11.93,10.25,11.94L10.25,11.94z M10,3.03c3.85,0,6.97,3.12,6.97,6.97s-3.12,6.97-6.97,6.97S3.03,13.85,3.03,10
	C3.03,6.15,6.15,3.03,10,3.03z M10,2c-4.42,0-8,3.58-8,8s3.58,8,8,8s8-3.58,8-8S14.42,2,10,2z"/>
</svg>
