<?xml version="1.0" encoding="utf-8"?>
<!-- Generator: Adobe Illustrator 21.0.0, SVG Export Plug-In . SVG Version: 6.00 Build 0)  -->
<svg version="1.1" xmlns="http://www.w3.org/2000/svg" xmlns:xlink="http://www.w3.org/1999/xlink" x="0px" y="0px"
	 viewBox="0 0 512 512" enable-background="new 0 0 512 512" xml:space="preserve">
	
<style type="text/css">
    @keyframes scaning {
        0% {
            transform: translateX(0%);
        }
        25% {
            transform: translateX(7%);
        }
        50% {
            transform: translateX(0);
        }
		75% {
            transform: translateX(-5%);
        }
        100% {
            transform: translateX(0);
        }
    }
	#search {
        animation: scaning 2s linear 0.5s infinite !important;
    }
</style>
	
<g id="laptop">
	<g>
		<g>
			<g>
				<path fill="#815EED" d="M221,90.6h83.3c3,0,5.5,2.4,5.5,5.5v5.1c0,3-2.4,5.5-5.5,5.5H221c-3,0-5.5-2.4-5.5-5.5v-5.1
					C215.5,93,218,90.6,221,90.6z"/>
				<path fill="#815EED" d="M332.6,90.6h57.9c3,0,5.4,2.4,5.4,5.4v5.3c0,3-2.4,5.4-5.4,5.4h-57.9c-3,0-5.4-2.4-5.4-5.4V96
					C327.3,93,329.7,90.6,332.6,90.6z"/>
				<path fill="#815EED" d="M92.6,90.6h98.1c2.9,0,5.3,2.4,5.3,5.3v5.4c0,2.9-2.4,5.3-5.3,5.3H92.6c-2.9,0-5.3-2.4-5.3-5.3v-5.4
					C87.2,93,89.6,90.6,92.6,90.6z"/>
				<path fill="#815EED" d="M245.1,128.2h100.6c3.1,0,5.6,2.5,5.6,5.6v4.8c0,3.1-2.5,5.6-5.6,5.6H245.1c-3.1,0-5.6-2.5-5.6-5.6v-4.8
					C239.5,130.7,242,128.2,245.1,128.2z"/>
				<path fill="#815EED" d="M92.4,128.2h118.8c2.8,0,5.1,2.3,5.1,5.1v5.8c0,2.8-2.3,5.1-5.1,5.1H92.4c-2.8,0-5.1-2.3-5.1-5.1v-5.8
					C87.2,130.5,89.5,128.2,92.4,128.2z"/>
				<path fill="#815EED" d="M92.9,166.3h74.8c3.1,0,5.7,2.6,5.7,5.7v4.6c0,3.1-2.6,5.7-5.7,5.7H92.9c-3.1,0-5.7-2.6-5.7-5.7V172
					C87.2,168.8,89.8,166.3,92.9,166.3z"/>
				<path fill="#815EED" d="M506.6,390.8l-50.1-114.3c0-0.1-0.1-0.2-0.2-0.3c0.2-0.9,0.3-1.8,0.3-2.7V70.2c0-9.2-7.6-16.8-16.8-16.8
					H72.7c-9.2,0-16.8,7.6-16.8,16.8v203.3c0,0.9,0.1,1.8,0.3,2.7c-0.1,0.1-0.1,0.2-0.2,0.3L5.9,390.8c-2.1,4.7,3.3,8.6,11.9,8.6
					h175.5c1.8,0,3.5-1.1,4.1-2.8c0.4-1.1,0.7-3.1,0.6-4.2c-0.1-1.7-0.3-2.4-0.7-3.9c-0.5-1.9-2.3-3.1-4.2-3.1H30.4
					c-3.2,0-5.3-3.3-4.1-6.2l40.9-93.4c0.3,0,0.6,0,1,0h102.3c2.7,0,4.8-2.4,4.4-5c-0.2-1.2-0.3-2.4-0.4-3.7c0-0.5,0-1,0-1.5
					c0-2.5-2.1-4.5-4.6-4.5l-99.4,0c-0.2,0-0.4,0-0.7,0V71.9c0-2.4,2-4.4,4.4-4.4h363.9c2.4,0,4.4,2,4.4,4.4v199.3
					c-0.2,0-0.4,0-0.7,0h-34.7c-2.7,0-4.8,2.4-4.4,5c0.2,1.2,0.3,2.4,0.4,3.7c0,0.5,0,1,0,1.5c0,2.5,2.1,4.5,4.6,4.5l36.4,0
					c0.3,0,0.7,0,1,0l40.9,93.4c1.3,2.9-0.9,6.2-4.1,6.2l-45.1,0c-1.8,0-3.4,1-4.1,2.7c-0.6,1.5-1,3.3-0.9,4.5
					c0.1,1.7,0.5,3.3,1.2,4.6c0.7,1.4,2.3,2.3,3.9,2.3l57.6,0C503.4,399.4,508.7,395.5,506.6,390.8z"/>
			</g>
		</g>
	</g>
</g>
<g id="search">
	<g>
		<g>
			<g>
				<path fill="#815EED" d="M445.8,465.6c-4.8,0-9.2-1.8-12.6-5.2l-81.8-81.8c-6.9-6.9-6.9-18.2,0-25.2c6.9-6.9,18.2-6.9,25.2,0
					l81.8,81.8c6.9,6.9,6.9,18.2,0,25.2C455,463.7,450.5,465.6,445.8,465.6z M364,363.5c-0.7,0-1.3,0.2-1.8,0.7c-1,1-1,2.6,0,3.6
					l81.8,81.8c1,1,2.6,1,3.6,0c1-1,1-2.6,0-3.6l-81.8-81.8C365.3,363.7,364.6,363.5,364,363.5z"/>
			</g>
			<g>
				<path fill="#815EED" d="M289.4,397.4c-26.7,0-53.4-10.2-73.7-30.5c-40.6-40.6-40.6-106.8,0-147.4c40.6-40.6,106.8-40.6,147.4,0
					c40.6,40.6,40.6,106.8,0,147.4C342.8,387.2,316.1,397.4,289.4,397.4z M289.4,206.8c-22.1,0-44.3,8.4-61.1,25.3
					c-33.7,33.7-33.7,88.5,0,122.2c33.7,33.7,88.5,33.7,122.2,0c33.7-33.7,33.7-88.5,0-122.2C333.6,215.2,311.5,206.8,289.4,206.8z"
					/>
			</g>
			<g>
				<path fill="#815EED" d="M289.3,369.5c-20.4,0-39.4-7.9-53.9-22.3c-13.5-13.5-21.5-31.6-22.3-50.7c-0.2-4.2,3.1-7.8,7.3-7.9
					c4.2-0.2,7.8,3.1,7.9,7.3c0.6,15.3,7,29.7,17.8,40.5c11.9,11.9,27.8,18.3,44.8,17.8c4.3-0.1,7.7,3.2,7.8,7.4
					c0.1,4.2-3.2,7.7-7.4,7.8C290.7,369.4,290,369.5,289.3,369.5z"/>
			</g>
		</g>
	</g>
</g>
</svg>
