<?xml version="1.0" encoding="utf-8"?>
<!-- Generator: Adobe Illustrator 22.1.0, SVG Export Plug-In . SVG Version: 6.00 Build 0)  -->
<svg version="1.1" id="Layer_1" xmlns="http://www.w3.org/2000/svg" xmlns:xlink="http://www.w3.org/1999/xlink" x="0px" y="0px"
	 viewBox="0 0 1000 1000" style="enable-background:new 0 0 1000 1000;" xml:space="preserve">
<style type="text/css">
	.st0{fill:#1C2238;}
</style>
<g>
	<path class="st0" d="M492.8,138.3L484.1,0L453.1,2l8.7,138.2C472,139.1,482.3,138.5,492.8,138.3z"/>
	<path class="st0" d="M360.1,166.3L301.1,41l-28,13.2l59,125.3C341.2,174.7,350.5,170.3,360.1,166.3z"/>
	<path class="st0" d="M281.5,211.6l-88.3-106.7l-23.9,19.8l88.3,106.7C265.3,224.4,273.3,217.8,281.5,211.6z"/>
	<path class="st0" d="M247.1,241.3l-101-94.8L124.9,169l101,94.8C232.6,256,239.7,248.5,247.1,241.3z"/>
	<path class="st0" d="M403,151.3L360.2,19.7l-29.5,9.6l42.8,131.7C383.2,157.3,393,154.1,403,151.3z"/>
	<path class="st0" d="M447.5,142L421.5,6l-30.5,5.8l25.9,136C427,145.4,437.2,143.5,447.5,142z"/>
	<path class="st0" d="M319.4,186.4L245.2,69.5L219,86.1l74.2,116.9C301.7,197.2,310.4,191.6,319.4,186.4z"/>
	<path class="st0" d="M153.7,395.1L19.6,360.6l-7.7,30L146,425.1C148.1,414.9,150.7,404.9,153.7,395.1z"/>
	<path class="st0" d="M138.2,500c0-5.2,0.1-10.4,0.3-15.5H0v31h138.5C138.3,510.4,138.2,505.2,138.2,500z"/>
	<path class="st0" d="M169.5,352.5l-128.7-51l-11.4,28.8l128.7,51C161.5,371.5,165.3,361.9,169.5,352.5z"/>
	<path class="st0" d="M190.7,312.3L69.3,245.5l-14.9,27.2l121.3,66.7C180.3,330.1,185.3,321.1,190.7,312.3z"/>
	<path class="st0" d="M216.7,275l-112.1-81.4l-18.2,25.1l112,81.4C204.2,291.4,210.2,283.1,216.7,275z"/>
	<path class="st0" d="M143.3,439.3L5.9,422L2,452.7l137.4,17.4C140.3,459.7,141.6,449.4,143.3,439.3z"/>
	<path class="st0" d="M801.6,300l112-81.4l-18.2-25.1l-112,81.4C789.8,283.1,795.9,291.4,801.6,300z"/>
	<path class="st0" d="M824.3,339.4l121.3-66.7l-14.9-27.2l-121.3,66.7C814.7,321,819.7,330.1,824.3,339.4z"/>
	<path class="st0" d="M538.2,140.2L546.9,2L515.9,0l-8.7,138.3C517.7,138.5,528,139.1,538.2,140.2z"/>
	<path class="st0" d="M860.6,470.1L998,452.7l-3.9-30.8l-137.3,17.4C858.5,449.4,859.8,459.7,860.6,470.1z"/>
	<path class="st0" d="M854.1,425.1l134.1-34.4l-7.7-30l-134,34.4C849.4,404.9,851.9,414.9,854.1,425.1z"/>
	<path class="st0" d="M774.1,263.8l101-94.8l-21.2-22.6l-101,94.8C760.3,248.5,767.4,256,774.1,263.8z"/>
	<path class="st0" d="M626.5,160.9l42.8-131.6l-29.5-9.6L597,151.3C607,154.1,616.8,157.3,626.5,160.9z"/>
	<path class="st0" d="M583,147.7l25.9-136L578.5,6l-25.9,136C562.8,143.5,573,145.4,583,147.7z"/>
	<path class="st0" d="M706.8,203.1L781,86.1l-26.2-16.6l-74.2,116.9C689.6,191.6,698.3,197.2,706.8,203.1z"/>
	<path class="st0" d="M742.4,231.3l88.3-106.7l-23.9-19.8l-88.3,106.7C726.7,217.8,734.7,224.4,742.4,231.3z"/>
	<path class="st0" d="M668,179.4l58.9-125.3l-28-13.2l-58.9,125.2C649.5,170.2,658.8,174.7,668,179.4z"/>
	<path class="st0" d="M841.9,381.3l128.7-50.9l-11.4-28.8l-128.7,50.9C834.7,361.9,838.5,371.5,841.9,381.3z"/>
	<path class="st0" d="M680.7,813.6l74.2,116.9l26.2-16.6L706.8,797C698.4,802.9,689.6,808.4,680.7,813.6z"/>
	<path class="st0" d="M783.4,725l112,81.4l18.2-25.1l-112-81.4C795.9,708.6,789.8,717,783.4,725z"/>
	<path class="st0" d="M752.9,758.8l100.9,94.8l21.2-22.6l-100.9-94.8C767.4,744,760.3,751.6,752.9,758.8z"/>
	<path class="st0" d="M718.5,788.5l88.3,106.7l23.9-19.8l-88.3-106.7C734.7,775.6,726.8,782.2,718.5,788.5z"/>
	<path class="st0" d="M597,848.7l42.8,131.6l29.5-9.6l-42.8-131.6C616.8,842.7,607,845.9,597,848.7z"/>
	<path class="st0" d="M639.9,833.8L698.9,959l28-13.2L668,820.6C658.9,825.4,649.5,829.8,639.9,833.8z"/>
	<path class="st0" d="M846.4,604.9l134,34.4l7.7-30l-134.1-34.4C851.9,585.1,849.4,595.1,846.4,604.9z"/>
	<path class="st0" d="M856.8,560.7L994.1,578l3.9-30.8l-137.4-17.4C859.8,540.3,858.5,550.6,856.8,560.7z"/>
	<path class="st0" d="M861.5,484.5c0.2,5.1,0.3,10.3,0.3,15.5c0,5.2-0.1,10.3-0.3,15.5H1000v-31H861.5z"/>
	<path class="st0" d="M809.4,687.8l121.3,66.7l14.9-27.2l-121.3-66.7C819.7,669.9,814.7,679,809.4,687.8z"/>
	<path class="st0" d="M830.5,647.5l128.7,50.9l11.4-28.8l-128.7-50.9C838.5,628.5,834.7,638.1,830.5,647.5z"/>
	<path class="st0" d="M552.5,858.1l25.9,136l30.5-5.8L583,852.3C573,854.6,562.8,856.6,552.5,858.1z"/>
	<path class="st0" d="M139.4,529.9L2,547.3L5.9,578l137.4-17.4C141.6,550.6,140.3,540.3,139.4,529.9z"/>
	<path class="st0" d="M198.4,700l-112,81.4l18.2,25.1l112-81.4C210.2,716.9,204.1,708.6,198.4,700z"/>
	<path class="st0" d="M225.9,736.2l-101,94.8l21.2,22.6l101-94.8C239.7,751.5,232.6,744,225.9,736.2z"/>
	<path class="st0" d="M507.2,861.8l8.7,138.2l30.9-1.9l-8.7-138.2C528,860.9,517.7,861.6,507.2,861.8z"/>
	<path class="st0" d="M146,574.9L11.9,609.3l7.7,30l134.1-34.4C150.7,595.1,148.1,585.1,146,574.9z"/>
	<path class="st0" d="M257.6,768.7l-88.3,106.7l23.9,19.8l88.3-106.7C273.3,782.2,265.3,775.6,257.6,768.7z"/>
	<path class="st0" d="M158.1,618.7l-128.7,51l11.4,28.8l128.7-51C165.3,638.1,161.5,628.5,158.1,618.7z"/>
	<path class="st0" d="M175.7,660.6L54.4,727.3l14.9,27.2l121.3-66.7C185.3,678.9,180.3,669.9,175.7,660.6z"/>
	<path class="st0" d="M417,852.3l-25.9,136l30.5,5.8l25.9-136C437.2,856.6,427,854.6,417,852.3z"/>
	<path class="st0" d="M293.2,796.9L219,913.9l26.2,16.6l74.2-116.9C310.4,808.4,301.7,802.9,293.2,796.9z"/>
	<path class="st0" d="M461.8,859.9L453.1,998l30.9,1.9l8.7-138.2C482.3,861.6,472,860.9,461.8,859.9z"/>
	<path class="st0" d="M332,820.6l-58.9,125.2l28,13.2l58.9-125.2C350.5,829.8,341.1,825.4,332,820.6z"/>
	<path class="st0" d="M373.5,839.1l-42.8,131.6l29.5,9.6L403,848.7C393,845.9,383.2,842.7,373.5,839.1z"/>
</g>
</svg>
