<?xml version="1.0" encoding="utf-8"?>
<!-- Generator: Adobe Illustrator 23.0.1, SVG Export Plug-In . SVG Version: 6.00 Build 0)  -->
<svg version="1.1" xmlns="http://www.w3.org/2000/svg" xmlns:xlink="http://www.w3.org/1999/xlink" x="0px" y="0px"
	 viewBox="0 0 1000 1000" style="enable-background:new 0 0 1000 1000;" xml:space="preserve">
<style type="text/css">
	.st0{fill:url(#SVGID_1_);}
	.st1{fill:none;stroke:#1F2A42;stroke-width:8;stroke-miterlimit:10;}
</style>
<g id="Layer_4">
	<linearGradient id="SVGID_1_" gradientUnits="userSpaceOnUse" x1="500" y1="0" x2="500" y2="1000">
		<stop  offset="0" style="stop-color:#ED1E24"/>
		<stop  offset="0.7349" style="stop-color:#72BF44"/>
	</linearGradient>
	<circle class="st0" cx="500" cy="500" r="500"/>
</g>
<g id="Layer_5">
	<line class="st1" x1="500" y1="500.56" x2="500" y2="500.56"/>
	<line class="st1" x1="500" y1="0" x2="500" y2="1000"/>
	<line class="st1" x1="468.6" y1="0.99" x2="531.4" y2="999.01"/>
	<line class="st1" x1="437.33" y1="3.94" x2="562.67" y2="996.06"/>
	<line class="st1" x1="406.31" y1="8.86" x2="593.69" y2="991.14"/>
	<line class="st1" x1="375.66" y1="15.71" x2="624.34" y2="984.29"/>
	<line class="st1" x1="345.49" y1="24.47" x2="654.51" y2="975.53"/>
	<line class="st1" x1="315.94" y1="35.11" x2="684.06" y2="964.89"/>
	<line class="st1" x1="287.11" y1="47.59" x2="712.89" y2="952.41"/>
	<line class="st1" x1="259.12" y1="61.85" x2="740.88" y2="938.15"/>
	<line class="st1" x1="232.09" y1="77.84" x2="767.91" y2="922.16"/>
	<line class="st1" x1="206.11" y1="95.49" x2="793.89" y2="904.51"/>
	<line class="st1" x1="181.29" y1="114.74" x2="818.71" y2="885.26"/>
	<line class="st1" x1="157.73" y1="135.52" x2="842.27" y2="864.48"/>
	<line class="st1" x1="135.52" y1="157.73" x2="864.48" y2="842.27"/>
	<line class="st1" x1="114.74" y1="181.29" x2="885.26" y2="818.71"/>
	<line class="st1" x1="95.49" y1="206.11" x2="904.51" y2="793.89"/>
	<line class="st1" x1="77.84" y1="232.09" x2="922.16" y2="767.91"/>
	<line class="st1" x1="61.85" y1="259.12" x2="938.15" y2="740.88"/>
	<line class="st1" x1="47.59" y1="287.11" x2="952.41" y2="712.89"/>
	<line class="st1" x1="35.11" y1="315.94" x2="964.89" y2="684.06"/>
	<line class="st1" x1="24.47" y1="345.49" x2="975.53" y2="654.51"/>
	<line class="st1" x1="15.71" y1="375.66" x2="984.29" y2="624.34"/>
	<line class="st1" x1="8.86" y1="406.31" x2="991.14" y2="593.69"/>
	<line class="st1" x1="3.94" y1="437.33" x2="996.06" y2="562.67"/>
	<line class="st1" x1="0.99" y1="468.6" x2="999.01" y2="531.4"/>
	<line class="st1" x1="0" y1="500" x2="1000" y2="500"/>
	<line class="st1" x1="0.99" y1="531.4" x2="999.01" y2="468.6"/>
	<line class="st1" x1="3.94" y1="562.67" x2="996.06" y2="437.33"/>
	<line class="st1" x1="8.86" y1="593.69" x2="991.14" y2="406.31"/>
	<line class="st1" x1="15.71" y1="624.34" x2="984.29" y2="375.66"/>
	<line class="st1" x1="24.47" y1="654.51" x2="975.53" y2="345.49"/>
	<line class="st1" x1="35.11" y1="684.06" x2="964.89" y2="315.94"/>
	<line class="st1" x1="47.59" y1="712.89" x2="952.41" y2="287.11"/>
	<line class="st1" x1="61.85" y1="740.88" x2="938.15" y2="259.12"/>
	<line class="st1" x1="77.84" y1="767.91" x2="922.16" y2="232.09"/>
	<line class="st1" x1="95.49" y1="793.89" x2="904.51" y2="206.11"/>
	<line class="st1" x1="114.74" y1="818.71" x2="885.26" y2="181.29"/>
	<line class="st1" x1="135.52" y1="842.27" x2="864.48" y2="157.73"/>
	<line class="st1" x1="157.73" y1="864.48" x2="842.27" y2="135.52"/>
	<line class="st1" x1="181.29" y1="885.26" x2="818.71" y2="114.74"/>
	<line class="st1" x1="206.11" y1="904.51" x2="793.89" y2="95.49"/>
	<line class="st1" x1="232.09" y1="922.16" x2="767.91" y2="77.84"/>
	<line class="st1" x1="259.12" y1="938.15" x2="740.88" y2="61.85"/>
	<line class="st1" x1="287.11" y1="952.41" x2="712.89" y2="47.59"/>
	<line class="st1" x1="315.94" y1="964.89" x2="684.06" y2="35.11"/>
	<line class="st1" x1="345.49" y1="975.53" x2="654.51" y2="24.47"/>
	<line class="st1" x1="375.66" y1="984.29" x2="624.34" y2="15.71"/>
	<line class="st1" x1="406.31" y1="991.14" x2="593.69" y2="8.86"/>
	<line class="st1" x1="437.33" y1="996.06" x2="562.67" y2="3.94"/>
	<line class="st1" x1="468.6" y1="999.01" x2="531.4" y2="0.99"/>
</g>
</svg>
