<?xml version="1.0" encoding="utf-8"?>
<!-- Generator: Adobe Illustrator 22.1.0, SVG Export Plug-In . SVG Version: 6.00 Build 0)  -->
<svg version="1.1" id="Layer_1" xmlns="http://www.w3.org/2000/svg" xmlns:xlink="http://www.w3.org/1999/xlink" x="0px" y="0px"
	 viewBox="0 0 1000 1000" style="enable-background:new 0 0 1000 1000;" xml:space="preserve">
<style type="text/css">
	.st0{fill:url(#SVGID_1_);}
	.st1{display:none;}
	.st2{display:inline;fill:none;stroke:#1F2A42;stroke-width:8;stroke-miterlimit:10;}
</style>
<g id="Layer_4">
	
		<linearGradient id="SVGID_1_" gradientUnits="userSpaceOnUse" x1="500" y1="1000" x2="500" y2="0" gradientTransform="matrix(1 0 0 -1 0 1000)">
		<stop  offset="0" style="stop-color:#ED1E24"/>
		<stop  offset="0.7349" style="stop-color:#72BF44"/>
	</linearGradient>
	<circle class="st0" cx="500" cy="500" r="500"/>
</g>
<g id="Layer_5" class="st1">
	<line class="st2" x1="500" y1="500.6" x2="500" y2="500.6"/>
	<line class="st2" x1="500" y1="0" x2="500" y2="1000"/>
	<line class="st2" x1="468.6" y1="1" x2="531.4" y2="999"/>
	<line class="st2" x1="437.3" y1="3.9" x2="562.7" y2="996.1"/>
	<line class="st2" x1="406.3" y1="8.9" x2="593.7" y2="991.1"/>
	<line class="st2" x1="375.7" y1="15.7" x2="624.3" y2="984.3"/>
	<line class="st2" x1="345.5" y1="24.5" x2="654.5" y2="975.5"/>
	<line class="st2" x1="315.9" y1="35.1" x2="684.1" y2="964.9"/>
	<line class="st2" x1="287.1" y1="47.6" x2="712.9" y2="952.4"/>
	<line class="st2" x1="259.1" y1="61.8" x2="740.9" y2="938.2"/>
	<line class="st2" x1="232.1" y1="77.8" x2="767.9" y2="922.2"/>
	<line class="st2" x1="206.1" y1="95.5" x2="793.9" y2="904.5"/>
	<line class="st2" x1="181.3" y1="114.7" x2="818.7" y2="885.3"/>
	<line class="st2" x1="157.7" y1="135.5" x2="842.3" y2="864.5"/>
	<line class="st2" x1="135.5" y1="157.7" x2="864.5" y2="842.3"/>
	<line class="st2" x1="114.7" y1="181.3" x2="885.3" y2="818.7"/>
	<line class="st2" x1="95.5" y1="206.1" x2="904.5" y2="793.9"/>
	<line class="st2" x1="77.8" y1="232.1" x2="922.2" y2="767.9"/>
	<line class="st2" x1="61.8" y1="259.1" x2="938.2" y2="740.9"/>
	<line class="st2" x1="47.6" y1="287.1" x2="952.4" y2="712.9"/>
	<line class="st2" x1="35.1" y1="315.9" x2="964.9" y2="684.1"/>
	<line class="st2" x1="24.5" y1="345.5" x2="975.5" y2="654.5"/>
	<line class="st2" x1="15.7" y1="375.7" x2="984.3" y2="624.3"/>
	<line class="st2" x1="8.9" y1="406.3" x2="991.1" y2="593.7"/>
	<line class="st2" x1="3.9" y1="437.3" x2="996.1" y2="562.7"/>
	<line class="st2" x1="1" y1="468.6" x2="999" y2="531.4"/>
	<line class="st2" x1="0" y1="500" x2="1000" y2="500"/>
	<line class="st2" x1="1" y1="531.4" x2="999" y2="468.6"/>
	<line class="st2" x1="3.9" y1="562.7" x2="996.1" y2="437.3"/>
	<line class="st2" x1="8.9" y1="593.7" x2="991.1" y2="406.3"/>
	<line class="st2" x1="15.7" y1="624.3" x2="984.3" y2="375.7"/>
	<line class="st2" x1="24.5" y1="654.5" x2="975.5" y2="345.5"/>
	<line class="st2" x1="35.1" y1="684.1" x2="964.9" y2="315.9"/>
	<line class="st2" x1="47.6" y1="712.9" x2="952.4" y2="287.1"/>
	<line class="st2" x1="61.8" y1="740.9" x2="938.2" y2="259.1"/>
	<line class="st2" x1="77.8" y1="767.9" x2="922.2" y2="232.1"/>
	<line class="st2" x1="95.5" y1="793.9" x2="904.5" y2="206.1"/>
	<line class="st2" x1="114.7" y1="818.7" x2="885.3" y2="181.3"/>
	<line class="st2" x1="135.5" y1="842.3" x2="864.5" y2="157.7"/>
	<line class="st2" x1="157.7" y1="864.5" x2="842.3" y2="135.5"/>
	<line class="st2" x1="181.3" y1="885.3" x2="818.7" y2="114.7"/>
	<line class="st2" x1="206.1" y1="904.5" x2="793.9" y2="95.5"/>
	<line class="st2" x1="232.1" y1="922.2" x2="767.9" y2="77.8"/>
	<line class="st2" x1="259.1" y1="938.2" x2="740.9" y2="61.8"/>
	<line class="st2" x1="287.1" y1="952.4" x2="712.9" y2="47.6"/>
	<line class="st2" x1="315.9" y1="964.9" x2="684.1" y2="35.1"/>
	<line class="st2" x1="345.5" y1="975.5" x2="654.5" y2="24.5"/>
	<line class="st2" x1="375.7" y1="984.3" x2="624.3" y2="15.7"/>
	<line class="st2" x1="406.3" y1="991.1" x2="593.7" y2="8.9"/>
	<line class="st2" x1="437.3" y1="996.1" x2="562.7" y2="3.9"/>
	<line class="st2" x1="468.6" y1="999" x2="531.4" y2="1"/>
</g>
</svg>
