<svg id="Icon_Processors_24px" data-name="Icon/Processors/24px" xmlns="http://www.w3.org/2000/svg" width="24" height="24" viewBox="0 0 24 24">
  <rect id="Rectangle" width="24" height="24" fill="none"/>
  <g id="icon" transform="translate(0.901 0.901)">
    <path id="Path_248" data-name="Path 248" d="M22.849,16.7H17.4a.5.5,0,0,0-.5.5v5.5a.5.5,0,0,0,.5.5h5.5a.5.5,0,0,0,.5-.5V17.2A.576.576,0,0,0,22.849,16.7Zm-.5,5.5H17.846V17.692h4.507Z" transform="translate(-8.956 -8.863)" fill="rgba(52,73,94,0.4)"/>
    <path id="Path_249" data-name="Path 249" d="M23.715,11.87a.557.557,0,0,0,0-1.114h-1.67V8.277h1.67a.557.557,0,0,0,0-1.114h-1.67V5.8a1.577,1.577,0,0,0-1.569-1.569H19.109V2.557a.557.557,0,0,0-1.114,0v1.67h-2.48V2.557a.557.557,0,0,0-1.114,0v1.67h-2.48V2.557a.557.557,0,0,0-1.114,0v1.67H8.327V2.557a.557.557,0,1,0-1.114,0v1.67H5.8A1.577,1.577,0,0,0,4.227,5.8V7.163H2.557a.557.557,0,1,0,0,1.114h1.67v2.48H2.557a.557.557,0,0,0,0,1.114h1.67v2.48H2.557a.557.557,0,1,0,0,1.114h1.67v2.48H2.557a.557.557,0,0,0,0,1.114h1.67v1.417A1.577,1.577,0,0,0,5.8,22.045H7.214v1.67a.557.557,0,0,0,1.114,0v-1.67h2.48v1.67a.557.557,0,0,0,1.114,0v-1.67H14.4v1.67a.557.557,0,0,0,1.114,0v-1.67H18v1.67a.557.557,0,0,0,1.114,0v-1.67h1.367a1.577,1.577,0,0,0,1.569-1.569V19.058h1.67a.557.557,0,0,0,0-1.114h-1.67v-2.48h1.67a.557.557,0,0,0,0-1.114h-1.67V11.87Zm-2.784,8.605a.456.456,0,0,1-.456.456H5.8a.456.456,0,0,1-.456-.456V5.8A.456.456,0,0,1,5.8,5.341H20.475a.456.456,0,0,1,.456.456Z" transform="translate(-2 -2)" fill="rgba(52,73,94,0.4)"/>
  </g>
</svg>
