<svg id="Icon_OperatingSystem_24px" data-name="Icon/OperatingSystem/24px" xmlns="http://www.w3.org/2000/svg" width="24" height="24" viewBox="0 0 24 24">
  <rect id="Rectangle_1293" data-name="Rectangle 1293" width="24" height="24" transform="translate(0)" fill="none"/>
  <g id="AT_ICO_FA-Tools" data-name="AT/ICO/FA-Tools" transform="translate(0)">
    <path id="Path_120" data-name="Path 120" d="M23.513,18.222,17.694,12.4a3.742,3.742,0,0,0-4.711-.473l-4-4V4.491L2.994,0,0,2.994,4.491,8.982H7.925l4,4a3.741,3.741,0,0,0,.477,4.711l5.825,5.825a1.5,1.5,0,0,0,1.057.44,1.476,1.476,0,0,0,1.057-.44l3.177-3.177A1.5,1.5,0,0,0,23.513,18.222ZM7.485,7.4v.089H5.24L1.979,3.135,3.135,1.979,7.485,5.24ZM19.28,22.456l-5.82-5.825a2.243,2.243,0,1,1,3.172-3.172l5.825,5.82ZM2.994,20.211a.749.749,0,1,0,.749-.749A.751.751,0,0,0,2.994,20.211ZM12.95,3.13A5.517,5.517,0,0,1,16.87,1.5a5.642,5.642,0,0,1,.968.084L14.6,4.828l.646,3.883,3.888.646,3.242-3.242A5.513,5.513,0,0,1,20.823,11a5.443,5.443,0,0,1-1.4,1.006l1.1,1.1a6.774,6.774,0,0,0,1.357-1.053,7,7,0,0,0,1.857-6.7,1.267,1.267,0,0,0-.894-.917,1.285,1.285,0,0,0-1.249.327L18.606,7.757l-2.068-.346-.346-2.068,2.989-2.989A1.274,1.274,0,0,0,18.587.215a7.015,7.015,0,0,0-6.7,1.857A6.863,6.863,0,0,0,10.48,4.131V7.3l1.034,1.034A5.51,5.51,0,0,1,12.95,3.13ZM5.006,21.853a2.109,2.109,0,0,1-2.91,0,2.064,2.064,0,0,1,0-2.91l6.835-6.835L7.874,11.05,1.039,17.885a3.553,3.553,0,0,0,2.512,6.068A3.517,3.517,0,0,0,6.063,22.91l4.763-4.758a5.423,5.423,0,0,1-.725-1.394Z" transform="translate(0)" fill="rgba(52,73,94,0.4)"/>
  </g>
</svg>
