<svg xmlns="http://www.w3.org/2000/svg" width="24" height="24" viewBox="0 0 24 24">
  <g id="Icon_Memory_24px" data-name="Icon/Memory/24px" opacity="0.4">
    <rect id="Rectangle" width="24" height="24" fill="none"/>
    <g id="Icon" transform="translate(1 4.15)">
      <path id="Path_297" data-name="Path 297" d="M18.75,16.6H14.6a.5.5,0,0,1,0-1h4.15a.472.472,0,0,1,.5.5A.5.5,0,0,1,18.75,16.6Z" transform="translate(-8.05 -11.949)" fill="#34495e"/>
      <path id="Path_298" data-name="Path 298" d="M32.45,16.6H28.3a.5.5,0,1,1,0-1h4.15a.472.472,0,0,1,.5.5A.5.5,0,0,1,32.45,16.6Z" transform="translate(-14.9 -11.949)" fill="#34495e"/>
      <path id="Path_299" data-name="Path 299" d="M22.6,8.3H5.2A1.4,1.4,0,0,0,3.8,9.7v4.1H3.4A1.4,1.4,0,0,0,2,15.2v5.5a1.4,1.4,0,0,0,1.4,1.4h.1v.55a.472.472,0,0,0,.5.5.472.472,0,0,0,.5-.5V22.1H5.8v.55a.5.5,0,1,0,1,0V22.1H8.1v.55a.5.5,0,0,0,1,0V22.1h1.3v.55a.5.5,0,1,0,1,0V22.1h1.3v.55a.5.5,0,0,0,1,0V22.1H15v.55a.5.5,0,1,0,1,0V22.1h1.3v.55a.5.5,0,0,0,1,0V22.1h1.3v.55a.5.5,0,0,0,1,0V22.1h.3a1.4,1.4,0,0,0,1.4-1.4V16.6h.4a1.4,1.4,0,0,0,1.4-1.4V9.7A1.557,1.557,0,0,0,22.6,8.3ZM21.3,20.7a.555.555,0,0,1-.55.55H3.4a.555.555,0,0,1-.55-.55V15.2a.555.555,0,0,1,.55-.55H20.8a.555.555,0,0,1,.55.55v5.5Zm1.85-5.5a.555.555,0,0,1-.55.55h-.4v-.5a1.4,1.4,0,0,0-1.4-1.4H4.7V9.75a.555.555,0,0,1,.55-.55h17.4a.555.555,0,0,1,.55.55V15.2Z" transform="translate(-2 -8.3)" fill="#34495e"/>
      <path id="Path_300" data-name="Path 300" d="M15.15,27.6H11a.5.5,0,0,1,0-1h4.15a.472.472,0,0,1,.5.5A.5.5,0,0,1,15.15,27.6Z" transform="translate(-6.25 -17.449)" fill="#34495e"/>
      <path id="Path_301" data-name="Path 301" d="M28.85,27.6H24.7a.5.5,0,0,1,0-1h4.15a.473.473,0,0,1,.5.5A.5.5,0,0,1,28.85,27.6Z" transform="translate(-13.1 -17.449)" fill="#34495e"/>
    </g>
  </g>
</svg>
