<svg xmlns="http://www.w3.org/2000/svg" width="24" height="24.001" viewBox="0 0 24 24.001">
  <g id="Icon_NetworkCard_24px" data-name="Icon/NetworkCard/24px" transform="translate(-1205.001 -1087)">
    <rect id="Rectangle" width="24" height="24" transform="translate(1205.001 1087)" fill="rgba(255,255,255,0)"/>
    <path id="Path_304" data-name="Path 304" d="M41.674,20.631H38.719v2.955h.91V26.1l-3.546,3.546V18.086h1.576L35.492,14.54l-2.167,3.546H34.9v13.92L31.355,28.46V26.214a1.576,1.576,0,0,0,1-1.462h0a1.576,1.576,0,0,0-3.152,0h0a1.576,1.576,0,0,0,.973,1.458v2.727L34.9,33.665V35.1a1.773,1.773,0,1,0,1.182,0V31.317l4.728-4.728V23.571h.863Z" transform="translate(1181.801 1072.46)" fill="rgba(52,73,94,0.4)"/>
  </g>
</svg>
