<svg id="Icon_MotherBoard_24px" data-name="Icon/MotherBoard/24px" xmlns="http://www.w3.org/2000/svg" width="24" height="24" viewBox="0 0 24 24">
  <rect id="Rectangle" width="24" height="24" fill="none"/>
  <g id="icon" transform="translate(1.092 3.218)">
    <path id="Path_254" data-name="Path 254" d="M22.281,9.032a.453.453,0,0,1,.446.463V24.36a.453.453,0,0,1-.446.463H3.537a.453.453,0,0,1-.446-.463V9.495a.453.453,0,0,1,.446-.463H22.281m0-1.132H3.537A1.575,1.575,0,0,0,2,9.495V24.36a1.575,1.575,0,0,0,1.537,1.595H22.281a1.575,1.575,0,0,0,1.537-1.595V9.495A1.575,1.575,0,0,0,22.281,7.9Z" transform="translate(-2 -7.9)" fill="rgba(52,73,94,0.4)"/>
    <g id="Group_2011" data-name="Group 2011" transform="translate(2.182 2.212)">
      <path id="Path_255" data-name="Path 255" d="M12.4,13.332v5.092H7.491V13.332H12.4m.545-1.132h-6a.561.561,0,0,0-.545.566V18.99a.561.561,0,0,0,.545.566h6a.561.561,0,0,0,.545-.566V12.766a.561.561,0,0,0-.545-.566Z" transform="translate(-6.4 -12.2)" fill="rgba(52,73,94,0.4)"/>
      <g id="Group_2010" data-name="Group 2010" transform="translate(2.628 2.726)">
        <rect id="Rectangle_1435" data-name="Rectangle 1435" width="1.835" height="1.903" fill="rgba(52,73,94,0.4)"/>
      </g>
    </g>
    <path id="Path_256" data-name="Path 256" d="M24.545,19.556A.561.561,0,0,1,24,18.99V12.766a.546.546,0,1,1,1.091,0V18.99A.561.561,0,0,1,24.545,19.556Z" transform="translate(-13.091 -9.988)" fill="rgba(52,73,94,0.4)"/>
    <path id="Path_257" data-name="Path 257" d="M29.645,19.556a.561.561,0,0,1-.545-.566V12.766a.546.546,0,1,1,1.091,0V18.99A.561.561,0,0,1,29.645,19.556Z" transform="translate(-15.662 -9.988)" fill="rgba(52,73,94,0.4)"/>
    <path id="Path_258" data-name="Path 258" d="M34.845,17.138a.561.561,0,0,1-.545-.566V12.766a.546.546,0,1,1,1.091,0v3.806A.561.561,0,0,1,34.845,17.138Z" transform="translate(-18.283 -9.988)" fill="rgba(52,73,94,0.4)"/>
    <path id="Path_259" data-name="Path 259" d="M39.945,17.138a.561.561,0,0,1-.545-.566V12.766a.546.546,0,1,1,1.091,0v3.806A.561.561,0,0,1,39.945,17.138Z" transform="translate(-20.855 -9.988)" fill="rgba(52,73,94,0.4)"/>
    <path id="Path_260" data-name="Path 260" d="M16.863,31.932H6.945a.566.566,0,0,1,0-1.132h9.917a.566.566,0,0,1,0,1.132Z" transform="translate(-4.218 -19.021)" fill="rgba(52,73,94,0.4)"/>
    <path id="Path_261" data-name="Path 261" d="M16.863,37.032H6.945a.566.566,0,0,1,0-1.132h9.917a.566.566,0,0,1,0,1.132Z" transform="translate(-4.218 -21.498)" fill="rgba(52,73,94,0.4)"/>
    <path id="Path_262" data-name="Path 262" d="M34.087,30.4H32.8a.291.291,0,0,0-.3.309v1.029c0,.154.1.257.3.257h1.289a.239.239,0,0,0,.248-.257V30.709a.285.285,0,0,0-.248-.309Z" transform="translate(-17.376 -18.827)" fill="rgba(52,73,94,0.4)"/>
    <path id="Path_263" data-name="Path 263" d="M34.087,35.4H32.8a.281.281,0,0,0-.3.257v1.08a.292.292,0,0,0,.3.309h1.289c.149,0,.248-.1.248-.309v-1.08a.239.239,0,0,0-.248-.257Z" transform="translate(-17.376 -21.255)" fill="rgba(52,73,94,0.4)"/>
    <path id="Path_264" data-name="Path 264" d="M39.437,30.4H38.148c-.149,0-.248.1-.248.309v1.029a.239.239,0,0,0,.248.257h1.289a.239.239,0,0,0,.248-.257V30.709a.234.234,0,0,0-.248-.309Z" transform="translate(-20.098 -18.827)" fill="rgba(52,73,94,0.4)"/>
    <path id="Path_265" data-name="Path 265" d="M39.437,35.4H38.148a.239.239,0,0,0-.248.257v1.08a.285.285,0,0,0,.248.309h1.289c.149,0,.248-.1.248-.309v-1.08c.05-.154-.05-.257-.248-.257Z" transform="translate(-20.098 -21.255)" fill="rgba(52,73,94,0.4)"/>
  </g>
</svg>
