<svg xmlns="http://www.w3.org/2000/svg" width="24" height="24" viewBox="0 0 24 24">
  <g id="Icon_StartupPrograms_24px" data-name="Icon/StartupPrograms/24px" transform="translate(-1563 -1205)">
    <rect id="Rectangle" width="24" height="24" transform="translate(1563 1205)" fill="rgba(255,255,255,0)"/>
    <g id="AT_ICO_LE-ChargeFromShutdown" data-name="AT/ICO/LE-ChargeFromShutdown" transform="translate(1563 1208.36)">
      <path id="Path_129" data-name="Path 129" d="M23.4,18.6a.6.6,0,0,1,.6.6V21a3,3,0,0,1-3,3H3a3,3,0,0,1-3-3V19.2a.6.6,0,0,1,.6-.6H2.4V8.4A2.4,2.4,0,0,1,4.8,6H19.2a2.4,2.4,0,0,1,2.4,2.4V18.6ZM3.6,8.4V18.6H9.333a.315.315,0,0,1,.3.266,1.2,1.2,0,0,0,1.17.934h2.4a1.2,1.2,0,0,0,1.17-.934.315.315,0,0,1,.3-.266H20.4V8.4a1.2,1.2,0,0,0-1.2-1.2H4.8A1.2,1.2,0,0,0,3.6,8.4ZM22.8,21V19.8H15.5A1.8,1.8,0,0,1,13.8,21H10.2a1.8,1.8,0,0,1-1.7-1.2H1.2V21A1.8,1.8,0,0,0,3,22.8H21A1.8,1.8,0,0,0,22.8,21Z" transform="translate(0 -6)" fill="rgba(52,73,94,0.4)"/>
    </g>
    <path id="Path_338" data-name="Path 338" d="M14.461,7.9,9.485,12.656,6.939,10.233a.65.65,0,0,0-.89,0,.583.583,0,0,0,0,.851l2.986,2.853a.622.622,0,0,0,.45.18.6.6,0,0,0,.44-.18l5.427-5.186a.573.573,0,0,0,0-.851A.66.66,0,0,0,14.461,7.9Z" transform="translate(1564.279 1205.011)" fill="rgba(52,73,94,0.4)"/>
  </g>
</svg>
