<svg id="Icon_SoundCard_24px" data-name="Icon/SoundCard/24px" xmlns="http://www.w3.org/2000/svg" width="24" height="24" viewBox="0 0 24 24">
  <rect id="Rectangle" width="24" height="24" fill="rgba(255,255,255,0)"/>
  <g id="AT_ICO_FA-Music" data-name="AT/ICO/FA-Music" transform="translate(1 1)">
    <path id="AT_ICO_FA-music-2" data-name="AT/ICO/FA-music" d="M22,1.375A1.347,1.347,0,0,0,20.687,0a1.257,1.257,0,0,0-.4.065L7.8,4.19a1.369,1.369,0,0,0-.92,1.31V16.017a4.577,4.577,0,0,0-2.75-.892C1.847,15.125,0,16.664,0,18.563S1.847,22,4.125,22,8.25,20.461,8.25,18.563V11L20.625,6.875v6.392a4.577,4.577,0,0,0-2.75-.892c-2.278,0-4.125,1.539-4.125,3.438S15.6,19.25,17.875,19.25,22,17.711,22,15.813c0,0,0,0,0,0ZM4.125,20.625c-1.491,0-2.75-.944-2.75-2.062S2.634,16.5,4.125,16.5s2.75.944,2.75,2.063S5.616,20.625,4.125,20.625Zm16.5-15.2L8.25,9.551V5.5H8.226v0L20.625,1.4Zm-2.75,12.449c-1.491,0-2.75-.944-2.75-2.063s1.259-2.062,2.75-2.062,2.75.944,2.75,2.063S19.366,17.875,17.875,17.875Z" fill="rgba(52,73,94,0.4)"/>
  </g>
</svg>
