<svg id="Icon_VideoCard_24p" data-name="Icon/VideoCard/24p" xmlns="http://www.w3.org/2000/svg" width="24" height="24" viewBox="0 0 24 24">
  <rect id="Rectangle_1297" data-name="Rectangle 1297" width="24" height="24" fill="none"/>
  <g id="AT_ICO_FA-Video" data-name="AT/ICO/FA-Video" transform="translate(0 4.32)">
    <path id="AT_ICO_FA-video-2" data-name="AT/ICO/FA-video" d="M20.778,9.222a1.223,1.223,0,0,0-.7.218l-4.191,2.67V9.826A1.907,1.907,0,0,0,13.913,8H1.979A1.907,1.907,0,0,0,0,9.826V20.843a1.907,1.907,0,0,0,1.979,1.826H13.913a1.907,1.907,0,0,0,1.979-1.826V18.559l4.187,2.67A1.225,1.225,0,0,0,22,20.243V10.426a1.209,1.209,0,0,0-1.222-1.2ZM14.669,20.843a.7.7,0,0,1-.756.6H1.979a.7.7,0,0,1-.756-.6V9.826a.7.7,0,0,1,.756-.6H13.913a.7.7,0,0,1,.756.6Zm6.112-.6-.046-.05-4.844-3.087V13.558l4.89-3.113Z" transform="translate(1 -7.321)" fill="rgba(52,73,94,0.4)"/>
  </g>
</svg>
