<svg xmlns="http://www.w3.org/2000/svg" xmlns:xlink="http://www.w3.org/1999/xlink" width="20" height="20" viewBox="0 0 20 20">
  <defs>
    <clipPath id="clip-path">
      <rect width="20" height="20" fill="none"/>
    </clipPath>
    <linearGradient id="linear-gradient" x2="1" y2="1" gradientUnits="objectBoundingBox">
      <stop offset="0" stop-color="#2955bc"/>
      <stop offset="1" stop-color="#346cef"/>
    </linearGradient>
  </defs>
  <g id="Component_1" data-name="Component 1" clip-path="url(#clip-path)">
    <rect id="Footprint" width="20" height="20" fill="rgba(0,0,0,0)"/>
    <path id="Path" d="M12.5,17.3A9.02,9.02,0,0,1,.7,12.5,8.928,8.928,0,0,1,0,9a1.009,1.009,0,0,1,.3-.73,1.009,1.009,0,0,1,.73-.3,1.009,1.009,0,0,1,.73.3,1.009,1.009,0,0,1,.3.73,6.719,6.719,0,0,0,.553,2.7A6.793,6.793,0,0,0,4.1,13.9,7.019,7.019,0,0,0,6.3,15.4a6.893,6.893,0,0,0,2.7.536,6.719,6.719,0,0,0,2.7-.553A6.793,6.793,0,0,0,13.9,13.9,7.019,7.019,0,0,0,15.4,11.7,6.893,6.893,0,0,0,15.938,9a6.719,6.719,0,0,0-.553-2.7A6.793,6.793,0,0,0,13.9,4.1,7.019,7.019,0,0,0,11.7,2.6,6.893,6.893,0,0,0,9,2.063a1.009,1.009,0,0,1-.73-.3,1.009,1.009,0,0,1-.3-.73A1.009,1.009,0,0,1,8.27.3,1.009,1.009,0,0,1,9,0a8.987,8.987,0,0,1,9,9,9.022,9.022,0,0,1-5.5,8.3Z" transform="translate(1 1)" fill="url(#linear-gradient)"/>
  </g>
</svg>
