<svg id="icon_hardware_memory" xmlns="http://www.w3.org/2000/svg" width="48" height="48" viewBox="0 0 48 48">
  <rect id="Rectangle_1436" data-name="Rectangle 1436" width="48" height="48" fill="#4a81fd" opacity="0"/>
  <g id="Icon" transform="translate(2 8.3)">
    <path id="Path_297" data-name="Path 297" d="M23.4,17.6H15.1a1,1,0,0,1,0-2h8.3a.945.945,0,0,1,1,1A1,1,0,0,1,23.4,17.6Z" transform="translate(-2 -8.3)" fill="#4a81fd"/>
    <path id="Path_298" data-name="Path 298" d="M37.1,17.6H28.8a1,1,0,0,1,0-2h8.3a.945.945,0,0,1,1,1A1,1,0,0,1,37.1,17.6Z" transform="translate(-2 -8.3)" fill="#4a81fd"/>
    <path id="Path_299" data-name="Path 299" d="M43.2,8.3H8.4a2.8,2.8,0,0,0-2.8,2.8v8.2H4.8A2.8,2.8,0,0,0,2,22.1v11a2.8,2.8,0,0,0,2.8,2.8H5V37a.945.945,0,0,0,1,1,.945.945,0,0,0,1-1V35.9H9.6V37a.945.945,0,0,0,1,1,.945.945,0,0,0,1-1V35.9h2.6V37a1,1,0,0,0,2,0V35.9h2.6V37a1,1,0,0,0,2,0V35.9h2.6V37a1,1,0,0,0,2,0V35.9H28V37a1,1,0,0,0,2,0V35.9h2.6V37a1,1,0,0,0,2,0V35.9h2.6V37a1,1,0,0,0,2,0V35.9h.6a2.8,2.8,0,0,0,2.8-2.8V24.9h.8a2.8,2.8,0,0,0,2.8-2.8v-11A3.114,3.114,0,0,0,43.2,8.3ZM40.6,33.1a1.11,1.11,0,0,1-1.1,1.1H4.8a1.11,1.11,0,0,1-1.1-1.1v-11A1.11,1.11,0,0,1,4.8,21H39.6a1.11,1.11,0,0,1,1.1,1.1v11Zm3.7-11a1.11,1.11,0,0,1-1.1,1.1h-.8v-1a2.8,2.8,0,0,0-2.8-2.8H7.4V11.2a1.11,1.11,0,0,1,1.1-1.1H43.3a1.11,1.11,0,0,1,1.1,1.1V22.1Z" transform="translate(-2 -8.3)" fill="#4a81fd"/>
    <path id="Path_300" data-name="Path 300" d="M19.8,28.6H11.5a1,1,0,0,1,0-2h8.3a.945.945,0,0,1,1,1A1,1,0,0,1,19.8,28.6Z" transform="translate(-2 -8.3)" fill="#4a81fd"/>
    <path id="Path_301" data-name="Path 301" d="M33.5,28.6H25.2a1,1,0,0,1,0-2h8.3a.945.945,0,0,1,1,1A1,1,0,0,1,33.5,28.6Z" transform="translate(-2 -8.3)" fill="#4a81fd"/>
  </g>
</svg>
