<svg xmlns="http://www.w3.org/2000/svg" xmlns:xlink="http://www.w3.org/1999/xlink" width="14" height="14" viewBox="0 0 14 14"><defs><style>.a{fill:none;}.b{clip-path:url(#a);}.c{fill:rgba(0,0,0,0);}.d{fill:url(#b);}</style><clipPath id="a"><rect class="a" width="14" height="14"/></clipPath><linearGradient id="b" x2="1" y2="1" gradientUnits="objectBoundingBox"><stop offset="0" stop-color="#2955bc"/><stop offset="1" stop-color="#346cef"/></linearGradient></defs><g class="b"><rect class="c" width="14" height="14"/><path class="d" d="M8.332,11.531a6.013,6.013,0,0,1-7.864-3.2A5.952,5.952,0,0,1,0,6a.673.673,0,0,1,.2-.487.673.673,0,0,1,.487-.2.673.673,0,0,1,.487.2.673.673,0,0,1,.2.487,4.479,4.479,0,0,0,.369,1.8,4.529,4.529,0,0,0,.988,1.471,4.679,4.679,0,0,0,1.471,1,4.6,4.6,0,0,0,1.8.357,4.479,4.479,0,0,0,1.8-.369,4.529,4.529,0,0,0,1.471-.988,4.679,4.679,0,0,0,1-1.471A4.6,4.6,0,0,0,10.625,6a4.479,4.479,0,0,0-.369-1.8,4.529,4.529,0,0,0-.988-1.471,4.679,4.679,0,0,0-1.471-1A4.6,4.6,0,0,0,6,1.375a.673.673,0,0,1-.487-.2.673.673,0,0,1-.2-.487A.673.673,0,0,1,5.513.2.673.673,0,0,1,6,0a5.992,5.992,0,0,1,6,6,6.015,6.015,0,0,1-3.668,5.531Z" transform="translate(1 1)"/></g></svg>