<svg xmlns="http://www.w3.org/2000/svg" xmlns:xlink="http://www.w3.org/1999/xlink" width="24" height="24" viewBox="0 0 24 24">
  <defs>
    <clipPath id="clip-path">
      <rect width="24" height="24" fill="none"/>
    </clipPath>
  </defs>
  <g id="Icon_InstalledPrograms_24px" data-name="Icon/InstalledPrograms/24px" clip-path="url(#clip-path)">
    <g id="AT_ICO_FA-Settings" data-name="AT/ICO/FA-Settings" transform="translate(0.48)">
      <path id="Shape" d="M23.548,14.094l-1.578-.911a9.446,9.446,0,0,0,0-2.366l1.578-.911a1.159,1.159,0,0,0,.534-1.331A11.98,11.98,0,0,0,21.3,3.756a1.162,1.162,0,0,0-1.424-.207l-1.576.91A9.393,9.393,0,0,0,16.25,3.274V1.454A1.162,1.162,0,0,0,15.356.323,12.084,12.084,0,0,0,9.8.323a1.162,1.162,0,0,0-.894,1.131v1.82A9.392,9.392,0,0,0,6.859,4.459l-1.576-.91a1.162,1.162,0,0,0-1.424.207A11.98,11.98,0,0,0,1.075,8.575,1.159,1.159,0,0,0,1.61,9.906l1.578.911a9.444,9.444,0,0,0,0,2.366l-1.578.911a1.158,1.158,0,0,0-.534,1.331,11.98,11.98,0,0,0,2.784,4.819,1.162,1.162,0,0,0,1.424.207l1.576-.91a9.392,9.392,0,0,0,2.049,1.184v1.82A1.162,1.162,0,0,0,9.8,23.677a12.084,12.084,0,0,0,5.553,0,1.162,1.162,0,0,0,.894-1.131v-1.82A9.393,9.393,0,0,0,18.3,19.541l1.576.91a1.162,1.162,0,0,0,1.424-.207,11.981,11.981,0,0,0,2.784-4.819,1.159,1.159,0,0,0-.534-1.331ZM20.38,18.955l-2.241-1.294A8.361,8.361,0,0,1,14.7,19.648v2.588a10.507,10.507,0,0,1-4.245,0V19.648a8.362,8.362,0,0,1-3.437-1.987L4.778,18.955A10.452,10.452,0,0,1,2.653,15.28l2.242-1.294a8.43,8.43,0,0,1,0-3.972L2.653,8.72A10.459,10.459,0,0,1,4.778,5.044L7.019,6.339a8.348,8.348,0,0,1,3.437-1.987V1.764a10.49,10.49,0,0,1,4.245,0V4.352a8.348,8.348,0,0,1,3.437,1.987L20.38,5.044A10.459,10.459,0,0,1,22.505,8.72l-2.242,1.294a8.429,8.429,0,0,1,0,3.972l2.242,1.294A10.452,10.452,0,0,1,20.38,18.955Zm-7.8-11.6A4.645,4.645,0,1,0,17.224,12,4.65,4.65,0,0,0,12.579,7.355Zm0,7.742a3.1,3.1,0,1,1,3.1-3.1A3.1,3.1,0,0,1,12.579,15.1Z" transform="translate(-1.028 0)" fill="#4a81fd"/>
    </g>
    <rect id="Rectangle_1290" data-name="Rectangle 1290" width="24" height="24" fill="none"/>
  </g>
</svg>
