<svg xmlns="http://www.w3.org/2000/svg" width="20.9" height="22" viewBox="0 0 20.9 22"><defs><style>.a{fill:#4a81fd;}</style></defs><g transform="translate(-2 1.36)"><path class="a" d="M18.55,44.3h14.3a.52.52,0,0,0,.55-.55v-2.2a.52.52,0,0,0-.55-.55H18.55a.52.52,0,0,0-.55.55v2.2A.52.52,0,0,0,18.55,44.3Zm.55-2.2H32.3v1.1H19.1Z" transform="translate(-13.25 -26.96)"/><path class="a" d="M33.9,26.64l-2.145-13.2A.536.536,0,0,0,31.2,13H15.695a.592.592,0,0,0-.55.44L13,26.64v7.81a.52.52,0,0,0,.55.55h19.8a.52.52,0,0,0,.55-.55V26.64ZM16.135,14.1H30.71l1.98,12.1H14.21ZM32.8,33.9H14.1V27.3H32.8Z" transform="translate(-11 -14.36)"/><path class="a" d="M27.1,17.6c-3.3,0-6,2.09-6,4.62s2.695,4.62,6,4.62,6-2.09,6-4.62S30.4,17.6,27.1,17.6Zm0,8.14c-2.7,0-4.9-1.6-4.9-3.52s2.2-3.52,4.9-3.52,4.9,1.6,4.9,3.52S29.79,25.74,27.1,25.74Z" transform="translate(-14.645 -16.431)"/></g></svg>