<svg id="Icons_Keyboard_24px" data-name="Icons/Keyboard/24px" xmlns="http://www.w3.org/2000/svg" width="24" height="24" viewBox="0 0 24 24">
  <rect id="Rectangle" width="24" height="24" fill="none"/>
  <g id="AT_ICO_FA-keyboard" data-name="AT/ICO/FA-keyboard" transform="translate(0 4.32)">
    <path id="Path_122" data-name="Path 122" d="M22,8H2a2,2,0,0,0-2,2V22a2,2,0,0,0,2,2H22a2,2,0,0,0,2-2V10A2,2,0,0,0,22,8Zm.667,14a.667.667,0,0,1-.667.667H2A.667.667,0,0,1,1.333,22V10A.667.667,0,0,1,2,9.333H22a.667.667,0,0,1,.667.667ZM7,16.5v-1a.5.5,0,0,0-.5-.5h-1a.5.5,0,0,0-.5.5v1a.5.5,0,0,0,.5.5h1A.5.5,0,0,0,7,16.5Zm4,0v-1a.5.5,0,0,0-.5-.5h-1a.5.5,0,0,0-.5.5v1a.5.5,0,0,0,.5.5h1A.5.5,0,0,0,11,16.5Zm4,0v-1a.5.5,0,0,0-.5-.5h-1a.5.5,0,0,0-.5.5v1a.5.5,0,0,0,.5.5h1A.5.5,0,0,0,15,16.5Zm4,0v-1a.5.5,0,0,0-.5-.5h-1a.5.5,0,0,0-.5.5v1a.5.5,0,0,0,.5.5h1A.5.5,0,0,0,19,16.5ZM5,19.833v-1a.5.5,0,0,0-.5-.5h-1a.5.5,0,0,0-.5.5v1a.5.5,0,0,0,.5.5h1A.5.5,0,0,0,5,19.833Zm16,0v-1a.5.5,0,0,0-.5-.5h-1a.5.5,0,0,0-.5.5v1a.5.5,0,0,0,.5.5h1A.5.5,0,0,0,21,19.833ZM5,13.167v-1a.5.5,0,0,0-.5-.5h-1a.5.5,0,0,0-.5.5v1a.5.5,0,0,0,.5.5h1A.5.5,0,0,0,5,13.167Zm4,0v-1a.5.5,0,0,0-.5-.5h-1a.5.5,0,0,0-.5.5v1a.5.5,0,0,0,.5.5h1A.5.5,0,0,0,9,13.167Zm4,0v-1a.5.5,0,0,0-.5-.5h-1a.5.5,0,0,0-.5.5v1a.5.5,0,0,0,.5.5h1A.5.5,0,0,0,13,13.167Zm4,0v-1a.5.5,0,0,0-.5-.5h-1a.5.5,0,0,0-.5.5v1a.5.5,0,0,0,.5.5h1A.5.5,0,0,0,17,13.167Zm4,0v-1a.5.5,0,0,0-.5-.5h-1a.5.5,0,0,0-.5.5v1a.5.5,0,0,0,.5.5h1A.5.5,0,0,0,21,13.167ZM17,19.5v-.333a.5.5,0,0,0-.5-.5h-9a.5.5,0,0,0-.5.5V19.5a.5.5,0,0,0,.5.5h9A.5.5,0,0,0,17,19.5Z" transform="translate(0 -8)" fill="#4a81fd"/>
  </g>
</svg>
