<svg width="63" height="31" viewBox="0 0 63 31" fill="none" xmlns="http://www.w3.org/2000/svg">
<path d="M61.071 29.559C61.071 14.0757 47.8778 1.46777 31.6041 1.46777C15.3305 1.46777 2.13722 14.0204 2.0791 29.5037" stroke="#888888" stroke-width="2.70077" stroke-miterlimit="10" stroke-linecap="round" stroke-linejoin="round"/>
<path d="M52.992 22.2595C51.8296 19.2181 50.0279 16.4532 47.645 14.2413C43.5185 10.3152 37.8227 7.88208 31.5457 7.88208C25.2687 7.88208 19.573 10.3152 15.4464 14.186C13.0635 16.4532 11.2037 19.2734 10.0413 22.3701" stroke="#888888" stroke-width="2.70077" stroke-miterlimit="10" stroke-linecap="round" stroke-linejoin="round"/>
<path d="M37.1251 29.5039C37.1251 28.0109 36.4858 26.6837 35.4978 25.7436C34.5097 24.8036 33.1148 24.1953 31.5456 24.1953C28.4652 24.1953 25.9661 26.5731 25.9661 29.5039" stroke="#888888" stroke-width="2.70077" stroke-miterlimit="10" stroke-linecap="round" stroke-linejoin="round"/>
<path d="M40.3794 21.1538L36.3691 24.9694" stroke="#888888" stroke-width="2.70077" stroke-miterlimit="10" stroke-linecap="round" stroke-linejoin="round"/>
<path d="M31.6038 7.88208V10.7576" stroke="#888888" stroke-width="2.70077" stroke-miterlimit="10" stroke-linecap="round" stroke-linejoin="round"/>
<path d="M17.6553 16.2321L15.5049 14.186" stroke="#888888" stroke-width="2.70077" stroke-miterlimit="10" stroke-linecap="round" stroke-linejoin="round"/>
<path d="M47.6446 14.2412L45.5522 16.2319" stroke="#888888" stroke-width="2.70077" stroke-miterlimit="10" stroke-linecap="round" stroke-linejoin="round"/>
</svg>
