<svg xmlns="http://www.w3.org/2000/svg" xmlns:xlink="http://www.w3.org/1999/xlink" width="246.003" height="243.997" viewBox="0 0 246.003 243.997"><defs><style>.a{fill:#2f3447;}.b{fill:url(#a);}.c{filter:url(#b);}</style><linearGradient id="a" x1="0.105" y1="1" x2="0.889" y2="1" gradientUnits="objectBoundingBox"><stop offset="0" stop-color="#eab029"/><stop offset="1" stop-color="#f0d662"/></linearGradient><filter id="b" x="108.909" y="0" width="137.094" height="180.801" filterUnits="userSpaceOnUse"><feOffset dy="2" input="SourceAlpha"/><feGaussianBlur stdDeviation="4" result="c"/><feFlood flood-color="#f0d662" flood-opacity="0.6"/><feComposite operator="in" in2="c"/><feComposite in="SourceGraphic"/></filter></defs><g transform="translate(-108 -269.003)"><path class="a" d="M120,240a120.893,120.893,0,0,1-24.184-2.438,119.336,119.336,0,0,1-42.909-18.056A120.351,120.351,0,0,1,9.43,166.71a119.4,119.4,0,0,1-6.992-22.525,121.176,121.176,0,0,1,0-48.368A119.342,119.342,0,0,1,20.494,52.907,120.351,120.351,0,0,1,73.29,9.43,119.4,119.4,0,0,1,95.815,2.438a121.172,121.172,0,0,1,48.369,0,119.336,119.336,0,0,1,42.909,18.056,120.352,120.352,0,0,1,43.477,52.8,119.393,119.393,0,0,1,6.992,22.525,121.165,121.165,0,0,1,0,48.368,119.341,119.341,0,0,1-18.056,42.909,120.353,120.353,0,0,1-52.8,43.476,119.413,119.413,0,0,1-22.525,6.992A120.893,120.893,0,0,1,120,240Zm0-210a90,90,0,1,0,90,90A90.1,90.1,0,0,0,120,30Z" transform="translate(108 273)"/><g class="c" transform="matrix(1, 0, 0, 1, 108, 269)"><path class="b" d="M-741.3-4491.2h0l-16.662-6.9c.288-.714.579-1.459.864-2.215l16.946,6.167c-.361.97-.747,1.961-1.147,2.949Zm1.764-4.652h0l-16.942-6.167c.265-.75.522-1.506.766-2.252l17.195,5.422c-.329,1.016-.671,2.023-1.017,3Zm1.563-4.722h0l-17.192-5.42c.227-.742.451-1.51.666-2.285l17.411,4.666c-.284,1.027-.581,2.049-.885,3.038Zm1.35-4.789h0l-17.407-4.665c.2-.765.387-1.542.565-2.311l17.594,3.9c-.24,1.045-.492,2.079-.75,3.073Zm1.142-4.842h0l-17.593-3.9c.163-.771.32-1.556.464-2.334l17.744,3.128c-.14.761-.289,1.53-.443,2.286q-.084.41-.171.818Zm.926-4.888h0l-17.742-3.129c.134-.811.256-1.6.361-2.353l17.857,2.352c-.141,1.024-.3,2.077-.476,3.129Zm.71-4.924h0l-17.855-2.351c.1-.8.183-1.6.257-2.365l17.94,1.569c-.1,1.077-.217,2.135-.341,3.146Zm.5-4.95h0l-17.938-1.57c.058-.758.11-1.556.153-2.374l17.991.785c-.052,1.024-.121,2.086-.2,3.157Zm.283-4.967h0l-17.989-.785c.027-.777.044-1.577.051-2.377H-733c-.008,1.05-.031,2.113-.068,3.162Zm.068-4.974H-751c-.007-.75-.024-1.549-.051-2.376l17.991-.787c.037,1.055.06,2.118.068,3.162Zm-18.135-4.184h0c-.043-.806-.1-1.6-.154-2.374l17.939-1.57c.084,1.075.153,2.138.2,3.159l-17.988.786Zm-.31-4.177h0c-.074-.772-.16-1.568-.257-2.366l17.856-2.35c.125,1.016.239,2.074.341,3.146Zm-.492-4.161h0c-.107-.757-.227-1.547-.36-2.351l17.74-3.128c.175,1.052.335,2.1.477,3.128Zm-.674-4.134h0c-.138-.748-.294-1.532-.463-2.332l17.592-3.9c.053.249.109.518.172.822.154.753.3,1.521.442,2.284l-17.741,3.129Zm-.855-4.1h0c-.184-.795-.374-1.572-.566-2.311l17.409-4.665c.271,1.048.523,2.082.75,3.074l-17.592,3.9Zm-1.034-4.059h0c-.2-.732-.427-1.5-.666-2.285l17.191-5.42c.307,1,.6,2.024.885,3.041l-17.409,4.665Zm-1.212-4.01h0c-.24-.737-.5-1.495-.767-2.252l16.942-6.167c.349.983.691,1.992,1.018,3l-17.192,5.42Zm-1.387-3.951h0c-.283-.752-.573-1.5-.864-2.215l16.661-6.9c.4.987.786,1.98,1.148,2.95l-16.943,6.166Zm-1.559-3.889h0c-.315-.739-.638-1.47-.961-2.175l16.347-7.623c.445.974.874,1.948,1.276,2.9l-16.662,6.9Zm-1.728-3.813h0c-.351-.73-.705-1.447-1.054-2.13l16-8.33c.485.948.957,1.9,1.4,2.837l-16.347,7.623Zm-1.894-3.737h0c-.379-.708-.765-1.409-1.146-2.083l15.624-9.021c.522.919,1.035,1.853,1.525,2.774l-16,8.33Zm-2.056-3.65c-.414-.7-.83-1.38-1.236-2.029l15.218-9.7c.545.868,1.1,1.778,1.643,2.7l-15.624,9.021Zm-2.211-3.555c-.456-.7-.889-1.343-1.324-1.974l14.784-10.351c.228.333.426.622.622.912.383.566.766,1.145,1.138,1.718l-15.218,9.695Zm-2.363-3.456h0c-.478-.666-.951-1.311-1.408-1.916L-756-4602.682c.622.82,1.252,1.679,1.875,2.551l-14.782,10.351Zm-2.511-3.348h0c-.5-.635-1-1.258-1.488-1.852l13.825-11.6c.669.81,1.335,1.639,1.982,2.466l-14.317,10.986Zm-2.655-3.24h0c-.523-.61-1.05-1.21-1.567-1.784l13.306-12.193c.708.785,1.41,1.585,2.087,2.378l-13.825,11.6Zm-2.79-3.117,0,0c-.547-.584-1.1-1.162-1.643-1.716l12.763-12.763c.746.758,1.482,1.526,2.188,2.285l-13.306,12.194Zm-2.925-3h0c-.548-.538-1.125-1.091-1.716-1.642l12.194-13.308c.765.713,1.534,1.45,2.286,2.189Zm-3.051-2.867h0c-.562-.507-1.163-1.035-1.784-1.568l11.6-13.824c.833.711,1.633,1.413,2.378,2.086l-12.192,13.305Zm-3.171-2.734h0c-.583-.48-1.206-.981-1.851-1.487l10.986-14.317c.839.655,1.668,1.323,2.466,1.982Zm-3.287-2.593h0c-.637-.479-1.281-.952-1.914-1.406l10.352-14.782c.848.605,1.706,1.236,2.549,1.874Zm-3.4-2.449h0c-.655-.449-1.319-.895-1.974-1.321l9.695-15.22c.627.409,1.205.792,1.719,1.14.307.206.631.429.91.622Zm-3.5-2.3h0c-.668-.418-1.351-.834-2.031-1.237l9.02-15.624c.947.558,1.857,1.111,2.706,1.645l-9.694,15.216Zm-3.6-2.146h0c-.707-.4-1.408-.785-2.081-1.145l8.329-16c.9.48,1.837.994,2.773,1.525Zm-3.687-1.985h0c-.729-.372-1.446-.727-2.131-1.054l7.623-16.346c.965.46,1.919.932,2.838,1.4l-8.327,16Zm-3.77-1.824h0c-.746-.339-1.478-.662-2.175-.958l6.9-16.661c.989.419,1.963.849,2.9,1.276Zm-3.845-1.655h0c-.716-.29-1.461-.581-2.215-.865l6.166-16.941c1.018.38,2.01.767,2.95,1.148l-6.9,16.657Zm-3.918-1.486h0c-.721-.255-1.478-.513-2.252-.767l5.421-17.19c1.023.332,2.032.674,3,1.018l-6.165,16.938Zm-3.978-1.312h0c-.762-.232-1.53-.457-2.284-.666l4.664-17.406c.989.273,2.012.571,3.04.885l-5.419,17.187Zm-4.032-1.136h0c-.816-.209-1.572-.394-2.309-.564l3.9-17.59c1.053.241,2.087.494,3.075.75l-4.663,17.4Zm-4.078-.957h0c-.738-.157-1.523-.313-2.333-.463l3.128-17.738c.826.151,1.594.3,2.286.443.278.057.549.113.818.171l-3.9,17.587Zm-4.116-.777h0c-.744-.124-1.535-.245-2.349-.36l2.35-17.854c1.091.151,2.143.312,3.128.477l-3.128,17.736Zm-4.147-.6h0c-.8-.1-1.6-.183-2.363-.257l1.57-17.935c1.026.1,2.084.21,3.145.34l-2.35,17.851Zm-4.168-.414h0c-.772-.06-1.571-.111-2.373-.154l.785-17.983c1.057.053,2.119.122,3.157.2l-1.568,17.934Zm-4.183-.231h0c-.8-.027-1.595-.044-2.376-.051v-18c1.017.008,2.081.031,3.163.069l-.785,17.984Z" transform="translate(967 4658)"/></g></g></svg>