<svg width="40" height="37" viewBox="0 0 40 37" fill="none" xmlns="http://www.w3.org/2000/svg">
<path d="M30.8059 24.6318H36.5288C36.997 24.6318 37.3763 24.2525 37.3763 23.7843V10.7708C37.3763 10.3025 36.997 9.92322 36.5288 9.92322H32.4635C32.0338 9.92322 31.6834 9.57277 31.6834 9.14311C31.6834 8.71344 32.0338 8.36301 32.4635 8.36301H36.5326C37.8601 8.36301 38.9405 9.44322 38.9365 10.7711M30.8059 24.6318L38.8365 23.7843C38.8365 25.0566 37.8011 26.092 36.5288 26.092H30.8021V26.192M30.8059 24.6318V20.6665V20.5665H30.7059H9.0116H8.9116V20.6665V24.6318H3.18493C2.7208 24.6318 2.34121 24.2528 2.34121 23.7843V10.7708C2.34121 10.3023 2.7208 9.92322 3.18493 9.92322H7.25023C7.6799 9.92322 8.03032 9.57277 8.03032 9.14311C8.03032 8.71345 7.6799 8.36301 7.25023 8.36301H3.18493C1.85739 8.36301 0.777197 9.44322 0.777197 10.7708V23.7843C0.777197 25.1118 1.85739 26.192 3.18493 26.192H8.9116V29.4772C8.9116 29.9069 9.26205 30.2573 9.69171 30.2573C10.1214 30.2573 10.4718 29.9069 10.4718 29.4772V22.1267H29.2419V30.2911C29.2419 30.7207 29.5923 31.0712 30.022 31.0712C30.4517 31.0712 30.8021 30.7207 30.8021 30.2911V26.192M30.8059 24.6318L30.7021 26.192H30.8021M38.9365 10.7711L38.8365 10.7708H38.9365V10.7711ZM38.9365 10.7711V23.7843C38.9365 25.1118 37.8563 26.192 36.5288 26.192H30.8021" fill="white" stroke="white" stroke-width="0.2"/>
<path d="M4.03232 17.2732C4.03232 17.7029 4.38277 18.0533 4.81243 18.0533H34.901C35.3306 18.0533 35.6811 17.7029 35.6811 17.2732C35.6811 16.8436 35.3306 16.4931 34.901 16.4931H30.8058V1.00822C30.8058 0.578555 30.4553 0.228125 30.0257 0.228125H9.69536C9.26569 0.228125 8.91528 0.57856 8.91528 1.00822V16.4931H4.81626C4.38314 16.4931 4.03232 16.8432 4.03232 17.2732ZM10.4755 1.79213H29.2456V16.4969H10.4755V1.79213Z" fill="white" stroke="white" stroke-width="0.2"/>
<path d="M6.40697 21.3431C6.41108 20.9081 6.05926 20.5625 5.62689 20.5625C5.19722 20.5625 4.84678 20.9129 4.84678 21.3426V21.9997C4.84678 22.4294 5.19722 22.7798 5.62689 22.7798C6.05655 22.7798 6.40697 22.4294 6.40697 21.9997V21.3431ZM6.40697 21.3431C6.40697 21.3432 6.40697 21.3434 6.40696 21.3436L6.30697 21.3426H6.40697V21.3431Z" fill="white" stroke="white" stroke-width="0.2"/>
<path d="M17.8263 23C17.3967 23 17.0462 23.3504 17.0462 23.7801V31.1007C17.0462 31.5303 17.3967 31.8807 17.8263 31.8807C18.256 31.8807 18.6064 31.5303 18.6064 31.1007V23.7801C18.6064 23.3504 18.256 23 17.8263 23Z" fill="white" stroke="white" stroke-width="0.2"/>
<path d="M13.7609 23C13.3312 23 12.9808 23.3504 12.9808 23.7801V35.9798C12.9808 36.4094 13.3312 36.7599 13.7609 36.7599C14.1906 36.7599 14.541 36.4094 14.541 35.9798V23.7801C14.541 23.3504 14.1906 23 13.7609 23Z" fill="white" stroke="white" stroke-width="0.2"/>
<path d="M21.8959 23C21.4663 23 21.1158 23.3504 21.1158 23.7801V35.166C21.1158 35.5956 21.4663 35.946 21.8959 35.946C22.3256 35.946 22.676 35.5956 22.676 35.166V23.7801C22.676 23.3504 22.3256 23 21.8959 23Z" fill="white" stroke="white" stroke-width="0.2"/>
<path d="M25.9604 23C25.5307 23 25.1803 23.3504 25.1803 23.7801V31.9107C25.1803 32.3403 25.5307 32.6908 25.9604 32.6908C26.39 32.6908 26.7405 32.3403 26.7405 31.9107V23.7801C26.7405 23.3504 26.39 23 25.9604 23Z" fill="white" stroke="white" stroke-width="0.2"/>
</svg>
