<svg width="58" height="48" viewBox="0 0 58 48" fill="none" xmlns="http://www.w3.org/2000/svg">
<g clip-path="url(#clip0)">
<path d="M57.639 19.9144C57.5189 16.2835 55.9967 12.935 53.353 10.4337C50.7093 7.9728 47.3045 6.68181 43.6594 6.80284C40.0544 6.92387 36.7297 8.45692 34.2462 11.1196C31.8028 13.7822 30.521 17.2518 30.6411 20.8827C30.7213 23.384 31.5224 25.8046 32.8843 27.9024C32.9243 27.9428 32.9243 27.9831 32.9243 28.0234C32.9243 28.0638 32.9243 28.1445 32.8442 28.1848L21.0677 42.5874C20.547 43.1522 20.3066 43.838 20.3066 44.6046H20.3868H20.3066C20.3066 44.6449 20.3066 44.6449 20.3066 44.6449C20.3467 45.4114 20.7072 46.1376 21.268 46.7024C21.8288 47.2269 22.5097 47.5093 23.2307 47.5093C24.0319 47.5496 24.7929 47.2269 25.3938 46.6217L37.2504 32.2192C37.3305 32.1385 37.4507 32.1385 37.5308 32.1788C40.1345 33.6715 43.1787 34.2363 46.1429 33.7925C49.1872 33.3488 51.951 31.8964 54.034 29.6372C56.4774 27.0149 57.7592 23.5453 57.639 19.9144ZM22.1492 43.596L31.0818 32.3805C31.1218 32.3402 31.1619 32.2998 31.242 32.2998C31.282 32.2998 31.3622 32.3402 31.4022 32.3402L33.2047 34.0346C33.2448 34.0749 33.2849 34.1153 33.2849 34.196C33.2849 34.2363 33.2849 34.317 33.2047 34.3574L24.2722 45.6131C23.7515 46.1376 22.8702 46.1376 22.3095 45.6131C22.0291 45.3307 21.8688 44.9676 21.8288 44.6046C21.8288 44.2011 21.9489 43.8784 22.1492 43.596ZM32.4437 30.9282L33.8056 29.4758C33.8456 29.4355 33.9258 29.3951 33.9658 29.3951C34.0459 29.3951 34.086 29.4355 34.126 29.4758C34.4064 29.7985 34.6868 30.081 34.9672 30.323C35.2476 30.6054 35.5681 30.8475 35.8885 31.0895C35.9286 31.1299 35.9686 31.1702 35.9686 31.2509H36.0487H35.9686C35.9686 31.2913 35.9686 31.3719 35.9286 31.4123L34.5667 32.8646C34.5266 32.905 34.4865 32.9453 34.4064 32.9453C34.3664 32.9453 34.2863 32.9453 34.2462 32.905L32.4437 31.2106C32.4036 31.1702 32.3636 31.1299 32.3636 31.0492C32.3636 31.0089 32.4036 30.9685 32.4437 30.9282ZM34.6067 27.6604L34.3664 27.3376C33.0045 25.4011 32.2834 23.1419 32.2033 20.802C32.0832 17.5745 33.2448 14.5084 35.4078 12.1685C37.5709 9.82859 40.535 8.45692 43.7395 8.33589C44.0199 8.33589 44.2603 8.33589 44.5406 8.33589C47.4648 8.41658 50.1886 9.54619 52.3116 11.5634C54.6348 13.7419 55.9967 16.7273 56.1169 19.9548C56.2371 23.1822 55.0754 26.2483 52.9124 28.5883C49.067 32.7436 42.8182 33.6312 37.9714 30.7264L37.5709 30.4844C37.2905 30.2827 37.0101 30.081 36.7297 29.8792C36.4893 29.7179 36.209 29.4758 35.9286 29.1934C35.6482 28.911 35.4078 28.6689 35.2076 28.4269C35.0073 28.1848 34.807 27.9024 34.6067 27.6604Z" fill="white"/>
<path d="M26.3152 32.4209H8.45012C9.09102 31.6544 9.45153 30.6862 9.45153 29.5969V11.039H31.6026C31.9631 10.4741 32.3236 9.94968 32.7642 9.42522H8.6504C8.20978 9.42522 7.84928 9.78831 7.84928 10.2321V29.5969C7.84928 30.8879 7.0081 31.9368 5.84647 32.2999V10.2321C5.84647 9.78831 5.48596 9.42522 5.04534 9.42522C4.60473 9.42522 4.24422 9.78831 4.24422 10.2321V32.2999C3.08259 31.9368 2.24141 30.8879 2.24141 29.5969V2.16342H12.656C13.0966 2.16342 13.4571 2.52651 13.4571 2.97028V7.40805C13.4571 7.85183 13.8177 8.21492 14.2583 8.21492H33.8057C34.3665 7.60977 34.9673 7.0853 35.6082 6.60118H15.0594V2.97028C15.0594 1.63895 13.9779 0.549683 12.656 0.549683H1.44028C0.999666 0.549683 0.63916 0.912773 0.63916 1.35655V29.5969C0.63916 32.0578 2.60191 34.0347 5.04534 34.0347C5.0854 34.0347 5.16551 34.0347 5.20557 34.0347C5.24563 34.0347 5.28568 34.0347 5.32574 34.0347H25.0735L26.3152 32.4209Z" fill="white"/>
</g>
<defs>
<clipPath id="clip0">
<rect width="57" height="47" fill="white" transform="translate(0.63916 0.549683)"/>
</clipPath>
</defs>
</svg>
