<svg width="37" height="45" viewBox="0 0 37 45" fill="none" xmlns="http://www.w3.org/2000/svg">
<path d="M36.449 33.5933L34.75 25.5348C34.3229 23.5156 32.8468 21.8445 30.8879 21.176C30.1405 20.9207 29.3932 20.6608 28.6504 20.4008L28.5715 20.373L28.6319 20.3126C29.4442 19.491 30.2752 18.6787 31.1014 17.8942C31.3196 17.6853 31.4078 17.3789 31.3242 17.0865C31.2407 16.794 31.0086 16.5805 30.7115 16.5201C29.2214 16.2184 27.6989 15.9677 26.1995 15.7774L26.1438 15.7681L26.1531 15.7124C26.2134 15.2715 26.2413 14.8258 26.2413 14.3848V13.916L26.2784 13.9021C29.2957 12.7787 31.0968 11.1447 31.0968 9.52933C31.0968 7.88143 29.4907 6.89734 26.037 6.44242L25.9999 6.43778L25.9906 6.40065C25.5357 4.6924 24.974 3.077 24.4077 1.84687C23.9435 0.834923 23.224 0.431072 22.7041 0.273245C21.3904 -0.125965 19.8911 0.533195 18.8652 1.15522C18.6888 1.26198 18.4335 1.26663 18.2525 1.15986C17.519 0.737442 16.4142 0.231467 15.3327 0.231467C15.0031 0.231467 14.6874 0.277887 14.395 0.370726C13.6383 0.612109 13.0442 1.17379 12.6774 1.99077C11.9858 3.52262 11.4705 5.23551 11.1595 6.40065L11.1502 6.43314L11.1131 6.43778C7.66411 6.89734 6.05799 7.87679 6.05799 9.52469C6.05799 11.1401 7.85907 12.7741 10.8764 13.8974L10.9135 13.9114V14.3802C10.9135 14.8165 10.946 15.2622 11.0017 15.7078L11.011 15.7635L10.9553 15.7681C9.44662 15.9585 7.92871 16.2091 6.44328 16.5109C6.14619 16.5712 5.91409 16.7894 5.83053 17.0772C5.74698 17.365 5.83052 17.676 6.05334 17.8849C6.88425 18.6694 7.71517 19.4817 8.52287 20.2987L8.58322 20.3591L8.49967 20.3869C7.75231 20.6469 7.00959 20.9068 6.26223 21.1621C4.30796 21.8306 2.82717 23.5017 2.40011 25.5209L0.701162 33.5794C0.478348 34.6331 0.724378 35.7286 1.37425 36.5874L3.63024 39.5722V39.5257L5.05069 41.3593C4.86037 41.675 4.75824 42.0278 4.75824 42.3898C4.75824 43.5503 5.77484 44.4927 7.02817 44.4927H30.1266C31.38 44.4927 32.3965 43.5503 32.3965 42.3898C32.3965 42.0046 32.2805 41.6286 32.0623 41.299L33.7845 39.173V39.2379L35.7852 36.592C36.4258 35.7472 36.6718 34.647 36.449 33.5933ZM7.02352 41.8096H30.122C30.4887 41.8096 30.7858 42.0742 30.7858 42.4038C30.7858 42.7287 30.4887 42.9979 30.122 42.9979H7.02352C6.65681 42.9979 6.35972 42.7334 6.35972 42.4038C6.36437 42.0742 6.66145 41.8096 7.02352 41.8096ZM29.8713 40.301H7.27883C6.94925 40.301 6.68001 40.0689 6.66608 39.7764L6.06728 27.8744C6.05799 27.7259 6.11833 27.5866 6.22974 27.4752C6.34579 27.3638 6.50827 27.2988 6.68002 27.2988H30.4701C30.6419 27.2988 30.8043 27.3591 30.9204 27.4752C31.0318 27.582 31.0921 27.7259 31.0829 27.8744L30.484 39.7764C30.4701 40.0689 30.1962 40.301 29.8713 40.301ZM4.4565 27.944L4.99498 38.6066L3.53275 36.7963L2.6508 35.6311C2.28408 35.1437 2.14482 34.5217 2.27015 33.9229L3.9691 25.8644C4.28011 24.3976 5.3524 23.1814 6.77749 22.694C7.79408 22.3458 8.79211 22.0023 9.77621 21.6542L9.80871 21.6449L9.83191 21.6681C10.3843 22.2483 10.8903 22.7961 11.3777 23.3392C11.517 23.4924 11.7166 23.5852 11.9347 23.5991C12.1576 23.6084 12.3618 23.5342 12.515 23.3995C12.8446 23.1025 12.8724 22.5918 12.5753 22.2623C11.2245 20.7629 9.84584 19.3285 8.35577 17.8802L8.28151 17.806L8.38826 17.7874C9.35379 17.6203 10.3379 17.4717 11.3127 17.3464L11.3591 17.3418L11.373 17.3835C12.0786 19.6442 13.5733 21.6588 15.5787 23.0607L16.4932 23.7013C17.7001 24.5415 19.4501 24.5415 20.657 23.7013L21.5714 23.0607C23.5814 21.6588 25.0715 19.6395 25.7771 17.3835L25.791 17.3418L25.8374 17.3464C26.8122 17.4671 27.7964 17.6156 28.7619 17.7874L28.864 17.806L28.7897 17.8802C27.3043 19.3285 25.921 20.7629 24.5702 22.2623C24.4263 22.4201 24.352 22.629 24.3659 22.8425C24.3752 23.056 24.4727 23.2556 24.6305 23.3995C24.7883 23.5434 24.9972 23.6177 25.2108 23.6038C25.4243 23.5945 25.6239 23.497 25.7678 23.3392C26.2599 22.7914 26.7658 22.2437 27.3136 21.6681L27.3368 21.6449L27.3693 21.6542C28.3534 21.9977 29.3514 22.3458 30.368 22.694C31.7931 23.1814 32.8654 24.3976 33.1764 25.8644L34.8753 33.9229C35.0007 34.5217 34.8614 35.1437 34.4947 35.6311L33.8263 36.5178L32.1644 38.4256L32.6936 27.944C32.7215 27.3731 32.5033 26.83 32.0762 26.4215C31.6538 26.013 31.0829 25.7902 30.4748 25.7902H6.68467C6.07657 25.7902 5.5056 26.013 5.08318 26.4215C4.64684 26.8346 4.42865 27.3731 4.4565 27.944ZM24.6305 14.5102C24.5934 17.3325 23.1033 20.0388 20.6523 21.7516L19.7379 22.3922C19.1019 22.8379 18.0575 22.8379 17.4215 22.3922L16.5071 21.7516C14.0561 20.0388 12.566 17.3278 12.5289 14.5102V14.4405L12.5985 14.4591C16.3492 15.4618 20.8241 15.4618 24.5702 14.4591L24.6398 14.4405L24.6305 14.5102ZM10.7278 8.21101C10.6071 8.80054 10.5375 9.25546 10.5375 9.45506C10.5375 9.90069 10.8996 10.2628 11.3406 10.2628C11.7862 10.2628 12.1436 9.90533 12.1436 9.46435C12.1575 8.93052 12.9374 5.30514 14.135 2.66386C14.3161 2.26001 14.5621 2.01398 14.8824 1.91186C15.4765 1.72154 16.3864 1.95364 17.4448 2.56174C18.1364 2.96095 19.0184 2.94702 19.6961 2.53388C20.7452 1.89329 21.6457 1.63798 22.226 1.81438C22.5277 1.90722 22.7598 2.13932 22.9362 2.5246C24.222 5.32835 24.9787 9.02336 24.988 9.44578C24.988 9.89141 25.35 10.2581 25.791 10.2581C26.2366 10.2581 26.5941 9.89605 26.5941 9.45506C26.5941 9.25546 26.5244 8.79126 26.4038 8.21101L26.3898 8.1321L26.7008 8.18316C28.4601 8.49882 29.4721 8.99551 29.4721 9.53398C29.4721 11.1355 24.7883 13.6096 18.5635 13.6096C12.3386 13.6096 7.65482 11.1355 7.65482 9.53398C7.65482 8.99551 8.66214 8.49882 10.4214 8.18316L10.7371 8.1321L10.7278 8.21101Z" fill="white"/>
</svg>
