<svg width="58" height="56" viewBox="0 0 58 56" fill="none" xmlns="http://www.w3.org/2000/svg">
<path d="M8.302 26.3073V54.6125H25.0187V46.9534H33.264V54.6125H49.9242V28.1388" stroke="#4377EE" stroke-width="2.5" stroke-miterlimit="10" stroke-linecap="round" stroke-linejoin="round"/>
<path d="M1.41187 24.4202L29.1412 1.38751L56.5881 24.4202" stroke="#4377EE" stroke-width="2.5" stroke-miterlimit="10" stroke-linecap="round" stroke-linejoin="round"/>
<path d="M44.6155 6.04956H49.9241V11.3776" stroke="#4377EE" stroke-width="2.5" stroke-miterlimit="10" stroke-linecap="round" stroke-linejoin="round"/>
<path d="M35.9748 26.1962C35.9748 22.4777 32.9251 19.4252 29.0848 19.4252C25.2445 19.4252 22.1948 22.4222 22.1948 26.1962C22.1948 28.5273 23.4373 30.6363 25.301 31.8573V38.1288C25.301 39.2388 26.2046 40.1824 27.3905 40.1824H30.9485C32.078 40.1824 33.0381 39.2943 33.0381 38.1288V31.7463C34.8453 30.5253 35.9748 28.4718 35.9748 26.1962Z" stroke="#4377EE" stroke-width="2.5" stroke-miterlimit="10"/>
</svg>
