<svg width="72" height="51" viewBox="0 0 72 51" fill="none" xmlns="http://www.w3.org/2000/svg">
<path d="M33.9634 23.3396C30.16 23.3396 27.0898 20.2562 27.0898 16.4366C27.0898 12.617 30.16 9.53363 33.9634 9.53363C37.7668 9.53363 40.837 12.617 40.837 16.4366C40.837 20.2102 37.7668 23.3396 33.9634 23.3396ZM33.9634 11.0983C31.0307 11.0983 28.6479 13.4913 28.6479 16.4366C28.6479 19.3819 31.0307 21.7749 33.9634 21.7749C36.8962 21.7749 39.279 19.3819 39.279 16.4366C39.279 13.4913 36.8962 11.0983 33.9634 11.0983Z" fill="#4377EE"/>
<path d="M33.322 19.3359L30.4351 16.4367L31.5807 15.3322L33.322 17.081L36.3464 14.0897L37.492 15.1941L33.322 19.3359Z" fill="#4377EE"/>
<path d="M46.061 0.835968C45.8319 0.69791 45.557 0.65189 45.282 0.743929L33.7802 5.43793L22.2784 0.743929C22.0035 0.65189 21.7285 0.69791 21.4994 0.835968C21.2703 0.974027 21.1328 1.25014 21.1328 1.52626V25.4564C21.1328 25.7786 21.3161 26.1007 21.6369 26.2388L33.4594 31.0708C33.5511 31.1169 33.6427 31.1169 33.7802 31.1169C33.8719 31.1169 34.0093 31.1169 34.101 31.0708L45.9235 26.2388C46.2443 26.1007 46.4276 25.8246 46.4276 25.4564V1.52626C46.3818 1.25014 46.2901 0.974027 46.061 0.835968ZM44.7779 2.76879V24.9042L33.7802 29.4141L22.7825 24.9042V2.76879L33.4594 7.09463C33.6427 7.18667 33.8719 7.18667 34.101 7.09463L44.7779 2.76879Z" fill="#4377EE"/>
<path d="M62.9699 12.0649C62.9699 9.99399 61.2744 8.29126 59.2124 8.29126H48.5354V10.132H59.2124C60.2663 10.132 61.137 11.0064 61.137 12.0649V19.474H62.9699V12.0649Z" fill="#4377EE"/>
<path d="M67.6898 19.4739H62.9699H61.137H56.4629C54.355 19.4739 52.6595 21.1766 52.6595 23.2935V43.9563H41.2036L40.2871 44.6466H27.3648L26.4483 43.9563H7.523V12.0648C7.523 11.0063 8.39365 10.1319 9.44761 10.1319H18.6124V8.29117H9.44761C7.38553 8.29117 5.69004 9.99389 5.69004 12.0648V43.9563H0.649414V47.2237C0.649414 49.0645 2.11578 50.5371 3.94874 50.5371H56.4629C56.1422 50.5371 55.7756 50.4911 55.4548 50.399C55.7756 50.4911 56.0963 50.5371 56.4629 50.5371H64.9862H67.644C69.7519 50.5371 71.4473 48.8344 71.4473 46.7175V23.2935C71.4932 21.1766 69.7519 19.4739 67.6898 19.4739ZM3.94874 48.6503C3.1239 48.6503 2.48237 48.006 2.48237 47.1777V45.7971H25.8526L26.769 46.4874H40.8828L41.7993 45.7971H52.6595V46.7175C52.6595 47.4538 52.8428 48.0981 53.2094 48.6963H3.94874V48.6503ZM69.6602 46.7175C69.6602 47.8219 68.7896 48.6963 67.6898 48.6963H65.032H56.5088C55.409 48.6963 54.5383 47.8219 54.5383 46.7175V23.2935C54.5383 22.1891 55.409 21.3147 56.5088 21.3147H67.7356C68.8354 21.3147 69.706 22.1891 69.706 23.2935V46.7175H69.6602Z" fill="#4377EE"/>
<path d="M63.8866 22.0051H60.2207V22.9255H63.8866V22.0051Z" fill="#4377EE"/>
<path d="M63.1991 45.0149L63.1074 44.9228C62.4201 44.4166 61.5494 44.4166 60.9995 44.9688C60.4496 45.5211 60.4038 46.3955 60.9537 47.0858L61.0453 47.1778C61.3661 47.4079 61.7327 47.546 62.0993 47.546C62.5117 47.546 62.8783 47.4079 63.1532 47.0858C63.7031 46.5335 63.7031 45.6591 63.1991 45.0149ZM62.4659 46.4415C62.2826 46.6256 61.9618 46.7176 61.5952 46.4415C61.3661 46.0733 61.4578 45.7512 61.5952 45.5671C61.7785 45.383 62.0993 45.291 62.4659 45.5671C62.7408 45.9813 62.6492 46.3034 62.4659 46.4415Z" fill="#4377EE"/>
</svg>
