<svg width="57" height="54" viewBox="0 0 57 54" fill="none" xmlns="http://www.w3.org/2000/svg">
<path d="M25.9767 18.0268H36.1924C36.4501 19.5877 36.6104 21.2105 36.6848 22.85L36.6906 23.0016L38.6604 23.7877L38.6489 23.4284C38.5974 21.6091 38.4256 19.7955 38.145 18.0324H46.9119C47.6047 20.1942 47.9541 22.4401 47.9541 24.7085V25.0567L49.8323 24.3099L49.8895 24.2874L49.8838 24.1246C49.7235 17.7404 47.0608 11.7606 42.3882 7.27987C37.7098 2.79356 31.5312 0.322998 25.0033 0.322998C11.2775 0.322998 0.111328 11.2721 0.111328 24.731C0.111328 38.1899 11.2775 49.1446 25.0033 49.1446C26.4119 49.1446 27.832 49.0267 29.2235 48.7909L29.424 48.7572L29.4182 47.8757L29.235 46.8537L29.0002 46.8931C28.021 47.0615 27.0017 47.1682 25.971 47.2075V33.3387H29.424V31.4296H25.971V18.0268H25.9767ZM25.9767 16.1177V2.31068C30.2943 3.00693 34.1481 8.40285 35.8259 16.1177H25.9767ZM31.348 3.108C38.0019 4.98899 43.5334 9.82343 46.2018 16.1177H37.7957C36.6218 10.5814 34.2855 5.87053 31.348 3.108ZM24.0298 33.3443V47.1513C19.7123 46.4551 15.8585 41.0592 14.1807 33.3443H24.0298ZM12.2166 33.3443C13.3848 38.8806 15.7268 43.5971 18.6643 46.354C12.0047 44.473 6.47892 39.6386 3.81049 33.3443H12.2166ZM24.0298 18.0268V31.4408H13.8142C13.4592 29.2678 13.2759 27.0107 13.2759 24.7366C13.2759 22.4626 13.4535 20.2054 13.8142 18.0324H24.0298V18.0268ZM3.81049 16.1177C6.47892 9.82343 12.0104 4.98899 18.6643 3.108C15.7268 5.87053 13.3848 10.5814 12.2166 16.1177H3.81049ZM14.1807 16.1177C15.8585 8.40285 19.7123 3.00131 24.0298 2.31068V16.1177H14.1807ZM11.8616 31.4352H3.09471C2.40184 29.2622 2.05253 27.0107 2.05253 24.731C2.05253 22.4514 2.40184 20.1942 3.09471 18.0268H11.8616C11.5123 20.211 11.3347 22.4626 11.3347 24.731C11.3405 26.9994 11.5123 29.2566 11.8616 31.4352Z" fill="#4377EE"/>
<path d="M56.5433 25.6977C56.2627 25.5124 55.9134 25.4787 55.5984 25.6022L44.9018 29.8527L34.2052 25.6022C33.896 25.4787 33.541 25.5124 33.2604 25.6977C32.9798 25.883 32.8137 26.1862 32.8137 26.5175V48.4381C32.8137 48.8424 33.06 49.2017 33.4436 49.3533L44.5239 53.7835C44.6441 53.834 44.7758 53.8565 44.9018 53.8565C45.0278 53.8565 45.1595 53.834 45.2855 53.7835L56.3657 49.3533C56.7494 49.2017 56.9956 48.8424 56.9956 48.4381V26.5175C56.9899 26.1862 56.8238 25.8774 56.5433 25.6977ZM54.9685 27.983V47.7699L44.9018 51.7958L34.8351 47.7699V27.983L44.5239 31.8348C44.7701 31.9302 45.0335 31.9302 45.2798 31.8348L54.9685 27.983Z" fill="#4377EE"/>
<path d="M40.5562 40.5434L39.1418 41.9527L42.5604 45.2543C42.7494 45.434 43.0071 45.5407 43.2705 45.5407C43.2934 45.5407 43.3106 45.5407 43.3335 45.5407C43.6198 45.5238 43.8832 45.389 44.0607 45.1701L50.6173 37.0677L50.6688 37.0004L49.0883 35.7707L43.1731 43.0757L40.5562 40.5434Z" fill="#4377EE"/>
</svg>
