<svg width="66" height="59" viewBox="0 0 66 59" fill="none" xmlns="http://www.w3.org/2000/svg">
<path d="M49.4099 17.5679L52.5502 20.7083L54.0112 19.2474L51.158 16.388L55.0475 14.4463L54.1235 12.5921L50.4463 14.4338V9.60153H48.3735V14.4338L44.6962 12.5921L43.7722 14.4463L47.6618 16.388L44.8086 19.2474L46.2695 20.7083L49.4099 17.5679Z" fill="#4377EE"/>
<path d="M21.3965 12.5924L17.7192 14.4341V9.60187H15.6465V14.4341L11.9692 12.5924L11.0452 14.4466L14.9347 16.3883L12.0815 19.2477L13.5425 20.7087L16.6828 17.5683L19.8232 20.7087L21.2841 19.2477L18.431 16.3883L22.3205 14.4466L21.3965 12.5924Z" fill="#4377EE"/>
<path d="M37.7607 12.5924L34.0835 14.4341V9.60187H32.0107V14.4341L28.3334 12.5924L27.4094 14.4466L31.299 16.3883L28.4458 19.2477L29.9067 20.7087L33.0471 17.5683L36.1874 20.7087L37.6484 19.2477L34.7952 16.3883L38.6848 14.4466L37.7607 12.5924Z" fill="#4377EE"/>
<path d="M61.6835 0.0742188H4.4141C2.34134 0.0742188 0.649414 1.75991 0.649414 3.83267V29.7422C0.649414 31.815 2.33509 33.5069 4.4141 33.5069H12.8675V31.4404H4.4141C3.47761 31.4404 2.72218 30.6787 2.72218 29.7485V3.83892C2.72218 2.90243 3.48385 2.14699 4.4141 2.14699H61.6835C62.62 2.14699 63.3755 2.90868 63.3755 3.83892V29.7485C63.3755 30.6849 62.6138 31.4404 61.6835 31.4404H52.9555V33.5069H61.6835C63.7563 33.5069 65.4482 31.8212 65.4482 29.7422V3.83267C65.442 1.75991 63.7563 0.0742188 61.6835 0.0742188Z" fill="#4377EE"/>
<path d="M26.7591 43.1345L25.3044 44.6079L29.9807 49.2154C30.1929 49.4214 30.4676 49.5276 30.7735 49.5088C31.067 49.4901 31.3354 49.3465 31.5165 49.1217L40.8939 37.3032L39.2706 36.0171L30.605 46.9304L26.7591 43.1345Z" fill="#4377EE"/>
<path d="M47.4743 23.887C47.1684 23.6935 46.7938 23.6748 46.4754 23.8308L33.0461 30.2676L19.6169 23.8371C19.4733 23.7684 19.3234 23.7372 19.1673 23.7372C18.9738 23.7372 18.7865 23.7934 18.6179 23.8995C18.312 24.0931 18.1372 24.4177 18.1372 24.7735V51.1826C18.1372 51.5759 18.3682 51.9442 18.7241 52.1128L32.5966 58.7993C32.8713 58.9304 33.2209 58.9304 33.4956 58.7993L47.3682 52.1128C47.724 51.9442 47.955 51.5759 47.955 51.1826V24.7735C47.955 24.4052 47.774 24.0806 47.4743 23.887ZM45.8885 50.527L33.0461 56.7141L32.9088 56.6516L20.2037 50.527V26.4093L32.5966 32.3466C32.8838 32.484 33.2084 32.484 33.4894 32.3466L45.8823 26.4093V50.527H45.8885Z" fill="#4377EE"/>
</svg>
