<svg width="48" height="56" viewBox="0 0 48 56" fill="none" xmlns="http://www.w3.org/2000/svg">
<path d="M46.3744 1.24734C45.9649 1.00839 45.3915 0.928735 44.9819 1.08803L23.7675 9.45126L2.5531 1.08803C2.06164 0.928735 1.57019 0.928736 1.16064 1.24734C0.751099 1.48628 0.505371 1.96418 0.505371 2.44208V45.214C0.505371 45.8512 0.914917 46.3291 1.48828 46.5681L23.2761 55.1702C23.4399 55.2499 23.6856 55.2499 23.8494 55.2499C24.0132 55.2499 24.259 55.2499 24.4228 55.1702L46.2106 46.5681C46.7839 46.3291 47.1935 45.7716 47.1935 45.214V2.44208C47.0297 1.96418 46.7839 1.48628 46.3744 1.24734ZM43.999 4.67228V44.2582L23.7675 52.3029L3.45409 44.1786V4.67228L23.1122 12.3983C23.5218 12.5576 23.8494 12.5576 24.259 12.3983L43.999 4.67228Z" fill="#888888"/>
<path d="M23.7674 42.824C16.068 42.824 9.76099 36.6909 9.76099 29.2039C9.76099 21.7168 16.068 15.5837 23.7674 15.5837C31.4669 15.5837 37.7739 21.7168 37.7739 29.2039C37.6919 36.7706 31.4669 42.824 23.7674 42.824ZM23.7674 18.7697C17.7881 18.7697 12.9554 23.4691 12.9554 29.2835C12.9554 35.0979 17.7881 39.7973 23.7674 39.7973C29.7468 39.7973 34.5794 35.0979 34.5794 29.2835C34.4975 23.4691 29.6649 18.7697 23.7674 18.7697Z" fill="#888888"/>
<path d="M22.4569 34.9389L16.6414 29.2838L18.8529 27.0536L22.4569 30.5582L28.6001 24.5845L30.8935 26.8147L22.4569 34.9389Z" fill="#888888"/>
</svg>
