<svg xmlns="http://www.w3.org/2000/svg" viewBox="0 0 41.75 47.81"><defs><style>.cls-1{fill:#4a81fd;}</style></defs><title>V-Shield_X-48px</title><g id="Layer_2" data-name="Layer 2"><g id="Isolation_Mode" data-name="Isolation Mode"><path class="cls-1" d="M40.45,6.58c-6.86.59-12.31-2-18.86-6.35l-.06,0A1.07,1.07,0,0,0,20.88,0a1.38,1.38,0,0,0-.66.19l-.06,0C13.62,4.59,8.16,7.17,1.3,6.58a1.22,1.22,0,0,0-.91.31A1.2,1.2,0,0,0,0,7.78C0,37.72,20.16,47.6,20.31,47.67a1.19,1.19,0,0,0,.56.14,1.25,1.25,0,0,0,.6-.16C22.57,47.1,41.75,37,41.75,7.78a1.2,1.2,0,0,0-1.3-1.2ZM20.88,45.25c-3-1.68-18-11.37-18.47-36.2,6.75.23,12.33-2.4,18.47-6.42,6.14,4,11.75,6.64,18.46,6.42C38.84,33.92,23.76,43.62,20.88,45.25Z"/><path class="cls-1" d="M27.73,14.06a1.2,1.2,0,0,0-1.7,0l-5.15,5.15-5.15-5.15a1.2,1.2,0,0,0-1.7,0,1.19,1.19,0,0,0,0,1.69l5.15,5.15L14,26.06a1.19,1.19,0,0,0,0,1.69,1.16,1.16,0,0,0,.85.35,1.2,1.2,0,0,0,.85-.35l5.15-5.15L26,27.75a1.16,1.16,0,0,0,.85.35,1.2,1.2,0,0,0,.85-2L22.57,20.9l5.16-5.15A1.21,1.21,0,0,0,27.73,14.06Z"/></g></g></svg>