<svg width="60" height="68" viewBox="0 0 60 68" fill="none" xmlns="http://www.w3.org/2000/svg">
<path d="M45.0112 28.1917C47.3248 28.6043 49.5023 27.2288 49.9105 25.1654C50.3188 23.102 48.9579 21.0387 46.6443 20.626L44.739 20.2133" stroke="#4377EE" stroke-width="1.7" stroke-miterlimit="10"/>
<path d="M14.5265 28.1917C12.2129 28.6044 10.0354 27.2288 9.62715 25.1654C9.21887 23.102 10.5798 21.0386 12.8934 20.6259L14.7987 20.3508" stroke="#4377EE" stroke-width="1.7" stroke-miterlimit="10"/>
<path d="M44.4669 22.9645C44.4669 35.895 37.9344 46.3494 29.7688 46.3494C21.6033 46.3494 15.0708 35.895 15.0708 22.9645C15.0708 10.034 21.6033 6.45749 29.7688 6.45749C37.9344 6.45749 44.4669 10.034 44.4669 22.9645Z" stroke="#4377EE" stroke-width="1.7" stroke-miterlimit="10"/>
<path d="M48.8217 27.0912C48.8217 32.5935 40.3839 38.6461 32.0823 39.3339" stroke="#4377EE" stroke-width="1.7" stroke-miterlimit="10"/>
<path d="M29.9052 42.2227C31.4085 42.2227 32.6271 40.9909 32.6271 39.4715C32.6271 37.952 31.4085 36.7203 29.9052 36.7203C28.402 36.7203 27.1833 37.952 27.1833 39.4715C27.1833 40.9909 28.402 42.2227 29.9052 42.2227Z" stroke="#4377EE" stroke-width="1.7" stroke-miterlimit="10"/>
<path d="M25.2778 16.0866C25.2778 16.0866 32.6268 22.6895 44.3308 22.1392" stroke="#4377EE" stroke-width="1.7" stroke-miterlimit="10" stroke-linecap="round" stroke-linejoin="round"/>
<path d="M29.3606 18.7001C29.3606 18.7001 23.9168 22.6894 15.0708 22.1392" stroke="#4377EE" stroke-width="1.7" stroke-miterlimit="10" stroke-linecap="round" stroke-linejoin="round"/>
<path d="M10.5798 21.5889C10.5798 8.65837 19.1537 0.955078 29.6328 0.955078C40.2481 0.955078 48.6859 8.65837 48.6859 21.5889" stroke="#4377EE" stroke-width="1.7" stroke-miterlimit="10"/>
<path d="M24.4612 50.4762V44.9738" stroke="#4377EE" stroke-width="1.7" stroke-miterlimit="10"/>
<path d="M35.3486 44.9738V50.4762" stroke="#4377EE" stroke-width="1.7" stroke-miterlimit="10"/>
<path d="M24.0531 48.0001C24.0531 48.0001 24.0531 53.2274 29.4968 54.603L24.0531 62.8565H21.3312C21.3312 62.8565 15.8875 55.1532 24.0531 48.0001Z" stroke="#4377EE" stroke-width="1.7" stroke-miterlimit="10"/>
<path d="M35.7572 48.0001C35.7572 48.0001 35.7572 53.2274 30.3135 54.603L35.7572 62.8565H38.479C38.479 62.8565 43.9227 55.1532 35.7572 48.0001Z" stroke="#4377EE" stroke-width="1.7" stroke-miterlimit="10"/>
<path d="M20.2424 52.9521L5.13604 58.592C2.82246 59.5549 1.32544 61.7558 1.32544 64.2318V67.7721" stroke="#4377EE" stroke-width="1.7" stroke-miterlimit="10"/>
<path d="M39.4316 52.9521L54.5379 58.7295C56.8515 59.5549 58.3485 61.7558 58.3485 64.3694V67.8475" stroke="#4377EE" stroke-width="1.7" stroke-miterlimit="10"/>
</svg>
