<svg width="63" height="61" viewBox="0 0 63 61" fill="none" xmlns="http://www.w3.org/2000/svg">
<path d="M56.6326 9.91145L50.5164 13.5366L49.8346 12.8103C48.9682 11.8801 48.2546 11.2239 47.5219 10.676C46.7574 10.1026 45.9164 9.64386 45.0435 9.18514L44.1771 8.72641L45.9674 1.78188C45.9674 1.74365 46.012 1.06831 45.0053 0.800726C44.0051 0.533139 43.7311 1.16388 43.6992 1.24033L41.9981 7.85357L40.8195 7.57961C34.5694 6.12699 27.9562 8.18487 23.5537 12.9441L22.4643 14.1291L20.2407 10.4084L21.4194 3.69959C21.4194 3.69959 21.5341 3.41289 21.4003 3.1453C21.2856 2.90957 21.0116 2.73755 20.5975 2.62287C19.438 2.31068 19.1322 3.28547 19.1003 3.39378L17.8006 10.8289L20.8205 16.238L17.5585 20.6468L10.2126 15.1358C10.1552 15.1039 9.37158 14.6834 8.61979 15.6136C8.18655 16.3718 8.7727 16.9579 8.84278 17.028L16.1441 22.5072L14.9208 24.1382C14.7361 24.3803 14.5895 24.6479 14.4366 24.9282L14.3602 25.062C14.2646 25.2276 14.169 25.3933 14.0671 25.5589L13.8951 25.8393L7.68961 24.2847L0.891599 27.6296C0.827887 27.6742 -0.0131002 28.2667 0.445621 29.0503C0.910714 29.9805 1.93009 29.7129 1.97469 29.7002L7.96994 26.7503L12.7546 27.9927L12.3533 29.1969C9.86215 36.6065 12.3405 44.7042 18.5205 49.336C24.605 53.8977 32.9766 54.0825 39.3478 49.7884L40.4563 49.0429L42.5461 52.6936L41.3865 59.3259C41.3801 59.4024 41.3101 60.1669 42.3486 60.4473C43.3616 60.7212 43.661 59.8038 43.6929 59.6955L44.999 52.2667L42.2148 47.4056L42.7945 46.7366C42.9411 46.5709 43.094 46.4117 43.2469 46.2588C43.4444 46.0549 43.6037 45.902 43.7247 45.7299L44.948 44.0989L51.6886 49.1576C51.7842 49.2341 52.5742 49.8138 53.2177 49.0429C53.8803 48.2338 53.0776 47.2909 53.0393 47.2527L46.3433 42.2386L49.8665 37.543L55.0908 38.7982L61.8888 35.4533C61.927 35.4406 62.6534 35.1666 62.8445 34.6442C62.9337 34.4021 62.8891 34.1409 62.7171 33.8414C62.0863 32.7392 60.9905 33.2871 60.8695 33.3508L54.8169 36.3262L51.3764 35.4915L52.2111 34.0517C55.3393 28.6553 55.4412 21.9147 52.485 16.461L51.9116 15.4097L57.8304 11.8992C57.8304 11.8992 58.219 11.6444 58.3082 11.2366C58.3592 10.9818 58.2891 10.7078 58.098 10.4148C57.4736 9.50369 56.7218 9.86685 56.6326 9.91145ZM17.756 45.4687C12.6973 39.9195 12.2895 31.5351 16.7939 25.5335L24.1908 15.6709C24.4648 15.3014 24.777 14.9829 25.0955 14.6579L26.1722 13.5239L37.3026 21.8701L18.769 46.5709L17.756 45.4687ZM50.0194 33.2425C49.7837 33.6694 49.5479 34.0835 49.2549 34.4785L41.858 44.341C41.807 44.4111 41.7497 44.4812 41.6987 44.5513C37.8888 49.4507 31.3138 51.6424 25.2484 50.005C24.0889 49.6928 22.9612 49.2404 21.8972 48.667L20.6294 47.979L39.163 23.2781L50.7393 31.9619L50.0194 33.2425ZM52.09 27.7952L51.7396 29.7894L27.9944 11.9821L29.8102 11.0901C35.1619 8.45883 41.412 9.01312 46.1203 12.5491C50.8349 16.0723 53.1158 21.921 52.09 27.7952Z" fill="#4377EE"/>
</svg>
