<svg width="44" height="43" viewBox="0 0 44 43" fill="none" xmlns="http://www.w3.org/2000/svg">
<path d="M39.4 7.04384L35.1347 9.57195L34.6593 9.06544C34.055 8.41675 33.5574 7.95911 33.0465 7.57701C32.5133 7.17713 31.9268 6.85723 31.3181 6.53733L30.7138 6.21743L31.9623 1.37449C31.9623 1.34783 31.9934 0.876864 31.2914 0.690255C30.5939 0.503646 30.4028 0.94351 30.3806 0.996827L29.1943 5.60873L28.3724 5.41768C24.0137 4.40466 19.4018 5.83977 16.3316 9.15874L15.5719 9.98515L14.0212 7.3904L14.8432 2.71185C14.8432 2.71185 14.9232 2.51191 14.8299 2.3253C14.7499 2.16091 14.5588 2.04095 14.27 1.96097C13.4614 1.74326 13.2482 2.42305 13.2259 2.49858L12.3195 7.68364L14.4256 11.4558L12.1507 14.5304L7.02785 10.6872C6.98787 10.6649 6.44137 10.3717 5.91709 11.0204C5.61496 11.5491 6.02372 11.9579 6.0726 12.0067L11.1643 15.8278L10.3113 16.9652C10.1824 17.134 10.0802 17.3207 9.97361 17.5161L9.92029 17.6095C9.85365 17.725 9.78699 17.8405 9.7159 17.956L9.59595 18.1515L5.2684 17.0674L0.527644 19.4C0.483214 19.4311 -0.10327 19.8443 0.216631 20.3908C0.540975 21.0395 1.25186 20.8529 1.28296 20.844L5.4639 18.7869L8.80063 19.6533L8.52072 20.493C6.78348 25.6603 8.51184 31.3074 12.8216 34.5375C17.0647 37.7188 22.9029 37.8476 27.346 34.853L28.1191 34.3332L29.5764 36.879L28.7678 41.5043C28.7633 41.5576 28.7145 42.0908 29.4387 42.2862C30.1451 42.4773 30.354 41.8375 30.3762 41.762L31.287 36.5814L29.3454 33.1913L29.7497 32.7248C29.8519 32.6092 29.9585 32.4982 30.0652 32.3915C30.2029 32.2494 30.314 32.1427 30.3984 32.0228L31.2515 30.8853L35.9522 34.4131C36.0189 34.4665 36.5698 34.8708 37.0186 34.3332C37.4806 33.7689 36.9208 33.1113 36.8941 33.0847L32.2245 29.588L34.6815 26.3134L38.3248 27.1887L43.0656 24.8561C43.0922 24.8472 43.5987 24.6562 43.732 24.2918C43.7942 24.123 43.7631 23.9408 43.6432 23.732C43.2033 22.9634 42.4391 23.3455 42.3547 23.3899L38.1338 25.4648L35.7345 24.8828L36.3165 23.8786C38.4981 20.1153 38.5692 15.4146 36.5076 11.6113L36.1077 10.8782L40.2353 8.43008C40.2353 8.43008 40.5064 8.25236 40.5686 7.968C40.6041 7.79028 40.5552 7.59922 40.4219 7.39484C39.9865 6.75948 39.4622 7.01274 39.4 7.04384ZM12.2884 31.8406C8.76065 27.9707 8.47629 22.1236 11.6175 17.9382L16.7759 11.0604C16.967 10.8027 17.1847 10.5805 17.4069 10.3539L18.1577 9.56306L25.9198 15.3835L12.9949 32.6092L12.2884 31.8406ZM34.7881 23.3144C34.6237 23.612 34.4594 23.9008 34.255 24.1763L29.0966 31.0542C29.061 31.103 29.021 31.1519 28.9855 31.2008C26.3285 34.6175 21.7433 36.1459 17.5135 35.0041C16.7049 34.7864 15.9184 34.4709 15.1764 34.071L14.2923 33.5912L27.2171 16.3654L35.2902 22.4213L34.7881 23.3144ZM36.2321 19.5155L35.9878 20.9062L19.4285 8.48784L20.6947 7.86581C24.4269 6.03082 28.7855 6.41737 32.069 8.88327C35.3568 11.3403 36.9475 15.419 36.2321 19.5155Z" fill="white"/>
</svg>
