<svg width="62" height="47" viewBox="0 0 62 47" fill="none" xmlns="http://www.w3.org/2000/svg">
<path d="M33.5741 9.50151L33.211 4.78113H34.1484L33.7735 9.50151H33.5741Z" fill="#53565A" stroke="#53565A" stroke-width="1.5"/>
<path d="M33.3086 13.2338V12.2456H34.0386V13.2338H33.3086Z" fill="#53565A" stroke="#53565A" stroke-width="1.5"/>
<path d="M33.6659 20.8261V34.3399C33.6659 35.0272 33.1092 35.584 32.4218 35.584H28.0675L26.4596 38.3831C26.3352 38.5666 26.0646 38.5666 25.9433 38.3831L24.3353 35.584H13.7607C13.0733 35.584 12.5166 35.0272 12.5166 34.3399V20.8261C12.5166 20.1388 13.0733 19.582 13.7607 19.582H32.4218C33.1092 19.582 33.6659 20.1388 33.6659 20.8261Z" stroke="#53565A" stroke-width="1.5" stroke-miterlimit="10" stroke-linecap="round"/>
<path d="M44.2403 2.16497V15.6787C44.2403 16.3661 43.6836 16.9228 42.9963 16.9228H38.642L37.034 19.722C36.9096 19.9055 36.639 19.9055 36.5177 19.722L34.9098 16.9228H24.3351C23.6478 16.9228 23.0911 16.3661 23.0911 15.6787V2.16497C23.0911 1.47762 23.6478 0.920898 24.3351 0.920898H42.9963C43.6836 0.920898 44.2403 1.47762 44.2403 2.16497Z" stroke="#53565A" stroke-width="1.5" stroke-miterlimit="10" stroke-linecap="round"/>
<path d="M22.6899 24.3873H23.4923C24.0024 24.3873 24.4596 24.6983 24.6462 25.168L25.797 29.2921C26.2884 30.5175 25.3833 31.8518 24.0646 31.8518H22.1114C20.7927 31.8518 19.8876 30.5175 20.379 29.2921L21.536 25.168C21.7226 24.6952 22.1829 24.3873 22.6899 24.3873Z" stroke="#53565A" stroke-width="1.5" stroke-miterlimit="10"/>
<path d="M21.2252 25.6314L18.115 24.3873V21.8992" stroke="#53565A" stroke-width="1.5" stroke-miterlimit="10" stroke-linecap="round" stroke-linejoin="round"/>
<path d="M24.9573 25.8024L28.0675 24.5583V22.0702" stroke="#53565A" stroke-width="1.5" stroke-miterlimit="10" stroke-linecap="round" stroke-linejoin="round"/>
<path d="M20.2921 29.3636L18.115 30.6077V33.0959" stroke="#53565A" stroke-width="1.5" stroke-miterlimit="10" stroke-linecap="round" stroke-linejoin="round"/>
<path d="M25.8904 29.5347L28.0675 30.7787V33.2669" stroke="#53565A" stroke-width="1.5" stroke-miterlimit="10" stroke-linecap="round" stroke-linejoin="round"/>
<path d="M20.9141 28.1195H25.2683" stroke="#53565A" stroke-width="1.5" stroke-miterlimit="10" stroke-linecap="round" stroke-linejoin="round"/>
<path d="M46.5557 10.1271H52.2501C54.4954 10.1271 56.3176 11.9493 56.3176 14.1946V40.5559" stroke="#53565A" stroke-width="1.5" stroke-miterlimit="10" stroke-linecap="round"/>
<path d="M21.1995 10.1271H10.1021C7.8569 10.1271 6.03467 11.9493 6.03467 14.1946V40.5559" stroke="#53565A" stroke-width="1.5" stroke-miterlimit="10" stroke-linecap="round"/>
<path d="M57.1312 45.9209C59.3765 45.9209 61.1987 44.0987 61.1987 41.8534V41.0399H37.6073L35.9803 42.6669H26.2184L24.5914 41.0399H1V41.8534C1 44.0987 2.82223 45.9209 5.06748 45.9209H57.1312Z" stroke="#53565A" stroke-width="1.5" stroke-miterlimit="10" stroke-linecap="round"/>
</svg>
