<svg width="63" height="62" viewBox="0 0 63 62" fill="none" xmlns="http://www.w3.org/2000/svg">
<path d="M30.3896 48.2138L20.9159 42.1828C20.3299 41.7352 20.2241 40.8969 20.6799 40.319L22.1286 38.4796C22.5844 37.9018 23.4308 37.796 24.0168 38.2436L28.4932 41.1085C29.1606 41.6212 30.1454 41.4015 30.528 40.6527L37.6413 27.484C37.975 26.8247 38.7889 26.5643 39.4482 26.8898L41.5562 27.9316C42.2235 28.2653 42.4921 29.0629 42.1584 29.714L32.4243 47.758C32.0418 48.5068 31.0651 48.7265 30.3896 48.2138Z" stroke="#1389A2" stroke-width="2" stroke-miterlimit="10"/>
<path d="M12.6387 40.5062C12.6387 47.1232 17.1965 52.2588 22.1612 55.8725C24.611 57.6549 27.0771 58.9897 28.9327 59.8931C29.8606 60.3407 31.3419 60.9756 31.4314 61C31.5128 60.9756 32.9859 60.3896 33.9138 59.9663C35.7613 59.128 38.2192 57.8502 40.6609 56.1166C45.6012 52.6169 50.1671 47.4813 50.1671 40.5062L50.1508 20.4601C50.0206 20.4438 45.8698 19.923 42.9235 19.1172C39.1715 18.0917 35.9892 17.0255 31.3907 15.0803C26.7922 17.0255 23.9355 18.108 19.9067 19.1172C16.6918 19.923 12.7526 20.4601 12.6305 20.4683V20.4845L12.6387 40.5062Z" stroke="#1389A2" stroke-width="2" stroke-linecap="round" stroke-linejoin="round"/>
<path d="M43.6071 19.0439C43.6071 18.9788 43.6153 14.1606 43.6153 14.0874C43.6153 6.86002 38.3657 1 30.9512 1C23.5366 1 17.5301 6.86002 17.5301 14.0874C17.5301 14.1525 17.5382 14.2176 17.5382 14.2908L17.5301 18.7916" stroke="#1389A2" stroke-width="2" stroke-linecap="round" stroke-linejoin="round"/>
<path d="M22.5111 17.3999L22.5193 13.7455C22.5193 13.7048 22.5111 13.6641 22.5111 13.6153C22.5111 9.05751 26.2957 5.37061 30.9756 5.37061C35.6555 5.37061 38.7238 8.65056 38.7238 13.2083V17.3999" stroke="#1389A2" stroke-width="2" stroke-linecap="round" stroke-linejoin="round"/>
<path d="M9.31796 44.8035H6.16818L6.24958 28.4443H9.66792" stroke="#1389A2" stroke-width="2" stroke-linecap="round" stroke-linejoin="round"/>
<path d="M6.11123 51.274H1L2.88008 44.7954L1 36.8112H6.11123V51.274Z" stroke="#1389A2" stroke-width="2" stroke-linecap="round" stroke-linejoin="round"/>
<path d="M53.4144 44.8035H56.5561L56.4747 28.4443H53.0563" stroke="#1389A2" stroke-width="2" stroke-linecap="round" stroke-linejoin="round"/>
<path d="M56.6132 51.274H61.7325L59.8525 44.7954L61.7325 36.8112H56.6132V51.274Z" stroke="#1389A2" stroke-width="2" stroke-linecap="round" stroke-linejoin="round"/>
</svg>
