<svg width="190" height="23" viewBox="0 0 190 23" fill="none" xmlns="http://www.w3.org/2000/svg">
<path d="M52.8281 14.4581L50.0568 12.8223L49.8588 13.1445C49.2402 14.1359 48.3742 14.6316 47.3102 14.6316C45.4792 14.6316 44.1183 13.2437 44.1183 11.4344C44.1183 9.60033 45.5039 8.23717 47.3102 8.23717C48.3989 8.23717 49.1907 8.70808 49.8588 9.72425L50.0568 10.0465L52.8281 8.41066L52.5807 8.06368C51.2445 6.13047 49.5372 5.21344 47.2855 5.21344C43.0543 5.21344 40.7778 8.43545 40.7778 11.4592C40.7778 14.4829 43.0543 17.7049 47.2855 17.7049C49.4382 17.7049 51.4672 16.6144 52.5807 14.8299L52.8281 14.4581Z" fill="white"/>
<path d="M52.6797 17.6555H56.4903L57.6285 14.83H63.3443L64.4825 17.6555H68.3178L61.4885 1.12408H58.0739L58.9894 3.32992L52.6797 17.6555ZM60.5235 7.64246L62.0576 11.5337H58.9399L60.5235 7.64246Z" fill="white"/>
<path d="M69.9015 17.6803H73.2419V10.2449H75.4194V7.12198H73.2419V5.65969C73.2419 5.01529 73.6625 4.3461 74.4543 4.3461C74.875 4.3461 75.1472 4.42045 75.3946 4.51959L75.7658 4.6683L77.1514 1.61978L76.7555 1.44629C76.1369 1.19844 75.2709 1.0993 74.6523 1.0993C73.1429 1.0993 71.881 1.595 71.0397 2.53682C70.2974 3.35471 69.8767 4.49481 69.8767 5.75883V7.0972H68.3921V10.2201H69.8767L69.9015 17.6803Z" fill="white"/>
<path d="M25.0161 1.02478V17.6553H28.6535V8.13799L32.1918 10.7652L35.7055 8.13799V17.6553H39.3428L39.3676 1.02478L32.1918 6.45263L25.0161 1.02478Z" fill="white"/>
<path d="M82.991 5.23822C78.7845 5.23822 76.5081 8.43544 76.5081 11.4592C76.5081 14.4829 78.7845 17.6801 82.991 17.6801C84.921 17.6553 86.7273 16.7879 88.1377 15.1769L85.4159 13.6898C84.723 14.4086 83.857 14.7803 82.9167 14.7803C81.5311 14.7803 80.3186 13.8633 79.9969 12.6488H89.1027V11.8309C89.1027 7.29535 85.5148 5.23822 82.991 5.23822ZM80.0712 9.92252C80.5166 8.78243 81.4568 8.13803 82.6693 8.13803C83.9065 8.13803 84.8715 8.78243 85.3664 9.94731L80.0712 9.92252Z" fill="white"/>
<path d="M96.6744 5.23822C92.468 5.23822 90.1915 8.43544 90.1915 11.4592C90.1915 14.4829 92.468 17.6801 96.6744 17.6801C98.6045 17.6553 100.411 16.7879 101.821 15.1769L99.0993 13.6898C98.4065 14.4086 97.5405 14.7803 96.6002 14.7803C95.2145 14.7803 94.0021 13.8633 93.6804 12.6488H102.786V11.8309C102.786 7.29535 99.2231 5.23822 96.6744 5.23822ZM93.7547 9.92252C94.2 8.78243 95.1403 8.11324 96.3528 8.13803C97.59 8.13803 98.555 8.78243 99.0498 9.94731L93.7547 9.92252Z" fill="white"/>
<path d="M102.365 4.69293H103.776V4.96556H103.207V6.45264H102.91V4.96556H102.365V4.69293Z" fill="white"/>
<path d="M103.974 4.69293H104.394L104.889 6.05609L105.36 4.69293H105.78V6.45264H105.483V5.08949L104.988 6.45264H104.741L104.246 5.08949V6.45264H103.949V4.69293H103.974Z" fill="white"/>
<path d="M0 1L9.00678 5.16383V9.22852L3.71158 6.77483V15.2016L9.00678 17.6553L8.99131 21.72L0 17.5562V1Z" fill="white"/>
<path d="M17.998 1L8.99127 5.16383V9.22852L14.2865 6.77483V15.2016L8.99127 17.6553V21.72L17.998 17.5562V1Z" fill="white"/>
<path d="M190 3H142V19H190V3Z" fill="white"/>
<path d="M162.91 8.39136C162.202 8.39136 161.395 8.72138 160.903 9.37842V8.49636H159.211V14.6557H160.903V11.1515C160.903 10.5215 161.392 9.84945 162.298 9.84945C162.997 9.84945 163.723 10.3355 163.723 11.1515V14.6557H165.415V10.8365C165.412 9.42042 164.398 8.39136 162.91 8.39136Z" fill="#53565A"/>
<path d="M177.43 8.49634L175.903 12.6906L174.373 8.49634H172.441L174.976 14.6527H176.827L179.362 8.49634H177.43Z" fill="#53565A"/>
<path d="M157.414 12.7596C156.703 13.2877 156.295 13.4107 155.647 13.4107C155.062 13.4107 154.606 13.2307 154.282 12.9126L158.605 11.1185C158.512 10.4495 158.257 9.85245 157.867 9.39942C157.3 8.73938 156.457 8.39136 155.434 8.39136C153.574 8.39136 152.173 9.76244 152.173 11.5746C152.173 13.4347 153.577 14.7578 155.62 14.7578C156.763 14.7578 157.933 14.2147 158.482 13.5817L157.414 12.7596ZM154.165 10.3505C154.453 9.96346 154.912 9.73544 155.467 9.73544C156.076 9.73544 156.538 10.0835 156.778 10.5965L153.823 11.8236C153.742 11.1965 153.901 10.7045 154.165 10.3505Z" fill="#53565A"/>
<path d="M152.011 13.1016H148.168V6.65424H146.455V14.6557H152.011V13.1016Z" fill="#53565A"/>
<path d="M182.398 14.7578C180.55 14.7578 179.101 13.3807 179.101 11.5746C179.101 9.78944 180.559 8.39136 182.422 8.39136C184.27 8.39136 185.719 9.76844 185.719 11.5746C185.719 13.3597 184.261 14.7578 182.398 14.7578ZM182.398 9.84045C181.453 9.84045 180.769 10.5575 180.769 11.5746C180.769 12.5466 181.495 13.3087 182.422 13.3087C183.367 13.3087 184.051 12.5736 184.051 11.5746C184.051 10.6025 183.325 9.84045 182.398 9.84045Z" fill="#53565A"/>
<path d="M169.378 14.7578C167.53 14.7578 166.081 13.3807 166.081 11.5746C166.081 9.78944 167.539 8.39136 169.402 8.39136C171.25 8.39136 172.699 9.76844 172.699 11.5746C172.699 13.3597 171.241 14.7578 169.378 14.7578ZM169.378 9.84045C168.433 9.84045 167.749 10.5575 167.749 11.5746C167.749 12.5466 168.475 13.3087 169.402 13.3087C170.347 13.3087 171.031 12.5736 171.031 11.5746C171.031 10.6025 170.305 9.84045 169.378 9.84045Z" fill="#53565A"/>
<path d="M185.95 13.9237H185.677V13.7677H186.394V13.9237H186.121V14.6558H185.95V13.9237V13.9237ZM186.583 13.7677H186.763L187.03 14.1877L187.297 13.7677H187.474V14.6558H187.309V14.0257L187.036 14.4517H187.018L186.745 14.0257V14.6558H186.58V13.7677H186.583Z" fill="#53565A"/>
<path d="M142 3V2H141V3H142ZM190 3H191V2H190V3ZM190 19V20H191V19H190ZM142 19H141V20H142V19ZM142 4H190V2H142V4ZM189 3V19H191V3H189ZM190 18H142V20H190V18ZM143 19V3H141V19H143Z" fill="white"/>
<path d="M123 1V22.5" stroke="white" stroke-linecap="round" stroke-linejoin="round"/>
</svg>
