<svg width="59" height="45" viewBox="0 0 59 45" fill="none" xmlns="http://www.w3.org/2000/svg">
<g clip-path="url(#clip0)">
<path d="M19.3915 14.3682C19.3915 17.9069 21.8256 20.6511 24.4846 22.5852C25.7946 23.5387 27.1125 24.2558 28.1008 24.7325C28.597 24.9728 29.3915 25.31 29.4342 25.3255C29.4768 25.31 30.2675 25 30.7598 24.7751C31.7481 24.3255 33.0621 23.6434 34.3683 22.7131C37.0078 20.841 39.4536 18.093 39.4536 14.3643L39.4497 3.64724C39.3799 3.63949 37.159 3.36042 35.5853 2.93019C33.5776 2.38755 31.8722 1.81778 29.4148 0.775146C26.9574 1.81778 25.4303 2.3953 23.2753 2.93406C21.5582 3.36429 19.4497 3.64724 19.3838 3.65499V3.66662L19.3915 14.3682Z" stroke="#53565A" stroke-width="1.5" stroke-linecap="round" stroke-linejoin="round"/>
<path d="M23.8799 13.4961L28.1822 16.4728L34.7481 8.80615" stroke="#53565A" stroke-width="1.5" stroke-linecap="round" stroke-linejoin="round"/>
<path fill-rule="evenodd" clip-rule="evenodd" d="M53.376 44.2248L42.5233 44.1976C41.6706 44.1976 40.9729 43.5 40.9729 42.6472V20.8255C40.9729 19.9728 41.6706 19.2751 42.5233 19.2751L53.376 19.3023C54.2287 19.3023 54.9264 20 54.9264 20.8527V42.6744C54.9264 43.5271 54.2287 44.2248 53.376 44.2248Z" stroke="#53565A" stroke-width="1.5"/>
<path d="M47.9961 41.8061C48.8245 41.8061 49.4961 41.1346 49.4961 40.3061C49.4961 39.4777 48.8245 38.8062 47.9961 38.8062C47.1677 38.8062 46.4961 39.4777 46.4961 40.3061C46.4961 41.1346 47.1677 41.8061 47.9961 41.8061Z" fill="#53565A"/>
<path d="M45.5466 22.6317H50.2365" stroke="#53565A" stroke-width="1.5" stroke-linecap="round" stroke-linejoin="round"/>
<path d="M16.3255 6.94568H8.39912C6.69369 6.94568 5.29834 8.34103 5.29834 10.0465V36.2868" stroke="#53565A" stroke-width="1.5" stroke-linecap="round"/>
<path d="M42.438 6.84497H50.3643C52.0698 6.84497 53.4651 8.24032 53.4651 9.94575V19.1318" stroke="#53565A" stroke-width="1.5" stroke-linecap="round"/>
<path d="M40.7674 36.3721H35.6899L34.1744 37.9108H24.8178L23.248 36.3721H0.806154L0.775146 37.217C0.775146 38.8876 2.14336 41.031 3.81391 41.031H40.7674" stroke="#53565A" stroke-width="1.5" stroke-linecap="round" stroke-linejoin="round"/>
<path d="M55.155 41.0154C56.7597 40.8488 57.9767 38.872 57.9767 37.2713V36.3527L55.4186 36.3759" stroke="#53565A" stroke-width="1.5" stroke-linecap="round" stroke-linejoin="round"/>
</g>
<defs>
<clipPath id="clip0">
<rect width="58.7558" height="45" fill="white"/>
</clipPath>
</defs>
</svg>
