<svg width="191" height="23" viewBox="0 0 191 23" fill="none" xmlns="http://www.w3.org/2000/svg">
<path d="M53.4174 14.4581L50.6152 12.8223L50.415 13.1445C49.7895 14.1359 48.9138 14.6316 47.838 14.6316C45.9865 14.6316 44.6104 13.2436 44.6104 11.4343C44.6104 9.60027 46.0115 8.23711 47.838 8.23711C48.9388 8.23711 49.7395 8.70802 50.415 9.72419L50.6152 10.0464L53.4174 8.4106L53.1672 8.06362C51.8161 6.13041 50.0898 5.21338 47.813 5.21338C43.5346 5.21338 41.2327 8.43539 41.2327 11.4591C41.2327 14.4829 43.5346 17.7049 47.813 17.7049C49.9897 17.7049 52.0413 16.6143 53.1672 14.8298L53.4174 14.4581Z" fill="#C01818"/>
<path d="M53.2673 17.6555H57.1204L58.2713 14.83H64.0509L65.2018 17.6555H69.0799L62.1744 1.12408H58.7217L59.6474 3.32992L53.2673 17.6555ZM61.1986 7.64246L62.7499 11.5337H59.5974L61.1986 7.64246Z" fill="#C01818"/>
<path d="M70.6811 17.6802H74.0588V10.2448H76.2606V7.12192H74.0588V5.65963C74.0588 5.01522 74.4841 4.34604 75.2848 4.34604C75.7101 4.34604 75.9853 4.42039 76.2355 4.51953L76.6108 4.66824L78.0119 1.61972L77.6116 1.44623C76.9861 1.19838 76.1104 1.09924 75.4849 1.09924C73.9587 1.09924 72.6827 1.59494 71.832 2.53676C71.0814 3.35465 70.6561 4.49475 70.6561 5.75877V7.09714H69.1549V10.22H70.6561L70.6811 17.6802Z" fill="#C01818"/>
<path d="M25.2951 1.02484V17.6554H28.973V8.13805L32.5509 10.7652L36.1037 8.13805V17.6554H39.7816L39.8066 1.02484L32.5509 6.45269L25.2951 1.02484Z" fill="#C01818"/>
<path d="M83.9167 5.23816C79.6633 5.23816 77.3615 8.43538 77.3615 11.4591C77.3615 14.4828 79.6633 17.6801 83.9167 17.6801C85.8682 17.6553 87.6947 16.7878 89.1208 15.1768L86.3686 13.6897C85.6681 14.4085 84.7924 14.7803 83.8416 14.7803C82.4405 14.7803 81.2145 13.8632 80.8893 12.6488H90.0966V11.8309C90.0966 7.29529 86.4687 5.23816 83.9167 5.23816ZM80.9643 9.92246C81.4147 8.78237 82.3654 8.13797 83.5914 8.13797C84.8424 8.13797 85.8182 8.78237 86.3186 9.94725L80.9643 9.92246Z" fill="#C01818"/>
<path d="M97.7527 5.23816C93.4993 5.23816 91.1975 8.43538 91.1975 11.4591C91.1975 14.4828 93.4993 17.6801 97.7527 17.6801C99.7043 17.6553 101.531 16.7878 102.957 15.1768L100.205 13.6897C99.5041 14.4085 98.6284 14.7803 97.6777 14.7803C96.2765 14.7803 95.0506 13.8632 94.7253 12.6488H103.933V11.8309C103.933 7.29529 100.33 5.23816 97.7527 5.23816ZM94.8004 9.92246C95.2507 8.78237 96.2015 8.11318 97.4275 8.13797C98.6785 8.13797 99.6542 8.78237 100.155 9.94725L94.8004 9.92246Z" fill="#C01818"/>
<path d="M103.507 4.69293H104.933V4.96556H104.358V6.45265H104.058V4.96556H103.507V4.69293Z" fill="#C01818"/>
<path d="M105.134 4.69293H105.559L106.059 6.05609L106.535 4.69293H106.96V6.45265H106.66V5.08949L106.159 6.45265H105.909L105.409 5.08949V6.45265H105.109V4.69293H105.134Z" fill="#C01818"/>
<path d="M0 1L9.10724 5.16383V9.22852L3.75298 6.77483V15.2016L9.10724 17.6553L9.0916 21.72L0 17.5562V1Z" fill="#C01818"/>
<path d="M18.1989 1L9.09162 5.16383V9.22852L14.4459 6.77483V15.2016L9.09162 17.6553V21.72L18.1989 17.5562V1Z" fill="#75160D"/>
<path d="M191 3H143V19H191V3Z" fill="#53565A"/>
<path d="M163.91 8.39136C163.202 8.39136 162.395 8.72138 161.903 9.37842V8.49636H160.211V14.6557H161.903V11.1515C161.903 10.5215 162.392 9.84945 163.298 9.84945C163.997 9.84945 164.723 10.3355 164.723 11.1515V14.6557H166.415V10.8365C166.412 9.42042 165.398 8.39136 163.91 8.39136Z" fill="white"/>
<path d="M178.43 8.49634L176.903 12.6906L175.373 8.49634H173.441L175.976 14.6527H177.827L180.362 8.49634H178.43Z" fill="white"/>
<path d="M158.414 12.7596C157.703 13.2877 157.295 13.4107 156.647 13.4107C156.062 13.4107 155.606 13.2307 155.282 12.9126L159.605 11.1185C159.512 10.4495 159.257 9.85245 158.867 9.39942C158.3 8.73938 157.457 8.39136 156.434 8.39136C154.574 8.39136 153.173 9.76244 153.173 11.5746C153.173 13.4347 154.577 14.7578 156.62 14.7578C157.763 14.7578 158.933 14.2147 159.482 13.5817L158.414 12.7596ZM155.165 10.3505C155.453 9.96346 155.912 9.73544 156.467 9.73544C157.076 9.73544 157.538 10.0835 157.778 10.5965L154.823 11.8236C154.742 11.1965 154.901 10.7045 155.165 10.3505Z" fill="white"/>
<path d="M153.011 13.1016H149.168V6.65424H147.455V14.6557H153.011V13.1016Z" fill="white"/>
<path d="M183.398 14.7578C181.55 14.7578 180.101 13.3807 180.101 11.5746C180.101 9.78944 181.559 8.39136 183.422 8.39136C185.27 8.39136 186.719 9.76844 186.719 11.5746C186.719 13.3597 185.261 14.7578 183.398 14.7578ZM183.398 9.84045C182.453 9.84045 181.769 10.5575 181.769 11.5746C181.769 12.5466 182.495 13.3087 183.422 13.3087C184.367 13.3087 185.051 12.5736 185.051 11.5746C185.051 10.6025 184.325 9.84045 183.398 9.84045Z" fill="white"/>
<path d="M170.378 14.7578C168.53 14.7578 167.081 13.3807 167.081 11.5746C167.081 9.78944 168.539 8.39136 170.402 8.39136C172.25 8.39136 173.699 9.76844 173.699 11.5746C173.699 13.3597 172.241 14.7578 170.378 14.7578ZM170.378 9.84045C169.433 9.84045 168.749 10.5575 168.749 11.5746C168.749 12.5466 169.475 13.3087 170.402 13.3087C171.347 13.3087 172.031 12.5736 172.031 11.5746C172.031 10.6025 171.305 9.84045 170.378 9.84045Z" fill="white"/>
<path d="M186.95 13.9237H186.677V13.7677H187.394V13.9237H187.121V14.6558H186.95V13.9237V13.9237ZM187.583 13.7677H187.763L188.03 14.1877L188.297 13.7677H188.474V14.6558H188.309V14.0257L188.036 14.4517H188.018L187.745 14.0257V14.6558H187.58V13.7677H187.583Z" fill="white"/>
<rect x="143.5" y="3.5" width="47" height="15" stroke="white"/>
<path d="M124 1V22.5" stroke="#53565A" stroke-linecap="round" stroke-linejoin="round"/>
</svg>
