<svg width="61" height="61" viewBox="0 0 61 61" fill="none" xmlns="http://www.w3.org/2000/svg">
<path d="M10.4736 52.3148C10.4736 41.4161 19.3118 32.5779 30.2105 32.5779C41.1092 32.5779 49.9473 41.4161 49.9473 52.3148" stroke="#1389A2" stroke-width="2" stroke-miterlimit="10"/>
<path d="M17.5671 45.7346C19.9513 41.1793 24.7237 38.0609 30.2106 38.0609C35.6974 38.0609 40.4737 41.1793 42.854 45.7346" stroke="#1389A2" stroke-width="2" stroke-miterlimit="10" stroke-linecap="round"/>
<path d="M30.2104 38.0609V40.4728" stroke="#1389A2" stroke-width="2" stroke-miterlimit="10" stroke-linecap="round"/>
<path d="M19.4263 42.9951L21.4986 44.8425" stroke="#1389A2" stroke-width="2" stroke-miterlimit="10" stroke-linecap="round"/>
<path d="M26.6814 52.3148C26.6814 50.3648 28.2603 48.7858 30.2103 48.7858C32.1603 48.7858 33.7393 50.3648 33.7393 52.3148" stroke="#1389A2" stroke-width="2" stroke-miterlimit="10"/>
<path d="M40.9987 42.9951L38.9224 44.8425" stroke="#1389A2" stroke-width="2" stroke-miterlimit="10" stroke-linecap="round"/>
<path d="M32.9143 50.0451L36.1314 47.1832" stroke="#1389A2" stroke-width="2" stroke-miterlimit="10" stroke-linecap="round"/>
<path d="M45.7671 21.5254V18.4109H49.3908C49.8211 18.4109 50.0895 17.9451 49.8724 17.574L43.1974 6.01614C42.9842 5.64509 42.4474 5.64509 42.2342 6.01614L35.7368 17.574C35.5237 17.9451 35.7921 18.4109 36.2184 18.4109H39.6605V21.5254" stroke="#1389A2" stroke-width="2" stroke-miterlimit="10" stroke-linecap="round"/>
<path d="M26.3737 29.4201V19.9464H31.9869C32.6105 19.9464 33.0013 19.2714 32.6895 18.7306L22.2132 1.40559C21.9013 0.864803 21.1197 0.864803 20.8079 1.40559L10.5842 18.7306C10.2724 19.2714 10.6632 19.9464 11.2868 19.9464H16.9V29.4201" stroke="#1389A2" stroke-width="2" stroke-miterlimit="10" stroke-linecap="round"/>
<path d="M14.421 24.6832H9.68419C7.50524 24.6832 5.73682 26.4516 5.73682 28.6306V54.2135" stroke="#1389A2" stroke-width="2" stroke-miterlimit="10"/>
<path d="M54.6842 54.2135V28.6306C54.6842 26.4516 52.9158 24.6832 50.7369 24.6832H28.6316" stroke="#1389A2" stroke-width="2" stroke-miterlimit="10"/>
<path d="M55.4737 59.4201C57.6526 59.4201 59.4211 57.6517 59.4211 55.4727V54.6832H36.5263L34.9474 56.2622H25.4737L23.8947 54.6832H1V55.4727C1 57.6517 2.76842 59.4201 4.94737 59.4201H55.4737Z" stroke="#1389A2" stroke-width="2" stroke-miterlimit="10" stroke-linecap="round"/>
</svg>
