<svg width="60" height="55" viewBox="0 0 60 55" fill="none" xmlns="http://www.w3.org/2000/svg">
<path d="M12.063 27.4069H3.34138C2.05362 27.4069 1 26.3533 1 25.0655V3.34138C1 2.05362 2.05362 1 3.34138 1H56.6586C57.9464 1 59 2.05362 59 3.34138V25.0655C59 26.3533 57.9464 27.4069 56.6586 27.4069H48.0618" stroke="#1389A2" stroke-width="2" stroke-linecap="round" stroke-linejoin="round"/>
<path d="M16.9446 39.2739C16.9446 43.9294 20.1484 47.5429 23.6487 50.0872C25.3736 51.3399 27.1062 52.2842 28.4096 52.9164C29.0612 53.2325 30.1071 53.6773 30.1656 53.7008C30.2202 53.6812 31.2582 53.2715 31.9099 52.9749C33.2094 52.3818 34.9381 51.4842 36.659 50.2628C40.1321 47.7966 43.3515 44.183 43.3515 39.2778L43.3437 25.171C43.2539 25.1632 40.3311 24.7925 38.259 24.2305C35.6171 23.5086 33.3772 22.7633 30.1422 21.3896C26.9111 22.7633 24.8975 23.5203 22.0605 24.2305C19.8011 24.7964 17.0265 25.171 16.9368 25.1788V25.1944L16.9446 39.2739Z" stroke="#1389A2" stroke-width="2" stroke-linecap="round" stroke-linejoin="round"/>
<path d="M22.8527 38.1265L28.5149 42.0483L37.1546 31.957" stroke="#1389A2" stroke-width="2" stroke-linecap="round" stroke-linejoin="round"/>
<path d="M15.3295 8.44177L15.2944 13.3158L12.1452 17.2181" stroke="#1389A2" stroke-width="2" stroke-linecap="round" stroke-linejoin="round"/>
<path d="M19.8952 11.5987L15.4037 13.5889" stroke="#1389A2" stroke-width="2" stroke-linecap="round" stroke-linejoin="round"/>
<path d="M10.7207 11.5987L15.0484 13.5889" stroke="#1389A2" stroke-width="2" stroke-linecap="round" stroke-linejoin="round"/>
<path d="M15.302 13.3157L18.4512 17.218" stroke="#1389A2" stroke-width="2" stroke-linecap="round" stroke-linejoin="round"/>
<path d="M30.1582 8.44171L30.123 13.3157L26.9739 17.218" stroke="#1389A2" stroke-width="2" stroke-linecap="round" stroke-linejoin="round"/>
<path d="M34.7239 11.5986L30.2324 13.5888" stroke="#1389A2" stroke-width="2" stroke-linecap="round" stroke-linejoin="round"/>
<path d="M25.5493 11.5986L29.877 13.5888" stroke="#1389A2" stroke-width="2" stroke-linecap="round" stroke-linejoin="round"/>
<path d="M30.1306 13.3157L33.2798 17.218" stroke="#1389A2" stroke-width="2" stroke-linecap="round" stroke-linejoin="round"/>
<path d="M44.9871 8.44177L44.952 13.3158L41.8028 17.2181" stroke="#1389A2" stroke-width="2" stroke-linecap="round" stroke-linejoin="round"/>
<path d="M49.5528 11.5987L45.0613 13.5889" stroke="#1389A2" stroke-width="2" stroke-linecap="round" stroke-linejoin="round"/>
<path d="M40.3783 11.5987L44.706 13.5889" stroke="#1389A2" stroke-width="2" stroke-linecap="round" stroke-linejoin="round"/>
<path d="M44.9595 13.3157L48.1087 17.218" stroke="#1389A2" stroke-width="2" stroke-linecap="round" stroke-linejoin="round"/>
</svg>
