<svg width="62" height="60" viewBox="0 0 62 60" fill="none" xmlns="http://www.w3.org/2000/svg">
<path d="M25.3424 44.5879C36.8608 47.1231 46.5466 41.5292 52.047 36.3977C52.8386 35.6591 52.8252 34.4185 52.0427 33.6702C48.9007 30.6652 45.9532 28.5227 42.8064 27.0572M19.178 42.5331C16.2136 41.1206 12.7294 39.1019 9.60966 36.3411C8.8088 35.6324 8.77561 34.4089 9.5441 33.6652C15.0691 28.3185 25.3291 22.4193 36.9862 25.1367" stroke="#1389A2" stroke-width="2" stroke-linecap="round"/>
<path d="M37.6706 32.9438C38.3264 34.3515 38.1874 35.8543 37.9819 36.754C37.7202 37.8997 37.1642 38.9945 36.3093 39.9194C34.3351 42.0554 31.3327 42.6731 28.7665 41.7151" stroke="#1389A2" stroke-width="2" stroke-linecap="round"/>
<path d="M33.0703 28.2219C31.6154 27.6787 29.4108 27.7624 27.9423 28.2219C26.8207 28.5727 25.773 29.213 24.9181 30.1379C22.9438 32.2739 22.5639 35.3156 23.7206 37.7985" stroke="#1389A2" stroke-width="2" stroke-linecap="round"/>
<path d="M19.1783 46.6995L43.3036 22.7299" stroke="#1389A2" stroke-width="2" stroke-linecap="round"/>
<path d="M61.1834 11.3132H0.868378" stroke="#1389A2" stroke-width="2" stroke-miterlimit="10"/>
<path d="M30.7527 6.11823H7.76379" stroke="#1389A2" stroke-width="2" stroke-miterlimit="10" stroke-linecap="round"/>
<path d="M46.5202 7.19751C47.1303 7.19751 47.6248 6.71617 47.6248 6.12241C47.6248 5.52864 47.1303 5.0473 46.5202 5.0473C45.9102 5.0473 45.4157 5.52864 45.4157 6.12241C45.4157 6.71617 45.9102 7.19751 46.5202 7.19751Z" fill="#1389A2"/>
<path d="M50.9381 7.22375C51.5481 7.22375 52.0426 6.74241 52.0426 6.14865C52.0426 5.55489 51.5481 5.07355 50.9381 5.07355C50.3281 5.07355 49.8335 5.55489 49.8335 6.14865C49.8335 6.74241 50.3281 7.22375 50.9381 7.22375Z" fill="#1389A2"/>
<path d="M55.3033 7.21515C55.9134 7.21515 56.4079 6.73381 56.4079 6.14004C56.4079 5.54628 55.9134 5.06494 55.3033 5.06494C54.6933 5.06494 54.1988 5.54628 54.1988 6.14004C54.1988 6.73381 54.6933 7.21515 55.3033 7.21515Z" fill="#1389A2"/>
<rect x="1" y="1" width="59.6438" height="58" rx="11" stroke="#1389A2" stroke-width="2"/>
</svg>
