<svg xmlns="http://www.w3.org/2000/svg" xmlns:xlink="http://www.w3.org/1999/xlink" viewBox="0 0 430.85 231.73"><defs><style>.a{fill:#b7cefb;}.b{fill:#3c7dfc;}.c{fill:#9fc4ff;}.d{fill:#70a0fe;}.e{fill:#ff95a9;}.f{fill:#e52020;}.g{fill:url(#a);}.h{fill:#c01818;}.i{fill:#ffc359;}.j{fill:#699cff;}.k{fill:#ddd6ff;}.l{fill:#9f6349;}.m{fill:#40327a;}.n{fill:#11426b;}.o{fill:#0b2d4e;}.p{fill:#fcb32b;}.q{fill:#b2c3fb;}.r{fill:#fff;}.s{fill:#5c93ff;}.t{fill:#c4b8ff;}.u{fill:#a4b9fd;}.v{fill:#03053e;}.w{fill:#ecf7ff;}.x{fill-rule:evenodd;fill:url(#b);}</style><linearGradient id="a" x1="284.44" y1="98.87" x2="311.18" y2="142.88" gradientTransform="matrix(1, 0, 0, -1, 0, 234)" gradientUnits="userSpaceOnUse"><stop offset="0.32" stop-color="#c01818"/><stop offset="0.67" stop-color="#e52020"/></linearGradient><linearGradient id="b" x1="-709.56" y1="353.53" x2="1069.47" y2="107.33" gradientTransform="matrix(1, 0, 0, -1, 0, 234)" gradientUnits="userSpaceOnUse"><stop offset="0" stop-color="#9dffd0" stop-opacity="0"/><stop offset="0.53" stop-color="#ecf7ff"/></linearGradient></defs><path class="a" d="M284.16,223.79H187v.92h97.14Z"/><path class="a" d="M211,230.81h-60.9v.92H211Z"/><path class="a" d="M316.89,230.81H236.53v.92h80.36Z"/><path class="a" d="M159.62,223.93H130.54v.92h29.08Z"/><path class="a" d="M358.37,223.79H299.48v.92h58.89Z"/><path class="a" d="M429,216.46H78.53v.9H429v-.9Z"/><path class="b" d="M231.37,128.68h21.88v-2.75H231.37Z"/><path class="c" d="M333.39,147l20.06,69.45h2.28L339.36,147Z"/><path class="c" d="M312.46,147,292.4,216.45h-2.28L306.49,147Z"/><path class="d" d="M323,171a33.94,33.94,0,1,0-33.73-33.94A33.84,33.84,0,0,0,323,171Z"/><path class="c" d="M187.7,128.66l-.46,4.59-9.07,83.21h-2.32l6.79-87.79h5.06Z"/><path class="c" d="M383.66,128.66l.46,4.59,9.07,83.21h2.32l-6.79-87.79h-5.06Z"/><path class="e" d="M319.94,144.94a10.69,10.69,0,1,0-10.62-10.69A10.65,10.65,0,0,0,319.94,144.94Z"/><path class="e" d="M304.21,106.59a6,6,0,1,0-5.93-6A5.95,5.95,0,0,0,304.21,106.59Z"/><path class="f" d="M331.93,100.91l-1.55,33.35h-21.2l-8.75-35A3.66,3.66,0,0,1,304,94.63h22.06A5.94,5.94,0,0,1,331.93,100.91Z"/><path class="f" d="M304.21,106.59a6,6,0,1,0-5.93-6A5.94,5.94,0,0,0,304.21,106.59Z"/><path class="g" d="M298.61,98.61l-8.71,24.31,7.89,3.44,11.71-23.07Z"/><path class="h" d="M289.72,123.75a4.31,4.31,0,1,0,4.92-3.62A4.35,4.35,0,0,0,289.72,123.75Z"/><path class="h" d="M293.32,128.7l-16.77-2.57.14-4.54,2.74-.28,14.18-1.24Z"/><path class="e" d="M309.32,134.25h21.2l1.14.87a16,16,0,0,1,6.11,12.52v4.59a6.42,6.42,0,0,1-6.38,6.42H313a6.42,6.42,0,0,1-6.38-6.42v-6.29A26.54,26.54,0,0,1,309.32,134.25Z"/><path class="h" d="M326.05,106.59a6,6,0,1,0-5.93-6A5.95,5.95,0,0,0,326.05,106.59Z"/><path class="i" d="M337.76,128.7a4.31,4.31,0,1,0-4.29-4.31A4.3,4.3,0,0,0,337.76,128.7Z"/><path class="c" d="M392.92,128.66H178.18v4.59H392.92Z"/><path class="h" d="M331.52,98.29l10.21,24.45-7.7,3.81-13.13-23Z"/><path class="c" d="M265.47,73.93H201.74v43.44h63.73Z"/><path class="j" d="M240,128.66H222.67L224,93.2h14.59Z"/><path class="k" d="M231.33,110.49a3.9,3.9,0,1,0-3.87-3.9A3.89,3.89,0,0,0,231.33,110.49Z"/><path class="f" d="M306.58,120.4a6,6,0,1,0-5.93-6A5.95,5.95,0,0,0,306.58,120.4Z"/><path class="h" d="M306.58,120.86a6.48,6.48,0,0,1-5.79-3.67l.82-.41a5.49,5.49,0,0,0,5,3.17Z"/><path class="h" d="M302.85,119.62a6.44,6.44,0,0,1-2.6-5.18,6.62,6.62,0,0,1,.36-2.11l.05-.14.87.32,0,.14a5,5,0,0,0-.32,1.83,5.56,5.56,0,0,0,2.23,4.45Z"/><path class="l" d="M312.51,123.11a2.29,2.29,0,1,1,3.19.55A2.22,2.22,0,0,1,312.51,123.11Z"/><path class="h" d="M333.52,123.56a4.3,4.3,0,1,0,5.06-3.39A4.33,4.33,0,0,0,333.52,123.56Z"/><path class="h" d="M337.85,120.08l-23.43-.55-.5,4.54,23,4.59Z"/><path class="l" d="M320.4,125.35l-6.47-1.28.5-4.54,6.56.14Z"/><path class="m" d="M287.17,215.3a3,3,0,1,0-3-3A3,3,0,0,0,287.17,215.3Z"/><path class="n" d="M309.32,134.25h21.2l1.14.87a16,16,0,0,1,6.11,12.52v4.59a6.42,6.42,0,0,1-6.38,6.42H313a6.42,6.42,0,0,1-6.38-6.42v-6.29A26.54,26.54,0,0,1,309.32,134.25Z"/><path class="n" d="M313,158.7a6.42,6.42,0,1,0-6.38-6.42A6.41,6.41,0,0,0,313,158.7Z"/><path class="n" d="M331.38,158.7a6.42,6.42,0,1,0-6.38-6.42A6.41,6.41,0,0,0,331.38,158.7Z"/><path class="n" d="M280.24,158.65a5.18,5.18,0,1,0-5.15-5.18A5.16,5.16,0,0,0,280.24,158.65Z"/><path class="n" d="M285.39,153.06l4.74,59-5.88.69-9.12-58.48Z"/><path class="m" d="M305.26,215.3a3,3,0,1,0-3-3A3,3,0,0,0,305.26,215.3Z"/><path class="m" d="M298.33,158.65a5.18,5.18,0,1,0-5.15-5.18A5.17,5.17,0,0,0,298.33,158.65Z"/><path class="o" d="M303.48,153.06l4.74,59-5.88.69-9.07-58.48Z"/><path class="n" d="M312.51,145.86l-32.68,2.43.41,10.37,32.73.05Z"/><path class="e" d="M274.81,124.85a2.25,2.25,0,0,1,1.09-3,2.23,2.23,0,0,1,3,1.1,2.29,2.29,0,0,1-1.09,3A2.25,2.25,0,0,1,274.81,124.85Z"/><path class="l" d="M271.21,122.19a4.16,4.16,0,0,0-1,.28,3.21,3.21,0,0,0,2.69,5.82l5-2.34-1.23-4.36Z"/><path class="l" d="M279.23,126.55l-2.69-.41.14-4.54,2.73-.27Z"/><path class="l" d="M308.45,121.13a3,3,0,0,0-1,.46,3.18,3.18,0,0,0-.77,4.45,3.14,3.14,0,0,0,4.42.78l4.47-3.17-1.92-4.08Z"/><path class="p" d="M284.2,212.32h5.92v4.13h-8.3a1.28,1.28,0,0,1-1.28-1.28,1.24,1.24,0,0,1,.64-1.1Z"/><path class="p" d="M302.3,212.32h5.93v4.13h-8.3a1.28,1.28,0,0,1-1.28-1.28,1.24,1.24,0,0,1,.64-1.1Z"/><path class="q" d="M115.82,66.37c-1.32,6.24-3.6,12.25-5.38,18.39-1.82,6.33-3.69,12.75-3.69,19.31a34.72,34.72,0,0,0,9.25,23.3c2.28,2.43,5,4.59,6.75,7.43s2.42,6.74.46,9.45c-2.83,3.9-8.93,3.07-13.08,5.51-5.24,3.07-6,10.92-3,16.19s16.55,20.46,35.92,16.74c8.66-1.7,20.42-10,20.1-18.85-.37-9.26-9.12-16.74-8.84-26,.18-6,4.24-11.19,7.75-16.1s6.75-10.92,5.15-16.79c-2.37-8.58-13.35-11.24-18.69-18.39C145.14,82,144.37,76,144.14,70.22s0-11.6-2-17.06C137.52,40,121.15,41.55,115.82,66.37Z"/><path class="r" d="M136.65,99.39h-.91V199h.91Z"/><path class="r" d="M136.65,128.2l-.91-.14c1.46-9,11.67-14.63,12.08-14.86l.41.83S138.06,119.62,136.65,128.2Z"/><path class="r" d="M135.74,167.42c-1-6.1-8.2-10-8.3-10.09l.41-.83c.32.18,7.7,4.22,8.75,10.78Z"/><path class="s" d="M141.25,216.45H131a11.29,11.29,0,0,1-11.26-11.33v-9.5h32.82v9.5A11.37,11.37,0,0,1,141.25,216.45Z"/><path class="r" d="M152.51,198.56H119.69v.92h32.82Z"/><path class="r" d="M231.76,177.35a8.8,8.8,0,1,0-10.09,7.32A8.85,8.85,0,0,0,231.76,177.35Z"/><path class="r" d="M223.08,167.51a8.39,8.39,0,1,0,8.34,8.39A8.37,8.37,0,0,0,223.08,167.51Z"/><path class="r" d="M214.28,184.82a6.39,6.39,0,0,0,3.43-8.33,6.33,6.33,0,0,0-8.28-3.45,6.39,6.39,0,0,0-3.43,8.33A6.33,6.33,0,0,0,214.28,184.82Z"/><path class="s" d="M234.7,176.82l-.59,4.63-.14.92L232.37,195l-2,15.32-.18,1.56-.59,4.59H203.93l-.59-4.59-.14-.92-1.41-11.19-2.23-17.38-.14-.92-.59-4.63H234.7Z"/><path class="d" d="M232.37,195l-2,15.32-.18,1.56-.59,4.59H203.93l-.59-4.59-.14-.92-1.41-11.19Z"/><path class="r" d="M207.26,211.36l-.91,0,0-.46-2.6-28.58,0-.41.91-.09.05.51,2.6,28.58Z"/><path class="r" d="M209.64,181.91l-.91.05,1.61,29.45.91,0Z"/><path class="r" d="M214.69,181.9l-.91,0,.53,29.49.91,0Z"/><path class="r" d="M218.83,181.89l-.54,29.49.91,0,.54-29.49Z"/><path class="r" d="M223.89,181.9l-1.63,29.45.91.05L224.8,182Z"/><path class="r" d="M229.87,182v.41L227.23,211l0,.46-.91,0,0-.41L229,182.37l0-.51Z"/><path class="r" d="M199.42,181.45l.09.92H234l.09-.92Zm30.86,29.49H203.2l.14.92h26.85l.18-1.51Z"/><path class="h" d="M303.49,104l-2.28,6.53.86.3,2.28-6.53Z"/><path class="t" d="M268,78.68l-7.15,1.45L262,85.88l7.15-1.45Z"/><path class="u" d="M268.61,88.52h-7.29v5.87h7.29Z"/><path class="t" d="M269.69,97.4l-7.21-1.1-.87,5.8,7.21,1.1Z"/><path class="l" d="M317.92,81.79l-10,.94,1.15,12.38,10-.94Z"/><path class="l" d="M319.07,94.16a5,5,0,1,1-5.47-4.54A5.06,5.06,0,0,1,319.07,94.16Z"/><path class="v" d="M327.47,87a7.23,7.23,0,0,0-.87-10.15,7.12,7.12,0,0,0-10.08.87,7.24,7.24,0,0,0,.87,10.15A7.11,7.11,0,0,0,327.47,87Z"/><path class="v" d="M294.41,75.54a15.75,15.75,0,1,1,17.14,14.31l-8.75-7.29A7.73,7.73,0,0,1,294.41,75.54Z"/><path class="l" d="M318.34,81.14l-2.28.23-.41-4.59,2.28-.23a2.25,2.25,0,0,1,2.46,2.06A2.32,2.32,0,0,1,318.34,81.14Z"/><path class="l" d="M299.56,69.53l17.05-1.61,2.05,22.15-10.57,1A7.4,7.4,0,0,1,300,83.93Z"/><path class="v" d="M317.43,76.64l.45,0-1.23-13.21-13.49,1.29a6.48,6.48,0,0,0-5.83,7.11l.05.28.46,0a17.59,17.59,0,0,1,11,2.61A14,14,0,0,0,317.43,76.64Z"/><path class="r" d="M307.81,84.3a2.52,2.52,0,1,1-5,.46Z"/><path class="r" d="M261.29,80l-.89.18L261.56,86l.89-.18Z"/><path class="r" d="M261.78,88.52h-.91v5.87h.91Z"/><path class="r" d="M262,96.22l-.87,5.8.9.14.87-5.8Z"/><path class="w" d="M335.84,58.25c18.2-12.67,12.23-27.55,7-33.41l0-22.91,19.63,0C363.81,18,360.36,51.89,335.84,58.25Z"/><path class="x" d="M0,0C8.08,11.72,22.31,12.1,38.78,18.49c8.1,3.14,19.62,5.6,33,8,41,7.36,99.46,11.5,130,11.5,40.5,0,86.5-5.5,140-12.5,38.33-5,70.7-8.49,89.07-25.49Z"/></svg>