<svg width="63" height="47" viewBox="0 0 63 47" fill="none" xmlns="http://www.w3.org/2000/svg">
<path d="M53.25 9.85242H53.4344C55.2377 9.85242 56.7131 11.3278 56.7131 13.1311V40.4672" stroke="#53565A" stroke-width="1.5" stroke-linecap="round"/>
<path fill-rule="evenodd" clip-rule="evenodd" d="M58.5 45.9837C60.1967 45.8074 61.4836 43.7173 61.4836 42.0247V41.0533L58.7787 41.0779H43.2828H37.9139L36.3115 42.705H26.4221L24.7623 41.0779H1.03279L1 41.9673C1 43.7337 2.44672 46.0001 4.21311 46.0001H43.2869L58.5 45.9837Z" stroke="#53565A" stroke-width="1.5" stroke-linecap="round" stroke-linejoin="round"/>
<path d="M22.3608 9.95911H9.06165C7.25837 9.95911 5.78296 11.4345 5.78296 13.2378V40.9837" stroke="#53565A" stroke-width="1.5" stroke-linecap="round"/>
<path d="M18.0367 20.1721C13.0695 20.1721 9.79904 22.4098 9.66379 22.5041L9.25806 22.7869L9.29084 23.2828C9.81953 31.4631 13.4999 37.3975 18.0408 37.3975C22.5818 37.3975 26.2622 31.459 26.7908 23.2828L26.8236 22.7869L26.4097 22.5082C26.2703 22.4098 22.9999 20.1721 18.0367 20.1721Z" stroke="#53565A" stroke-width="1.5" stroke-miterlimit="10" stroke-linecap="round" stroke-linejoin="round"/>
<path d="M12.0982 24.1147L16.9834 27.5656C16.9834 27.5656 11.2908 30.4385 12.0982 24.1147Z" fill="#53565A"/>
<path d="M24.004 24.1147C24.8114 30.4385 19.1188 27.5697 19.1188 27.5697L24.004 24.1147Z" fill="#53565A"/>
<path d="M48.7746 12.3361C48.7746 18.6148 43.791 23.6721 37.6803 23.6721C31.5697 23.6721 26.5861 18.6148 26.5861 12.3361C26.5861 6.05738 31.5738 1 37.6803 1C43.791 1 48.7746 6.05738 48.7746 12.3361Z" stroke="#53565A" stroke-width="1.5"/>
<path d="M43.7704 23.4262L43.5327 22.5205L42.6311 22.7664L39.213 23.7008L38.3114 23.9467L38.5491 24.8525L41.4344 35.8361C41.8155 37.2828 43.2909 38.1353 44.7335 37.7377C46.1762 37.3443 47.0368 35.8525 46.6557 34.4058L43.7704 23.4262Z" stroke="#53565A" stroke-width="1.5"/>
<path d="M45.9713 31.9835L41.1885 33.2909" stroke="#53565A" stroke-width="1.5"/>
<path d="M38.1077 14.3696H37.5329C37.109 14.3696 36.7544 14.0435 36.7218 13.6155L36.2204 7.09784C36.1797 6.62502 36.5547 6.21741 37.0316 6.21741H38.6253C39.1022 6.21741 39.4772 6.62502 39.4365 7.10192L38.9188 13.6196C38.8903 14.0435 38.5357 14.3696 38.1077 14.3696Z" fill="#53565A"/>
<path d="M37.1742 16H38.4663C38.9147 16 39.2816 16.3668 39.2816 16.8152V18.4457C39.2816 18.894 38.9147 19.2609 38.4663 19.2609H37.1742C36.7259 19.2609 36.359 18.894 36.359 18.4457V16.8152C36.359 16.3668 36.7259 16 37.1742 16Z" fill="#53565A"/>
</svg>
