<svg xmlns="http://www.w3.org/2000/svg" width="20" height="20" viewBox="0 0 20 20"><defs><style>.a{fill:none;}.b{fill:#4a81fd;}</style></defs><rect class="a" width="20" height="20"/><g transform="translate(1.25)"><path class="b" d="M203.314,363.383a.506.506,0,0,0-.382-.131c-2.88.243-5.162-.835-7.905-2.658a.214.214,0,0,0-.034-.022.517.517,0,0,0-.531,0,.278.278,0,0,0-.033.021c-2.744,1.823-5.027,2.9-7.905,2.658a.508.508,0,0,0-.383.131.5.5,0,0,0-.163.37c0,12.529,8.449,16.661,8.535,16.7a.5.5,0,0,0,.21.045.537.537,0,0,0,.255-.064c.465-.233,8.5-4.454,8.5-16.683A.5.5,0,0,0,203.314,363.383Zm-8.588,16.048c-1.253-.706-7.529-4.758-7.738-15.146,2.81.083,5.165-1,7.739-2.686,2.574,1.683,4.924,2.77,7.739,2.686C202.256,374.689,195.937,378.749,194.726,379.432Z" transform="translate(-185.977 -360.5)"/><path class="b" d="M194.4,367.808h3.268a.5.5,0,0,0,.5-.5,2.137,2.137,0,0,0-4.274,0A.5.5,0,0,0,194.4,367.808Zm1.634-1.632a1.132,1.132,0,0,1,1.013.627h-2.025A1.132,1.132,0,0,1,196.035,366.176Z" transform="translate(-187.285 -361.279)"/><path class="b" d="M200.062,370.518h-1.593v-1.094l1.44-.9a.5.5,0,1,0-.533-.851l-1.554.969h-4.754l-1.554-.969a.5.5,0,1,0-.533.851l1.44.9v1.094h-1.593a.5.5,0,1,0,0,1.005h1.593v.138a3,3,0,0,0,.129.87l-1.554.9a.5.5,0,0,0,.5.869l1.5-.865a3.017,3.017,0,0,0,4.889,0l1.5.865a.5.5,0,1,0,.5-.869l-1.554-.9a3,3,0,0,0,.129-.87v-.138h1.593a.5.5,0,1,0,0-1.005Zm-2.6,1.143a2.018,2.018,0,0,1-4.036,0v-2.013h4.036Z" transform="translate(-186.695 -361.683)"/></g></svg>