<svg xmlns="http://www.w3.org/2000/svg" width="20" height="19.999" viewBox="0 0 20 19.999"><defs><style>.a{fill:none;}.b{fill:#4a81fd;}</style></defs><rect class="a" width="19.999" height="19.999" transform="translate(0.001)"/><g transform="translate(0 0)"><path class="b" d="M322.458,380.5a10,10,0,1,1,10-10A10.011,10.011,0,0,1,322.458,380.5Zm0-18.986a8.987,8.987,0,1,0,8.987,8.986A9,9,0,0,0,322.458,361.513Z" transform="translate(-312.458 -360.5)"/></g><g transform="translate(4.219 6.515)"><path class="b" d="M321.775,376.132a.507.507,0,0,1-.358-.148l-3.747-3.747a.506.506,0,1,1,.717-.716l3.389,3.389,6.442-6.443a.507.507,0,1,1,.717.717l-6.8,6.8A.5.5,0,0,1,321.775,376.132Z" transform="translate(-317.521 -368.318)"/></g></svg>