<svg xmlns="http://www.w3.org/2000/svg" width="20" height="20" viewBox="0 0 20 20"><defs><style>.a{fill:none;}.b{fill:#4a81fd;}</style></defs><rect class="a" width="20" height="20"/><g transform="translate(2.499)"><path class="b" d="M388.482,376.832h-6.85V361.513h6.326v4.4a.506.506,0,0,0,.506.507h4.4v.337a.507.507,0,0,0,1.013,0v-.843c0-.011-.006-.021-.007-.032a.535.535,0,0,0-.026-.13c-.006-.016-.01-.032-.017-.048a.484.484,0,0,0-.1-.148l-4.911-4.911a.491.491,0,0,0-.149-.1c-.015-.007-.03-.011-.045-.017a.519.519,0,0,0-.133-.026c-.011,0-.021-.007-.032-.007h-7.338a.506.506,0,0,0-.507.507v16.332a.506.506,0,0,0,.507.507h7.357a.507.507,0,1,0,0-1.013Zm3.67-11.422h-3.182v-3.182Z" transform="translate(-380.619 -360.5)"/><path class="b" d="M384.12,365.4a.506.506,0,1,0,0,1.012h2.9a.506.506,0,1,0,0-1.012Z" transform="translate(-381.118 -361.317)"/><path class="b" d="M391.095,370.806a.506.506,0,0,0-.507-.507H384.12a.507.507,0,1,0,0,1.013h6.468A.506.506,0,0,0,391.095,370.806Z" transform="translate(-381.118 -362.133)"/><path class="b" d="M389.888,375.2H384.12a.506.506,0,1,0,0,1.012h5.768a.506.506,0,1,0,0-1.012Z" transform="translate(-381.118 -362.95)"/><path class="b" d="M397.242,375.734V371.7a.5.5,0,0,0-.13-.339l-1.426-1.584a.506.506,0,0,0-.753,0l-1.426,1.584a.506.506,0,0,0,.018.7l.5.5-.5.5a.506.506,0,0,0,0,.716l.5.5-.5.5a.507.507,0,0,0,0,.717l.318.318a3.358,3.358,0,1,0,3.4-.06Zm-1.647,5.271a2.345,2.345,0,0,1-.724-4.575.507.507,0,0,0,.2-.84l-.473-.472.5-.5a.507.507,0,0,0,0-.717l-.5-.5.5-.5a.507.507,0,0,0,0-.717l-.516-.516.728-.808.919,1.022v4.158a.506.506,0,0,0,.3.463,2.345,2.345,0,0,1-.937,4.494Z" transform="translate(-382.555 -362.018)"/><circle class="b" cx="0.696" cy="0.696" r="0.696" transform="translate(12.343 16.975)"/></g></svg>