<svg id="Layer_1" data-name="Layer 1" xmlns="http://www.w3.org/2000/svg" xmlns:xlink="http://www.w3.org/1999/xlink" viewBox="0 0 40 40"><defs><style>.cls-1{fill:none;}.cls-2{clip-path:url(#clip-path);}.cls-3{fill:#4a81fd;}</style><clipPath id="clip-path"><rect class="cls-1" width="40" height="40"/></clipPath></defs><title>52</title><g class="cls-2"><g id="组件"><g id="组_1180" data-name="组 1180"><rect id="矩形_1318" data-name="矩形 1318" class="cls-3" x="6.66" y="24.45" width="2.22" height="2.22"/><rect id="矩形_1323" data-name="矩形 1323" class="cls-3" x="8.88" y="22.22" width="2.22" height="2.22"/><rect id="矩形_1327" data-name="矩形 1327" class="cls-3" x="11.1" y="20" width="2.22" height="2.22"/><rect id="矩形_1330" data-name="矩形 1330" class="cls-3" x="13.33" y="17.78" width="2.22" height="2.22"/><rect id="矩形_1332" data-name="矩形 1332" class="cls-3" x="15.55" y="15.56" width="2.22" height="2.22"/><rect id="矩形_1343" data-name="矩形 1343" class="cls-3" x="17.77" y="13.33" width="2.22" height="2.22"/><rect id="矩形_1345" data-name="矩形 1345" class="cls-3" x="19.99" y="11.11" width="2.22" height="2.22"/><rect id="矩形_1344" data-name="矩形 1344" class="cls-3" x="22.22" y="13.33" width="2.22" height="2.22"/><rect id="矩形_1341" data-name="矩形 1341" class="cls-3" x="19.99" y="15.56" width="2.22" height="2.22"/><rect id="矩形_1342" data-name="矩形 1342" class="cls-3" x="24.44" y="15.56" width="2.22" height="2.22"/><rect id="矩形_1331" data-name="矩形 1331" class="cls-3" x="17.77" y="17.78" width="2.22" height="2.22"/><rect id="矩形_1339" data-name="矩形 1339" class="cls-3" x="22.22" y="17.78" width="2.22" height="2.22"/><rect id="矩形_1340" data-name="矩形 1340" class="cls-3" x="26.66" y="17.78" width="2.22" height="2.22"/><rect id="矩形_1328" data-name="矩形 1328" class="cls-3" x="15.55" y="20" width="2.22" height="2.22"/><rect id="矩形_1329" data-name="矩形 1329" class="cls-3" x="19.99" y="20" width="2.22" height="2.22"/><rect id="矩形_1337" data-name="矩形 1337" class="cls-3" x="24.44" y="20" width="2.22" height="2.22"/><rect id="矩形_1338" data-name="矩形 1338" class="cls-3" x="28.89" y="20" width="2.22" height="2.22"/><rect id="矩形_1324" data-name="矩形 1324" class="cls-3" x="13.33" y="22.22" width="2.22" height="2.22"/><rect id="矩形_1325" data-name="矩形 1325" class="cls-3" x="17.77" y="22.22" width="2.22" height="2.22"/><rect id="矩形_1326" data-name="矩形 1326" class="cls-3" x="22.22" y="22.22" width="2.22" height="2.22"/><rect id="矩形_1335" data-name="矩形 1335" class="cls-3" x="26.66" y="22.22" width="2.22" height="2.22"/><rect id="矩形_1336" data-name="矩形 1336" class="cls-3" x="31.11" y="22.22" width="2.22" height="2.22"/><rect id="矩形_1319" data-name="矩形 1319" class="cls-3" x="11.1" y="24.45" width="2.22" height="2.22"/><rect id="矩形_1320" data-name="矩形 1320" class="cls-3" x="15.55" y="24.45" width="2.22" height="2.22"/><rect id="矩形_1321" data-name="矩形 1321" class="cls-3" x="19.99" y="24.45" width="2.22" height="2.22"/><rect id="矩形_1322" data-name="矩形 1322" class="cls-3" x="24.44" y="24.45" width="2.22" height="2.22"/><rect id="矩形_1333" data-name="矩形 1333" class="cls-3" x="28.89" y="24.45" width="2.22" height="2.22"/><rect id="矩形_1334" data-name="矩形 1334" class="cls-3" x="33.33" y="24.45" width="2.22" height="2.22"/></g><g id="组_1179" data-name="组 1179"><g id="组_38" data-name="组 38"><g id="组_25" data-name="组 25"><path id="Combined-Shape" class="cls-3" d="M.77,7.44A.77.77,0,0,1,0,6.67V.77C0,.34.51,0,.93,0H6.75A.77.77,0,0,1,7.5.8a.79.79,0,0,1-.75.76H1.54V6.67A.78.78,0,0,1,.77,7.44Zm38.46,0a.78.78,0,0,1-.77-.77V1.56H34.09a.78.78,0,0,1-.75-.81A.77.77,0,0,1,34.09,0H39.4c.42,0,.6.34.6.77v5.9a.76.76,0,0,1-.77.77ZM6.75,40H.93C.51,40,0,39.65,0,39.23v-5.9a.77.77,0,0,1,1.54,0v5.11H6.75a.77.77,0,0,1,.75.81.78.78,0,0,1-.75.75ZM39.4,40H34.09a.78.78,0,0,1-.75-.81.77.77,0,0,1,.75-.75h4.37V33.33a.77.77,0,1,1,1.54,0v5.9c0,.43-.18.77-.6.77Z"/></g></g></g></g></g></svg>