<svg xmlns="http://www.w3.org/2000/svg" viewBox="0 0 54 54"><defs><style>.a{isolation:isolate;}.b{fill:#4579f0;}</style></defs><title>design-innovation</title><g class="a"><g class="a"><path class="b" d="M45.78,32.06,54,46.41l-.74,6.12A1.53,1.53,0,0,1,51.58,54a2,2,0,0,1-.64-.1l-5.69-2.43L37,37.23a29.51,29.51,0,0,1-9.81,1.69A28.54,28.54,0,0,1,17.09,37L8.75,51.47,3.06,53.9a2,2,0,0,1-.63.1A1.53,1.53,0,0,1,.74,52.53L0,46.41,8.44,31.75a27.3,27.3,0,0,1-5.59-6.33.88.88,0,0,1,.31-1.27l1.48-.84c.42-.28.77-.17,1.06.32a22.71,22.71,0,0,0,4.43,5.16l8-13.81a10.05,10.05,0,0,1-1.26-4.85A9.76,9.76,0,0,1,19.83,3,9.8,9.8,0,0,1,27,0a9.8,9.8,0,0,1,7.17,3,9.77,9.77,0,0,1,3,7.18A10,10,0,0,1,35.86,15l8.23,14.13a24.15,24.15,0,0,0,4.64-5.48.75.75,0,0,1,1.16-.32l1.48.84a.85.85,0,0,1,.31,1.27A30.48,30.48,0,0,1,45.78,32.06ZM6.43,48.73,23.31,19.51a9.33,9.33,0,0,1-2.85-1.79L3.48,47l.32,2.85ZM27.21,35.54a25.4,25.4,0,0,0,8.12-1.37L27.21,20.25h-.42l-8,13.82A25.56,25.56,0,0,0,27.21,35.54ZM31.8,5.33A6.52,6.52,0,0,0,27,3.38a6.66,6.66,0,0,0-6.75,6.75,6.52,6.52,0,0,0,1.95,4.79,6.49,6.49,0,0,0,4.8,2,6.49,6.49,0,0,0,4.8-2,6.52,6.52,0,0,0,1.95-4.79A6.52,6.52,0,0,0,31.8,5.33Zm9.55,25.89-7.81-13.5a9.21,9.21,0,0,1-2.85,1.79l7.7,13.4A20.31,20.31,0,0,0,41.35,31.22Zm8.86,18.67L50.52,47,43,34.17a29.62,29.62,0,0,1-3,1.69l7.49,12.87Z" transform="translate(0)"/></g></g></svg>