<svg xmlns="http://www.w3.org/2000/svg" viewBox="0 0 69.43 54"><defs><style>.a{isolation:isolate;}.b{fill:#4579f0;}</style></defs><title>how-to</title><g class="a"><g class="a"><path class="b" d="M62.08,0a7.16,7.16,0,0,1,5.18,2.11,6.73,6.73,0,0,1,2.17,5v35.8a6.57,6.57,0,0,1-2.05,4.82A7.66,7.66,0,0,1,62.44,50q-13.86.6-21.94,3.62a5.45,5.45,0,0,1-1.93.36H30.86a5.45,5.45,0,0,1-1.93-.36Q20.86,50.63,7,50a7.66,7.66,0,0,1-4.94-2.29,6.57,6.57,0,0,1-2-4.82V7.11a6.73,6.73,0,0,1,2.17-5A7.16,7.16,0,0,1,7.35,0,80.82,80.82,0,0,1,19.89,1.39a47.12,47.12,0,0,1,14,4.4,1.61,1.61,0,0,0,1.69,0,47.21,47.21,0,0,1,14-4.4A80.94,80.94,0,0,1,62.08,0ZM32.79,48.34V11.81A3.56,3.56,0,0,0,30.5,8.44,49.29,49.29,0,0,0,18,4.94,78,78,0,0,0,7.35,3.86,3.58,3.58,0,0,0,6.21,4,3.66,3.66,0,0,0,4.52,5.18,2.8,2.8,0,0,0,4,6.09a3.23,3.23,0,0,0-.18,1v35.8a3,3,0,0,0,1,2.17,3.66,3.66,0,0,0,2.29,1.09q14.6.72,23.15,3.85a2.27,2.27,0,0,0,.72.12,1.77,1.77,0,0,0,1.27-.54A1.73,1.73,0,0,0,32.79,48.34Zm32.78-5.43V7.11a3.06,3.06,0,0,0-1-2.29,3.48,3.48,0,0,0-2.47-1A78,78,0,0,0,51.47,4.94a49.09,49.09,0,0,0-12.53,3.5,3.55,3.55,0,0,0-2.3,3.37V48.34a1.86,1.86,0,0,0,1.81,1.8,2.33,2.33,0,0,0,.73-.12q8.55-3.14,23.14-3.85a3.64,3.64,0,0,0,2.29-1.09A3,3,0,0,0,65.57,42.91Z" transform="translate(0)"/></g></g></svg>