<svg xmlns="http://www.w3.org/2000/svg" viewBox="0 0 54 54"><defs><style>.a{isolation:isolate;}.b{fill:#4579f0;}</style></defs><title>lifestyle-entertainment</title><g class="a"><g class="a"><path class="b" d="M43.88,20.25A10.07,10.07,0,0,1,54,30.38,10.07,10.07,0,0,1,43.88,40.5H40.5v3.38A10.07,10.07,0,0,1,30.38,54H10.13a9.76,9.76,0,0,1-7.18-3A9.76,9.76,0,0,1,0,43.88V23.63a3.24,3.24,0,0,1,1-2.38,3.28,3.28,0,0,1,2.38-1ZM37.13,43.88V23.63H3.38V43.88a6.44,6.44,0,0,0,2,4.74,6.47,6.47,0,0,0,4.75,2H30.38a6.87,6.87,0,0,0,6.75-6.75Zm-27-35.65A10.89,10.89,0,0,1,6.75,1C6.75.32,7,0,7.59,0H9.28c.56,0,.85.25.85.74a8.54,8.54,0,0,0,2.32,5.17A14.92,14.92,0,0,1,16.88,16a.75.75,0,0,1-.85.85H14.34A.75.75,0,0,1,13.5,16,12.07,12.07,0,0,0,10.13,8.23Zm10,0A11.1,11.1,0,0,1,16.88,1c0-.63.28-.95.84-.95h1.69a.77.77,0,0,1,.84.74,7.82,7.82,0,0,0,2.32,5.17A14.92,14.92,0,0,1,27,16a.75.75,0,0,1-.84.85H24.47a.75.75,0,0,1-.84-.85A11.79,11.79,0,0,0,20.15,8.23Zm23.73,28.9a6.87,6.87,0,0,0,6.75-6.75,6.85,6.85,0,0,0-6.75-6.75H40.5v13.5Z"/></g></g></svg>