<svg xmlns="http://www.w3.org/2000/svg" viewBox="0 0 61.71 54"><defs><style>.a{isolation:isolate;}.b{fill:#4579f0;}</style></defs><title>software-apps</title><g class="a"><g class="a"><path class="b" d="M55.93,0A5.57,5.57,0,0,1,60,1.69a5.58,5.58,0,0,1,1.68,4.1V48.21A5.75,5.75,0,0,1,55.93,54H5.78a5.55,5.55,0,0,1-4.09-1.69A5.55,5.55,0,0,1,0,48.21V5.79a5.55,5.55,0,0,1,1.69-4.1A5.55,5.55,0,0,1,5.78,0ZM3.86,5.79v5.78h7.71V3.86H5.78A1.87,1.87,0,0,0,4.4,4.4,1.89,1.89,0,0,0,3.86,5.79Zm54,42.42V15.43h-54V48.21a1.85,1.85,0,0,0,1.92,1.93H55.93a1.87,1.87,0,0,0,1.38-.54A1.85,1.85,0,0,0,57.86,48.21Zm0-36.64V5.79a1.86,1.86,0,0,0-1.93-1.93H15.43v7.71Z" transform="translate(0 0)"/></g></g></svg>