<svg id="Layer_1" data-name="Layer 1" xmlns="http://www.w3.org/2000/svg" viewBox="0 0 40 34"><defs><style>.cls-1{fill:#4a81fd;}</style></defs><title>Toolbar icon list</title><path id="路径_169" data-name="路径 169" class="cls-1" d="M36.67,33.86H3.33A3.27,3.27,0,0,1,0,30.64V3.08A3.28,3.28,0,0,1,3.33-.14H36.67A3.28,3.28,0,0,1,40,3.08V30.64A3.27,3.27,0,0,1,36.67,33.86ZM3.33,1A2.09,2.09,0,0,0,1.21,3.08V30.64a2.09,2.09,0,0,0,2.12,2H36.67a2.09,2.09,0,0,0,2.12-2V3.08a2.09,2.09,0,0,0-2.12-2Z"/><path class="cls-1" d="M19.73,19.14H15.9v3.39h3.54v1H15.9V27.9H14.75V18.1h5Z"/><path class="cls-1" d="M25.25,27.9H24.13V19.43a2.28,2.28,0,0,1-.38.3c-.17.11-.35.22-.56.33a6.67,6.67,0,0,1-.66.31,4.84,4.84,0,0,1-.67.23V19.46a7.27,7.27,0,0,0,.78-.27c.28-.12.55-.25.82-.39s.51-.3.75-.46a5.55,5.55,0,0,0,.62-.46h.42Z"/></svg>