<?xml version="1.0" encoding="UTF-8"?>
<svg width="50px" height="50px" viewBox="0 0 50 50" version="1.1" xmlns="http://www.w3.org/2000/svg" xmlns:xlink="http://www.w3.org/1999/xlink">
    <!-- Generator: Sketch 53.2 (72643) - https://sketchapp.com -->
    <title>AT/ICO/FA-Bolt@2x</title>
    <desc>Created with Sketch.</desc>
    <g id="AT/ICO/FA-Bolt" stroke="none" stroke-width="1" fill="none" fill-rule="evenodd">
        <path d="M37.907283,15.625 L26.6377517,15.625 L30.797908,2.94921875 C31.188533,1.46484375 30.0654861,0 28.532283,0 L14.469783,0 C13.297908,0 12.3018142,0.869140625 12.1455642,2.03125 L9.02056424,25.46875 C8.83501736,26.875 9.92876736,28.125 11.344783,28.125 L22.9365799,28.125 L18.4346267,47.1191406 C18.0830642,48.6035156 19.2158767,50 20.7100174,50 C21.5205642,50 22.3115799,49.5703125 22.7412674,48.828125 L39.9287674,19.140625 C40.8369705,17.5878906 39.7139236,15.625 37.907283,15.625 Z M22.7022049,42.6660156 L25.9736892,28.8378906 L26.8818924,24.9902344 L12.2334549,24.9902344 L15.1533767,3.125 L27.4482986,3.125 L23.6690017,14.6484375 L22.3213455,18.75 L36.5498611,18.75 L22.7022049,42.6660156 Z" fill="#000000" fill-rule="nonzero"></path>
    </g>
</svg>