<?xml version="1.0" encoding="UTF-8"?>
<svg width="50px" height="50px" viewBox="0 0 50 50" version="1.1" xmlns="http://www.w3.org/2000/svg" xmlns:xlink="http://www.w3.org/1999/xlink">
    <!-- Generator: Sketch 53.2 (72643) - https://sketchapp.com -->
    <title>AT/ICO/FA-Battery-bolt@2x</title>
    <desc>Created with Sketch.</desc>
    <g id="AT/ICO/FA-Battery-bolt" stroke="none" stroke-width="1" fill="none" fill-rule="evenodd">
        <path d="M50,19.875 L50,31.125 C50,32.1605469 49.1605469,33 48.125,33 L47.5,33 L47.5,34.25 C47.5,36.3210938 45.8210937,38 43.75,38 L31.3039062,38 L32.7123438,35.5 L43.75,35.5 C44.4392969,35.5 45,34.9392969 45,34.25 L45,30.5 L47.5,30.5 L47.5,20.5 L45,20.5 L45,16.75 C45,16.0607031 44.4392969,15.5 43.75,15.5 L36.658125,15.5 C35.6250781,14.7808594 34.4527344,14.379375 33.2667187,14.2765625 L33.5769531,13.0894531 C33.5848437,13.0596875 33.591875,13.0298437 33.599375,13 L43.75,13 C45.8210937,13 47.5,14.6789063 47.5,16.75 L47.5,18 L48.125,18 C49.1605469,18 50,18.8394531 50,19.875 Z M2.5,34.25 L2.5,16.75 C2.5,16.0607031 3.06070312,15.5 3.75,15.5 L11.2021875,15.5 L11.4529687,13 L3.75,13 C1.67890625,13 0,14.6789063 0,16.75 L0,34.25 C0,36.3210938 1.67890625,38 3.75,38 L15.4479687,38 C15.450625,37.9896094 15.4528906,37.9791406 15.4555469,37.96875 L16.0578906,35.5 L3.75,35.5 C3.06070312,35.5 2.5,34.9392969 2.5,34.25 Z M35.516875,22.8819531 L25.13,41.3189062 C24.5345312,42.384375 23.4226562,43 22.2644531,43 C20.1320312,43 18.5421875,40.9764844 19.0921875,38.8840625 L21.7479687,28 L17.3440625,28 C15.41125,28 13.8948437,26.3349219 14.0775,24.4090625 L15.4253125,10.9715625 C15.5849219,9.286875 16.9996094,8 18.6917969,8 L26.7821875,8 C28.9428125,8 30.5096094,10.0525 29.9511719,12.1321875 L28.4175781,18 L32.6525781,18 C35.1550781,18 36.7375781,20.6975 35.516875,22.8819531 Z M32.6525,20.5 L25.1801562,20.5 L27.5325,11.5 L27.5346094,11.491875 L27.5367969,11.4838281 C27.6696094,10.9892188 27.2963281,10.5 26.7822656,10.5 L18.6917969,10.5 C18.288305,10.4984969 17.950604,10.8056705 17.9139844,11.2075 L17.9133594,11.2142969 L17.9126562,11.2210938 L16.5657812,24.6492969 C16.5249219,25.1046875 16.8852344,25.5000781 17.3439062,25.5000781 L24.9311719,25.5000781 L21.5207812,39.4767969 L21.5155469,39.4982812 L21.5099219,39.5196875 C21.3753125,40.0317969 21.7735156,40.5 22.2642969,40.5 C22.4863281,40.5 22.7824219,40.3947656 22.9474219,40.099375 L22.9495312,40.095625 L22.9516406,40.091875 L33.3351562,21.6609375 C33.6236719,21.1426563 33.2476562,20.5 32.6525,20.5 Z" fill="#000000" fill-rule="nonzero"></path>
    </g>
</svg>