<?xml version="1.0" encoding="UTF-8"?>
<svg width="50px" height="50px" viewBox="0 0 50 50" version="1.1" xmlns="http://www.w3.org/2000/svg" xmlns:xlink="http://www.w3.org/1999/xlink">
    <!-- Generator: Sketch 53.2 (72643) - https://sketchapp.com -->
    <title>AT/ICO/FA-Battery-three-quarters@2x</title>
    <desc>Created with Sketch.</desc>
    <g id="AT/ICO/FA-Battery-three-quarters" stroke="none" stroke-width="1" fill="none" fill-rule="evenodd">
        <path d="M43.75,15.5 C44.4392969,15.5 45,16.0607031 45,16.75 L45,20.5 L47.5,20.5 L47.5,30.5 L45,30.5 L45,34.25 C45,34.9392969 44.4392969,35.5 43.75,35.5 L3.75,35.5 C3.06070312,35.5 2.5,34.9392969 2.5,34.25 L2.5,16.75 C2.5,16.0607031 3.06070312,15.5 3.75,15.5 L43.75,15.5 L43.75,15.5 Z M43.75,13 L3.75,13 C1.67890625,13 0,14.6789062 0,16.75 L0,34.25 C0,36.3210938 1.67890625,38 3.75,38 L43.75,38 C45.8210937,38 47.5,36.3210938 47.5,34.25 L47.5,33 L48.125,33 C49.1605469,33 50,32.1605469 50,31.125 L50,19.875 C50,18.8394531 49.1605469,18 48.125,18 L47.5,18 L47.5,16.75 C47.5,14.6789062 45.8210937,13 43.75,13 Z M10,30.03125 L10,20.96875 C10,20.7098665 9.79013348,20.5 9.53125,20.5 L7.96875,20.5 C7.70986652,20.5 7.5,20.7098665 7.5,20.96875 L7.5,30.03125 C7.5,30.2901335 7.70986652,30.5 7.96875,30.5 L9.53125,30.5 C9.79013348,30.5 10,30.2901335 10,30.03125 Z M15,30.03125 L15,20.96875 C15,20.7098665 14.7901335,20.5 14.53125,20.5 L12.96875,20.5 C12.7098665,20.5 12.5,20.7098665 12.5,20.96875 L12.5,30.03125 C12.5,30.2901335 12.7098665,30.5 12.96875,30.5 L14.53125,30.5 C14.7901335,30.5 15,30.2901335 15,30.03125 Z M20,30.03125 L20,20.96875 C20,20.7098665 19.7901335,20.5 19.53125,20.5 L17.96875,20.5 C17.7098665,20.5 17.5,20.7098665 17.5,20.96875 L17.5,30.03125 C17.5,30.2901335 17.7098665,30.5 17.96875,30.5 L19.53125,30.5 C19.7901335,30.5 20,30.2901335 20,30.03125 L20,30.03125 Z M25,30.03125 L25,20.96875 C25,20.7098665 24.7901335,20.5 24.53125,20.5 L22.96875,20.5 C22.7098665,20.5 22.5,20.7098665 22.5,20.96875 L22.5,30.03125 C22.5,30.2901335 22.7098665,30.5 22.96875,30.5 L24.53125,30.5 C24.7901335,30.5 25,30.2901335 25,30.03125 Z M30,30.03125 L30,20.96875 C30,20.7098665 29.7901335,20.5 29.53125,20.5 L27.96875,20.5 C27.7098665,20.5 27.5,20.7098665 27.5,20.96875 L27.5,30.03125 C27.5,30.2901335 27.7098665,30.5 27.96875,30.5 L29.53125,30.5 C29.7901335,30.5 30,30.2901335 30,30.03125 Z M35,30.03125 L35,20.96875 C35,20.7098665 34.7901335,20.5 34.53125,20.5 L32.96875,20.5 C32.7098665,20.5 32.5,20.7098665 32.5,20.96875 L32.5,30.03125 C32.5,30.2901335 32.7098665,30.5 32.96875,30.5 L34.53125,30.5 C34.7901335,30.5 35,30.2901335 35,30.03125 L35,30.03125 Z" fill="#000000" fill-rule="nonzero"></path>
    </g>
</svg>