<?xml version="1.0" encoding="UTF-8"?>
<svg width="50px" height="50px" viewBox="0 0 50 50" version="1.1" xmlns="http://www.w3.org/2000/svg" xmlns:xlink="http://www.w3.org/1999/xlink">
    <!-- Generator: Sketch 53.2 (72643) - https://sketchapp.com -->
    <title>AT/ICO/FA-Briefcase@2x</title>
    <desc>Created with Sketch.</desc>
    <g id="AT/ICO/FA-Briefcase" stroke="none" stroke-width="1" fill="none" fill-rule="evenodd">
        <path d="M45.3125,12.375 L34.375,12.375 L34.375,5.34375 C34.375,4.04882812 33.3261719,3 32.03125,3 L17.96875,3 C16.6738281,3 15.625,4.04882812 15.625,5.34375 L15.625,12.375 L4.6875,12.375 C2.09863281,12.375 0,14.4736328 0,17.0625 L0,42.0625 C0,44.6513672 2.09863281,46.75 4.6875,46.75 L45.3125,46.75 C47.9013672,46.75 50,44.6513672 50,42.0625 L50,17.0625 C50,14.4736328 47.9013672,12.375 45.3125,12.375 Z M18.75,6.125 L31.25,6.125 L31.25,12.375 L18.75,12.375 L18.75,6.125 Z M46.875,42.0625 C46.875,42.9238281 46.1738281,43.625 45.3125,43.625 L4.6875,43.625 C3.82617188,43.625 3.125,42.9238281 3.125,42.0625 L3.125,28 L18.75,28 L18.75,31.90625 C18.75,33.2001953 19.7998047,34.25 21.09375,34.25 L28.90625,34.25 C30.2001953,34.25 31.25,33.2001953 31.25,31.90625 L31.25,28 L46.875,28 L46.875,42.0625 Z M21.875,31.125 L21.875,28 L28.125,28 L28.125,31.125 L21.875,31.125 Z M46.875,24.875 L3.125,24.875 L3.125,17.0625 C3.125,16.2011719 3.82617188,15.5 4.6875,15.5 L45.3125,15.5 C46.1738281,15.5 46.875,16.2011719 46.875,17.0625 L46.875,24.875 Z" fill="#000000" fill-rule="nonzero"></path>
    </g>
</svg>