<?xml version="1.0" encoding="UTF-8"?>
<svg width="50px" height="50px" viewBox="0 0 50 50" version="1.1" xmlns="http://www.w3.org/2000/svg" xmlns:xlink="http://www.w3.org/1999/xlink">
    <!-- Generator: Sketch 53.2 (72643) - https://sketchapp.com -->
    <title>AT/ICO/FA-Child@2x</title>
    <desc>Created with Sketch.</desc>
    <g id="AT/ICO/FA-Child" stroke="none" stroke-width="1" fill="none" fill-rule="evenodd">
        <path d="M43.7976318,8.86191406 C41.4822021,6.54677734 37.6128662,6.20449219 34.6845459,9.13300781 C34.555835,4.07470703 30.4011475,0 25.3125732,0 C20.224292,0 16.0697021,4.07509766 15.9406006,9.13291016 C13.002417,6.19472656 9.13288574,6.55683594 6.82770996,8.86162109 C4.3907959,11.2987305 4.3907959,15.2637695 6.82751465,17.7005859 L14.3750732,25.2452148 L14.3750732,44.53125 C14.3750732,47.5467773 16.8283936,50 19.8438232,50 L21.4063232,50 C22.9350342,50 24.3192139,49.3695313 25.3125732,48.3548828 C26.3059326,49.3695313 27.6901123,50 29.2188232,50 L30.7813232,50 C33.7967529,50 36.2500732,47.5467773 36.2500732,44.53125 L36.2500732,25.2452148 L43.7975342,17.7006836 C46.2342529,15.2637695 46.2342529,11.2987305 43.7976318,8.86191406 Z M25.3125732,3.125 C28.7643311,3.125 31.5625732,5.92324219 31.5625732,9.375 C31.5625732,12.8267578 28.7643311,15.625 25.3125732,15.625 C21.8608154,15.625 19.0625732,12.8267578 19.0625732,9.375 C19.0625732,5.92324219 21.8608154,3.125 25.3125732,3.125 Z M41.5848389,15.4910156 L33.1250732,23.9507812 L33.1250732,44.53125 C33.1250732,45.8256836 32.0757568,46.875 30.7813232,46.875 L29.2188232,46.875 C27.9243896,46.875 26.8750732,45.8256836 26.8750732,44.53125 L26.8750732,33.59375 L23.7500732,33.59375 L23.7500732,44.53125 C23.7500732,45.8256836 22.7007568,46.875 21.4063232,46.875 L19.8438232,46.875 C18.5493896,46.875 17.5000732,45.8256836 17.5000732,44.53125 L17.5000732,23.9507812 L9.04030762,15.4910156 C7.81999512,14.2706055 7.81999512,12.2918945 9.04030762,11.0714844 C10.2608154,9.85117187 12.2392334,9.85107422 13.4598389,11.0714844 L21.1383545,18.75 L29.486792,18.75 L37.1653076,11.0714844 C38.3858154,9.85117187 40.3642334,9.85107422 41.5848389,11.0714844 C42.8051514,12.2918945 42.8051514,14.2706055 41.5848389,15.4910156 L41.5848389,15.4910156 Z" id="Shape" fill="#4A81FD" fill-rule="nonzero"></path>
    </g>
</svg>