<?xml version="1.0" encoding="UTF-8"?>
<svg width="50px" height="50px" viewBox="0 0 50 50" version="1.1" xmlns="http://www.w3.org/2000/svg" xmlns:xlink="http://www.w3.org/1999/xlink">
    <!-- Generator: Sketch 53.2 (72643) - https://sketchapp.com -->
    <title>AT/ICO/FA-Camera@2x</title>
    <desc>Created with Sketch.</desc>
    <g id="AT/ICO/FA-Camera" stroke="none" stroke-width="1" fill="none" fill-rule="evenodd">
        <path d="M31.6699219,6.125 C31.9921875,6.125 32.2851562,6.33007812 32.4023438,6.6328125 L34.5605469,12.375 L45.3125,12.375 C46.171875,12.375 46.875,13.078125 46.875,13.9375 L46.875,42.0625 C46.875,42.921875 46.171875,43.625 45.3125,43.625 L4.6875,43.625 C3.828125,43.625 3.125,42.921875 3.125,42.0625 L3.125,13.9375 C3.125,13.078125 3.828125,12.375 4.6875,12.375 L15.4492188,12.375 L17.4121094,7.140625 C17.6367188,6.53515625 18.2226562,6.125 18.8769531,6.125 L31.6699219,6.125 L31.6699219,6.125 Z M31.6699219,3 L18.8769531,3 C16.9238281,3 15.1757812,4.2109375 14.4921875,6.03710938 L13.28125,9.25 L4.6875,9.25 C2.09960938,9.25 0,11.3496094 0,13.9375 L0,42.0625 C0,44.6503906 2.09960938,46.75 4.6875,46.75 L45.3125,46.75 C47.9003906,46.75 50,44.6503906 50,42.0625 L50,13.9375 C50,11.3496094 47.9003906,9.25 45.3125,9.25 L36.71875,9.25 L35.3222656,5.5390625 C34.7558594,4.00585938 33.3007812,3 31.6699219,3 Z M25,39.71875 C18.5351562,39.71875 13.28125,34.4648438 13.28125,28 C13.28125,21.5351562 18.5351562,16.28125 25,16.28125 C31.4648438,16.28125 36.71875,21.5351562 36.71875,28 C36.71875,34.4648438 31.4648438,39.71875 25,39.71875 Z M25,19.40625 C20.2636719,19.40625 16.40625,23.2636719 16.40625,28 C16.40625,32.7363281 20.2636719,36.59375 25,36.59375 C29.7363281,36.59375 33.59375,32.7363281 33.59375,28 C33.59375,23.2636719 29.7363281,19.40625 25,19.40625 Z" fill="#000000" fill-rule="nonzero"></path>
    </g>
</svg>