<?xml version="1.0" encoding="UTF-8"?>
<svg width="50px" height="50px" viewBox="0 0 50 50" version="1.1" xmlns="http://www.w3.org/2000/svg" xmlns:xlink="http://www.w3.org/1999/xlink">
    <!-- Generator: Sketch 53.2 (72643) - https://sketchapp.com -->
    <title>AT/ICO/FA-Eye@2x</title>
    <desc>Created with Sketch.</desc>
    <g id="AT/ICO/FA-Eye" stroke="none" stroke-width="1" fill="none" fill-rule="evenodd">
        <path d="M24.9999525,27.8888859 C27.8227408,27.8888859 30.1110628,25.6005639 30.1110628,22.7777757 C30.1110628,19.9549874 27.8227408,17.6666654 24.9999525,17.6666654 C24.9200914,17.6666654 24.8498136,17.6858321 24.7723484,17.6898251 C25.2751729,19.0745618 24.9307947,20.6251936 23.8890825,21.6669057 C22.8473704,22.7086178 21.2967387,23.0529961 19.912002,22.5501715 C19.912002,22.6300326 19.8888422,22.7003104 19.8888422,22.7777757 C19.8888422,25.6005639 22.1771642,27.8888859 24.9999525,27.8888859 L24.9999525,27.8888859 Z M47.7220321,24.1673588 C43.3911647,15.717256 34.8172773,10 24.9999525,10 C15.1826277,10 6.60634445,15.721249 2.27787295,24.1681574 C1.90737568,24.9010425 1.90737568,25.7664177 2.27787295,26.4993028 C6.60874028,34.9494056 15.1826277,40.6666616 24.9999525,40.6666616 C34.8172773,40.6666616 43.3935605,34.9454125 47.7220321,26.4985042 C48.0925293,25.7656191 48.0925293,24.9002439 47.7220321,24.1673588 Z M24.9999525,12.5555551 C30.645529,12.5555551 35.222173,17.1321991 35.222173,22.7777757 C35.222173,28.4233522 30.645529,32.9999962 24.9999525,32.9999962 C19.354376,32.9999962 14.777732,28.4233522 14.777732,22.7777757 C14.7838939,17.1347535 19.3569303,12.5617171 24.9999525,12.5555551 Z M24.9999525,38.1111064 C16.426065,38.1111064 8.59169134,33.2148225 4.55551146,25.3333308 C6.82550745,20.8770108 10.455707,17.2593986 14.9198847,15.004895 C13.2531836,17.1627419 12.2221768,19.8364914 12.2221768,22.7777757 C12.2221768,29.8347463 17.9429819,35.5555513 24.9999525,35.5555513 C32.0569231,35.5555513 37.7777282,29.8347463 37.7777282,22.7777757 C37.7777282,19.8364914 36.7467214,17.1627419 35.0800203,15.004895 C39.544198,17.2593986 43.1743976,20.8770108 45.4443935,25.3333308 C41.4090123,33.2148225 33.57384,38.1111064 24.9999525,38.1111064 Z" fill="#000000" fill-rule="nonzero"></path>
    </g>
</svg>