<?xml version="1.0" encoding="UTF-8"?>
<svg width="50px" height="50px" viewBox="0 0 50 50" version="1.1" xmlns="http://www.w3.org/2000/svg" xmlns:xlink="http://www.w3.org/1999/xlink">
    <!-- Generator: Sketch 53.2 (72643) - https://sketchapp.com -->
    <title>AT/ICO/FA-Mail@2x</title>
    <desc>Created with Sketch.</desc>
    <g id="AT/ICO/FA-Mail" stroke="none" stroke-width="1" fill="none" fill-rule="evenodd">
        <path d="M45.3125,6 L4.6875,6 C2.09960938,6 0,8.09960938 0,10.6875 L0,38.8125 C0,41.4003906 2.09960938,43.5 4.6875,43.5 L45.3125,43.5 C47.9003906,43.5 50,41.4003906 50,38.8125 L50,10.6875 C50,8.09960938 47.9003906,6 45.3125,6 Z M4.6875,9.125 L45.3125,9.125 C46.171875,9.125 46.875,9.828125 46.875,10.6875 L46.875,14.7304688 C44.7363281,16.5371094 41.6796875,19.0273438 32.1679688,26.5761719 C30.5175781,27.8847656 27.265625,31.0390625 25,31 C22.734375,31.0390625 19.4726562,27.8847656 17.8320312,26.5761719 C8.3203125,19.0273438 5.26367188,16.5371094 3.125,14.7304688 L3.125,10.6875 C3.125,9.828125 3.828125,9.125 4.6875,9.125 Z M45.3125,40.375 L4.6875,40.375 C3.828125,40.375 3.125,39.671875 3.125,38.8125 L3.125,18.7929688 C5.3515625,20.6191406 8.8671875,23.4414062 15.8886719,29.0175781 C17.890625,30.6191406 21.4257812,34.1445312 25,34.125 C28.5546875,34.1542969 32.0605469,30.6582031 34.1113281,29.0175781 C41.1328125,23.4414062 44.6484375,20.6191406 46.875,18.7929688 L46.875,38.8125 C46.875,39.671875 46.171875,40.375 45.3125,40.375 Z" id="Shape" fill="#4A81FD" fill-rule="nonzero"></path>
    </g>
</svg>