<?xml version="1.0" encoding="UTF-8"?>
<svg width="50px" height="50px" viewBox="0 0 50 50" version="1.1" xmlns="http://www.w3.org/2000/svg" xmlns:xlink="http://www.w3.org/1999/xlink">
    <!-- Generator: Sketch 53.2 (72643) - https://sketchapp.com -->
    <title>AT/ICO/FA-Plug@2x</title>
    <desc>Created with Sketch.</desc>
    <g id="AT/ICO/FA-Plug" stroke="none" stroke-width="1" fill="none" fill-rule="evenodd">
        <path d="M41.15625,15.625 L8.34375,15.625 C7.04931641,15.625 6,16.6743164 6,17.96875 L6,22.65625 C6,23.9506836 7.04931641,25 8.34375,25 L9.125,25 C9.125,33.1020508 15.2916992,39.7634766 23.1875,40.5474609 L23.1875,50 L26.3125,50 L26.3125,40.5474609 C34.2083008,39.7634766 40.375,33.1020508 40.375,25 L41.15625,25 C42.4506836,25 43.5,23.9506836 43.5,22.65625 L43.5,17.96875 C43.5,16.6743164 42.4506836,15.625 41.15625,15.625 Z M40.375,21.875 L37.25,21.875 L37.25,25 C37.25,31.9082031 31.6592773,37.5 24.75,37.5 C17.8417969,37.5 12.25,31.9092773 12.25,25 L12.25,21.875 L9.125,21.875 L9.125,18.75 L40.375,18.75 L40.375,21.875 Z M32.5625,14.0625 L32.5625,1.5625 C32.5625,0.699511719 33.2620117,0 34.125,0 C34.9879883,0 35.6875,0.699511719 35.6875,1.5625 L35.6875,14.0625 L32.5625,14.0625 Z M13.8125,14.0625 L13.8125,1.5625 C13.8125,0.699511719 14.5120117,0 15.375,0 C16.2379883,0 16.9375,0.699511719 16.9375,1.5625 L16.9375,14.0625 L13.8125,14.0625 Z" id="Shape" fill="#000000" fill-rule="nonzero"></path>
    </g>
</svg>