<?xml version="1.0" encoding="UTF-8"?>
<svg width="50px" height="50px" viewBox="0 0 50 50" version="1.1" xmlns="http://www.w3.org/2000/svg" xmlns:xlink="http://www.w3.org/1999/xlink">
    <!-- Generator: Sketch 53.2 (72643) - https://sketchapp.com -->
    <title>AT/ICO/FA-Tasks@2x</title>
    <desc>Created with Sketch.</desc>
    <g id="AT/ICO/FA-Tasks" stroke="none" stroke-width="1" fill="none" fill-rule="evenodd">
        <path d="M49.4152047,13.0896686 L19.3957115,13.0896686 C19.0740741,13.0896686 18.8109162,12.8265107 18.8109162,12.5048733 L18.8109162,10.165692 C18.8109162,9.84405458 19.0740741,9.58089669 19.3957115,9.58089669 L49.4152047,9.58089669 C49.7368421,9.58089669 50,9.84405458 50,10.165692 L50,12.5048733 C50,12.8265107 49.7368421,13.0896686 49.4152047,13.0896686 Z M50,28.0994152 L50,25.7602339 C50,25.4385965 49.7368421,25.1754386 49.4152047,25.1754386 L19.3957115,25.1754386 C19.0740741,25.1754386 18.8109162,25.4385965 18.8109162,25.7602339 L18.8109162,28.0994152 C18.8109162,28.4210526 19.0740741,28.6842105 19.3957115,28.6842105 L49.4152047,28.6842105 C49.7368421,28.6842105 50,28.4210526 50,28.0994152 Z M50,43.6939571 L50,41.3547758 C50,41.0331384 49.7368421,40.7699805 49.4152047,40.7699805 L19.3957115,40.7699805 C19.0740741,40.7699805 18.8109162,41.0331384 18.8109162,41.3547758 L18.8109162,43.6939571 C18.8109162,44.0155945 19.0740741,44.2787524 19.3957115,44.2787524 L49.4152047,44.2787524 C49.7368421,44.2787524 50,44.0155945 50,43.6939571 Z M6.76413255,38.625731 C4.8245614,38.625731 3.25536062,40.1949318 3.25536062,42.1345029 C3.25536062,44.0740741 4.8245614,45.6432749 6.76413255,45.6432749 C8.7037037,45.6432749 10.2339181,44.0740741 10.2339181,42.1345029 C10.2339181,40.1949318 8.7037037,38.625731 6.76413255,38.625731 Z M16.754386,6.15984405 L16.0331384,5.43859649 C15.5750487,4.98050682 14.834308,4.98050682 14.3762183,5.43859649 L6.69590643,13.1578947 L2.95321637,9.41520468 C2.49512671,8.95711501 1.75438596,8.95711501 1.2962963,9.41520468 L0.428849903,10.2826511 C-0.0292397661,10.7407407 -0.0292397661,11.4814815 0.428849903,11.9395712 L5.72124756,17.2319688 C6.17933723,17.6900585 6.92007797,17.6900585 7.37816764,17.2319688 L7.39766082,17.2124756 L16.7446394,7.82651072 C17.2124756,7.35867446 17.2124756,6.61793372 16.754386,6.15984405 Z M16.7933723,21.754386 L16.0721248,21.0331384 C15.6140351,20.5750487 14.8732943,20.5750487 14.4152047,21.0331384 L6.73489279,28.7524366 L2.99220273,25.0097466 C2.53411306,24.5516569 1.79337232,24.5516569 1.33528265,25.0097466 L0.487329435,25.877193 C0.0292397661,26.3352827 0.0292397661,27.0760234 0.487329435,27.5341131 L5.7797271,32.8265107 C6.23781676,33.2846004 6.9785575,33.2846004 7.43664717,32.8265107 L7.417154,32.8070175 L16.8031189,23.4210526 C17.251462,22.9532164 17.251462,22.2124756 16.7933723,21.754386 Z" fill="#4A81FD" fill-rule="nonzero"></path>
    </g>
</svg>