<?xml version="1.0" encoding="UTF-8"?>
<svg width="50px" height="50px" viewBox="0 0 50 50" version="1.1" xmlns="http://www.w3.org/2000/svg" xmlns:xlink="http://www.w3.org/1999/xlink">
	<!-- Generator: Sketch 53.2 (72643) - https://sketchapp.com -->
	<title>
		AT/ICO/FA-Unplugged@2x
	</title>
	<desc>
		Created with Sketch.
	</desc>
	<g id="AT/ICO/FA-Unplugged" stroke="none" stroke-width="1" fill="none" fill-rule="evenodd">
		<path d="M32.6056959,34.7270162 L34.82328,36.9446004 C34.1373553,37.52362 33.4008705,38.0446321 32.6213919,38.5000716 L30.3179157,36.1965954 C31.1355458,35.7896188 31.9021555,35.2957398 32.6056959,34.7270162 Z M16.6286797,18.75 L12.8713203,18.75 L9.74632034,15.625 L13.5036797,15.625 L16.6286797,18.75 Z M9.125,19.2463203 L9.125,21.875 L11.7536797,21.875 L12.25,22.3713203 L12.25,25 C12.25,31.9092773 17.8417969,37.5 24.75,37.5 C25.5707083,37.5 26.3728124,37.4211024 27.1491523,37.2704727 L29.7022179,39.8235383 C28.6201651,40.1848457 27.4854103,40.4310011 26.3125,40.5474609 L26.3125,50 L23.1875,50 L23.1875,40.5474609 C15.2916992,39.7634766 9.125,33.1020508 9.125,25 L8.34375,25 C7.04931641,25 6,23.9506836 6,22.65625 L6,17.96875 C6,17.4481447 6.16973211,16.9671884 6.45687848,16.5781988 L9.125,19.2463203 Z M20.8713203,18.75 L17.7463203,15.625 L41.15625,15.625 C42.4506836,15.625 43.5,16.6743164 43.5,17.96875 L43.5,22.65625 C43.5,23.9506836 42.4506836,25 41.15625,25 L40.375,25 C40.375,28.7107298 39.0814551,32.1192699 36.9206905,34.7993701 L34.6969143,32.575594 C36.2990765,30.4742435 37.25,27.8490752 37.25,25 L37.25,21.875 L40.375,21.875 L40.375,18.75 L20.8713203,18.75 Z M32.5625,14.0625 L32.5625,1.5625 C32.5625,0.699511719 33.2620117,0 34.125,0 C34.9879883,0 35.6875,0.699511719 35.6875,1.5625 L35.6875,14.0625 L32.5625,14.0625 Z M13.8125,11.7912578 L13.8125,1.5625 C13.8125,0.699511719 14.5120117,0 15.375,0 C16.2379883,0 16.9375,0.699511719 16.9375,1.5625 L16.9375,14.0625 L16,14.0625 L13.8125,11.7912578 Z M6.12132034,8 L42.890873,44.7695526 L40.7695526,46.890873 L4,10.1213203 L6.12132034,8 Z" id="Shape" fill="#000000" fill-rule="nonzero">
		</path>
	</g>
</svg>
