<svg xmlns="http://www.w3.org/2000/svg" width="48" height="48" viewBox="0 0 48 48"><defs><style>.a{fill:none;}.b{fill:#4a81fd;}</style></defs><g transform="translate(-2362 -4465)"><rect class="a" width="48" height="48" transform="translate(2362 4465)"/><g transform="translate(2362 4469)"><path class="b" d="M24.2,15.6c6.8,0,7.4,9.4,7.4,12.4H2.4c0-2,.4-12.2,7.2-12.4H10a7.106,7.106,0,0,1,2,.4,13.809,13.809,0,0,0,5,.8,13.809,13.809,0,0,0,5-.8h0a5.84,5.84,0,0,1,1.8-.4h.4m0-2.4h-.4a7.059,7.059,0,0,0-2.8.6,15.578,15.578,0,0,1-4.2.8,10.445,10.445,0,0,1-4.2-.8,6.388,6.388,0,0,0-2.8-.6H9.6C1.6,13.2,0,22.6,0,28a2.311,2.311,0,0,0,2.4,2.4H31.6A2.311,2.311,0,0,0,34,28h0c0-5.6-1.8-14.8-9.8-14.8Z" transform="translate(0 8.75)"/><path class="b" d="M13.4,2.375h0a9.8,9.8,0,0,0-.2,19.6h0a9.816,9.816,0,0,0,9.8-9.8h0A9.524,9.524,0,0,0,13.4,2.375Zm0,17a7.214,7.214,0,0,1-7.2-7.4,7.383,7.383,0,0,1,7.4-7.4h0a7.342,7.342,0,0,1,7.2,7.4A7.512,7.512,0,0,1,13.4,19.375Z" transform="translate(3.6 -2.225)"/><g transform="translate(28.6 5.35)"><path class="b" d="M21.7,4.9h0a6.406,6.406,0,0,0-6.4,6.2,6.406,6.406,0,0,0,6.2,6.4h0a6.231,6.231,0,0,0,6.2-6.2h0A6,6,0,0,0,21.7,4.9Zm0,10.4a4.059,4.059,0,0,1-4-4.2,4.012,4.012,0,0,1,4-4h0a4.059,4.059,0,0,1,4,4.2A4.012,4.012,0,0,1,21.7,15.3Z" transform="translate(-13.3 -4.9)"/><path class="b" d="M27.3,11.9h-.2a5.84,5.84,0,0,0-1.8.4,6.356,6.356,0,0,1-2.8.4,13.505,13.505,0,0,1-2.8-.4,5.84,5.84,0,0,0-1.8-.4h-.2a4.825,4.825,0,0,0-3.4,1.4c.6.4,1.4.8,2,1.2a2.155,2.155,0,0,1,1.6-.4h.2a1.5,1.5,0,0,1,1,.2,10.158,10.158,0,0,0,3.4.6,9.342,9.342,0,0,0,3.4-.6h0a1.8,1.8,0,0,1,1-.2h.2c2.4,0,3.8,3.8,4,6.2H19.9c.2.8.4,1.4.6,2.2H31.7a1.721,1.721,0,0,0,1.6-1.6h0C33.7,17.5,31.7,11.9,27.3,11.9Z" transform="translate(-14.3 2.1)"/></g></g></g></svg>