<?xml version="1.0" encoding="UTF-8"?>
<svg width="50px" height="50px" viewBox="0 0 50 50" version="1.1" xmlns="http://www.w3.org/2000/svg" xmlns:xlink="http://www.w3.org/1999/xlink">
    <!-- Generator: Sketch 53.2 (72643) - https://sketchapp.com -->
    <title>AT/ICO/FA-Gamepad@2x</title>
    <desc>Created with Sketch.</desc>
    <g id="AT/ICO/FA-Gamepad" stroke="none" stroke-width="1" fill="none" fill-rule="evenodd">
        <path d="M36.875,14.5 C42.75,14.5 47.5,19.25 47.5,25.125 C47.5,31 42.75,35.75 36.875,35.75 C33.5859375,35.75 30.625,33.875 29.296875,32.625 L20.703125,32.625 C19.375,33.875 17.3359375,35.75 13.125,35.75 C7.25,35.75 2.5,31 2.5,25.125 C2.5,19.25 7.25,14.5 13.125,14.5 L36.875,14.5 L36.875,14.5 Z M36.875,12 L13.125,12 C5.875,12 0,17.875 0,25.125 C0,32.375 5.875,38.25 13.125,38.25 C16.3671875,38.25 19.3359375,37.0703125 21.625,35.125 L28.375,35.125 C30.6640625,37.0703125 33.6328125,38.25 36.875,38.25 C44.125,38.25 50,32.375 50,25.125 C50,17.875 44.125,12 36.875,12 Z M40,19.8125 C38.4453125,19.8125 37.1875,21.0703125 37.1875,22.625 C37.1875,24.1796875 38.4453125,25.4375 40,25.4375 C41.5546875,25.4375 42.8125,24.1796875 42.8125,22.625 C42.8125,21.0703125 41.5546875,19.8125 40,19.8125 Z M35,24.8125 C33.4453125,24.8125 32.1875,26.0703125 32.1875,27.625 C32.1875,29.1796875 33.4453125,30.4375 35,30.4375 C36.5546875,30.4375 37.8125,29.1796875 37.8125,27.625 C37.8125,26.0703125 36.5546875,24.8125 35,24.8125 Z M14.0625,23.5625 L14.0625,19.96875 C14.0625,19.7109375 13.8515625,19.5 13.59375,19.5 L11.40625,19.5 C11.1484375,19.5 10.9375,19.7109375 10.9375,19.96875 L10.9375,23.5625 L7.34375,23.5625 C7.0859375,23.5625 6.875,23.7734375 6.875,24.03125 L6.875,26.21875 C6.875,26.4765625 7.0859375,26.6875 7.34375,26.6875 L10.9375,26.6875 L10.9375,30.28125 C10.9375,30.5390625 11.1484375,30.75 11.40625,30.75 L13.59375,30.75 C13.8515625,30.75 14.0625,30.5390625 14.0625,30.28125 L14.0625,26.6875 L17.65625,26.6875 C17.9140625,26.6875 18.125,26.4765625 18.125,26.21875 L18.125,24.03125 C18.125,23.7734375 17.9140625,23.5625 17.65625,23.5625 L14.0625,23.5625 Z" fill="#4A81FD" fill-rule="nonzero"></path>
    </g>
</svg>