<svg xmlns="http://www.w3.org/2000/svg" width="48.036" height="48" viewBox="0 0 48.036 48"><defs><style>.a{fill:none;}.b{fill:#4a81fd;}</style></defs><g transform="translate(-2732 -4465)"><path class="a" d="M0,0H48V48H0Z" transform="translate(2732 4465)"/><g transform="translate(2732 4469)"><path class="b" d="M47.609,22.05l-5.6-5V5.25a1.29,1.29,0,0,0-1.2-1.2h-5.8a1.29,1.29,0,0,0-1.2,1.2v4.8l-9-7.8a1.217,1.217,0,0,0-1.6,0L.409,22.05a1.239,1.239,0,0,0-.2,1.6c.6.4,1.2.6,1.8,0l4-3.4v20.6a1.29,1.29,0,0,0,1.2,1.2h12a1.29,1.29,0,0,0,1.2-1.2V28.45h7.2v12.4a1.29,1.29,0,0,0,1.2,1.2h12a1.29,1.29,0,0,0,1.2-1.2V20.25l4,3.4a1.2,1.2,0,0,0,.8.2c.4,0,.6-.2,1-.4A.988.988,0,0,0,47.609,22.05Zm-11.4-15.6h3.4v8.6l-3.4-2.8Zm3.4,33.2h-9.6V27.25a1.29,1.29,0,0,0-1.2-1.2h-9.6a1.29,1.29,0,0,0-1.2,1.2v12.4h-9.6V18.25l15.6-13.4,15.6,13.4Z" transform="translate(0.009 -1.95)"/></g></g></svg>