<svg xmlns="http://www.w3.org/2000/svg" width="20" height="20" viewBox="0 0 20 20"><defs><style>.a{fill:none;}.b{fill:#4a81fd;}</style></defs><rect class="a" width="20" height="20"/><g transform="translate(0.833 0.833)"><path class="b" d="M709.635,372.056a.5.5,0,0,0-.5-.5h-1.061v-4.534h3.284a10.535,10.535,0,0,1,.232,1.962.5.5,0,0,0,.5.485h.013a.5.5,0,0,0,.484-.511,11.587,11.587,0,0,0-.21-1.936h2.659a7.779,7.779,0,0,1,.338,2.267.5.5,0,1,0,.995,0,8.8,8.8,0,0,0-8.763-8.789H707.6l-.021,0-.021,0h-.006a8.79,8.79,0,0,0,.025,17.58h0a.482.482,0,0,0,.168-.034.423.423,0,0,0,.047-.021.493.493,0,0,0,.108-.073c.011-.01.022-.017.033-.027a.49.49,0,0,0,.089-.126l0-.01a.547.547,0,0,0,.029-.112.525.525,0,0,0,.016-.08c0-.005,0-.009,0-.014v-5.031h1.061A.5.5,0,0,0,709.635,372.056Zm-2.553-.5H703.8a11.012,11.012,0,0,1,0-4.534h3.284Zm-7.3-2.267a7.75,7.75,0,0,1,.338-2.267h2.657a12.2,12.2,0,0,0,0,4.534h-2.657A7.756,7.756,0,0,1,699.784,369.291Zm7.3-7.4v4.141h-3.013A8.325,8.325,0,0,1,707.081,361.888Zm1,4.141v-4.141a8.352,8.352,0,0,1,3.006,4.141Zm6.573,0h-2.516a9.423,9.423,0,0,0-2.675-4.3A7.817,7.817,0,0,1,714.65,366.029Zm-8.952-4.294a9.4,9.4,0,0,0-2.675,4.294h-2.515A7.819,7.819,0,0,1,705.7,361.735Zm-5.19,10.818h2.515a9.41,9.41,0,0,0,2.675,4.294A7.819,7.819,0,0,1,700.508,372.553Zm6.573,4.141a8.325,8.325,0,0,1-3.013-4.141h3.013Z" transform="translate(-698.788 -360.5)"/><path class="b" d="M719.424,375.917h-.672v-1.057a3.116,3.116,0,0,0-6.228,0v1.057h-.639a.5.5,0,0,0-.5.5v4.648a.5.5,0,0,0,.5.5h7.539a.5.5,0,0,0,.5-.5v-4.648A.5.5,0,0,0,719.424,375.917Zm-5.9-1.057a2.122,2.122,0,0,1,4.238,0v1.057h-4.238Zm5.406,5.705h-6.543v-3.653h6.543Z" transform="translate(-700.888 -362.393)"/><path class="b" d="M716.388,378.758a.5.5,0,0,0-.5.5v1.284a.5.5,0,0,0,1,0v-1.284A.5.5,0,0,0,716.388,378.758Z" transform="translate(-701.639 -363.543)"/></g></svg>