<svg xmlns="http://www.w3.org/2000/svg" width="20" height="20" viewBox="0 0 20 20"><defs><style>.a,.c{fill:none;}.b{fill:#4a81fd;}.c{stroke:#4a81fd;stroke-linecap:round;stroke-linejoin:round;stroke-width:2.4px;}</style></defs><rect class="a" width="20" height="20"/><path class="b" d="M524.318,363.385a.5.5,0,0,0-.383-.131c-2.847.243-5.149-.841-7.74-2.547l-.163-.109a.534.534,0,0,0-.3-.092V360.5a.52.52,0,0,0-.292.093c-2.749,1.826-5.034,2.907-7.91,2.661a.506.506,0,0,0-.383.131.5.5,0,0,0-.163.369,23.6,23.6,0,0,0,.9,6.661,16.592,16.592,0,0,0,7.439,9.94c.119.063.182.093.182.093a.5.5,0,0,0,.223.052.566.566,0,0,0,.235-.057c.268-.128,5.65-2.771,7.728-10.422a23.993,23.993,0,0,0,.789-6.266A.5.5,0,0,0,524.318,363.385Zm-15.42,6.889h6.66v9.057A15.715,15.715,0,0,1,508.9,370.274Zm13.824-.516c-.013.046-.028.087-.04.132h-6.76v-8.163c2.491,1.608,4.786,2.646,7.548,2.561A22.717,22.717,0,0,1,522.721,369.758Z" transform="translate(-505.731 -360.5)"/><g transform="translate(10.001 10)"><path class="c" d="M517.458,360.5" transform="translate(-517.458 -360.5)"/></g></svg>