<svg xmlns="http://www.w3.org/2000/svg" width="20" height="19.998" viewBox="0 0 20 19.998"><defs><style>.a{fill:none;}.b{fill:#4a81fd;}</style></defs><rect class="a" width="19.998" height="19.998"/><g transform="translate(0.001 1.667)"><path class="b" d="M647.667,366.928h-.4v-.69a2.5,2.5,0,0,0-5.005,0v.69h-.371a.5.5,0,0,0-.5.5v3.558a.5.5,0,0,0,.5.5h5.772a.5.5,0,0,0,.5-.5v-3.558A.5.5,0,0,0,647.667,366.928Zm-4.4-.69a1.505,1.505,0,0,1,3.005,0v.69h-3.005Zm3.9,4.248h-4.771v-2.557h4.771Z" transform="translate(-634.781 -361.054)"/><path class="b" d="M645.344,369.444a.5.5,0,0,0-.5.5v.417a.5.5,0,0,0,1,0v-.417A.5.5,0,0,0,645.344,369.444Z" transform="translate(-635.356 -361.992)"/><path class="b" d="M651.943,360.5H635.018a1.537,1.537,0,0,0-1.56,1.513V372.14a1.538,1.538,0,0,0,1.514,1.56h6.805l-.8,3.52h-2.52a.521.521,0,0,0,0,1.042h10a.521.521,0,0,0,0-1.042h-2.52l-.8-3.52H651.9a1.537,1.537,0,0,0,1.56-1.514.441.441,0,0,0,0-.046V362.061A1.536,1.536,0,0,0,651.943,360.5Zm-9.966,16.678.522-2.32h1.88l.52,2.32Zm10.479-15.118V372.14a.546.546,0,0,1-.532.56H635.018a.548.548,0,0,1-.56-.533V362.061a.547.547,0,0,1,.533-.561h16.9a.548.548,0,0,1,.56.533A.159.159,0,0,1,652.456,362.061Z" transform="translate(-633.458 -360.5)"/></g></svg>