<svg xmlns="http://www.w3.org/2000/svg" width="20" height="19.999" viewBox="0 0 20 19.999"><defs><style>.a{fill:none;}.b{fill:#4a81fd;}</style></defs><rect class="a" width="19.999" height="19.999"/><g transform="translate(0.001 3.333)"><path class="b" d="M248.96,364.018h5.025a.5.5,0,0,0,.5-.5V361a.5.5,0,0,0-.5-.5H248.96a.5.5,0,0,0-.5.5v2.512A.5.5,0,0,0,248.96,364.018Zm.5-2.512h4.02v1.507h-4.02Z" transform="translate(-248.458 -360.5)"/><path class="b" d="M257.251,364.018h5.025a.5.5,0,0,0,.5-.5V361a.5.5,0,0,0-.5-.5h-5.025a.5.5,0,0,0-.5.5v2.512A.5.5,0,0,0,257.251,364.018Zm.5-2.512h4.02v1.507h-4.02Z" transform="translate(-249.84 -360.5)"/><path class="b" d="M265.517,363.181h.006a.5.5,0,0,0,.5-.5l.012-1.177h4.026v1.507h-.449a.5.5,0,0,0,0,1.006h.952a.5.5,0,0,0,.5-.5V361a.5.5,0,0,0-.5-.5H265.54a.5.5,0,0,0-.5.5l-.017,1.675A.5.5,0,0,0,265.517,363.181Z" transform="translate(-251.219 -360.5)"/><path class="b" d="M251.138,368.792v-2.512a.5.5,0,0,0-.5-.5h-2.177v1h1.675v1.507h-1.675v1h2.177A.5.5,0,0,0,251.138,368.792Z" transform="translate(-248.458 -361.38)"/><path class="b" d="M253.985,371.053H248.96a.5.5,0,0,0-.5.5v2.512a.5.5,0,0,0,.5.5h5.025a.5.5,0,0,0,.5-.5v-2.512A.5.5,0,0,0,253.985,371.053Zm-.5,2.512h-4.02v-1.507h4.02Z" transform="translate(-248.458 -362.259)"/><path class="b" d="M258.926,373.565h-1.172v-1.507h.754a.5.5,0,1,0,0-1h-1.257a.5.5,0,0,0-.5.5v2.512a.5.5,0,0,0,.5.5h1.675a.5.5,0,0,0,0-1Z" transform="translate(-249.84 -362.259)"/><path class="b" d="M253.106,365.777a.5.5,0,0,0-.5.5v2.512a.5.5,0,0,0,.5.5h5.025a.5.5,0,0,0,.5-.5v-2.512a.5.5,0,0,0-.5-.5Zm4.522,2.512h-4.02v-1.507h4.02Z" transform="translate(-249.149 -361.38)"/><path class="b" d="M270.467,370.792c0-3.516-3.728-6.73-3.887-6.865a.509.509,0,0,0-.383-.117.5.5,0,0,0-.347.2l-1.831,2.484-.807-.623a.5.5,0,0,0-.709.1,7.693,7.693,0,0,0-1.989,4.823c0,2.663,2.093,4.6,4.976,4.6l.044,0,.042,0c.118,0,.233-.008.346-.018A4.582,4.582,0,0,0,270.467,370.792Zm-8.949,0A6.212,6.212,0,0,1,263,366.981l.807.624a.5.5,0,0,0,.712-.1l1.8-2.446c.923.9,3.137,3.3,3.137,5.732a3.41,3.41,0,0,1-.985,2.437,2.759,2.759,0,0,0,.064-.592c0-1.542-2.362-3.672-2.632-3.909a.5.5,0,0,0-.665,0c-.269.238-2.632,2.367-2.632,3.909a2.71,2.71,0,0,0,.121.8A3.4,3.4,0,0,1,261.518,370.792Zm4.029,3.588a1.775,1.775,0,0,1-1.93-1.743c0-.726,1.093-2.017,1.959-2.848.867.832,1.96,2.122,1.96,2.848a1.762,1.762,0,0,1-1.866,1.738Z" transform="translate(-250.468 -361.051)"/></g></svg>