<?xml version="1.0" encoding="UTF-8"?>
<svg width="50px" height="50px" viewBox="0 0 50 50" version="1.1" xmlns="http://www.w3.org/2000/svg" xmlns:xlink="http://www.w3.org/1999/xlink">
    <!-- Generator: Sketch 53.2 (72643) - https://sketchapp.com -->
    <title>AT/ICO/LE-Acoustic-echo-cancellation@2x</title>
    <desc>Created with Sketch.</desc>
    <g id="AT/ICO/LE-Acoustic-echo-cancellation" stroke="none" stroke-width="1" fill="none" fill-rule="evenodd">
        <path d="M38.7071226,49.9981132 C38.4382547,49.9981132 38.1693868,49.8957547 37.9641981,49.6910377 C33.8259906,45.559434 31.5448585,40.0636792 31.5406132,34.2169811 C31.5368396,28.370283 33.8099528,22.8721698 37.9420283,18.734434 C38.3524057,18.3240566 39.0179717,18.3231132 39.4288208,18.7334906 C39.8396698,19.1438679 39.8401415,19.809434 39.4297642,20.220283 C35.6943868,23.9603774 33.6396698,28.9306604 33.6434434,34.215566 C33.6467453,39.5004717 35.7094811,44.4679245 39.4500472,48.2028302 C39.8608962,48.6132075 39.8613679,49.2792453 39.4509906,49.6896226 C39.2458019,49.895283 38.9764623,49.9981132 38.7071226,49.9981132 Z M42.8750472,45.8246698 C42.6061792,45.8246698 42.3373113,45.7223113 42.1321226,45.5175943 C39.1090094,42.4987264 37.4420283,38.4841038 37.4391981,34.2133491 C37.4358962,29.9416509 39.0967453,25.9246698 42.1156132,22.9025 C42.5259906,22.4921226 43.1910849,22.4911792 43.6024057,22.9015566 C44.0132547,23.311934 44.0137264,23.9779717 43.6028774,24.3888208 C40.9811792,27.0133491 39.5387264,30.5020283 39.5415566,34.2114623 C39.5443868,37.9213679 40.9920283,41.4081604 43.6179717,44.0293868 C44.0288208,44.4392925 44.0292925,45.1053302 43.6189151,45.5161792 C43.4137264,45.7218396 43.1443868,45.8246698 42.8750472,45.8246698 Z M47.3202358,41.3734906 C47.0513679,41.3734906 46.7825,41.2711321 46.5773113,41.0664151 C44.7433491,39.235283 43.7325,36.7999057 43.7306132,34.2088679 C43.7291981,31.6173585 44.7367453,29.180566 46.5683491,27.3475472 C46.9782547,26.9371698 47.6442925,26.9362264 48.0551415,27.3466038 C48.4655189,27.7569811 48.4659906,28.4225472 48.0556132,28.8333962 C46.6211792,30.269717 45.8320283,32.1782075 45.8334434,34.2074528 C45.8348585,36.2366981 46.6263679,38.1442453 48.0631604,39.5782075 C48.4740094,39.9881132 48.4744811,40.6541509 48.0641038,41.065 C47.8589151,41.2706604 47.5895755,41.3734906 47.3202358,41.3734906 Z M11.7823585,49.5397642 C10.1908491,49.5397642 8.76537736,48.9364623 7.63943396,47.7808019 C6.02764151,46.1270283 5.21301887,43.4520283 5.46018868,40.6251415 C5.51066038,40.0463679 6.01820755,39.6270283 6.59886792,39.6690094 C7.17716981,39.7199528 7.6054717,40.2298585 7.5545283,40.8081604 C7.36018868,43.0336321 7.9545283,45.0916509 9.14509434,46.3133491 C9.93471698,47.1232547 10.9116038,47.5001415 12.0493396,47.4284434 C15.4833019,47.218066 17.3361321,43.4308019 18.825283,40.3878774 L19.0191509,39.9911792 C19.48,39.0529717 19.9380189,38.1109906 20.3960377,37.168066 C22.2880189,33.2756132 24.2446226,29.2496698 26.4573585,25.4402358 C29.1483962,20.8076887 31.3318868,15.8425943 29.1092453,10.9241981 C27.1757547,6.64448113 22.5630189,3.0775 18.38,2.6270283 C12.395566,1.97938679 6.1309434,7.48080189 4.03471698,13.0223113 C3.8290566,13.5647642 3.22245283,13.8378774 2.6795283,13.6341038 C2.13660377,13.4284434 1.86301887,12.8213679 2.06820755,12.2789151 C4.43235849,6.02891509 11.4314151,-0.236179245 18.6054717,0.536462264 C23.5498113,1.06853774 28.7729245,5.07325472 31.025283,10.0581604 C33.6465094,15.8595755 31.1064151,21.622783 28.2757547,26.4958962 C26.1016981,30.2388208 24.1625472,34.2284434 22.2875472,38.0874057 C21.8276415,39.0326887 21.3686792,39.9775 20.9064151,40.9185377 L20.7139623,41.311934 C19.0762264,44.6581604 16.8337736,49.2416509 12.1781132,49.5275 C12.0450943,49.5355189 11.9130189,49.5397642 11.7823585,49.5397642 Z M12.4053774,38.2577358 C11.579434,38.2577358 10.7525472,38.0242453 10.0275472,37.474717 C7.52660377,35.5799057 7.31858491,30.4063208 8.98886792,27.9284906 C9.76811321,26.7714151 10.7563208,26.0190566 11.7119811,25.2916981 C12.4695283,24.7143396 13.185566,24.1695283 13.7539623,23.4520755 C14.7133962,22.2435849 15.1619811,20.3685849 14.1049057,19.2751887 C13.579434,18.7313208 12.585566,18.5534906 11.890283,18.8770755 C11.4157547,19.0983019 11.2133962,19.4808491 11.2718868,20.0478302 C11.3251887,20.5648113 10.9492453,21.0275472 10.4322642,21.0803774 C9.91622642,21.1407547 9.45301887,20.7577358 9.39924528,20.2412264 C9.25915094,18.8784906 9.89311321,17.7308491 11.0959434,17.1709434 C12.5303774,16.5030189 14.3648113,16.8374528 15.4577358,17.9662264 C17.279434,19.8511321 16.7214151,22.7407547 15.2289623,24.6218868 C14.5133962,25.5237736 13.6690566,26.1666981 12.8520755,26.7893396 C11.9799057,27.4534906 11.1553774,28.0808491 10.549717,28.9803774 C9.39924528,30.6865094 9.52896226,34.735566 11.1643396,35.974717 C12.185566,36.7487736 13.7440566,36.3072642 14.6610377,35.4327358 C16.9067925,33.2916981 18.3284906,30.3289623 19.7034906,27.4643396 C19.9454717,26.9600943 20.1865094,26.4577358 20.4303774,25.9633962 C22.2096226,22.3530189 23.7723585,18.8138679 23.3596226,15.2077358 C22.9308491,11.4648113 20.274717,8.80254717 16.5921698,8.42471698 C12.8690566,8.04688679 8.95018868,11.4223585 7.62801887,14.8185849 C7.43981132,15.3030189 6.8940566,15.5435849 6.40962264,15.3539623 C5.92518868,15.1657547 5.68556604,14.62 5.87377358,14.135566 C7.44075472,10.1115094 12.0553774,6.06764151 16.7846226,6.55254717 C21.3813208,7.02377358 24.6964151,10.3374528 25.229434,14.9940566 C25.7006604,19.1072642 24.0270755,22.9233019 22.1185849,26.795 C21.8780189,27.2841509 21.6398113,27.7803774 21.4001887,28.2789623 C19.9525472,31.2959434 18.4549057,34.4157547 15.9600943,36.7945283 C15.0567925,37.6563208 13.7317925,38.2577358 12.4053774,38.2577358 Z" fill="#4A81FD" fill-rule="nonzero"></path>
    </g>
</svg>