<?xml version="1.0" encoding="UTF-8"?>
<svg width="50px" height="50px" viewBox="0 0 50 50" version="1.1" xmlns="http://www.w3.org/2000/svg" xmlns:xlink="http://www.w3.org/1999/xlink">
    <!-- Generator: Sketch 53.2 (72643) - https://sketchapp.com -->
    <title>AT/ICO/LE-Always-on-usb@2x</title>
    <desc>Created with Sketch.</desc>
    <g id="AT/ICO/LE-Always-on-usb" stroke="none" stroke-width="1" fill="none" fill-rule="evenodd">
        <path d="M43.75,15.5 C44.4392969,15.5 45,16.0607031 45,16.75 L45,20.5 L47.5,20.5 L47.5,30.5 L45,30.5 L45,34.25 C45,34.9392969 44.4392969,35.5 43.75,35.5 L3.75,35.5 C3.06070312,35.5 2.5,34.9392969 2.5,34.25 L2.5,16.75 C2.5,16.0607031 3.06070312,15.5 3.75,15.5 L43.75,15.5 L43.75,15.5 Z M43.75,13 L3.75,13 C1.67890625,13 0,14.6789062 0,16.75 L0,34.25 C0,36.3210938 1.67890625,38 3.75,38 L43.75,38 C45.8210937,38 47.5,36.3210938 47.5,34.25 L47.5,33 L48.125,33 C49.1605469,33 50,32.1605469 50,31.125 L50,19.875 C50,18.8394531 49.1605469,18 48.125,18 L47.5,18 L47.5,16.75 C47.5,14.6789062 45.8210937,13 43.75,13 Z M30,30.03125 L30,20.96875 C30,20.7098665 29.7901335,20.5 29.53125,20.5 L27.96875,20.5 C27.7098665,20.5 27.5,20.7098665 27.5,20.96875 L27.5,30.03125 C27.5,30.2901335 27.7098665,30.5 27.96875,30.5 L29.53125,30.5 C29.7901335,30.5 30,30.2901335 30,30.03125 Z M35,30.03125 L35,20.96875 C35,20.7098665 34.7901335,20.5 34.53125,20.5 L32.96875,20.5 C32.7098665,20.5 32.5,20.7098665 32.5,20.96875 L32.5,30.03125 C32.5,30.2901335 32.7098665,30.5 32.96875,30.5 L34.53125,30.5 C34.7901335,30.5 35,30.2901335 35,30.03125 L35,30.03125 Z M25,30.03125 C25,30.2901335 24.7901335,30.5 24.53125,30.5 L22.96875,30.5 C22.7098665,30.5 22.5,30.2901335 22.5,30.03125 L22.5,20.96875 C22.5,20.7098665 22.7098665,20.5 22.96875,20.5 L24.53125,20.5 C24.7901335,20.5 25,20.7098665 25,20.96875 L25,30.03125 Z M15.5714286,21.2142857 C15.5714286,21.5714304 15.4151801,21.8727666 15.1026786,22.1183036 C15.035714,22.1406251 15.0022321,22.2187493 15.0022321,22.3526786 C14.9575891,23.0892894 14.8571436,23.6473195 14.7008929,24.0267857 C14.4776775,24.6071458 14.042414,25.1205335 13.3950893,25.5669643 C12.7477646,26.0133951 12.3459829,26.3928556 12.1897321,26.7053571 C11.9441952,27.1294664 11.8214286,27.7209783 11.8214286,28.4799107 L11.8214286,29.2834821 C11.8214286,29.5513406 11.9330346,29.7522315 12.15625,29.8861607 C12.2008931,29.9084823 12.3124991,30.0089277 12.4910714,30.1875 C12.803573,30.5446446 12.9598214,30.9241051 12.9598214,31.3258929 C12.9598214,31.7946452 12.7979927,32.1908466 12.4743304,32.5145089 C12.150668,32.8381713 11.7544666,33 11.2857143,33 C10.8169619,33 10.4207605,32.8381713 10.0970982,32.5145089 C9.77343588,32.1908466 9.61160714,31.7946452 9.61160714,31.3258929 L9.61160714,31.2924107 C9.61160714,30.6897291 9.87946161,30.2209838 10.4151786,29.8861607 C10.6160724,29.7299099 10.7165179,29.5290191 10.7165179,29.2834821 C10.7165179,28.9933021 10.6049118,28.6919658 10.3816964,28.3794643 C10.2254456,28.1562489 9.86830636,27.8660732 9.31026786,27.5089286 C8.61830011,27.0401762 8.171876,26.5267885 7.97098214,25.96875 C7.8370529,25.6339269 7.73660748,25.1986634 7.66964286,24.6629464 C7.64732132,24.4843741 7.60267891,24.3616075 7.53571429,24.2946429 C7.17856964,24.0714275 7,23.7589306 7,23.3571429 C7,23.0446413 7.10044542,22.7879474 7.30133929,22.5870536 C7.50223315,22.3861597 7.75892701,22.2857143 8.07142857,22.2857143 C8.38393013,22.2857143 8.640624,22.3861597 8.84151786,22.5870536 C9.04241172,22.7879474 9.14285714,23.0446413 9.14285714,23.3571429 C9.14285714,23.736609 9.00892991,24.0267847 8.74107143,24.2276786 C8.65178527,24.2946432 8.60714286,24.4508916 8.60714286,24.6964286 C8.60714286,24.919644 8.68526708,25.2321408 8.84151786,25.6339286 C8.99776864,25.9464301 9.28794431,26.2700876 9.71205357,26.6049107 C10.1361628,26.9397338 10.4263385,27.1071429 10.5825893,27.1071429 C10.7611616,27.1071429 10.8504464,26.9732156 10.8504464,26.7053571 L10.8504464,20.1428571 C10.8504464,20.1205356 10.8169646,20.0758932 10.75,20.0089286 L10.7165179,20.0089286 L10.7165179,19.9754464 C10.3816948,19.752231 10.2142857,19.4508948 10.2142857,19.0714286 C10.2142857,18.758927 10.3147311,18.5022331 10.515625,18.3013393 C10.7165189,18.1004454 10.9732127,18 11.2857143,18 C11.5982158,18 11.8549097,18.1004454 12.0558036,18.3013393 C12.2566974,18.5022331 12.3571429,18.758927 12.3571429,19.0714286 C12.3571429,19.4732163 12.2008944,19.7745526 11.8883929,19.9754464 C11.8437498,20.0200895 11.8214286,20.0758925 11.8214286,20.1428571 L11.8214286,24.8303571 C11.8214286,24.9866079 11.8381695,25.0926336 11.8716518,25.1484375 C11.9051341,25.2042414 11.977678,25.2209823 12.0892857,25.1986607 C12.3125011,25.1540176 12.6417389,24.9531268 13.0770089,24.5959821 C13.512279,24.2388375 13.7633925,23.9598224 13.8303571,23.7589286 C13.9642864,23.3348193 14.0424106,22.8772346 14.0647321,22.3861607 L14.0647321,22.3526786 L13.9642857,22.1517857 C13.6071411,21.9285703 13.4285714,21.6160734 13.4285714,21.2142857 C13.4285714,20.9017842 13.5290169,20.6450903 13.7299107,20.4441964 C13.9308046,20.2433026 14.1874984,20.1428571 14.5,20.1428571 C14.8125016,20.1428571 15.0691954,20.2433026 15.2700893,20.4441964 C15.4709831,20.6450903 15.5714286,20.9017842 15.5714286,21.2142857 Z M7.53571429,23.3571429 C7.53571429,23.7142875 7.71428393,23.8928571 8.07142857,23.8928571 C8.42857321,23.8928571 8.60714286,23.7142875 8.60714286,23.3571429 C8.60714286,22.9999982 8.42857321,22.8214286 8.07142857,22.8214286 C7.71428393,22.8214286 7.53571429,22.9999982 7.53571429,23.3571429 Z M10.75,19.0714286 C10.75,19.4285732 10.9285696,19.6071429 11.2857143,19.6071429 C11.6428589,19.6071429 11.8214286,19.4285732 11.8214286,19.0714286 C11.8214286,18.7142839 11.6428589,18.5357143 11.2857143,18.5357143 C10.9285696,18.5357143 10.75,18.7142839 10.75,19.0714286 Z M13.9642857,21.2142857 C13.9642857,21.5714304 14.1428554,21.75 14.5,21.75 C14.8571446,21.75 15.0357143,21.5714304 15.0357143,21.2142857 C15.0357143,20.8571411 14.8571446,20.6785714 14.5,20.6785714 C14.1428554,20.6785714 13.9642857,20.8571411 13.9642857,21.2142857 Z" fill="#4A81FD" fill-rule="nonzero"></path>
    </g>
</svg>