<?xml version="1.0" encoding="utf-8"?>
<!-- Generator: Adobe Illustrator 23.0.3, SVG Export Plug-In . SVG Version: 6.00 Build 0)  -->
<svg version="1.1" id="Layer_1" xmlns="http://www.w3.org/2000/svg" xmlns:xlink="http://www.w3.org/1999/xlink" x="0px" y="0px"
	 viewBox="0 0 34 34" style="enable-background:new 0 0 34 34;" xml:space="preserve">
<style type="text/css">
	.st0{fill:#000000;}
</style>
<g>
	<g id="Icon_Plane_24px_1" transform="translate(0 32) rotate(-90)">
		<g id="AT_ICO_FA-Plane" transform="translate(0 1.919)">
			<path id="路径_116" class="st0" d="M25,11.9h-6l-5.5-9.6c-0.1-0.3-0.4-0.4-0.7-0.4H8.2c-0.5,0-0.8,0.4-0.8,0.8
				c0,0.1,0,0.2,0,0.2l2.6,8.9H6.7l-2.3-3C4.3,8.7,4,8.6,3.7,8.6H0.8C0.4,8.6,0,8.9,0,9.4c0,0.1,0,0.1,0,0.2l1.6,5.6L0,20.9
				c-0.1,0.4,0.2,0.9,0.6,1c0.1,0,0.1,0,0.2,0h2.9c0.3,0,0.5-0.1,0.7-0.3l2.3-3H10l-2.6,8.9c-0.1,0.4,0.1,0.9,0.6,1
				c0.1,0,0.2,0,0.2,0h4.6c0.3,0,0.6-0.2,0.7-0.4l5.5-9.6h6c1.8,0,5-1.5,5-3.3S26.8,11.9,25,11.9z M25,16.9h-6.9l-5.7,10h-3l2.9-10
				H5.8l-2.5,3.3H1.9l1.5-5l-1.5-5h1.4l2.5,3.3h6.4l-2.9-10h3l5.7,10H25c1.4,0,3.3,1.1,3.3,1.7C28.3,15.8,26.4,16.9,25,16.9z"/>
		</g>
	</g>
</g>
</svg>
