<svg id="Layer_1" data-name="Layer 1" xmlns="http://www.w3.org/2000/svg" viewBox="0 0 50 50"><defs><style>.cls-1{fill:#000000;}</style></defs><title>LE-AirplanemodeCharging@2x</title><path class="cls-1" d="M30.25,30.51l.08-1.41-4.39-3.76s-.39-2.58-.39-3.6c0-.85-.61-.82-.8-.79s-.8-.06-.8.79c0,1-.39,3.6-.39,3.6L19.17,29.1l.08,1.41,4.62-2.35L24,30.69,21.13,33l.05.92,3.56-1.53h0l3.56,1.53.05-.92L25.5,30.71l.13-2.55Z"/><path id="Combined-Shape" class="cls-1" d="M41.16,15.63A2.34,2.34,0,0,1,43.5,18v4.69A2.34,2.34,0,0,1,41.16,25h-.78A15.64,15.64,0,0,1,26.31,40.55V50H23.19V40.55A15.63,15.63,0,0,1,9.13,25H8.34A2.34,2.34,0,0,1,6,22.66V18a2.34,2.34,0,0,1,2.34-2.34Zm-.78,6.25V18.75H9.13v3.13h3.12V25a12.5,12.5,0,0,0,25,0V21.88Zm-7.82-7.82V1.56a1.57,1.57,0,0,1,3.13,0v12.5Zm-18.75,0V1.56a1.57,1.57,0,0,1,3.13,0v12.5Z"/></svg>
