<?xml version="1.0" encoding="UTF-8"?>
<svg width="50px" height="50px" viewBox="0 0 50 50" version="1.1" xmlns="http://www.w3.org/2000/svg" xmlns:xlink="http://www.w3.org/1999/xlink">
    <!-- Generator: Sketch 53.2 (72643) - https://sketchapp.com -->
    <title>AT/ICO/LE-Battery-Life-mode@2x</title>
    <desc>Created with Sketch.</desc>
    <g id="AT/ICO/LE-Battery-Life-mode" stroke="none" stroke-width="1" fill="none" fill-rule="evenodd">
        <path d="M13.3447266,32.9085469 C13.9803516,33.7435469 14.7387109,34.4715156 15.5871484,35.0690156 L15.5878516,35.0690156 C15.6900391,35.1409687 15.7934766,35.2109687 15.8982422,35.2790937 C15.9063672,35.2843281 15.9147266,35.2894062 15.9229297,35.2946406 C16.0166797,35.3551875 16.1112891,35.4143281 16.2069922,35.4718281 C16.2305859,35.4859687 16.2545703,35.4994844 16.2782422,35.5134687 C16.3591016,35.561125 16.4405078,35.6081562 16.5226953,35.6535469 C16.5535547,35.6705781 16.5847266,35.6869844 16.6156641,35.7037031 C16.6917578,35.7447187 16.7681641,35.7850312 16.8452734,35.8240156 C16.8802734,35.8418281 16.9155078,35.8591719 16.9507422,35.8764375 C17.0248828,35.9129219 17.0994141,35.9485469 17.1744922,35.9831562 C17.2120703,36.0005781 17.2498047,36.0177656 17.2876953,36.0346406 C17.3616016,36.0676875 17.4359766,36.0997187 17.5107422,36.1309687 C17.5497266,36.1472187 17.5886328,36.1635469 17.6278516,36.1793281 C17.7030078,36.2097187 17.7786328,36.2387812 17.8545703,36.2672187 C17.8937891,36.2819844 17.9327734,36.2969062 17.9721484,36.311125 C18.0504297,36.3394062 18.1293359,36.3662031 18.2083984,36.3925312 C18.2457422,36.4049531 18.2828516,36.4179219 18.3203516,36.429875 C18.4066016,36.4575312 18.4936328,36.4833125 18.5807422,36.508625 C18.6113672,36.5175312 18.6417578,36.5271406 18.6724609,36.5358125 C18.7900391,36.5687031 18.9083203,36.5996406 19.0273047,36.6282344 C19.0276953,36.6283906 19.0281641,36.6284687 19.0285547,36.628625 C19.1492578,36.6576094 19.2708203,36.6841719 19.3928516,36.7087031 C19.4231641,36.7147969 19.4537891,36.7196406 19.4841797,36.7255 C19.5742578,36.7426875 19.6644922,36.7594062 19.7552734,36.7740937 C19.7994141,36.7812812 19.8439453,36.7871406 19.8883203,36.7937031 C19.9658203,36.8051875 20.0433203,36.8164375 20.1212109,36.826125 C20.1708984,36.832375 20.2208984,36.837375 20.2707422,36.8426875 C20.3440234,36.8507344 20.4173047,36.8583906 20.4909766,36.8647187 C20.5433984,36.8690937 20.5958984,36.8727656 20.6484766,36.8764375 C20.7202734,36.8814375 20.7921484,36.8858906 20.8642578,36.88925 C20.9180078,36.8918281 20.9717578,36.8938594 21.0256641,36.8955 C21.0973828,36.8977656 21.1691797,36.8990937 21.2412109,36.8997969 C21.3078516,36.9004219 21.3744922,36.9010469 21.4412891,36.9002656 C21.4679297,36.8999531 21.4944141,36.8997969 21.5210547,36.89925 C21.6262891,36.8972187 21.7317578,36.8938594 21.8375391,36.8883906 C21.8538672,36.8876094 21.8701953,36.8862812 21.8865234,36.8853437 C21.9788672,36.8801875 22.0712109,36.8735469 22.1637891,36.8657344 C22.1918359,36.8633906 22.2199609,36.8610469 22.2480859,36.8584687 C22.3545703,36.8485469 22.4611328,36.837375 22.5679297,36.8239375 C22.5782422,36.8226875 22.5886328,36.8209687 22.5990234,36.8196406 C22.6973047,36.8069844 22.7957422,36.7925312 22.8941797,36.7769062 C22.9223828,36.772375 22.9505859,36.7677656 22.9787891,36.7630781 C23.0869141,36.744875 23.1950391,36.7255781 23.3033984,36.7037812 C23.6358203,36.63675 23.9829297,36.5474531 24.3387109,36.4372969 C24.4797266,36.398 24.6194922,36.3565937 24.7583984,36.3137031 C24.8026953,36.3000312 24.8462891,36.2854219 24.8902734,36.2713594 C24.9849609,36.2412031 25.0794141,36.2108125 25.1730078,36.1789375 C25.2238672,36.16175 25.2741797,36.143625 25.3248047,36.1258906 C25.4111328,36.0955 25.4973047,36.0647969 25.5826953,36.033 C25.6344922,36.0138594 25.6857422,35.9941719 25.7370703,35.9744062 C25.8215234,35.9420625 25.9055078,35.9090156 25.9891016,35.8752656 C26.0386328,35.8551875 26.0882422,35.8349531 26.1375391,35.8143281 C26.2234766,35.7785469 26.3087109,35.7419844 26.3936328,35.7047187 C26.4390234,35.6847969 26.4845703,35.6650312 26.5298047,35.6446406 C26.6214453,35.6033906 26.7123047,35.5608906 26.8029297,35.5179219 C26.8399609,35.5004219 26.8773828,35.4831562 26.9142578,35.4653437 C27.0259766,35.4112031 27.1366797,35.3555781 27.2466016,35.2990156 C27.2615234,35.2912812 27.2766797,35.2839375 27.2916016,35.2762812 C27.4211328,35.2088594 27.5494922,35.139875 27.6765234,35.0690156 C33.9414453,31.5762812 37.1168359,23.8808906 35.4151953,15.4451875 C35.3898828,15.3197969 35.3630078,15.1943281 35.3351953,15.0688594 C35.3240234,15.0185469 35.3119922,14.9681562 35.3003516,14.9177656 C35.2844141,14.8482344 35.2683203,14.7787031 35.2516016,14.7091719 C35.2373828,14.6499531 35.2225391,14.5907344 35.2077734,14.5315156 C35.1926953,14.47175 35.1775391,14.4120625 35.1619922,14.3522969 C35.1456641,14.2894062 35.1292578,14.2265156 35.1123047,14.163625 C35.0979297,14.1104219 35.0830078,14.0572969 35.0682422,14.0041719 C35.0221484,13.8384687 34.9744141,13.6729219 34.9242578,13.508 C34.9233203,13.5050312 34.9224609,13.5021406 34.9216797,13.49925 C34.8972266,13.41925 34.8719922,13.3394062 34.8466797,13.2596406 C34.8355078,13.2244844 34.8244141,13.1894062 34.8130859,13.1543281 C34.7873828,13.0745625 34.7611328,12.994875 34.7344141,12.9153437 C34.7237891,12.8838594 34.7130859,12.852375 34.7023047,12.8208125 C34.6737109,12.73675 34.6448828,12.6527656 34.6151953,12.5690156 C34.2062891,11.4149531 33.7027734,10.2984687 33.1265234,9.27628125 C32.4965234,10.5122969 31.6866016,11.6190937 30.7309766,12.5690156 C30.7308203,12.5691719 30.7307422,12.5693281 30.7305859,12.5694062 C30.4730078,12.8255 30.2047266,13.0699531 29.9264453,13.3024531 C29.9216016,13.3065937 29.9166797,13.3105781 29.9117578,13.3147187 C29.6372266,13.5433906 29.3530078,13.7604219 29.0595703,13.9651875 C29.0526953,13.9699531 29.0458984,13.9747969 29.0390234,13.9795625 C28.7451953,14.1837812 28.4423828,14.3756562 28.1310547,14.5547969 C28.1252734,14.5580781 28.1196484,14.5614375 28.1138672,14.5647187 C28.0376953,14.6083906 27.9611328,14.6512812 27.8839453,14.6933906 C27.8796484,14.6957344 27.8753516,14.698 27.8710547,14.7004219 C26.7594141,15.3055 25.5455078,15.7512812 24.2543359,16.01175 L19.3296484,17.0051875 C13.9002734,18.1004219 10.3719922,23.4118281 11.4672266,28.8412812 C11.6323828,29.6600312 11.9193359,30.4157344 12.2641016,31.1405781 C15.2098828,28.0222187 19.5155859,25.1677656 25.8437891,23.8912031 C26.3855078,23.7819062 26.9181641,24.1357344 27.0274609,24.6774531 C27.1366797,25.2190937 26.7829297,25.7518281 26.2411328,25.8610469 C20.1223047,27.0954219 16.0566016,29.9015156 13.3447266,32.9085469 Z M27.7777734,37.2869062 C27.7328516,37.3084687 27.6878516,37.329875 27.6426172,37.351125 C26.7881641,37.7527656 25.8879297,38.0894844 24.9428516,38.3526094 C24.5391016,38.4789375 24.1255078,38.5879219 23.7007422,38.673625 C20.9048047,39.2376875 18.1425391,38.7831562 15.7927734,37.5690156 L15.7923828,37.5690156 C15.7897266,37.5676875 15.7872266,37.5662812 15.7846484,37.5649531 C15.7336328,37.5385469 15.6830859,37.5113594 15.6324609,37.48425 C15.5827734,37.4576875 15.5333203,37.4306562 15.4840234,37.4033125 C15.4345703,37.3759687 15.3849609,37.3487812 15.3358984,37.3206562 C15.2548047,37.27425 15.1743359,37.22675 15.0944141,37.1784687 C15.0454297,37.1489375 14.9969141,37.1188594 14.9483984,37.088625 C14.8987891,37.0576875 14.8494922,37.0263594 14.8003516,36.9947969 C14.7373828,36.9543281 14.6748047,36.9133906 14.6126172,36.87175 C14.5513672,36.8308125 14.4904297,36.7894844 14.4299609,36.7474531 C14.3839453,36.7154219 14.3382422,36.6829219 14.2926172,36.6502656 C14.2416797,36.6137031 14.1910547,36.5765937 14.1406641,36.5393281 C14.0789453,36.493625 14.0177734,36.4474531 13.9569141,36.4005781 C13.9023828,36.3585469 13.8479297,36.3162031 13.7940234,36.2732344 C13.7514453,36.23925 13.7090234,36.204875 13.6668359,36.1703437 C13.6124609,36.1258125 13.5586328,36.0806562 13.5051172,36.0351094 C13.4497266,35.9880781 13.3948047,35.9405781 13.3401953,35.8924531 C13.2895703,35.8479219 13.2392578,35.8030781 13.1894141,35.7576875 C13.1501172,35.7219062 13.1110547,35.6860469 13.0722266,35.6497969 C13.0111328,35.5925312 12.9506641,35.5347187 12.8906641,35.4762812 C12.8463672,35.4330781 12.8026172,35.3894062 12.7588672,35.3455 C12.7117578,35.2981562 12.6649609,35.2505781 12.6186328,35.202375 C12.5826953,35.1650312 12.5467578,35.1276875 12.5112891,35.089875 C12.5047266,35.0828437 12.4979297,35.0760469 12.4914453,35.0690156 L12.4921484,35.0690156 C12.3299609,34.8953437 12.1718359,34.7174531 12.0198047,34.5340156 C11.8876172,34.7127656 11.7601953,34.8912812 11.6365234,35.0694062 C11.4143359,35.3896406 11.2057422,35.7082344 11.0098828,36.023625 C11.0095703,36.0241719 11.0092578,36.0246406 11.0090234,36.0251094 C10.8795703,36.233625 10.7558203,36.4406562 10.6373828,36.6459687 C10.6355078,36.64925 10.6335547,36.6525312 10.6316797,36.6558125 C10.5134766,36.8609687 10.4005078,37.0641719 10.2927734,37.2651875 C10.2923828,37.2658125 10.2919922,37.2665937 10.2916016,37.2672969 C10.2374609,37.3683906 10.1844922,37.4689375 10.1329297,37.5688594 C8.53863281,40.6533125 8.15832031,43.1149531 8.15097656,43.1749531 C8.07425781,43.7477656 7.53792969,44.1058125 7.01683594,44.0315156 C6.46988281,43.9560469 6.08480469,43.4443281 6.16027344,42.8974531 C6.17003906,42.8397187 6.51769531,40.5596406 7.91082031,37.5690156 C7.95613281,37.47175 8.00261719,37.373625 8.05011719,37.2749531 C8.05285156,37.2693281 8.05558594,37.2637031 8.05832031,37.2581562 C8.10230469,37.1669844 8.14738281,37.0751094 8.19332031,36.9827656 C8.19792969,36.9735469 8.20246094,36.9643281 8.20707031,36.9550312 C8.30441406,36.7600312 8.40628906,36.5626094 8.51253906,36.3631562 C8.51855469,36.3518281 8.52457031,36.3406562 8.53058594,36.3293281 C8.63769531,36.1290937 8.74933594,35.92675 8.86582031,35.7226875 C8.87058594,35.7144062 8.87535156,35.706125 8.88019531,35.6977656 C8.93660156,35.5990937 8.99410156,35.5002656 9.05285156,35.4008906 C9.05535156,35.3966719 9.05777344,35.3924531 9.06027344,35.3882344 C9.12292969,35.2822969 9.18691406,35.1760469 9.25222656,35.0694062 C9.25230469,35.06925 9.25238281,35.0691719 9.25246094,35.0690156 C9.71050781,34.3210469 10.2332422,33.5568281 10.8296484,32.7944844 C10.2145703,31.7141719 9.75683594,30.5252656 9.49730469,29.238625 C8.18105469,22.7134687 12.4071484,16.3515937 18.9323047,15.0352656 L23.8569922,14.0418281 C23.9655078,14.0200312 24.0730859,13.9959687 24.1801953,13.971125 C24.2087109,13.9644844 24.2371484,13.9576094 24.2655859,13.9508125 C24.3587109,13.9283125 24.4514453,13.904875 24.5435547,13.8801875 C24.5582422,13.8762031 24.5730859,13.8726094 24.5876953,13.868625 C24.6916797,13.8401875 24.7948047,13.8101094 24.8973828,13.7788594 C24.9245703,13.7705 24.9516797,13.7619062 24.9788672,13.7533906 C25.0626953,13.7271406 25.1461328,13.6999531 25.2289453,13.6718281 C25.2511328,13.66425 25.2734766,13.6569844 25.2957422,13.64925 C25.3951172,13.6147969 25.4937891,13.5788594 25.5917578,13.5416719 C25.6169141,13.5319844 25.6418359,13.5220625 25.6669922,13.512375 C25.7453516,13.4819062 25.8231641,13.4505781 25.9004297,13.4184687 C25.9266797,13.4075312 25.9530859,13.3968281 25.9792578,13.3856562 C26.0741797,13.3452656 26.1685547,13.3037812 26.2619922,13.2608125 C26.2837891,13.2508125 26.3053516,13.2403437 26.3270703,13.2301875 C26.4026953,13.1947969 26.4778516,13.158625 26.5523828,13.1215937 C26.5804297,13.1076094 26.6085547,13.0937031 26.6365234,13.0794844 C26.7273828,13.0333906 26.8177734,12.9863594 26.9070703,12.9378437 C26.9226953,12.9293281 26.9380078,12.9203437 26.9536328,12.91175 C27.0301172,12.8696406 27.1058984,12.8265937 27.1810547,12.7827656 C27.2094922,12.7662031 27.2378516,12.7494844 27.2660547,12.7326875 C27.3437109,12.6865156 27.4206641,12.6394844 27.4967578,12.5913594 C27.5087891,12.5838594 27.5209766,12.5765937 27.5328516,12.5690156 C29.6168359,11.2428437 31.1857422,9.22167187 31.9980078,6.79409375 C32.1303516,6.40221875 32.4280078,6.16284375 32.7542578,6.0970625 C33.1051953,6.02620312 33.4958203,6.15245312 33.7549609,6.51659375 C34.9941797,8.251125 36.0260547,10.3559687 36.7359766,12.5690156 L36.7359766,12.5690937 C36.8298828,12.8618281 36.9183203,13.1562812 37.0006641,13.4522187 C37.0344922,13.5732344 37.0673047,13.6943281 37.0991797,13.8157344 C37.1147266,13.8755 37.1298047,13.9353437 37.1449609,13.9952656 C37.1824609,14.143625 37.2189453,14.2921406 37.2533984,14.4409687 C37.2598047,14.4690156 37.2658984,14.4970625 37.2723047,14.5251875 C37.3119141,14.69925 37.3498828,14.8734687 37.3850391,15.0478437 C38.9985547,23.04675 36.5276953,30.7127656 31.1374609,35.1427656 C31.0698828,35.1983906 31.0018359,35.2535469 30.9332422,35.3080781 C30.8941016,35.33925 30.8548047,35.3703437 30.8152734,35.401125 C30.7397266,35.4601875 30.6636328,35.5185469 30.5869141,35.5763594 C30.5416016,35.6105781 30.4959766,35.6444844 30.4501953,35.6781562 C30.3798828,35.7301094 30.3091797,35.7815937 30.2378516,35.8325312 C30.1935547,35.8640937 30.1491016,35.8955 30.1044141,35.92675 C30.0390234,35.9724531 29.9730859,36.0176094 29.9069141,36.0624531 C29.8455859,36.1040937 29.7838672,36.1453437 29.7218359,36.186125 C29.6531641,36.2313594 29.5842578,36.2762812 29.5148828,36.3205781 C29.4631641,36.3535469 29.4112109,36.3860469 29.3591016,36.4184687 C29.3030859,36.4533125 29.2466016,36.4876875 29.1900391,36.5219844 C29.1107422,36.5700312 29.0308203,36.6175312 28.9505078,36.6643281 C28.8878516,36.7008906 28.8251172,36.737375 28.7619141,36.7730781 C28.7023047,36.80675 28.6423828,36.839875 28.5822266,36.8729219 C28.5335547,36.8997187 28.4845703,36.926125 28.4355859,36.9524531 C28.3348828,37.0064375 28.2334766,37.0594062 28.1314453,37.1114375 C28.0801953,37.1376094 28.0291797,37.1639375 27.9776953,37.1895625 C27.9113672,37.2225312 27.8446484,37.2547187 27.7777734,37.2869062 Z M48.125,17.5690391 C49.1605469,17.5690391 50,18.4084922 50,19.4440391 L50,30.6940391 C50,31.7295859 49.1605469,32.5690391 48.125,32.5690391 L47.5,32.5690391 L47.5,33.8190391 C47.5,35.8901328 45.8210938,37.5690391 43.75,37.5690391 L31.8353906,37.5690391 C32.13125,37.3507578 32.4219531,37.1242734 32.7063281,36.8880234 C33.3826563,36.3259922 34.0179688,35.7181797 34.6125,35.0690391 L43.75,35.0690391 C44.4392969,35.0690391 45,34.5083359 45,33.8190391 L45,30.0690391 L47.5,30.0690391 L47.5,20.0690391 L45,20.0690391 L45,16.3190391 C45,15.6297422 44.4392969,15.0690391 43.75,15.0690391 L39.7752344,15.0690391 C39.7457031,14.9074766 39.7151563,14.7459141 39.6825,14.5843516 C39.5460938,13.9082578 39.3797656,13.2350547 39.1875,12.5690391 L43.75,12.5690391 C45.8210938,12.5690391 47.5,14.2479453 47.5,16.3190391 L47.5,17.5690391 L48.125,17.5690391 Z M3.75,35.0690391 L6.5453125,35.0690391 C6.10554687,35.8786484 5.705625,36.7126328 5.34789062,37.5690391 L3.75,37.5690391 C1.67890625,37.5690391 -5.08038056e-13,35.8901328 -5.08038056e-13,33.8190391 L-5.08038056e-13,16.3190391 C-5.08038056e-13,14.2479453 1.67890625,12.5690391 3.75,12.5690391 L19.3055469,12.5690391 L18.4688281,12.7377891 C16.5646094,13.1219297 14.7913281,13.8685703 13.198125,14.9570078 C13.1442969,14.9938047 13.0914844,15.0316172 13.0382812,15.0690391 L3.75,15.0690391 C3.06070312,15.0690391 2.5,15.6297422 2.5,16.3190391 L2.5,33.8190391 C2.5,34.5083359 3.06070312,35.0690391 3.75,35.0690391 Z" fill="#4A81FD" fill-rule="nonzero"></path>
    </g>
</svg>