<?xml version="1.0" encoding="UTF-8"?>
<svg width="50px" height="50px" viewBox="0 0 50 50" version="1.1" xmlns="http://www.w3.org/2000/svg" xmlns:xlink="http://www.w3.org/1999/xlink">
    <!-- Generator: Sketch 53.2 (72643) - https://sketchapp.com -->
    <title>AT/ICO/LE-Breached-accounts@2x</title>
    <desc>Created with Sketch.</desc>
    <g id="AT/ICO/LE-Breached-accounts" stroke="none" stroke-width="1" fill="none" fill-rule="evenodd">
        <path d="M1.67025515,9.96469701 L48.3123004,9.96469701 C48.312188,9.24022965 48.3125003,8.54908072 48.3120838,7.85803591 C48.3116674,6.80965106 48.167357,6.66617362 47.1100178,6.66617362 C35.3490327,6.6660695 23.5879435,6.66596538 11.8269584,6.66617362 C8.75656207,6.66617362 5.68616572,6.66492418 2.61576938,6.66908898 C1.9409673,6.66992194 1.68899676,6.86587589 1.67535703,7.43457964 C1.65536598,8.26472885 1.67025515,9.0956069 1.67025515,9.96469701 Z M48.3268689,11.6747648 L1.66619447,11.6747648 L1.66619447,12.2244146 C1.66629859,21.142818 1.66619447,30.0611173 1.66671507,38.9795208 C1.66681919,39.7837441 1.86485553,39.9816763 2.6901111,39.9817804 C11.8514266,39.9837587 21.0127421,39.9838628 30.1739535,39.9844875 L30.7821188,39.9844875 L30.7821188,41.6262526 C30.6178173,41.6341657 30.4503923,41.649159 30.2829672,41.6492631 C21.0869797,41.650929 11.8909922,41.6529073 2.69510886,41.6508249 C1.14288706,41.6505126 0.00173124636,40.5075867 0.00141888619,38.9590091 C-0.000455274821,28.5137892 -0.000559394877,18.0685692 0.00162712631,7.62324518 C0.00193948648,6.1811824 1.17224892,5.0017104 2.60671094,5.00150216 C17.5285727,4.99941976 32.4503303,4.99941976 47.372088,5.00202276 C48.6977445,5.002231 49.9540571,6.09788635 49.9630114,7.36356976 C49.9926857,11.5445106 49.9742564,15.725868 49.9742564,19.951164 L48.3268689,19.951164 L48.3268689,11.6747648 Z M48.3108552,27.0592528 C48.3108552,25.6292679 48.2900312,24.6226352 48.3212672,23.6175643 C48.3335534,23.221804 48.2141277,23.0438628 47.8337771,22.9195435 C45.1183261,22.0325447 42.4139117,21.1116028 39.69617,20.2322048 C39.3762091,20.1287095 38.9663925,20.1195469 38.648514,20.2222093 C35.8971415,21.1107699 33.1593046,22.0412908 30.4113681,22.9404716 C30.066106,23.0534419 29.9739597,23.2189928 29.9781245,23.5693568 C29.9979073,25.2517286 29.9571964,26.9350376 29.9984279,28.6165765 C30.0231044,29.6182114 30.0773509,30.6324449 30.2599775,31.6146094 C31.1490587,36.3966353 33.7633051,39.9826342 37.9215478,42.468917 C39.1458955,43.200881 39.1436049,43.2022346 40.38128,42.4666264 C44.2165422,40.1870219 46.7410371,36.9180686 47.8512693,32.5795941 C48.351462,30.6248441 48.3398006,28.6307368 48.3108552,27.0592528 Z M28.3208456,21.8903167 C30.0440325,21.3177605 31.7512891,20.751868 33.4576086,20.1831643 C35.2159881,19.5972807 36.9706193,18.9996316 38.7347254,18.4314485 C38.9771169,18.3533584 39.2880194,18.3454453 39.5280161,18.42416 C42.8858879,19.5246049 46.2356384,20.6496221 49.5919484,21.7549607 C49.8882741,21.8526253 49.9873964,21.9860031 49.985314,22.2987797 C49.9708413,24.4851968 50.0387276,26.6738004 49.9649064,28.8577185 C49.7419854,35.4477893 46.7863294,40.4723108 41.1745707,43.9320121 C40.5993074,44.2867491 40.0131114,44.6250352 39.4194189,44.9475991 C39.2921842,45.0167348 39.0726991,45.0522397 38.9587918,44.9893512 C36.7358286,43.7618799 34.5859576,42.4384098 32.88297,40.4987573 C29.9526151,37.1609807 28.3951873,33.2890681 28.3269887,28.8434541 C28.291692,26.5371948 28.3208456,24.2299985 28.3208456,21.8903167 Z M5.02089062,22.4545225 L11.6201239,22.4545225 L11.6201239,15.8564345 L5.02089062,15.8564345 L5.02089062,22.4545225 Z M3.3590304,24.1361655 L3.3590304,14.2029039 L13.2916673,14.2029039 L13.2916673,24.1361655 L3.3590304,24.1361655 Z M3.35444912,36.617349 L3.35444912,35.012859 L26.6128914,35.012859 L26.6128914,36.617349 L3.35444912,36.617349 Z M3.37402369,28.2975318 L3.37402369,26.6917923 L26.632466,26.6917923 L26.632466,28.2975318 L3.37402369,28.2975318 Z M15.03547,19.9679273 L15.03547,18.3628125 L30.7973724,18.3628125 L30.7973724,19.9679273 L15.03547,19.9679273 Z M8.36949576,9.13902496 L8.36949576,7.53411841 L9.96565622,7.53411841 L9.96565622,9.13902496 L8.36949576,9.13902496 Z M5.86582488,9.14423096 L5.86582488,7.52880829 L7.47166851,7.52880829 L7.47166851,9.14423096 L5.86582488,9.14423096 Z M3.35715624,9.14110736 L3.35715624,7.53807497 L4.96424931,7.53807497 L4.96424931,9.14110736 L3.35715624,9.14110736 Z M44.5897814,30.7651251 C43.5993914,29.9521557 42.7237418,29.0958723 41.7181503,28.4385624 C40.0257829,27.3324951 38.2216946,27.3524861 36.5379692,28.4617812 C35.5484122,29.1136769 34.6875476,29.9610059 33.7089232,30.7700187 C34.6788015,31.5840293 35.5328983,32.4371891 36.5168328,33.0966855 C38.2536595,34.2607477 40.0966886,34.241902 41.8243527,33.0730503 C42.7919404,32.4184475 43.6316686,31.5749709 44.5897814,30.7651251 Z M47.0963676,30.7610644 C45.7536354,31.9284585 44.5025288,33.1079305 43.1560482,34.1659985 C40.9198618,35.9230244 37.5275262,35.9697743 35.2485464,34.2414855 C33.8474028,33.1787321 32.5723486,31.9495948 31.1897384,30.751173 C32.6276364,29.5386949 33.95246,28.2783217 35.4208651,27.2168177 C37.7078622,25.5634953 41.0817685,25.7269638 43.2829706,27.500649 C44.5631267,28.5321664 45.7851838,29.635839 47.0963676,30.7610644 Z M40.1903239,30.0243693 C40.1868037,30.6927389 39.8618089,31.0169912 39.1925838,31.0196315 C38.5008541,31.0222718 38.1671845,30.6774001 38.1812655,29.9743295 C38.1943407,29.3184069 38.5365595,28.997675 39.2099336,29.0104993 C39.8768957,29.0231978 40.1939699,29.3512219 40.1903239,30.0243693 Z M42.1998334,31.0094156 C42.2086241,32.030676 40.7198472,33.0288287 39.187242,33.0291636 C37.6821394,33.0294148 36.196502,32.0554582 36.1716367,31.0521984 C36.1465203,30.0345381 37.6233669,29.0237432 39.1549674,29.0102637 C40.6807911,28.9968679 42.1910426,29.9884901 42.1998334,31.0094156 Z" fill="#4A81FD" fill-rule="nonzero"></path>
    </g>
</svg>