<?xml version="1.0" encoding="UTF-8"?>
<svg width="50px" height="50px" viewBox="0 0 50 50" version="1.1" xmlns="http://www.w3.org/2000/svg" xmlns:xlink="http://www.w3.org/1999/xlink">
    <!-- Generator: Sketch 53.2 (72643) - https://sketchapp.com -->
    <title>AT/ICO/LE-Camera-privacy-mode@2x</title>
    <desc>Created with Sketch.</desc>
    <g id="AT/ICO/LE-Camera-privacy-mode" stroke="none" stroke-width="1" fill="none" fill-rule="evenodd">
        <path d="M24.1934949,38 C18.0183994,38 13,32.9380561 13,26.7093794 C13,24.6244829 13.5721396,22.677359 14.5521315,21 L16.9256988,22.8758288 C16.32777,24.0232927 15.9848683,25.3268348 15.9848683,26.7093794 C15.9848683,31.2732219 19.6698673,34.9892321 24.1934949,34.9892321 C26.2728735,34.9892321 28.169817,34.1972797 29.6178363,32.905299 L32,34.7878719 C29.9827066,36.7725701 27.2299417,38 24.1934949,38 Z M24.0277957,16 C30.0808122,16 35,21.0946114 35,27.3634852 C35,28.2720598 34.8848382,29.1525142 34.690093,30 L32.0497981,27.8589832 C32.0591609,27.6941405 32.0741413,27.531237 32.0741413,27.3634852 C32.0741413,22.7701898 28.4619931,19.0301981 24.0277957,19.0301981 C23.1935748,19.0301981 22.3893148,19.163042 21.6318685,19.4083668 L19,17.273168 C20.5074024,16.4644688 22.2142314,16 24.0277957,16 Z M44.7094204,44.7021145 C44.7988295,44.7737216 44.897957,44.8367358 45,44.8949763 C44.6890117,44.9608548 44.3673333,45 44.0359364,45 L4.55500605,45 C2.03988856,45 0,42.9959563 0,40.5250344 L0,13.6723765 C0,12.6660582 0.349861783,11.747578 0.920330857,11 L3.3023065,12.8331414 C3.13515031,13.0727865 3.03699464,13.3620791 3.03699464,13.6723765 L3.03699464,40.5250344 C3.03699464,41.3451742 3.72019696,42.0163713 4.55500605,42.0163713 L41.2205209,42.0163713 L44.7094204,44.7021145 Z M12.7931455,12.0374394 L9,9.02495962 L13.0926043,9.02495962 L14.2438573,5.92764838 C14.8941108,4.16739618 16.5558697,3 18.4125146,3 L30.5743467,3 C32.1248781,3 33.5080928,3.9697775 34.0461681,5.44757959 L35.3742443,9.02495962 L43.5442424,9.02495962 C46.0045583,9.02495962 48,11.049346 48,13.5431973 L48,39.8134163 L45.029178,37.6401438 L45.029178,13.5431973 C45.029178,12.7151269 44.3608619,12.0374394 43.5442424,12.0374394 L33.3227135,12.0374394 L31.2711827,6.50218853 C31.1590045,6.21009848 30.8804602,6.01247981 30.5743467,6.01247981 L18.4125146,6.01247981 C17.790781,6.01247981 17.2336925,6.40771716 17.0197933,6.99189724 L15.1536418,12.0374394 L12.7931455,12.0374394 Z M49.7788181,43.0605867 C50.0365091,43.2632069 50.0730473,43.6256403 49.8672792,43.8786778 L49.1307444,44.7842857 C48.931707,45.0306643 48.5567089,45.0744227 48.3067102,44.8718025 L0.219454132,7.93498681 C-0.0315061335,7.73902544 -0.0757366783,7.37659203 0.130993042,7.12355454 L0.866566233,6.21794666 C1.06560368,5.96395789 1.44156332,5.92780968 1.69156205,6.1313812 L49.7788181,43.0605867 Z" id="Combined-Shape" fill="#000000"></path>
    </g>
</svg>