<?xml version="1.0" encoding="UTF-8"?>
<svg width="50px" height="50px" viewBox="0 0 50 50" version="1.1" xmlns="http://www.w3.org/2000/svg" xmlns:xlink="http://www.w3.org/1999/xlink">
    <!-- Generator: Sketch 53.2 (72643) - https://sketchapp.com -->
    <title>AT/ICO/LE-Data-protection@2x</title>
    <desc>Created with Sketch.</desc>
    <g id="AT/ICO/LE-Data-protection" stroke="none" stroke-width="1" fill="none" fill-rule="evenodd">
        <path d="M4.0643012,9.1929036 L4.0643012,11.2572048 C4.0643012,13.5306885 9.61204187,15.3858072 16.4501084,15.3858072 C23.2881749,15.3858072 28.8359156,13.5306885 28.8359156,11.2572048 L28.8359156,9.1929036 C28.8359156,6.91941988 23.2881749,5.0643012 16.4501084,5.0643012 C9.61204187,5.0643012 4.0643012,6.91941988 4.0643012,9.1929036 Z M22.2896036,33.4756915 C22.4437381,34.1439746 22.6298005,34.80345 22.8466897,35.4519158 C20.574307,35.8702809 18.2380685,36.0288192 16.4501084,36.0288192 C11.4242231,36.0288192 2,34.8243683 2,29.8359156 L2,9.1929036 C2,4.21325863 11.4088096,3 16.4501084,3 C21.4759937,3 30.9002168,4.20334998 30.9002168,9.1929036 L30.9002168,16.5076861 C30.7747073,16.5495226 30.6502987,16.5891572 30.5258902,16.6309937 L28.8733483,17.1836759 L28.8359156,17.1968875 L28.8359156,14.7087164 C26.1748937,16.5792485 21.3042439,17.4501084 16.4501084,17.4501084 C11.5959729,17.4501084 6.72532307,16.5792485 4.0643012,14.7087164 L4.0643012,17.4501084 C4.0643012,19.7235921 9.61204187,21.5787108 16.4501084,21.5787108 C18.3338521,21.5787108 20.1130045,21.433384 21.7115993,21.182365 C21.7115993,21.8836769 21.7093974,22.5827869 21.7060945,23.279695 C20.0260286,23.5230073 18.2380685,23.643012 16.4501084,23.643012 C11.5959729,23.643012 6.72532307,22.7721521 4.0643012,20.90162 L4.0643012,23.643012 C4.0643012,25.9164957 9.61204187,27.7716144 16.4501084,27.7716144 C18.3327511,27.7716144 20.1097016,27.6262876 21.7082964,27.3763695 C21.7115993,27.8651961 21.7115993,28.3540226 21.719306,28.8417482 C21.7226089,29.0520316 21.74683,29.2579113 21.7545368,29.4670938 C20.0601583,29.7148099 18.2545829,29.8359156 16.4501084,29.8359156 C11.5959729,29.8359156 6.72532307,28.9650557 4.0643012,27.0945236 L4.0643012,29.8359156 C4.0643012,32.1093993 9.61204187,33.964518 16.4501084,33.964518 C18.5617509,33.964518 20.5500858,33.7861624 22.2896036,33.4756915 Z M35.8758983,28.9908182 C37.5438537,28.9908182 39.185386,30.0752645 39.1941937,31.1916385 C39.2041023,32.3168203 37.564772,33.415579 35.8781003,33.41668 L35.8769993,33.41668 C34.2200535,33.41668 32.584026,32.3432434 32.557603,31.2389799 C32.5300789,30.1237067 34.1396834,29.0172413 35.8164465,28.9919192 C35.1316489,29.0062317 34.7826444,29.3585391 34.7694329,30.0532452 C34.7540194,30.8239177 35.1184374,31.2037491 35.8747974,31.2037491 L35.8825041,31.2037491 C36.6190468,31.2004462 36.9779599,30.843735 36.9823638,30.1082933 C36.9856667,29.3662458 36.6366621,29.0062317 35.9023214,28.9919192 C35.8891099,28.9908182 35.8781003,28.9908182 35.8659897,28.9908182 L35.8758983,28.9908182 Z M35.8362637,34.4405734 C36.8293302,34.4405734 37.8201948,34.1135881 38.7802325,33.4640213 C39.8459624,32.7428921 40.7707693,31.8147823 41.8254896,30.9230041 C40.7355386,30.0279231 39.7710971,29.0855008 38.6635307,28.3621697 C37.7409257,27.7588433 36.7885947,27.459382 35.8362637,27.459382 C34.8663174,27.459382 33.8963711,27.7709538 32.9605546,28.3874918 C31.8706035,29.1053181 30.9237774,30.0378318 29.8459369,30.928509 C30.9138687,31.8246909 31.8540891,32.7638103 32.9374344,33.4904444 C33.8842605,34.1245977 34.8608126,34.4405734 35.8362637,34.4405734 Z M35.7911244,25.752893 C37.4392624,25.752893 39.0951072,26.2890608 40.3865341,27.3283677 C41.7968647,28.464559 43.1411376,29.6800196 44.585598,30.9186003 C43.1070078,32.2045223 41.7286051,33.5025549 40.2467121,34.6673713 C38.9949198,35.6516301 37.4117384,36.1481633 35.829658,36.1481633 C34.3015246,36.1481633 32.7733912,35.6857599 31.5403153,34.7499433 C29.9989704,33.5807231 28.5941447,32.2265415 27.0726171,30.9075907 C28.6557985,29.5721254 30.1134703,28.186016 31.7307815,27.0167958 C32.9066075,26.1657532 34.345563,25.752893 35.7911244,25.752893 Z M35.8329609,44.4130749 C36.1698548,44.4130749 36.5100517,44.2104981 37.1915463,43.8064456 C41.4148313,41.2962553 44.193656,37.697215 45.4168232,32.9201468 C45.9673036,30.7688697 45.954092,28.5735541 45.9221642,26.842844 C45.9221642,25.2684703 45.899044,24.1609039 45.9331738,23.0533375 C45.9463853,22.618458 45.815371,22.422487 45.397006,22.2859679 C42.4067969,21.3083149 39.4297993,20.2954311 36.4373883,19.3265857 C36.2524269,19.2671338 36.0421434,19.2363069 35.8329609,19.2363069 C35.6413937,19.2363069 35.4509275,19.261629 35.2846825,19.3155761 C32.2559397,20.2943301 29.2404086,21.3182235 26.2149687,22.3090881 C25.8362383,22.4323957 25.7338489,22.6151552 25.7382528,23.0015923 C25.760272,24.8534081 25.7151326,26.7063249 25.760272,28.5570397 C25.7888969,29.6602023 25.8472479,30.7765764 26.0487237,31.8577197 C27.0285786,37.1236145 29.9064897,41.0716593 34.4842841,43.8086475 C35.156971,44.2115991 35.493865,44.4130749 35.8329609,44.4130749 Z M35.8384657,17.275496 C35.9826915,17.275496 36.1269174,17.2953133 36.2524269,17.3360489 C39.9494527,18.5482065 43.6365699,19.7867873 47.3324948,21.0033488 C47.6583791,21.1112429 47.7673742,21.2576707 47.7651723,21.6022714 C47.7497588,24.0089713 47.8246242,26.4189742 47.7431531,28.8234722 C47.4976389,36.0777019 44.2431992,41.6100291 38.065709,45.4193529 C37.4326567,45.809093 36.7863928,46.1823186 36.1324222,46.5379289 C36.0432443,46.5852702 35.913331,46.6194 35.7977301,46.6194 C35.7327734,46.6194 35.6711197,46.6083904 35.6259803,46.5830683 C33.1774438,45.2321896 30.8114794,43.7756187 28.9365434,41.639755 C25.7096278,37.9647484 23.9954321,33.7018288 23.9205667,28.8069578 C23.8820331,26.2681426 23.913961,23.7282264 23.913961,21.1519785 C25.8109162,20.522229 27.690256,19.8990853 29.5684948,19.2726387 C31.5050846,18.6274757 33.4372705,17.9702022 35.3782641,17.3437556 C35.5180861,17.2986162 35.6799273,17.275496 35.8384657,17.275496 Z" id="Combined-Shape" fill="#4A81FD" fill-rule="nonzero"></path>
    </g>
</svg>