<?xml version="1.0" encoding="UTF-8"?>
<svg width="50px" height="50px" viewBox="0 0 50 50" version="1.1" xmlns="http://www.w3.org/2000/svg" xmlns:xlink="http://www.w3.org/1999/xlink">
    <!-- Generator: Sketch 53.2 (72643) - https://sketchapp.com -->
    <title>AT/ICO/LE-Energy-star-logo@2x</title>
    <desc>Created with Sketch.</desc>
    <g id="AT/ICO/LE-Energy-star-logo" stroke="none" stroke-width="1" fill="none" fill-rule="evenodd">
        <path d="M25.482875,29.4549325 C25.47735,29.4464325 25.471825,29.4379575 25.4663,29.4294575 C25.43055,29.4459075 25.394625,29.4618825 25.3591,29.4787825 C24.976825,29.6606575 24.58125,29.7931075 24.1535,29.8112075 C23.983825,29.8184075 23.964375,29.8384825 23.930475,30.0092825 C23.896175,30.1820075 23.96405,30.2534825 24.13335,30.2175825 C24.46495,30.1472575 24.755075,29.9855575 25.030125,29.7958825 C25.1855,29.6887325 25.33225,29.5689825 25.482875,29.4549325 Z M18.1654,28.8033575 C17.7536,28.7929825 16.955575,29.6082075 16.85945,30.1178825 C17.245475,29.7762325 17.66095,29.4948825 17.97735,29.1037075 C18.0464,29.0183325 18.095325,28.9167075 18.1654,28.8033575 Z M27.016875,27.1318075 C27.014275,27.1200825 27.01165,27.1083825 27.009025,27.0966575 C26.95555,27.0966575 26.90135,27.0909075 26.848725,27.0976075 C26.573575,27.1326575 26.33325,27.2544075 26.10835,27.4084325 C25.594325,27.7604075 25.1858,28.2191575 24.805975,28.7061825 C24.800475,28.7132325 24.803725,28.7271075 24.801625,28.7538825 C25.69125,28.4023825 26.332975,27.7384575 27.016875,27.1318075 Z M23.059075,35.5088825 C23.0688,35.5136575 23.078525,35.5183825 23.088275,35.5231325 C23.115475,35.5065825 23.144675,35.4926825 23.169525,35.4731575 C23.460475,35.2445325 23.698725,34.9662825 23.91305,34.6675325 C24.598375,33.7123075 25.078225,32.6505325 25.513825,31.5661575 C25.5195,31.5520575 25.51975,31.5357325 25.522525,31.5204825 C25.51135,31.5110575 25.50015,31.5016575 25.488975,31.4922575 C25.467325,31.5268575 25.449325,31.5645075 25.42345,31.5955575 C25.122175,31.9570075 24.804275,32.3057575 24.5209,32.6806575 C23.973825,33.4044075 23.5068,34.1772575 23.195375,35.0349575 C23.1394,35.1891075 23.103975,35.3507325 23.059075,35.5088825 Z M31.164225,31.6225325 C31.1481,31.6099575 31.132,31.5974075 31.115875,31.5848575 C31.0673,31.6471325 31.02505,31.7158325 30.9692,31.7707075 C29.9888,32.7345825 29.169425,33.8117075 28.636475,35.0893325 C28.4568,35.5200075 28.286275,35.9550075 28.265,36.4297075 C28.261525,36.5080075 28.2776,36.5871825 28.28575,36.6784825 C28.506475,36.5878825 28.666975,36.4623575 28.785975,36.2930325 C28.967725,36.0345325 29.151775,35.7759575 29.310425,35.5032075 C30.00455,34.3097075 30.561025,33.0492325 31.10045,31.7809075 C31.122725,31.7285325 31.143,31.6753325 31.164225,31.6225325 Z M5.1673,32.1864575 C5.176025,32.1946825 5.1847,32.2029325 5.193425,32.2111825 C5.256,32.1802325 5.32165,32.1542075 5.380675,32.1175075 C5.666925,31.9395325 5.961575,31.7728575 6.23465,31.5762825 C7.144425,30.9213325 7.94535,30.1422825 8.7148,29.3326075 C9.01455,29.0172075 9.276175,28.6633825 9.5353,28.3123575 C9.7111,28.0741825 9.836375,27.8025075 9.894675,27.5077825 C9.95945,27.1803075 9.83725,27.0498825 9.519975,27.1442825 C9.292,27.2121075 9.069075,27.3178825 8.86535,27.4419325 C8.4502,27.6947825 8.100975,28.0313575 7.768425,28.3834825 C6.92515,29.2764575 6.24415,30.2869575 5.6325,31.3468825 C5.4726,31.6239575 5.3221,31.9064575 5.1673,32.1864575 Z M-1.13686838e-13,33.0250075 C0.009525,32.9936825 0.019,32.9623325 0.028625,32.9310325 C0.099025,32.7024075 0.31285,32.5777325 0.538075,32.6568325 C1.52515,33.0034825 2.52535,32.9847575 3.533375,32.7770325 C3.696275,32.7434325 3.85735,32.6994325 4.017075,32.6527325 C4.0544,32.6418325 4.099075,32.6066575 4.112825,32.5718075 C4.41215,31.8123825 4.8279,31.1139075 5.2481,30.4191825 C5.86005,29.4075325 6.548525,28.4520575 7.393125,27.6179575 C7.824725,27.1917575 8.28845,26.8063075 8.839225,26.5393075 C9.088425,26.4185325 9.347675,26.3316825 9.62785,26.3190825 C10.279675,26.2897825 10.7351,26.7410325 10.711025,27.3938825 C10.69735,27.7649075 10.56985,28.1020325 10.4011,28.4262075 C10.180325,28.8502075 9.9011,29.2349325 9.57875,29.5852575 C8.6084,30.6398575 7.561925,31.6099325 6.370975,32.4146575 C5.890075,32.7396075 5.384725,33.0203575 4.841575,33.2305825 C4.79485,33.2486575 4.73945,33.3107325 4.734375,33.3574075 C4.718275,33.5049575 4.706125,33.6572825 4.7255,33.8033575 C4.7628,34.0840575 4.941725,34.2406325 5.224375,34.2181075 C5.42865,34.2018575 5.63735,34.1541325 5.82895,34.0808825 C6.46195,33.8389075 7.01035,33.4505325 7.541975,33.0395325 C8.48075,32.3137575 9.3349,31.4949075 10.136175,30.6224575 C10.68265,30.0274075 11.20255,29.4079825 11.7363,28.8011825 C11.790475,28.7396075 11.8506,28.6763575 11.92095,28.6373825 C12.07715,28.5508575 12.270425,28.5913325 12.39035,28.7198825 C12.51365,28.8520825 12.528375,29.0309825 12.437775,29.2064325 C12.2295,29.6096075 12.023225,30.0138575 11.8182,30.4187325 C11.773675,30.5066575 11.7378,30.5990325 11.71925,30.7031825 C11.74505,30.6698575 11.77035,30.6360825 11.7968,30.6032825 C12.120675,30.2014575 12.436525,29.7927825 12.77305,29.4018825 C12.892625,29.2629825 13.05315,29.1520075 13.211675,29.0558825 C13.41795,28.9308325 13.64115,28.9223325 13.84755,29.0686575 C14.055675,29.2162075 14.1038,29.4288575 14.063625,29.6674825 C13.998675,30.0534575 13.92025,30.4374575 13.866275,30.8249075 C13.836,31.0421575 13.82725,31.2654575 13.83795,31.4846325 C13.850675,31.7449575 13.95215,31.8088075 14.209925,31.7581325 C14.525775,31.6960575 14.804625,31.5450325 15.078875,31.3865825 C15.25905,31.2824575 15.471475,31.1983325 15.59705,31.0457075 C15.720425,30.8957575 15.755925,30.6718075 15.8238,30.4781575 C16.06015,29.8035825 16.37105,29.1711325 16.871025,28.6490075 C17.1941,28.3116075 17.5629,28.0453075 18.044775,27.9896325 C18.488475,27.9383825 18.859725,28.1795075 18.940675,28.5693075 C18.98915,28.8028075 18.938925,29.0251325 18.838375,29.2369325 C18.696475,29.5358825 18.48805,29.7869575 18.236525,29.9952575 C17.64955,30.4813575 17.052825,30.9555825 16.460625,31.4354075 C16.42275,31.4661075 16.37,31.4982825 16.359775,31.5387825 C16.3446,31.5989825 16.345575,31.6748825 16.371825,31.7283075 C16.3827,31.7504575 16.480525,31.7451575 16.53205,31.7297075 C16.91775,31.6140575 17.243575,31.3869825 17.5628,31.1531075 C18.5779,30.4093325 19.4432,29.5097825 20.24525,28.5466075 C20.485075,28.2585825 20.71135,27.9592825 20.942125,27.6637825 C21.1012,27.4600825 21.2676,27.3965575 21.458275,27.4717825 C21.643175,27.5447325 21.717325,27.6938825 21.698225,27.9537325 C21.697675,27.9615075 21.7007,27.9695325 21.698175,27.9548325 C21.765875,27.8982575 21.842125,27.8307575 21.92235,27.7683075 C22.085775,27.6411075 22.2395,27.4951825 22.4188,27.3960325 C22.688275,27.2470075 22.9946,27.3189075 23.098925,27.6887825 C23.163775,27.9187825 23.269625,28.1395575 23.37715,28.3544075 C23.461525,28.5229825 23.59625,28.6558825 23.778725,28.7509075 C23.841,28.6652825 23.900925,28.5816075 23.962175,28.4989325 C24.48535,27.7927575 25.092725,27.1753825 25.8522,26.7210075 C26.259675,26.4772075 26.69035,26.2932575 27.16835,26.2412575 C27.395925,26.2165075 27.618475,26.2352325 27.8289,26.3314075 C28.19755,26.4998825 28.3492,26.8846325 28.198775,27.2615575 C28.11625,27.4683075 27.97425,27.6307825 27.810125,27.7749075 C27.5476,28.0054575 27.282125,28.2326075 27.011975,28.4663325 C27.199125,28.5862825 27.2718,28.7536575 27.204625,29.0033075 C27.26415,28.9639325 27.299175,28.9412825 27.333725,28.9179075 C28.078425,28.4134575 28.81605,27.8980825 29.571125,27.4096825 C29.8806,27.2095325 30.22515,27.0623075 30.558625,26.9011075 C30.7781,26.7950075 30.973925,26.8432075 31.094725,27.0115325 C31.2166,27.1813075 31.196825,27.3731575 31.029925,27.5548075 C30.539225,28.0889075 30.113975,28.6684325 29.8164,29.3327325 C29.73025,29.5251075 29.67425,29.7317075 29.614725,29.9347825 C29.5963,29.9976575 29.61185,30.0704825 29.61185,30.1827825 C29.73535,30.1154325 29.8299,30.0760825 29.9107,30.0176825 C30.298925,29.7372325 30.615125,29.3820075 30.922325,29.0193575 C31.6428,28.1688075 32.271,27.2511825 32.875075,26.3163075 C32.909,26.2638075 32.9423,26.2109075 32.9772,26.1591325 C33.10645,25.9674325 33.3054,25.9027325 33.496575,25.9895325 C33.685125,26.0751325 33.77135,26.2745825 33.7041,26.4943575 C33.526175,27.0757075 33.3443,27.6558575 33.163275,28.2362325 C33.126625,28.3536825 33.086725,28.4701075 33.0713,28.6041575 C33.13235,28.5636325 33.193575,28.5233075 33.25445,28.4825325 C35.1486,27.2140075 37.1731,26.2126825 39.3452,25.5150325 C39.67025,25.4106325 39.998525,25.3160325 40.32615,25.2199325 C40.5982,25.1400825 40.818,25.2466575 40.8838,25.4855325 C40.947025,25.7151575 40.815475,25.9172825 40.5443,25.9927575 C39.418225,26.3061825 38.326025,26.7101075 37.2681,27.2073325 C35.91675,27.8424825 34.659725,28.6327575 33.46005,29.5177075 C33.336,29.6091825 33.21945,29.7130075 33.08775,29.7915825 C32.8306,29.9449825 32.699275,30.1732325 32.5942,30.4487575 C31.91205,32.2370825 31.1386,33.9842075 30.172675,35.6404825 C29.899775,36.1084325 29.6133,36.5683325 29.24885,36.9735075 C29.0785,37.1628825 28.87175,37.3016325 28.638075,37.3979075 C28.062775,37.6348825 27.56225,37.3439825 27.47635,36.7273325 C27.419225,36.3169575 27.504325,35.9214325 27.61245,35.5315575 C27.92665,34.3986825 28.5016,33.3987575 29.20275,32.4662325 C29.92555,31.5049075 30.774575,30.6668075 31.70995,29.9134075 C31.7715,29.8638075 31.81845,29.7910325 31.858825,29.7212825 C31.94225,29.5772325 32.017275,29.4282575 32.094375,29.2805575 C32.120325,29.2308325 32.1421,29.1789075 32.143525,29.1149825 C32.05215,29.2210575 31.962125,29.3282825 31.869175,29.4328825 C31.455675,29.8982825 31.0214,30.3412075 30.4843,30.6672825 C30.137925,30.8775575 29.77355,31.0082325 29.35595,30.9253575 C28.907475,30.8363825 28.715675,30.6218825 28.7079,30.1627325 C28.7008,29.7439325 28.83835,29.3605575 29.0114,28.9875325 C29.0616,28.8792825 29.1177,28.7737325 29.1551,28.6462075 C29.052475,28.7040575 28.949,28.7603825 28.847425,28.8200075 C28.140575,29.2349825 27.50115,29.7427325 26.872375,30.2643825 C26.828525,30.3007575 26.801075,30.3652825 26.782225,30.4221075 C26.404075,31.5622825 25.9678,32.6787075 25.412325,33.7453325 C25.02255,34.4937575 24.59395,35.2186825 23.986475,35.8159075 C23.809825,35.9896075 23.609125,36.1450325 23.399625,36.2774575 C23.142075,36.4403075 22.8549,36.5079325 22.575225,36.3237075 C22.299175,36.1418825 22.244525,35.8561075 22.26845,35.5515575 C22.316925,34.9343825 22.546225,34.3702575 22.8058,33.8189825 C23.33065,32.7041075 24.0411,31.7173075 24.897175,30.8334825 C24.924375,30.8054075 24.949675,30.7754575 24.986925,30.7341075 C24.775475,30.8157075 24.585475,30.8975575 24.389775,30.9622575 C24.177925,31.0322825 23.9582,31.0579075 23.736525,31.0089075 C23.409825,30.9367075 23.20095,30.6950575 23.16835,30.3632575 C23.154525,30.2225325 23.124825,30.0830075 23.1174,29.9421325 C23.11115,29.8232575 23.113925,29.7006575 23.1372,29.5846075 C23.15205,29.5106575 23.139075,29.4766825 23.077025,29.4480575 C23.0431,29.4324075 23.012125,29.4105825 22.979225,29.3926075 C22.71855,29.2502325 22.484775,29.0807325 22.371425,28.7595825 C22.275325,28.8689075 22.187275,28.9549075 22.11565,29.0529325 C21.6341,29.7120575 21.154575,30.3726575 20.677575,31.0350575 C20.48285,31.3054575 20.298875,31.5836075 20.1038,31.8537825 C20.043625,31.9371325 19.969475,32.0136075 19.8902,32.0793075 C19.76655,32.1818325 19.62315,32.1916825 19.47965,32.1213825 C19.3326,32.0494075 19.24525,31.9271825 19.251325,31.7632325 C19.25525,31.6576075 19.283,31.5489825 19.320325,31.4492575 C19.4134,31.2006075 19.518025,30.9562825 19.60285,30.6930825 C19.5599,30.7328075 19.517075,30.7726575 19.473975,30.8121825 C18.876175,31.3598825 18.24795,31.8659575 17.519475,32.2336575 C17.23185,32.3788575 16.9326,32.4880325 16.6113,32.5375575 C16.31215,32.5836075 16.04255,32.4901325 15.77545,32.3825325 C15.69145,32.3487075 15.61855,32.2871825 15.540575,32.2383325 C15.556975,32.2180825 15.573375,32.1978825 15.589775,32.1776325 C15.447525,32.2535075 15.307025,32.3329075 15.16265,32.4045575 C14.8292,32.5701325 14.4883,32.7141075 14.108525,32.7310825 C13.6616,32.7510575 13.346325,32.5550825 13.1771,32.1401825 C13.018975,31.7525325 13.001125,31.3454325 13.040775,30.9351075 C13.064375,30.6913075 13.1039,30.4490325 13.140425,30.1749075 C13.096775,30.2240575 13.066225,30.2530575 13.04195,30.2866075 C12.619525,30.8702325 12.190075,31.4490325 11.778575,32.0402825 C11.45985,32.4982075 11.162775,32.9712325 10.858125,33.4388825 C10.724425,33.6441075 10.603175,33.7075075 10.442825,33.6462825 C10.26055,33.5767075 10.144725,33.3901575 10.194375,33.1806325 C10.316175,32.6666325 10.4552,32.1566575 10.588225,31.6453075 C10.6026,31.5900575 10.623175,31.5364325 10.6205,31.4657325 C10.58695,31.4976575 10.55265,31.5288575 10.519925,31.5616575 C9.685925,32.3980075 8.8101,33.1857825 7.834075,33.8553825 C7.2311,34.2690325 6.604075,34.6405075 5.898625,34.8543575 C5.7007,34.9143575 5.493825,34.9569575 5.288075,34.9768075 C4.555425,35.0474825 4.0292,34.6238575 3.92665,33.8929575 C3.91,33.7741825 3.9044,33.6538575 3.893225,33.5291825 C3.638325,33.5730075 3.386525,33.6240575 3.132475,33.6585575 C2.251475,33.7782575 1.378925,33.7456075 0.5206,33.4949075 C0.484625,33.4844075 0.449525,33.4707575 0.41335,33.4611825 C0.20625,33.4064075 0.053475,33.2939825 -1.13686838e-13,33.0750075 L-1.13686838e-13,33.0250075 Z M49.99999,24.675 C49.95674,24.916225 49.801565,25.074125 49.619565,25.22465 C47.97579,26.58425 46.336565,27.949325 44.693215,29.309375 C44.60424,29.383 44.58029,29.44575 44.60969,29.559625 C45.152815,31.66445 45.691365,33.77045 46.230615,35.8763 C46.31089,36.1897 46.236965,36.433425 46.01659,36.5885 C45.79469,36.74465 45.543915,36.734975 45.27079,36.55885 C43.446715,35.38265 41.622365,34.206925 39.80004,33.028 C39.71439,32.9726 39.656215,32.9708 39.569065,33.02645 C37.722215,34.20565 35.873565,35.3821 34.023115,36.555675 C33.923415,36.6189 33.80844,36.6776 33.694015,36.69475 C33.255165,36.7605 32.92324,36.373375 33.03714,35.935175 C33.135615,35.556375 33.24434,35.1802 33.348615,34.8029 C33.832315,33.052875 34.31599,31.30285 34.799865,29.552875 C34.81429,29.500725 34.82854,29.448325 34.84719,29.3976 C34.949965,29.11845 35.244015,28.952925 35.525915,29.01415 C35.833265,29.0809 36.043015,29.34345 36.00329,29.65055 C35.977315,29.8513 35.91329,30.047725 35.85904,30.2441 C35.45869,31.693125 35.05644,33.1416 34.65509,34.59035 C34.643215,34.633275 34.63469,34.677125 34.61824,34.74775 C34.68059,34.710075 34.72179,34.6863 34.761915,34.6608 C36.262815,33.706125 37.76554,32.75425 39.262815,31.793925 C39.554515,31.606825 39.815365,31.602875 40.107665,31.792975 C41.588415,32.755875 43.07469,33.710275 44.559115,34.667575 C44.596215,34.6915 44.63389,34.714475 44.700315,34.756025 C44.624215,34.4576 44.557015,34.192925 44.489215,33.928425 C44.10149,32.4157 43.714365,30.902825 43.32504,29.39055 C43.25144,29.104675 43.33074,28.8796 43.55764,28.6917 C44.931015,27.554325 46.301915,26.41395 47.673615,25.274525 C47.71174,25.242875 47.74949,25.210825 47.80649,25.16295 C47.756965,25.153025 47.72849,25.143725 47.699515,25.14205 C46.56409,25.076175 45.42864,25.01125 44.29319,24.945575 C43.61109,24.90615 42.928915,24.868225 42.247115,24.824425 C41.972815,24.806775 41.797965,24.65145 41.700015,24.398475 C41.43534,23.714975 41.16814,23.032425 40.90204,22.34945 C40.51049,21.344375 40.11909,20.339225 39.727365,19.33425 C39.715765,19.304475 39.701165,19.27585 39.679565,19.22805 C39.65644,19.276325 39.63904,19.30735 39.626215,19.34015 C38.97254,21.01635 38.31674,22.691725 37.66819,24.3699 C37.54494,24.6888 37.33419,24.83815 36.991065,24.855475 C34.661015,24.973075 32.331465,25.100275 30.001665,25.2226 C29.667115,25.240175 29.41924,25.073475 29.33874,24.788625 C29.232965,24.4143 29.49829,24.047475 29.895265,24.025075 C30.614865,23.984475 31.33459,23.94635 32.054315,23.908375 C33.547865,23.82955 35.04139,23.75 36.53519,23.6761 C36.647365,23.670525 36.669565,23.60655 36.700465,23.5273 C37.49909,21.478525 38.298315,19.42995 39.09829,17.381725 C39.23119,17.0414 39.531715,16.88085 39.852865,16.97775 C40.05509,17.0388 40.18064,17.179025 40.25599,17.37375 C40.544615,18.11945 40.83609,18.864075 41.126365,19.609125 C41.63584,20.916875 42.14604,22.224375 42.65279,23.53315 C42.68624,23.619525 42.72949,23.650975 42.82329,23.65625 C44.75329,23.7643 46.68309,23.876275 48.61294,23.987525 C48.816715,23.9993 49.020415,24.0128 49.224315,24.023225 C49.72944,24.049025 49.845315,24.134575 49.99999,24.6 L49.99999,24.675 Z M25.27499,10 C25.595015,10.0142 25.91514,10.02655 26.235065,10.042875 C30.91329,10.281375 35.179265,11.736825 39.022565,14.41045 C42.073715,16.533025 44.51274,19.222375 46.35654,22.45045 C46.37924,22.490175 46.40074,22.530625 46.421715,22.571325 C46.42494,22.577575 46.422165,22.586925 46.422165,22.6118 C46.256715,22.6118 46.091515,22.6177 45.92744,22.607025 C45.892815,22.604775 45.85424,22.546375 45.830815,22.5061 C45.28579,21.568225 44.68519,20.6674 44.014915,19.8146 C40.87774,15.82315 36.89614,13.050125 32.044315,11.5403 C30.24254,10.979625 28.397065,10.64395 26.512415,10.544475 C20.346565,10.21915 14.836415,11.97345 10.013115,15.82425 C6.88014,18.325525 4.541865,21.447925 2.96049,25.1329 C2.194765,26.9172 1.66399,28.770975 1.35929,30.688675 C1.342865,30.792125 1.31079,30.8329 1.203165,30.82315 C1.09229,30.8131 0.979815,30.820925 0.84799,30.820925 C0.87869,30.62795 0.903715,30.44865 0.936065,30.2707 C1.88274,25.061825 4.25289,20.60505 8.045965,16.917225 C11.133765,13.915125 14.77714,11.87785 18.944315,10.786775 C20.785615,10.304675 22.66089,10.054425 24.564365,10.018225 C24.676315,10.016125 24.788115,10.00625 24.89999,10 L25.27499,10 Z M0.27499,38.6 C0.269565,38.4935 0.26414,38.386975 0.25839,38.273475 L49.70049,38.273475 C49.691465,38.388925 49.683215,38.49445 49.67499,38.6 L0.27499,38.6 Z" fill="#000000"></path>
    </g>
</svg>