<?xml version="1.0" encoding="UTF-8"?>
<svg width="50px" height="50px" viewBox="0 0 50 50" version="1.1" xmlns="http://www.w3.org/2000/svg" xmlns:xlink="http://www.w3.org/1999/xlink">
    <!-- Generator: Sketch 53.2 (72643) - https://sketchapp.com -->
    <title>AT/ICO/LE-expressCharging@2x</title>
    <desc>Created with Sketch.</desc>
    <g id="AT/ICO/LE-expressCharging" stroke="none" stroke-width="1" fill="none" fill-rule="evenodd">
        <path d="M41.15625,15.625 C42.4506836,15.625 43.5,16.6743164 43.5,17.96875 L43.5,22.65625 C43.5,23.9506836 42.4506836,25 41.15625,25 L40.375,25 C40.375,33.1020508 34.2083008,39.7634766 26.3125,40.5474609 L26.3125,50 L23.1875,50 L23.1875,40.5474609 C15.2916992,39.7634766 9.125,33.1020508 9.125,25 L8.34375,25 C7.04931641,25 6,23.9506836 6,22.65625 L6,17.96875 C6,16.6743164 7.04931641,15.625 8.34375,15.625 L41.15625,15.625 Z M40.375,21.875 L40.375,18.75 L9.125,18.75 L9.125,21.875 L12.25,21.875 L12.25,25 C12.25,31.9092773 17.8417969,37.5 24.75,37.5 C31.6592773,37.5 37.25,31.9082031 37.25,25 L37.25,21.875 L40.375,21.875 Z M32.5625,14.0625 L32.5625,1.5625 C32.5625,0.699511719 33.2620117,0 34.125,0 C34.9879883,0 35.6875,0.699511719 35.6875,1.5625 L35.6875,14.0625 L32.5625,14.0625 Z M13.8125,14.0625 L13.8125,1.5625 C13.8125,0.699511719 14.5120117,0 15.375,0 C16.2379883,0 16.9375,0.699511719 16.9375,1.5625 L16.9375,14.0625 L13.8125,14.0625 Z M21.5998197,25.0625 L24.4847869,25.0625 L23.419799,21.7667969 C23.3198001,21.3808594 23.6072968,21 23.9997924,21 L27.5997515,21 C27.8997481,21 28.1547452,21.2259766 28.1947447,21.528125 L28.9947356,27.621875 C29.0422351,27.9875 28.7622383,28.3125 28.3997424,28.3125 L25.4322761,28.3125 L26.584763,33.2509766 C26.674762,33.6369141 26.3847653,34 26.0022696,34 C25.794772,34 25.5922743,33.8882812 25.4822755,33.6953125 L21.0823255,25.9765625 C20.8498282,25.5728516 21.1373249,25.0625 21.5998197,25.0625 Z" id="Combined-Shape" fill="#000000" fill-rule="nonzero"></path>
    </g>
</svg>