<?xml version="1.0" encoding="UTF-8"?>
<svg width="50px" height="50px" viewBox="0 0 50 50" version="1.1" xmlns="http://www.w3.org/2000/svg" xmlns:xlink="http://www.w3.org/1999/xlink">
    <!-- Generator: Sketch 53.2 (72643) - https://sketchapp.com -->
    <title>AT/ICO/LE-face-recognition@2x</title>
    <desc>Created with Sketch.</desc>
    <g id="AT/ICO/LE-face-recognition" stroke="none" stroke-width="1" fill="none" fill-rule="evenodd">
        <path d="M0.960909763,9.24489645 C0.436945266,9.24489645 -3.69822488e-05,8.8204142 -3.69822488e-05,8.29637574 L-3.69822488e-05,1.02418639 C-3.69822488e-05,0.500147929 0.638054734,0.073964497 1.1620932,0.073964497 L8.43443047,0.073964497 C8.95832101,0.073964497 9.38280325,0.510872781 9.38280325,1.03491124 C9.38280325,1.5589497 8.95832101,1.99578402 8.43443047,1.99578402 L1.92185651,1.99578402 L1.92185651,8.29637574 C1.92185651,8.8204142 1.48494822,9.24489645 0.960909763,9.24489645 Z M49.0065163,9.24489645 C48.4825518,9.24489645 48.0456435,8.8204142 48.0456435,8.29637574 L48.0456435,1.99578402 L42.5824778,1.99578402 C42.0586612,1.99578402 41.634179,1.5589497 41.634179,1.03491124 C41.634179,0.510872781 42.0586612,0.073964497 42.5824778,0.073964497 L49.2226405,0.073964497 C49.746605,0.073964497 49.967463,0.500147929 49.967463,1.02418639 L49.967463,8.29637574 C49.967463,8.8204142 49.5305547,9.24489645 49.0065163,9.24489645 Z M8.43446746,49.4008284 L1.16205621,49.4008284 C0.638017751,49.4008284 -3.01980663e-13,48.9763462 -3.01980663e-13,48.4523077 L-3.01980663e-13,41.1798964 C-3.01980663e-13,40.655932 0.436908284,40.2313018 0.960946746,40.2313018 C1.48491124,40.2313018 1.92181953,40.655932 1.92181953,41.1798964 L1.92181953,47.4790089 L8.43446746,47.4790089 C8.95828402,47.4790089 9.38276627,47.9159172 9.38276627,48.4398817 C9.38276627,48.9639201 8.95828402,49.4008284 8.43446746,49.4008284 Z M49.2226331,49.4008284 L42.5825444,49.4008284 C42.0587278,49.4008284 41.6341716,48.9639201 41.6341716,48.4398817 C41.6341716,47.9159172 42.0587278,47.4790089 42.5825444,47.4790089 L48.0456361,47.4790089 L48.0456361,41.1798964 C48.0456361,40.655932 48.4825444,40.2313018 49.0065089,40.2313018 C49.5305473,40.2313018 49.9674556,40.655932 49.9674556,41.1798964 L49.9674556,48.4523077 C49.9674556,48.9763462 49.7465976,49.4008284 49.2226331,49.4008284 Z M18.0737421,19.0739645 C17.7833643,18.1148317 17.625,17.0796366 17.625,16 C17.625,11.0289063 20.9824219,7 25.125,7 C29.2675781,7 32.625,11.0289063 32.625,16 C32.625,17.0796366 32.4666357,18.1148317 32.1762579,19.0739645 L39.0834692,19.0739645 C39.6075077,19.0739645 40.0319899,19.5108728 40.0319899,20.0348373 C40.0319899,20.5588757 39.6075077,20.9957101 39.0834692,20.9957101 L31.3646795,20.9957101 C30.0196777,23.4101952 27.72725,25 25.125,25 C22.52275,25 20.2303223,23.4101952 18.8853205,20.9957101 L10.9487056,20.9957101 C10.4246672,20.9957101 9.99996302,20.5588757 9.99996302,20.0348373 C9.99996302,19.5108728 10.4246672,19.0739645 10.9487056,19.0739645 L18.0737421,19.0739645 Z M20.0726968,19.0739645 L30.1773032,19.0739645 C30.5439423,18.1453442 30.75,17.1018251 30.75,16 C30.75,12.1427083 28.2246094,9 25.125,9 C22.0253906,9 19.5,12.1427083 19.5,16 C19.5,17.1018251 19.7060577,18.1453442 20.0726968,19.0739645 Z M29.0599039,20.9957101 L21.1900961,20.9957101 C22.2055508,22.2346281 23.5953531,23 25.125,23 C26.6546469,23 28.0444492,22.2346281 29.0599039,20.9957101 Z M30.375,26.875 C34.7226562,26.875 38.25,30.4023438 38.25,34.75 L38.25,37.1875 C38.25,38.7402344 36.9902344,40 35.4375,40 L14.8125,40 C13.2597656,40 12,38.7402344 12,37.1875 L12,34.75 C12,30.4023438 15.5273437,26.875 19.875,26.875 C21.5625,26.875 22.3652344,27.8125 25.125,27.8125 C27.8847656,27.8125 28.6933594,26.875 30.375,26.875 Z M36.375,37.1875 L36.375,34.75 C36.375,31.4394531 33.6855469,28.75 30.375,28.75 C29.2265625,28.75 28.078125,29.6875 25.125,29.6875 C22.1660156,29.6875 21.0234375,28.75 19.875,28.75 C16.5644531,28.75 13.875,31.4394531 13.875,34.75 L13.875,37.1875 C13.875,37.703125 14.296875,38.125 14.8125,38.125 L35.4375,38.125 C35.953125,38.125 36.375,37.703125 36.375,37.1875 Z" id="Combined-Shape" fill="#4A81FD" fill-rule="nonzero"></path>
    </g>
</svg>