<?xml version="1.0" encoding="UTF-8"?>
<svg width="50px" height="50px" viewBox="0 0 50 50" version="1.1" xmlns="http://www.w3.org/2000/svg" xmlns:xlink="http://www.w3.org/1999/xlink">
    <!-- Generator: Sketch 54.1 (76490) - https://sketchapp.com -->
    <title>AT/ICO/LE-Figleaf@2x</title>
    <desc>Created with Sketch.</desc>
    <g id="AT/ICO/LE-Figleaf" stroke="none" stroke-width="1" fill="none" fill-rule="evenodd">
        <path d="M48.75,32.25 C49.440625,32.25 50,32.809375 50,33.5 L50,37.25 C50,40.6960938 47.196875,43.5 43.75,43.5 L6.25,43.5 C2.803125,43.5 0,40.6960938 0,37.25 L0,33.5 C0,32.809375 0.559375,32.25 1.25,32.25 L5,32.25 L5,11 C5,8.2421875 7.24375,6 10,6 L40,6 C42.75625,6 45,8.2421875 45,11 L45,32.25 L48.75,32.25 Z M7.5,11 L7.5,32.25 L19.4429688,32.25 C19.7601563,32.25 19.9914063,32.4945312 20.0617188,32.8039062 C20.3140625,33.9179688 21.3101562,34.75 22.5,34.75 L27.5,34.75 C28.6898438,34.75 29.6859375,33.9179688 29.9382812,32.8039062 C30.0085937,32.4945312 30.2398437,32.25 30.5570313,32.25 L42.5,32.25 L42.5,11 C42.5,9.61953125 41.3804687,8.5 40,8.5 L10,8.5 C8.61953125,8.5 7.5,9.61953125 7.5,11 Z M47.5,37.25 L47.5,34.75 L32.2851562,34.75 C31.7703125,36.2046875 30.38125,37.25 28.75,37.25 L21.25,37.25 C19.6195313,37.25 18.2296875,36.2046875 17.7148438,34.75 L2.5,34.75 L2.5,37.25 C2.5,39.3179688 4.18203125,41 6.25,41 L43.75,41 C45.8179688,41 47.5,39.3179688 47.5,37.25 Z M25,17.7083333 C26.6695389,17.7034212 28.1549944,18.7406678 28.6877489,20.2833719 C29.2205035,21.8260761 28.6810166,23.5280825 27.3484343,24.5087242 C26.015852,25.4893659 24.1891819,25.5286045 22.8135956,24.6061367 C21.4380093,23.6836689 20.8221638,22.00648 21.2847152,20.4423958 C21.5705895,20.6008877 21.8933653,20.6852755 22.2222169,20.6875 C23.296106,20.6875 24.1666651,19.8387065 24.1666651,18.7916667 C24.1643835,18.4710369 24.0778318,18.1563311 23.9152757,17.8776042 C24.2666997,17.7709447 24.631988,17.7139416 25,17.7083333 Z M34.8791854,21.0057292 C35.0402715,21.3164088 35.0402715,21.6832527 34.8791854,21.9939323 C32.9972374,25.5746875 29.2684109,28 25,28 C20.7315891,28 17.0038043,25.5763802 15.1208146,21.9942708 C14.9597285,21.6835912 14.9597285,21.3167473 15.1208146,21.0060677 C17.0027626,17.4253125 20.7315891,15 25,15 C29.2684109,15 32.9961957,17.4236198 34.8791854,21.0057292 Z M25,26.375 C28.4257009,26.375 31.5659847,24.5130208 33.261474,21.5 C31.5656375,18.4869792 28.4257009,16.625 25,16.625 C21.5742991,16.625 18.4343625,18.4869792 16.738526,21.5 C18.4343625,24.5130208 21.5746463,26.375 25,26.375 Z" id="AT/ICO/LE-ChargeFromShutdown" fill="#4A81FD" fill-rule="nonzero"></path>
    </g>
</svg>