<?xml version="1.0" encoding="UTF-8"?>
<svg width="50px" height="50px" viewBox="0 0 50 50" version="1.1" xmlns="http://www.w3.org/2000/svg" xmlns:xlink="http://www.w3.org/1999/xlink">
    <!-- Generator: Sketch 53.2 (72643) - https://sketchapp.com -->
    <title>AT/ICO/LE-Handwritting-recognition@2x</title>
    <desc>Created with Sketch.</desc>
    <defs>
        <polygon id="path-1" points="1 49 48.5 49 48.5 1 1 1"></polygon>
    </defs>
    <g id="AT/ICO/LE-Handwritting-recognition" stroke="none" stroke-width="1" fill="none" fill-rule="evenodd">
        <path d="M25.9643366,10.9995 L25.4999,10.9995 L25.4999,11.9995 C25.4999,12.7844331 25.8007454,13.5171278 26.3264545,14.0680092 C27.1258104,14.2010002 27.8610626,14.5236418 28.4844026,14.9881252 C28.9283764,14.9900216 29.84549,14.9933113 30.8105359,14.9954221 C31.1804703,14.9962313 31.5670357,14.9969726 31.9597803,14.997645 C32.0085233,14.9941712 32.0574723,14.9942536 32.1062055,14.9978921 C32.2902103,14.9981981 32.4752794,14.998489 32.6603492,14.9987648 C33.3330546,14.9997087 33.3330546,14.9997087 33.5,14.9999 C35.7092847,14.9999 37.5,16.7906153 37.5,18.9999 L37.5,20.0499118 L47.3714068,29.9219932 C48.7449561,31.2955425 48.8258324,33.6013865 47.4640446,34.9645688 C46.1012664,36.3259522 43.7950783,36.2454987 42.4221932,34.8712068 L34.3457619,26.7947754 C33.9139495,26.9298787 33.4613862,27 32.9999,27 C30.5146153,27 28.4999,24.9852847 28.4999,22.5 L28.4999,19 C28.4999,18.1259983 28.1260504,17.3392275 27.5295573,16.7908934 C27.4839997,16.7575922 27.4414469,16.7205697 27.40231,16.6803155 C26.9692707,16.3247451 26.4349163,16.0880458 25.8491455,16.0201164 C25.8054376,16.0188845 25.761757,16.0147988 25.7184047,16.0078379 C25.6462463,16.0026426 25.5733814,16 25.4999,16 L24.7654764,16 C24.6831917,16.0619397 24.5935242,16.1095067 24.4999,16.1427012 L24.4999,25 C24.4999,29.1486424 26.8156167,32.8840882 30.4314268,34.7648737 C31.7163401,35.4333489 32.5039,36.7978292 32.5039,38.269 L32.5039,39 L43.5,39 L43.5,37.918 C43.5,37.3657153 43.9477153,36.918 44.5,36.918 C45.0522847,36.918 45.5,37.3657153 45.5,37.918 L45.5,39 L47.5,39 C48.0522847,39 48.5,39.4477153 48.5,40 L48.5,48 C48.5,48.5522847 48.0522847,49 47.5,49 L27.5,49 C26.9477153,49 26.5,48.5522847 26.5,48 L26.5,40 C26.5,39.4477153 26.9477153,39 27.5,39 L30.5039,39 L30.5039,38.269 C30.5039,37.5274521 30.1158717,36.8551769 29.5084383,36.5391601 C25.2371476,34.3174225 22.4999,29.9020118 22.4999,25 L22.4999,15 C22.4999,14.9832853 22.5003101,14.9666665 22.5011207,14.9501529 L20.2704969,12.7186398 C19.585532,12.0894222 19.0552,11.0324801 18.5941946,9.62821262 C18.3657068,8.9322164 18.1701924,8.19296155 18.0063216,7.45458016 C17.9490971,7.19673379 17.8998141,6.95699564 17.8584648,6.74112271 C17.8332826,6.60965384 17.8161007,6.51387433 17.8069419,6.45960151 C17.6892732,5.76232315 18.3127414,5.16652583 19.0039637,5.3157061 C19.0556477,5.3268606 19.1482454,5.34757346 19.2759939,5.3772975 C19.4865766,5.42629508 19.7206472,5.48318561 19.9724885,5.54744288 C20.693356,5.73137209 21.4148803,5.93817028 22.0928622,6.16448572 C23.5444751,6.64904503 24.5971892,7.14616024 25.1888795,7.73986596 L26.4493235,8.9995 L33.4999,8.9995 C33.5111595,8.9995 33.5223755,8.99968608 33.5335451,9.00005535 C37.0462208,9.01164803 40.1380321,10.8434014 41.9132966,13.5996332 C45.8214339,15.0217369 48.5003,18.7573063 48.5003,22.9998 L48.5003,25.0008 C48.5003,25.7466344 48.436827,26.4871529 48.3119223,27.2157638 C48.2186061,27.760108 47.7016803,28.1257384 47.1573362,28.0324223 C46.612992,27.9391061 46.2473616,27.4221803 46.3406777,26.8778362 C46.4465159,26.2604471 46.5003,25.6329656 46.5003,25.0008 L46.5003,22.9998 C46.5003,20.3755131 45.2171336,17.9919194 43.1889054,16.5202842 C43.3919965,17.3134804 43.5,18.1443577 43.5,19 C43.5,19.5522847 43.0522847,20 42.5,20 C41.9477153,20 41.5,19.5522847 41.5,19 C41.5,17.5578155 41.1159839,16.2032771 40.4448786,15.0333117 C40.3973883,14.9710974 40.3573732,14.9035702 40.3256203,14.8322594 C38.9177723,12.5358333 36.384152,11 33.5,11 C33.4893178,11 33.4786746,10.9998325 33.4680731,10.9995 L26.1116595,10.9995 C26.0626236,11.0031 26.013373,11.0031 25.9643369,10.9995 Z M23.8554585,9.23481758 L23.7736937,9.15310524 C23.4732414,8.85163095 22.6216058,8.44946953 21.4595971,8.06158227 C21.0271596,7.91723139 20.5711026,7.78018252 20.1074962,7.65232666 C20.2234301,8.11635421 20.352644,8.57253524 20.4944173,9.00439067 C20.8555963,10.1045772 21.2612054,10.9129489 21.6541068,11.2750932 L23.6677778,13.2887642 C23.55755,12.8741316 23.4999,12.4414615 23.4999,11.9995 L23.4999,9.9995 C23.4999,9.69274768 23.6380184,9.41825463 23.8554585,9.23481758 Z M31.6190107,16.9970444 C31.3421507,16.9965368 31.069943,16.9959943 30.8061615,16.9954173 C30.5429094,16.9948415 30.3016624,16.9942859 30.0810662,16.9937326 C30.3504188,17.6078561 30.4999,18.2864818 30.4999,19 L30.4999,20.1204864 L43.8367688,33.4573554 C44.4502642,34.0714794 45.4918003,34.1078144 46.0498312,33.5503554 C46.6076792,32.9919359 46.5711391,31.9501527 45.9571691,31.3361826 L31.6190107,16.9970444 Z M30.5496347,22.9986483 C30.7481307,23.9793081 31.5205919,24.7517693 32.5012517,24.9502653 L30.5496347,22.9986482 Z M28.5,47 L46.5,47 L46.5,41 L28.5,41 L28.5,47 Z M2,18.5 C1.44771525,18.5 1,18.0522847 1,17.5 C1,16.9477153 1.44771525,16.5 2,16.5 C2.82871525,16.5 3.5,15.8287153 3.5,15 L3.5,10.5 C3.5,8.56671525 5.06671525,7 7,7 C8.93328475,7 10.5,8.56671525 10.5,10.5 L10.5,14.5 C10.5,15.3287153 11.1712847,16 12,16 C12.8287153,16 13.5,15.3287153 13.5,14.5 L13.5,4.5 C13.5,2.56671525 15.0667153,1 17,1 C17.9391974,1 18.8221914,1.37341827 19.474325,2.02411232 C19.8652806,2.41420485 19.8659802,3.04736944 19.4758877,3.43832502 C19.0857951,3.82928059 18.4526306,3.82998022 18.061675,3.43988768 C17.780521,3.15935438 17.4037078,3 17,3 C16.1712847,3 15.5,3.67128475 15.5,4.5 L15.5,14.5 C15.5,16.4332847 13.9332847,18 12,18 C10.0667153,18 8.5,16.4332847 8.5,14.5 L8.5,10.5 C8.5,9.67128475 7.82871525,9 7,9 C6.17128475,9 5.5,9.67128475 5.5,10.5 L5.5,15 C5.5,16.9332847 3.93328475,18.5 2,18.5 Z" id="Combined-Shape" fill="#4A81FD" fill-rule="nonzero"></path>
        <mask id="mask-2" fill="white">
            <use xlink:href="#path-1"></use>
        </mask>
        <g id="Clip-14"></g>
    </g>
</svg>