<?xml version="1.0" encoding="UTF-8"?>
<svg width="50px" height="50px" viewBox="0 0 50 50" version="1.1" xmlns="http://www.w3.org/2000/svg" xmlns:xlink="http://www.w3.org/1999/xlink">
    <!-- Generator: Sketch 53.2 (72643) - https://sketchapp.com -->
    <title>AT/ICO/LE-HDMI@2x</title>
    <desc>Created with Sketch.</desc>
    <g id="AT/ICO/LE-HDMI" stroke="none" stroke-width="1" fill="none" fill-rule="evenodd">
        <path d="M32.6674181,28.7293281 L32.6674181,22.934406 L29.7224038,22.934406 L29.7224038,28.7090118 L26.6589171,28.7090118 L26.6589171,21.0172166 C26.7336134,21.0128061 26.8090604,21.0045013 26.8844605,21.0045013 C31.1299036,21.0040321 35.3754405,21.0025776 39.6209304,21.0054397 C40.6168967,21.0061435 41.4560571,21.6206989 41.6951603,22.5198228 C41.7427839,22.6989156 41.7674168,22.8894568 41.7679799,23.0748369 C41.7732818,24.8730847 41.7680268,26.6714262 41.7756278,28.469674 C41.7765193,28.6723675 41.7285203,28.7374921 41.5166775,28.7344423 C40.6568255,28.7221024 39.796645,28.7293281 38.9366053,28.7293281 L38.6904641,28.7293281 L38.6904641,22.9276965 L35.7469044,22.9276965 C35.741884,23.0292778 35.7329692,23.1272932 35.7329223,23.2252148 C35.7320308,24.968801 35.7292626,26.7123403 35.7363475,28.4558796 C35.737192,28.6619513 35.6934159,28.7387589 35.4678255,28.7350054 C34.6236447,28.7208356 33.7790886,28.7293281 32.9346732,28.7293281 L32.6674181,28.7293281 Z M13.3469151,28.7104053 C13.3416601,28.6264189 13.3329799,28.5502681 13.3326984,28.4741173 C13.3273495,27.1217952 13.3279126,25.7693323 13.3134613,24.4171041 C13.3112091,24.2042759 13.3776006,24.1554794 13.5787457,24.1578723 C14.4307621,24.168007 15.2828724,24.1618605 16.1349357,24.162705 C16.2115557,24.1627519 16.2881757,24.1701653 16.3935106,24.1757018 L16.3935106,26.7997378 L22.2376516,26.7997378 L22.2376516,22.9181108 L13.3409093,22.9181108 L13.3409093,21.0195485 C13.4291185,21.013402 13.4969645,21.0045811 13.5648575,21.0045811 C16.7698543,21.0040181 19.974898,21.0055195 23.1798478,21.0031735 C23.8081507,21.0027512 24.3382973,21.2248695 24.7752144,21.671452 C25.1355114,22.0397724 25.3262873,22.4803492 25.3260527,22.9999389 C25.3253958,24.2193841 25.3031558,25.4393924 25.3327622,26.6581808 C25.3612425,27.830237 24.3131483,28.7238244 23.2788955,28.7249974 C20.8947134,28.7276249 18.5105314,28.7266865 16.1263025,28.7270618 C15.2586149,28.7272026 14.3909272,28.7272964 13.5232396,28.726405 C13.4703141,28.726358 13.4173417,28.7170679 13.3469151,28.7104053 Z M8.8817842e-15,21.0170242 L3.15300965,21.0170242 L3.15300965,24.1450726 L8.73120923,24.1450726 L8.73120923,23.8654776 C8.73120923,22.9898136 8.73608889,22.1141027 8.72731489,21.2385795 C8.72543809,21.0537624 8.77887973,20.9983032 8.96486977,21.0000393 C9.89519529,21.0087194 10.8256147,21.0037929 11.7559871,21.0044967 C11.8173582,21.0045436 11.8786354,21.01191 11.9580237,21.0169773 L11.9580237,28.7140275 L8.73871639,28.7140275 L8.73871639,25.9757419 L3.16872778,25.9757419 L3.16872778,28.7090071 L8.8817842e-15,28.7090071 L8.8817842e-15,21.0170242 Z M46.2380045,21.0212423 L46.2380045,28.7270665 L45.5706174,28.7270665 C44.8199478,28.7270665 44.0691373,28.7212485 43.3186084,28.7311955 C43.1320084,28.7336822 43.0788483,28.674751 43.0792237,28.4924207 C43.0839626,26.0761455 43.082555,23.6598234 43.0818981,21.2435014 C43.0818512,21.1131582 43.0704966,20.9992369 43.2674189,21.0008322 C44.221392,21.008574 45.175459,21.0047266 46.129479,21.0057588 C46.1593669,21.0058057 46.1893017,21.0140636 46.2380045,21.0212423 Z M48.9438216,21.4164852 C48.9438216,21.6106862 48.9497804,21.8051687 48.9392235,21.9988067 C48.9369244,22.0423013 48.8768671,22.0826054 48.8434133,22.124364 C48.8111325,22.089268 48.7516851,22.054782 48.7508875,22.0190291 C48.7435211,21.7007253 48.7466178,21.3821869 48.7466178,21.0487279 C49.3090922,20.9856208 49.1323922,21.5404473 49.4032133,21.737745 C49.4633644,21.5865225 49.5378261,21.4344086 49.5841829,21.2741775 C49.643208,21.070358 49.7514519,20.983181 49.999423,21.0716717 C49.999423,21.3799347 50.0024258,21.7048073 49.994731,22.0294453 C49.9939803,22.0610223 49.9273542,22.091051 49.8912729,22.1218304 C49.8637779,22.0827931 49.8142306,22.0446942 49.8125884,22.0046247 C49.8045182,21.8021659 49.8088817,21.5992378 49.757833,21.3784333 C49.6826206,21.5645641 49.6146338,21.75412 49.5286768,21.9351365 C49.4939092,22.0082376 49.4198229,22.0626176 49.363566,22.125584 C49.3140187,22.0636029 49.2492694,22.0084252 49.2178332,21.9383271 C49.139571,21.7636447 49.0764169,21.5822059 49.0072572,21.4034884 C48.9860964,21.4078051 48.9649355,21.4121217 48.9438216,21.4164852 Z M47.8938976,21.2777903 C47.7427689,21.2170761 47.6379032,21.1749422 47.5329906,21.1327144 C47.6539498,21.100762 47.7733137,21.0546398 47.8963374,21.0404701 C48.0349384,21.0245173 48.1774808,21.0300539 48.317114,21.0415492 C48.3630954,21.0453497 48.4052294,21.09668 48.4491932,21.1262863 C48.4056986,21.1562681 48.3658637,21.2001381 48.3177709,21.2127595 C48.2602942,21.2279146 48.1957325,21.2162785 48.0902099,21.2162785 C48.0902099,21.4696923 48.0963564,21.707341 48.0858933,21.944239 C48.0832189,22.0048593 48.0278536,22.0631806 47.9966988,22.1225811 C47.9624474,22.0654328 47.9014986,22.0095982 47.8986365,21.9509016 C47.8871411,21.7186017 47.8938976,21.4854104 47.8938976,21.2777903 Z" fill="#4A81FD" fill-rule="nonzero"></path>
    </g>
</svg>