<?xml version="1.0" encoding="UTF-8"?>
<svg width="50px" height="50px" viewBox="0 0 50 50" version="1.1" xmlns="http://www.w3.org/2000/svg" xmlns:xlink="http://www.w3.org/1999/xlink">
    <!-- Generator: Sketch 53.2 (72643) - https://sketchapp.com -->
    <title>AT/ICO/LE-IntelligentCooling@2x</title>
    <desc>Created with Sketch.</desc>
    <g id="AT/ICO/LE-IntelligentCooling" stroke="none" stroke-width="1" fill="none" fill-rule="evenodd">
        <path d="M25,39 C17.2680135,39 11,32.7319865 11,25 C11,17.2680135 17.2680135,11 25,11 C32.7319865,11 39,17.2680135 39,25 C39,32.7319865 32.7319865,39 25,39 Z M24.9996386,35 C25.6277682,35 26.0335779,34.5439182 26.0335779,33.8388311 L26.0335779,32.7187353 C26.1089535,32.7794892 26.1881359,32.8479442 26.2726478,32.9266675 C26.4881153,33.1688273 26.7561172,33.2869122 27.0317328,33.2586745 C27.2746096,33.2347153 27.5045431,33.1012279 27.7169651,32.8616352 C28.1380022,32.3884397 28.1151611,31.7518076 27.6408282,31.2204253 C27.2060864,30.7729004 26.667037,30.4229239 26.0335779,30.1781971 L26.0335779,27.0070166 L28.4996525,28.5660805 C28.3983904,29.1778976 28.4143792,29.9018098 28.552187,30.7446626 C28.6313694,31.103196 28.7904955,31.3616138 29.0242359,31.5130706 C29.1772711,31.6131862 29.4338525,31.7081675 29.7490593,31.605485 C30.0878685,31.5216275 30.3353135,31.3410773 30.4845419,31.0706798 C30.5819971,30.8926967 30.6779296,30.5932058 30.5842812,30.1739186 C30.5599174,30.0618235 30.5416445,29.9522954 30.530224,29.8419116 L31.452242,30.4485945 C31.7644034,30.6231549 32.0567691,30.6582381 32.3194415,30.5487101 C32.4892268,30.4793993 32.7229671,30.3151072 32.854684,29.9668421 C33.0100033,29.6160099 33.040458,29.2882814 32.9445255,28.9922132 C32.883616,28.8065289 32.7450468,28.5541009 32.4245104,28.3889531 L31.5580723,27.8515809 C31.6570503,27.7951055 31.7590738,27.7429085 31.8649041,27.6967013 C32.4328855,27.513584 32.7024101,26.9556754 32.5455681,26.2522997 C32.3826351,25.614812 31.8885065,25.3110427 31.2375359,25.496727 C30.6055995,25.7328969 30.0383795,26.0871518 29.5457737,26.5526462 L27.0903583,25.0004278 L29.5366373,23.4533436 C29.9873678,23.8846104 30.5629629,24.2388654 31.2801726,24.5178197 C31.8869838,24.6881017 32.3833965,24.3860437 32.5508977,23.7263081 C32.7024101,23.0443246 32.4328855,22.486416 31.9128703,22.3212681 C31.7880058,22.2673598 31.6699936,22.209173 31.5595951,22.1458521 L32.394817,21.6264493 C32.7366717,21.4621572 32.8820932,21.1994609 32.9445255,21.0086425 C33.040458,20.7125743 33.0100033,20.3839901 32.8683886,20.0682411 C32.7229671,19.6848928 32.4892268,19.5214564 32.3194415,19.4512899 C32.0560077,19.3426176 31.763642,19.3768451 31.4316851,19.5642408 L30.4974851,20.1435417 C30.5005306,20.0288795 30.509667,19.9227741 30.5271785,19.8269371 C30.6223497,19.399093 30.5287013,19.097035 30.4335301,18.9190519 C30.338359,18.7402131 30.1449712,18.5057545 29.7642867,18.3987935 C29.3836021,18.2918325 29.1148388,18.3970821 28.956474,18.5040431 C28.7981092,18.6110042 28.5887327,18.8283489 28.4844251,19.305823 C28.3801176,20.0100543 28.3884926,20.7211312 28.5095503,21.4279297 L26.0335779,22.9929834 L26.0335779,19.8226586 C26.6677984,19.5770761 27.2091319,19.2236769 27.6583396,18.7607496 C28.1151611,18.249048 28.1380022,17.6115603 27.7169651,17.1375091 C27.5045431,16.8996278 27.2746096,16.7661404 27.0317328,16.7413255 C26.7591627,16.7147991 26.4881153,16.8320284 26.3114777,17.0339708 C26.2117383,17.1272408 26.1196126,17.2076755 26.0335779,17.2769863 L26.0335779,16.1620246 C26.0335779,15.4560818 25.6277682,15 24.9996386,15 C24.3722705,15 23.9664607,15.4560818 23.9664607,16.1620246 L23.9664607,17.2812647 C23.8910852,17.2205108 23.8119028,17.1520558 23.7273908,17.0733325 C23.4510138,16.7627177 23.1609322,16.7199333 22.9683058,16.7413255 C22.7261904,16.7661404 22.4954956,16.8996278 22.283835,17.1375091 C21.986901,17.4712275 21.9351279,17.7955333 21.943503,18.0094554 C21.951878,18.2165319 22.0242081,18.5211569 22.3180966,18.7958328 C22.781009,19.2365122 23.333763,19.5804989 23.9664607,19.8235143 L23.9664607,23.0015402 L21.4333856,21.4245069 C21.553682,20.7185642 21.5605343,19.9997861 21.448613,19.256193 C21.3686693,18.8976597 21.2103045,18.6392419 20.9758028,18.4869294 C20.823529,18.3876695 20.5692317,18.2943995 20.250218,18.394515 C19.9121701,18.4792282 19.6647251,18.6589227 19.5162582,18.9301758 C19.4188029,19.1073033 19.322109,19.4076499 19.4157574,19.8269371 C19.4378371,19.9270526 19.4545873,20.024601 19.4660078,20.1212938 L18.5477966,19.5522612 C18.2356353,19.3759894 17.9440309,19.3434732 17.6805972,19.4512899 C17.5108119,19.5214564 17.2778329,19.6848928 17.1461161,20.0340136 C16.989274,20.3839901 16.9595806,20.7125743 17.0562745,21.0086425 C17.1179454,21.1994609 17.2641283,21.4621572 17.5542099,21.5982116 L18.3985683,22.1218928 C18.3155791,22.1621101 18.2272602,22.2014718 18.1358959,22.2382664 C17.690495,22.3811663 17.2747874,22.8423822 17.4620843,23.7742267 C17.5991307,24.2345869 18.0011336,24.6547298 18.7533663,24.4425191 C19.4119506,24.2089163 19.9700342,23.8589398 20.4184806,23.3994352 L22.908919,24.9927267 L20.4123896,26.5466564 C19.9174997,26.0469345 19.357132,25.6926796 18.7389003,25.4881701 C18.1891918,25.312754 17.7080065,25.5754503 17.4788344,26.1761434 L17.449141,26.2745476 C17.2983899,26.9556754 17.5671532,27.513584 18.0879297,27.6787319 C18.2127942,27.7326402 18.3308064,27.7916827 18.441205,27.8541479 L17.6052217,28.3744064 C17.2641283,28.5386985 17.1179454,28.8005391 17.0562745,28.9922132 C16.9595806,29.2882814 16.989274,29.6160099 17.1316501,29.9317589 C17.2778329,30.3151072 17.5108119,30.4793993 17.6805972,30.5487101 C17.9432695,30.6582381 18.2356353,30.6240106 18.5812969,30.428058 L19.4698147,29.8427673 C19.4583941,29.9522954 19.4401213,30.0618235 19.4157574,30.1730629 C19.322109,30.5932058 19.4188029,30.8926967 19.5162582,31.0706798 C19.6647251,31.3410773 19.9121701,31.5216275 20.2174791,31.5960724 C20.561618,31.7064562 20.8143925,31.608052 20.9681891,31.5053694 C21.2110659,31.3427887 21.3739988,31.0595559 21.4585108,30.6240106 C21.5597729,29.9018098 21.553682,29.2138365 21.440238,28.5712146 L23.9664607,26.9984598 L23.9664607,30.1773414 C23.333763,30.4195011 22.7817704,30.7634878 22.3219034,31.2007444 C22.0242081,31.4788431 21.951878,31.7843238 21.943503,31.9905446 C21.9351279,32.2044667 21.986901,32.5296282 22.283835,32.8624909 C22.8373503,33.4854319 23.4076158,33.2869122 23.688561,32.9668849 C23.7890617,32.8736149 23.8811874,32.7923245 23.9664607,32.7230137 L23.9664607,33.8388311 C23.9664607,34.5439182 24.3722705,35 24.9996386,35 Z M48.7896024,7 C49.4580445,7 50,7.54163306 50,8.20967742 L50,17.3387097 C50,18.006754 49.4580445,18.5483871 48.7896024,18.5483871 L39.6509671,18.5483871 C38.982525,18.5483871 38.4405694,18.006754 38.4405694,17.3387097 L38.4405694,16.3306452 C38.4405694,15.6626008 38.982525,15.1209677 39.6509671,15.1209677 L44.1788951,15.1209677 C40.5928904,8.17308468 33.3431128,3.42741935 24.9851153,3.42741935 C13.3952552,3.42741935 4.02072547,12.5217742 3.42934535,23.8615927 C3.39595855,24.5011089 2.86207232,25 2.22126763,25 L1.21098906,25 C0.522474537,25 -0.0326945169,24.4265121 0.00149921662,23.7392137 C0.658543406,10.5179435 11.5928723,0 24.9851153,0 C34.1865582,0 42.2261202,4.96582661 46.57054,12.3615927 L46.57054,8.20967742 C46.57054,7.54163306 47.1124955,7 47.7809376,7 L48.7896024,7 Z M48.7890109,25 C49.4775255,25 50.0326945,25.5734879 49.9985008,26.2607863 C49.3414566,39.4820565 38.4072286,50 25.0148847,50 C15.8135427,50 7.77387975,45.0341734 3.42946,37.6384073 L3.42946,41.7903226 C3.42946,42.4583669 2.88750445,43 2.21906235,43 L1.21039765,43 C0.541955546,43 0,42.4583669 0,41.7903226 L0,32.6612903 C0,31.993246 0.541955546,31.4516129 1.21039765,31.4516129 L10.3490329,31.4516129 C11.017475,31.4516129 11.5594306,31.993246 11.5594306,32.6612903 L11.5594306,33.6693548 C11.5594306,34.3373992 11.017475,34.8790323 10.3490329,34.8790323 L5.82009622,34.8790323 C9.41366596,41.8395161 16.6825073,46.5725806 25.0148847,46.5725806 C36.5687354,46.5725806 45.9790728,37.5159274 46.5707555,26.1384073 C46.6040415,25.4988911 47.1381294,25 47.7788332,25 L48.7890109,25 Z" fill="#4A81FD" fill-rule="nonzero"></path>
    </g>
</svg>