<?xml version="1.0" encoding="UTF-8"?>
<svg width="50px" height="50px" viewBox="0 0 50 50" version="1.1" xmlns="http://www.w3.org/2000/svg" xmlns:xlink="http://www.w3.org/1999/xlink">
    <!-- Generator: Sketch 53.2 (72643) - https://sketchapp.com -->
    <title>AT/ICO/LE-Intelligent-dual-fan @2x</title>
    <desc>Created with Sketch.</desc>
    <g id="AT/ICO/LE-Intelligent-dual-fan-" stroke="none" stroke-width="1" fill="none" fill-rule="evenodd">
        <path d="M24.9996497,21.7741471 C23.2210261,21.7741471 21.7736092,23.2215639 21.7736092,25.0001875 C21.7736092,26.7788111 23.2210261,28.226228 24.9996497,28.226228 C26.7782733,28.226228 28.2256901,26.7788111 28.2256901,25.0001875 C28.2256901,23.2215639 26.7782733,21.7741471 24.9996497,21.7741471 Z M24.9996497,30.3769216 C22.0349185,30.3769216 19.6229156,27.9649187 19.6229156,25.0001875 C19.6229156,22.0354564 22.0349185,19.6234535 24.9996497,19.6234535 C27.9643808,19.6234535 30.3763838,22.0354564 30.3763838,25.0001875 C30.3763838,27.9649187 27.9643808,30.3769216 24.9996497,30.3769216 Z M27.1493755,18.5481066 C26.9859228,18.5481066 26.819244,18.5115448 26.6643941,18.4319692 C26.1342481,18.1631325 25.9224048,17.5157737 26.1912415,16.9867031 C27.693501,14.0262733 29.3011445,7.16556062 29.3011445,4.56859807 C29.3011445,2.9706327 28.9882186,2.4813499 28.8011082,2.33080135 C28.3720448,1.98669037 27.1719578,2.19960904 26.3084543,2.39317147 C22.428603,3.25452426 20.69837,4.58902966 20.69837,6.71929169 C20.69837,9.1979661 22.1974034,14.164993 23.7824646,16.9393878 C24.0771097,17.4544789 23.8986021,18.1115158 23.3824356,18.4061609 C22.8684198,18.7040319 22.2103076,18.5222983 21.9156626,18.0061318 C20.3219986,15.2188329 18.5476763,9.89801687 18.5476763,6.71929169 C18.5476763,1.91356679 24.0373218,0.693048154 25.8417538,0.291943793 C27.4106848,-0.0553932278 29.0172529,-0.254332388 30.1474424,0.653260322 C31.0496584,1.37696873 31.4518381,2.5845832 31.4518381,4.56859807 C31.4518381,7.4752605 29.79903,14.6273922 28.1096602,17.9588166 C27.9203992,18.3330373 27.5418771,18.5481066 27.1493755,18.5481066 Z M43.2816209,11.0584236 C42.9708456,11.0584236 42.6632964,10.9250806 42.4503778,10.665922 C39.9932103,7.67753324 36.8005056,5.35801016 33.214224,3.95790861 C32.6614957,3.7417639 32.3872823,3.11806275 32.603427,2.56533449 C32.8195717,2.01153088 33.4421975,1.73839279 33.9970765,1.9545375 C37.924243,3.4890574 41.4223462,6.02902658 44.1107132,9.30023158 C44.48816,9.75832932 44.4225638,10.4368732 43.9633907,10.8132445 C43.7633762,10.978848 43.5214232,11.0584236 43.2816209,11.0584236 Z M38.2021126,12.3543241 C36.7321136,10.8208795 35.0255382,9.56487443 33.1297017,8.62179528 L34.0878357,6.69584913 C36.206269,7.74968901 38.1128589,9.1530166 39.7538381,10.8671194 L38.2021126,12.3543241 Z M21.9894314,49.9998502 C21.1936747,49.9998502 20.4549114,49.8310208 19.8527172,49.3471147 C18.9505013,48.6234063 18.5483216,47.4157918 18.5483216,45.431777 C18.5483216,42.5251145 20.2000543,35.3729829 21.8904994,32.0415584 C22.1593361,31.5114125 22.8045442,31.2974185 23.3357656,31.5684059 C23.8659115,31.8372426 24.0766795,32.4846013 23.8078428,33.013672 C22.3066587,35.9741017 20.6990152,42.8348144 20.6990152,45.431777 C20.6990152,47.0297423 21.0119411,47.5190251 21.1979761,47.6695737 C21.6302655,48.01476 22.8282019,47.800766 23.6917054,47.6072036 C27.5715567,46.7458508 29.3007143,45.4113454 29.3007143,43.2810833 C29.3007143,40.8024089 27.8027562,35.835382 26.2166197,33.0609872 C25.9219746,32.5458961 26.1015576,31.8888592 26.6166487,31.5942142 C27.1317398,31.2963431 27.7887767,31.4770014 28.0834217,31.9942432 C29.6770857,34.7815421 31.451408,40.1023582 31.451408,43.2810833 C31.451408,48.0868082 25.9617625,49.3062515 24.1584059,49.7084312 C23.4260947,49.8697333 22.6851807,49.9998502 21.9894314,49.9998502 Z M16.3937567,48.1190687 C16.2636397,48.1190687 16.1313721,48.0964864 16.0034058,48.0459451 C12.0762392,46.5114252 8.57813604,43.9725313 5.88761831,40.700251 C5.51124693,40.2421532 5.57684308,39.5636094 6.03601617,39.1861627 C6.49411391,38.8097913 7.17265775,38.8743121 7.54902914,39.3345605 C10.007272,42.321874 13.1999766,44.6424724 16.7851829,46.0414986 C17.3389865,46.2587187 17.6121246,46.8824198 17.3959799,47.4351481 C17.2303765,47.8599101 16.8238954,48.1190687 16.3937567,48.1190687 Z M15.9122164,43.3040958 C13.7937832,42.2502559 11.8871933,40.8469283 10.2451387,39.1328255 L11.7990148,37.6456208 C13.2679386,39.1790654 14.974514,40.4350705 16.8703504,41.3781496 L15.9122164,43.3040958 Z M6.71875386,31.4522684 C1.91302896,31.4522684 0.692510324,25.9626229 0.292481309,24.158191 C-0.0559310584,22.58926 -0.253794872,20.9826918 0.652722491,19.8525023 C1.3764309,18.9502863 2.58404537,18.5481066 4.56806024,18.5481066 C7.47364733,18.5481066 14.625779,20.2009147 17.9582788,21.8902845 C18.4884247,22.1580459 18.7002681,22.80648 18.4314314,23.3355506 C18.16367,23.8646213 17.5173866,24.080766 16.9861652,23.8087032 C14.0235848,22.3075191 7.16394744,20.6988003 4.56806024,20.6988003 C2.97009487,20.6988003 2.48081207,21.0117262 2.33026352,21.1988365 C1.98507719,21.6289753 2.20014656,22.8269116 2.39155829,23.6914904 C3.25398643,27.5713417 4.58849183,29.3015748 6.71875386,29.3015748 C9.19742827,29.3015748 14.1644552,27.8025413 16.93885,26.2174801 C17.4539411,25.9206844 18.1120533,26.1013427 18.405623,26.6175091 C18.7002681,27.1326002 18.5217605,27.7896371 18.005594,28.0842822 C15.2182951,29.6779462 9.89747904,31.4522684 6.71875386,31.4522684 Z M2.95557769,17.4706091 C2.82546073,17.4706091 2.69319307,17.4480268 2.5652268,17.3974855 C2.01142319,17.1802655 1.7382851,16.5565643 1.95442981,16.0038361 C3.48894971,12.0755942 6.02891888,8.57749099 9.30012389,5.88804861 C9.75822163,5.51060188 10.4367655,5.57619803 10.8142122,6.03644647 C11.1905836,6.49454421 11.1249874,7.17308805 10.6658143,7.54945943 C7.67850089,10.0066269 5.35897782,13.2004069 3.95780092,16.7866886 C3.79219751,17.2114505 3.38571642,17.4706091 2.95557769,17.4706091 Z M8.62168758,16.8699204 L6.69574144,15.9117864 C7.74958132,13.7944285 9.15290891,11.8878386 10.8659364,10.2468594 L12.3542164,11.7985848 C10.8196965,13.2685839 9.56369139,14.974084 8.62168758,16.8699204 Z M45.4312391,31.451193 C42.525652,31.451193 35.3735204,29.7994603 32.0410206,28.1100905 C31.51195,27.8423291 31.2990313,27.193895 31.567868,26.6648244 C31.8356294,26.1346784 32.4840635,25.9206844 33.0131341,26.1916718 C35.9746393,27.6928559 42.8353519,29.3004994 45.4312391,29.3004994 C47.0292045,29.3004994 47.5195626,28.9875735 47.6690359,28.8004632 C48.0142222,28.3703244 47.7991528,27.1723881 47.6066657,26.3078092 C46.7453129,22.4279579 45.4097322,20.6977249 43.2805455,20.6977249 C40.8007958,20.6988003 35.8337688,22.1989091 33.0604494,23.7828949 C32.5442829,24.0796906 31.887246,23.8990324 31.5936763,23.3828659 C31.297956,22.8677748 31.4775389,22.2107379 31.9937054,21.9160929 C34.7810043,20.3235042 40.100745,18.5481066 43.2805455,18.5470313 C48.0851951,18.5470313 49.306789,24.0366768 49.7078934,25.8411087 C50.0563058,27.4089644 50.2530942,29.0155325 49.3476522,30.1467974 C48.6239438,31.0490133 47.4163294,31.451193 45.4312391,31.451193 Z M40.0178357,44.3564302 C39.7070605,44.3564302 39.3995113,44.2230871 39.1865927,43.9639286 C38.8091459,43.5058308 38.8758174,42.827287 39.3339152,42.4509156 C42.322304,39.9937481 44.641827,36.7999681 46.0419286,33.2147618 C46.2580733,32.6598829 46.8850005,32.3878201 47.4334274,32.6028895 C47.987231,32.8190342 48.2614444,33.4438107 48.0452997,33.9954636 C46.5107798,37.9247809 43.971886,41.4218087 40.6996056,44.1112511 C40.4995911,44.2768545 40.2576381,44.3564302 40.0178357,44.3564302 Z M39.1325027,39.7536232 L37.6452981,38.2018977 C39.1787426,36.7308233 40.4347477,35.0253233 41.3778269,33.1305622 L43.303773,34.0876208 C42.2488578,36.2060541 40.8466055,38.112644 39.1325027,39.7536232 Z" fill="#4A81FD" fill-rule="nonzero"></path>
    </g>
</svg>