<?xml version="1.0" encoding="UTF-8"?>
<svg width="50px" height="50px" viewBox="0 0 50 50" version="1.1" xmlns="http://www.w3.org/2000/svg" xmlns:xlink="http://www.w3.org/1999/xlink">
    <!-- Generator: Sketch 53.2 (72643) - https://sketchapp.com -->
    <title>AT/ICO/LE-Power-plan@2x</title>
    <desc>Created with Sketch.</desc>
    <g id="AT/ICO/LE-Power-plan" stroke="none" stroke-width="1" fill="none" fill-rule="evenodd">
        <path d="M7.49142344,40.4311842 C7.8687201,40.4311842 8.22039474,40.6225957 8.42537081,40.9401077 C8.63034689,41.2571172 8.66049043,41.6565191 8.5047488,42.0006579 L5.31455742,49.0663038 C5.12917464,49.4772608 4.72424641,49.7209211 4.30072967,49.7209211 C4.1475,49.7209211 3.99226077,49.6892703 3.84405502,49.6219498 C3.28388756,49.3697488 3.03520335,48.7111124 3.2879067,48.1514474 L5.76972488,42.6547727 L1.11204545,42.6547727 C0.734246411,42.6547727 0.383074163,42.4633612 0.178098086,42.1463517 C-0.0268779904,41.8293421 -0.0570215311,41.4299402 0.0987200957,41.0858014 L3.2879067,34.0196531 C3.54061005,33.459988 4.19824163,33.2108014 4.75891148,33.4635048 C5.31857656,33.7162081 5.56726077,34.3743421 5.31455742,34.9345096 L2.83374402,40.4311842 L7.49142344,40.4311842 Z M39.8674952,30.4019761 C40.4814187,30.4019761 40.9792895,30.8998469 40.9792895,31.5137703 C40.9792895,32.1281962 40.4814187,32.626067 39.8674952,32.626067 L39.4424713,32.626067 L39.4419689,40.1016651 C39.4419689,42.6708995 38.4417057,45.0864019 36.625055,46.9030526 C34.8084043,48.7197033 32.3929019,49.7209713 29.8231651,49.7209713 C24.5189067,49.7209713 20.2038589,45.4054211 20.2038589,40.1016651 L20.2038589,28.6114498 C19.1880215,28.1773828 18.474122,27.1690813 18.474122,25.9964976 C18.474122,24.8239139 19.1880215,23.8161148 20.2038589,23.3820478 L20.2038589,11.8923349 C20.2038589,7.81441627 16.8865622,4.49661722 12.8091459,4.49661722 C8.73122727,4.49661722 5.41342823,7.81441627 5.41342823,11.8923349 L5.41292584,28.5642249 L5.83845215,28.5642249 C6.4523756,28.5642249 6.95024641,29.0620957 6.95024641,29.6765215 C6.95024641,30.290445 6.4523756,30.7883158 5.83845215,30.7883158 L2.763811,30.7883158 C2.14988756,30.7883158 1.65201675,30.290445 1.65201675,29.6765215 C1.65201675,29.0620957 2.14988756,28.5642249 2.763811,28.5642249 L3.18883493,28.5642249 L3.18933732,11.8923349 C3.18933732,6.58807656 7.50488756,2.27252632 12.8091459,2.27252632 C18.1129019,2.27252632 22.4274474,6.58807656 22.4274474,11.8923349 L22.4274474,23.3820478 C23.4432847,23.8161148 24.1571842,24.8239139 24.1571842,25.9964976 C24.1571842,27.1690813 23.4432847,28.1773828 22.4274474,28.6114498 L22.4274474,40.1016651 C22.4274474,44.1790813 25.7452464,47.4968804 29.8231651,47.4968804 C33.9010837,47.4968804 37.2183804,44.1790813 37.2183804,40.1016651 L37.2183804,32.626067 L36.7928541,32.626067 C36.1789306,32.626067 35.6810598,32.1281962 35.6810598,31.5137703 C35.6810598,30.8998469 36.1789306,30.4019761 36.7928541,30.4019761 L39.8674952,30.4019761 Z M45.4544981,9.09090909 L43.1945327,9.09090909 C43.1899876,9.00693541 43.1825071,8.9322546 43.1824124,8.8574893 C43.1818443,6.2265957 43.1814655,3.59553313 43.1823177,0.964639526 C43.1825071,0.374796255 43.8134263,-0.0894244232 44.469249,0.0146556269 C45.1048081,0.115609896 45.454214,0.484874425 45.4543087,1.05891983 C45.4546875,3.65466952 45.4544981,6.2505037 45.4544981,8.84625339 L45.4544981,9.09090909 Z M34.0018091,9.013603 L31.8333545,9.013603 C31.8288091,8.93620517 31.8205364,8.86306088 31.8205364,8.7899166 C31.8199,6.18566305 31.8194455,3.5812427 31.8205364,0.976905755 C31.8207182,0.411351126 32.4400818,-0.0535362802 33.0478091,0.0512176814 C33.6769,0.159724771 34.0016273,0.515020851 34.0017182,1.09658882 C34.0019,3.65238532 34.0018091,6.20809842 34.0018091,8.76389491 L34.0018091,9.013603 Z M48.0217914,12.8186028 L48.0217914,10.9769189 L29.1797027,10.9769189 L29.1797027,12.8277454 L31.0490799,12.8277454 C31.0490799,12.9344344 31.0479789,13.0110615 31.0492372,13.0876885 C31.062213,13.8994396 31.0613479,14.711733 31.093748,15.5226317 C31.1161607,16.0827299 31.2864187,16.618577 31.4751573,17.1440418 C31.7968779,18.0397805 32.2722633,18.8467278 32.9065036,19.567673 C33.3734744,20.0985615 33.9016279,20.5564644 34.499536,20.9299148 C35.2192592,21.3795274 35.9875039,21.7172598 36.8256606,21.9188611 C37.7214612,22.1344086 38.6201714,22.1773321 39.5228138,22.0711854 C40.207463,21.9906844 40.8766986,21.8162784 41.5178594,21.5466503 C42.6841853,21.0562836 43.6785231,20.3376627 44.4698097,19.3658394 C45.6107345,17.964703 46.14919,16.3494137 46.1482463,14.5564644 C46.1479317,14.0528487 46.1477745,13.5493104 46.1486395,13.0456947 C46.1487968,12.977358 46.1551667,12.9090212 46.1598065,12.8186028 L48.0217914,12.8186028 Z M49.9137386,10.4962371 C49.9363086,11.4252918 49.9337921,12.3553538 49.9197153,13.284641 C49.9066609,14.1470635 49.230269,14.6840728 48.4805049,14.6839954 C48.343748,14.6839179 48.2069126,14.6839954 48.0439682,14.6839954 C47.9841224,17.0541658 47.2206747,19.1501369 45.6010617,20.9124044 C43.9803476,22.6759117 41.9470824,23.6544757 39.5388566,23.9503693 L39.5388566,29.5454623 L37.6635813,29.5454623 L37.6635813,23.9581947 C35.2645565,23.6604416 33.2231126,22.6876111 31.6079034,20.9259633 C29.9948962,19.16664 29.188196,17.0822908 29.1459657,14.6833755 C28.9606873,14.6833755 28.7797342,14.6843827 28.5988597,14.6832206 C27.9489698,14.6794241 27.2783973,14.0275904 27.2756449,13.3876111 C27.2715555,12.3935511 27.2720274,11.3994137 27.2754876,10.4053538 C27.2776895,9.79876808 27.8546005,9.18854081 28.4661922,9.14538481 C28.7717128,9.12376808 29.078413,9.10726498 29.3846414,9.1071875 C35.7072271,9.1049406 42.0298915,9.10540548 48.3524772,9.10563791 C48.9220746,9.10571539 49.4207377,9.27400052 49.7132038,9.784047 C49.8332888,9.99339618 49.9078405,10.2558962 49.9137386,10.4962371 Z" fill="#4A81FD" fill-rule="nonzero"></path>
    </g>
</svg>