<?xml version="1.0" encoding="UTF-8"?>
<svg width="50px" height="50px" viewBox="0 0 50 50" version="1.1" xmlns="http://www.w3.org/2000/svg" xmlns:xlink="http://www.w3.org/1999/xlink">
    <!-- Generator: Sketch 53.2 (72643) - https://sketchapp.com -->
    <title>AT/ICO/LE-Palm-Scanning@2x</title>
    <desc>Created with Sketch.</desc>
    <g id="AT/ICO/LE-Palm-Scanning" stroke="none" stroke-width="1" fill="none" fill-rule="evenodd">
        <path d="M17.1106375,14.9723 L30.9758,14.9723 L30.9758,13.9723 C30.9758,13.8972163 30.9730409,13.8227763 30.9676186,13.749076 C30.9630455,13.7164922 30.9600701,13.6836013 30.9587408,13.6505202 C30.7981697,12.1450873 29.5238089,10.9723 27.9758,10.9723 L15.9758,10.9723 C15.4235153,10.9723 14.9758,10.5245847 14.9758,9.9723 C14.9758,9.42001525 15.4235153,8.9723 15.9758,8.9723 L27.9758,8.9723 C30.3702375,8.9723 32.3717327,10.655685 32.8612832,12.9034526 L37.2828835,14.7415353 C38.5166993,15.2541643 39.896341,14.8825989 40.7182672,13.9175561 C40.7399919,13.8878768 40.7632019,13.8596281 40.7877462,13.8328722 C40.954941,13.6212693 41.0962022,13.3834105 41.2048423,13.1220592 L41.5888118,12.1986324 L28.6604747,6.82644729 C28.1504689,6.61452167 27.9088271,6.02928057 28.1207527,5.51927472 C28.3326783,5.00926886 28.9179194,4.76762708 29.4279253,4.97955271 L43.2799253,10.7355527 C43.7900153,10.9475133 44.0316374,11.5329003 43.8195577,12.0429408 L43.051598,13.8898439 C43.0440089,13.9081006 43.0363243,13.9262885 43.0285449,13.9444073 C44.3457485,14.1253439 45.6706249,13.4079992 46.2045423,12.1220592 L46.5915406,11.1913485 L25.0199248,2.02661411 L2.9999,4.87882578 L2.9999,8.965 C2.9999,12.6533287 5.82991851,15.7477073 9.42079094,15.9425076 C9.77957236,15.9622312 10.1469734,15.972 10.5219,15.972 C12.6331637,15.972 14.698971,15.6453153 16.6661025,15.0112252 C16.8145049,14.9633888 16.9659226,14.9520738 17.1106375,14.9723 Z M17.0985425,16.9723 C14.9882404,17.6323267 12.7774689,17.972 10.5219,17.972 C10.1109242,17.972 9.7069518,17.9612588 9.31173097,17.9395318 C4.64501777,17.6863688 0.9999,13.7007502 0.9999,8.965 L0.9999,4 C0.9999,3.49737382 1.37298292,3.0728495 1.87144501,3.00828466 L25.032445,0.00828466 C25.2088676,-0.0145670216 25.3881926,0.0100579768 25.5519249,0.0796199049 L48.2869249,9.7386199 C48.792477,9.95340448 49.0301511,10.5357532 48.8192577,11.0429408 L48.0514584,12.8894578 C47.0288499,15.352411 44.2643909,16.5640344 41.779121,15.6892883 C40.3900359,16.9373182 38.355266,17.3528486 36.5153411,16.5883918 L32.9758,15.1169857 L32.9758,15.9723 C32.9758,16.5245847 32.5280847,16.9723 31.9758,16.9723 L17.0985425,16.9723 Z M41.7956039,45.9723 L44.9758,45.9723 C45.5280847,45.9723 45.9758,46.4200153 45.9758,46.9723 C45.9758,47.5245847 45.5280847,47.9723 44.9758,47.9723 L4.9758,47.9723 C4.42351525,47.9723 3.9758,47.5245847 3.9758,46.9723 C3.9758,46.4200153 4.42351525,45.9723 4.9758,45.9723 L8.1559961,45.9723 L8.99521932,41.7761839 C9.08870416,41.3087597 9.49911898,40.9723 9.9758,40.9723 L39.9758,40.9723 C40.452481,40.9723 40.8628958,41.3087597 40.9563807,41.7761839 L41.7956039,45.9723 Z M39.7559961,45.9723 L39.1559961,42.9723 L10.7956039,42.9723 L10.1956039,45.9723 L39.7559961,45.9723 Z M9.45070086,28.3911086 C9.05923668,28.7806907 8.42607354,28.779165 8.0364914,28.3877009 C7.64690927,27.9962367 7.64843496,27.3630735 8.03989914,26.9734914 C12.5146825,22.5202214 18.5443056,19.9723 24.9753,19.9723 C31.4374251,19.9723 37.5056497,22.5470318 41.9750157,27.0368058 C42.3646494,27.4282186 42.3632071,28.061382 41.9717942,28.4510157 C41.5803814,28.8406494 40.947218,28.8392071 40.5575843,28.4477942 C36.4598424,24.3313411 30.8999655,21.9723 24.9753,21.9723 C19.0791662,21.9723 13.5548425,24.3066984 9.45070086,28.3911086 Z M12.990219,31.9316872 C12.5984352,32.320948 11.9652735,32.3189027 11.5760128,31.927119 C11.186752,31.5353352 11.1887973,30.9021735 11.580581,30.5129128 C15.1283488,26.9879917 19.8952099,24.9723 24.9754,24.9723 C30.0938129,24.9723 34.8935749,27.0134502 38.434774,30.5774677 C38.8240421,30.9692442 38.8220087,31.6024059 38.4302323,31.991674 C38.0384558,32.3809421 37.4052941,32.3789087 37.016026,31.9871323 C33.8463871,28.7970692 29.5554448,26.9723 24.9754,26.9723 C20.429991,26.9723 16.1677643,28.7746045 12.990219,31.9316872 Z M16.5196275,35.4628719 C16.1273551,35.8516403 15.4941965,35.8487998 15.1054281,35.4565275 C14.7166597,35.0642551 14.7195002,34.4310965 15.1117725,34.0423281 C17.7214419,31.4559693 21.2381333,29.9726 24.9757,29.9726 C28.7477049,29.9726 32.2885473,31.4790397 34.9044496,34.1071399 C35.2940645,34.4985715 35.2925917,35.1317348 34.9011601,35.5213496 C34.5097285,35.9109645 33.8765652,35.9094917 33.4869504,35.5180601 C31.2422145,33.262857 28.209503,31.9726 24.9757,31.9726 C21.7718479,31.9726 18.7591023,33.2434008 16.5196275,35.4628719 Z M20.0581282,39.0043546 C19.665037,39.392295 19.0318857,39.3881194 18.6439454,38.9950282 C18.256005,38.601937 18.2601806,37.9687857 18.6532718,37.5808454 C20.3347966,35.9213543 22.5817685,34.9726 24.9757,34.9726 C27.4081679,34.9726 29.6905105,35.9489239 31.3678755,37.6505985 C31.7555802,38.0439221 31.7510252,38.6770707 31.3577015,39.0647755 C30.9643779,39.4524802 30.3312293,39.4479252 29.9435245,39.0546015 C28.6380976,37.7302554 26.8669343,36.9726 24.9757,36.9726 C23.1150849,36.9726 21.3704139,37.7092643 20.0581282,39.0043546 Z" id="Combined-Shape" fill="#4A81FD" fill-rule="nonzero"></path>
    </g>
</svg>