<?xml version="1.0" encoding="UTF-8"?>
<svg width="50px" height="50px" viewBox="0 0 50 50" version="1.1" xmlns="http://www.w3.org/2000/svg" xmlns:xlink="http://www.w3.org/1999/xlink">
    <!-- Generator: Sketch 53.2 (72643) - https://sketchapp.com -->
    <title>AT/ICO/LE-Smart-Assist@2x</title>
    <desc>Created with Sketch.</desc>
    <g id="AT/ICO/LE-Smart-Assist" stroke="none" stroke-width="1" fill="none" fill-rule="evenodd">
        <path d="M45,24.5009155 L45,33.25 L48.75,33.25 C49.440625,33.25 50,33.809375 50,34.5 L50,38.25 C50,41.6960938 47.196875,44.5 43.75,44.5 L6.25,44.5 C2.803125,44.5 0,41.6960938 0,38.25 L0,34.5 C0,33.809375 0.559375,33.25 1.25,33.25 L5,33.25 L5,12 C5,9.2421875 7.24375,7 10,7 L27.4990845,7 C29.7796004,3.96388324 33.4104554,2 37.5,2 C44.4035594,2 50,7.59644063 50,14.5 C50,18.5895446 48.0361168,22.2203996 45,24.5009155 Z M26.0401092,9.5 L10,9.5 C8.61953125,9.5 7.5,10.6195312 7.5,12 L7.5,33.25 L19.4429688,33.25 C19.7601563,33.25 19.9914063,33.4945312 20.0617188,33.8039062 C20.3140625,34.9179688 21.3101562,35.75 22.5,35.75 L27.5,35.75 C28.6898438,35.75 29.6859375,34.9179688 29.9382812,33.8039062 C30.0085937,33.4945312 30.2398437,33.25 30.5570313,33.25 L42.5,33.25 L42.5,25.9598908 C40.9688441,26.6288812 39.2777618,27 37.5,27 C30.5964406,27 25,21.4035594 25,14.5 C25,12.7222382 25.3711188,11.0311559 26.0401092,9.5 Z M47.5,38.25 L47.5,35.75 L32.2851562,35.75 C31.7703125,37.2046875 30.38125,38.25 28.75,38.25 L21.25,38.25 C19.6195313,38.25 18.2296875,37.2046875 17.7148438,35.75 L2.5,35.75 L2.5,38.25 C2.5,40.3179688 4.18203125,42 6.25,42 L43.75,42 C45.8179688,42 47.5,40.3179688 47.5,38.25 Z M37.5,25 C43.2989899,25 48,20.2989899 48,14.5 C48,8.70101013 43.2989899,4 37.5,4 C31.7010101,4 27,8.70101013 27,14.5 C27,20.2989899 31.7010101,25 37.5,25 Z M38,8.62500213 C37.3572501,8.62183336 36.7368632,8.86555606 36.2620354,9.30778685 C35.2175209,10.2806673 35.1433228,11.9337089 36.0963162,12.999983 C35.9416451,13.2646945 35.8590692,13.5667839 35.8571333,13.8750064 C35.8571333,13.9075459 35.8649103,13.9378707 35.8665124,13.969865 C35.0830098,13.328104 34.5714333,12.3552235 34.5714333,11.2500043 C34.5714333,9.3169865 36.106463,7.7499787 38,7.7499787 C39.893537,7.7499787 41.4285667,9.3169865 41.4285667,11.2500043 C41.4285667,11.6486559 41.3481937,12.025467 41.2290028,12.3825499 C40.9953605,12.7656984 40.5849178,12.9989949 40.1428333,12.999983 L39.9127624,12.999983 C39.9114273,12.9975297 39.9079227,12.9958942 39.9079227,12.993441 C40.3374907,12.5097436 40.5741369,11.879431 40.5712998,11.2265622 C40.5649915,9.78330676 39.4137693,8.61856237 38,8.62500213 Z M33.2857,12.1249936 C33.0490204,12.1249936 32.8571333,11.9291091 32.8571333,11.6874989 L32.8571333,11.2500043 C32.8571333,8.35483895 35.1639167,6 38,6 C40.8360833,6 43.1428333,8.35483895 43.1428333,11.2500043 L43.1428333,11.6874989 C43.1407973,13.3779865 41.7988229,14.7478832 40.1428333,14.7499957 L37.5714333,14.7499957 C37.0980407,14.7499957 36.7142666,14.3582268 36.7142666,13.8750064 C36.7142666,13.3917179 37.0980407,12.999983 37.5714333,12.999983 L38.4285667,12.999983 C38.9019259,12.999983 39.2857334,13.3917179 39.2857334,13.8750064 L40.1428333,13.8750064 C41.3257641,13.8736435 42.2843649,12.8950388 42.2857,11.6874989 L42.2857,11.2500043 C42.2857,8.83771858 40.3630244,6.87498935 38,6.87498935 C35.6369756,6.87498935 33.7143,8.83771858 33.7143,11.2500043 L33.7143,11.6874989 C33.7143,11.9291091 33.522413,12.1249936 33.2857,12.1249936 Z M32.8571333,19.1249766 L43.1428333,19.1244314 C43.1413647,17.6753155 41.9909436,16.5009285 40.5714333,16.4994293 L40.4455335,16.4994293 C40.2604555,16.4994293 40.0456047,16.5437239 39.769473,16.6391618 C38.6215552,17.0365528 37.3773434,17.0365528 36.229459,16.6391618 C35.9551629,16.5442691 35.7408796,16.4999744 35.5555345,16.4999744 L35.4285667,16.4999744 C34.009023,16.5015077 32.8586019,17.6758606 32.8571333,19.1249766 Z M40.5714333,15.6249851 C42.464937,15.6249851 44,17.1919929 44,19.1249766 C44,19.608231 43.6162593,20 43.1428333,20 L32.8571333,20 C32.3837407,20 32,19.608231 32,19.1249766 C32.0003004,17.1921973 33.5352299,15.6255303 35.4285667,15.6255303 L35.5555345,15.6255303 C35.8804308,15.6255303 36.1967824,15.7042725 36.5042556,15.8109203 C37.4739378,16.1467077 38.5249942,16.1467077 39.4946095,15.8109203 C39.8026835,15.7042725 40.1198362,15.6249851 40.4455335,15.6249851 L40.5714333,15.6249851 Z" id="AT/ICO/LE-Visible-to-online-trackers" fill="#4A81FD" fill-rule="nonzero"></path>
    </g>
</svg>