<?xml version="1.0" encoding="UTF-8"?>
<svg width="50px" height="50px" viewBox="0 0 50 50" version="1.1" xmlns="http://www.w3.org/2000/svg" xmlns:xlink="http://www.w3.org/1999/xlink">
    <!-- Generator: Sketch 53.2 (72643) - https://sketchapp.com -->
    <title>AT/ICO/LE-USB@2x</title>
    <desc>Created with Sketch.</desc>
    <g id="AT/ICO/LE-USB" stroke="none" stroke-width="1" fill="none" fill-rule="evenodd">
        <path d="M39.5714286,10.7142857 C39.5714286,11.9047679 39.0506004,12.9092221 38.0089286,13.7276786 C37.7857132,13.8020837 37.6741071,14.0624978 37.6741071,14.5089286 C37.5252969,16.964298 37.1904788,18.8243984 36.6696429,20.0892857 C35.9255915,22.0238192 34.4747132,23.7351116 32.3169643,25.2232143 C30.1592154,26.711317 28.8199431,27.9761853 28.2991071,29.0178571 C27.4806507,30.4315547 27.0714286,32.4032612 27.0714286,34.9330357 L27.0714286,37.6116071 C27.0714286,38.5044688 27.4434487,39.1741049 28.1875,39.6205357 C28.3363103,39.6949408 28.7083304,40.0297589 29.3035714,40.625 C30.3452433,41.8154821 30.8660714,43.0803504 30.8660714,44.4196429 C30.8660714,45.9821507 30.3266423,47.302822 29.2477679,48.3816964 C28.1688934,49.4605709 26.8482221,50 25.2857143,50 C23.7232065,50 22.4025352,49.4605709 21.3236607,48.3816964 C20.2447863,47.302822 19.7053571,45.9821507 19.7053571,44.4196429 L19.7053571,44.3080357 C19.7053571,42.2990971 20.5982054,40.7366127 22.3839286,39.6205357 C23.0535748,39.0996998 23.3883929,38.4300636 23.3883929,37.6116071 C23.3883929,36.6443404 23.0163728,35.6398862 22.2723214,34.5982143 C21.7514855,33.8541629 20.5610212,32.8869107 18.7008929,31.6964286 C16.3943337,30.1339208 14.9062533,28.4226283 14.2366071,26.5625 C13.7901763,25.446423 13.4553583,23.9955446 13.2321429,22.2098214 C13.1577377,21.6145804 13.0089297,21.2053583 12.7857143,20.9821429 C11.5952321,20.2380915 11,19.1964353 11,17.8571429 C11,16.815471 11.3348181,15.9598248 12.0044643,15.2901786 C12.6741105,14.6205324 13.5297567,14.2857143 14.5714286,14.2857143 C15.6131004,14.2857143 16.4687467,14.6205324 17.1383929,15.2901786 C17.8080391,15.9598248 18.1428571,16.815471 18.1428571,17.8571429 C18.1428571,19.1220301 17.696433,20.0892824 16.8035714,20.7589286 C16.5059509,20.982144 16.3571429,21.5029721 16.3571429,22.3214286 C16.3571429,23.0654799 16.6175569,24.1071362 17.1383929,25.4464286 C17.6592288,26.4881004 18.626481,27.5669587 20.0401786,28.6830357 C21.4538761,29.7991127 22.4211283,30.3571429 22.9419643,30.3571429 C23.5372054,30.3571429 23.8348214,29.9107188 23.8348214,29.0178571 L23.8348214,7.14285714 C23.8348214,7.06845201 23.7232154,6.91964397 23.5,6.69642857 L23.3883929,6.69642857 L23.3883929,6.58482143 C22.2723158,5.84077009 21.7142857,4.83631585 21.7142857,3.57142857 C21.7142857,2.5297567 22.0491038,1.67411049 22.71875,1.00446429 C23.3883962,0.33481808 24.2440424,0 25.2857143,0 C26.3273862,0 27.1830324,0.33481808 27.8526786,1.00446429 C28.5223248,1.67411049 28.8571429,2.5297567 28.8571429,3.57142857 C28.8571429,4.91072098 28.3363147,5.91517522 27.2946429,6.58482143 C27.1458326,6.7336317 27.0714286,6.91964174 27.0714286,7.14285714 L27.0714286,22.7678571 C27.0714286,23.2886931 27.1272316,23.6421122 27.2388393,23.828125 C27.350447,24.0141378 27.59226,24.0699408 27.9642857,23.9955357 C28.7083371,23.8467254 29.8057963,23.1770893 31.2566964,21.9866071 C32.7075965,20.796125 33.5446417,19.8660748 33.7678571,19.1964286 C34.2142879,17.782731 34.474702,16.2574487 34.5491071,14.6205357 L34.5491071,14.5089286 L34.2142857,13.8392857 C33.0238036,13.0952344 32.4285714,12.0535781 32.4285714,10.7142857 C32.4285714,9.67261384 32.7633895,8.81696763 33.4330357,8.14732143 C34.1026819,7.47767522 34.9583281,7.14285714 36,7.14285714 C37.0416719,7.14285714 37.8973181,7.47767522 38.5669643,8.14732143 C39.2366105,8.81696763 39.5714286,9.67261384 39.5714286,10.7142857 Z M12.7857143,17.8571429 C12.7857143,19.047625 13.3809464,19.6428571 14.5714286,19.6428571 C15.7619107,19.6428571 16.3571429,19.047625 16.3571429,17.8571429 C16.3571429,16.6666607 15.7619107,16.0714286 14.5714286,16.0714286 C13.3809464,16.0714286 12.7857143,16.6666607 12.7857143,17.8571429 Z M23.5,3.57142857 C23.5,4.76191071 24.0952321,5.35714286 25.2857143,5.35714286 C26.4761964,5.35714286 27.0714286,4.76191071 27.0714286,3.57142857 C27.0714286,2.38094643 26.4761964,1.78571429 25.2857143,1.78571429 C24.0952321,1.78571429 23.5,2.38094643 23.5,3.57142857 Z M34.2142857,10.7142857 C34.2142857,11.9047679 34.8095179,12.5 36,12.5 C37.1904821,12.5 37.7857143,11.9047679 37.7857143,10.7142857 C37.7857143,9.52380357 37.1904821,8.92857143 36,8.92857143 C34.8095179,8.92857143 34.2142857,9.52380357 34.2142857,10.7142857 Z" id="Ico-USB" fill="#4A81FD"></path>
    </g>
</svg>