<?xml version="1.0" encoding="UTF-8"?>
<svg width="50px" height="50px" viewBox="0 0 50 50" version="1.1" xmlns="http://www.w3.org/2000/svg" xmlns:xlink="http://www.w3.org/1999/xlink">
    <!-- Generator: Sketch 53.2 (72643) - https://sketchapp.com -->
    <title>AT/ICO/FA-Music@2x</title>
    <desc>Created with Sketch.</desc>
    <g id="AT/ICO/FA-Music" stroke="none" stroke-width="1" fill="none" fill-rule="evenodd">
        <path d="M50,3.12597656 C50,1.34179688 48.6015625,0 47.0166016,0 C46.7197266,0 46.4160156,0.046875 46.1132812,0.147460938 L17.7167969,9.52246094 C16.4755859,9.93261719 15.625,11.1328125 15.625,12.5 L15.625,36.4023438 C13.9638672,35.1552734 11.7871094,34.375 9.375,34.375 C4.19726562,34.375 0,37.8730469 0,42.1875 C0,46.5019531 4.19726562,50 9.375,50 C14.5527344,50 18.75,46.5019531 18.75,42.1875 L18.75,25 L46.875,15.625 L46.875,30.1523438 C45.2138672,28.9052734 43.0371094,28.125 40.625,28.125 C35.4472656,28.125 31.25,31.6230469 31.25,35.9375 C31.25,40.2519531 35.4472656,43.75 40.625,43.75 C45.8027344,43.75 50,40.2519531 50,35.9375 C50,35.9345703 49.9990234,35.9326172 49.9990234,35.9296875 L50,3.12597656 Z M9.375,46.875 C5.98730469,46.875 3.125,44.7285156 3.125,42.1875 C3.125,39.6464844 5.98730469,37.5 9.375,37.5 C12.7626953,37.5 15.625,39.6464844 15.625,42.1875 C15.625,44.7285156 12.7626953,46.875 9.375,46.875 Z M46.875,12.3310547 L18.75,21.7060547 L18.75,12.5 L18.6962891,12.5 L18.6962891,12.4892578 L46.875,3.18652344 L46.875,12.3310547 Z M40.625,40.625 C37.2373047,40.625 34.375,38.4785156 34.375,35.9375 C34.375,33.3964844 37.2373047,31.25 40.625,31.25 C44.0126953,31.25 46.875,33.3964844 46.875,35.9375 C46.875,38.4785156 44.0126953,40.625 40.625,40.625 Z" id="AT/ICO/FA-music" fill="#000000" fill-rule="nonzero"></path>
    </g>
</svg>