<svg id="Layer_1" data-name="Layer 1" xmlns="http://www.w3.org/2000/svg" viewBox="0 0 36 36"><title>battery</title><path d="M18,1A17,17,0,1,0,35,18,17,17,0,0,0,18,1Zm.68,22.76a1.73,1.73,0,0,1-2.2,0,1.28,1.28,0,0,1-.44-1,1.22,1.22,0,0,1,.44-1,1.59,1.59,0,0,1,1.1-.39,1.57,1.57,0,0,1,1.09.39,1.23,1.23,0,0,1,.43,1A1.29,1.29,0,0,1,18.68,23.76Zm2.5-8a2.78,2.78,0,0,1-.34.77,3.6,3.6,0,0,1-.55.7,9.09,9.09,0,0,1-.77.7l-.51.44a2.69,2.69,0,0,0-.36.42,1.35,1.35,0,0,0-.22.43,1.62,1.62,0,0,0-.08.52,1.44,1.44,0,0,0,.06.4,1,1,0,0,0,.14.35H16.37a2.09,2.09,0,0,1-.13-.48,3.15,3.15,0,0,1,0-.52,3,3,0,0,1,.08-.69,2.54,2.54,0,0,1,.22-.6,3.06,3.06,0,0,1,.38-.53,5,5,0,0,1,.52-.5l.55-.49a4,4,0,0,0,.4-.46,1.43,1.43,0,0,0,.25-.47,1.63,1.63,0,0,0,.09-.55,1.19,1.19,0,0,0-.09-.47,1.05,1.05,0,0,0-.27-.38,1.13,1.13,0,0,0-.41-.25,1.57,1.57,0,0,0-.54-.09A3.69,3.69,0,0,0,16,14.3a4.44,4.44,0,0,0-1.32.82v-2.5A5.11,5.11,0,0,1,16.1,12a6.66,6.66,0,0,1,1.56-.19,5.9,5.9,0,0,1,1.43.17,3.54,3.54,0,0,1,1.16.54,2.41,2.41,0,0,1,.77.93,3,3,0,0,1,.28,1.37A3.31,3.31,0,0,1,21.18,15.78Z"/></svg>