<svg id="Layer_1" data-name="Layer 1" xmlns="http://www.w3.org/2000/svg" viewBox="0 0 50 50"><title>Toolbar icon list</title><rect x="24" y="-4.61" width="2" height="59.22" rx="0.5" transform="translate(-10.07 29.51) rotate(-52.33)"/><path d="M15.38,29h1.25a.38.38,0,0,0,.37-.37V24.16l-2-1.51v6A.38.38,0,0,0,15.38,29Z"/><path d="M40,17a1,1,0,0,1,1,1v3h2v8H41v2.89l1.74,1.32A3.05,3.05,0,0,0,43,32V31h.5A1.5,1.5,0,0,0,45,29.5v-9A1.5,1.5,0,0,0,43.5,19H43V18a3,3,0,0,0-3-3H18.69l2.64,2Z"/><rect x="11" y="21" width="2" height="8" rx="0.38"/><path d="M8,33a1,1,0,0,1-1-1V18a1,1,0,0,1,.64-.93L6,15.81A3,3,0,0,0,5,18V32a3,3,0,0,0,3,3H31.31l-2.64-2Z"/><path d="M23.38,29h0L23,28.72A.37.37,0,0,0,23.38,29Z"/><path d="M19.38,29h1.25a.38.38,0,0,0,.37-.37V27.19l-2-1.51v2.95A.38.38,0,0,0,19.38,29Z"/></svg>