<?xml version="1.0" encoding="UTF-8"?>
<svg width="50px" height="50px" viewBox="0 0 50 50" version="1.1" xmlns="http://www.w3.org/2000/svg" xmlns:xlink="http://www.w3.org/1999/xlink">
    <!-- Generator: Sketch 53.2 (72643) - https://sketchapp.com -->
    <title>AT/ICO/LE-Voice-Autentification@2x</title>
    <desc>Created with Sketch.</desc>
    <g id="AT/ICO/LE-Voice-Autentification" stroke="none" stroke-width="1" fill="none" fill-rule="evenodd">
        <path d="M14.1093012,38.3697912 C14.0881722,38.3711237 14.0668651,38.3718 14.0454,38.3718 L13.0396167,38.3718 L12.6591801,40.7274105 C12.5314113,41.5176517 12.5402559,42.3231714 12.68561,43.1094908 L12.8414336,43.9595315 C13.1079954,45.4057058 12.3328271,46.8878458 10.9435113,47.3443444 C10.7635203,47.4025122 9.97387024,47.4987238 7.16479382,47.8265587 C5.62603084,48.0061409 3.84458022,48.2108982 2.11332114,48.4083584 C1.56459398,48.470944 1.06902713,48.0768483 1.00644159,47.5281211 C0.943856048,46.979394 1.3379517,46.4838271 1.88667886,46.4212416 C5.44723112,46.0151398 10.3080771,45.447852 10.3238333,45.4427727 C10.7118126,45.3152877 10.9675201,44.826369 10.87439,44.3211092 L10.71866,43.4715756 C10.5318638,42.4610759 10.5204833,41.4246001 10.6847918,40.4083636 L11.0137016,38.3718 L10.0454,38.3718 C9.49311525,38.3718 9.0454,37.9240847 9.0454,37.3718 C9.0454,36.8195153 9.49311525,36.3718 10.0454,36.3718 L13.3360348,36.3718 L13.8262602,33.3325596 C13.9044181,32.8480057 14.3226832,32.4918 14.8135,32.4918 L17.7135,32.4918 C18.4585991,32.4918 18.9419307,31.7062104 18.627574,31.0812142 L13.3668895,21.7556286 C12.9188707,20.8685815 12.940105,19.8174874 13.4011469,18.986443 L13.9974954,17.7896853 C14.1463505,17.5206398 14.1643965,17.1998527 14.0464167,16.9174002 L10.4574167,8.30340017 C10.3681481,8.08914555 10.3561902,7.85051048 10.4235931,7.62840514 L11.2134533,5.02566399 C11.2106438,5.02430083 11.2078276,5.02293426 11.2050047,5.02156424 C11.2087256,5.02337004 11.2115257,5.02472794 11.2134539,5.02566178 C11.1629735,5.00097615 10.5407012,4.69828055 10.357694,4.61024541 C9.63720824,4.26365756 9.04856022,3.99672702 8.41571258,3.73699214 C6.54659688,2.96986508 4.56314285,2.39234553 2.15971416,1.98579315 C1.61516518,1.89367987 1.24839358,1.37756314 1.34050685,0.833014163 C1.43262013,0.288465184 1.94873686,-0.0783064207 2.49328584,0.0138068538 C5.04603985,0.445618391 7.17183937,1.06458447 9.17508825,1.8867628 C9.84926766,2.16346117 10.471673,2.44569943 11.2246902,2.80793644 C11.4345453,2.90888671 12.1966886,3.2797548 12.0782316,3.22226584 C12.3969813,3.3769599 12.623117,3.48463882 12.8371398,3.58272834 C13.2918855,3.79114444 13.5226714,4.30352047 13.3774069,4.78219486 L12.4416708,7.86562532 L15.8922383,16.147373 C16.2457748,16.9937632 16.1916963,17.9550681 15.7678531,18.719157 L15.1714389,19.9160334 C15.0100249,20.2076848 15.0029354,20.5586146 15.130426,20.8133858 L20.3911766,30.1391023 C21.3988678,32.1349906 19.9488478,34.4918 17.7135,34.4918 L15.6651265,34.4918 L15.1747398,37.5320404 C15.0911664,38.050169 14.6234873,38.4106916 14.1093012,38.3697912 Z M11.3457,20.9314 C11.3457,21.7604 10.6747,22.4314 9.8457,22.4314 C9.0177,22.4314 8.3457,21.7604 8.3457,20.9314 C8.3457,20.1034 9.0177,19.4314 9.8457,19.4314 C10.6747,19.4314 11.3457,20.1034 11.3457,20.9314 Z M39,30.4148 C39,29.8625153 39.4477153,29.4148 40,29.4148 C40.5522847,29.4148 41,29.8625153 41,30.4148 L41,47.4148 C41,47.9670847 40.5522847,48.4148 40,48.4148 C39.4477153,48.4148 39,47.9670847 39,47.4148 L39,30.4148 Z M35,35.4148 C35,34.8625153 35.4477153,34.4148 36,34.4148 C36.5522847,34.4148 37,34.8625153 37,35.4148 L37,42.4148 C37,42.9670847 36.5522847,43.4148 36,43.4148 C35.4477153,43.4148 35,42.9670847 35,42.4148 L35,35.4148 Z M43,35.4148 C43,34.8625153 43.4477153,34.4148 44,34.4148 C44.5522847,34.4148 45,34.8625153 45,35.4148 L45,42.4148 C45,42.9670847 44.5522847,43.4148 44,43.4148 C43.4477153,43.4148 43,42.9670847 43,42.4148 L43,35.4148 Z M31,37.7478 C31,37.1955153 31.4477153,36.7478 32,36.7478 C32.5522847,36.7478 33,37.1955153 33,37.7478 L33,40.0818 C33,40.6340847 32.5522847,41.0818 32,41.0818 C31.4477153,41.0818 31,40.6340847 31,40.0818 L31,37.7478 Z M27,30.4148 C27,29.8625153 27.4477153,29.4148 28,29.4148 C28.5522847,29.4148 29,29.8625153 29,30.4148 L29,47.4148 C29,47.9670847 28.5522847,48.4148 28,48.4148 C27.4477153,48.4148 27,47.9670847 27,47.4148 L27,30.4148 Z M23,35.4148 C23,34.8625153 23.4477153,34.4148 24,34.4148 C24.5522847,34.4148 25,34.8625153 25,35.4148 L25,42.4148 C25,42.9670847 24.5522847,43.4148 24,43.4148 C23.4477153,43.4148 23,42.9670847 23,42.4148 L23,35.4148 Z M19,37.7478 C19,37.1955153 19.4477153,36.7478 20,36.7478 C20.5522847,36.7478 21,37.1955153 21,37.7478 L21,40.0818 C21,40.6340847 20.5522847,41.0818 20,41.0818 C19.4477153,41.0818 19,40.6340847 19,40.0818 L19,37.7478 Z M47,37.7478 C47,37.1955153 47.4477153,36.7478 48,36.7478 C48.5522847,36.7478 49,37.1955153 49,37.7478 L49,40.0818 C49,40.6340847 48.5522847,41.0818 48,41.0818 C47.4477153,41.0818 47,40.6340847 47,40.0818 L47,37.7478 Z M23,7.4148 C22.4477153,7.4148 22,6.96708475 22,6.4148 L22,1.4148 C22,0.86251525 22.4477153,0.4148 23,0.4148 L28,0.4148 C28.5522847,0.4148 29,0.86251525 29,1.4148 L29,6.4148 C29,6.96708475 28.5522847,7.4148 28,7.4148 L23,7.4148 Z M24,5.4148 L27,5.4148 L27,2.4148 L24,2.4148 L24,5.4148 Z M33,7.4148 C32.4477153,7.4148 32,6.96708475 32,6.4148 C32,5.86251525 32.4477153,5.4148 33,5.4148 L38,5.4148 C38.5522847,5.4148 39,5.86251525 39,6.4148 C39,6.96708475 38.5522847,7.4148 38,7.4148 L33,7.4148 Z M36,6.4148 C36,6.96708475 35.5522847,7.4148 35,7.4148 C34.4477153,7.4148 34,6.96708475 34,6.4148 L34,1.4148 C34,0.86251525 34.4477153,0.4148 35,0.4148 C35.5522847,0.4148 36,0.86251525 36,1.4148 L36,6.4148 Z M35.0005,0.4148 C35.5527847,0.4148 36.0005,0.86251525 36.0005,1.4148 C36.0005,1.96708475 35.5527847,2.4148 35.0005,2.4148 L33.0005,2.4148 C32.4482153,2.4148 32.0005,1.96708475 32.0005,1.4148 C32.0005,0.86251525 32.4482153,0.4148 33.0005,0.4148 L35.0005,0.4148 Z M43,7.4148 C42.4477153,7.4148 42,6.96708475 42,6.4148 L42,1.4148 C42,0.86251525 42.4477153,0.4148 43,0.4148 L48,0.4148 C48.5522847,0.4148 49,0.86251525 49,1.4148 L49,6.4148 C49,6.96708475 48.5522847,7.4148 48,7.4148 L43,7.4148 Z M47,5.4148 L47,2.4148 L44,2.4148 L44,5.4148 L47,5.4148 Z M23,17.4148 C22.4477153,17.4148 22,16.9670847 22,16.4148 C22,15.8625153 22.4477153,15.4148 23,15.4148 L28,15.4148 C28.5522847,15.4148 29,15.8625153 29,16.4148 C29,16.9670847 28.5522847,17.4148 28,17.4148 L23,17.4148 Z M25.0005,10.4148 C25.5527847,10.4148 26.0005,10.8625153 26.0005,11.4148 C26.0005,11.9670847 25.5527847,12.4148 25.0005,12.4148 L23.0005,12.4148 C22.4482153,12.4148 22.0005,11.9670847 22.0005,11.4148 C22.0005,10.8625153 22.4482153,10.4148 23.0005,10.4148 L25.0005,10.4148 Z M26,16.4148 C26,16.9670847 25.5522847,17.4148 25,17.4148 C24.4477153,17.4148 24,16.9670847 24,16.4148 L24,11.4148 C24,10.8625153 24.4477153,10.4148 25,10.4148 C25.5522847,10.4148 26,10.8625153 26,11.4148 L26,16.4148 Z M43,17.4148 C42.4477153,17.4148 42,16.9670847 42,16.4148 L42,11.4148 C42,10.8625153 42.4477153,10.4148 43,10.4148 L48,10.4148 C48.5522847,10.4148 49,10.8625153 49,11.4148 L49,16.4148 C49,16.9670847 48.5522847,17.4148 48,17.4148 L43,17.4148 Z M47,15.4148 L47,12.4148 L44,12.4148 L44,15.4148 L47,15.4148 Z M33,17.4148 C32.4477153,17.4148 32,16.9670847 32,16.4148 L32,11.4148 C32,10.8625153 32.4477153,10.4148 33,10.4148 L38,10.4148 C38.5522847,10.4148 39,10.8625153 39,11.4148 L39,16.4148 C39,16.9670847 38.5522847,17.4148 38,17.4148 L33,17.4148 Z M37,15.4148 L37,12.4148 L34,12.4148 L34,15.4148 L37,15.4148 Z M23,27.4148 C22.4477153,27.4148 22,26.9670847 22,26.4148 L22,21.4148 C22,20.8625153 22.4477153,20.4148 23,20.4148 L28,20.4148 C28.5522847,20.4148 29,20.8625153 29,21.4148 L29,26.4148 C29,26.9670847 28.5522847,27.4148 28,27.4148 L23,27.4148 Z M27,25.4148 L27,22.4148 L24,22.4148 L24,25.4148 L27,25.4148 Z M33,27.4148 C32.4477153,27.4148 32,26.9670847 32,26.4148 C32,25.8625153 32.4477153,25.4148 33,25.4148 L38,25.4148 C38.5522847,25.4148 39,25.8625153 39,26.4148 C39,26.9670847 38.5522847,27.4148 38,27.4148 L33,27.4148 Z M35.0005,21 C35.5527847,21 36.0005,21.4477153 36.0005,22 C36.0005,22.5522847 35.5527847,23 35.0005,23 L33.0005,23 C32.4482153,23 32.0005,22.5522847 32.0005,22 C32.0005,21.4477153 32.4482153,21 33.0005,21 L35.0005,21 Z M36,27 C36,27.5522847 35.5522847,28 35,28 C34.4477153,28 34,27.5522847 34,27 L34,22 C34,21.4477153 34.4477153,21 35,21 C35.5522847,21 36,21.4477153 36,22 L36,27 Z M43,27.4148 C42.4477153,27.4148 42,26.9670847 42,26.4148 L42,21.4148 C42,20.8625153 42.4477153,20.4148 43,20.4148 L48,20.4148 C48.5522847,20.4148 49,20.8625153 49,21.4148 L49,26.4148 C49,26.9670847 48.5522847,27.4148 48,27.4148 L43,27.4148 Z M47,25.4148 L47,22.4148 L44,22.4148 L44,25.4148 L47,25.4148 Z" id="Combined-Shape" fill="#4A81FD" fill-rule="nonzero"></path>
    </g>
</svg>