<svg xmlns="http://www.w3.org/2000/svg" width="31.535" height="27.645" viewBox="0 0 31.535 27.645">
  <g id="Group_341" data-name="Group 341" transform="translate(0 0.02)">
    <g id="Icon_talk-to-text_inactive" data-name="Icon talk-to-text inactive">
      <path id="Path_281" data-name="Path 281" d="M25.955,23.66H17.5a1,1,0,1,1,0-2h8.453a1,1,0,0,1,0,2Z"/>
      <path id="Path_282" data-name="Path 282" d="M30.535,17.649H17.5a1,1,0,1,1,0-2H30.532a1,1,0,0,1,0,2Z"/>
      <path id="Path_283" data-name="Path 283" d="M30.535,11.639H17.5a1,1,0,1,1,0-2H30.532a1,1,0,1,1,0,2Z"/>
      <path id="Path_284" data-name="Path 284" d="M30.535,5.7H15.5a1,1,0,0,1,0-2H30.535a1,1,0,0,1,0,2Z"/>
      <g id="MIC">
        <path id="Path_53" data-name="Path 53" d="M13.44,9.77a.776.776,0,0,0-.791.761h0v4.563a5.538,5.538,0,0,1-11.068,0V10.531a.791.791,0,0,0-1.581,0v4.563a6.956,6.956,0,0,0,6.325,6.8V26.1H3.657A.761.761,0,1,0,3.6,27.625h6.975a.761.761,0,0,0,.055-1.521H7.9v-4.21a6.957,6.957,0,0,0,6.325-6.8V10.531a.774.774,0,0,0-.787-.761h0Z"/>
        <path id="Path_54" data-name="Path 54" d="M7.115,19.255A4.665,4.665,0,0,0,11.7,14.526V4.74A4.588,4.588,0,0,0,2.53,4.4V14.525A4.665,4.665,0,0,0,7.115,19.255Zm-3-14.515c0-8.5,11.58,12.884,3,12.884a3.056,3.056,0,0,1-3-3.1Z"/>
      </g>
    </g>
  </g>
</svg>
