<?xml version="1.0" encoding="UTF-8"?>
<svg width="50px" height="50px" viewBox="0 0 50 50" version="1.1" xmlns="http://www.w3.org/2000/svg" xmlns:xlink="http://www.w3.org/1999/xlink">
    <!-- Generator: Sketch 53.2 (72643) - https://sketchapp.com -->
    <title>AT/ICO/FA-Microphone-alt@2x</title>
    <desc>Created with Sketch.</desc>
    <g id="AT/ICO/FA-Microphone-alt" stroke="none" stroke-width="1" fill="none" fill-rule="evenodd">
        <path d="M24.625,34.375 C29.8027344,34.375 34,30.1777344 34,25 L34,9.375 C34,4.19726562 29.8027344,0 24.625,0 C19.4472656,0 15.25,4.19726562 15.25,9.375 L15.25,25 C15.25,30.1777344 19.4472656,34.375 24.625,34.375 Z M18.375,9.375 C18.375,5.92871094 21.1787109,3.125 24.625,3.125 C28.0712891,3.125 30.875,5.92871094 30.875,9.375 L25.40625,9.375 C24.9746094,9.375 24.625,9.72460938 24.625,10.15625 L24.625,11.71875 C24.625,12.1503906 24.9746094,12.5 25.40625,12.5 L30.875,12.5 L30.875,15.625 L25.40625,15.625 C24.9746094,15.625 24.625,15.9746094 24.625,16.40625 L24.625,17.96875 C24.625,18.4003906 24.9746094,18.75 25.40625,18.75 L30.875,18.75 L30.875,21.875 L25.40625,21.875 C24.9746094,21.875 24.625,22.2246094 24.625,22.65625 L24.625,24.21875 C24.625,24.6503906 24.9746094,25 25.40625,25 L30.875,25 C30.875,28.4462891 28.0712891,31.25 24.625,31.25 C21.1787109,31.25 18.375,28.4462891 18.375,25 L18.375,9.375 Z M39.46875,18.75 L37.90625,18.75 C37.4746094,18.75 37.125,19.0996094 37.125,19.53125 L37.125,25 C37.125,32.1738281 31.0507813,37.9570312 23.7724609,37.4716797 C17.1347656,37.0292969 12.125,31.2119141 12.125,24.5595703 L12.125,19.53125 C12.125,19.0996094 11.7753906,18.75 11.34375,18.75 L9.78125,18.75 C9.34960938,18.75 9,19.0996094 9,19.53125 L9,24.4472656 C9,32.5908203 15.0195312,39.6933594 23.0625,40.5048828 L23.0625,46.875 L16.03125,46.875 C15.5996094,46.875 15.25,47.2246094 15.25,47.65625 L15.25,49.21875 C15.25,49.6503906 15.5996094,50 16.03125,50 L33.21875,50 C33.6503906,50 34,49.6503906 34,49.21875 L34,47.65625 C34,47.2246094 33.6503906,46.875 33.21875,46.875 L26.1875,46.875 L26.1875,40.5263672 C34.0693359,39.7363281 40.25,33.0859375 40.25,25 L40.25,19.53125 C40.25,19.0996094 39.9003906,18.75 39.46875,18.75 Z" fill="#4A81FD" fill-rule="nonzero"></path>
    </g>
</svg>