<svg xmlns="http://www.w3.org/2000/svg" xmlns:xlink="http://www.w3.org/1999/xlink" width="48" height="48" viewBox="0 0 48 48"><defs><style>.a{fill:none;}.b{clip-path:url(#a);}.c{fill:#4a81fd;}</style><clipPath id="a"><rect class="a" width="48" height="48"/></clipPath></defs><g class="b"><g transform="translate(-1284 -1842.499)"><path class="c" d="M6.241,12.48h0A6.24,6.24,0,1,1,6.241,0h0a6.24,6.24,0,1,1,0,12.48ZM2.5,6.241A3.743,3.743,0,1,0,6.241,2.5,3.748,3.748,0,0,0,2.5,6.241Z" transform="translate(1302.024 1870.615)"/><path class="c" d="M46.048,11.643q-.388-.383-.785-.749a32.788,32.788,0,0,0-3.773-2.98l.009-.008a31.207,31.207,0,0,0-7.209-3.63l-.023.018a30.863,30.863,0,0,0-20.537,0l-.023-.019A31.215,31.215,0,0,0,6.5,7.908l.01.008A32.684,32.684,0,0,0,2.8,10.835q-.43.4-.849.808a.87.87,0,0,1-1.158.07.91.91,0,0,1-.1-.093l-.427-.445a.943.943,0,0,1-.26-.6.971.971,0,0,1,.283-.747q.287-.284.58-.557A34.079,34.079,0,0,1,11.47,2.442l0,0a33.422,33.422,0,0,1,25.067,0l0,0A34.09,34.09,0,0,1,47.17,9.3q.275.258.546.525a.973.973,0,0,1,.282.746.942.942,0,0,1-.26.6l-.427.445a.914.914,0,0,1-.1.093.87.87,0,0,1-1.158-.07Z" transform="translate(1284 1849.499)"/><path class="c" d="M28.2,8.129a25.63,25.63,0,0,0-2.459-2.185,17.872,17.872,0,0,0-4.532-2.372l-.014.012A17.916,17.916,0,0,0,15,2.434,17.927,17.927,0,0,0,8.807,3.583l-.014-.012A17.886,17.886,0,0,0,4.261,5.944,25.63,25.63,0,0,0,1.8,8.129a.559.559,0,0,1-.809-.016L.168,7.333A.625.625,0,0,1,0,6.938a.647.647,0,0,1,.088-.367.607.607,0,0,1,.094-.123C.305,6.324.43,6.2.554,6.083A21.8,21.8,0,0,1,7.357,1.6l0,0A20.187,20.187,0,0,1,14.434.015c.007-.005,1.112-.006,1.125,0A20.313,20.313,0,0,1,22.646,1.6l0,0a21.8,21.8,0,0,1,6.8,4.481c.125.119.249.241.372.365a.676.676,0,0,1,.094.123A.646.646,0,0,1,30,6.938a.628.628,0,0,1-.167.4l-.825.779a.56.56,0,0,1-.068.062.549.549,0,0,1-.743-.046Z" transform="translate(1293 1861.368)"/></g><rect class="a" width="48" height="48"/></g></svg>