<svg xmlns="http://www.w3.org/2000/svg" xmlns:xlink="http://www.w3.org/1999/xlink" width="246.003" height="252.001" viewBox="0 0 246.003 252.001"><defs><style>.a{fill:#2f3447;}.b{fill:url(#a);}.c{filter:url(#b);}</style><linearGradient id="a" x1="0.105" y1="1" x2="0.889" y2="1" gradientUnits="objectBoundingBox"><stop offset="0" stop-color="#2955bc"/><stop offset="1" stop-color="#346cef"/></linearGradient><filter id="b" x="9.713" y="0" width="236.29" height="252.001" filterUnits="userSpaceOnUse"><feOffset dy="2" input="SourceAlpha"/><feGaussianBlur stdDeviation="4" result="c"/><feFlood flood-color="#2e62d9" flood-opacity="0.749"/><feComposite operator="in" in2="c"/><feComposite in="SourceGraphic"/></filter></defs><g transform="translate(-108 -269.003)"><path class="a" d="M120,240a120.893,120.893,0,0,1-24.184-2.438,119.336,119.336,0,0,1-42.909-18.056A120.351,120.351,0,0,1,9.43,166.71a119.4,119.4,0,0,1-6.992-22.525,121.176,121.176,0,0,1,0-48.368A119.342,119.342,0,0,1,20.494,52.907,120.351,120.351,0,0,1,73.29,9.43,119.4,119.4,0,0,1,95.815,2.438a121.172,121.172,0,0,1,48.369,0,119.336,119.336,0,0,1,42.909,18.056,120.352,120.352,0,0,1,43.477,52.8,119.393,119.393,0,0,1,6.992,22.525,121.165,121.165,0,0,1,0,48.368,119.341,119.341,0,0,1-18.056,42.909,120.353,120.353,0,0,1-52.8,43.476,119.413,119.413,0,0,1-22.525,6.992A120.893,120.893,0,0,1,120,240Zm0-210a90,90,0,1,0,90,90A90.1,90.1,0,0,0,120,30Z" transform="translate(108 273)"/><g class="c" transform="matrix(1, 0, 0, 1, 108, 269)"><path class="b" d="M-846.089-4420h0V-4438c.819-.009,1.619-.026,2.378-.051l.785,17.989C-844-4420.026-845.067-4420-846.089-4420Zm-1.813,0h0c-1.045-.008-2.109-.031-3.162-.069l.785-17.989c.769.025,1.568.042,2.377.051V-4420Zm6.785-.146h0l-.785-17.991c.8-.042,1.595-.094,2.374-.154l1.57,17.94C-839-4420.265-840.061-4420.2-841.118-4420.142Zm-11.755,0h0c-1.051-.054-2.113-.123-3.156-.2l1.57-17.939c.75.058,1.548.109,2.373.153l-.785,17.99Zm16.716-.361h0l-1.57-17.94c.765-.072,1.561-.158,2.366-.257l2.35,17.857C-834.092-4420.711-835.149-4420.6-836.157-4420.5Zm-21.677,0h0c-1.068-.1-2.126-.215-3.144-.34l2.35-17.856c.742.09,1.538.177,2.364.257l-1.57,17.938Zm-4.94-.574h0c-1.047-.146-2.1-.306-3.128-.477l3.128-17.74c.778.128,1.569.25,2.352.36l-2.35,17.856Zm31.558,0h0l-2.35-17.858c.734-.1,1.525-.224,2.353-.36l3.128,17.741C-829.137-4421.379-830.189-4421.219-831.217-4421.077Zm4.912-.789h0l-3.128-17.743c.793-.148,1.578-.3,2.333-.464l3.9,17.593-.026.006-.311.064-.482.1c-.721.148-1.49.3-2.285.443Zm-41.382,0h0c-.754-.138-1.522-.286-2.284-.442-.3-.062-.568-.118-.82-.172l3.9-17.591c.756.16,1.541.315,2.334.463l-3.129,17.741Zm46.255-1h0l-3.9-17.593c.774-.179,1.551-.37,2.312-.566l4.664,17.409c-1.043.27-2.077.521-3.075.75Zm-51.127,0h0c-1.025-.234-2.06-.487-3.075-.75l4.664-17.407c.744.191,1.521.382,2.312.565l-3.9,17.591Zm55.952-1.218h0l-4.664-17.409c.733-.205,1.5-.429,2.283-.668l5.421,17.193c-1.021.312-2.042.609-3.038.884Zm-60.773,0h0c-1.007-.278-2.029-.575-3.039-.885l5.421-17.19c.759.231,1.527.456,2.284.666l-4.665,17.407Zm-4.766-1.428h0c-.981-.318-1.989-.661-3-1.017l6.166-16.942c.752.266,1.509.524,2.252.767l-5.421,17.191Zm70.3,0h0l-5.421-17.194c.726-.237,1.484-.495,2.252-.767l6.166,16.943c-.985.35-1.993.692-3,1.017Zm4.7-1.636-6.168-16.945c.728-.273,1.473-.564,2.216-.865l6.9,16.663c-1,.4-1.987.788-2.949,1.146Zm-79.7,0h0c-.954-.356-1.946-.742-2.949-1.146l6.9-16.661c.73.3,1.475.586,2.215.864l-6.166,16.942Zm84.323-1.84-6.9-16.665c.719-.307,1.451-.63,2.175-.961l7.624,16.349c-.97.445-1.944.874-2.9,1.276Zm-88.948,0h0c-.962-.406-1.935-.835-2.893-1.274l7.623-16.346c.72.329,1.451.652,2.174.959Zm93.485-2.041-7.624-16.35c.71-.342,1.427-.7,2.131-1.056l8.33,16c-.931.476-1.885.947-2.835,1.4Zm-98.02,0h0c-.971-.463-1.925-.935-2.836-1.4l8.33-16c.682.35,1.4.7,2.131,1.055Zm102.461-2.239-8.331-16c.7-.372,1.4-.758,2.083-1.148l9.023,15.627c-.948.538-1.881,1.05-2.773,1.524Zm-106.9,0h0c-.919-.487-1.852-1-2.773-1.522l9.02-15.624c.7.395,1.4.781,2.084,1.148Zm111.245-2.43h0l-9.023-15.627c.637-.377,1.32-.793,2.031-1.238l9.7,15.222c-.911.571-1.821,1.124-2.7,1.644Zm-115.586,0h0c-.9-.531-1.813-1.083-2.7-1.642l9.695-15.218c.659.413,1.342.829,2.03,1.236Zm119.817-2.613,0,0h0l-9.7-15.222c.628-.409,1.292-.854,1.974-1.323l10.353,14.786c-.364.251-.664.455-.906.618l0,0c-.542.366-1.12.749-1.717,1.137Zm-124.048,0h0c-.589-.381-1.167-.763-1.715-1.135-.376-.255-.657-.447-.912-.623l10.351-14.782c.624.43,1.288.875,1.974,1.323Zm-4.109-2.8h0c-.841-.6-1.7-1.229-2.55-1.872l10.985-14.317c.645.485,1.29.959,1.917,1.408Zm132.269,0h0l-10.353-14.786c.618-.442,1.262-.915,1.914-1.407L-778.311-4443c-.877.661-1.734,1.291-2.549,1.872Zm3.986-2.975h0l-10.987-14.321c.617-.483,1.239-.984,1.851-1.489l11.6,13.829c-.815.674-1.644,1.34-2.464,1.981Zm-140.241,0h0c-.826-.646-1.655-1.313-2.465-1.982l11.6-13.824c.606.5,1.229,1,1.851,1.489l-10.985,14.317Zm144.094-3.146,0,0-11.6-13.828c.59-.505,1.191-1.032,1.786-1.567l12.2,13.309c-.772.7-1.571,1.4-2.377,2.086Zm-147.947,0h0c-.787-.671-1.587-1.374-2.377-2.087l12.194-13.306c.579.521,1.179,1.049,1.785,1.568l-11.6,13.824Zm151.661-3.307,0,0h0l-12.195-13.309c.59-.552,1.167-1.1,1.716-1.643l12.765,12.764c-.73.72-1.5,1.456-2.284,2.188Zm-155.376,0v0h0c-.752-.7-1.521-1.436-2.284-2.185l12.763-12.764c.561.55,1.138,1.1,1.717,1.644l-12.193,13.306Zm-3.563-3.47h0c-.735-.747-1.471-1.516-2.188-2.285l13.306-12.194c.561.6,1.113,1.176,1.644,1.717l-12.762,12.762Zm162.5,0h0l-12.765-12.765c.529-.538,1.082-1.115,1.644-1.717l13.31,12.2c-.743.8-1.479,1.564-2.188,2.284Zm-165.912-3.618h0c-.7-.782-1.406-1.583-2.087-2.38l13.825-11.6c.509.593,1.036,1.194,1.568,1.787l-13.305,12.193Zm169.321,0-13.309-12.2c.494-.547,1.021-1.147,1.568-1.785l13.829,11.6c-.74.865-1.443,1.664-2.087,2.376Zm-172.572-3.764h0c-.667-.806-1.333-1.636-1.981-2.465l14.317-10.986c.478.611.979,1.234,1.489,1.853l-13.823,11.6Zm175.825,0h0l-13.828-11.6c.485-.588.986-1.211,1.49-1.853l14.321,10.989c-.642.822-1.309,1.651-1.982,2.465Zm-178.91-3.9h0c-.627-.831-1.257-1.688-1.872-2.549l14.782-10.351c.44.616.913,1.26,1.407,1.916l-14.315,10.984Zm182,0h0l-14.32-10.987c.455-.6.929-1.248,1.408-1.916l14.786,10.353c-.628.879-1.258,1.737-1.873,2.549Zm2.915-4.03h0L-767.87-4479.7c.455-.661.9-1.325,1.323-1.974l15.223,9.7c-.38.585-.763,1.163-1.14,1.719-.2.293-.406.6-.621.909Zm-187.824,0h0c-.223-.325-.424-.617-.622-.911-.4-.594-.784-1.172-1.138-1.719l15.218-9.695c.416.638.862,1.3,1.324,1.975l-14.781,10.35Zm-2.735-4.156c-.547-.87-1.1-1.78-1.644-2.7l15.624-9.02c.4.671.815,1.354,1.238,2.031l-15.216,9.693Zm193.292,0h0l-15.221-9.7c.408-.65.824-1.333,1.237-2.03l15.629,9.022c-.546.926-1.1,1.835-1.643,2.7Zm2.55-4.271h0l-15.626-9.022c.373-.657.759-1.357,1.148-2.083l16,8.332c-.5.94-1.013,1.873-1.524,2.772Zm2.362-4.379h0l-16-8.331c.357-.7.712-1.415,1.055-2.131l16.351,7.624c-.478,1-.95,1.955-1.4,2.837Zm2.17-4.476h0l-16.349-7.624c.314-.687.637-1.419.961-2.176l16.665,6.9c-.425,1-.854,1.974-1.276,2.9Zm1.97-4.57h0l-16.662-6.9c.286-.708.577-1.453.864-2.215l16.946,6.167c-.36.968-.746,1.96-1.147,2.949Zm1.764-4.652h0l-16.942-6.167c.265-.75.522-1.507.766-2.252l17.195,5.422c-.329,1.017-.671,2.024-1.017,3Zm1.563-4.722h0l-17.192-5.42c.226-.742.451-1.51.666-2.285l17.411,4.666c-.283,1.027-.581,2.048-.885,3.038Zm1.35-4.789h0l-17.407-4.665c.2-.763.386-1.541.565-2.311l17.594,3.9c-.241,1.05-.494,2.084-.75,3.073Zm1.141-4.842-17.593-3.9c.163-.77.319-1.555.464-2.334l17.744,3.128c-.141.767-.29,1.536-.443,2.286q-.084.408-.17.814h0Zm.927-4.888h0l-17.742-3.129c.134-.809.256-1.6.361-2.353l17.857,2.352c-.141,1.026-.3,2.078-.476,3.129Zm.71-4.924h0l-17.855-2.351c.1-.8.183-1.6.257-2.365l17.94,1.569c-.1,1.079-.218,2.137-.341,3.146Zm.5-4.95h0l-17.938-1.57c.058-.756.11-1.554.153-2.374l17.991.785c-.052,1.026-.121,2.088-.2,3.157Zm.283-4.967h0l-17.989-.785c.027-.777.044-1.577.051-2.377H-733c-.008,1.053-.031,2.116-.068,3.162Zm.068-4.974H-751c-.007-.75-.024-1.549-.051-2.376l17.991-.787c.037,1.053.06,2.117.068,3.162Zm-18.136-4.184h0c-.043-.8-.095-1.6-.154-2.374l17.939-1.57c.084,1.076.153,2.139.2,3.159l-17.988.786Zm-.31-4.177h0c-.074-.774-.16-1.57-.257-2.366l17.856-2.35c.125,1.018.24,2.076.341,3.146Zm-.492-4.161h0c-.106-.755-.227-1.545-.36-2.351l17.74-3.128c.175,1.053.335,2.105.477,3.128Zm-.674-4.134h0c-.139-.753-.295-1.537-.463-2.332l17.592-3.9c.054.25.11.52.172.822.154.755.3,1.523.442,2.284l-17.741,3.129Zm-.854-4.1h0c-.186-.8-.376-1.579-.566-2.31l17.409-4.665c.271,1.049.523,2.083.75,3.074l-17.592,3.9Zm-1.034-4.059h0c-.2-.733-.427-1.5-.666-2.285l17.191-5.42c.307,1,.6,2.026.885,3.041l-17.409,4.665Zm-1.212-4.01h0c-.24-.736-.5-1.494-.767-2.252l16.942-6.167c.347.977.689,1.986,1.018,3l-17.192,5.42Zm-1.387-3.951h0c-.283-.752-.573-1.5-.864-2.215l16.661-6.9c.4.987.786,1.98,1.148,2.95l-16.943,6.166Zm-1.559-3.889h0c-.315-.739-.638-1.471-.961-2.175l16.347-7.623c.443.969.872,1.943,1.276,2.9l-16.662,6.9Zm-1.728-3.813h0c-.35-.73-.705-1.447-1.054-2.13l16-8.33c.484.946.956,1.9,1.4,2.837l-16.347,7.623Zm-1.894-3.737h0c-.375-.7-.76-1.4-1.147-2.083l15.624-9.021c.522.919,1.035,1.853,1.525,2.774l-16,8.33Zm-2.056-3.65c-.412-.7-.828-1.378-1.236-2.029l15.218-9.7c.544.866,1.1,1.776,1.643,2.7l-15.624,9.021Zm-2.211-3.555c-.456-.7-.89-1.344-1.324-1.974l14.784-10.351c.227.33.424.62.622.912.382.565.765,1.144,1.138,1.718l-15.218,9.695Zm-2.363-3.456h0c-.478-.666-.951-1.311-1.408-1.916L-756-4602.682c.621.819,1.251,1.678,1.875,2.551l-14.782,10.351Zm-2.511-3.348h0c-.5-.635-1-1.258-1.488-1.852l13.825-11.6c.668.808,1.334,1.638,1.982,2.466l-14.317,10.986Zm-2.655-3.24h0c-.524-.611-1.052-1.211-1.567-1.784l13.306-12.193c.717.795,1.419,1.595,2.087,2.378l-13.825,11.6Zm-2.789-3.116,0,0c-.546-.584-1.1-1.161-1.643-1.716l12.763-12.763c.755.767,1.491,1.536,2.188,2.285l-13.306,12.194Zm-2.925-3h0c-.557-.546-1.134-1.1-1.716-1.642l12.194-13.308c.776.724,1.545,1.461,2.286,2.189Zm-3.051-2.867h0c-.564-.509-1.165-1.036-1.784-1.568l11.6-13.824c.831.709,1.631,1.412,2.378,2.086l-12.192,13.305Zm-3.171-2.734h0c-.584-.481-1.207-.981-1.851-1.487l10.986-14.317c.839.655,1.668,1.323,2.466,1.982Zm-3.287-2.593h0c-.638-.479-1.282-.953-1.914-1.406l10.352-14.782c.848.6,1.7,1.235,2.549,1.874Zm-3.4-2.449h0c-.654-.449-1.318-.894-1.974-1.321l9.695-15.22c.629.41,1.207.793,1.719,1.14.305.205.617.419.91.622Zm-3.5-2.3h0c-.667-.417-1.35-.833-2.031-1.237l9.02-15.624c.947.559,1.857,1.112,2.706,1.645l-9.694,15.216Zm-3.6-2.146h0c-.706-.4-1.406-.784-2.081-1.145l8.329-16c.918.488,1.85,1,2.773,1.525Zm-3.687-1.985h0c-.73-.372-1.447-.727-2.131-1.054l7.623-16.346c.98.467,1.934.939,2.838,1.4l-8.327,16Zm-3.77-1.824h0c-.747-.339-1.479-.662-2.175-.958l6.9-16.661c.991.42,1.965.85,2.9,1.276Zm-3.845-1.655h0c-.715-.29-1.46-.581-2.215-.865l6.166-16.941c1.018.38,2.01.766,2.95,1.148l-6.9,16.657Zm-3.918-1.486h0c-.722-.256-1.48-.514-2.252-.767l5.421-17.19c1.024.332,2.032.674,3,1.018l-6.165,16.938Zm-3.978-1.312h0c-.782-.238-1.55-.462-2.284-.666l4.664-17.406c.973.268,1.995.566,3.04.885l-5.419,17.187Zm-4.032-1.136h0c-.816-.209-1.571-.394-2.309-.564l3.9-17.59c1.052.241,2.086.494,3.075.75l-4.663,17.4Zm-4.078-.957h0c-.738-.157-1.522-.313-2.333-.463l3.128-17.738c.826.151,1.595.3,2.286.443.246.05.536.11.818.171l-3.9,17.587Zm-4.116-.777h0c-.743-.124-1.534-.245-2.349-.36l2.35-17.854c1.075.149,2.127.31,3.128.477l-3.128,17.736Zm-4.147-.6h0c-.805-.1-1.6-.183-2.363-.257l1.57-17.935c1.026.1,2.083.21,3.145.34l-2.35,17.851Zm-4.168-.414h0c-.771-.06-1.57-.111-2.373-.154l.785-17.983c1.056.053,2.118.122,3.157.2l-1.568,17.934Zm-4.183-.231h0c-.8-.027-1.595-.044-2.376-.051v-18c1.017.008,2.081.031,3.163.069l-.785,17.984Z" transform="translate(967 4658)"/></g></g></svg>