<svg xmlns="http://www.w3.org/2000/svg" xmlns:xlink="http://www.w3.org/1999/xlink" width="240" height="243.997" viewBox="0 0 240 243.997"><defs><style>.a{fill:#2f3447;}.b{fill:url(#a);}.c{filter:url(#b);}</style><linearGradient id="a" x1="0.105" y1="1" x2="0.889" y2="1" gradientUnits="objectBoundingBox"><stop offset="0" stop-color="#eab029"/><stop offset="1" stop-color="#f0d662"/></linearGradient><filter id="b" x="108.909" y="0" width="95.68" height="63.912" filterUnits="userSpaceOnUse"><feOffset dy="2" input="SourceAlpha"/><feGaussianBlur stdDeviation="4" result="c"/><feFlood flood-color="#f0d662" flood-opacity="0.6"/><feComposite operator="in" in2="c"/><feComposite in="SourceGraphic"/></filter></defs><g transform="translate(-108 -269.003)"><path class="a" d="M120,240a120.893,120.893,0,0,1-24.184-2.438,119.336,119.336,0,0,1-42.909-18.056A120.351,120.351,0,0,1,9.43,166.71a119.4,119.4,0,0,1-6.992-22.525,121.176,121.176,0,0,1,0-48.368A119.342,119.342,0,0,1,20.494,52.907,120.351,120.351,0,0,1,73.29,9.43,119.4,119.4,0,0,1,95.815,2.438a121.172,121.172,0,0,1,48.369,0,119.336,119.336,0,0,1,42.909,18.056,120.352,120.352,0,0,1,43.477,52.8,119.393,119.393,0,0,1,6.992,22.525,121.165,121.165,0,0,1,0,48.368,119.341,119.341,0,0,1-18.056,42.909,120.353,120.353,0,0,1-52.8,43.476,119.413,119.413,0,0,1-22.525,6.992A120.893,120.893,0,0,1,120,240Zm0-210a90,90,0,1,0,90,90A90.1,90.1,0,0,0,120,30Z" transform="translate(108 273)"/><g class="c" transform="matrix(1, 0, 0, 1, 108, 269)"><path class="b" d="M-786.011-4608.085h0c-.583-.479-1.205-.98-1.851-1.487l10.986-14.317c.839.656,1.668,1.323,2.466,1.982Zm-3.287-2.593h0c-.639-.48-1.283-.954-1.914-1.406l10.352-14.782c.848.605,1.706,1.236,2.549,1.874Zm-3.4-2.449h0c-.669-.458-1.333-.9-1.974-1.321l9.695-15.22c.605.395,1.183.778,1.719,1.14.3.2.613.417.91.622Zm-3.5-2.3h0c-.653-.409-1.336-.825-2.031-1.237l9.02-15.624c.947.558,1.857,1.111,2.706,1.645l-9.694,15.216Zm-3.6-2.146h0c-.706-.4-1.407-.785-2.081-1.145l8.329-16c.917.487,1.85,1,2.773,1.525Zm-3.687-1.985h0c-.729-.372-1.446-.726-2.131-1.054l7.623-16.346c.979.467,1.933.939,2.838,1.4l-8.327,16Zm-3.77-1.824h0c-.747-.339-1.478-.662-2.175-.958l6.9-16.661c.989.419,1.963.849,2.9,1.276Zm-3.845-1.655h0c-.716-.29-1.461-.581-2.215-.865l6.166-16.941c1.019.38,2.011.767,2.95,1.148l-6.9,16.657Zm-3.918-1.486h0c-.721-.255-1.479-.513-2.252-.767l5.421-17.19c1.024.332,2.032.674,3,1.018l-6.165,16.938Zm-3.978-1.312h0c-.78-.237-1.549-.461-2.284-.666l4.664-17.406c.989.273,2.012.571,3.04.885l-5.419,17.187Zm-4.032-1.136h0c-.817-.209-1.572-.394-2.309-.564l3.9-17.59c1.052.241,2.086.494,3.075.75l-4.663,17.4Zm-4.078-.957h0c-.755-.16-1.54-.316-2.333-.463l3.128-17.738c.826.151,1.594.3,2.286.443.277.057.548.113.818.171l-3.9,17.587Zm-4.116-.777h0c-.743-.124-1.534-.245-2.349-.36l2.35-17.854c1.075.149,2.127.31,3.128.477l-3.128,17.736Zm-4.147-.6h0c-.8-.1-1.6-.184-2.363-.257l1.57-17.935c1.026.1,2.083.21,3.145.34l-2.35,17.851Zm-4.168-.414h0c-.772-.06-1.57-.111-2.373-.154l.785-17.983c1.057.053,2.119.122,3.157.2l-1.568,17.934Zm-4.183-.231h0c-.8-.027-1.595-.044-2.376-.051v-18c1.017.008,2.081.031,3.163.069l-.785,17.984Z" transform="translate(967 4658)"/></g></g></svg>