<svg xmlns="http://www.w3.org/2000/svg" xmlns:xlink="http://www.w3.org/1999/xlink" width="246.003" height="244.845" viewBox="0 0 246.003 244.845"><defs><style>.a{fill:#2f3447;}.b{fill:url(#a);}.c{filter:url(#b);}</style><linearGradient id="a" x1="0.105" y1="1" x2="0.889" y2="1" gradientUnits="objectBoundingBox"><stop offset="0" stop-color="#2955bc"/><stop offset="1" stop-color="#346cef"/></linearGradient><filter id="b" x="108.909" y="0" width="137.094" height="244.845" filterUnits="userSpaceOnUse"><feOffset dy="2" input="SourceAlpha"/><feGaussianBlur stdDeviation="4" result="c"/><feFlood flood-color="#2e62d9" flood-opacity="0.749"/><feComposite operator="in" in2="c"/><feComposite in="SourceGraphic"/></filter></defs><g transform="translate(-108 -269.003)"><path class="a" d="M120,240a120.893,120.893,0,0,1-24.184-2.438,119.336,119.336,0,0,1-42.909-18.056A120.351,120.351,0,0,1,9.43,166.71a119.4,119.4,0,0,1-6.992-22.525,121.176,121.176,0,0,1,0-48.368A119.342,119.342,0,0,1,20.494,52.907,120.351,120.351,0,0,1,73.29,9.43,119.4,119.4,0,0,1,95.815,2.438a121.172,121.172,0,0,1,48.369,0,119.336,119.336,0,0,1,42.909,18.056,120.352,120.352,0,0,1,43.477,52.8,119.393,119.393,0,0,1,6.992,22.525,121.165,121.165,0,0,1,0,48.368,119.341,119.341,0,0,1-18.056,42.909,120.353,120.353,0,0,1-52.8,43.476,119.413,119.413,0,0,1-22.525,6.992A120.893,120.893,0,0,1,120,240Zm0-210a90,90,0,1,0,90,90A90.1,90.1,0,0,0,120,30Z" transform="translate(108 273)"/><g class="c" transform="matrix(1, 0, 0, 1, 108, 269)"><path class="b" d="M-807.145-4427.152l-6.168-16.945c.71-.267,1.455-.557,2.216-.865l6.9,16.663c-1,.4-1.988.789-2.949,1.146Zm4.622-1.841-6.9-16.665c.719-.307,1.451-.63,2.175-.961l7.624,16.349c-.955.438-1.929.867-2.895,1.276Zm4.537-2.043-7.624-16.35c.71-.342,1.427-.7,2.131-1.056l8.33,16c-.947.484-1.9.955-2.835,1.4Zm4.441-2.239-8.331-16c.694-.372,1.395-.757,2.083-1.148l9.023,15.627c-.948.538-1.881,1.05-2.773,1.524Zm4.342-2.432h0l-9.023-15.627c.651-.386,1.335-.8,2.031-1.238l9.7,15.222c-.91.57-1.82,1.123-2.7,1.644Zm4.231-2.615h0l-9.7-15.222c.627-.409,1.291-.853,1.974-1.323l10.353,14.786c-.364.251-.663.454-.9.616l-.008.005c-.525.355-1.1.738-1.717,1.137Zm4.111-2.8h0l-10.353-14.786c.62-.444,1.264-.917,1.914-1.407L-778.311-4443c-.876.661-1.734,1.291-2.549,1.872Zm3.986-2.975h0l-10.987-14.321c.629-.494,1.252-.994,1.851-1.489l11.6,13.829c-.818.677-1.647,1.343-2.464,1.981Zm3.852-3.146,0,0-11.6-13.828c.589-.5,1.189-1.031,1.786-1.567l12.2,13.309c-.761.688-1.561,1.39-2.377,2.086Zm3.714-3.309,0,0h0l-12.195-13.309c.573-.537,1.151-1.089,1.716-1.643l12.765,12.763c-.74.73-1.509,1.466-2.284,2.188Zm3.563-3.472h0l-12.765-12.765c.53-.539,1.083-1.116,1.644-1.717l13.31,12.2c-.743.8-1.479,1.564-2.188,2.284Zm3.409-3.619-13.309-12.2c.493-.546,1.021-1.146,1.568-1.785l13.829,11.6c-.742.867-1.444,1.666-2.087,2.376Zm3.253-3.765h0l-13.827-11.6c.491-.6.992-1.219,1.49-1.853l14.321,10.989c-.643.823-1.31,1.652-1.982,2.465Zm3.086-3.9h0l-14.32-10.987c.454-.6.928-1.247,1.408-1.916l14.786,10.353c-.635.889-1.265,1.747-1.873,2.549Zm2.914-4.03h0L-767.87-4479.7c.461-.67.906-1.333,1.323-1.974l15.223,9.7c-.387.6-.771,1.174-1.14,1.719-.182.271-.391.577-.621.909Zm2.733-4.157h0l-15.221-9.7c.409-.651.825-1.334,1.237-2.03l15.629,9.022c-.54.917-1.093,1.826-1.643,2.7Zm2.55-4.271h0l-15.626-9.022c.372-.655.758-1.355,1.148-2.083l16,8.332c-.5.94-1.013,1.873-1.524,2.772Zm2.362-4.379h0l-16-8.331c.357-.7.712-1.415,1.055-2.131l16.351,7.624c-.479,1-.951,1.955-1.4,2.837Zm2.17-4.476h0l-16.349-7.624c.31-.679.634-1.411.961-2.176l16.665,6.9c-.426,1-.855,1.976-1.276,2.9Zm1.97-4.57h0l-16.662-6.9c.289-.716.58-1.46.864-2.215l16.946,6.167c-.361.97-.747,1.961-1.147,2.949Zm1.764-4.652h0l-16.942-6.167c.264-.746.521-1.5.766-2.252l17.195,5.422c-.329,1.015-.671,2.022-1.017,3Zm1.563-4.722h0l-17.192-5.42c.226-.742.451-1.51.666-2.285l17.411,4.666c-.283,1.024-.581,2.046-.885,3.038Zm1.35-4.789h0l-17.407-4.665c.2-.765.387-1.542.565-2.311l17.594,3.9c-.24,1.045-.493,2.079-.75,3.073Zm1.141-4.842-17.593-3.9c.163-.768.319-1.552.464-2.334l17.744,3.128c-.14.763-.289,1.531-.443,2.286q-.084.409-.17.815h0Zm.927-4.888h0l-17.742-3.129c.134-.81.256-1.6.361-2.353l17.857,2.352c-.141,1.025-.3,2.078-.476,3.129Zm.71-4.924h0l-17.855-2.351c.1-.8.184-1.6.257-2.365l17.94,1.569c-.1,1.08-.218,2.137-.341,3.146Zm.5-4.95h0l-17.938-1.57c.058-.757.11-1.555.153-2.374l17.991.785c-.052,1.024-.121,2.086-.2,3.157Zm.283-4.967h0l-17.989-.785c.027-.778.044-1.577.051-2.377H-733c-.008,1.053-.031,2.116-.068,3.162Zm.068-4.974H-751c-.007-.75-.024-1.549-.051-2.376l17.991-.787c.037,1.053.06,2.117.068,3.162Zm-18.136-4.184h0c-.043-.8-.095-1.6-.154-2.374l17.939-1.57c.084,1.077.153,2.14.2,3.159l-17.988.786Zm-.31-4.177h0c-.074-.774-.16-1.569-.257-2.366l17.856-2.35c.125,1.019.24,2.077.341,3.146Zm-.492-4.161h0c-.106-.755-.227-1.546-.36-2.351l17.74-3.128c.176,1.054.336,2.106.477,3.128Zm-.674-4.134h0c-.14-.754-.3-1.539-.463-2.332l17.592-3.9c.054.251.11.52.172.822.154.756.3,1.524.442,2.284l-17.741,3.129Zm-.854-4.1h0c-.185-.8-.375-1.574-.566-2.311l17.409-4.665c.271,1.049.523,2.083.75,3.074l-17.592,3.9Zm-1.034-4.059h0c-.2-.73-.426-1.5-.666-2.285l17.191-5.42c.308,1.006.605,2.029.885,3.041l-17.409,4.665Zm-1.212-4.01h0c-.24-.736-.5-1.493-.767-2.252l16.942-6.167c.346.975.688,1.984,1.018,3l-17.192,5.42Zm-1.387-3.951h0c-.283-.754-.574-1.5-.864-2.215l16.661-6.9c.4.987.786,1.98,1.148,2.95l-16.944,6.166Zm-1.559-3.889h0c-.315-.739-.638-1.47-.961-2.175l16.347-7.623c.443.969.872,1.943,1.276,2.9l-16.662,6.9Zm-1.728-3.813h0c-.349-.727-.7-1.444-1.054-2.13l16-8.33c.484.946.956,1.9,1.4,2.837l-16.347,7.623Zm-1.894-3.737h0c-.38-.709-.765-1.41-1.147-2.083l15.624-9.021c.526.927,1.039,1.86,1.525,2.774l-16,8.33Zm-2.056-3.65c-.413-.7-.829-1.379-1.236-2.029l15.218-9.7c.545.867,1.1,1.777,1.643,2.7l-15.624,9.021Zm-2.211-3.555c-.464-.709-.9-1.354-1.324-1.974l14.784-10.351c.228.332.425.621.622.912.383.567.766,1.145,1.138,1.718l-15.218,9.695Zm-2.363-3.456h0c-.479-.668-.953-1.312-1.408-1.916L-756-4602.682c.621.82,1.251,1.679,1.875,2.551l-14.782,10.351Zm-2.511-3.348h0c-.5-.634-1-1.257-1.488-1.852l13.825-11.6c.669.81,1.335,1.639,1.982,2.466l-14.317,10.986Zm-2.655-3.24h0c-.524-.611-1.051-1.211-1.567-1.784l13.306-12.193c.717.795,1.419,1.595,2.087,2.378l-13.825,11.6Zm-2.79-3.117,0,0c-.547-.585-1.1-1.163-1.643-1.716l12.763-12.763c.756.768,1.491,1.536,2.188,2.285l-13.306,12.194Zm-2.925-3h0c-.547-.536-1.124-1.089-1.716-1.642l12.194-13.308c.768.716,1.536,1.453,2.286,2.19Zm-3.051-2.867h0c-.576-.519-1.176-1.046-1.785-1.568l11.6-13.824c.821.7,1.621,1.4,2.378,2.086l-12.192,13.305Zm-3.171-2.734h0c-.584-.48-1.206-.981-1.851-1.487l10.986-14.317c.838.656,1.668,1.323,2.466,1.982Zm-3.287-2.593h0c-.638-.479-1.282-.953-1.914-1.406l10.352-14.782c.849.606,1.706,1.236,2.549,1.874Zm-3.4-2.449h0c-.669-.458-1.333-.9-1.974-1.321l9.695-15.22c.628.41,1.206.793,1.719,1.14.287.193.582.4.91.622Zm-3.5-2.3h0c-.668-.418-1.351-.834-2.031-1.237l9.02-15.624c.948.559,1.858,1.112,2.706,1.645l-9.694,15.216Zm-3.6-2.146h0c-.708-.4-1.408-.786-2.081-1.145l8.328-16c.918.488,1.85,1,2.773,1.525Zm-3.687-1.985h0c-.729-.372-1.446-.726-2.131-1.054l7.623-16.346c.978.466,1.932.938,2.838,1.4l-8.327,16Zm-3.77-1.824h0c-.746-.339-1.477-.662-2.174-.958l6.9-16.661c1,.426,1.978.855,2.9,1.276Zm-3.845-1.655h0c-.716-.29-1.461-.581-2.215-.865l6.166-16.941c1.019.38,2.011.767,2.95,1.148l-6.9,16.657Zm-3.918-1.486h0c-.721-.255-1.478-.513-2.252-.767l5.421-17.19c1.024.332,2.032.675,3,1.018l-6.165,16.938Zm-3.978-1.312h0c-.78-.238-1.549-.462-2.284-.666l4.665-17.406c.974.268,2,.566,3.04.884l-5.42,17.187Zm-4.032-1.136h0c-.817-.21-1.572-.395-2.309-.564l3.9-17.59c1.053.242,2.087.494,3.075.75l-4.663,17.4Zm-4.078-.957h0c-.738-.157-1.523-.313-2.333-.463l3.128-17.738c.828.152,1.6.3,2.286.443.289.06.551.113.818.171l-3.9,17.587Zm-4.116-.777h0c-.744-.124-1.534-.245-2.349-.36l2.35-17.854c1.091.151,2.143.312,3.128.477l-3.128,17.736Zm-4.147-.6h0c-.785-.095-1.58-.181-2.363-.257l1.57-17.935c1.026.1,2.084.21,3.145.34l-2.35,17.851Zm-4.168-.414h0c-.771-.06-1.57-.111-2.373-.154l.785-17.983c1.058.053,2.12.122,3.157.2l-1.568,17.934Zm-4.183-.231h0c-.8-.027-1.6-.044-2.376-.051v-18c1.016.008,2.08.031,3.163.069l-.785,17.984Z" transform="translate(967 4658)"/></g></g></svg>