<svg xmlns="http://www.w3.org/2000/svg" xmlns:xlink="http://www.w3.org/1999/xlink" width="251.999" height="252" viewBox="0 0 251.999 252"><defs><style>.a{fill:#2f3447;}.b{fill:url(#a);}.c{filter:url(#b);}</style><linearGradient id="a" x1="0.105" y1="1" x2="0.889" y2="1" gradientUnits="objectBoundingBox"><stop offset="0" stop-color="#00893a"/><stop offset="1" stop-color="#00a886"/></linearGradient><filter id="b" x="0" y="0" width="251.999" height="252" filterUnits="userSpaceOnUse"><feOffset dy="2" input="SourceAlpha"/><feGaussianBlur stdDeviation="4" result="c"/><feFlood flood-color="#00a886" flood-opacity="0.749"/><feComposite operator="in" in2="c"/><feComposite in="SourceGraphic"/></filter></defs><g transform="translate(-102.001 -269)"><path class="a" d="M120,240a120.893,120.893,0,0,1-24.184-2.438,119.336,119.336,0,0,1-42.909-18.056A120.351,120.351,0,0,1,9.43,166.71a119.4,119.4,0,0,1-6.992-22.525,121.176,121.176,0,0,1,0-48.368A119.342,119.342,0,0,1,20.494,52.907,120.351,120.351,0,0,1,73.29,9.43,119.4,119.4,0,0,1,95.815,2.438a121.172,121.172,0,0,1,48.369,0,119.336,119.336,0,0,1,42.909,18.056,120.352,120.352,0,0,1,43.477,52.8,119.393,119.393,0,0,1,6.992,22.525,121.165,121.165,0,0,1,0,48.368,119.341,119.341,0,0,1-18.056,42.909,120.353,120.353,0,0,1-52.8,43.476,119.413,119.413,0,0,1-22.525,6.992A120.893,120.893,0,0,1,120,240Zm0-210a90,90,0,1,0,90,90A90.1,90.1,0,0,0,120,30Z" transform="translate(108 273)"/><g class="c" transform="matrix(1, 0, 0, 1, 102, 269)"><path class="b" d="M-846.089-4420h0V-4438c.777-.007,1.577-.023,2.378-.051l.785,17.99C-844.021-4420.026-845.085-4420-846.089-4420Zm-1.814,0h0c-.975-.006-2.038-.029-3.161-.067l.785-17.989c.8.027,1.594.044,2.377.05V-4420Zm-4.97-.146h0c-1.036-.053-2.1-.122-3.157-.2l1.57-17.939c.791.061,1.59.113,2.373.154l-.785,17.988Zm11.754,0h0l-.785-17.99c.719-.037,1.518-.088,2.373-.153l1.57,17.939C-839.045-4420.262-840.107-4420.194-841.118-4420.143Zm4.96-.36h0l-1.569-17.94c.782-.076,1.578-.162,2.365-.258l2.351,17.857C-834.019-4420.72-835.077-4420.6-836.158-4420.5Zm-21.676,0h0c-1.027-.1-2.085-.211-3.145-.34l2.351-17.855c.759.092,1.554.179,2.364.257l-1.569,17.938Zm26.616-.574h0l-2.35-17.858c.734-.1,1.525-.224,2.352-.36l3.128,17.741C-829.145-4421.378-830.2-4421.218-831.217-4421.077Zm-31.558,0h0c-1.018-.141-2.07-.3-3.127-.477l3.128-17.74c.769.127,1.56.249,2.351.36l-2.351,17.855Zm36.47-.789h0l-3.128-17.741c.789-.147,1.573-.3,2.333-.464l3.9,17.593-.025.006-.394.082-.4.083c-.786.16-1.555.309-2.285.442Zm-41.381,0h0c-.723-.132-1.47-.276-2.284-.442l-.6-.125-.014,0-.2-.042,3.9-17.592c.76.161,1.545.317,2.333.464l-3.128,17.74Zm46.254-1h0l-3.9-17.594c.782-.182,1.559-.372,2.311-.565l4.665,17.409c-1,.26-2.038.513-3.074.751Zm-51.128,0h0c-1.034-.237-2.069-.489-3.074-.75l4.665-17.407c.78.2,1.557.391,2.311.565l-3.9,17.592Zm55.953-1.218h0l-4.665-17.41c.752-.209,1.52-.433,2.282-.667l5.421,17.192c-1,.307-2.02.6-3.037.885Zm-60.776,0h0c-1.019-.281-2.041-.579-3.038-.885l5.421-17.191c.722.222,1.489.446,2.283.667l-4.664,17.407h0Zm65.541-1.428h0l-5.422-17.194c.723-.235,1.481-.493,2.253-.767l6.167,16.943c-.979.349-1.987.69-3,1.018Zm-70.307,0h0c-.982-.317-1.99-.659-3-1.017l6.167-16.941c.736.26,1.493.519,2.252.767l-5.421,17.19Zm75.005-1.635h0l-6.167-16.945c.709-.266,1.454-.557,2.216-.865l6.9,16.663c-.981.4-1.973.782-2.949,1.147Zm-79.7,0h0c-1.008-.377-2-.763-2.948-1.147l6.9-16.661c.745.3,1.49.592,2.214.864l-6.166,16.943Zm84.325-1.84h0l-6.9-16.664c.722-.309,1.454-.632,2.175-.96l7.623,16.348c-.988.453-1.962.881-2.9,1.276Zm-88.948,0h0c-.962-.408-1.936-.836-2.894-1.275l7.622-16.347c.719.329,1.45.652,2.175.96l-6.9,16.662Zm-4.534-2.042h0c-.992-.475-1.946-.946-2.836-1.4l8.329-16c.688.351,1.4.706,2.131,1.055l-7.623,16.346Zm98.019,0h0l-7.623-16.35c.734-.353,1.451-.707,2.13-1.055l8.33,16c-.933.478-1.887.949-2.836,1.4Zm4.44-2.24h0l-8.33-16c.687-.368,1.387-.753,2.082-1.147l9.022,15.627c-.941.535-1.874,1.047-2.773,1.524h0Zm-106.9,0h0c-.909-.483-1.843-1-2.774-1.525l9.021-15.624c.642.365,1.343.751,2.083,1.147l-8.329,16Zm111.245-2.431h0l-9.023-15.627c.657-.389,1.341-.805,2.032-1.237l9.7,15.221c-.915.573-1.824,1.125-2.7,1.644Zm-115.586,0h0c-.9-.529-1.81-1.082-2.7-1.643l9.7-15.218c.675.422,1.358.838,2.031,1.236l-9.021,15.625Zm119.816-2.616h0l-9.7-15.221c.67-.437,1.334-.882,1.975-1.324l10.353,14.786c-.376.259-.66.453-.911.622-.554.375-1.131.757-1.717,1.138Zm-124.044,0h0c-.575-.374-1.152-.756-1.715-1.137-.3-.2-.6-.408-.913-.623l10.351-14.783c.665.458,1.329.9,1.975,1.324l-9.7,15.217Zm-4.113-2.8h0c-.895-.638-1.753-1.269-2.551-1.873l10.986-14.316c.659.495,1.3.969,1.916,1.408Zm132.269,0h0l-10.353-14.787c.615-.439,1.259-.913,1.915-1.407l10.989,14.32c-.849.642-1.707,1.272-2.549,1.874Zm3.986-2.974,0,0-10.988-14.32c.589-.462,1.212-.962,1.852-1.489l11.6,13.828c-.818.675-1.647,1.341-2.464,1.98Zm-140.24,0h0c-.823-.642-1.652-1.309-2.465-1.98l11.6-13.824c.616.508,1.239,1.009,1.852,1.49Zm144.093-3.147h0l-11.6-13.828c.594-.509,1.195-1.036,1.785-1.568l12.2,13.311c-.763.688-1.562,1.39-2.377,2.085Zm-147.946,0h0c-.805-.687-1.6-1.389-2.377-2.085l12.193-13.307c.549.495,1.149,1.022,1.786,1.568l-11.6,13.823h0Zm-3.715-3.307v0h0c-.757-.7-1.525-1.44-2.284-2.186l12.762-12.762c.544.534,1.121,1.086,1.717,1.644l-12.193,13.305Zm155.373,0h0l-12.2-13.309c.554-.516,1.131-1.068,1.716-1.643l12.765,12.765c-.738.727-1.506,1.463-2.284,2.187Zm-158.935-3.468h0c-.761-.772-1.5-1.541-2.187-2.284l13.307-12.193c.523.56,1.076,1.138,1.644,1.716Zm162.5,0h0l-12.765-12.765c.529-.538,1.082-1.115,1.644-1.717l13.31,12.2c-.742.8-1.478,1.563-2.187,2.284Zm-165.911-3.619h0c-.711-.788-1.413-1.588-2.087-2.379l13.825-11.6c.528.616,1.055,1.217,1.569,1.787l-13.306,12.193Zm169.321,0h0l-13.308-12.2c.536-.6,1.063-1.2,1.567-1.786l13.829,11.6c-.713.834-1.416,1.634-2.087,2.377Zm3.253-3.766h0l-13.828-11.6c.493-.6.994-1.221,1.49-1.852l14.321,10.989c-.662.846-1.329,1.675-1.982,2.465Zm-175.826,0h0c-.682-.825-1.349-1.654-1.982-2.467l14.316-10.985c.459.586.96,1.209,1.49,1.852l-13.823,11.6Zm178.91-3.9h0l-14.32-10.988c.481-.638.954-1.282,1.408-1.915l14.786,10.353c-.633.888-1.264,1.745-1.873,2.549Zm-182,0h0c-.617-.815-1.247-1.672-1.873-2.55l14.783-10.351c.469.654.942,1.3,1.408,1.915l-14.317,10.985Zm-2.914-4.031h0c-.247-.357-.444-.646-.621-.91-.386-.573-.769-1.151-1.138-1.719l15.219-9.7c.449.687.894,1.352,1.324,1.975l-14.782,10.349Zm187.823,0h0l-14.784-10.352c.45-.655.9-1.319,1.323-1.975l15.223,9.7c-.378.581-.761,1.158-1.139,1.719-.183.271-.392.577-.621.909ZM-943.64-4473.5h0c-.559-.893-1.112-1.8-1.644-2.705l15.625-9.021c.389.659.805,1.343,1.237,2.032l-15.216,9.694Zm193.292,0,0,0-15.22-9.7c.428-.684.844-1.366,1.236-2.03l15.628,9.023c-.527.9-1.08,1.806-1.643,2.7Zm2.548-4.272h0l-15.625-9.022c.389-.686.775-1.385,1.147-2.082l16,8.332c-.5.934-1.01,1.866-1.524,2.772Zm-198.392,0h0c-.5-.877-1.011-1.81-1.523-2.771l16-8.329c.37.693.756,1.394,1.147,2.082l-15.622,9.02Zm200.757-4.376,0,0-16-8.331c.358-.7.714-1.418,1.055-2.131l16.351,7.625c-.465.974-.936,1.928-1.4,2.836Zm-203.118,0h0c-.49-.959-.962-1.913-1.4-2.834l16.345-7.622c.325.676.679,1.393,1.055,2.13l-16,8.328Zm205.287-4.476,0,0-16.349-7.624c.323-.707.647-1.438.962-2.176l16.664,6.9c-.4.954-.833,1.927-1.276,2.9Zm-207.455,0h0c-.431-.94-.86-1.915-1.277-2.9l16.66-6.9c.3.709.625,1.441.961,2.177l-16.343,7.621Zm-1.97-4.569h0c-.409-1.01-.794-2-1.148-2.951l16.941-6.165c.268.713.559,1.459.865,2.215l-16.657,6.9Zm211.392,0-16.663-6.9c.288-.712.579-1.457.865-2.216l16.946,6.167c-.364.978-.749,1.97-1.146,2.949Zm-213.159-4.649h0c-.354-1-.7-2.007-1.016-3l17.189-5.42c.249.761.507,1.519.768,2.254l-16.938,6.165Zm214.927,0h0l-16.942-6.167c.266-.753.523-1.51.765-2.252l17.194,5.422c-.325,1-.667,2.012-1.017,3Zm1.56-4.723h0l-17.192-5.421c.235-.769.46-1.537.667-2.283l17.411,4.665c-.284,1.026-.582,2.048-.885,3.039Zm-218.046,0h0c-.3-.989-.6-2.011-.885-3.039l17.4-4.664c.2.731.427,1.5.667,2.285l-17.186,5.418Zm-1.354-4.787h0c-.263-1.017-.515-2.051-.75-3.074l17.589-3.9c.169.731.359,1.508.566,2.31l-17.4,4.664h0Zm220.752,0h0l-17.408-4.665c.194-.751.385-1.528.566-2.31l17.594,3.9c-.239,1.042-.491,2.076-.75,3.073Zm1.141-4.842h0l-17.592-3.9c.165-.779.321-1.564.464-2.334l17.744,3.129c-.138.75-.287,1.518-.443,2.286-.054.265-.11.532-.172.818Zm-223.032,0h0l-.072-.343q-.049-.237-.1-.476c-.16-.785-.309-1.554-.443-2.286l17.738-3.128c.135.732.291,1.517.464,2.333l-17.587,3.9Zm223.96-4.885h0l-17.74-3.128c.129-.781.25-1.572.36-2.352l17.859,2.351c-.143,1.037-.3,2.089-.477,3.128Zm-224.885,0h0c-.173-1.036-.333-2.088-.477-3.129l17.852-2.35c.1.748.226,1.539.361,2.353l-17.736,3.127Zm225.593-4.923h0l-17.856-2.351c.1-.794.184-1.59.258-2.366l17.94,1.57c-.1,1.078-.217,2.136-.341,3.146Zm-226.3,0h0c-.128-1.048-.242-2.106-.341-3.146l17.935-1.569c.074.766.16,1.562.257,2.365Zm226.8-4.949h0l-17.938-1.57c.058-.758.11-1.556.153-2.373l17.99.785c-.054,1.067-.123,2.129-.2,3.157Zm-227.3,0h0c-.083-1.063-.152-2.125-.2-3.158l17.984-.785c.041.785.093,1.583.154,2.374Zm-.283-4.966h0c-.037-1.082-.06-2.146-.068-3.165h18c.007.789.024,1.589.05,2.379Zm227.863,0h0l-17.989-.785c.027-.777.044-1.577.052-2.378H-733c-.008,1.05-.031,2.114-.068,3.162Zm.068-4.974H-751c-.007-.75-.024-1.55-.052-2.377l17.99-.786c.037,1.053.06,2.117.068,3.162Zm-210,0h-18c.008-1.059.031-2.123.068-3.163l17.984.785c-.026.776-.043,1.575-.051,2.377Zm191.863-4.185h0c-.043-.8-.095-1.6-.154-2.375l17.939-1.569c.084,1.078.153,2.141.2,3.16l-17.988.785Zm-191.734,0h0l-17.983-.786c.052-1.022.121-2.083.2-3.156l17.934,1.569c-.061.788-.113,1.584-.154,2.371Zm191.424-4.175h0c-.075-.772-.161-1.567-.257-2.365l17.856-2.351c.125,1.015.239,2.073.341,3.147Zm-191.113,0h0l-17.934-1.568c.1-1.075.217-2.134.341-3.147l17.851,2.35c-.094.764-.18,1.559-.257,2.364Zm190.621-4.159h0c-.109-.773-.23-1.563-.361-2.351l17.741-3.129c.175,1.052.335,2.1.477,3.129Zm-190.129,0h0l-17.851-2.35c.143-1.038.3-2.09.477-3.13l17.735,3.128c-.128.768-.249,1.559-.36,2.351Zm189.455-4.134h0c-.146-.786-.3-1.571-.463-2.333l17.592-3.9c.06.279.117.556.172.821.151.737.3,1.505.442,2.283l-17.741,3.129Zm-.854-4.1h0c-.175-.754-.365-1.531-.566-2.31l17.408-4.665c.27,1.046.522,2.08.75,3.074l-17.592,3.9Zm-1.034-4.058h0c-.206-.741-.431-1.51-.667-2.285l17.191-5.42c.305,1,.6,2.02.886,3.041l-17.408,4.665Zm-1.213-4.009h0c-.241-.739-.5-1.5-.766-2.252l16.942-6.166c.363,1.023.705,2.032,1.018,3l-17.192,5.422Zm-1.387-3.953h0c-.273-.728-.564-1.473-.865-2.215l16.662-6.9c.4.98.783,1.973,1.147,2.951l-16.943,6.167Zm-1.559-3.887h0c-.3-.694-.619-1.425-.961-2.175l16.346-7.624c.441.962.87,1.937,1.277,2.9l-16.662,6.9Zm-1.729-3.815c-.35-.728-.705-1.445-1.055-2.131l16-8.329c.49.959.962,1.914,1.4,2.838l-16.347,7.622Zm-1.894-3.736c-.384-.718-.77-1.418-1.147-2.082l15.625-9.021c.518.914,1.031,1.847,1.525,2.774l-16,8.329Zm-2.054-3.648h0c-.389-.658-.805-1.34-1.236-2.03l15.219-9.7c.563.9,1.115,1.807,1.644,2.7l-15.625,9.021Zm-2.211-3.556h0c-.454-.7-.887-1.342-1.324-1.975l14.783-10.351c.246.355.442.645.623.911.386.571.769,1.149,1.138,1.718l-15.219,9.7Zm-2.364-3.457h0c-.441-.617-.915-1.261-1.409-1.916L-756-4602.682c.645.853,1.275,1.711,1.874,2.552l-14.781,10.351Zm-2.513-3.351c-.482-.614-.982-1.237-1.489-1.851l13.825-11.6c.655.791,1.321,1.62,1.983,2.465l-14.318,10.986Zm-2.653-3.237h0c-.515-.6-1.042-1.2-1.567-1.786l13.306-12.193c.711.789,1.413,1.588,2.087,2.378l-13.825,11.6Zm-2.792-3.121h0c-.542-.579-1.094-1.156-1.643-1.715l12.762-12.762c.752.763,1.487,1.532,2.189,2.285l-13.307,12.192Zm-2.923-3h0c-.558-.546-1.135-1.1-1.716-1.643l12.193-13.306c.789.735,1.558,1.471,2.287,2.189Zm-3.051-2.868h0c-.6-.535-1.2-1.062-1.785-1.566l11.6-13.825c.808.689,1.607,1.392,2.378,2.087Zm-3.171-2.733h0c-.59-.486-1.213-.987-1.852-1.487l10.986-14.317c.819.639,1.648,1.306,2.467,1.983Zm-3.287-2.593h0c-.624-.469-1.268-.942-1.914-1.406l10.351-14.783c.886.632,1.743,1.263,2.55,1.874Zm-3.4-2.449h0c-.669-.459-1.333-.9-1.973-1.321l9.7-15.22c.613.4,1.191.783,1.719,1.139.247.167.536.364.91.622Zm-3.5-2.3h0c-.667-.417-1.35-.833-2.03-1.236l9.02-15.625c.92.542,1.83,1.1,2.706,1.646l-9.694,15.216Zm-3.6-2.146h0c-.679-.385-1.379-.771-2.082-1.147l8.329-16c.943.5,1.876,1.015,2.774,1.525l-9.02,15.622Zm-3.687-1.986h0c-.717-.364-1.434-.719-2.131-1.054l7.622-16.346c1.009.483,1.964.956,2.838,1.4Zm-3.771-1.822h0c-.742-.338-1.474-.662-2.174-.961l6.9-16.661c.961.407,1.935.836,2.9,1.277l-7.621,16.344Zm-3.846-1.657h0c-.751-.3-1.5-.593-2.215-.863l6.166-16.941c.975.364,1.967.75,2.951,1.147Zm-3.917-1.485h0c-.7-.25-1.461-.508-2.252-.767l5.42-17.189c1.009.326,2.017.669,3,1.018l-6.165,16.938Zm-3.979-1.312h0c-.688-.211-1.456-.436-2.283-.667l4.665-17.4c1.007.278,2.029.576,3.039.885l-5.418,17.186h0Zm-4.03-1.136h0c-.748-.193-1.5-.379-2.31-.566l3.9-17.589c1.022.234,2.056.487,3.076.751l-4.664,17.4Zm-4.081-.957c-.807-.17-1.592-.326-2.332-.463l3.127-17.739c.74.135,1.509.284,2.287.442l.064.013.047.01c.232.048.472.1.708.148l-3.9,17.587h0Zm-4.116-.777h0c-.8-.132-1.591-.253-2.349-.36l2.351-17.854c1.09.151,2.142.312,3.127.477l-3.128,17.735Zm-4.146-.6h0c-.794-.1-1.59-.183-2.364-.257l1.569-17.934c1.039.1,2.1.212,3.146.34l-2.35,17.85Zm-4.168-.414h0c-.781-.061-1.58-.112-2.373-.153l.785-17.984c1.058.053,2.12.122,3.157.2l-1.568,17.934Zm-4.183-.231c-.794-.027-1.594-.044-2.377-.051v-18c1.071.008,2.134.031,3.162.069l-.785,17.983Z" transform="translate(973 4658)"/></g></g></svg>