<svg xmlns="http://www.w3.org/2000/svg" xmlns:xlink="http://www.w3.org/1999/xlink" width="246.003" height="252.001" viewBox="0 0 246.003 252.001"><defs><style>.a{fill:#2f3447;}.b{fill:url(#a);}.c{filter:url(#b);}</style><linearGradient id="a" x1="0.105" y1="1" x2="0.889" y2="1" gradientUnits="objectBoundingBox"><stop offset="0" stop-color="#2955bc"/><stop offset="1" stop-color="#346cef"/></linearGradient><filter id="b" x="69.853" y="0" width="176.151" height="252.001" filterUnits="userSpaceOnUse"><feOffset dy="2" input="SourceAlpha"/><feGaussianBlur stdDeviation="4" result="c"/><feFlood flood-color="#2e62d9" flood-opacity="0.749"/><feComposite operator="in" in2="c"/><feComposite in="SourceGraphic"/></filter></defs><g transform="translate(-108 -269.003)"><path class="a" d="M120,240a120.893,120.893,0,0,1-24.184-2.438,119.336,119.336,0,0,1-42.909-18.056A120.351,120.351,0,0,1,9.43,166.71a119.4,119.4,0,0,1-6.992-22.525,121.176,121.176,0,0,1,0-48.368A119.342,119.342,0,0,1,20.494,52.907,120.351,120.351,0,0,1,73.29,9.43,119.4,119.4,0,0,1,95.815,2.438a121.172,121.172,0,0,1,48.369,0,119.336,119.336,0,0,1,42.909,18.056,120.352,120.352,0,0,1,43.477,52.8,119.393,119.393,0,0,1,6.992,22.525,121.165,121.165,0,0,1,0,48.368,119.341,119.341,0,0,1-18.056,42.909,120.353,120.353,0,0,1-52.8,43.476,119.413,119.413,0,0,1-22.525,6.992A120.893,120.893,0,0,1,120,240Zm0-210a90,90,0,1,0,90,90A90.1,90.1,0,0,0,120,30Z" transform="translate(108 273)"/><g class="c" transform="matrix(1, 0, 0, 1, 108, 269)"><path class="b" d="M-846.089-4420h0V-4438c.819-.009,1.619-.026,2.378-.051l.785,17.989C-844-4420.026-845.067-4420-846.089-4420Zm-1.813,0h0c-1.045-.008-2.109-.031-3.161-.069l.785-17.989c.769.025,1.568.042,2.377.051V-4420Zm6.785-.146h0l-.785-17.991c.8-.042,1.595-.094,2.374-.154l1.57,17.94C-839-4420.265-840.061-4420.2-841.118-4420.142Zm-11.755,0h0c-1.051-.054-2.113-.123-3.156-.2l1.57-17.939c.75.058,1.548.109,2.373.153l-.785,17.99Zm16.716-.361h0l-1.57-17.94c.765-.072,1.561-.158,2.366-.257l2.35,17.857C-834.092-4420.711-835.149-4420.6-836.157-4420.5Zm-21.677,0h0c-1.068-.1-2.126-.215-3.144-.34l2.35-17.856c.742.09,1.538.177,2.364.257l-1.57,17.938Zm-4.94-.574h0c-1.047-.146-2.1-.306-3.128-.477l3.128-17.74c.778.128,1.569.25,2.352.36l-2.35,17.856Zm31.558,0h0l-2.35-17.858c.734-.1,1.526-.224,2.353-.36l3.128,17.741C-829.137-4421.379-830.189-4421.219-831.217-4421.077Zm4.912-.789h0l-3.128-17.743c.792-.148,1.577-.3,2.333-.464l3.9,17.593-.026.006-.312.065-.481.1c-.721.148-1.49.3-2.285.443Zm-41.382,0h0c-.755-.138-1.523-.287-2.284-.442-.3-.062-.569-.118-.82-.172l3.9-17.591c.756.16,1.541.315,2.334.463l-3.129,17.741Zm46.255-1h0l-3.9-17.593c.774-.18,1.552-.37,2.312-.566l4.664,17.409c-1.042.27-2.077.521-3.075.75Zm-51.127,0h0c-1.025-.234-2.06-.487-3.075-.75l4.664-17.407c.745.192,1.522.382,2.312.565l-3.9,17.591Zm55.952-1.218h0l-4.664-17.409c.734-.2,1.5-.429,2.283-.668l5.421,17.193c-1.02.312-2.042.609-3.037.884Zm-60.773,0h0c-.99-.272-2.012-.57-3.039-.885l5.421-17.19c.759.231,1.527.456,2.284.666l-4.664,17.407Zm-4.766-1.428h0c-.982-.318-1.99-.661-3-1.017l6.166-16.942c.752.266,1.51.524,2.252.767l-5.421,17.191Zm70.3,0h0l-5.421-17.194c.727-.237,1.484-.495,2.252-.767l6.166,16.943c-.985.35-1.993.692-3,1.017Zm4.7-1.636-6.168-16.945c.713-.268,1.458-.558,2.216-.865l6.9,16.663c-1,.4-1.987.788-2.949,1.146Zm4.622-1.841-6.9-16.665c.719-.308,1.451-.63,2.175-.961l7.624,16.349c-.955.438-1.929.867-2.9,1.276Zm4.537-2.043-7.624-16.35c.725-.349,1.442-.7,2.131-1.056l8.33,16c-.93.476-1.884.947-2.835,1.4Zm4.441-2.239-8.331-16c.7-.372,1.4-.758,2.083-1.148l9.023,15.627c-.947.538-1.88,1.05-2.773,1.524Zm4.342-2.432h0l-9.023-15.627c.635-.376,1.318-.792,2.031-1.238l9.7,15.222c-.911.571-1.821,1.124-2.7,1.644Zm4.231-2.615v0h0l-9.7-15.222c.627-.408,1.291-.853,1.974-1.323l10.353,14.786c-.371.256-.67.459-.91.622-.523.354-1.1.736-1.717,1.137Zm4.111-2.8h0l-10.353-14.786c.632-.453,1.276-.926,1.914-1.407L-778.311-4443c-.877.661-1.734,1.291-2.549,1.872Zm3.985-2.975h0l-10.987-14.321c.617-.484,1.24-.984,1.851-1.489l11.6,13.829c-.816.675-1.645,1.341-2.464,1.981Zm3.853-3.146,0,0-11.6-13.828c.589-.5,1.19-1.031,1.786-1.567l12.2,13.309c-.772.7-1.572,1.4-2.377,2.086Zm3.714-3.309,0,0h0l-12.195-13.309c.591-.553,1.168-1.105,1.716-1.643l12.765,12.764c-.739.729-1.507,1.464-2.284,2.188Zm3.563-3.472h0l-12.765-12.765c.529-.539,1.083-1.116,1.644-1.717l13.31,12.2c-.743.8-1.479,1.565-2.188,2.284Zm3.409-3.619-13.309-12.2c.494-.547,1.021-1.147,1.568-1.785l13.829,11.6c-.734.857-1.436,1.657-2.087,2.376Zm3.253-3.765h0l-13.828-11.6c.483-.586.984-1.209,1.49-1.853l14.321,10.989c-.636.815-1.3,1.644-1.982,2.465Zm3.086-3.9h0l-14.32-10.987c.454-.6.928-1.247,1.408-1.916l14.786,10.353c-.635.89-1.266,1.747-1.873,2.549Zm2.914-4.031h0L-767.87-4479.7c.454-.661.9-1.324,1.323-1.974l15.223,9.7c-.38.586-.764,1.164-1.14,1.719-.2.294-.407.6-.621.909Zm2.733-4.157h0l-15.221-9.7c.408-.651.824-1.333,1.237-2.03l15.629,9.022c-.547.928-1.1,1.836-1.643,2.7Zm2.55-4.271h0l-15.626-9.022c.374-.658.76-1.358,1.148-2.083l16,8.332c-.5.938-1.012,1.87-1.524,2.772Zm2.362-4.379h0l-16-8.331c.356-.7.711-1.414,1.055-2.131l16.351,7.624c-.478,1-.95,1.955-1.4,2.837Zm2.17-4.476h0l-16.349-7.624c.314-.687.638-1.419.961-2.176l16.665,6.9c-.425,1-.854,1.974-1.276,2.9Zm1.97-4.57h0l-16.662-6.9c.287-.711.578-1.456.864-2.215l16.946,6.167c-.358.964-.744,1.955-1.147,2.949Zm1.764-4.652h0l-16.942-6.167c.265-.75.523-1.507.766-2.252l17.195,5.422c-.329,1.017-.671,2.024-1.017,3Zm1.563-4.722h0l-17.192-5.42c.228-.748.453-1.516.666-2.285l17.411,4.666c-.284,1.031-.582,2.052-.885,3.038Zm1.35-4.789h0l-17.407-4.665c.2-.766.387-1.543.565-2.311l17.594,3.9c-.241,1.049-.493,2.083-.75,3.073Zm1.141-4.842-17.593-3.9c.163-.772.32-1.557.464-2.334l17.744,3.128c-.139.761-.289,1.53-.443,2.286q-.084.408-.17.814h0Zm.927-4.888h0l-17.742-3.129c.134-.809.256-1.6.361-2.353l17.857,2.352c-.141,1.027-.3,2.08-.476,3.129Zm.71-4.924h0l-17.855-2.351c.1-.808.184-1.6.257-2.365l17.94,1.569c-.1,1.08-.218,2.137-.341,3.146Zm.5-4.95h0l-17.938-1.57c.058-.758.11-1.556.153-2.374l17.991.785c-.052,1.025-.121,2.087-.2,3.157Zm.283-4.967h0l-17.989-.785c.027-.776.044-1.575.051-2.377H-733c-.008,1.051-.031,2.114-.068,3.162Zm.068-4.974H-751c-.007-.75-.024-1.55-.051-2.376l17.991-.787c.037,1.054.06,2.118.068,3.162Zm-18.136-4.184h0c-.043-.8-.095-1.6-.154-2.374l17.939-1.57c.084,1.075.153,2.138.2,3.159l-17.988.786Zm-.31-4.177h0c-.074-.772-.16-1.568-.257-2.366l17.856-2.35c.125,1.018.24,2.076.341,3.146Zm-.492-4.161h0c-.106-.753-.227-1.544-.36-2.351l17.741-3.128c.175,1.051.335,2.1.477,3.128Zm-.674-4.134h0c-.138-.749-.294-1.533-.463-2.332l17.592-3.9c.053.249.109.518.172.822.154.755.3,1.523.442,2.284l-17.741,3.129Zm-.854-4.1h0c-.186-.8-.376-1.58-.566-2.31l17.409-4.665c.271,1.049.523,2.083.75,3.074l-17.592,3.9Zm-1.034-4.059h0c-.2-.732-.427-1.5-.666-2.285l17.191-5.42c.308,1.007.606,2.03.885,3.041l-17.409,4.665Zm-1.212-4.01h0c-.24-.737-.5-1.495-.767-2.252l16.942-6.167c.347.977.689,1.986,1.018,3l-17.192,5.42Zm-1.387-3.951h0c-.285-.758-.576-1.5-.864-2.215l16.661-6.9c.4.992.788,1.984,1.148,2.95l-16.943,6.166Zm-1.559-3.889h0c-.318-.745-.641-1.476-.961-2.175l16.347-7.623c.443.969.872,1.943,1.276,2.9l-16.662,6.9Zm-1.728-3.813h0c-.351-.732-.706-1.449-1.054-2.13l16-8.33c.484.946.956,1.9,1.4,2.837l-16.347,7.623Zm-1.894-3.737h0c-.375-.7-.761-1.4-1.147-2.083l15.624-9.021c.523.921,1.035,1.854,1.525,2.774l-16,8.33Zm-2.056-3.65c-.414-.7-.83-1.38-1.236-2.029l15.218-9.7c.545.867,1.1,1.777,1.643,2.7l-15.624,9.021Zm-2.211-3.555c-.456-.7-.889-1.344-1.324-1.974l14.783-10.351c.228.332.426.622.622.912.382.566.765,1.145,1.138,1.718l-15.218,9.695Zm-2.363-3.456h0c-.479-.668-.953-1.312-1.408-1.916L-756-4602.682c.621.82,1.251,1.679,1.875,2.551l-14.782,10.351Zm-2.511-3.348h0c-.5-.637-1-1.26-1.488-1.852l13.825-11.6c.669.81,1.335,1.64,1.982,2.466l-14.317,10.986Zm-2.655-3.24h0c-.524-.611-1.051-1.211-1.567-1.784l13.306-12.193c.717.795,1.419,1.595,2.087,2.378l-13.825,11.6Zm-2.792-3.12c-.548-.586-1.1-1.163-1.643-1.716l12.763-12.763c.754.766,1.49,1.535,2.188,2.285l-13.306,12.194Zm-2.923-3h0c-.548-.538-1.125-1.091-1.716-1.642l12.194-13.308c.766.714,1.535,1.451,2.286,2.189Zm-3.051-2.867h0c-.564-.509-1.165-1.036-1.784-1.568l11.6-13.824c.832.709,1.631,1.412,2.378,2.086l-12.192,13.305Zm-3.171-2.734h0c-.572-.471-1.2-.972-1.851-1.487l10.986-14.317c.837.654,1.666,1.321,2.466,1.982Zm-3.287-2.593h0c-.638-.48-1.282-.953-1.914-1.406l10.352-14.782c.848.6,1.7,1.235,2.549,1.874Zm-3.4-2.449h0c-.668-.458-1.332-.9-1.974-1.321l9.695-15.22c.605.395,1.183.778,1.719,1.14.308.207.631.429.91.622Zm-3.5-2.3h0c-.653-.409-1.336-.825-2.031-1.237l9.02-15.624c.948.559,1.858,1.113,2.706,1.645l-9.694,15.216Zm-3.6-2.146h0c-.707-.4-1.407-.785-2.081-1.145l8.329-16c.918.488,1.851,1,2.773,1.525Zm-3.687-1.985h0c-.713-.364-1.43-.718-2.131-1.054l7.623-16.346c.979.467,1.933.939,2.838,1.4l-8.327,16Zm-3.771-1.823h0c-.749-.342-1.481-.665-2.175-.959l6.9-16.661c.99.419,1.964.849,2.9,1.276l-7.621,16.344Zm-3.844-1.656h0c-.715-.29-1.46-.581-2.215-.865l6.166-16.941c1.017.379,2.009.766,2.95,1.148l-6.9,16.657Zm-3.918-1.486h0c-.722-.255-1.479-.514-2.252-.767l5.421-17.19c1.024.332,2.032.674,3,1.018l-6.165,16.938Zm-3.978-1.312h0c-.762-.232-1.531-.457-2.284-.666l4.664-17.406c.972.268,1.995.566,3.04.885l-5.419,17.187Zm-4.032-1.136h0c-.815-.209-1.57-.394-2.309-.564l3.9-17.59c1.052.241,2.086.494,3.075.75l-4.663,17.4Zm-4.078-.957h0c-.738-.157-1.523-.313-2.333-.463l3.128-17.738c.827.151,1.6.3,2.286.443.246.05.536.11.818.171l-3.9,17.587Zm-4.116-.777h0c-.743-.124-1.533-.245-2.349-.36l2.35-17.854c1.075.149,2.127.31,3.128.477l-3.128,17.736Zm-4.147-.6h0c-.8-.1-1.6-.184-2.363-.257l1.57-17.935c1.026.1,2.083.21,3.145.34l-2.35,17.851Zm-4.168-.414h0c-.771-.06-1.569-.111-2.373-.154l.785-17.983c1.057.053,2.118.122,3.157.2l-1.568,17.934Zm-4.183-.231h0c-.8-.027-1.595-.044-2.376-.051v-18c1.017.008,2.081.031,3.163.069l-.785,17.984Z" transform="translate(967 4658)"/></g></g></svg>