<svg xmlns="http://www.w3.org/2000/svg" width="228" height="228.001" viewBox="0 0 228 228.001"><defs><style>.a{fill:#fff;}</style></defs><path class="a" d="M114.907,228h0V209.994c.777-.007,1.576-.024,2.378-.051l.786,17.99C117.006,227.97,115.943,227.993,114.907,228Zm-1.813,0h0c-1.048-.008-2.111-.031-3.162-.068l.785-17.99c.775.026,1.574.044,2.377.051V228Zm6.783-.146h0l-.785-17.989c.776-.041,1.574-.092,2.373-.154l1.57,17.94c-1.059.083-2.121.152-3.156.2Zm-11.754,0h0c-1.05-.054-2.112-.122-3.156-.2l1.569-17.939c.776.06,1.574.112,2.373.154l-.785,17.989Zm16.714-.36h0l-1.569-17.939c.774-.075,1.57-.161,2.365-.257l2.351,17.857c-1.056.129-2.114.243-3.145.34Zm-21.675,0h0c-1.045-.1-2.1-.213-3.144-.34l2.351-17.856c.77.093,1.565.18,2.364.257l-1.569,17.939Zm26.616-.574h0l-2.351-17.857c.768-.108,1.559-.229,2.352-.361l3.128,17.742c-1.047.174-2.1.335-3.129.477Zm-31.557,0h0c-1.042-.144-2.094-.3-3.127-.477L98.221,208.7c.764.127,1.554.248,2.351.36l-2.351,17.856Zm36.47-.789h0l-3.128-17.742c.764-.142,1.548-.3,2.333-.463l3.9,17.593-.025.006-.794.164c-.755.154-1.523.3-2.285.443Zm-41.381,0h0c-.761-.139-1.53-.288-2.284-.443q-.41-.084-.82-.171l3.9-17.591c.761.161,1.546.317,2.334.463L93.31,226.13Zm46.254-1h0l-3.9-17.593c.754-.175,1.532-.365,2.311-.566l4.665,17.409c-1.029.267-2.064.519-3.074.75Zm-51.127,0h0c-1.023-.234-2.057-.487-3.074-.75l4.664-17.407c.752.194,1.529.384,2.311.565l-3.9,17.591Zm55.951-1.218h0l-4.665-17.41c.747-.208,1.515-.432,2.283-.667l5.421,17.193c-1.017.311-2.038.608-3.038.884Zm-60.774,0h0c-1.013-.28-2.035-.577-3.038-.884l5.42-17.191c.743.227,1.511.452,2.284.667l-4.664,17.408Zm65.54-1.428h0l-5.421-17.193c.742-.242,1.5-.5,2.252-.767l6.167,16.944c-1,.355-2.01.7-3,1.017Zm-70.306,0h0c-1-.323-2.007-.665-3-1.017l6.166-16.942c.733.26,1.491.518,2.252.766l-5.42,17.191Zm75-1.636h0L147.684,203.9c.728-.274,1.473-.564,2.215-.865l6.9,16.663c-.985.4-1.977.785-2.949,1.147Zm-79.7,0h0c-.984-.367-1.976-.753-2.948-1.147l6.9-16.661c.722.292,1.467.583,2.215.864l-6.167,16.943ZM158.473,219h0l-6.9-16.664c.713-.3,1.445-.628,2.175-.961l7.624,16.349c-.966.442-1.94.871-2.9,1.276Zm-88.948,0h0c-.966-.41-1.94-.839-2.894-1.276l7.623-16.347c.707.323,1.438.646,2.175.96L69.526,219Zm93.485-2.042h0l-7.624-16.349c.7-.336,1.417-.691,2.131-1.055l8.33,16c-.947.484-1.9.956-2.836,1.4Zm-98.02,0h0c-.947-.452-1.9-.923-2.836-1.4l8.329-16c.69.352,1.406.707,2.131,1.055L64.99,216.959Zm102.462-2.239h0l-8.331-16c.684-.366,1.385-.751,2.083-1.147l9.022,15.627c-.925.525-1.858,1.038-2.773,1.524Zm-106.9,0h0c-.927-.493-1.86-1.006-2.773-1.524l9.021-15.624c.674.382,1.375.769,2.083,1.147l-8.33,16Zm111.245-2.43h0l-9.022-15.628c.668-.4,1.351-.812,2.031-1.237l9.7,15.221c-.9.565-1.81,1.117-2.7,1.644Zm-115.585,0h0c-.9-.532-1.813-1.085-2.7-1.643l9.7-15.218c.659.412,1.341.829,2.03,1.236l-9.021,15.624Zm119.816-2.617h0l-9.7-15.222c.649-.424,1.313-.868,1.974-1.323l10.353,14.786c-.357.246-.646.443-.911.622-.567.383-1.145.766-1.717,1.137Zm-124.047,0h0c-.574-.373-1.151-.755-1.716-1.136-.3-.2-.6-.409-.912-.623L59.7,193.129c.637.438,1.3.884,1.974,1.323l-9.7,15.219Zm-4.11-2.8h0c-.854-.61-1.712-1.24-2.55-1.874L56.3,190.68c.621.468,1.265.942,1.916,1.408L47.866,206.871Zm132.269,0h0l-10.353-14.785c.629-.45,1.273-.924,1.915-1.408L182.684,205c-.846.64-1.7,1.27-2.549,1.873ZM43.88,203.895h0c-.827-.646-1.657-1.313-2.465-1.981l11.6-13.825c.6.5,1.223,1,1.852,1.489L43.881,203.894Zm140.24,0h0l-10.988-14.32c.611-.479,1.234-.98,1.852-1.489l11.6,13.828c-.821.678-1.65,1.345-2.465,1.981Zm3.853-3.147h0l-11.6-13.827c.591-.506,1.192-1.033,1.786-1.568l12.2,13.309c-.788.711-1.588,1.412-2.377,2.086Zm-147.946,0h0c-.8-.682-1.6-1.384-2.377-2.086l12.193-13.307c.577.52,1.178,1.047,1.785,1.568l-11.6,13.825Zm151.658-3.31h0l-12.2-13.309c.568-.531,1.146-1.084,1.716-1.643l12.766,12.765c-.757.745-1.525,1.48-2.285,2.187Zm-155.371,0h0c-.767-.714-1.536-1.45-2.284-2.187l12.763-12.763c.554.544,1.131,1.1,1.716,1.643L36.315,197.437ZM32.75,193.97h0c-.736-.748-1.473-1.517-2.188-2.285l13.307-12.193c.531.568,1.083,1.146,1.644,1.717L32.75,193.97Zm162.5,0h0L182.485,181.2c.544-.554,1.1-1.131,1.644-1.716l13.31,12.2c-.724.778-1.46,1.546-2.187,2.285ZM29.339,190.351h0c-.7-.779-1.4-1.579-2.087-2.379l13.825-11.6c.506.59,1.033,1.192,1.569,1.787L29.34,190.35Zm169.322,0h0l-13.309-12.2c.518-.576,1.046-1.176,1.568-1.786l13.828,11.6c-.691.81-1.393,1.609-2.086,2.378Zm3.251-3.765h0l-13.827-11.6c.492-.6.993-1.219,1.49-1.852L203.9,184.119c-.653.836-1.32,1.665-1.982,2.465Zm-175.826,0h0c-.669-.81-1.336-1.639-1.982-2.466l14.317-10.986c.477.609.978,1.232,1.49,1.852l-13.824,11.6ZM205,182.684h0L190.678,171.7c.468-.62.941-1.264,1.408-1.915l14.786,10.353c-.618.866-1.248,1.723-1.873,2.55Zm-182,0h0c-.633-.837-1.263-1.694-1.873-2.549l14.782-10.35c.452.63.925,1.275,1.408,1.915L23,182.683Zm-2.913-4.031h0c-.212-.308-.422-.614-.622-.911-.382-.566-.765-1.144-1.138-1.719l15.218-9.7c.423.648.868,1.313,1.324,1.975L20.09,178.652Zm187.823,0h0L193.126,168.3c.44-.639.886-1.3,1.324-1.974l15.222,9.7c-.384.592-.768,1.17-1.139,1.719-.2.3-.409.6-.621.91ZM17.355,174.5h0c-.558-.89-1.111-1.8-1.644-2.7l15.624-9.021c.394.665.81,1.348,1.237,2.032L17.356,174.5Zm193.291,0h0l-15.22-9.7c.412-.658.828-1.341,1.237-2.03l15.628,9.023c-.54.916-1.093,1.825-1.643,2.7Zm2.55-4.271h0L197.569,161.2c.383-.675.769-1.375,1.147-2.083l16,8.331c-.5.938-1.012,1.87-1.524,2.773Zm-198.392,0h0c-.519-.913-1.031-1.846-1.524-2.773l16-8.329c.365.683.751,1.383,1.147,2.083L14.8,170.224Zm200.754-4.378h0l-16-8.33c.353-.691.708-1.407,1.055-2.131l16.35,7.624c-.457.958-.929,1.912-1.4,2.837Zm-203.116,0h0c-.478-.935-.95-1.889-1.4-2.836l16.346-7.622c.338.7.692,1.42,1.055,2.13l-16,8.328Zm-2.168-4.477h0c-.437-.956-.867-1.93-1.276-2.9l16.66-6.9c.306.717.629,1.449.961,2.176l-16.343,7.621Zm207.453,0h0l-16.348-7.623c.322-.706.646-1.438.961-2.176l16.665,6.9c-.414.977-.844,1.951-1.276,2.9ZM8.3,156.8h0c-.394-.973-.78-1.965-1.147-2.949L24.1,147.685c.273.727.564,1.472.865,2.216L8.3,156.8Zm211.393,0h0l-16.662-6.9c.291-.719.582-1.464.864-2.215l16.946,6.168c-.372,1-.758,1.99-1.147,2.949ZM6.537,152.15h0c-.351-.99-.693-2-1.017-3l17.189-5.42c.242.742.5,1.5.767,2.253L6.538,152.15Zm214.925,0h0l-16.943-6.167c.259-.731.517-1.489.766-2.252l17.194,5.421c-.327,1.012-.67,2.019-1.016,3Zm1.56-4.724h0L205.831,142c.227-.743.452-1.511.667-2.284l17.411,4.665c-.283,1.026-.581,2.048-.885,3.039Zm-218.047,0h0c-.308-1-.605-2.027-.884-3.039L21.5,139.722c.208.749.432,1.517.667,2.284L4.978,147.425Zm219.4-4.787h0l-17.408-4.665c.195-.755.385-1.532.565-2.31l17.594,3.9c-.237,1.035-.49,2.069-.75,3.074Zm-220.751,0h0c-.263-1.018-.516-2.052-.75-3.074l17.589-3.9c.175.755.365,1.532.566,2.311l-17.4,4.663ZM225.517,137.8h0l-17.592-3.9c.161-.762.317-1.547.463-2.334l17.744,3.129c-.142.777-.292,1.546-.443,2.286q-.084.41-.171.818Zm-223.033,0h0q-.087-.409-.171-.818c-.155-.755-.3-1.524-.443-2.286l17.738-3.128c.142.764.3,1.549.463,2.334L2.485,137.8Zm223.958-4.888h0L208.7,129.779c.128-.77.249-1.562.361-2.353l17.858,2.351c-.146,1.056-.307,2.108-.477,3.129Zm-224.884,0h0c-.172-1.034-.333-2.086-.477-3.128l17.853-2.35c.108.766.229,1.557.361,2.352L1.559,132.908Zm225.595-4.923h0L209.3,125.633c.093-.768.18-1.564.257-2.366l17.94,1.57c-.1,1.059-.215,2.117-.34,3.146Zm-226.305,0h0c-.128-1.044-.242-2.1-.34-3.145l17.935-1.569c.075.776.161,1.571.257,2.365L.848,127.984Zm-.5-4.949h0c-.082-1.046-.151-2.108-.2-3.157l17.985-.785c.041.778.092,1.577.154,2.374L.352,123.034Zm227.3,0h0l-17.939-1.569c.06-.773.112-1.571.154-2.374l17.99.786c-.054,1.061-.123,2.123-.2,3.157ZM.068,118.069h0C.031,117.019.008,115.954,0,114.9H18c.007.777.024,1.577.051,2.379l-17.984.785Zm227.863,0h0l-17.989-.785c.026-.778.044-1.578.051-2.377H228c-.008,1.06-.032,2.124-.068,3.161Zm.068-4.974H209.993c-.007-.774-.024-1.573-.051-2.377l17.99-.785c.037,1.062.06,2.125.068,3.161Zm-210,0H0c.008-1.064.032-2.127.068-3.162l17.984.785c-.026.777-.044,1.577-.051,2.376Zm191.862-4.184h0c-.041-.785-.093-1.584-.154-2.374l17.939-1.569c.083,1.059.152,2.122.2,3.159l-17.989.785Zm-191.733,0h0L.146,108.122c.054-1.061.123-2.123.2-3.157l17.934,1.569c-.06.772-.112,1.57-.154,2.372Zm191.423-4.176h0c-.075-.783-.162-1.578-.257-2.364l17.856-2.351c.129,1.056.243,2.115.341,3.146l-17.939,1.569Zm-191.112,0h0L.507,103.161c.1-1.059.215-2.117.341-3.146l17.851,2.35c-.094.772-.18,1.568-.257,2.364Zm190.62-4.159h0c-.11-.78-.231-1.571-.36-2.35l17.741-3.128c.174,1.046.334,2.1.477,3.128l-17.857,2.351Zm-190.128,0h0L1.081,98.221c.146-1.057.307-2.109.477-3.129l17.735,3.127c-.127.766-.249,1.556-.36,2.351Zm189.454-4.134h0c-.144-.778-.3-1.563-.463-2.333l17.592-3.9q.087.41.171.821c.155.756.3,1.525.443,2.284l-17.742,3.128Zm-188.781,0h0L1.87,93.309c.143-.779.292-1.547.443-2.284q.084-.411.171-.821L20.07,94.1c-.16.758-.317,1.543-.463,2.333Zm187.926-4.1h0c-.178-.771-.369-1.548-.565-2.31l17.408-4.664c.267,1.031.519,2.065.751,3.075l-17.592,3.9Zm-187.071,0h0l-17.586-3.9c.237-1.035.49-2.07.75-3.075l17.4,4.663c-.194.753-.385,1.53-.565,2.31ZM206.5,88.278h0c-.211-.758-.435-1.527-.667-2.284l17.191-5.42c.312,1.019.609,2.041.885,3.04L206.5,88.278Zm-185,0h0l-17.4-4.663c.283-1.026.581-2.048.885-3.041l17.186,5.419c-.227.744-.452,1.512-.667,2.284Zm183.791-4.008h0c-.245-.749-.5-1.507-.767-2.252l16.942-6.166c.356,1,.7,2.012,1.017,3l-17.192,5.421Zm-182.579,0h0L5.521,78.847c.327-1.011.67-2.02,1.017-3l16.937,6.165c-.26.734-.518,1.492-.767,2.252ZM203.9,80.316h0c-.277-.737-.568-1.482-.864-2.215L219.7,71.2c.4.986.785,1.978,1.147,2.95L203.9,80.315Zm-179.8,0h0L7.157,74.148c.372-1,.758-1.989,1.147-2.95L24.96,78.1c-.292.721-.583,1.465-.864,2.215ZM202.34,76.428h0c-.31-.725-.633-1.457-.96-2.174l16.347-7.623c.442.966.871,1.941,1.277,2.9l-16.662,6.9Zm-176.685,0h0L9,69.526c.415-.978.844-1.952,1.276-2.9l16.342,7.62c-.324.709-.647,1.44-.961,2.175Zm174.957-3.812h0c-.341-.711-.7-1.428-1.055-2.131l16-8.329c.484.946.956,1.9,1.4,2.838l-16.347,7.623Zm-173.228,0h0L11.04,64.99c.457-.958.929-1.913,1.4-2.838l16,8.327c-.353.691-.708,1.407-1.055,2.131Zm171.335-3.733h0c-.372-.7-.758-1.4-1.147-2.082L213.2,57.774c.525.924,1.038,1.858,1.525,2.774l-16,8.33Zm-169.44,0h0l-16-8.328c.5-.938,1.012-1.871,1.524-2.773l15.62,9.018c-.383.675-.769,1.375-1.146,2.081Zm167.386-3.647h0c-.4-.678-.818-1.361-1.236-2.029l15.218-9.7c.565.9,1.118,1.811,1.644,2.7l-15.625,9.021Zm-165.331,0h0L15.711,56.207c.539-.916,1.093-1.825,1.644-2.7L32.569,63.2c-.412.657-.828,1.34-1.236,2.03Zm163.12-3.553h0c-.437-.669-.869-1.315-1.323-1.974l14.783-10.351c.247.359.444.648.623.912.382.565.765,1.144,1.138,1.718l-15.219,9.7Zm-160.908,0h0L18.328,51.978c.383-.589.766-1.167,1.138-1.718.2-.3.411-.605.623-.912L34.868,59.7c-.44.64-.886,1.3-1.324,1.974Zm158.544-3.454h0c-.458-.639-.932-1.284-1.408-1.916L205,45.314c.641.848,1.272,1.706,1.875,2.551L192.089,58.216Zm-156.18,0h0L21.129,47.866c.617-.865,1.248-1.723,1.874-2.55L37.317,56.3c-.468.62-.941,1.264-1.408,1.915Zm153.668-3.348h0c-.488-.622-.988-1.245-1.489-1.851l13.825-11.6c.678.821,1.345,1.65,1.982,2.466L189.577,54.866Zm-151.156,0h0L24.106,43.881c.654-.837,1.321-1.666,1.982-2.466l13.822,11.6c-.493.6-.994,1.22-1.489,1.851Zm148.5-3.235h0c-.512-.6-1.039-1.2-1.568-1.785L198.661,37.65c.711.788,1.412,1.588,2.087,2.379l-13.825,11.6Zm-145.849,0h0l-13.821-11.6c.692-.811,1.394-1.611,2.087-2.379l13.3,12.19c-.521.579-1.049,1.18-1.568,1.785Zm143.057-3.117h0c-.538-.576-1.091-1.153-1.643-1.716L195.25,34.03c.746.758,1.481,1.526,2.188,2.285L184.132,48.508Zm-140.266,0h0l-13.3-12.19c.725-.778,1.461-1.547,2.189-2.286l12.76,12.76c-.552.562-1.09,1.123-1.644,1.717Zm137.342-2.994h0c-.562-.551-1.139-1.1-1.716-1.644l12.193-13.307c.778.725,1.547,1.461,2.286,2.188L181.208,45.512Zm-134.417,0h0L34.03,32.75c.757-.745,1.526-1.481,2.285-2.188l12.191,13.3c-.566.528-1.143,1.081-1.716,1.643Zm131.366-2.865h0c-.583-.525-1.184-1.052-1.785-1.567l11.6-13.825c.81.692,1.61,1.394,2.378,2.087L178.157,42.644Zm-128.316,0h0l-12.19-13.3c.788-.711,1.588-1.412,2.378-2.086l11.6,13.822c-.59.505-1.19,1.032-1.784,1.567Zm125.144-2.73h0c-.609-.5-1.232-1-1.851-1.489l10.986-14.317c.836.653,1.665,1.32,2.466,1.982l-11.6,13.824Zm-121.972,0h0l-11.6-13.821c.821-.679,1.651-1.345,2.466-1.982L54.864,38.42c-.612.48-1.235.98-1.851,1.489ZM171.7,37.319h0c-.63-.476-1.274-.949-1.914-1.407l10.351-14.782c.865.617,1.722,1.247,2.549,1.873L171.7,37.318Zm-115.4,0h0L45.316,23c.848-.641,1.706-1.271,2.551-1.874L58.215,35.908c-.628.45-1.273.923-1.915,1.408Zm112-2.447h0c-.651-.448-1.315-.893-1.974-1.323l9.7-15.219c.591.384,1.169.767,1.719,1.139.3.2.6.409.91.622L168.3,34.869Zm-108.605,0h0L49.348,20.089c.357-.246.647-.444.912-.623.567-.383,1.145-.766,1.719-1.138l9.693,15.216c-.652.425-1.316.87-1.974,1.324Zm105.106-2.3h0c-.671-.42-1.354-.836-2.031-1.237l9.021-15.624c.916.54,1.826,1.093,2.706,1.645L164.8,32.571Zm-101.606,0h0L53.5,17.354c.9-.565,1.811-1.118,2.7-1.644l9.019,15.621c-.669.4-1.352.812-2.03,1.237Zm98.009-2.142h0c-.69-.391-1.39-.777-2.082-1.147l8.329-16c.938.5,1.87,1.012,2.773,1.525l-9.019,15.622Zm-94.412,0h0L57.774,14.8c.926-.526,1.859-1.038,2.774-1.525l8.328,16c-.684.366-1.384.751-2.083,1.147Zm90.726-1.984h0c-.7-.36-1.421-.715-2.131-1.055l7.622-16.346c.96.458,1.915.93,2.838,1.4l-8.328,16Zm-87.038,0h0l-8.327-16c.947-.484,1.9-.956,2.837-1.4l7.621,16.343c-.7.335-1.415.689-2.13,1.055Zm83.267-1.821h0c-.716-.327-1.447-.65-2.175-.961L158.473,9c.976.414,1.95.844,2.9,1.277l-7.621,16.344Zm-79.5,0h0L66.63,10.273C67.6,9.831,68.571,9.4,69.526,9l6.9,16.658c-.712.3-1.443.627-2.175.961Zm75.65-1.654h0c-.731-.3-1.476-.587-2.215-.864l6.166-16.941c1,.372,1.989.758,2.95,1.147l-6.9,16.658Zm-71.8,0h0L71.2,8.3c.986-.4,1.978-.785,2.951-1.148l6.165,16.939c-.727.273-1.472.564-2.216.865Zm67.887-1.484h0c-.744-.264-1.5-.522-2.252-.766l5.42-17.189c1.014.328,2.022.671,3,1.017l-6.165,16.938Zm-63.97,0h0L75.85,6.537c1-.355,2.01-.7,3-1.017l5.419,17.188c-.736.24-1.493.5-2.251.766Zm59.992-1.31h0c-.755-.231-1.523-.455-2.283-.667l4.664-17.406c1.025.283,2.047.581,3.04.885l-5.419,17.187Zm-56.013,0h0L80.575,4.976c1.017-.311,2.039-.608,3.039-.884l4.663,17.4c-.748.208-1.516.432-2.282.666Zm51.981-1.134h0c-.774-.2-1.53-.385-2.31-.565l3.9-17.589c1.035.237,2.069.49,3.075.751l-4.663,17.4Zm-47.949,0h0l-4.663-17.4c1.03-.267,2.063-.519,3.074-.75l3.9,17.588c-.757.175-1.534.365-2.309.565Zm43.87-.956h0c-.773-.164-1.558-.319-2.332-.463L134.69,1.869c.778.142,1.547.292,2.286.443q.409.084.818.171L133.9,20.07Zm-39.793,0h0L90.2,2.483l.009,0,.811-.168c.756-.155,1.524-.3,2.285-.443l3.128,17.737c-.763.142-1.548.3-2.333.463Zm35.677-.776h0c-.778-.129-1.569-.25-2.349-.36L129.78,1.081c1.055.146,2.106.306,3.127.477L129.78,19.293Zm-31.56,0h0L95.093,1.557c1.046-.174,2.1-.334,3.129-.477l2.35,17.852c-.771.108-1.562.229-2.351.36Zm27.413-.594h0c-.782-.095-1.577-.181-2.363-.257L124.838.507c1.06.1,2.118.215,3.145.34L125.634,18.7Zm-23.267,0h0L100.016.847C101.072.718,102.13.6,103.162.507l1.569,17.934c-.772.074-1.567.16-2.364.257Zm19.1-.413h0c-.785-.061-1.583-.112-2.372-.154L119.877.146c1.063.054,2.125.123,3.157.2l-1.569,17.933Zm-14.93,0h0L104.966.351c1.058-.083,2.12-.152,3.157-.2l.785,17.984c-.775.041-1.573.092-2.372.154Zm10.748-.232h0c-.788-.027-1.588-.044-2.376-.051V0c1.061.008,2.124.032,3.162.068l-.785,17.984Zm-6.565,0h0L109.932.068C111,.031,112.06.008,113.094,0V18c-.778.007-1.577.024-2.375.051Z" transform="translate(0 0)"/></svg>