<svg xmlns="http://www.w3.org/2000/svg" xmlns:xlink="http://www.w3.org/1999/xlink" width="252" height="252" viewBox="0 0 252 252"><defs><style>.a{fill:#2f3447;}.b{fill:url(#a);}.c{filter:url(#b);}</style><linearGradient id="a" x1="0.105" y1="1" x2="0.889" y2="1" gradientUnits="objectBoundingBox"><stop offset="0" stop-color="#00893a"/><stop offset="1" stop-color="#00a886"/></linearGradient><filter id="b" x="0" y="0" width="252" height="252" filterUnits="userSpaceOnUse"><feOffset dy="2" input="SourceAlpha"/><feGaussianBlur stdDeviation="4" result="c"/><feFlood flood-color="#00a886" flood-opacity="0.749"/><feComposite operator="in" in2="c"/><feComposite in="SourceGraphic"/></filter></defs><g transform="translate(-102.004 -269.003)"><path class="a" d="M120,240a120.893,120.893,0,0,1-24.184-2.438,119.336,119.336,0,0,1-42.909-18.056A120.351,120.351,0,0,1,9.43,166.71a119.4,119.4,0,0,1-6.992-22.525,121.176,121.176,0,0,1,0-48.368A119.342,119.342,0,0,1,20.494,52.907,120.351,120.351,0,0,1,73.29,9.43,119.4,119.4,0,0,1,95.815,2.438a121.172,121.172,0,0,1,48.369,0,119.336,119.336,0,0,1,42.909,18.056,120.352,120.352,0,0,1,43.477,52.8,119.393,119.393,0,0,1,6.992,22.525,121.165,121.165,0,0,1,0,48.368,119.341,119.341,0,0,1-18.056,42.909,120.353,120.353,0,0,1-52.8,43.476,119.413,119.413,0,0,1-22.525,6.992A120.893,120.893,0,0,1,120,240Zm0-210a90,90,0,1,0,90,90A90.1,90.1,0,0,0,120,30Z" transform="translate(108 273)"/><g class="c" transform="matrix(1, 0, 0, 1, 102, 269)"><path class="b" d="M-846.089-4420h0V-4438c.777-.007,1.576-.024,2.378-.051l.786,17.99C-843.99-4420.027-845.053-4420-846.089-4420Zm-1.813,0h0c-1.048-.008-2.111-.031-3.162-.068l.785-17.989c.775.026,1.574.043,2.377.051V-4420Zm6.783-.146h0l-.785-17.989c.776-.041,1.574-.092,2.373-.154l1.57,17.939c-1.059.083-2.121.151-3.156.2Zm-11.754,0h0c-1.05-.054-2.112-.123-3.156-.2l1.57-17.939c.776.06,1.574.112,2.373.154l-.785,17.989Zm16.714-.36h0l-1.569-17.939c.774-.074,1.57-.161,2.365-.257l2.351,17.857c-1.056.129-2.114.243-3.145.341Zm-21.675,0h0c-1.045-.1-2.1-.213-3.144-.34l2.351-17.856c.77.093,1.565.18,2.364.257l-1.569,17.939Zm26.616-.574h0l-2.351-17.857c.768-.108,1.559-.229,2.352-.36l3.128,17.742c-1.047.174-2.1.334-3.129.477Zm-31.557,0h0c-1.042-.144-2.094-.3-3.127-.477l3.128-17.741c.764.127,1.554.248,2.351.36l-2.351,17.856Zm36.47-.789h0l-3.128-17.742c.764-.142,1.548-.3,2.333-.463l3.9,17.593-.025.006-.794.164c-.755.155-1.523.3-2.285.443Zm-41.381,0h0c-.761-.139-1.53-.288-2.284-.443q-.41-.083-.82-.171l3.9-17.591c.762.161,1.546.317,2.334.463l-3.128,17.741Zm46.254-1h0l-3.9-17.593c.754-.175,1.532-.365,2.311-.566l4.665,17.409c-1.029.267-2.064.519-3.074.75Zm-51.127,0h0c-1.023-.234-2.057-.487-3.074-.75l4.665-17.408c.752.194,1.529.384,2.311.565l-3.9,17.592Zm55.951-1.218h0l-4.665-17.409c.747-.208,1.515-.432,2.283-.667l5.421,17.192c-1.017.312-2.038.608-3.038.884Zm-60.774,0h0c-1.013-.28-2.035-.577-3.038-.885l5.42-17.19c.743.227,1.511.452,2.284.667l-4.664,17.408Zm65.54-1.428h0l-5.421-17.193c.742-.242,1.5-.5,2.252-.767l6.167,16.944c-1,.355-2.01.7-3,1.017Zm-70.306,0h0c-1-.323-2.007-.666-3-1.017l6.166-16.942c.733.26,1.491.518,2.252.767l-5.42,17.191Zm75-1.636h0l-6.167-16.945c.728-.273,1.473-.564,2.215-.865l6.9,16.663c-.985.4-1.977.785-2.949,1.147Zm-79.7,0h0c-.984-.367-1.976-.753-2.948-1.147l6.9-16.661c.722.292,1.467.583,2.215.864l-6.167,16.942Zm84.325-1.84h0l-6.9-16.664c.714-.3,1.445-.627,2.175-.961l7.624,16.349c-.966.442-1.94.871-2.9,1.276Zm-88.948,0h0c-.966-.409-1.94-.838-2.894-1.275l7.622-16.347c.707.323,1.438.646,2.175.96l-6.9,16.661Zm93.485-2.042h0l-7.624-16.349c.7-.336,1.417-.691,2.131-1.055l8.33,16c-.947.484-1.9.956-2.836,1.4Zm-98.02,0h0c-.947-.452-1.9-.923-2.836-1.4l8.329-16c.69.352,1.406.708,2.131,1.055l-7.623,16.347Zm102.462-2.239h0l-8.331-16c.684-.366,1.385-.751,2.083-1.147l9.022,15.627c-.925.525-1.858,1.038-2.773,1.524Zm-106.9,0h0c-.927-.493-1.86-1.005-2.773-1.524l9.021-15.624c.674.383,1.375.769,2.083,1.147l-8.33,16Zm111.245-2.43h0l-9.022-15.628c.668-.4,1.351-.812,2.031-1.237l9.7,15.221c-.9.564-1.81,1.117-2.7,1.644Zm-115.585,0h0c-.9-.532-1.813-1.085-2.7-1.643l9.7-15.218c.659.413,1.341.829,2.03,1.236l-9.021,15.625Zm119.816-2.617h0l-9.7-15.221c.649-.424,1.313-.869,1.974-1.324l10.353,14.786c-.357.247-.646.444-.911.623-.567.383-1.145.766-1.717,1.137Zm-124.047,0h0c-.574-.373-1.151-.755-1.716-1.136-.3-.2-.6-.409-.912-.623l10.351-14.783c.637.438,1.3.884,1.974,1.323l-9.7,15.218Zm-4.11-2.8h0c-.854-.609-1.712-1.24-2.55-1.874l10.986-14.317c.621.468,1.265.942,1.916,1.408l-10.351,14.783Zm132.269,0h0l-10.353-14.786c.629-.45,1.273-.923,1.915-1.408L-778.312-4443c-.846.64-1.7,1.27-2.549,1.873Zm-136.254-2.977h0c-.827-.646-1.657-1.313-2.465-1.981l11.6-13.825c.6.5,1.223,1,1.852,1.489l-10.986,14.317Zm140.24,0h0l-10.988-14.32c.611-.479,1.234-.98,1.852-1.489l11.6,13.828c-.821.678-1.65,1.344-2.465,1.981Zm3.853-3.147h0l-11.6-13.828c.591-.506,1.192-1.033,1.786-1.568l12.2,13.31c-.788.711-1.588,1.412-2.377,2.086Zm-147.946,0h0c-.8-.682-1.6-1.384-2.377-2.086l12.193-13.306c.577.52,1.178,1.047,1.785,1.567l-11.6,13.824Zm151.658-3.31h0l-12.2-13.309c.568-.531,1.146-1.083,1.716-1.643l12.766,12.765c-.757.745-1.525,1.48-2.285,2.188Zm-155.371,0h0c-.767-.714-1.536-1.45-2.284-2.187l12.763-12.762c.554.543,1.131,1.1,1.716,1.643l-12.193,13.306Zm-3.565-3.468h0c-.736-.749-1.473-1.517-2.188-2.285l13.307-12.193c.531.568,1.083,1.146,1.644,1.716l-12.762,12.762Zm162.5,0h0l-12.765-12.764c.544-.555,1.1-1.132,1.644-1.717l13.31,12.2c-.724.778-1.46,1.546-2.187,2.285Zm-165.912-3.619h0c-.7-.779-1.4-1.58-2.087-2.379l13.825-11.6c.506.59,1.033,1.191,1.569,1.787l-13.305,12.192Zm169.322,0h0l-13.309-12.2c.518-.576,1.046-1.176,1.568-1.786l13.828,11.6c-.691.81-1.393,1.609-2.086,2.377Zm3.251-3.765h0l-13.827-11.6c.492-.6.993-1.219,1.49-1.852l14.321,10.989c-.653.836-1.32,1.666-1.982,2.466Zm-175.826,0h0c-.669-.81-1.336-1.639-1.982-2.466l14.317-10.986c.477.609.978,1.232,1.49,1.853l-13.824,11.6Zm178.911-3.9h0l-14.32-10.988c.468-.62.942-1.264,1.408-1.915l14.786,10.353c-.618.866-1.248,1.724-1.873,2.55Zm-182,0h0c-.633-.836-1.263-1.694-1.873-2.549l14.782-10.35c.452.63.925,1.274,1.408,1.915l-14.316,10.985Zm-2.913-4.031h0c-.212-.308-.422-.614-.622-.911-.382-.566-.765-1.144-1.138-1.719l15.218-9.695c.423.648.868,1.313,1.324,1.975l-14.781,10.35Zm187.823,0h0L-767.87-4479.7c.44-.639.886-1.3,1.324-1.974l15.222,9.7c-.385.592-.768,1.169-1.139,1.719-.2.3-.409.6-.621.91Zm-190.557-4.154h0c-.558-.89-1.111-1.8-1.644-2.7l15.624-9.021c.394.665.81,1.348,1.237,2.032l-15.216,9.694Zm193.291,0h0l-15.22-9.7c.412-.658.828-1.341,1.237-2.03l15.628,9.023c-.54.916-1.093,1.825-1.643,2.7Zm2.55-4.271h0l-15.626-9.022c.383-.675.769-1.375,1.147-2.083l16,8.332c-.5.938-1.012,1.87-1.524,2.772Zm-198.392,0h0c-.519-.914-1.031-1.846-1.524-2.772l16-8.329c.365.683.751,1.383,1.147,2.083l-15.622,9.019Zm200.754-4.378h0l-16-8.331c.353-.69.708-1.407,1.055-2.131l16.35,7.624c-.457.958-.929,1.913-1.4,2.837Zm-203.116,0h0c-.478-.935-.95-1.889-1.4-2.835l16.346-7.622c.338.7.692,1.42,1.055,2.13l-16,8.328Zm-2.168-4.477h0c-.437-.956-.867-1.93-1.276-2.9l16.66-6.9c.306.717.629,1.449.961,2.176l-16.343,7.621Zm207.453,0h0l-16.348-7.624c.322-.706.646-1.438.961-2.176l16.665,6.9c-.414.977-.844,1.951-1.276,2.9Zm-209.423-4.568h0c-.394-.973-.78-1.965-1.147-2.95l16.941-6.166c.273.727.564,1.473.865,2.216l-16.657,6.9Zm211.393,0h0l-16.662-6.9c.291-.718.582-1.463.864-2.215l16.946,6.167c-.372,1-.758,1.99-1.147,2.949Zm-213.159-4.65h0c-.351-.99-.693-2-1.017-3l17.189-5.42c.242.742.5,1.5.767,2.253l-16.938,6.165Zm214.926,0h0l-16.943-6.167c.259-.731.517-1.489.766-2.252l17.194,5.421c-.328,1.012-.67,2.02-1.016,3Zm1.56-4.724h0l-17.192-5.42c.227-.743.452-1.511.667-2.284l17.411,4.666c-.283,1.025-.581,2.048-.885,3.039Zm-218.047,0h0c-.308-1-.605-2.027-.884-3.039l17.405-4.664c.208.749.432,1.517.667,2.284l-17.186,5.419Zm219.4-4.787h0l-17.408-4.665c.195-.755.385-1.532.565-2.311l17.594,3.9c-.237,1.035-.49,2.069-.75,3.074Zm-220.751,0h0c-.263-1.018-.516-2.052-.75-3.074l17.589-3.9c.175.755.365,1.532.566,2.311l-17.4,4.663Zm221.892-4.842h0l-17.592-3.9c.161-.762.317-1.547.463-2.334l17.744,3.129c-.142.777-.292,1.545-.443,2.286q-.084.409-.171.818Zm-223.033,0h0q-.087-.409-.171-.818c-.155-.755-.3-1.524-.443-2.286l17.738-3.128c.142.765.3,1.549.464,2.334l-17.586,3.9Zm223.958-4.887h0l-17.741-3.128c.128-.771.25-1.562.361-2.353l17.858,2.351c-.146,1.056-.307,2.108-.477,3.129Zm-224.884,0h0c-.172-1.034-.333-2.086-.477-3.128l17.853-2.351c.108.766.229,1.557.361,2.352l-17.735,3.127Zm225.595-4.923h0l-17.856-2.351c.093-.768.18-1.563.257-2.366l17.94,1.57c-.1,1.059-.215,2.117-.34,3.146Zm-226.305,0h0c-.128-1.044-.242-2.1-.34-3.146l17.935-1.569c.075.776.161,1.571.257,2.365l-17.851,2.35Zm-.5-4.949h0c-.082-1.046-.151-2.108-.2-3.157l17.984-.785c.041.778.092,1.577.154,2.374l-17.933,1.569Zm227.3,0h0l-17.938-1.57c.06-.772.112-1.571.154-2.374l17.99.786c-.054,1.061-.123,2.123-.2,3.157Zm-227.581-4.966h0c-.037-1.049-.06-2.113-.068-3.163h18c.007.777.024,1.577.051,2.379l-17.983.785Zm227.863,0h0l-17.989-.786c.026-.778.044-1.578.051-2.377H-733c-.008,1.061-.032,2.124-.068,3.162Zm.068-4.974H-751c-.007-.774-.024-1.573-.051-2.377l17.99-.786c.037,1.062.06,2.125.068,3.162Zm-210,0h-18c.008-1.064.032-2.127.068-3.163l17.984.785c-.026.777-.044,1.577-.051,2.376Zm191.862-4.185h0c-.041-.786-.093-1.584-.154-2.374l17.939-1.569c.083,1.059.152,2.122.2,3.159l-17.989.785Zm-191.733,0h0l-17.983-.785c.054-1.061.123-2.123.2-3.157l17.934,1.569c-.06.771-.112,1.569-.154,2.372Zm191.423-4.176h0c-.075-.783-.162-1.578-.257-2.364l17.856-2.351c.129,1.056.243,2.115.341,3.146l-17.939,1.569Zm-191.112,0h0l-17.933-1.569c.1-1.059.215-2.117.341-3.146l17.851,2.35c-.094.772-.18,1.567-.257,2.364Zm190.62-4.159h0c-.11-.78-.231-1.571-.36-2.35l17.741-3.128c.174,1.046.334,2.1.477,3.128l-17.857,2.351Zm-190.128,0h0l-17.851-2.35c.146-1.057.307-2.109.477-3.129l17.735,3.127c-.127.766-.249,1.556-.36,2.351Zm189.455-4.134h0c-.144-.778-.3-1.563-.463-2.333l17.592-3.9q.087.41.171.821c.155.756.3,1.524.443,2.284l-17.742,3.128Zm-188.781,0h0l-17.736-3.127c.143-.779.292-1.547.443-2.284q.084-.411.171-.821l17.586,3.9c-.16.758-.317,1.543-.463,2.333Zm187.926-4.1h0c-.178-.771-.369-1.547-.565-2.31l17.408-4.665c.267,1.031.519,2.065.751,3.075l-17.592,3.9Zm-187.071,0h0l-17.586-3.9c.237-1.035.49-2.069.75-3.075l17.4,4.663c-.194.753-.385,1.53-.565,2.311Zm186.037-4.058h0c-.211-.758-.435-1.527-.667-2.284l17.191-5.42c.312,1.019.609,2.041.885,3.041l-17.408,4.664Zm-185,0h0l-17.4-4.663c.283-1.025.581-2.048.885-3.041l17.186,5.419c-.227.744-.452,1.512-.667,2.284Zm183.791-4.008h0c-.245-.749-.5-1.507-.766-2.252l16.942-6.167c.356,1,.7,2.012,1.017,3l-17.192,5.421Zm-182.578,0h0l-17.186-5.419c.327-1.011.67-2.02,1.017-3l16.937,6.165c-.26.734-.518,1.492-.766,2.252Zm181.191-3.95h0c-.277-.737-.568-1.482-.864-2.215l16.661-6.9c.4.986.785,1.979,1.147,2.95l-16.943,6.167Zm-179.8,0h0l-16.938-6.165c.372-1,.758-1.989,1.147-2.95l16.656,6.9c-.292.721-.583,1.465-.864,2.215Zm178.244-3.885h0c-.31-.725-.633-1.457-.96-2.174l16.347-7.623c.442.966.871,1.94,1.277,2.9l-16.662,6.9Zm-176.685,0h0l-16.657-6.9c.415-.978.844-1.952,1.276-2.9l16.342,7.621c-.324.708-.647,1.44-.961,2.175Zm174.957-3.812h0c-.341-.711-.7-1.428-1.055-2.131l16-8.329c.484.946.956,1.9,1.4,2.838l-16.347,7.623Zm-173.228,0h0l-16.343-7.621c.457-.958.929-1.913,1.4-2.838l16,8.327c-.353.691-.708,1.407-1.055,2.131Zm171.335-3.733h0c-.372-.7-.758-1.4-1.147-2.082l15.624-9.021c.525.924,1.038,1.857,1.525,2.774l-16,8.33Zm-169.44,0h0l-16-8.328c.5-.938,1.012-1.871,1.524-2.772l15.62,9.018c-.383.675-.769,1.375-1.146,2.082Zm167.386-3.646h0c-.4-.678-.818-1.361-1.236-2.029l15.218-9.7c.565.9,1.118,1.811,1.644,2.7l-15.625,9.021Zm-165.331,0h0l-15.621-9.019c.539-.916,1.093-1.825,1.644-2.7l15.214,9.693c-.411.657-.828,1.34-1.236,2.03Zm163.12-3.553h0c-.437-.669-.869-1.315-1.323-1.974l14.783-10.351c.247.358.444.648.623.912.382.565.765,1.144,1.138,1.718l-15.219,9.7Zm-160.908,0h0l-15.215-9.693c.383-.589.766-1.167,1.138-1.718.2-.3.411-.6.623-.913l14.779,10.349c-.44.64-.886,1.3-1.324,1.974Zm158.544-3.454h0c-.458-.64-.932-1.284-1.408-1.916L-756-4602.682c.641.848,1.272,1.706,1.875,2.551l-14.782,10.351Zm-156.18,0h0l-14.779-10.348c.617-.865,1.248-1.723,1.874-2.551l14.314,10.983c-.468.62-.941,1.264-1.408,1.915Zm153.668-3.349h0c-.487-.622-.988-1.245-1.489-1.852l13.825-11.6c.678.82,1.345,1.65,1.982,2.466l-14.317,10.986Zm-151.156,0h0l-14.313-10.983c.654-.837,1.321-1.667,1.982-2.466l13.822,11.6c-.493.6-.994,1.22-1.489,1.851Zm148.5-3.235h0c-.512-.6-1.039-1.2-1.568-1.785l13.307-12.193c.711.788,1.412,1.588,2.087,2.378l-13.825,11.6Zm-145.849,0h0l-13.821-11.6c.692-.811,1.394-1.61,2.087-2.378l13.3,12.19c-.521.579-1.049,1.18-1.568,1.786Zm143.057-3.117h0c-.538-.576-1.091-1.153-1.643-1.715l12.763-12.763c.746.757,1.481,1.526,2.188,2.285l-13.306,12.193Zm-140.266,0h0l-13.3-12.19c.725-.778,1.461-1.547,2.189-2.287l12.76,12.76c-.552.562-1.09,1.124-1.644,1.717Zm137.342-2.994h0c-.562-.551-1.139-1.1-1.716-1.644l12.193-13.307c.778.725,1.547,1.461,2.286,2.188l-12.762,12.762Zm-134.417,0h0l-12.759-12.759c.757-.745,1.526-1.481,2.285-2.188l12.191,13.3c-.566.529-1.143,1.081-1.716,1.644Zm131.366-2.865h0c-.583-.525-1.184-1.052-1.785-1.567l11.6-13.825c.81.691,1.61,1.394,2.378,2.086l-12.192,13.306Zm-128.316,0h0l-12.19-13.3c.788-.711,1.588-1.412,2.378-2.086l11.6,13.822c-.59.505-1.19,1.032-1.784,1.567Zm125.144-2.73h0c-.609-.5-1.232-1-1.851-1.489l10.986-14.317c.836.653,1.665,1.32,2.466,1.982l-11.6,13.824Zm-121.973,0h0l-11.6-13.821c.821-.678,1.651-1.345,2.466-1.982l10.984,14.314c-.612.48-1.235.98-1.851,1.489Zm118.686-2.591h0c-.63-.476-1.274-.949-1.914-1.407l10.351-14.783c.865.617,1.722,1.248,2.549,1.873l-10.985,14.316Zm-115.4,0h0l-10.983-14.313c.848-.641,1.706-1.271,2.551-1.875l10.349,14.779c-.628.45-1.273.923-1.915,1.408Zm112-2.447h0c-.651-.448-1.315-.894-1.974-1.323l9.7-15.219c.591.384,1.169.767,1.719,1.139.3.2.6.409.91.622l-10.35,14.781Zm-108.605,0h0l-10.348-14.778c.357-.247.647-.444.912-.623.567-.383,1.145-.766,1.719-1.139l9.693,15.216c-.652.425-1.316.87-1.975,1.324Zm105.106-2.3h0c-.671-.42-1.354-.836-2.031-1.237l9.021-15.625c.916.54,1.826,1.093,2.706,1.645l-9.694,15.216Zm-101.606,0h0l-9.692-15.213c.9-.565,1.811-1.118,2.7-1.644l9.019,15.622c-.669.4-1.352.812-2.03,1.236Zm98.009-2.142h0c-.69-.391-1.39-.777-2.082-1.147l8.329-16c.938.5,1.87,1.012,2.773,1.525l-9.019,15.622Zm-94.412,0h0l-9.018-15.62c.926-.525,1.859-1.038,2.774-1.525l8.328,16c-.684.366-1.384.751-2.083,1.147Zm90.726-1.983h0c-.7-.359-1.421-.714-2.131-1.055l7.622-16.346c.96.458,1.915.93,2.838,1.4l-8.328,16Zm-87.038,0h0l-8.327-16c.947-.484,1.9-.956,2.837-1.4l7.621,16.343c-.7.335-1.415.689-2.13,1.055Zm83.267-1.821h0c-.716-.327-1.447-.65-2.175-.96l6.9-16.661c.976.414,1.95.844,2.9,1.277l-7.621,16.344Zm-79.5,0h0l-7.62-16.342c.967-.442,1.941-.872,2.9-1.276l6.9,16.658c-.712.3-1.443.627-2.175.961Zm75.65-1.654h0c-.731-.3-1.476-.586-2.215-.864l6.166-16.941c1,.372,1.989.758,2.95,1.147l-6.9,16.658Zm-71.8,0h0l-6.9-16.655c.986-.4,1.978-.785,2.951-1.148l6.165,16.939c-.727.273-1.472.563-2.216.865Zm67.887-1.484h0c-.744-.264-1.5-.521-2.252-.767l5.42-17.189c1.014.328,2.022.67,3,1.017l-6.165,16.938Zm-63.97,0h0l-6.164-16.937c1-.355,2.01-.7,3-1.017l5.419,17.188c-.736.24-1.493.5-2.251.766Zm59.992-1.311h0c-.755-.231-1.523-.455-2.283-.667l4.664-17.405c1.025.283,2.047.581,3.04.885l-5.419,17.187Zm-56.013,0h0l-5.418-17.185c1.017-.312,2.039-.608,3.039-.885l4.663,17.4c-.748.208-1.516.432-2.282.666Zm51.981-1.134h0c-.774-.2-1.53-.385-2.31-.565l3.9-17.589c1.035.237,2.069.49,3.075.75l-4.663,17.4Zm-47.949,0h0l-4.663-17.4c1.03-.267,2.063-.519,3.074-.75l3.9,17.588c-.757.175-1.534.365-2.309.565Zm43.87-.956h0c-.773-.164-1.558-.319-2.332-.463l3.128-17.739c.778.143,1.547.292,2.286.443q.409.084.818.171l-3.9,17.587Zm-39.793,0h0l-3.9-17.586.009,0,.811-.168c.756-.154,1.524-.3,2.285-.443l3.128,17.738c-.763.142-1.548.3-2.333.463Zm35.677-.776h0c-.778-.129-1.569-.25-2.349-.36l2.351-17.853c1.055.146,2.106.306,3.127.477l-3.127,17.736Zm-31.56,0h0l-3.127-17.735c1.046-.174,2.1-.334,3.129-.477l2.35,17.852c-.771.108-1.562.229-2.351.36Zm27.413-.595h0c-.782-.1-1.577-.182-2.363-.257l1.569-17.935c1.06.1,2.118.215,3.145.341l-2.35,17.851Zm-23.267,0h0l-2.35-17.85c1.056-.129,2.114-.243,3.146-.341l1.569,17.935c-.772.074-1.567.16-2.364.257Zm19.1-.413h0c-.785-.061-1.583-.112-2.372-.154l.785-17.984c1.063.054,2.125.123,3.157.2l-1.569,17.934Zm-14.93,0h0l-1.569-17.933c1.058-.083,2.12-.151,3.157-.2l.785,17.984c-.775.041-1.573.092-2.372.154Zm10.748-.232h0c-.788-.026-1.588-.044-2.376-.051v-18c1.061.008,2.124.032,3.162.068l-.785,17.983Zm-6.565,0h0l-.785-17.983c1.064-.038,2.127-.06,3.162-.068v18c-.778.007-1.577.024-2.375.051Z" transform="translate(973 4658)"/></g></g></svg>