<svg xmlns="http://www.w3.org/2000/svg" xmlns:xlink="http://www.w3.org/1999/xlink" width="302" height="71" version="1.1" style=""><rect id="backgroundrect" width="100%" height="100%" x="0" y="0" fill="none" stroke="none" class="" style=""/>
    <!-- Generator: Sketch 52.5 (67469) - http://www.bohemiancoding.com/sketch -->
    <title>Group</title>
    <desc>Created with Sketch.</desc>
    <defs>
        <polygon id="path-1" points="0 0.128 70.8712 0.128 70.8712 70.9999 0 70.9999"/>
    </defs>
    
<g class="currentLayer" style=""><title>Layer 1</title>
        
            
                
                
            
        
    <g id="Group-20" class="">
                    <g id="Group-3">
                        <mask id="mask-2" fill="white" transform="translate(0,-5.521775037209409e-8) translate(0.000800000037997961,1.5155515670776367) translate(0,-0.7575757503509521) translate(0,-0.7575757503509521) translate(0,0.8716999888420105) translate(165,148) translate(-165,-149) ">
                            <use xlink:href="#path-1" id="svg_1"/>
                        </mask>
                        <g id="Clip-2"/>
                        <path d="M12.387000000038,70.87199999999999 L18.818000000038012,64.43999999999998 C12.823000000038007,58.581999999999994 9.096000000038003,50.41 9.096000000038003,41.36499999999998 C9.096000000038003,23.542999999999996 23.543000000038006,9.095000000000002 41.366000000038,9.095000000000002 C50.411000000038,9.095000000000002 58.58200000003799,12.822000000000006 64.44200000003799,18.816999999999982 L70.872000000038,12.386 C63.36700000003799,4.74499999999998 52.922000000038,3.3306690738754696e-15 41.366000000038,3.3306690738754696e-15 C18.521000000037986,3.3306690738754696e-15 3.799982507476929e-11,18.519999999999985 3.799982507476929e-11,41.36499999999998 C3.799982507476929e-11,52.922 4.745000000038004,63.36699999999999 12.387000000038,70.87199999999999 " id="Fill-1" fill="#F16721" mask="url(#mask-2)"/>
                    </g>
                    <path d="M49.18200000003799,41.36510001115798 C49.18200000003799,45.652100011157984 45.70700000003799,49.12710001115798 41.420000000038,49.12710001115798 C37.134000000038,49.12710001115798 33.65900000003799,45.652100011157984 33.65900000003799,41.36510001115798 C33.65900000003799,37.07810001115797 37.134000000038,33.60310001115798 41.420000000038,33.60310001115798 C45.70700000003799,33.60310001115798 49.18200000003799,37.07810001115797 49.18200000003799,41.36510001115798 " id="Fill-4" fill="#F16721"/>
                    <path d="M129.207300000038,39.16200001115797 C127.969300000038,40.177000011157986 126.244300000038,40.69000001115798 124.082300000038,40.69000001115798 L115.209300000038,40.69000001115798 L115.209300000038,29.80900001115798 L124.025300000038,29.80900001115798 C126.306300000038,29.80900001115798 128.071300000038,30.289000011157984 129.273300000038,31.237000011157992 C130.436300000038,32.15800001115798 130.978300000038,33.44200001115797 130.978300000038,35.278000011157985 C130.978300000038,36.91200001115797 130.398300000038,38.183000011157986 129.207300000038,39.16200001115797 M137.163300000038,43.044000011157976 C138.964300000038,40.901000011157976 139.876300000038,38.12200001115799 139.876300000038,34.78300001115798 C139.876300000038,31.194000011157986 138.70330000003798,28.16000001115798 136.382300000038,25.760000011157988 C133.561300000038,23.018000011157984 129.589300000038,21.62700001115798 124.574300000038,21.62700001115798 L106.421300000038,21.62700001115798 L106.421300000038,62.11000001115798 L115.209300000038,62.11000001115798 L115.209300000038,48.70800001115798 L122.126300000038,48.70800001115798 L131.423300000038,61.89300001115798 L131.577300000038,62.11000001115798 L142.042300000038,62.11000001115798 L131.313300000038,47.07200001115797 C133.700300000038,46.17800001115798 135.667300000038,44.82400001115798 137.163300000038,43.044000011157976 " id="Fill-6" fill="#242727"/>
                    <polygon id="Fill-8" fill="#242727" points="216.2473907470703,46.262599889850605 197.15939331054688,21.62759775362014 189.38539123535156,21.62759775362014 189.38539123535156,62.11059946260451 198.0634002685547,62.11059946260451 198.0634002685547,36.70560068330764 217.75839233398438,62.11059946260451 224.92539978027344,62.11059946260451 224.92539978027344,21.62759775362014 216.2473907470703,21.62759775362014 "/>
                    <polygon id="Fill-10" fill="#242727" points="240.93389892578125,45.73920053682326 260.21490478515625,45.73920053682326 260.21490478515625,37.667201940631855 240.93389892578125,37.667201940631855 240.93389892578125,29.92020029268264 262.6878967285156,29.92020029268264 262.6878967285156,21.627201025104515 232.1448974609375,21.627201025104515 232.1448974609375,62.11020273408889 262.962890625,62.11020273408889 262.962890625,54.02420419893264 240.93389892578125,54.02420419893264 "/>
                    <polygon id="Fill-12" fill="#242727" points="269.2434997558594,21.62730020723342 269.2434997558594,29.919300024127953 281.44049072265625,29.919300024127953 281.44049072265625,62.11030191621779 290.2825012207031,62.11030191621779 290.2825012207031,29.919300024127953 302.47650146484375,29.919300024127953 302.47650146484375,21.62730020723342 "/>
                    <path d="M81.152700000038,54.34760001115799 C74.272700000038,54.34760001115799 68.673700000038,48.748600011157976 68.673700000038,41.86860001115798 C68.673700000038,34.98760001115798 74.272700000038,29.389600011157984 81.152700000038,29.389600011157984 C88.033700000038,29.389600011157984 93.631700000038,34.98760001115798 93.631700000038,41.86860001115798 C93.631700000038,48.748600011157976 88.033700000038,54.34760001115799 81.152700000038,54.34760001115799 M81.152700000038,20.96560001115798 C69.627700000038,20.96560001115798 60.250700000037995,30.343600011157978 60.250700000037995,41.86860001115798 C60.250700000037995,53.394600011157976 69.627700000038,62.77160001115797 81.152700000038,62.77160001115797 C92.679700000038,62.77160001115797 102.05670000003799,53.394600011157976 102.05670000003799,41.86860001115798 C102.05670000003799,30.343600011157978 92.679700000038,20.96560001115798 81.152700000038,20.96560001115798 " id="Fill-14" fill="#242727"/>
                    <path d="M164.019800000038,54.34660001115799 C157.138800000038,54.34660001115799 151.540800000038,48.748600011157976 151.540800000038,41.867600011157975 C151.540800000038,34.988600011157985 157.138800000038,29.389600011157984 164.019800000038,29.389600011157984 C170.899800000038,29.389600011157984 176.498800000038,34.988600011157985 176.498800000038,41.867600011157975 C176.498800000038,48.748600011157976 170.899800000038,54.34660001115799 164.019800000038,54.34660001115799 M164.019800000038,20.966600011157983 C152.493800000038,20.966600011157983 143.116800000038,30.342600011157973 143.116800000038,41.867600011157975 C143.116800000038,53.39560001115798 152.493800000038,62.77260001115798 164.019800000038,62.77260001115798 C175.54580000003799,62.77260001115798 184.922800000038,53.39560001115798 184.922800000038,41.867600011157975 C184.922800000038,30.342600011157973 175.54580000003799,20.966600011157983 164.019800000038,20.966600011157983 " id="Fill-16" fill="#242727"/>
                    <path d="M53.026700000038005,53.02140001115799 C49.919700000038006,56.12340001115797 45.789700000037996,57.83140001115798 41.399700000037996,57.83140001115798 C32.32070000003799,57.83140001115798 24.932700000037983,50.44540001115797 24.932700000037983,41.36640001115798 C24.932700000037983,32.28640001115798 32.32070000003799,24.899400011157983 41.399700000037996,24.899400011157983 C45.75570000003799,24.899400011157983 49.865700000038004,26.588400011157976 52.96770000003801,29.655400011157983 L53.170700000037996,29.855400011157986 L59.58970000003799,23.435400011157984 L59.385700000038,23.23240001115798 C54.566700000038,18.451400011157975 48.17870000003799,15.818400011157994 41.399700000037996,15.818400011157994 C27.312700000038006,15.818400011157994 15.851700000037994,27.278400011157974 15.851700000037994,41.36640001115798 C15.851700000037994,55.45240001115798 27.312700000038006,66.91240001115798 41.399700000037996,66.91240001115798 C48.21470000003799,66.91240001115798 54.622700000037995,64.25940001115798 59.447700000038,59.442400011157986 L59.811700000038,59.07740001115798 L53.39270000003799,52.65840001115798 L53.026700000038005,53.02140001115799 z" id="Fill-18" fill="#242727"/>
                </g></g></svg>