<?xml version="1.0" encoding="UTF-8"?>
<svg width="50px" height="50px" viewBox="0 0 50 50" version="1.1" xmlns="http://www.w3.org/2000/svg" xmlns:xlink="http://www.w3.org/1999/xlink">
    <!-- Generator: Sketch 53.2 (72643) - https://sketchapp.com -->
    <title>AT/ICO/FA-Connection@2x</title>
    <desc>Created with Sketch.</desc>
    <g id="AT/ICO/FA-Connection" stroke="none" stroke-width="1" fill="none" fill-rule="evenodd">
        <path d="M25.2886115,30.0702028 C25.1794072,30.0624025 25.0702028,30.0390016 24.9609984,30.0390016 C21.5132605,30.0390016 18.7207488,32.8315133 18.7207488,36.2792512 C18.7207488,39.7269891 21.5132605,42.5195008 24.9609984,42.5195008 C28.4087363,42.5195008 31.201248,39.7269891 31.201248,36.2792512 C31.201248,35.6552262 31.0842434,35.0702028 30.9126365,34.50078 L25.2886115,30.0702028 Z M24.9609984,40.0234009 C22.8939158,40.0234009 21.2168487,38.3463339 21.2168487,36.2792512 C21.2168487,34.2121685 22.8939158,32.5351014 24.9609984,32.5351014 C27.0280811,32.5351014 28.7051482,34.2121685 28.7051482,36.2792512 C28.7051482,38.3463339 27.0280811,40.0234009 24.9609984,40.0234009 Z M0.296411856,17.4024961 C-0.0858034321,17.7691108 -0.101404056,18.3775351 0.27301092,18.7519501 L0.717628705,19.1965679 C1.07644306,19.5553822 1.66146646,19.5631825 2.02808112,19.2199688 C3.51794072,17.8081123 5.10920437,16.575663 6.77067083,15.4914197 L4.71138846,13.8689548 C3.1825273,14.9297972 1.69266771,16.0764431 0.296411856,17.4024961 Z M47.8939158,19.2199688 C48.2605304,19.5709828 48.8455538,19.5631825 49.2043682,19.1965679 L49.648986,18.7519501 C50.0234009,18.3775351 50.0156006,17.7691108 49.625585,17.4024961 C39.2823713,7.58970359 24.50078,5.12480499 11.9266771,10.0156006 L14.2823713,11.8720749 C25.6552262,8.03432137 38.673947,10.475819 47.8939158,19.2199688 Z M24.6879875,20.0624025 L28.1669267,22.8081123 C32.2074883,23.4087363 36.1076443,25.1326053 39.3447738,28.0109204 C39.7191888,28.3463339 40.2964119,28.3229329 40.6396256,27.9563183 L41.0686427,27.5039002 C41.4352574,27.1216849 41.4118565,26.5132605 41.0140406,26.1622465 C36.3806552,22.0280811 30.5304212,20 24.6879875,20.0624025 L24.6879875,20.0624025 Z M49.6879875,42.925117 L1.79407176,5.21840874 C1.52886115,5 1.13104524,5.03900156 0.920436817,5.31201248 L0.140405616,6.28705148 C-0.0780031201,6.5600624 -0.031201248,6.950078 0.23400936,7.16068643 L48.1279251,44.875195 C48.3931357,45.0936037 48.7909516,45.0468019 49.0015601,44.7815913 L49.7815913,43.8065523 C50,43.5335413 49.9609984,43.1435257 49.6879875,42.925117 Z M8.89235569,26.1622465 C8.50234009,26.5132605 8.47893916,27.1216849 8.84555382,27.5039002 L9.27457098,27.9563183 C9.62558502,28.3229329 10.1950078,28.3463339 10.5772231,28.0109204 C12.5897036,26.2168487 14.9219969,24.8205928 17.449298,23.8923557 L15.2106084,22.1294852 C12.9485179,23.1201248 10.8112324,24.4539782 8.89235569,26.1622465 Z" id="Shape" fill="#4A81FD" fill-rule="nonzero"></path>
    </g>
</svg>