<?xml version="1.0" encoding="UTF-8"?>
<svg width="50px" height="50px" viewBox="0 0 50 50" version="1.1" xmlns="http://www.w3.org/2000/svg" xmlns:xlink="http://www.w3.org/1999/xlink">
    <!-- Generator: Sketch 53.2 (72643) - https://sketchapp.com -->
    <title>AT/ICO/FA-Download@2x</title>
    <desc>Created with Sketch.</desc>
    <g id="AT/ICO/FA-Download" stroke="none" stroke-width="1" fill="none" fill-rule="evenodd">
        <path d="M42.8950893,25.8928571 L26.3772321,42.4665179 C25.8526786,42.9910714 25.0044643,42.9910714 24.4799107,42.4665179 L7.96205357,25.8928571 C7.4375,25.3683036 7.4375,24.5200893 7.96205357,23.9955357 L8.75446429,23.203125 C9.27901786,22.6785714 10.1272321,22.6785714 10.6517857,23.203125 L23.53125,36.1495536 L23.53125,1.33928571 C23.53125,0.602678571 24.1339286,0 24.8705357,0 L25.9866071,0 C26.7232143,0 27.3258929,0.602678571 27.3258929,1.33928571 L27.3258929,36.1495536 L40.2053571,23.2142857 C40.7299107,22.6897321 41.578125,22.6897321 42.1026786,23.2142857 L42.8950893,24.0066964 C43.4196429,24.5200893 43.4196429,25.3683036 42.8950893,25.8928571 Z M46.8571429,48.6607143 L46.8571429,47.7678571 C46.8571429,47.03125 46.2544643,46.4285714 45.5178571,46.4285714 L5.33928571,46.4285714 C4.60267857,46.4285714 4,47.03125 4,47.7678571 L4,48.6607143 C4,49.3973214 4.60267857,50 5.33928571,50 L45.5178571,50 C46.2544643,50 46.8571429,49.3973214 46.8571429,48.6607143 Z" fill="#4A81FD" fill-rule="nonzero"></path>
    </g>
</svg>