<?xml version="1.0" encoding="UTF-8"?>
<svg width="50px" height="50px" viewBox="0 0 50 50" version="1.1" xmlns="http://www.w3.org/2000/svg" xmlns:xlink="http://www.w3.org/1999/xlink">
    <!-- Generator: Sketch 53.2 (72643) - https://sketchapp.com -->
    <title>AT/ICO/FA-Lock@2x</title>
    <desc>Created with Sketch.</desc>
    <g id="AT/ICO/FA-Lock" stroke="none" stroke-width="1" fill="none" fill-rule="evenodd">
        <path d="M24.8323587,41.0331384 C23.7602339,41.0331384 22.8830409,40.1559454 22.8830409,39.0838207 L22.8830409,32.8460039 C22.8830409,31.7738791 23.7602339,30.8966862 24.8323587,30.8966862 C25.9044834,30.8966862 26.7816764,31.7738791 26.7816764,32.8460039 L26.7816764,39.0838207 C26.7816764,40.1559454 25.9044834,41.0331384 24.8323587,41.0331384 Z M46.6647173,26.6081871 L46.6647173,45.3216374 C46.6647173,47.9044834 44.5692008,50 41.9863548,50 L7.67836257,50 C5.09551657,50 3,47.9044834 3,45.3216374 L3,26.6081871 C3,24.0253411 5.09551657,21.9298246 7.67836257,21.9298246 L9.23781676,21.9298246 L9.23781676,15.6920078 C9.23781676,7.07602339 16.2553606,0.0682261209 24.8810916,0.0974658869 C33.497076,0.126705653 40.4269006,7.22222222 40.4269006,15.8382066 L40.4269006,21.9298246 L41.9863548,21.9298246 C44.5692008,21.9298246 46.6647173,24.0253411 46.6647173,26.6081871 Z M12.3567251,21.9298246 L37.3079922,21.9298246 L37.3079922,15.6920078 C37.3079922,8.81091618 31.7134503,3.21637427 24.8323587,3.21637427 C17.9512671,3.21637427 12.3567251,8.81091618 12.3567251,15.6920078 L12.3567251,21.9298246 Z M43.545809,45.3216374 L43.545809,26.6081871 C43.545809,25.7504873 42.8440546,25.0487329 41.9863548,25.0487329 L7.67836257,25.0487329 C6.82066277,25.0487329 6.11890838,25.7504873 6.11890838,26.6081871 L6.11890838,45.3216374 C6.11890838,46.1793372 6.82066277,46.8810916 7.67836257,46.8810916 L41.9863548,46.8810916 C42.8440546,46.8810916 43.545809,46.1793372 43.545809,45.3216374 Z" id="Shape" fill="#4A81FD" fill-rule="nonzero"></path>
    </g>
</svg>