<?xml version="1.0" encoding="UTF-8"?>
<svg width="50px" height="50px" viewBox="0 0 50 50" version="1.1" xmlns="http://www.w3.org/2000/svg" xmlns:xlink="http://www.w3.org/1999/xlink">
    <!-- Generator: Sketch 53.2 (72643) - https://sketchapp.com -->
    <title>AT/ICO/FA-mask@2x</title>
    <desc>Created with Sketch.</desc>
    <g id="AT/ICO/FA-mask" stroke="none" stroke-width="1" fill="none" fill-rule="evenodd">
        <path d="M25.0523437,10 C-9.52578125,10 -2.8828125,40 12.6726562,40 C15.7898437,40 18.725,38.3835938 20.5960937,35.6359375 L22.60625,32.6835938 C23.2179687,31.7851562 24.1351563,31.3359375 25.0523437,31.3359375 C25.9695312,31.3359375 26.8875,31.7851562 27.4984375,32.6835938 L29.5085937,35.6359375 C31.3796875,38.3835938 34.3148438,40 37.4320313,40 C52.2648437,40 60.1375,10 25.0523437,10 Z M37.4320312,37.2726562 C35.11875,37.2726562 32.9070312,36.053125 31.5164062,34.0101563 L29.50625,31.0578125 C28.446875,29.5015625 26.8234375,28.609375 25.053125,28.609375 C23.2820312,28.609375 21.659375,29.5015625 20.6,31.0578125 L18.5898437,34.0101563 C17.1992187,36.053125 14.9875,37.2726562 12.6734375,37.2726562 C6.5875,37.2726562 2.5,31.6046875 2.5,26.3101562 C2.5,23.8851563 3.30078125,20.3734375 7.11484375,17.4101562 C11.0585937,14.3460937 17.2609375,12.7273437 25.0523437,12.7273437 C32.8695312,12.7273437 39.0640625,14.3125 42.9671875,17.3101562 C46.7132812,20.1882812 47.5,23.6421875 47.5,26.0320312 C47.5,31.3484375 43.365625,37.2726562 37.4320312,37.2726562 Z M15,19.5453125 C11.3335937,19.5453125 8.95,21.8835938 7.85,23.2867187 C7.38359375,23.8820313 7.38359375,24.7539062 7.85,25.3484375 C8.95,26.7515625 11.3335937,29.0898437 15,29.0898437 C18.6664062,29.0898437 21.05,26.7515625 22.15,25.3484375 C22.6164063,24.753125 22.6164063,23.88125 22.15,23.2867187 C21.05,21.8835937 18.6664062,19.5453125 15,19.5453125 Z M15,26.3632813 C12.9039062,26.3632813 11.3640625,25.2851562 10.4046875,24.3179688 C11.3640625,23.3507813 12.9046875,22.2726563 15,22.2726563 C17.0953125,22.2726563 18.6359375,23.3507813 19.5953125,24.3179688 C18.6359375,25.2851562 17.0960937,26.3632813 15,26.3632813 Z M35,19.5453125 C31.3335937,19.5453125 28.95,21.8835938 27.85,23.2867187 C27.3835937,23.8820313 27.3835937,24.7539062 27.85,25.3484375 C28.95,26.7515625 31.3335938,29.0898437 35,29.0898437 C38.6664062,29.0898437 41.05,26.7515625 42.15,25.3484375 C42.6164063,24.753125 42.6164063,23.88125 42.15,23.2867187 C41.05,21.8835937 38.6664062,19.5453125 35,19.5453125 Z M35,26.3632813 C32.9039062,26.3632813 31.3640625,25.2851562 30.4046875,24.3179688 C31.3640625,23.3507813 32.9046875,22.2726563 35,22.2726563 C37.0960937,22.2726563 38.6359375,23.3507813 39.5953125,24.3179688 C38.6359375,25.2851562 37.0960937,26.3632813 35,26.3632813 Z" id="Shape" fill="#4A81FD" fill-rule="nonzero"></path>
    </g>
</svg>