<?xml version="1.0" encoding="UTF-8"?>
<svg width="50px" height="50px" viewBox="0 0 50 50" version="1.1" xmlns="http://www.w3.org/2000/svg" xmlns:xlink="http://www.w3.org/1999/xlink">
    <!-- Generator: Sketch 53.2 (72643) - https://sketchapp.com -->
    <title>AT/ICO/FA-Question-circle@2x</title>
    <desc>Created with Sketch.</desc>
    <g id="AT/ICO/FA-Question-circle" stroke="none" stroke-width="1" fill="none" fill-rule="evenodd">
        <path d="M25,33.4677419 C23.441129,33.4677419 22.1774194,34.7314516 22.1774194,36.2903226 C22.1774194,37.8491935 23.441129,39.1129032 25,39.1129032 C26.558871,39.1129032 27.8225806,37.8491935 27.8225806,36.2903226 C27.8225806,34.7314516 26.558871,33.4677419 25,33.4677419 Z M25.7731855,31.0483871 L24.1602823,31.0483871 C23.4922379,31.0483871 22.9506048,30.506754 22.9506048,29.8387097 L22.9506048,29.8003024 C22.9506048,22.7092742 30.7570565,23.3870968 30.7570565,18.9728831 C30.7570565,16.9551411 28.9666331,14.9193548 24.9667339,14.9193548 C22.0288306,14.9193548 20.5045363,15.8920363 18.9978831,17.8116935 C18.6039315,18.3137097 17.8835685,18.4160282 17.3599798,18.0512097 L16.0359879,17.1288306 C15.4689516,16.7337702 15.3444556,15.9422379 15.7693548,15.3972782 C17.9090726,12.652621 20.4477823,10.8870968 24.9667339,10.8870968 C30.2409274,10.8870968 34.7893145,13.8861895 34.7893145,18.9728831 C34.7893145,25.7686492 26.9828629,25.4092742 26.9828629,29.8003024 L26.9828629,29.8387097 C26.9828629,30.506754 26.4412298,31.0483871 25.7731855,31.0483871 Z M25,3.22580645 C36.9577621,3.22580645 46.7741935,12.9107863 46.7741935,25 C46.7741935,37.0253024 37.0352823,46.7741935 25,46.7741935 C12.9794355,46.7741935 3.22580645,37.040121 3.22580645,25 C3.22580645,12.9835685 12.9639113,3.22580645 25,3.22580645 L25,3.22580645 Z M25,0 C11.1938508,0 0,11.1978831 0,25 C0,38.8101815 11.1938508,50 25,50 C38.8061492,50 50,38.8101815 50,25 C50,11.1978831 38.8061492,0 25,0 Z" fill="#4A81FD" fill-rule="nonzero"></path>
    </g>
</svg>