<?xml version="1.0" encoding="UTF-8"?>
<svg width="50px" height="50px" viewBox="0 0 50 50" version="1.1" xmlns="http://www.w3.org/2000/svg" xmlns:xlink="http://www.w3.org/1999/xlink">
    <!-- Generator: Sketch 53.2 (72643) - https://sketchapp.com -->
    <title>AT/ICO/FA-Tachometer-alt-fast@2x</title>
    <desc>Created with Sketch.</desc>
    <g id="AT/ICO/FA-Tachometer-alt-fast" stroke="none" stroke-width="1" fill="none" fill-rule="evenodd">
        <path d="M10.4166667,31 C10.4166667,32.1510417 9.484375,33.0833333 8.33333333,33.0833333 C7.18229167,33.0833333 6.25,32.1510417 6.25,31 C6.25,29.8489583 7.18229167,28.9166667 8.33333333,28.9166667 C9.484375,28.9166667 10.4166667,29.8489583 10.4166667,31 Z M25,16.4166667 C26.1510417,16.4166667 27.0833333,15.484375 27.0833333,14.3333333 C27.0833333,13.1822917 26.1510417,12.25 25,12.25 C23.8489583,12.25 22.9166667,13.1822917 22.9166667,14.3333333 C22.9166667,15.484375 23.8489583,16.4166667 25,16.4166667 Z M13.1944444,17.1111111 C12.0434028,17.1111111 11.1111111,18.0434028 11.1111111,19.1944444 C11.1111111,20.3454861 12.0434028,21.2777778 13.1944444,21.2777778 C14.3454861,21.2777778 15.2777778,20.3454861 15.2777778,19.1944444 C15.2777778,18.0434028 14.3454861,17.1111111 13.1944444,17.1111111 Z M37.6788194,18.1145833 C38.2760417,18.5972222 38.3680556,19.4722222 37.8854167,20.0677083 L29.453125,30.484375 C30.1371528,31.4079861 30.5555556,32.5399306 30.5555556,33.7777778 C30.5555556,36.8463542 28.0685764,39.3333333 25,39.3333333 C21.9314236,39.3333333 19.4444444,36.8463542 19.4444444,33.7777778 C19.4444444,30.7092014 21.9314236,28.2222222 25,28.2222222 C25.8220486,28.2222222 26.5954861,28.4114583 27.2977431,28.7326389 L35.7256944,18.3211806 C36.2083333,17.7239583 37.0798611,17.6336806 37.6788194,18.1145833 L37.6788194,18.1145833 Z M27.7777778,33.7777778 C27.7777778,32.2439236 26.5338542,31 25,31 C23.4661458,31 22.2222222,32.2439236 22.2222222,33.7777778 C22.2222222,35.3116319 23.4661458,36.5555556 25,36.5555556 C26.5338542,36.5555556 27.7777778,35.3116319 27.7777778,33.7777778 Z M41.6666667,28.9166667 C40.515625,28.9166667 39.5833333,29.8489583 39.5833333,31 C39.5833333,32.1510417 40.515625,33.0833333 41.6666667,33.0833333 C42.8177083,33.0833333 43.75,32.1510417 43.75,31 C43.75,29.8489583 42.8177083,28.9166667 41.6666667,28.9166667 Z M50,31 C50,35.5833333 48.7630208,39.8767361 46.609375,43.5694444 C46.1223958,44.4045139 45.1944444,44.8888889 44.2274306,44.8888889 L5.77256944,44.8888889 C4.80555556,44.8888889 3.87760417,44.4045139 3.390625,43.5694444 C1.23697917,39.8767361 0,35.5833333 0,31 C0,17.1927083 11.1927083,6 25,6 C38.8072917,6 50,17.1927083 50,31 Z M47.2222222,31 C47.2222222,18.7465278 37.2534722,8.77777778 25,8.77777778 C12.7465278,8.77777778 2.77777778,18.7465278 2.77777778,31 C2.77777778,34.9288194 3.81944444,38.7907986 5.78993056,42.1701389 L44.2274306,42.1111111 C46.1805556,38.7907986 47.2222222,34.9288194 47.2222222,31 Z" fill="#4A81FD" fill-rule="nonzero"></path>
    </g>
</svg>