<?xml version="1.0" encoding="UTF-8"?>
<svg width="50px" height="50px" viewBox="0 0 50 50" version="1.1" xmlns="http://www.w3.org/2000/svg" xmlns:xlink="http://www.w3.org/1999/xlink">
    <!-- Generator: Sketch 53.2 (72643) - https://sketchapp.com -->
    <title>AT/ICO/FA-User-headset@2x</title>
    <desc>Created with Sketch.</desc>
    <g id="AT/ICO/FA-User-headset" stroke="none" stroke-width="1" fill="none" fill-rule="evenodd">
        <path d="M34.25,34.375 L33.7910156,34.375 C32.6035156,34.375 31.4472656,34.6582031 30.3242188,35.0390625 C26.7890389,36.238296 22.9570548,36.238296 19.421875,35.0390625 C18.3007813,34.6582031 17.1474609,34.3769531 15.9628906,34.3769531 L15.5,34.3769531 C8.5972033,34.376953 3.00107856,39.9722034 3,46.875 C3,48.6008898 4.39911016,50 6.125,50 L43.625,50 C45.3508898,50 46.75,48.6008898 46.75,46.875 C46.75,39.9714406 41.1535594,34.375 34.25,34.375 Z M6.125,46.875 C6.13038268,41.6995617 10.3245617,37.5053827 15.5,37.5 L15.9628906,37.5 C16.6386719,37.5 17.4199219,37.6582031 18.4199219,37.9970703 C22.6049483,39.41635 27.1411455,39.41635 31.3261719,37.9970703 C32.3330078,37.65625 33.1162109,37.4980469 33.7910156,37.4980469 L34.25,37.4980469 C39.4254383,37.5034296 43.6196173,41.6976086 43.625,46.8730469 L6.125,46.875 Z M7.6875,21.875 C8.55044492,21.875 9.25,21.1754449 9.25,20.3125 L9.25,18.75 C9.25,10.1347656 16.2597656,3.125 24.875,3.125 C33.4902344,3.125 40.5,10.1347656 40.5,18.75 L40.5,20.3125 C40.4951564,24.6252167 37.0002167,28.1201564 32.6875,28.125 L29.5625,28.125 C29.5625,26.3991102 28.1633898,25 26.4375,25 L23.3125,25 C21.5866102,25 20.1875,26.3991102 20.1875,28.125 C20.1875,29.8508898 21.5866102,31.25 23.3125,31.25 L32.6875,31.25 C38.7249915,31.2424673 43.6174673,26.3499915 43.625,20.3125 L43.625,18.75 C43.625,8.41015625 35.2148438,0 24.875,0 C14.5351562,0 6.125,8.41015625 6.125,18.75 L6.125,20.3125 C6.125,21.1754449 6.82455508,21.875 7.6875,21.875 Z M24.875,9.375 C28.5743778,9.35849365 31.9343237,11.5285794 33.4407807,14.9073745 C34.9472377,18.2861695 34.3158192,22.2358301 31.8310547,24.9765625 C31.8310547,24.9853516 31.84375,24.9912109 31.8486328,25 L32.6875,25 C34.2992725,24.9964525 35.7956365,24.1632121 36.6474609,22.7949219 C37.0820312,21.5195313 37.375,20.1738281 37.375,18.75 C37.375,11.8464406 31.7785594,6.25 24.875,6.25 C17.9714406,6.25 12.375,11.8464406 12.375,18.75 C12.375,22.6972656 14.2402344,26.171875 17.0966797,28.4638672 C17.0908203,28.3496094 17.0625,28.2412109 17.0625,28.125 C17.0695368,27.0242352 17.3706134,25.9453493 17.9345703,25 C15.4368624,22.2624262 14.7952077,18.3065291 16.2995435,14.9198155 C17.8038794,11.5331019 21.1692566,9.35707829 24.875,9.375 L24.875,9.375 Z" fill="#4A81FD" fill-rule="nonzero"></path>
    </g>
</svg>