<?xml version="1.0" encoding="UTF-8"?>
<svg width="50px" height="50px" viewBox="0 0 50 50" version="1.1" xmlns="http://www.w3.org/2000/svg" xmlns:xlink="http://www.w3.org/1999/xlink">
    <!-- Generator: Sketch 53.2 (72643) - https://sketchapp.com -->
    <title>AT/ICO/FA-Video@2x</title>
    <desc>Created with Sketch.</desc>
    <g id="AT/ICO/FA-Video" stroke="none" stroke-width="1" fill="none" fill-rule="evenodd">
        <path d="M47.2135417,10.7777778 C46.6753472,10.7777778 46.1284722,10.9340278 45.6336806,11.2725694 L36.1111111,17.3402778 L36.1111111,12.1493056 C36.1111111,9.85763889 34.0972222,8 31.6145833,8 L4.49652778,8 C2.01388889,8 0,9.85763889 0,12.1493056 L0,37.1840278 C0,39.4756944 2.01388889,41.3333333 4.49652778,41.3333333 L31.6145833,41.3333333 C34.0972222,41.3333333 36.1111111,39.4756944 36.1111111,37.1840278 L36.1111111,31.9930556 L45.625,38.0607639 C46.1197917,38.4079861 46.6753472,38.5555556 47.2048611,38.5555556 C48.6458333,38.5555556 49.9913194,37.4270833 49.9913194,35.8211806 L49.9913194,13.5121528 C50,11.90625 48.6545139,10.7777778 47.2135417,10.7777778 L47.2135417,10.7777778 Z M33.3333333,37.1840278 C33.3333333,37.9305556 32.5434028,38.5555556 31.6145833,38.5555556 L4.49652778,38.5555556 C3.56770833,38.5555556 2.77777778,37.9305556 2.77777778,37.1840278 L2.77777778,12.1493056 C2.77777778,11.4027778 3.56770833,10.7777778 4.49652778,10.7777778 L31.6145833,10.7777778 C32.5434028,10.7777778 33.3333333,11.4027778 33.3333333,12.1493056 L33.3333333,37.1840278 Z M47.2222222,35.8211806 L47.1180556,35.7083333 L36.1111111,28.6944444 L36.1111111,20.6302083 L47.2222222,13.5555556 L47.2222222,35.8211806 Z" id="AT/ICO/FA-video" fill="#4A81FD" fill-rule="nonzero"></path>
    </g>
</svg>