<?xml version="1.0" encoding="UTF-8"?>
<svg width="50px" height="50px" viewBox="0 0 50 50" version="1.1" xmlns="http://www.w3.org/2000/svg" xmlns:xlink="http://www.w3.org/1999/xlink">
    <!-- Generator: Sketch 53.2 (72643) - https://sketchapp.com -->
    <title>AT/ICO/LE-Active-pen-battery@2x</title>
    <desc>Created with Sketch.</desc>
    <g id="AT/ICO/LE-Active-pen-battery" stroke="none" stroke-width="1" fill="none" fill-rule="evenodd">
        <path d="M43.75,15.5 L3.75,15.5 C3.06070312,15.5 2.5,16.0607031 2.5,16.75 L2.5,34.25 C2.5,34.9392969 3.06070312,35.5 3.75,35.5 L43.75,35.5 C44.4392969,35.5 45,34.9392969 45,34.25 L45,30.5 L47.5,30.5 L47.5,20.5 L45,20.5 L45,16.75 C45,16.0607031 44.4392969,15.5 43.75,15.5 Z M43.75,13 C45.8210937,13 47.5,14.6789062 47.5,16.75 L47.5,18 L48.125,18 C49.1605469,18 50,18.8394531 50,19.875 L50,31.125 C50,32.1605469 49.1605469,33 48.125,33 L47.5,33 L47.5,34.25 C47.5,36.3210938 45.8210937,38 43.75,38 L3.75,38 C1.67890625,38 0,36.3210938 0,34.25 L0,16.75 C0,14.6789062 1.67890625,13 3.75,13 L43.75,13 Z M30,30.03125 C30,30.2901335 29.7901335,30.5 29.53125,30.5 L27.96875,30.5 C27.7098665,30.5 27.5,30.2901335 27.5,30.03125 L27.5,20.96875 C27.5,20.7098665 27.7098665,20.5 27.96875,20.5 L29.53125,20.5 C29.7901335,20.5 30,20.7098665 30,20.96875 L30,30.03125 Z M35,30.03125 C35,30.2901335 34.7901335,30.5 34.53125,30.5 L32.96875,30.5 C32.7098665,30.5 32.5,30.2901335 32.5,30.03125 L32.5,20.96875 C32.5,20.7098665 32.7098665,20.5 32.96875,20.5 L34.53125,20.5 C34.7901335,20.5 35,20.7098665 35,20.96875 L35,30.03125 Z M25,30.03125 C25,30.2901335 24.7901335,30.5 24.53125,30.5 L22.96875,30.5 C22.7098665,30.5 22.5,30.2901335 22.5,30.03125 L22.5,20.96875 C22.5,20.7098665 22.7098665,20.5 22.96875,20.5 L24.53125,20.5 C24.7901335,20.5 25,20.7098665 25,20.96875 L25,30.03125 Z M13.6785796,21.8209772 L16.1789049,24.321409 L10.7495544,29.7509905 L8.52031573,29.9970883 C8.22188601,30.0300966 7.96974416,29.7777487 8.00294641,29.4793063 L8.25098682,27.2484103 L13.6785796,21.8209772 Z M17.725349,21.4487055 C18.0915503,21.8149224 18.0915503,22.4086822 17.725349,22.7750945 L16.6208856,23.8796048 L14.1205602,21.3791731 L15.2250236,20.2746627 C15.591225,19.9084458 16.1851548,19.9084458 16.5513562,20.2746627 L17.725349,21.4487055 Z" fill="#4A81FD" fill-rule="nonzero"></path>
    </g>
</svg>