<?xml version="1.0" encoding="UTF-8"?>
<svg width="50px" height="50px" viewBox="0 0 50 50" version="1.1" xmlns="http://www.w3.org/2000/svg" xmlns:xlink="http://www.w3.org/1999/xlink">
    <!-- Generator: Sketch 53.2 (72643) - https://sketchapp.com -->
    <title>AT/ICO/LE-Battery-gauge-reset@2x</title>
    <desc>Created with Sketch.</desc>
    <g id="AT/ICO/LE-Battery-gauge-reset" stroke="none" stroke-width="1" fill="none" fill-rule="evenodd">
        <path d="M43.75,15.5 L3.75,15.5 C3.06070312,15.5 2.5,16.0607031 2.5,16.75 L2.5,34.25 C2.5,34.9392969 3.06070312,35.5 3.75,35.5 L43.75,35.5 C44.4392969,35.5 45,34.9392969 45,34.25 L45,30.5 L47.5,30.5 L47.5,20.5 L45,20.5 L45,16.75 C45,16.0607031 44.4392969,15.5 43.75,15.5 Z M43.75,13 C45.8210937,13 47.5,14.6789062 47.5,16.75 L47.5,18 L48.125,18 C49.1605469,18 50,18.8394531 50,19.875 L50,31.125 C50,32.1605469 49.1605469,33 48.125,33 L47.5,33 L47.5,34.25 C47.5,36.3210938 45.8210937,38 43.75,38 L3.75,38 C1.67890625,38 0,36.3210938 0,34.25 L0,16.75 C0,14.6789062 1.67890625,13 3.75,13 L43.75,13 Z M30,30.03125 C30,30.2901335 29.7901335,30.5 29.53125,30.5 L27.96875,30.5 C27.7098665,30.5 27.5,30.2901335 27.5,30.03125 L27.5,20.96875 C27.5,20.7098665 27.7098665,20.5 27.96875,20.5 L29.53125,20.5 C29.7901335,20.5 30,20.7098665 30,20.96875 L30,30.03125 Z M35,30.03125 C35,30.2901335 34.7901335,30.5 34.53125,30.5 L32.96875,30.5 C32.7098665,30.5 32.5,30.2901335 32.5,30.03125 L32.5,20.96875 C32.5,20.7098665 32.7098665,20.5 32.96875,20.5 L34.53125,20.5 C34.7901335,20.5 35,20.7098665 35,20.96875 L35,30.03125 Z M25,30.03125 C25,30.2901335 24.7901335,30.5 24.53125,30.5 L22.96875,30.5 C22.7098665,30.5 22.5,30.2901335 22.5,30.03125 L22.5,20.96875 C22.5,20.7098665 22.7098665,20.5 22.96875,20.5 L24.53125,20.5 C24.7901335,20.5 25,20.7098665 25,20.96875 L25,30.03125 Z M20,30.03125 C20,30.2901335 19.7901335,30.5 19.53125,30.5 L17.96875,30.5 C17.7098665,30.5 17.5,30.2901335 17.5,30.03125 L17.5,20.96875 C17.5,20.7098665 17.7098665,20.5 17.96875,20.5 L19.53125,20.5 C19.7901335,20.5 20,20.7098665 20,20.96875 L20,30.03125 Z M9.54936412,24.3230117 C9.11594132,24.7564345 8.90662856,25.2647655 8.90662856,25.8868238 C8.90662856,26.5088821 9.11594132,27.0172131 9.54936412,27.4506359 C9.98278692,27.8840587 10.4911179,28.0933714 11.1131762,28.0933714 C11.7352345,28.0933714 12.2435655,27.8840587 12.6769883,27.4506359 C13.1104111,27.0172131 13.3197239,26.5088821 13.3197239,25.8868238 L13.3197239,25.2012944 L15.2263524,25.2012944 L15.2263524,25.8868238 C15.2263524,27.0155287 14.8144391,28.0019527 14.0079829,28.8084089 C13.2184165,29.5979752 12.2405185,30 11.1131762,30 C9.98515263,30 9.00298515,29.5930245 8.20498031,28.7950197 C7.40697548,27.9970148 7,27.0148474 7,25.8868238 C7,24.7588002 7.40697548,23.7766327 8.20498031,22.9786279 C8.83677092,22.3468373 9.58399634,21.9601474 10.4276468,21.8264716 L10.4276468,20 L14.9779462,23.0335329 L10.4276468,25.6878743 L10.4276468,23.7789227 C10.1016801,23.8803163 9.81179136,24.0605845 9.54936412,24.3230117 Z" fill="#4A81FD" fill-rule="nonzero"></path>
    </g>
</svg>