<?xml version="1.0" encoding="UTF-8"?>
<svg width="50px" height="50px" viewBox="0 0 50 50" version="1.1" xmlns="http://www.w3.org/2000/svg" xmlns:xlink="http://www.w3.org/1999/xlink">
    <!-- Generator: Sketch 53.2 (72643) - https://sketchapp.com -->
    <title>AT/ICO/LE-Battery-charge-treshold@2x</title>
    <desc>Created with Sketch.</desc>
    <g id="AT/ICO/LE-Battery-charge-treshold" stroke="none" stroke-width="1" fill="none" fill-rule="evenodd">
        <path d="M43.75,15.5 L3.75,15.5 C3.06070312,15.5 2.5,16.0607031 2.5,16.75 L2.5,34.25 C2.5,34.9392969 3.06070312,35.5 3.75,35.5 L43.75,35.5 C44.4392969,35.5 45,34.9392969 45,34.25 L45,30.5 L47.5,30.5 L47.5,20.5 L45,20.5 L45,16.75 C45,16.0607031 44.4392969,15.5 43.75,15.5 Z M43.75,13 C45.8210937,13 47.5,14.6789062 47.5,16.75 L47.5,18 L48.125,18 C49.1605469,18 50,18.8394531 50,19.875 L50,31.125 C50,32.1605469 49.1605469,33 48.125,33 L47.5,33 L47.5,34.25 C47.5,36.3210938 45.8210937,38 43.75,38 L3.75,38 C1.67890625,38 0,36.3210938 0,34.25 L0,16.75 C0,14.6789062 1.67890625,13 3.75,13 L43.75,13 Z M30,30.03125 C30,30.2901335 29.7901335,30.5 29.53125,30.5 L27.96875,30.5 C27.7098665,30.5 27.5,30.2901335 27.5,30.03125 L27.5,20.96875 C27.5,20.7098665 27.7098665,20.5 27.96875,20.5 L29.53125,20.5 C29.7901335,20.5 30,20.7098665 30,20.96875 L30,30.03125 Z M35,30.03125 C35,30.2901335 34.7901335,30.5 34.53125,30.5 L32.96875,30.5 C32.7098665,30.5 32.5,30.2901335 32.5,30.03125 L32.5,20.96875 C32.5,20.7098665 32.7098665,20.5 32.96875,20.5 L34.53125,20.5 C34.7901335,20.5 35,20.7098665 35,20.96875 L35,30.03125 Z M25,30.03125 C25,30.2901335 24.7901335,30.5 24.53125,30.5 L22.96875,30.5 C22.7098665,30.5 22.5,30.2901335 22.5,30.03125 L22.5,20.96875 C22.5,20.7098665 22.7098665,20.5 22.96875,20.5 L24.53125,20.5 C24.7901335,20.5 25,20.7098665 25,20.96875 L25,30.03125 Z M17.3239583,20.9613256 C17.731875,21.13478 18,21.5449763 18,21.9997081 C18,27.1869328 14.885625,30.0770584 12.9216667,30.9138588 C12.65125,31.0287137 12.3464583,31.0287137 12.0760417,30.9138588 C9.62395833,29.8684443 7,26.6525057 7,21.9997081 C7,21.5449763 7.268125,21.13478 7.67833333,20.9613256 L12.0783333,19.0861427 C12.3490244,18.9712858 12.6532672,18.9712858 12.9239583,19.0861427 L17.3239583,20.9613256 Z M12.6420833,30.2223851 C14.8833333,29.3129214 17.2666667,26.1251105 17.264375,21.9997081 C17.2666667,21.8473495 17.1772917,21.7113987 17.0397917,21.6527993 L12.6397917,19.7776164 C12.5504167,19.7401127 12.4472917,19.7401127 12.3579167,19.7776164 L7.95791667,21.6527993 C7.82270833,21.7113987 7.73333333,21.8473495 7.73333333,21.9997081 C7.73333333,26.1251105 10.1166667,29.3129214 12.3602083,30.2223851 C12.4495833,30.2598888 12.5504167,30.2598888 12.6420833,30.2223851 Z M15.7633333,22.6044546 L15.958125,22.8060368 C16.0635417,22.9162038 16.0635417,23.0943461 15.9558333,23.2045131 L11.819375,27.4002348 C11.7116667,27.5080579 11.5375,27.5080579 11.4297917,27.3978909 L9.46125,25.3680054 C9.35583333,25.2578384 9.35583333,25.079696 9.46354167,24.969529 L9.65833333,24.7702908 C9.76604167,24.6624678 9.94020833,24.6624678 10.0479167,24.7726348 L11.6291667,26.4017 L15.37375,22.6021106 C15.4814583,22.4942876 15.655625,22.4942876 15.7633333,22.6044546 Z" id="AT/ICO/LE-Always-on-usb" fill="#4A81FD" fill-rule="nonzero"></path>
    </g>
</svg>