<?xml version="1.0" encoding="UTF-8"?>
<svg width="50px" height="50px" viewBox="0 0 50 50" version="1.1" xmlns="http://www.w3.org/2000/svg" xmlns:xlink="http://www.w3.org/1999/xlink">
    <!-- Generator: Sketch 53.2 (72643) - https://sketchapp.com -->
    <title>AT/ICO/LE-ChargeFromShutdown@2x</title>
    <desc>Created with Sketch.</desc>
    <g id="AT/ICO/LE-ChargeFromShutdown" stroke="none" stroke-width="1" fill="none" fill-rule="evenodd">
        <path d="M48.75,32.25 C49.440625,32.25 50,32.809375 50,33.5 L50,37.25 C50,40.6960938 47.196875,43.5 43.75,43.5 L6.25,43.5 C2.803125,43.5 0,40.6960938 0,37.25 L0,33.5 C0,32.809375 0.559375,32.25 1.25,32.25 L5,32.25 L5,11 C5,8.2421875 7.24375,6 10,6 L40,6 C42.75625,6 45,8.2421875 45,11 L45,32.25 L48.75,32.25 Z M7.5,11 L7.5,32.25 L19.4429688,32.25 C19.7601563,32.25 19.9914063,32.4945312 20.0617188,32.8039062 C20.3140625,33.9179688 21.3101562,34.75 22.5,34.75 L27.5,34.75 C28.6898438,34.75 29.6859375,33.9179688 29.9382812,32.8039062 C30.0085937,32.4945312 30.2398437,32.25 30.5570313,32.25 L42.5,32.25 L42.5,11 C42.5,9.61953125 41.3804687,8.5 40,8.5 L10,8.5 C8.61953125,8.5 7.5,9.61953125 7.5,11 Z M47.5,37.25 L47.5,34.75 L32.2851562,34.75 C31.7703125,36.2046875 30.38125,37.25 28.75,37.25 L21.25,37.25 C19.6195313,37.25 18.2296875,36.2046875 17.7148438,34.75 L2.5,34.75 L2.5,37.25 C2.5,39.3179688 4.18203125,41 6.25,41 L43.75,41 C45.8179688,41 47.5,39.3179688 47.5,37.25 Z M33.1781191,21.319451 C33.626524,21.5783377 33.7801546,22.1516949 33.5212679,22.6000998 L32.5837679,24.2238974 C32.3248812,24.6723024 31.751524,24.825933 31.3031191,24.5670463 L31.0324861,24.4107963 C29.412076,27.217429 25.9435835,28.2916747 23.0516011,26.9840947 L21.1610932,30.2585503 L20.0785615,29.6335503 L21.9690693,26.3590947 C19.3906805,24.5083544 18.5867584,20.967429 20.2071686,18.1607963 L19.9365356,18.0045463 C19.4881307,17.7456595 19.3345001,17.1723024 19.5933868,16.7238974 L20.5308868,15.1000998 C20.7897736,14.6516949 21.3631307,14.4980643 21.8115356,14.756951 L33.1781191,21.319451 Z M31.6574861,23.3282645 L32.2824861,22.2457328 L21.4571686,15.9957328 L20.8321686,17.0782645 L21.9147003,17.7032645 L21.2897003,18.7857963 C19.9078449,21.1792401 20.7267556,24.2342827 23.1198274,25.6159233 C25.5132712,26.9977788 28.5683138,26.178868 29.9499544,23.7857963 L30.5749544,22.7032645 L31.6574861,23.3282645 Z M30.5136567,19.0594351 L33.0136567,14.7293081 C33.1862544,14.4303602 33.5684747,14.3279446 33.8674226,14.5005422 C34.1663705,14.6731399 34.2687862,15.0553602 34.0961885,15.3543081 L31.5961885,19.6844351 L30.5136567,19.0594351 Z M24.0184662,15.3094351 L26.5184662,10.9793081 C26.6910639,10.6803602 27.0732842,10.5779446 27.3722321,10.7505422 C27.67118,10.9231399 27.7735956,11.3053602 27.600998,11.6043081 L25.100998,15.9344351 L24.0184662,15.3094351 Z" fill="#4A81FD" fill-rule="nonzero"></path>
    </g>
</svg>