<?xml version="1.0" encoding="UTF-8"?>
<svg width="50px" height="50px" viewBox="0 0 50 50" version="1.1" xmlns="http://www.w3.org/2000/svg" xmlns:xlink="http://www.w3.org/1999/xlink">
    <!-- Generator: Sketch 53.2 (72643) - https://sketchapp.com -->
    <title>AT/ICO/LE-Charging USB-- SS@2x</title>
    <desc>Created with Sketch.</desc>
    <g id="AT/ICO/LE-Charging-USB---SS" stroke="none" stroke-width="1" fill="none" fill-rule="evenodd">
        <path d="M25.1588844,15.4463438 C26.406408,15.3694293 28.4644447,15.1819087 28.8818254,14.8837796 C29.2836132,14.6025282 29.8059294,13.9596775 30.4487897,12.9552082 C31.292544,11.7096663 32.2166419,10.9061029 33.2211112,10.5444939 C33.8237927,10.3034213 34.6072671,10.1226195 35.5715576,10.0020832 C35.8929878,9.96190443 36.1139677,9.88154809 36.234504,9.76101178 C36.6362917,9.11815142 37.1987861,8.79672606 37.922004,8.79672606 C38.4845068,8.79672606 38.9465558,8.97752783 39.3081647,9.33913678 C39.6697737,9.70074573 39.8505754,10.1627947 39.8505754,10.7252975 C39.8505754,11.2878003 39.6697737,11.7498493 39.3081647,12.1114582 C38.9465558,12.4730672 38.4845068,12.6538689 37.922004,12.6538689 C37.2389649,12.6538689 36.7166487,12.4127999 36.3550397,11.9306546 C36.2345034,11.7699395 35.9532562,11.6895832 35.5112897,11.6895832 C35.109502,11.6895832 34.5470076,11.8302068 33.8237897,12.1114582 C33.2612869,12.3927096 32.6787035,12.9150258 32.0760219,13.6784225 C31.4733403,14.4418192 31.172004,14.9641354 31.172004,15.2453868 C31.172004,15.566817 31.413073,15.7275296 31.8952183,15.7275296 L43.7077183,15.7275296 C43.7478971,15.7275296 43.8282534,15.6672624 43.9487897,15.5467261 L43.9487897,15.4864582 L44.0090576,15.4864582 C44.4108453,14.8837766 44.9532506,14.5824403 45.6362897,14.5824403 C46.1987925,14.5824403 46.6608415,14.7632421 47.0224504,15.1248511 C47.3840594,15.48646 47.5648612,15.948509 47.5648612,16.5110118 C47.5648612,17.0735146 47.3840594,17.5355635 47.0224504,17.8971725 C46.6608415,18.2587814 46.1987925,18.4395832 45.6362897,18.4395832 C44.9130718,18.4395832 44.3706665,18.158336 44.0090576,17.5958332 C43.9287,17.5154757 43.8282546,17.4752975 43.7077183,17.4752975 C41.1871199,17.4752975 39.2966712,17.4752975 38.036372,17.4752975 C37.4216712,17.4752975 36.4996199,17.4752975 35.2702183,17.4752975 C34.9889669,17.4752975 34.7981206,17.5054311 34.6976737,17.5656993 C34.5972267,17.6259674 34.5670931,17.7565465 34.6072719,17.9574403 C34.6876294,18.3592281 35.0492329,18.9518561 35.6920933,19.7353421 C36.3349537,20.5188282 36.8371808,20.9708326 37.1987897,21.0913689 C37.9621864,21.3324416 38.7858389,21.4730651 39.6697719,21.5132439 L39.7300397,21.5132439 L40.0916469,21.3324403 C40.4934346,20.68958 41.055929,20.3681546 41.7791469,20.3681546 C42.3416497,20.3681546 42.8036986,20.5489564 43.1653076,20.9105653 C43.5269165,21.2721743 43.7077183,21.7342233 43.7077183,22.2967261 C43.7077183,22.8592289 43.5269165,23.3212778 43.1653076,23.6828868 C42.8036986,24.0444957 42.3416497,24.2252975 41.7791469,24.2252975 C41.1362865,24.2252975 40.5938812,23.9440503 40.1519147,23.3815475 C40.111736,23.2610112 39.9711124,23.2007439 39.7300397,23.2007439 C38.4041402,23.1203864 37.399686,22.9395846 36.7166469,22.6583332 C35.6719988,22.2565455 34.7479009,21.4730712 33.9443254,20.3078868 C33.14075,19.1427024 32.4577211,18.4194953 31.8952183,18.1382439 C31.1318216,17.6962774 30.0671001,17.4752975 28.7010219,17.4752975 L25.9766535,17.4752975 C25.9922178,17.6294715 26,17.7874383 26,17.9491979 C26,19.2125732 25.5305926,20.2035392 24.5917637,20.9221257 C23.6529347,21.6407121 22.3891455,22 20.8003581,22 C19.6973982,22 18.692932,21.7944539 17.7869293,21.3833556 C16.8809265,20.9722573 16.1899457,20.4090945 15.713966,19.6938503 C15.2379863,18.978606 15,18.1497373 15,17.2072193 L17.9641898,17.2072193 C17.9641898,18.8181899 18.9095698,19.6236631 20.8003581,19.6236631 C21.5028385,19.6236631 22.0510276,19.4782769 22.4449418,19.1875 C22.838856,18.8967231 23.0358102,18.4906443 23.0358102,17.9692513 C23.0358102,17.4010667 22.838856,16.9649079 22.4449418,16.660762 C22.0510276,16.3566161 21.3419926,16.0357637 20.3178156,15.6981952 C19.2936386,15.3606267 18.4828439,15.0280765 17.8854073,14.7005348 C16.2572285,13.8048084 15.4431513,12.5982696 15.4431513,11.0808824 C15.4431513,10.2921084 15.6614422,9.58857261 16.0980304,8.97025401 C16.5346187,8.35193541 17.1615895,7.8689857 17.9789615,7.52139037 C18.7963335,7.17379505 19.7138117,7 20.7314235,7 C21.7556005,7 22.6681548,7.18883501 23.4691137,7.5665107 C24.2700726,7.94418638 24.8921195,8.47726928 25.3352731,9.1657754 C25.7784266,9.85428152 26,10.6363593 26,11.5120321 L23.045658,11.5120321 C23.045658,10.8435795 22.8388561,10.3238655 22.4252462,9.95287433 C22.0116362,9.58188317 21.4306215,9.39639037 20.6821844,9.39639037 C19.9600083,9.39639037 19.398689,9.55180326 18.9982095,9.86263369 C18.59773,10.1734641 18.3974933,10.5828852 18.3974933,11.0909091 C18.3974933,11.5655104 18.632197,11.9632337 19.1016115,12.2840909 C19.5710259,12.6049481 20.2620068,12.9057473 21.1745748,13.1864973 C22.8552755,13.7012058 24.0796739,14.3395684 24.8478066,15.1016043 C24.9596404,15.2125504 25.063333,15.3274635 25.1588844,15.4463438 Z M11.0358102,17.9692513 C11.0358102,17.4010667 10.838856,16.9649079 10.4449418,16.660762 C10.0510276,16.3566161 9.34199259,16.0357637 8.31781558,15.6981952 C7.29363857,15.3606267 6.48284393,15.0280765 5.88540734,14.7005348 C4.2572285,13.8048084 3.4431513,12.5982696 3.4431513,11.0808824 C3.4431513,10.2921084 3.66144216,9.58857261 4.09803044,8.97025401 C4.53461872,8.35193541 5.16158947,7.8689857 5.9789615,7.52139037 C6.79633354,7.17379505 7.71381168,7 8.73142346,7 C9.75560047,7 10.6681548,7.18883501 11.4691137,7.5665107 C12.2700726,7.94418638 12.8921195,8.47726928 13.3352731,9.1657754 C13.7784266,9.85428152 14,10.6363593 14,11.5120321 L11.045658,11.5120321 C11.045658,10.8435795 10.8388561,10.3238655 10.4252462,9.95287433 C10.0116362,9.58188317 9.43062147,9.39639037 8.68218442,9.39639037 C7.96000833,9.39639037 7.39868896,9.55180326 6.99820949,9.86263369 C6.59773002,10.1734641 6.39749329,10.5828852 6.39749329,11.0909091 C6.39749329,11.5655104 6.632197,11.9632337 7.10161146,12.2840909 C7.57102592,12.6049481 8.26200678,12.9057473 9.17457475,13.1864973 C10.8552755,13.7012058 12.0796739,14.3395684 12.8478066,15.1016043 C13.6159394,15.8636402 14,16.8128285 14,17.9491979 C14,19.2125732 13.5305926,20.2035392 12.5917637,20.9221257 C11.6529347,21.6407121 10.3891455,22 8.8003581,22 C7.69739825,22 6.69293201,21.7944539 5.78692927,21.3833556 C4.88092654,20.9722573 4.18994568,20.4090945 3.71396598,19.6938503 C3.23798628,18.978606 3,18.1497373 3,17.2072193 L5.96418979,17.2072193 C5.96418979,18.8181899 6.90956978,19.6236631 8.8003581,19.6236631 C9.50283849,19.6236631 10.0510276,19.4782769 10.4449418,19.1875 C10.838856,18.8967231 11.0358102,18.4906443 11.0358102,17.9692513 Z M37.922004,9.76101178 C37.2791437,9.76101178 36.9577183,10.0824371 36.9577183,10.7252975 C36.9577183,11.3681578 37.2791437,11.6895832 37.922004,11.6895832 C38.5648644,11.6895832 38.8862897,11.3681578 38.8862897,10.7252975 C38.8862897,10.0824371 38.5648644,9.76101178 37.922004,9.76101178 Z M45.6362897,15.5467261 C44.9934294,15.5467261 44.672004,15.8681514 44.672004,16.5110118 C44.672004,17.1538721 44.9934294,17.4752975 45.6362897,17.4752975 C46.2791501,17.4752975 46.6005754,17.1538721 46.6005754,16.5110118 C46.6005754,15.8681514 46.2791501,15.5467261 45.6362897,15.5467261 Z M41.7791469,21.3324403 C41.1362865,21.3324403 40.8148612,21.6538657 40.8148612,22.2967261 C40.8148612,22.9395864 41.1362865,23.2610118 41.7791469,23.2610118 C42.4220072,23.2610118 42.7434326,22.9395864 42.7434326,22.2967261 C42.7434326,21.6538657 42.4220072,21.3324403 41.7791469,21.3324403 Z M36.25,29.5 L12.25,29.5 C11.8364219,29.5 11.5,29.8364219 11.5,30.25 L11.5,40.75 C11.5,41.1635781 11.8364219,41.5 12.25,41.5 L36.25,41.5 C36.6635781,41.5 37,41.1635781 37,40.75 L37,38.5 L38.5,38.5 L38.5,32.5 L37,32.5 L37,30.25 C37,29.8364219 36.6635781,29.5 36.25,29.5 Z M36.25,28 C37.4926562,28 38.5,29.0073438 38.5,30.25 L38.5,31 L38.875,31 C39.4963281,31 40,31.5036719 40,32.125 L40,38.875 C40,39.4963281 39.4963281,40 38.875,40 L38.5,40 L38.5,40.75 C38.5,41.9926562 37.4926562,43 36.25,43 L12.25,43 C11.0073438,43 10,41.9926562 10,40.75 L10,30.25 C10,29.0073438 11.0073438,28 12.25,28 L36.25,28 Z M31,38.21875 C31,38.3740801 30.8740801,38.5 30.71875,38.5 L29.78125,38.5 C29.6259199,38.5 29.5,38.3740801 29.5,38.21875 L29.5,32.78125 C29.5,32.6259199 29.6259199,32.5 29.78125,32.5 L30.71875,32.5 C30.8740801,32.5 31,32.6259199 31,32.78125 L31,38.21875 Z M32.96875,34.75 C33.1240801,34.75 33.25,34.8759199 33.25,35.03125 L33.25,35.96875 C33.25,36.1240801 33.1240801,36.25 32.96875,36.25 L27.53125,36.25 C27.3759199,36.25 27.25,36.1240801 27.25,35.96875 L27.25,35.03125 C27.25,34.8759199 27.3759199,34.75 27.53125,34.75 L32.96875,34.75 Z" id="Combined-Shape" fill="#4A81FD" fill-rule="nonzero"></path>
    </g>
</svg>