<?xml version="1.0" encoding="UTF-8"?>
<svg width="50px" height="50px" viewBox="0 0 50 50" version="1.1" xmlns="http://www.w3.org/2000/svg" xmlns:xlink="http://www.w3.org/1999/xlink">
    <!-- Generator: Sketch 53.2 (72643) - https://sketchapp.com -->
    <title>AT/ICO/LE-Conservation-mode@2x</title>
    <desc>Created with Sketch.</desc>
    <g id="AT/ICO/LE-Conservation-mode" stroke="none" stroke-width="1" fill="none" fill-rule="evenodd">
        <path d="M43.75,15.5 L3.75,15.5 C3.06070312,15.5 2.5,16.0607031 2.5,16.75 L2.5,34.25 C2.5,34.9392969 3.06070312,35.5 3.75,35.5 L43.75,35.5 C44.4392969,35.5 45,34.9392969 45,34.25 L45,30.5 L47.5,30.5 L47.5,20.5 L45,20.5 L45,16.75 C45,16.0607031 44.4392969,15.5 43.75,15.5 Z M43.75,13 C45.8210937,13 47.5,14.6789062 47.5,16.75 L47.5,18 L48.125,18 C49.1605469,18 50,18.8394531 50,19.875 L50,31.125 C50,32.1605469 49.1605469,33 48.125,33 L47.5,33 L47.5,34.25 C47.5,36.3210938 45.8210937,38 43.75,38 L3.75,38 C1.67890625,38 0,36.3210938 0,34.25 L0,16.75 C0,14.6789062 1.67890625,13 3.75,13 L43.75,13 Z M30,30.03125 C30,30.2901335 29.7901335,30.5 29.53125,30.5 L27.96875,30.5 C27.7098665,30.5 27.5,30.2901335 27.5,30.03125 L27.5,20.96875 C27.5,20.7098665 27.7098665,20.5 27.96875,20.5 L29.53125,20.5 C29.7901335,20.5 30,20.7098665 30,20.96875 L30,30.03125 Z M35,30.03125 C35,30.2901335 34.7901335,30.5 34.53125,30.5 L32.96875,30.5 C32.7098665,30.5 32.5,30.2901335 32.5,30.03125 L32.5,20.96875 C32.5,20.7098665 32.7098665,20.5 32.96875,20.5 L34.53125,20.5 C34.7901335,20.5 35,20.7098665 35,20.96875 L35,30.03125 Z M25,30.03125 C25,30.2901335 24.7901335,30.5 24.53125,30.5 L22.96875,30.5 C22.7098665,30.5 22.5,30.2901335 22.5,30.03125 L22.5,20.96875 C22.5,20.7098665 22.7098665,20.5 22.96875,20.5 L24.53125,20.5 C24.7901335,20.5 25,20.7098665 25,20.96875 L25,30.03125 Z M12,19 C15.8669355,19 19,22.1330645 19,26 C19,29.8669355 15.8669355,33 12,33 C8.13306452,33 5,29.8669355 5,26 C5,22.1330645 8.13306452,19 12,19 Z M12,32.0967742 C15.3616935,32.0967742 18.0967742,29.3616935 18.0967742,26 C18.0967742,22.6383065 15.3616935,19.9032258 12,19.9032258 C8.63830645,19.9032258 5.90322581,22.6383065 5.90322581,26 C5.90322581,29.3616935 8.63830645,32.0967742 12,32.0967742 Z M14.5459677,27.9701613 C14.7068548,27.7782258 14.9919355,27.7528226 15.183871,27.9108871 C15.3758065,28.0689516 15.4012097,28.3540323 15.2403226,28.5459677 C14.4358871,29.5112903 13.2532258,30.0645161 12,30.0645161 C10.7467742,30.0645161 9.5641129,29.5112903 8.7625,28.5487903 C8.6016129,28.3568548 8.62701613,28.0745968 8.81895161,27.9137097 C9.00806452,27.7528226 9.29314516,27.7782258 9.45403226,27.9701613 C10.0862903,28.7266129 11.0149194,29.1612903 12,29.1612903 C12.9850806,29.1612903 13.9137097,28.7266129 14.5459677,27.9701613 Z M9.74193548,25.5483871 C9.24233871,25.5483871 8.83870968,25.1447581 8.83870968,24.6451613 C8.83870968,24.1455645 9.24233871,23.7419355 9.74193548,23.7419355 C10.2415323,23.7419355 10.6451613,24.1455645 10.6451613,24.6451613 C10.6451613,25.1447581 10.2415323,25.5483871 9.74193548,25.5483871 Z M14.2580645,25.5483871 C13.7584677,25.5483871 13.3548387,25.1447581 13.3548387,24.6451613 C13.3548387,24.1455645 13.7584677,23.7419355 14.2580645,23.7419355 C14.7576613,23.7419355 15.1612903,24.1455645 15.1612903,24.6451613 C15.1612903,25.1447581 14.7576613,25.5483871 14.2580645,25.5483871 Z" id="AT/ICO/LE-Battery-gauge-reset" fill="#4A81FD" fill-rule="nonzero"></path>
    </g>
</svg>