<?xml version="1.0" encoding="UTF-8"?>
<svg width="50px" height="50px" viewBox="0 0 50 50" version="1.1" xmlns="http://www.w3.org/2000/svg" xmlns:xlink="http://www.w3.org/1999/xlink">
    <!-- Generator: Sketch 53.2 (72643) - https://sketchapp.com -->
    <title>AT/ICO/LE-Easy-resume@2x</title>
    <desc>Created with Sketch.</desc>
    <g id="AT/ICO/LE-Easy-resume" stroke="none" stroke-width="1" fill="none" fill-rule="evenodd">
        <g id="Group-21" transform="translate(4.000000, 3.000000)" fill="#4A81FD" fill-rule="nonzero">
            <path d="M32.4337714,35.2128929 L32.6943429,34.99575 L34.8698429,37.6014643 L34.6092714,37.8186071 C33.4679143,38.7699643 32.2044143,39.5869643 30.8554143,40.2451786 L30.5500571,40.3944643 L29.9664857,39.1974643 L31.8013429,44.6653929 L20.0403429,42.2849643 L27.9837,33.2884643 L29.3042,37.2268929 L29.3679857,37.1956786 C30.4659143,36.6609643 31.4973429,35.99325 32.4337714,35.2128929 Z M37.8742857,22.2046786 C37.7725,20.9981786 37.5214286,19.7930357 37.1292143,18.6231786 L37.022,18.3015357 L40.2384286,17.2239643 L40.347,17.54425 C40.8233571,18.9624643 41.1273571,20.4336071 41.2535714,21.9183214 L41.2834286,22.25625 L37.9027857,22.5426071 L37.8742857,22.2046786 Z M36.2282071,30.4780929 L36.3829214,30.1768071 L39.3971357,31.7320929 L39.2424214,32.0333786 C38.55435,33.3660929 37.7115643,34.6105929 36.7344214,35.73295 L36.51185,35.9880929 L33.9536357,33.7610214 L34.1762071,33.5045214 C34.9742071,32.58845 35.6636357,31.5692357 36.2282071,30.4780929 Z M37.9099786,24.3033643 L41.2919786,24.5639357 L41.2661929,24.9018643 C41.1521929,26.3920071 40.8576929,27.8658643 40.3908357,29.2840786 L40.2849786,29.6070786 L37.0631214,28.5457929 L37.1689786,28.22415 C37.5503357,27.06515 37.79055,25.85865 37.8841929,24.64265 L37.9099786,24.3033643 Z M6.12044286,12.7769 L5.92637143,13.0551143 L3.14015714,11.1225429 L3.33287143,10.8443286 C4.18787143,9.61204286 5.18672857,8.48832857 6.29958571,7.50304286 L6.55337143,7.27775714 L8.8008,9.81968571 L8.54701429,10.0436143 C7.63772857,10.8497571 6.82208571,11.7685429 6.12044286,12.7769 Z M10.4992643,8.58020714 L10.21155,8.76070714 L8.40112143,5.89442143 L8.68747857,5.71256429 C9.40269286,5.26063571 10.1599786,4.87113571 10.9349071,4.51827857 L9.53840714,0.357278571 L21.3007643,2.73770714 L13.3574071,11.7342071 L12.0179071,7.74420714 C11.4954071,7.99663571 10.9864786,8.27213571 10.4992643,8.58020714 Z M1.83689286,13.421 L1.98346429,13.1142857 L5.03975,14.5827143 L4.89453571,14.8894286 C4.36253571,15.9995714 3.96760714,17.164 3.71925,18.3515 L3.64867857,18.684 L0.329107143,17.9823571 L0.396964286,17.6512143 C0.703678571,16.1963571 1.18817857,14.7740714 1.83689286,13.421 Z M3.39285714,21.4809357 C3.39285714,22.4499357 3.48921429,23.4352214 3.68057143,24.4110071 L3.74571429,24.7435071 L0.416642857,25.3990071 L0.3515,25.0665071 C0.118071429,23.8817214 -6.96331881e-13,22.6752214 -6.96331881e-13,21.4809357 C-6.96331881e-13,21.1905071 0.00678571429,20.9000786 0.0203571429,20.6110071 L0.0352857143,20.2717214 L3.42407143,20.4277929 L3.4105,20.7657214 C3.39964286,21.0032214 3.39285714,21.2407214 3.39285714,21.4809357 Z M30.7121214,11.6231143 L34.2081214,15.1924 L16.6453357,33.3428286 L7.11276429,23.5985429 L10.4499786,20.1541143 L16.4851929,26.3250429 L30.7121214,11.6231143 Z" id="Combined-Shape"></path>
        </g>
    </g>
</svg>