<?xml version="1.0" encoding="UTF-8"?>
<svg width="50px" height="50px" viewBox="0 0 50 50" version="1.1" xmlns="http://www.w3.org/2000/svg" xmlns:xlink="http://www.w3.org/1999/xlink">
    <!-- Generator: Sketch 53.2 (72643) - https://sketchapp.com -->
    <title>AT/ICO/LE-Easily-accessible-accounts@2x</title>
    <desc>Created with Sketch.</desc>
    <g id="AT/ICO/LE-Easily-accessible-accounts" stroke="none" stroke-width="1" fill="none" fill-rule="evenodd">
        <path d="M48.75,32.25 C49.440625,32.25 50,32.809375 50,33.5 L50,37.25 C50,40.6960938 47.196875,43.5 43.75,43.5 L6.25,43.5 C2.803125,43.5 0,40.6960938 0,37.25 L0,33.5 C0,32.809375 0.559375,32.25 1.25,32.25 L5,32.25 L5,11 C5,8.2421875 7.24375,6 10,6 L40,6 C42.75625,6 45,8.2421875 45,11 L45,32.25 L48.75,32.25 Z M7.5,11 L7.5,32.25 L19.4429688,32.25 C19.7601563,32.25 19.9914063,32.4945312 20.0617188,32.8039062 C20.3140625,33.9179688 21.3101562,34.75 22.5,34.75 L27.5,34.75 C28.6898438,34.75 29.6859375,33.9179688 29.9382812,32.8039062 C30.0085937,32.4945312 30.2398437,32.25 30.5570313,32.25 L42.5,32.25 L42.5,11 C42.5,9.61953125 41.3804687,8.5 40,8.5 L10,8.5 C8.61953125,8.5 7.5,9.61953125 7.5,11 Z M47.5,37.25 L47.5,34.75 L32.2851562,34.75 C31.7703125,36.2046875 30.38125,37.25 28.75,37.25 L21.25,37.25 C19.6195313,37.25 18.2296875,36.2046875 17.7148438,34.75 L2.5,34.75 L2.5,37.25 C2.5,39.3179688 4.18203125,41 6.25,41 L43.75,41 C45.8179688,41 47.5,39.3179688 47.5,37.25 Z M25,10 C31.0751492,10 36,14.9248508 36,21 C36,27.0751492 31.0751492,32 25,32 C18.9248508,32 14,27.0751492 14,21 C14,14.9248508 18.9248508,10 25,10 Z M25,30.5806452 C30.3201411,30.5806452 34.5806452,26.2632782 34.5806452,21 C34.5806452,15.6798589 30.2632782,11.4193548 25,11.4193548 C19.6798589,11.4193548 15.4193548,15.7367218 15.4193548,21 C15.4193548,26.3201411 19.7367218,30.5806452 25,30.5806452 Z M31.1964153,17.2885202 C31.2864556,17.6700161 31.0502218,18.0522218 30.6687702,18.1423065 C29.293504,18.4670282 28.0094315,18.7532944 26.7349839,18.9013952 C26.7587137,23.9956371 27.319004,25.1105403 27.943875,26.7094435 C28.1221815,27.1658105 27.8967258,27.6802823 27.4403589,27.8585 C26.9836815,28.0368952 26.4694315,27.8110847 26.2913024,27.3549839 C25.8779597,26.2975202 25.4684758,25.3783105 25.2147661,23.4838266 L24.7851895,23.4838266 C24.531125,25.3810161 24.1204879,26.3010242 23.7086976,27.3549395 C23.5302581,27.81175 23.0152984,28.036629 22.5596411,27.8585 C22.1032742,27.6802379 21.8778629,27.1658105 22.0560806,26.7094435 C22.6816169,25.1089879 23.2412419,23.993375 23.2649718,18.9013952 C21.9904798,18.7532944 20.7064516,18.4670282 19.3311855,18.1423065 C18.9497339,18.0522218 18.7135,17.6700161 18.8035847,17.2885202 C18.893625,16.9070685 19.2758306,16.6708347 19.657371,16.760875 C24.3244758,17.862871 25.6665645,17.865 30.342629,16.760875 C30.7240363,16.6711895 31.1063306,16.9071129 31.1964153,17.2885202 Z M23.3059113,15.4026855 C23.3059113,14.4670645 24.064379,13.7086411 25,13.7086411 C25.935621,13.7086411 26.6940887,14.4671089 26.6940887,15.4026855 C26.6940887,16.3382621 25.935621,17.0967742 25,17.0967742 C24.064379,17.0967742 23.3059113,16.3383065 23.3059113,15.4026855 Z" fill="#4A81FD" fill-rule="nonzero"></path>
    </g>
</svg>