<?xml version="1.0" encoding="UTF-8"?>
<svg width="50px" height="50px" viewBox="0 0 50 50" version="1.1" xmlns="http://www.w3.org/2000/svg" xmlns:xlink="http://www.w3.org/1999/xlink">
    <!-- Generator: Sketch 53.2 (72643) - https://sketchapp.com -->
    <title>AT/ICO/LE-Finger-Scanning@2x</title>
    <desc>Created with Sketch.</desc>
    <g id="AT/ICO/LE-Finger-Scanning" stroke="none" stroke-width="1" fill="none" fill-rule="evenodd">
        <path d="M0.965553161,9.2290158 C0.433656609,9.2290158 3.59195408e-05,8.79798132 3.59195408e-05,8.26608477 L3.59195408e-05,0.883613506 C3.59195408e-05,0.351716954 0.645653736,6.46551725e-05 1.17747845,6.46551725e-05 L8.56002155,6.46551725e-05 C9.09184626,6.46551725e-05 9.52295259,0.433685345 9.52295259,0.965581897 C9.52295259,1.49747845 9.09184626,1.93109914 8.56002155,1.93109914 L1.93099856,1.93109914 L1.93099856,8.26608477 C1.93099856,8.79798132 1.49737787,9.2290158 0.965553161,9.2290158 Z M49.671329,9.2290158 C49.1394325,9.2290158 48.7058118,8.79798132 48.7058118,8.26608477 L48.7058118,1.93109914 L43.225352,1.93109914 C42.6935273,1.93109914 42.2626365,1.49747845 42.2626365,0.965581897 C42.2626365,0.433685345 42.6935273,6.46551725e-05 43.225352,6.46551725e-05 L49.9661566,6.46551725e-05 C50.4980532,6.46551725e-05 50.6367744,0.351716954 50.6367744,0.883613506 L50.6367744,8.26608477 C50.6367744,8.79798132 50.2031537,9.2290158 49.671329,9.2290158 Z M8.56001437,49.9931609 L1.17747126,49.9931609 C0.645646552,49.9931609 2.87356313e-05,49.5621264 2.87356313e-05,49.0302299 L2.87356313e-05,41.6477586 C2.87356313e-05,41.1158621 0.433649425,40.6848276 0.965545977,40.6848276 C1.49737069,40.6848276 1.93106322,41.1158621 1.93106322,41.6477586 L1.93106322,48.0621264 L8.56001437,48.0621264 C9.09183908,48.0621264 9.5229454,48.4957471 9.5229454,49.0276437 C9.5229454,49.5595402 9.09183908,49.9931609 8.56001437,49.9931609 Z M49.9661207,49.9931609 L43.2253879,49.9931609 C42.6935632,49.9931609 42.2626724,49.5595402 42.2626724,49.0276437 C42.2626724,48.4957471 42.6935632,48.0621264 43.2253879,48.0621264 L48.7057759,48.0621264 L48.7057759,41.6477586 C48.7057759,41.1158621 49.1393966,40.6848276 49.6712931,40.6848276 C50.2031897,40.6848276 50.6368103,41.1158621 50.6368103,41.6477586 L50.6368103,49.0302299 C50.6368103,49.5621264 50.4980172,49.9931609 49.9661207,49.9931609 Z M9.38987787,34.0075647 C9.13822557,34.0075647 8.88700431,33.9095761 8.69792385,33.7143175 C1.46911638,26.2440589 1.9031681,14.6536135 9.63650144,7.82365661 C17.3289583,1.0309842 29.4245043,1.53823994 36.6011566,8.95461925 C36.9709124,9.33694684 36.960783,9.94650144 36.578671,10.3164009 C36.1969181,10.6860848 35.587579,10.6762428 35.2171049,10.2939152 C28.7464871,3.60706178 17.8432543,3.14635776 10.9111422,9.26719109 C4.07349856,15.3058405 3.55553879,25.6308405 10.0821193,32.3751652 C10.4515158,32.7573491 10.4417457,33.3669037 10.0595618,33.7366595 C9.87270833,33.917694 9.63125718,34.0075647 9.38987787,34.0075647 Z M25.3295977,45.9072486 L11.1716236,31.2766451 C5.62945402,25.5494899 5.94382184,16.3595474 12.2721264,10.7702514 C19.004023,4.83346983 28.4759339,5.59051006 33.8438937,11.1373491 L48.0013649,25.7679526 C48.3708333,26.149921 48.3609914,26.7596911 47.9788075,27.1293032 C47.5971264,27.4990589 46.9875718,27.4895761 46.6171695,27.1068175 L32.4596983,12.4764296 C27.8170259,7.67858477 19.5333333,6.92700431 13.5472701,12.2137859 C8.10337644,17.021329 7.7204023,24.9403664 12.5559626,29.9373491 L26.7137213,44.5681681 C27.0831897,44.950352 27.0732759,45.5601221 26.6909483,45.9299497 C26.3099138,46.2988434 25.7000718,46.2900072 25.3295977,45.9072486 Z M28.9855316,44.123829 L13.6730316,28.2997629 C9.6375431,24.1284986 10.2250431,17.423829 14.8394109,13.348829 C19.9161351,8.86513649 26.8059339,9.38819684 30.560819,13.2685848 L41.0121839,24.0692313 C41.3818678,24.4514152 41.3718103,25.0609698 40.9896983,25.4308693 C40.6079454,25.8004095 39.9981753,25.7907112 39.6280603,25.4083118 L29.1764799,14.6076652 C26.1185057,11.4476078 20.4386207,10.9865445 16.1138362,14.7924353 C12.3528448,18.1142744 11.7644828,23.557306 15.0573707,26.960467 L30.3698707,42.7844612 C30.7393391,43.1668606 30.7292098,43.7764152 30.3473132,44.1463147 C29.9662787,44.5151365 29.3565086,44.5068032 28.9855316,44.123829 Z M26.5961135,35.5880963 C26.3444612,35.5880963 26.0929526,35.4898204 25.903944,35.2947773 L16.6580388,25.7400359 C14.0527945,23.0475072 14.5096193,18.6995905 17.5091882,16.0510273 C20.7778664,13.1580675 25.2354095,13.4102227 27.6556681,15.9109411 L43.3054526,32.0836422 C43.6751365,32.4657543 43.665079,33.0753089 43.2828951,33.4452083 C42.9014296,33.8148922 42.291444,33.8052658 41.9212572,33.4226509 L26.271329,17.2500216 C24.5596911,15.4814152 21.2938147,15.2679095 18.7847629,17.4937716 C16.5897917,19.4314871 16.2220474,22.5201365 18.0423779,24.4009555 L27.2883549,33.955625 C27.6577514,34.3375934 27.647694,34.9473635 27.2657974,35.3172629 C27.078944,35.4979382 26.8374928,35.5880963 26.5961135,35.5880963 Z M22.3027443,47.125352 L13.5466379,38.0770043 C13.1771695,37.6948922 13.187227,37.0850503 13.5694109,36.7151509 C13.9508764,36.345898 14.5606466,36.3550934 14.9310489,36.7379239 L23.6869397,45.7864152 C24.0565517,46.1683836 24.0464224,46.7781537 23.6645977,47.1478376 C23.2819828,47.5177371 22.6728592,47.5076796 22.3027443,47.125352 Z M45.5607184,20.5920402 L39.306408,14.1289655 C38.9369397,13.7468534 38.9466379,13.1372989 39.3289655,12.7673994 C39.710431,12.3977155 40.3204885,12.4071264 40.6907471,12.7899569 L46.9449138,19.2529598 C47.3145259,19.6350718 47.3043966,20.244842 46.9222845,20.6145977 C46.5410345,20.9838506 45.9314799,20.9750862 45.5607184,20.5920402 Z M35.2395977,39.9878879 C34.8877299,39.5894684 34.9039655,39.0000287 35.3024569,38.6477299 C36.2821983,37.7826437 36.8241523,36.6600144 36.8715661,35.4488075 C36.9187644,34.2451437 36.4712069,33.0929167 35.6112213,32.2044109 L24.801523,21.0336494 C24.0226437,20.2281897 22.7011638,20.1796983 21.8557615,20.9254598 C20.9413218,21.7337213 20.9818391,22.9181322 21.6976437,23.6577155 L25.8676868,27.9667672 C26.237227,28.3486638 26.2270977,28.9585057 25.8451293,29.3281897 C25.4636638,29.6979454 24.8536782,29.6884626 24.4832759,29.3059195 L20.3139511,24.9970115 C18.8168966,23.4500287 18.8761638,20.9877443 20.5364368,19.5215805 C22.1868678,18.0647557 24.7011638,18.1599425 26.1857184,19.6947845 L36.9953448,30.8653305 C38.2243678,32.1353017 38.8637356,33.7896121 38.7957759,35.5238793 C38.7277443,37.2661207 37.9551149,38.8747414 36.6205603,40.0535489 C36.2214224,40.405273 35.5913218,40.3868103 35.2395977,39.9878879 Z M31.0067098,38.4091092 C30.0863793,38.4091092 29.1682759,38.0568103 28.495,37.3611925 L29.863319,36.0060201 C30.4533333,36.6151437 31.4255316,36.6497701 32.0472989,36.1008477 L32.9001724,35.3479741 C33.1881753,35.0940948 33.3542672,34.7517098 33.3686351,34.3843966 C33.3830029,34.0202443 33.2460776,33.6701006 32.9830747,33.3982615 L26.9313506,27.1438793 C26.5615948,26.7617672 26.5717241,26.1522845 26.9538362,25.7823132 C27.3353017,25.4126293 27.9453592,25.4223276 28.3154023,25.8048707 L34.3669109,32.0588937 C34.9992385,32.7120546 35.3284052,33.5647126 35.293204,34.4596839 C35.2578592,35.3580316 34.8606609,36.1860489 34.1747414,36.7917241 L33.322227,37.544454 C32.6671983,38.1233333 31.8362356,38.4091092 31.0067098,38.4091092 Z" id="Combined-Shape" fill="#4A81FD" fill-rule="nonzero"></path>
    </g>
</svg>