<?xml version="1.0" encoding="UTF-8"?>
<svg width="50px" height="50px" viewBox="0 0 50 50" version="1.1" xmlns="http://www.w3.org/2000/svg" xmlns:xlink="http://www.w3.org/1999/xlink">
    <!-- Generator: Sketch 53.2 (72643) - https://sketchapp.com -->
    <title>AT/ICO/LE-Finger-recognition@2x</title>
    <desc>Created with Sketch.</desc>
    <g id="AT/ICO/LE-Finger-recognition" stroke="none" stroke-width="1" fill="none" fill-rule="evenodd">
        <path d="M36.0148317,12.739446 C43.8315919,13.577244 49.9369916,20.2125175 49.9369916,28.2468794 C49.9369916,36.8488429 42.9393759,43.8486325 34.337202,43.8486325 C33.7425316,43.8486325 33.1538219,43.8150421 32.5757714,43.7480715 C29.8801192,46.9610449 25.8359397,49.0052244 21.3223352,49.0052244 L15.5206522,49.0052244 C14.9620968,49.0052244 14.5161641,48.5266129 14.5699509,47.9569074 C14.6168654,47.4601332 15.0621669,47.0950561 15.5609046,47.0950561 L21.3223352,47.0950561 C24.8512973,47.0950561 28.0518583,45.656136 30.3641304,43.3354488 C28.962798,42.9667952 27.6369916,42.4076087 26.4181978,41.6850281 C24.472195,43.1573983 22.0510168,44.0308205 19.4287167,44.0308205 L17.1794881,44.0308205 C16.6208626,44.0308205 16.175,43.552209 16.2285764,42.9825035 C16.2757013,42.4857293 16.7210028,42.1206522 17.2198808,42.1206522 L19.4287167,42.1206522 C21.3851683,42.1206522 23.2073983,41.5383941 24.7340463,40.5351683 C23.8629383,39.8523492 23.0667952,39.0815919 22.3609748,38.2332749 C22.0030505,38.3087307 21.6302595,38.3464586 21.2509467,38.3464586 L19.7829243,38.3464586 C19.2569776,38.3464586 18.827805,37.9191795 18.827805,37.3914095 C18.827805,36.8634993 19.2569776,36.4362903 19.7829243,36.4362903 L21.0626578,36.4362903 C20.4696704,35.4790673 19.9775245,34.45277 19.6025596,33.3740884 L16.2073983,33.3740884 C14.3196704,33.3740884 12.789446,31.8437237 12.789446,29.9559257 L12.789446,17.1420407 C12.789446,16.5834151 13.2678471,16.1374825 13.8375526,16.1913394 C14.3343268,16.2382539 14.6996143,16.6835554 14.6996143,17.1824334 L14.6996143,29.9559257 C14.6996143,30.7876928 15.3735975,31.4618864 16.205575,31.4618864 L19.0707924,31.4618864 C18.9597826,30.946669 18.8778752,30.4230365 18.8236676,29.8931627 C17.7491935,29.6334853 16.9742286,28.5463885 16.9742286,27.2038219 L16.9742286,26.6677069 C16.9742286,26.1419705 17.4015077,25.7125877 17.9292777,25.7125877 C18.3626578,25.7125877 18.7292076,26.0037518 18.8445652,26.3995442 C19.1041024,24.2087307 19.8203717,22.156136 20.8948457,20.3381837 C20.6207223,20.0512272 20.2350982,19.8732468 19.8078191,19.8732468 C18.9283661,19.8732468 18.2518583,20.5497546 18.2518583,21.3791374 L18.2518583,24.2464586 C18.2518583,24.8050842 17.7732468,25.2510168 17.2035414,25.1971599 C16.7067672,25.1502454 16.34169,24.7049439 16.34169,24.2059958 L16.34169,21.4653927 C16.34169,19.5636396 17.8975105,17.94169 19.7990533,17.9632889 C20.6288569,17.9726858 21.3843268,18.2642006 21.9714236,18.7463885 C22.4908485,18.0698808 23.0667952,17.4373422 23.6890954,16.8571879 C23.2239481,16.5199509 22.6521388,16.3210028 22.034467,16.3210028 L16.9428121,16.3210028 C16.3843969,16.3210028 15.9360098,15.8428121 15.9897966,15.273317 C16.0367111,14.776122 16.4830645,14.4108345 16.9823633,14.4108345 L22.034467,14.4108345 C23.2448457,14.4108345 24.3507363,14.8674264 25.1908485,15.617216 C26.4454067,14.7040323 27.8423913,13.9752104 29.3397966,13.468338 C29.443864,11.9910589 28.4559257,11.3465989 27.6245792,11.3465989 L21.9149018,11.3465989 C21.3564867,11.3465989 20.9103436,10.8679874 20.9644109,10.2982819 C21.0113254,9.80150771 21.4564165,9.43643058 21.9555049,9.43643058 L27.6245792,9.43643058 C29.5230365,9.43643058 31.1152525,10.9914095 31.0419004,12.8885344 C31.0417602,12.8935835 31.0415498,12.8986325 31.0413394,12.9034011 C31.0383941,12.9526297 31.0853086,12.9893058 31.1336957,12.9790673 C32.0942146,12.7771739 33.0880435,12.6635694 34.1046634,12.6493338 L34.1046634,11.4031206 C34.1046634,9.02177419 32.1672861,7.08432679 29.7838359,7.08432679 C29.1214937,7.08432679 28.5746494,6.41139551 28.8965989,5.71118513 C29.0492637,5.37906732 29.3914797,5.17422861 29.7571879,5.17422861 L29.7838359,5.17422861 C33.2207924,5.17422861 36.0148317,7.96819776 36.0148317,11.4031206 L36.0148317,12.739446 Z M34.337202,41.9383941 C41.8856592,41.9383941 48.0268233,35.7954067 48.0268233,28.2468794 C48.0268233,20.6984222 41.8856592,14.5573983 34.337202,14.5573983 C26.7868513,14.5573983 20.6456171,20.6984222 20.6456171,28.2468794 C20.6456171,35.7954067 26.7868513,41.9383941 34.337202,41.9383941 Z M9.48105891,33.7285203 C8.95363955,33.7285203 8.52572931,33.3010309 8.52572931,32.7732609 L8.52572931,16.4313254 C8.52572931,12.1827279 11.9826718,8.72578541 16.2308485,8.72578541 L17.6523773,8.72578541 C18.1797966,8.72578541 18.6074965,9.15327489 18.6074965,9.68104488 C18.6074965,10.2086746 18.1797966,10.6361641 17.6523773,10.6361641 L16.2308485,10.6361641 C13.0353366,10.6361641 10.436108,13.2358135 10.436108,16.4313254 L10.436108,32.7732609 C10.436108,33.3010309 10.0082679,33.7285203 9.48105891,33.7285203 Z M8.33746844,40.1258976 C8.07856241,40.1258976 7.81993689,40.0211992 7.63164797,39.8142567 C5.45906732,37.4315778 4.26271388,34.3421669 4.26271388,31.1153086 L4.26271388,19.2733731 C4.26271388,18.7457433 4.69034362,18.3182539 5.21776297,18.3182539 C5.74490182,18.3182539 6.17281206,18.7457433 6.17281206,19.2733731 L6.17281206,31.1153086 C6.17281206,33.8648878 7.19202665,36.497216 9.04307854,38.5271599 C9.39896914,38.9169916 9.37084853,39.5211992 8.98087658,39.8763885 C8.79742637,40.0435694 8.56741234,40.1258976 8.33746844,40.1258976 Z M5.21774194,15.2548878 C4.69032258,15.2548878 4.26269285,14.8273983 4.26269285,14.2995582 L4.26269285,14.2179313 C4.26269285,9.23076438 8.3200561,5.173331 13.3070126,5.173331 L22.6257363,5.173331 C23.1530856,5.173331 23.5807854,5.60082048 23.5807854,6.12845021 C23.5807854,6.65629032 23.1530856,7.08370968 22.6257363,7.08370968 L13.3070126,7.08370968 C9.37335203,7.08370968 6.17286115,10.2843408 6.17286115,14.2179313 L6.17286115,14.2995582 C6.17286115,14.8273983 5.74495091,15.2548878 5.21774194,15.2548878 Z M16.2308836,38.7020757 C16.1345302,38.7020757 13.855568,38.6928191 12.2512202,37.8902945 C10.7097055,37.1197475 9.90493689,36.3242356 9.87141655,36.291136 C9.49841515,35.9179243 9.49841515,35.3132258 9.87141655,34.9401543 C10.2432258,34.5675736 10.8458205,34.5667321 11.2190323,34.936648 C11.2376858,34.955021 11.8756942,35.5668724 13.105568,36.1819495 C14.1060589,36.6823703 15.7003787,36.7919074 16.2308836,36.7919074 C16.7583029,36.7919074 17.1860028,37.2193969 17.1860028,37.7470266 C17.1860028,38.2745863 16.7583029,38.7020757 16.2308836,38.7020757 Z M9.12269285,48.0120196 C8.99723703,48.0120196 8.86967742,47.9871248 8.74653576,47.9343198 C3.8645582,45.8385975 0.710070126,41.0518513 0.710070126,35.7398597 C0.710070126,35.7398597 0.679845722,34.681094 1.66511921,34.6603366 C2.49976157,34.6427349 2.6201683,35.7398597 2.6201683,35.7398597 C2.6201683,40.287195 5.32079944,44.3847405 9.5001122,46.1787097 C9.98454418,46.3867041 10.2090884,46.9486255 10.0008836,47.4332679 C9.84590463,47.7951893 9.49338008,48.0120196 9.12269285,48.0120196 Z M0.955077139,28.7547686 C0.427657784,28.7547686 2.8050492e-05,28.3272791 2.8050492e-05,27.7997195 L2.8050492e-05,17.4871669 C2.8050492e-05,14.8737027 0.36545582,12.2744741 1.08621318,9.76192146 C1.62218794,7.89263675 2.68803647,6.22208976 4.16798036,4.93064516 L5.6554979,3.63246844 C6.0528331,3.28457223 6.65725105,3.32685835 7.0031136,3.72419355 C7.3498878,4.12152875 7.30886396,4.72496494 6.91152875,5.07201964 L5.4242216,6.37012623 C4.22204769,7.41886396 3.35640954,8.77419355 2.92176718,10.2884993 C2.25093969,12.6299439 1.91019635,15.0517532 1.91019635,17.4871669 L1.91019635,27.7997195 C1.91019635,28.3272791 1.48228612,28.7547686 0.955077139,28.7547686 Z M29.7674684,4.0354418 L27.1807924,3.58368864 C19.3097546,2.2073913 13.3551964,3.28712482 11.5734292,3.53382889 C11.0504278,3.59182328 10.5747616,3.22113604 10.5131907,2.69729313 C10.4509888,2.17345021 10.8252525,1.69862553 11.3495161,1.63663394 C12.8035133,1.43284712 19.3441164,0.274221599 27.5091935,1.70199158 L30.0958696,2.15374474 C30.6157153,2.24462833 30.9634011,2.73915849 30.8725175,3.25879383 C30.7824755,3.77737728 30.2877349,4.12653576 29.7674684,4.0354418 Z M36.3290252,28.2342987 C36.3290252,29.3339481 35.4349158,30.2261641 34.3371599,30.2261641 C33.2375806,30.2261641 32.3455049,29.3339481 32.3455049,28.2342987 C32.3455049,27.1347195 33.2375806,26.2403296 34.3371599,26.2403296 C35.4349158,26.2403296 36.3290252,27.1347195 36.3290252,28.2342987 Z M27.9699719,28.2615568 C27.9699719,29.3612062 27.0758626,30.253352 25.9781767,30.253352 C24.8785273,30.253352 23.9842076,29.3612062 23.9842076,28.2615568 C23.9842076,27.1619074 24.8785273,26.2697616 25.9781767,26.2697616 C27.0758626,26.2697616 27.9699719,27.1619074 27.9699719,28.2615568 Z M44.6880505,28.2615568 C44.6880505,29.3612062 43.7959748,30.253352 42.6963955,30.253352 C41.5987097,30.253352 40.7045302,29.3612062 40.7045302,28.2615568 C40.7045302,27.1619074 41.5987097,26.2697616 42.6963955,26.2697616 C43.7959748,26.2697616 44.6880505,27.1619074 44.6880505,28.2615568 Z M36.3290252,22.2546003 C36.3290252,23.3520757 35.4349158,24.2464656 34.3371599,24.2464656 C33.2375806,24.2464656 32.3455049,23.3520757 32.3455049,22.2546003 C32.3455049,21.155021 33.2375806,20.2606311 34.3371599,20.2606311 C35.4349158,20.2606311 36.3290252,21.155021 36.3290252,22.2546003 Z M27.9699719,22.2818233 C27.9699719,23.3793689 27.0758626,24.2736886 25.9781767,24.2736886 C24.8785273,24.2736886 23.9842076,23.3793689 23.9842076,22.2818233 C23.9842076,21.182244 24.8785273,20.2879243 25.9781767,20.2879243 C27.0758626,20.2879243 27.9699719,21.182244 27.9699719,22.2818233 Z M44.6880505,22.2818233 C44.6880505,23.3793689 43.7959748,24.2736886 42.6963955,24.2736886 C41.5987097,24.2736886 40.7045302,23.3793689 40.7045302,22.2818233 C40.7045302,21.182244 41.5987097,20.2879243 42.6963955,20.2879243 C43.7959748,20.2879243 44.6880505,21.182244 44.6880505,22.2818233 Z M36.3290252,34.2140673 C36.3290252,35.3136466 35.4349158,36.2080365 34.3371599,36.2080365 C33.2375806,36.2080365 32.3455049,35.3136466 32.3455049,34.2140673 C32.3455049,33.1165919 33.2375806,32.222202 34.3371599,32.222202 C35.4349158,32.222202 36.3290252,33.1165919 36.3290252,34.2140673 Z M27.9699719,34.2433731 C27.9699719,35.3408485 27.0758626,36.2351683 25.9781767,36.2351683 C24.8785273,36.2351683 23.9842076,35.3408485 23.9842076,34.2433731 C23.9842076,33.1437237 24.8785273,32.2494039 25.9781767,32.2494039 C27.0758626,32.2494039 27.9699719,33.1437237 27.9699719,34.2433731 Z M44.6880505,34.2433731 C44.6880505,35.3408485 43.7959748,36.2351683 42.6963955,36.2351683 C41.5987097,36.2351683 40.7045302,35.3408485 40.7045302,34.2433731 C40.7045302,33.1437237 41.5987097,32.2494039 42.6963955,32.2494039 C43.7959748,32.2494039 44.6880505,33.1437237 44.6880505,34.2433731 Z" id="Combined-Shape" fill="#4A81FD" fill-rule="nonzero"></path>
    </g>
</svg>