<?xml version="1.0" encoding="UTF-8"?>
<svg width="50px" height="50px" viewBox="0 0 50 50" version="1.1" xmlns="http://www.w3.org/2000/svg" xmlns:xlink="http://www.w3.org/1999/xlink">
    <!-- Generator: Sketch 53.2 (72643) - https://sketchapp.com -->
    <title>AT/ICO/LE-face-detection@2x</title>
    <desc>Created with Sketch.</desc>
    <g id="AT/ICO/LE-face-detection" stroke="none" stroke-width="1" fill="none" fill-rule="evenodd">
        <path d="M27,5 L27,2 L26,2 C25.4477153,2 25,1.55228475 25,1 C25,0.44771525 25.4477153,-2.84217094e-14 26,-2.84217094e-14 L28,-2.84217094e-14 C28.5522847,-2.84217094e-14 29,0.44771525 29,1 L29,5 L31,5 C31.5522847,5 32,5.44771525 32,6 C32,6.55228475 31.5522847,7 31,7 L26,7 C25.4477153,7 25,6.55228475 25,6 C25,5.44771525 25.4477153,5 26,5 L27,5 Z M14.6444665,38.9633353 C15.3066678,41.2634232 16.7309797,43.2903011 18.6593954,44.7125203 C19.7643402,45.5197255 20.2862749,46.8331405 20.0950297,48.1443292 C20.0153189,48.6908314 19.507673,49.0692405 18.9611708,48.9895297 C18.4146686,48.9098189 18.0362595,48.402173 18.1159703,47.8556708 C18.2022782,47.2639381 17.9735319,46.6883128 17.4759579,46.3248029 C15.2366062,44.673281 13.5737261,42.3369518 12.7696553,39.6763744 C12.7431738,39.6217171 12.7214043,39.5640558 12.7049329,39.5038375 C12.6817233,39.4189853 12.6817233,39.4189853 12.578648,39.0425417 C12.5400262,38.9015652 12.5064648,38.7790734 12.4755453,38.6662466 C11.1122545,38.6384601 9.86649926,37.843887 9.2641346,36.5823768 C8.95757561,35.8991583 8.3978966,33.9666677 8.22206808,33.0588108 C8.0098184,31.9728 7.8523203,30.9913883 7.8035,30.187 L7.8035,30.173 L7.80744074,30.1946902 C7.79084292,30.0082839 7.78908258,29.8301539 7.8035,29.6596589 L7.8035,29.587 L7.809586,29.4768412 C7.96027872,28.1172077 8.85680258,26.9747662 10.0983095,26.4819146 C9.87310491,24.7173562 9.68233675,23.1916915 9.63670903,22.7858586 C9.57810677,22.300455 9.5495,21.8336567 9.5495,21.347 C9.5495,16.2164639 12.5904263,11.6246987 17.1427232,9.59248395 C19.0934341,8.57972221 21.9544888,8 25.0565,8 L25.1635,8 C29.4629122,8 32.770829,8.57913084 35.8574451,9.87831752 C36.3824325,10.0992898 36.6170877,10.7134955 36.3731724,11.2282244 L35.458102,13.159277 C38.4353139,14.8406709 40.6695,17.9807228 40.6695,21.347 C40.6695,21.8399926 40.6411006,22.3077785 40.5836831,22.7737032 C40.5408546,23.1690431 40.3612781,24.6067357 40.1217442,26.4819339 C41.3629566,26.974677 42.2595307,28.1166896 42.411323,29.4760231 L42.4175,29.587 L42.4175,29.613 C42.4308873,29.7909969 42.4308873,29.9841484 42.4175,30.106 L42.4175,30.173 L42.4154352,30.2512294 C42.3677481,30.9921446 42.2098369,31.9745638 42.0012037,33.0412371 C41.9321989,33.4312188 41.7655787,34.0855011 41.5456581,34.8528509 C41.2459324,35.8314553 41.1030487,36.2631711 40.9454648,36.6027145 C40.3469411,37.8604002 39.0928185,38.6409598 37.7428064,38.6702181 C37.7077499,38.7981544 37.6736479,38.9225352 37.6406217,39.0429262 C37.5371551,39.4198848 37.5371551,39.4198848 37.5137054,39.5051565 C37.4983944,39.5608327 37.4785537,39.6143163 37.4546471,39.6652537 C36.6508428,42.3306897 34.9862035,44.6712086 32.7396722,46.3280075 C32.2858016,46.6589548 32.0563273,47.1696622 32.0896532,47.7172532 C32.1232027,48.268518 31.7035116,48.7426037 31.1522468,48.7761532 C30.600982,48.8097027 30.1268963,48.3900116 30.0933468,47.8387468 C30.0193739,46.6232699 30.5452647,45.4528718 31.5569579,44.7151971 C33.4888277,43.2904431 34.9133941,41.2635432 35.5766339,38.9629868 C35.589716,38.9176095 35.6058127,38.8737299 35.6246687,38.8315401 C35.6409013,38.7724136 35.6663593,38.6796631 35.7118783,38.5138238 C35.8118041,38.1495633 35.9216024,37.7486869 36.0378965,37.3232954 C36.1819678,36.796298 36.7223232,36.4824712 37.2514574,36.6184856 C38.0163172,36.8150934 38.8064834,36.4431317 39.1353747,35.7521394 C39.2320738,35.5437136 39.3699326,35.1271805 39.6281429,34.2846956 C39.8248197,33.5979042 39.9782294,32.9954971 40.0350681,32.6751892 C40.2308544,31.6734161 40.379137,30.7508999 40.4175,30.187 L40.4175,30.173 L40.4208607,30.0240844 C40.4281127,29.9358516 40.4281127,29.8630031 40.4175,29.707 L40.4175,29.6492416 C40.3173528,28.9434622 39.7697667,28.3739986 39.054744,28.2478728 C38.9007446,28.2514918 38.739097,28.2193325 38.5692864,28.1344272 C38.188977,27.9442725 37.9705018,27.5344177 38.0246384,27.1126793 C38.3170597,24.8346405 38.5481035,22.9941124 38.5969806,22.5439133 C38.6460509,22.1449895 38.6695,21.7587432 38.6695,21.347 C38.6695,18.5147947 36.4857675,15.7456703 33.7319607,14.5275206 C33.2175553,14.2999728 32.9919572,13.693079 33.2328276,13.1847756 L34.1066287,11.3408126 C31.5511583,10.4188261 28.7501703,10 25.1635,10 L25.0565,10 C22.2533904,10 19.7028642,10.5168012 18.0114557,11.3930017 C14.1198404,13.1318884 11.5495,17.013074 11.5495,21.347 C11.5495,21.7527639 11.5732031,22.139546 11.6232313,22.5542052 C11.6756106,23.0197993 11.9251199,25.0074254 12.1953616,27.1126793 C12.2501968,27.5398602 12.0253644,27.9541633 11.6373156,28.1410017 C11.4741946,28.2195414 11.3171994,28.2503625 11.1673441,28.2475053 C10.451244,28.3728939 9.90297505,28.9427539 9.8035,29.6487913 L9.8035,29.707 L9.7976831,29.8147032 C9.79212627,29.8659969 9.79212627,29.9338317 9.8035,30.106 L9.8035,30.1543554 C9.84589825,30.7809523 9.99210906,31.688579 10.1852565,32.6768574 C10.3344574,33.4472212 10.8532316,35.2384734 11.0788165,35.7419259 C11.3485835,36.3065972 11.9250188,36.667 12.5495,36.667 C12.6932033,36.667 12.8298078,36.6503901 12.9891348,36.6131904 C13.5123918,36.4910203 14.0386591,36.8041988 14.1808509,37.3223734 C14.2977076,37.7482217 14.3710466,38.0157561 14.507602,38.5142083 C14.5503334,38.6702683 14.5753669,38.7616937 14.591687,38.821303 C14.6126049,38.866726 14.6303064,38.9141516 14.6444665,38.9633353 Z M16.7769,21 C16.7769,21.5522847 16.3291847,22 15.7769,22 C15.2246153,22 14.7769,21.5522847 14.7769,21 C14.7769,18.9747153 16.4186153,17.333 18.4439,17.333 C18.9961847,17.333 19.4439,17.7807153 19.4439,18.333 C19.4439,19.2540221 20.1894915,20 21.1099,20 L31.7769,20 C33.8014722,20 35.4439,21.6420026 35.4439,23.667 C35.4439,24.2192847 34.9961847,24.667 34.4439,24.667 C33.8916153,24.667 33.4439,24.2192847 33.4439,23.667 C33.4439,22.746688 32.6970186,22 31.7769,22 L21.1099,22 C19.5060957,22 18.1433755,20.9704661 17.6457062,19.5361355 C17.1280179,19.8189913 16.7769,20.3684619 16.7769,21 Z M22.2811398,39 C22.6930234,40.1651322 23.8043113,41 25.1104,41 C26.4164887,41 27.5277766,40.1651322 27.9396602,39 L22.2811398,39 Z M30.1104,38 C30.1104,40.7612847 27.8716847,43 25.1104,43 C22.3491153,43 20.1104,40.7612847 20.1104,38 C20.1104,37.4477153 20.5581153,37 21.1104,37 L29.1104,37 C29.6626847,37 30.1104,37.4477153 30.1104,38 Z M38,10 C37.4477153,10 37,9.55228475 37,9 C37,8.44771525 37.4477153,8 38,8 L44,8 C44.5522847,8 45,8.44771525 45,9 L45,15 C45,15.5522847 44.5522847,16 44,16 C43.4477153,16 43,15.5522847 43,15 L43,10 L38,10 Z M7,10 L7,15 C7,15.5522847 6.55228475,16 6,16 C5.44771525,16 5,15.5522847 5,15 L5,9 C5,8.44771525 5.44771525,8 6,8 L12,8 C12.5522847,8 13,8.44771525 13,9 C13,9.55228475 12.5522847,10 12,10 L7,10 Z M43,46 L43,41 C43,40.4477153 43.4477153,40 44,40 C44.5522847,40 45,40.4477153 45,41 L45,47 C45,47.5522847 44.5522847,48 44,48 L38,48 C37.4477153,48 37,47.5522847 37,47 C37,46.4477153 37.4477153,46 38,46 L43,46 Z M7,46 L12,46 C12.5522847,46 13,46.4477153 13,47 C13,47.5522847 12.5522847,48 12,48 L6,48 C5.44771525,48 5,47.5522847 5,47 L5,41 C5,40.4477153 5.44771525,40 6,40 C6.55228475,40 7,40.4477153 7,41 L7,46 Z M16,6.9999 C15.4477153,6.9999 15,6.55218475 15,5.9999 L15,0.9999 C15,0.44761525 15.4477153,-0.0001 16,-0.0001 L21,-0.0001 C21.5522847,-0.0001 22,0.44761525 22,0.9999 L22,5.9999 C22,6.55218475 21.5522847,6.9999 21,6.9999 L16,6.9999 Z M17,4.9999 L20,4.9999 L20,1.9999 L17,1.9999 L17,4.9999 Z M6,6.9999 C5.44771525,6.9999 5,6.55218475 5,5.9999 L5,0.9999 C5,0.44761525 5.44771525,-0.0001 6,-0.0001 L11,-0.0001 C11.5522847,-0.0001 12,0.44761525 12,0.9999 L12,5.9999 C12,6.55218475 11.5522847,6.9999 11,6.9999 L6,6.9999 Z M7,4.9999 L10,4.9999 L10,1.9999 L7,1.9999 L7,4.9999 Z M20.6099,29.6665 C20.6099,30.4955 19.9389,31.1665 19.1099,31.1665 C18.2819,31.1665 17.6099,30.4955 17.6099,29.6665 C17.6099,28.8385 18.2819,28.1665 19.1099,28.1665 C19.9389,28.1665 20.6099,28.8385 20.6099,29.6665 Z M29.6104,29.6665 C29.6104,28.8385 30.2814,28.1665 31.1104,28.1665 C31.9384,28.1665 32.6104,28.8385 32.6104,29.6665 C32.6104,30.4955 31.9384,31.1665 31.1104,31.1665 C30.2814,31.1665 29.6104,30.4955 29.6104,29.6665 Z" id="Combined-Shape" fill="#4A81FD" fill-rule="nonzero"></path>
    </g>
</svg>