<?xml version="1.0" encoding="UTF-8"?>
<svg width="50px" height="50px" viewBox="0 0 50 50" version="1.1" xmlns="http://www.w3.org/2000/svg" xmlns:xlink="http://www.w3.org/1999/xlink">
    <!-- Generator: Sketch 53.2 (72643) - https://sketchapp.com -->
    <title>AT/ICO/LE-Multiple voices@2x</title>
    <desc>Created with Sketch.</desc>
    <g id="AT/ICO/LE-Multiple-voices" stroke="none" stroke-width="1" fill="none" fill-rule="evenodd">
        <path d="M26.449163,34.4932455 C27.010045,33.9310375 27.010045,33.0161236 26.449163,32.4525896 C26.1746888,32.1820933 25.8127011,32.0322596 25.4268461,32.0322596 C25.0409911,32.0322596 24.6790034,32.1820933 24.4045292,32.4539156 C23.8436472,33.0161236 23.8436472,33.9310375 24.4045292,34.4932455 C24.6630919,34.7518082 25.0356872,34.9016419 25.4268461,34.9016419 C25.818005,34.9016419 26.1906004,34.7518082 26.449163,34.4932455 Z M17.4657688,41.6123368 L22.1000068,36.9807507 L21.7990134,36.6771053 L17.1661013,41.3139953 L17.4657688,41.6123368 Z M25.4268461,29.9743662 C26.3616495,29.9743662 27.2407624,30.3376799 27.9024176,30.9980091 C28.5627468,31.6583382 28.9260605,32.5374512 28.9260605,33.4735806 C28.9260605,34.4110359 28.5627468,35.2901488 27.9024176,35.9491521 C27.2407624,36.6108072 26.3616495,36.9741209 25.4268461,36.9741209 C25.2677306,36.9741209 25.1125931,36.9502536 24.9574555,36.9290382 L25.009168,36.9807507 L17.4657688,44.5214979 L16.6091972,43.6662523 L14.6176019,45.6591735 L13.1630213,44.204593 L15.1546166,42.2116717 L14.2569402,41.3139953 L21.8003394,33.7692701 L21.9740404,33.9442972 C21.8334884,32.8981129 22.1503934,31.8028681 22.9512746,30.999335 C23.6116038,30.3376799 24.4907168,29.9743662 25.4268461,29.9743662 Z M35.4912973,8.30164598 C35.4912973,7.47954939 34.8429018,6.81126442 34.0473244,6.81126442 C33.2477692,6.81126442 32.5980477,7.47954939 32.5980477,8.30164598 C32.5980477,9.12241661 33.2477692,9.78937561 34.0473244,9.78937561 C34.8429018,9.78937561 35.4912973,9.12241661 35.4912973,8.30164598 Z M26.863261,12.1363288 C26.863261,11.3129062 26.2148655,10.6459472 25.4179622,10.6459472 C24.6184069,10.6459472 23.9686854,11.3129062 23.9686854,12.1363288 C23.9686854,12.9570994 24.6184069,13.6253844 25.4179622,13.6253844 C26.2148655,13.6253844 26.863261,12.9570994 26.863261,12.1363288 Z M18.2325728,8.30164598 C18.2325728,7.47954939 17.5855032,6.81126442 16.7885999,6.81126442 C15.9890447,6.81126442 15.3379972,7.47954939 15.3379972,8.30164598 C15.3379972,9.12241661 15.9890447,9.78937561 16.7885999,9.78937561 C17.5855032,9.78937561 18.2325728,9.12241661 18.2325728,8.30164598 Z M13.3106009,14.0987529 L13.3106009,21.3822635 L11.4966846,20.4050293 L11.4966846,14.0921231 C11.4966846,12.9743369 12.1119311,10.8620791 14.4416467,10.8620791 L14.7558998,10.8620791 C14.012035,10.2574403 13.5254068,9.33987441 13.5254068,8.30164598 C13.5254068,6.48109982 14.9892691,5 16.7885999,5 C18.5852787,5 20.0478151,6.48109982 20.0478151,8.30164598 C20.0478151,9.34252634 19.559861,10.2614182 18.8133442,10.866057 C19.1965473,10.8541233 20.2573171,10.9920234 21.0462647,11.775667 C21.6389698,12.3630683 21.9399632,13.1586457 21.9399632,14.1411837 L21.9399632,14.9142197 C22.2860393,14.7696898 22.6639386,14.6967619 23.071009,14.6967619 L23.3826101,14.6967619 C22.6400713,14.0907971 22.1547691,13.1745572 22.1547691,12.1363288 C22.1547691,10.3144567 23.6186314,8.83203088 25.4179622,8.83203088 C27.214641,8.83203088 28.6758514,10.3144567 28.6758514,12.1363288 C28.6758514,13.1772091 28.1892232,14.094775 27.4453584,14.7007398 C27.9916549,14.7378667 28.4252445,14.8558773 28.7554091,14.9990813 L28.7554091,14.0921231 C28.7554091,12.9743369 29.3719816,10.8620791 31.7016972,10.8620791 L32.0146243,10.8620791 C31.2707595,10.2574403 30.7841313,9.33987441 30.7841313,8.30164598 C30.7841313,6.48109982 32.2479937,5 34.0473244,5 C35.8440033,5 37.3052136,6.48109982 37.3052136,8.30164598 C37.3052136,9.34252634 36.8172595,10.2614182 36.0720688,10.866057 C36.4473161,10.8501454 37.5120638,10.9893714 38.3049892,11.775667 C38.8976943,12.3617424 39.1986877,13.1573197 39.1986877,14.1411837 L39.1986877,20.4222668 L37.3860973,21.399501 L37.3860973,14.1411837 C37.3860973,12.8231772 36.448642,12.6759954 36.0455495,12.6746694 L31.7016972,12.6746694 C30.6396015,12.6746694 30.5733033,13.8600797 30.5706514,14.0987529 L30.5706514,25.0763943 L28.7554091,26.0549544 L28.7554091,17.9758665 C28.7554091,16.6167552 27.7317663,16.5106782 27.4175132,16.5106782 L23.071009,16.5106782 C21.9996315,16.5106782 21.9412892,17.6947625 21.9399632,17.9321097 L21.9399632,26.0284352 L20.1260469,25.051201 L20.1260469,14.1411837 C20.1260469,12.8231772 19.1899175,12.6759954 18.788151,12.6746694 L14.4416467,12.6746694 C13.379551,12.6746694 13.3132529,13.8600797 13.3106009,14.0987529 Z M29.0745682,26.0480594 L31.33003,24.8281742 L32.3085901,26.6367866 L30.0544543,27.8566719 L29.0745682,26.0480594 Z M39.1021577,20.6224871 L41.3576194,19.4012759 L42.3348536,21.2112144 L40.0807178,22.4310996 L39.1021577,20.6224871 Z M44.6998399,17.5937242 L45.6784,19.4023367 L43.4229382,20.6235479 L42.4457041,18.8149354 L44.6998399,17.5937242 Z M35.7594069,22.4288455 L38.0148686,21.2116121 L38.9934288,23.0202246 L36.739293,24.2401099 L35.7594069,22.4288455 Z M32.4171864,24.2403751 L34.6713222,23.0204898 L35.6498824,24.8264504 L33.3970725,26.0476616 L32.4171864,24.2403751 Z M25.7323478,27.8569371 L27.9864836,26.6357259 L28.9650437,28.4456643 L26.7109079,29.6655496 L25.7323478,27.8569371 Z M21.7130911,28.4448688 L22.6916512,26.6362563 L24.945787,27.8561415 L23.9672269,29.664754 L21.7130911,28.4448688 Z M14.9188605,22.4288455 L13.9403004,24.2401099 L11.6848386,23.0202246 L12.6647247,21.2116121 L14.9188605,22.4288455 Z M18.3696773,26.6371844 L19.3482374,24.827246 L21.6036992,26.0484572 L20.6238131,27.8570697 L18.3696773,26.6371844 Z M8.34275081,21.2116121 L9.32131094,19.4016737 L11.5754468,20.6228849 L10.5968866,22.4314974 L8.34275081,21.2116121 Z M5,19.4026019 L5.97856013,17.5939894 L8.23269594,18.8152006 L7.25546177,20.6238131 L5,19.4026019 Z M17.2819904,26.0480594 L15.0278546,24.8281742 L16.0064148,23.0195617 L18.2605506,24.2394469 L17.2819904,26.0480594 Z" fill="#4A81FD" fill-rule="nonzero"></path>
    </g>
</svg>