<?xml version="1.0" encoding="UTF-8"?>
<svg width="50px" height="50px" viewBox="0 0 50 50" version="1.1" xmlns="http://www.w3.org/2000/svg" xmlns:xlink="http://www.w3.org/1999/xlink">
    <!-- Generator: Sketch 53.2 (72643) - https://sketchapp.com -->
    <title>AT/ICO/LE-USB Type-C@2x</title>
    <desc>Created with Sketch.</desc>
    <g id="AT/ICO/LE-USB-Type-C" stroke="none" stroke-width="1" fill="none" fill-rule="evenodd">
        <path d="M10.9375,14.125 C6.62277539,14.125 3.125,17.6227754 3.125,21.9375 C3.125,26.2522246 6.62277539,29.75 10.9375,29.75 L39.0625,29.75 C43.3772246,29.75 46.875,26.2522246 46.875,21.9375 C46.875,17.6227754 43.3772246,14.125 39.0625,14.125 L10.9375,14.125 Z M10.9375,11 L39.0625,11 C45.1031145,11 50,15.8968855 50,21.9375 C50,27.9781145 45.1031145,32.875 39.0625,32.875 L10.9375,32.875 C4.89688555,32.875 1.38777878e-15,27.9781145 0,21.9375 C-1.38777878e-15,15.8968855 4.89688555,11 10.9375,11 Z M11.375,18.8125 L38.625,18.8125 C39.7295695,18.8125 40.625,19.7079305 40.625,20.8125 L40.625,23.0625 C40.625,24.1670695 39.7295695,25.0625 38.625,25.0625 L11.375,25.0625 C10.2704305,25.0625 9.375,24.1670695 9.375,23.0625 L9.375,20.8125 C9.375,19.7079305 10.2704305,18.8125 11.375,18.8125 Z M6.5625,43.625 C5.97499706,43.625 5.51562666,43.4812514 5.184375,43.19375 C4.85312334,42.9062486 4.6875,42.4729196 4.6875,41.89375 L4.6875,39.34375 C4.6875,39.2979164 4.70312484,39.2604168 4.734375,39.23125 C4.76562516,39.2020832 4.80208313,39.1875 4.84375,39.1875 L5.65,39.1875 C5.69583356,39.1875 5.73437484,39.2020832 5.765625,39.23125 C5.79687516,39.2604168 5.8125,39.2979164 5.8125,39.34375 L5.8125,41.8875 C5.8125,42.1583347 5.87604103,42.3614577 6.003125,42.496875 C6.13020897,42.6322923 6.31458213,42.7 6.55625,42.7 C6.79375119,42.7 6.97708269,42.6312507 7.10625,42.49375 C7.23541731,42.3562493 7.3,42.154168 7.3,41.8875 L7.3,39.34375 C7.3,39.2979164 7.31562484,39.2604168 7.346875,39.23125 C7.37812516,39.2020832 7.41458313,39.1875 7.45625,39.1875 L8.26875,39.1875 C8.31458356,39.1875 8.35208319,39.2020832 8.38125,39.23125 C8.41041681,39.2604168 8.425,39.2979164 8.425,39.34375 L8.425,41.89375 C8.425,42.4729196 8.25937666,42.9062486 7.928125,43.19375 C7.59687334,43.4812514 7.14166956,43.625 6.5625,43.625 Z M11.3339286,43.625 C10.9380933,43.625 10.5985133,43.5666673 10.3151786,43.45 C10.0318438,43.3333327 9.81830431,43.1802093 9.67455359,42.990625 C9.53080287,42.8010407 9.45476197,42.5937511 9.44642859,42.36875 C9.44642859,42.3354165 9.45997012,42.3052085 9.48705359,42.278125 C9.51413706,42.2510415 9.5464284,42.2375 9.58392859,42.2375 L10.3714286,42.2375 C10.4214288,42.2375 10.4620534,42.2468749 10.4933036,42.265625 C10.5245537,42.2843751 10.5568451,42.3124998 10.5901786,42.35 C10.6443455,42.4583339 10.7318447,42.5479163 10.8526786,42.61875 C10.9735125,42.6895837 11.1339276,42.725 11.3339286,42.725 C11.5714298,42.725 11.752678,42.6875004 11.8776786,42.6125 C12.0026792,42.5374996 12.0651786,42.4354173 12.0651786,42.30625 C12.0651786,42.2145829 12.0328872,42.1395836 11.9683036,42.08125 C11.9037199,42.0229164 11.8026793,41.9708336 11.6651786,41.925 C11.5276779,41.8791664 11.3235133,41.8270836 11.0526786,41.76875 C10.5526761,41.6645828 10.1787215,41.5114593 9.93080359,41.309375 C9.68288569,41.1072907 9.55892859,40.8187519 9.55892859,40.44375 C9.55892859,40.1895821 9.62976122,39.962501 9.77142859,39.7625 C9.91309597,39.562499 10.1151773,39.4062506 10.3776786,39.29375 C10.6401799,39.1812494 10.9464268,39.125 11.2964286,39.125 C11.6589304,39.125 11.9735106,39.1874994 12.2401786,39.3125 C12.5068466,39.4375006 12.7099696,39.5947907 12.8495536,39.784375 C12.9891376,39.9739593 13.0630952,40.1604157 13.0714286,40.34375 C13.0714286,40.3812502 13.0589287,40.4124999 13.0339286,40.4375 C13.0089285,40.4625001 12.9776788,40.475 12.9401786,40.475 L12.1151786,40.475 C12.0651783,40.475 12.0245537,40.4666668 11.9933036,40.45 C11.9620534,40.4333333 11.9339287,40.4062502 11.9089286,40.36875 C11.8839285,40.2729162 11.8162208,40.191667 11.7058036,40.125 C11.5953864,40.058333 11.4589294,40.025 11.2964286,40.025 C11.1089277,40.025 10.9651791,40.058333 10.8651786,40.125 C10.7651781,40.191667 10.7151786,40.2895827 10.7151786,40.41875 C10.7151786,40.5062504 10.7433033,40.5791664 10.7995536,40.6375 C10.8558039,40.6958336 10.9474696,40.7489581 11.0745536,40.796875 C11.2016376,40.8447919 11.3839274,40.8937497 11.6214286,40.94375 C12.0089305,41.0145837 12.3183024,41.1031245 12.5495536,41.209375 C12.7808047,41.3156255 12.9505947,41.4531242 13.0589286,41.621875 C13.1672625,41.7906258 13.2214286,42.0020821 13.2214286,42.25625 C13.2214286,42.5354181 13.1412211,42.778124 12.9808036,42.984375 C12.8203861,43.190626 12.5974717,43.3489578 12.3120536,43.459375 C12.0266355,43.5697922 11.7005971,43.625 11.3339286,43.625 Z M14.4491072,43.5625 C14.4074403,43.5625 14.3709823,43.5468752 14.3397322,43.515625 C14.308482,43.4843748 14.2928572,43.4479169 14.2928572,43.40625 L14.2928572,39.34375 C14.2928572,39.2979164 14.308482,39.2604168 14.3397322,39.23125 C14.3709823,39.2020832 14.4074403,39.1875 14.4491072,39.1875 L16.3553572,39.1875 C16.8803598,39.1875 17.2709809,39.2947906 17.5272322,39.509375 C17.7834835,39.7239594 17.9116072,40.0291647 17.9116072,40.425 C17.9116072,40.6333344 17.8584827,40.8093743 17.7522322,40.953125 C17.6459817,41.0968757 17.5261912,41.202083 17.3928572,41.26875 C17.5636914,41.3479171 17.7074399,41.4749991 17.8241072,41.65 C17.9407744,41.8250009 17.9991072,42.0208322 17.9991072,42.2375 C17.9991072,42.6541687 17.8616086,42.9791655 17.5866072,43.2125 C17.3116058,43.4458345 16.9199431,43.5625 16.4116072,43.5625 L14.4491072,43.5625 Z M16.2303572,40.925 C16.3970247,40.925 16.5241067,40.8822921 16.6116072,40.796875 C16.6991076,40.7114579 16.7428572,40.5979174 16.7428572,40.45625 C16.7428572,40.3187493 16.6991076,40.2083337 16.6116072,40.125 C16.5241067,40.0416662 16.3970247,40 16.2303572,40 L15.4178572,40 L15.4178572,40.925 L16.2303572,40.925 Z M16.2866072,42.75 C16.4574414,42.75 16.5907734,42.7000005 16.6866072,42.6 C16.782441,42.4999995 16.8303572,42.3791674 16.8303572,42.2375 C16.8303572,42.0874993 16.782441,41.9635422 16.6866072,41.865625 C16.5907734,41.7677078 16.4574414,41.71875 16.2866072,41.71875 L15.4178572,41.71875 L15.4178572,42.75 L16.2866072,42.75 Z M21.8919644,43.5625 C21.8502975,43.5625 21.8138395,43.5468752 21.7825894,43.515625 C21.7513392,43.4843748 21.7357144,43.4479169 21.7357144,43.40625 L21.7357144,40.16875 L20.6232144,40.16875 C20.5815475,40.16875 20.5450895,40.1531252 20.5138394,40.121875 C20.4825892,40.0906248 20.4669644,40.0541669 20.4669644,40.0125 L20.4669644,39.34375 C20.4669644,39.2979164 20.4825892,39.2604168 20.5138394,39.23125 C20.5450895,39.2020832 20.5815475,39.1875 20.6232144,39.1875 L23.9857144,39.1875 C24.0315479,39.1875 24.0690476,39.2020832 24.0982144,39.23125 C24.1273812,39.2604168 24.1419644,39.2979164 24.1419644,39.34375 L24.1419644,40.0125 C24.1419644,40.0583336 24.1273812,40.0958332 24.0982144,40.125 C24.0690476,40.1541668 24.0315479,40.16875 23.9857144,40.16875 L22.8732144,40.16875 L22.8732144,43.40625 C22.8732144,43.4479169 22.8586312,43.4843748 22.8294644,43.515625 C22.8002976,43.5468752 22.7627979,43.5625 22.7169644,43.5625 L21.8919644,43.5625 Z M26.438393,43.5625 C26.3967261,43.5625 26.3602681,43.5468752 26.329018,43.515625 C26.2977678,43.4843748 26.282143,43.4479169 26.282143,43.40625 L26.282143,42.0625 L24.832143,39.3875 C24.8196429,39.3499998 24.813393,39.3270834 24.813393,39.31875 C24.813393,39.2854165 24.8269345,39.2552085 24.854018,39.228125 C24.8811014,39.2010415 24.9133928,39.1875 24.950893,39.1875 L25.732143,39.1875 C25.8154767,39.1875 25.8883926,39.2312496 25.950893,39.31875 L26.844643,40.93125 L27.744643,39.31875 C27.7946432,39.2312496 27.8675591,39.1875 27.963393,39.1875 L28.744643,39.1875 C28.7821431,39.1875 28.8133928,39.2010415 28.838393,39.228125 C28.8633931,39.2552085 28.875893,39.2854165 28.875893,39.31875 C28.875893,39.3395834 28.8717263,39.3624999 28.863393,39.3875 L27.413393,42.0625 L27.413393,43.40625 C27.413393,43.4520836 27.3977681,43.4895832 27.366518,43.51875 C27.3352678,43.5479168 27.2967265,43.5625 27.250893,43.5625 L26.438393,43.5625 Z M30.0160715,43.5625 C29.9744047,43.5625 29.9379467,43.5468752 29.9066965,43.515625 C29.8754464,43.4843748 29.8598215,43.4479169 29.8598215,43.40625 L29.8598215,39.34375 C29.8598215,39.2979164 29.8754464,39.2604168 29.9066965,39.23125 C29.9379467,39.2020832 29.9744047,39.1875 30.0160715,39.1875 L31.7660715,39.1875 C32.2994075,39.1875 32.719195,39.3104154 33.0254465,39.55625 C33.3316981,39.8020846 33.4848215,40.1604143 33.4848215,40.63125 C33.4848215,41.097919 33.3327397,41.4489572 33.0285715,41.684375 C32.7244034,41.9197928 32.3035742,42.0375 31.7660715,42.0375 L31.0223215,42.0375 L31.0223215,43.40625 C31.0223215,43.4520836 31.0066967,43.4895832 30.9754465,43.51875 C30.9441964,43.5479168 30.9056551,43.5625 30.8598215,43.5625 L30.0160715,43.5625 Z M31.7348215,41.175 C31.9181558,41.175 32.0619044,41.1281255 32.1660715,41.034375 C32.2702387,40.9406245 32.3223215,40.8020843 32.3223215,40.61875 C32.3223215,40.4479158 32.2733637,40.3114588 32.1754465,40.209375 C32.0775294,40.1072912 31.9306559,40.05625 31.7348215,40.05625 L31.0035715,40.05625 L31.0035715,41.175 L31.7348215,41.175 Z M34.6875001,43.5625 C34.6458333,43.5625 34.6093753,43.5468752 34.5781251,43.515625 C34.546875,43.4843748 34.5312501,43.4479169 34.5312501,43.40625 L34.5312501,39.34375 C34.5312501,39.2979164 34.546875,39.2604168 34.5781251,39.23125 C34.6093753,39.2020832 34.6458333,39.1875 34.6875001,39.1875 L37.6062501,39.1875 C37.6520837,39.1875 37.6895833,39.2020832 37.7187501,39.23125 C37.747917,39.2604168 37.7625001,39.2979164 37.7625001,39.34375 L37.7625001,39.93125 C37.7625001,39.9729169 37.747917,40.0093748 37.7187501,40.040625 C37.6895833,40.0718752 37.6520837,40.0875 37.6062501,40.0875 L35.6125001,40.0875 L35.6125001,40.93125 L37.4687501,40.93125 C37.5145837,40.93125 37.5520833,40.9468748 37.5812501,40.978125 C37.610417,41.0093752 37.6250001,41.0479164 37.6250001,41.09375 L37.6250001,41.6375 C37.6250001,41.6791669 37.610417,41.7156248 37.5812501,41.746875 C37.5520833,41.7781252 37.5145837,41.79375 37.4687501,41.79375 L35.6125001,41.79375 L35.6125001,42.6625 L37.6562501,42.6625 C37.7020837,42.6625 37.7395833,42.6770832 37.7687501,42.70625 C37.797917,42.7354168 37.8125001,42.7729164 37.8125001,42.81875 L37.8125001,43.40625 C37.8125001,43.4479169 37.797917,43.4843748 37.7687501,43.515625 C37.7395833,43.5468752 37.7020837,43.5625 37.6562501,43.5625 L34.6875001,43.5625 Z M39.0026787,42.1375 C38.9568452,42.1375 38.9193455,42.1229168 38.8901787,42.09375 C38.8610119,42.0645832 38.8464287,42.0270836 38.8464287,41.98125 L38.8464287,41.39375 C38.8464287,41.3479164 38.8610119,41.3104168 38.8901787,41.28125 C38.9193455,41.2520832 38.9568452,41.2375 39.0026787,41.2375 L40.9589287,41.2375 C41.0047623,41.2375 41.0433036,41.2520832 41.0745537,41.28125 C41.1058039,41.3104168 41.1214287,41.3479164 41.1214287,41.39375 L41.1214287,41.98125 C41.1214287,42.0270836 41.1058039,42.0645832 41.0745537,42.09375 C41.0433036,42.1229168 41.0047623,42.1375 40.9589287,42.1375 L39.0026787,42.1375 Z M44.1491073,43.625 C43.553271,43.625 43.0876507,43.4802098 42.7522323,43.190625 C42.416814,42.9010402 42.2386908,42.4812527 42.2178573,41.93125 C42.2136906,41.8187494 42.2116073,41.6354179 42.2116073,41.38125 C42.2116073,41.1229154 42.2136906,40.9354173 42.2178573,40.81875 C42.2386908,40.2770806 42.4199389,39.8593765 42.7616073,39.565625 C43.1032757,39.2718735 43.5657711,39.125 44.1491073,39.125 C44.5157758,39.125 44.8449392,39.1864577 45.1366073,39.309375 C45.4282754,39.4322923 45.6584815,39.6072905 45.8272323,39.834375 C45.9959832,40.0614595 46.0824406,40.3270818 46.0866073,40.63125 L46.0866073,40.64375 C46.0866073,40.6770835 46.0730658,40.7052082 46.0459823,40.728125 C46.0188989,40.7510418 45.9886908,40.7625 45.9553573,40.7625 L45.1116073,40.7625 C45.0574404,40.7625 45.0157741,40.7510418 44.9866073,40.728125 C44.9574405,40.7052082 44.9324408,40.6625003 44.9116073,40.6 C44.8532737,40.3874989 44.7616079,40.2385421 44.6366073,40.153125 C44.5116067,40.0677079 44.347025,40.025 44.1428573,40.025 C43.6511882,40.025 43.3970241,40.2999972 43.3803573,40.85 C43.3761906,40.9625006 43.3741073,41.1354155 43.3741073,41.36875 C43.3741073,41.6020845 43.3761906,41.7791661 43.3803573,41.9 C43.3970241,42.4500028 43.6511882,42.725 44.1428573,42.725 C44.347025,42.725 44.51369,42.6802088 44.6428573,42.590625 C44.7720246,42.5010412 44.8616071,42.3541677 44.9116073,42.15 C44.9282741,42.0874997 44.9511905,42.0447918 44.9803573,42.021875 C45.0095241,41.9989582 45.0532737,41.9875 45.1116073,41.9875 L45.9553573,41.9875 C45.9928575,41.9875 46.0251489,41.9999999 46.0522323,42.025 C46.0793158,42.0500001 46.090774,42.0812498 46.0866073,42.11875 C46.0824406,42.4229182 45.9959832,42.6885405 45.8272323,42.915625 C45.6584815,43.1427095 45.4282754,43.3177077 45.1366073,43.440625 C44.8449392,43.5635423 44.5157758,43.625 44.1491073,43.625 Z" id="Combined-Shape" fill="#4A81FD" fill-rule="nonzero"></path>
    </g>
</svg>