<?xml version="1.0" encoding="UTF-8"?>
<svg width="50px" height="50px" viewBox="0 0 50 50" version="1.1" xmlns="http://www.w3.org/2000/svg" xmlns:xlink="http://www.w3.org/1999/xlink">
    <!-- Generator: Sketch 53.2 (72643) - https://sketchapp.com -->
    <title>AT/ICO/LE-User-Detection@2x</title>
    <desc>Created with Sketch.</desc>
    <g id="AT/ICO/LE-User-Detection" stroke="none" stroke-width="1" fill="none" fill-rule="evenodd">
        <path d="M0.960909763,9.24489645 C0.436945266,9.24489645 -3.69822491e-05,8.8204142 -3.69822491e-05,8.29637574 L-3.69822491e-05,1.02418639 C-3.69822491e-05,0.500147929 0.638054734,0.073964497 1.1620932,0.073964497 L8.43443047,0.073964497 C8.95832101,0.073964497 9.38280325,0.510872781 9.38280325,1.03491124 C9.38280325,1.5589497 8.95832101,1.99578402 8.43443047,1.99578402 L1.92185651,1.99578402 L1.92185651,8.29637574 C1.92185651,8.8204142 1.48494822,9.24489645 0.960909763,9.24489645 Z M49.0065163,9.24489645 C48.4825518,9.24489645 48.0456435,8.8204142 48.0456435,8.29637574 L48.0456435,1.99578402 L42.5824778,1.99578402 C42.0586612,1.99578402 41.634179,1.5589497 41.634179,1.03491124 C41.634179,0.510872781 42.0586612,0.073964497 42.5824778,0.073964497 L49.2226405,0.073964497 C49.746605,0.073964497 49.967463,0.500147929 49.967463,1.02418639 L49.967463,8.29637574 C49.967463,8.8204142 49.5305547,9.24489645 49.0065163,9.24489645 Z M8.43446746,49.4008284 L1.16205621,49.4008284 C0.638017751,49.4008284 -5.47117907e-13,48.9763462 -5.47117907e-13,48.4523077 L-5.47117907e-13,41.1798964 C-5.47117907e-13,40.655932 0.436908284,40.2313018 0.960946746,40.2313018 C1.48491124,40.2313018 1.92181953,40.655932 1.92181953,41.1798964 L1.92181953,47.4790089 L8.43446746,47.4790089 C8.95828402,47.4790089 9.38276627,47.9159172 9.38276627,48.4398817 C9.38276627,48.9639201 8.95828402,49.4008284 8.43446746,49.4008284 Z M49.2226331,49.4008284 L42.5825444,49.4008284 C42.0587278,49.4008284 41.6341716,48.9639201 41.6341716,48.4398817 C41.6341716,47.9159172 42.0587278,47.4790089 42.5825444,47.4790089 L48.0456361,47.4790089 L48.0456361,41.1798964 C48.0456361,40.655932 48.4825444,40.2313018 49.0065089,40.2313018 C49.5305473,40.2313018 49.9674556,40.655932 49.9674556,41.1798964 L49.9674556,48.4523077 C49.9674556,48.9763462 49.7465976,49.4008284 49.2226331,49.4008284 Z M21.7806879,14.1012056 C13.2392678,15.5361169 6.00036243,22.281753 3.91411982,24.4512796 C6.06441568,26.3645932 13.2392678,32.110747 21.7806879,33.3386317 L21.7806879,35.2562352 C10.8903772,33.823395 2.31367604,25.5574186 1.92928254,25.1729512 C1.57698964,24.8228033 1.58231509,24.2590459 1.9068713,23.8811612 C2.29340976,23.4370044 10.6767678,13.8342678 21.7806879,12.1771672 L21.7806879,14.1012056 Z M48.2228476,23.8811612 C48.5495488,24.2590459 48.5015459,24.8228033 48.149179,25.1729512 C47.7626405,25.5594896 39.2905991,33.9578624 27.9732175,35.2904068 L27.9732175,33.3728033 C36.9417825,32.2303476 43.9371967,26.385895 46.1109393,24.4512796 C43.999105,22.2604512 36.9417825,15.3995044 27.9732175,14.0605991 L27.9732175,12.1366346 C39.2905991,13.6783506 47.8363092,23.4327145 48.2228476,23.8811612 Z M18.4753624,26.8578402 C19.2037648,28.3738905 20.3610873,29.6017751 21.8558358,30.3171598 L21.8558358,32.3670118 C19.2934098,31.4488166 17.3523595,29.4181213 16.4192234,26.8578402 L18.4753624,26.8578402 Z M16.3848299,20.6652367 C17.3030251,18.0601331 19.2934098,15.9909763 21.8558358,15.0599112 L21.8558358,17.1119822 C20.3610873,17.8423077 19.1522855,19.1043639 18.4306879,20.6652367 L16.3848299,20.6652367 Z M31.6784689,20.6652367 C30.9586464,19.1085799 29.7566494,17.8465976 28.0483654,17.1142012 L28.0483654,15.0642012 C30.8244009,15.9952663 32.8059837,18.0643491 33.722034,20.6652367 L31.6784689,20.6652367 Z M28.0483654,30.3149408 C29.7566494,29.5974852 30.907463,28.3718195 31.6336464,26.8578402 L33.6878624,26.8578402 C32.7566494,29.4138314 30.6107914,31.4423817 28.0483654,32.3627959 L28.0483654,30.3149408 Z M25.0533284,28.2394009 C22.5579882,28.2394009 20.5274408,26.2092973 20.5274408,23.7136612 C20.5274408,21.2180991 22.5579882,19.1875518 25.0533284,19.1875518 C27.5489645,19.1875518 29.5794379,21.2180991 29.5794379,23.7136612 C29.5794379,26.2092973 27.5489645,28.2394009 25.0533284,28.2394009 Z M25.0533284,21.0848891 C23.6036243,21.0848891 22.4244822,22.2640311 22.4244822,23.7136612 C22.4244822,25.1629956 23.6036243,26.3423595 25.0533284,26.3423595 C26.5030325,26.3423595 27.6823964,25.1629956 27.6823964,23.7136612 C27.6823964,22.2640311 26.5030325,21.0848891 25.0533284,21.0848891 Z M25.0533284,18.2318047 C24.5295118,18.2318047 24.1991864,17.8073225 24.1991864,17.283284 L24.1991864,9.69482249 C24.1991864,9.17085799 24.5295118,8.74630178 25.0533284,8.74630178 C25.5775148,8.74630178 25.9074704,9.17085799 25.9074704,9.69482249 L25.9074704,17.283284 C25.9074704,17.8073225 25.5775148,18.2318047 25.0533284,18.2318047 Z M25.0533284,39.1002663 C24.5295118,39.1002663 24.1991864,38.6755621 24.1991864,38.1517456 L24.1991864,30.5630621 C24.1991864,30.0393195 24.5295118,29.6145414 25.0533284,29.6145414 C25.5775148,29.6145414 25.9074704,30.0393195 25.9074704,30.5630621 L25.9074704,38.1517456 C25.9074704,38.6755621 25.5775148,39.1002663 25.0533284,39.1002663 Z M18.195392,24.6743713 L10.6070044,24.6743713 C10.082966,24.6743713 9.65826183,24.237537 9.65826183,23.7134985 C9.65826183,23.189534 10.082966,22.7526257 10.6070044,22.7526257 L18.195392,22.7526257 C18.7194305,22.7526257 19.1439127,23.189534 19.1439127,23.7134985 C19.1439127,24.237537 18.7194305,24.6743713 18.195392,24.6743713 Z M39.0638536,24.6743713 L31.4751701,24.6743713 C30.9512056,24.6743713 30.5267234,24.237537 30.5267234,23.7134985 C30.5267234,23.189534 30.9512056,22.7526257 31.4751701,22.7526257 L39.0638536,22.7526257 C39.587892,22.7526257 40.0123743,23.189534 40.0123743,23.7134985 C40.0123743,24.237537 39.587892,24.6743713 39.0638536,24.6743713 Z" id="Combined-Shape" fill="#4A81FD" fill-rule="nonzero"></path>
    </g>
</svg>