<?xml version="1.0" encoding="UTF-8"?>
<svg width="50px" height="50px" viewBox="0 0 50 50" version="1.1" xmlns="http://www.w3.org/2000/svg" xmlns:xlink="http://www.w3.org/1999/xlink">
    <!-- Generator: Sketch 53.2 (72643) - https://sketchapp.com -->
    <title>AT/ICO/LE-Visible-to-online-trackers@2x</title>
    <desc>Created with Sketch.</desc>
    <g id="AT/ICO/LE-Visible-to-online-trackers" stroke="none" stroke-width="1" fill="none" fill-rule="evenodd">
        <path d="M45,24.5009155 L45,33.25 L48.75,33.25 C49.440625,33.25 50,33.809375 50,34.5 L50,38.25 C50,41.6960938 47.196875,44.5 43.75,44.5 L6.25,44.5 C2.803125,44.5 0,41.6960938 0,38.25 L0,34.5 C0,33.809375 0.559375,33.25 1.25,33.25 L5,33.25 L5,12 C5,9.2421875 7.24375,7 10,7 L27.4990845,7 C29.7796004,3.96388324 33.4104554,2 37.5,2 C44.4035594,2 50,7.59644063 50,14.5 C50,18.5895446 48.0361168,22.2203996 45,24.5009155 Z M26.0401092,9.5 L10,9.5 C8.61953125,9.5 7.5,10.6195312 7.5,12 L7.5,33.25 L19.4429688,33.25 C19.7601563,33.25 19.9914063,33.4945312 20.0617188,33.8039062 C20.3140625,34.9179688 21.3101562,35.75 22.5,35.75 L27.5,35.75 C28.6898438,35.75 29.6859375,34.9179688 29.9382812,33.8039062 C30.0085937,33.4945312 30.2398437,33.25 30.5570313,33.25 L42.5,33.25 L42.5,25.9598908 C40.9688441,26.6288812 39.2777618,27 37.5,27 C30.5964406,27 25,21.4035594 25,14.5 C25,12.7222382 25.3711188,11.0311559 26.0401092,9.5 Z M47.5,38.25 L47.5,35.75 L32.2851562,35.75 C31.7703125,37.2046875 30.38125,38.25 28.75,38.25 L21.25,38.25 C19.6195313,38.25 18.2296875,37.2046875 17.7148438,35.75 L2.5,35.75 L2.5,38.25 C2.5,40.3179688 4.18203125,42 6.25,42 L43.75,42 C45.8179688,42 47.5,40.3179688 47.5,38.25 Z M37.5,25 C43.2989899,25 48,20.2989899 48,14.5 C48,8.70101013 43.2989899,4 37.5,4 C31.7010101,4 27,8.70101013 27,14.5 C27,20.2989899 31.7010101,25 37.5,25 Z M43.9173868,20.2869489 C44.0275377,20.3970998 44.0275377,20.5752161 43.9173868,20.6853669 L43.6853669,20.9173868 C43.5752161,21.0275377 43.3970998,21.0275377 43.2869489,20.9173868 L40.263659,17.894097 C40.212099,17.8401933 40.1816318,17.7698843 40.1816318,17.6948879 L40.1816318,17.4558371 C39.312143,18.2573605 38.1520434,18.7495239 36.874762,18.7495239 C34.1819247,18.7495239 32,16.5675992 32,13.874762 C32,11.1819247 34.1819247,9 36.874762,9 C39.5675992,9 41.7495239,11.1819247 41.7495239,13.874762 C41.7495239,15.1520434 41.2573605,16.312143 40.4534935,17.1816318 L40.6948879,17.1816318 C40.7698843,17.1816318 40.8401933,17.2097554 40.894097,17.263659 L43.9173868,20.2869489 Z M36.874762,17.9995606 C39.1551194,17.9995606 40.9995606,16.1551194 40.9995606,13.874762 C40.9995606,11.5944046 39.1551194,9.74996338 36.874762,9.74996338 C34.5944046,9.74996338 32.7499634,11.5944046 32.7499634,13.874762 C32.7499634,16.1551194 34.5944046,17.9995606 36.874762,17.9995606 Z" fill="#4A81FD" fill-rule="nonzero"></path>
    </g>
</svg>