<?xml version="1.0" encoding="UTF-8"?>
<svg width="310px" height="48px" viewBox="0 0 310 48" version="1.1" xmlns="http://www.w3.org/2000/svg" xmlns:xlink="http://www.w3.org/1999/xlink">
    <!-- Generator: Sketch 43.1 (39012) - http://www.bohemiancoding.com/sketch -->
    <title>SurfEasy-logo-042017-C</title>
    <desc>Created with Sketch.</desc>
    <defs></defs>
    <g id="Page-1" stroke="none" stroke-width="1" fill="none" fill-rule="evenodd">
        <g id="SurfEasy-logo-042017-C" fill-rule="nonzero">
            <path d="M167.129513,37.6423814 L167.129513,28.6363702 C167.129513,28.3168398 167.389686,28.0577729 167.710581,28.0577729 L184.002577,28.0577729 C184.323472,28.0577729 184.583646,27.798706 184.583646,27.4791756 L184.583646,20.3870196 C184.583646,20.0674892 184.323472,19.8084223 184.002577,19.8084223 L167.710581,19.8084223 C167.389686,19.8084223 167.129513,19.5493554 167.129513,19.229825 L167.129513,9.56377897 C167.129513,9.24424863 167.389686,8.9851817 167.710581,8.9851817 L185.99201,8.9851817 C186.312905,8.9851817 186.573079,8.72611477 186.573079,8.40658443 L186.573079,1.44649318 C186.573079,1.12696284 186.312905,0.867895909 185.99201,0.867895909 L158.48641,0.867895909 C158.165515,0.867895909 157.905342,1.12696284 157.905342,1.44649318 L157.905342,45.7598118 C157.905342,46.0793422 158.165515,46.3384091 158.48641,46.3384091 L186.589203,46.3384091 C186.910244,46.3384091 187.170272,46.0793422 187.170272,45.7598118 L187.170272,38.7995759 C187.170272,38.4800456 186.910244,38.2209786 186.589203,38.2209786 L167.710581,38.2209786 C167.389686,38.2209786 167.129513,37.9619117 167.129513,37.6423814" id="Fill-1-Copy-21" fill="#0A2955"></path>
            <path d="M107.387982,28.3218028 C107.057209,28.4723828 106.796018,28.6186232 106.497785,28.7671781 C106.126628,28.9520399 105.989495,29.3961133 106.194032,29.7555669 L114.966712,45.1724359 C115.305765,45.6490554 114.964388,46.3082223 114.377799,46.3095242 L105.344945,46.3276053 C105.102785,46.3280393 104.876314,46.2078357 104.741796,46.0072071 L95.9165292,30.6591912 C95.6474945,30.210489 95.3626257,30.0497836 94.8663933,30.0479032 L91.6484364,30.0542677 C91.2473539,30.0551356 90.9228272,30.379584 90.9236988,30.7789608 L90.9540596,45.7779379 C90.9546407,46.0974683 90.6950484,46.3569691 90.3740081,46.3576924 L82.3121196,46.3737485 C81.9912246,46.3744717 81.7304701,46.1159834 81.7298891,45.796453 L81.640114,1.48313439 C81.6393876,1.16360405 81.8991252,0.90410317 82.2200203,0.903379924 L99.8879865,0.867940841 C110.37293,0.84682204 114.899744,8.27398593 114.915578,15.6865402 C114.931267,23.0992392 110.580953,26.8689451 107.387982,28.3218028 M90.8806997,9.58204972 L90.9059762,22.0856814 C90.9065573,22.4053564 91.1673117,22.6638448 91.4882068,22.6631215 L98.2730521,22.6495245 C103.44921,22.6391097 105.632865,19.5329103 105.625456,15.9032249 C105.618193,12.2735396 103.288835,8.97842811 98.9754186,8.98710707 L91.460606,9.0021506 C91.1395657,9.00287385 90.8799734,9.26237472 90.8806997,9.58204972" id="Fill-6-Copy-21" fill="#0068FF"></path>
            <path d="M149.858126,8.40672908 L149.858126,1.44649318 C149.858126,1.12696284 149.46082,0.867895909 149.139925,0.867895909 L122.169634,0.867895909 C121.848739,0.867895909 121.588566,1.12696284 121.588566,1.44649318 L121.588566,45.7598118 C121.588566,46.0793422 121.848739,46.3384091 122.169634,46.3384091 L130.231668,46.3384091 C130.552563,46.3384091 130.812737,46.0793422 130.812737,45.7598118 L130.812737,28.5704101 C130.812737,28.2508797 131.07291,27.9918128 131.393805,27.9918128 L148.558857,27.9918128 C148.879752,27.9918128 149.139925,27.7327459 149.139925,27.4132155 L149.139925,20.5190844 C149.139925,20.199554 148.879752,19.9404871 148.558857,19.9404871 L131.393805,19.9404871 C131.07291,19.9404871 130.812737,19.6814202 130.812737,19.3618898 L130.812737,9.56392362 C130.812737,9.24439328 131.07291,8.98532635 131.393805,8.98532635 L149.139925,8.9851817 C149.46082,8.9851817 149.858126,8.72625942 149.858126,8.40672908" id="Fill-8-Copy-21" fill="#0068FF"></path>
            <path d="M225.080428,45.9688301 L222.94442,40.480401 C222.511088,39.3666012 221.434804,38.6326506 220.235189,38.6326506 L205.668239,38.6326506 C204.459762,38.6326506 203.377377,39.3777392 202.950292,40.5035449 L200.879073,45.9642013 C200.793656,46.1892756 200.577208,46.3384091 200.335484,46.3384091 L191.753103,46.3384091 C191.347808,46.3384091 191.066862,45.9355607 191.208788,45.5573028 L207.829378,1.24398414 C207.914214,1.0177526 208.131098,0.867895909 208.373694,0.867895909 L217.520728,0.867895909 C217.763469,0.867895909 217.980643,1.01818655 218.065334,1.24470738 L234.62128,45.558026 C234.762335,45.9359947 234.481679,46.3384091 234.076674,46.3384091 L225.622129,46.3384091 C225.382293,46.3384091 225.167152,46.19159 225.080428,45.9688301 M207.414931,30.3150255 L218.377513,30.3150255 C218.777869,30.3150255 219.05838,29.9212901 218.926042,29.5450572 L213.430877,13.9310312 C213.249003,13.4143438 212.514968,13.4149224 212.33382,13.9318991 L206.866112,29.5459251 C206.7345,29.9220133 207.014865,30.3150255 207.414931,30.3150255" id="Fill-10-Copy-21" fill="#0A2955"></path>
            <path d="M251.61809,46.6583734 C260.245067,46.6583734 268.009158,41.9066433 268.009158,32.8654823 C268.009158,25.143957 261.970405,21.5142717 255.06891,19.6004166 L249.959139,18.1485714 C245.181159,16.8286463 244.849369,14.4527813 244.849369,13.3308812 C244.849369,10.2951259 247.570222,8.11728579 251.153671,8.11728579 C254.770822,8.11728579 256.964064,10.1869282 257.335077,12.9903767 C257.342921,13.0486703 257.349894,13.1199825 257.355995,13.1963573 C257.386065,13.570999 257.702312,13.8588512 258.079716,13.8588512 L265.868938,13.8588512 C266.281206,13.8588512 266.610236,13.5173341 266.594692,13.1071087 C266.588591,12.9423531 266.580892,12.7810691 266.571885,12.6597083 C265.985733,4.73379359 259.573062,0 251.352687,0 C242.59308,0 235.558957,5.41147564 235.558957,13.5289061 C235.558957,17.6206013 237.350681,23.6260071 247.371206,26.2658571 L252.945395,27.8497672 C256.860634,29.037772 258.718746,30.8195623 258.718746,33.3273476 C258.718746,36.5611277 255.997893,38.6730078 251.883493,38.6730078 C248.203877,38.6730078 245.321051,36.6416974 244.573507,33.9529559 C244.525714,33.7805339 244.484894,33.529278 244.453807,33.2945122 C244.406159,32.9353479 244.097902,32.6674574 243.734008,32.6674574 L235.913989,32.6674574 C235.499833,32.6674574 235.16906,33.0112888 235.188235,33.4231054 C235.199566,33.6642358 235.214238,33.9143345 235.232396,34.0928318 C235.975873,41.4100622 242.448394,46.6583734 251.61809,46.6583734" id="Fill-15-Copy-21" fill="#0A2955"></path>
            <path d="M55.9343721,47.4882265 C51.7730506,47.4882265 38.3505155,38.4453297 38.3505155,27.9521789 L38.3505155,1.01254523 C38.3505155,0.693014884 38.6106888,0.433947955 38.9315839,0.433947955 L72.9371603,0.433947955 C73.2580553,0.433947955 73.5182287,0.693014884 73.5182287,1.01254523 L73.5182287,27.9521789 C73.5182287,38.4453297 60.0956935,47.4882265 55.9343721,47.4882265 M64.1800234,9.18855864 L47.5203561,9.18855864 C47.2657029,9.18855864 47.0592784,9.38282268 47.0592784,9.6225066 L47.0592784,26.6828811 C47.0592784,32.820641 54.3638894,37.1194741 55.8501172,37.1194741 C57.3363449,37.1194741 64.6411012,32.820641 64.6411012,26.6828811 L64.6411012,9.6225066 C64.6411012,9.38282268 64.4346767,9.18855864 64.1800234,9.18855864" id="Fill-19-Copy-19" fill="#0068FF"></path>
            <path d="M38.9206032,0.434237253 C38.6027588,0.434237253 38.3077213,0.752321104 38.6460484,1.10671193 L47.1305189,9.40249498 C47.2259594,9.24815416 47.4011515,9.18682285 47.5115545,9.18884794 L64.1877822,9.18855864 C64.3063202,9.18378521 64.4531852,9.24685232 64.5272715,9.32886848 L73.1413202,1.03930535 C73.4883633,0.72773072 73.3757813,0.433947955 72.8744645,0.433947955 C72.8744645,0.433947955 39.0385601,0.434237253 38.9206032,0.434237253" id="Fill-21-Copy-20" fill="#76AEFF"></path>
            <path d="M299.205514,1.31298186 L288.634427,16.1445997 C288.345055,16.5704473 287.71416,16.5679883 287.428129,16.1396816 L277.048213,1.31978038 C276.859656,1.03756956 276.541812,0.867895909 276.201451,0.867895909 L266.856564,0.867895909 C266.384591,0.867895909 266.1096,1.39875891 266.383138,1.7817903 L282.911339,24.9292974 C283.260851,25.4189354 283.448827,26.0049098 283.448827,26.6056384 L283.448827,45.7598118 C283.448827,46.0793422 283.708855,46.3384091 284.029895,46.3384091 L292.091784,46.3384091 C292.412679,46.3384091 292.672852,46.0793422 292.672852,45.7598118 L292.672852,26.736546 C292.672852,26.136396 292.860247,25.5511449 293.209179,25.0619409 L309.806236,1.781501 C310.079338,1.39832496 309.804202,0.867895909 309.332374,0.867895909 L300.047773,0.867895909 C299.710317,0.867895909 299.394652,1.03467657 299.205514,1.31298186" id="Fill-12-Copy-21" fill="#0A2955"></path>
            <path d="M16.4307933,46.6583734 C25.0576255,46.6583734 32.8218617,41.9066433 32.8218617,32.8654823 C32.8218617,25.143957 26.7831082,21.5142717 19.8814681,19.6004166 L14.7718429,18.1485714 C9.99386262,16.8286463 9.66207256,14.4527813 9.66207256,13.3308812 C9.66207256,10.2951259 12.3827801,8.11728579 15.9662291,8.11728579 C19.5835252,8.11728579 21.7766227,10.1869282 22.1477801,12.9903767 L22.1788673,13.2287587 C22.2259339,13.5890802 22.5341906,13.8588512 22.8992469,13.8588512 L30.6816414,13.8588512 C31.0939095,13.8588512 31.4229395,13.5174788 31.4073959,13.1071087 C31.4011494,12.9423531 31.3934503,12.7810691 31.384589,12.6597083 C30.7984362,4.73379359 24.3857652,0 16.1653903,0 C7.4057839,0 0.371660186,5.41147564 0.371660186,13.5289061 C0.371660186,17.6206013 2.16338465,23.6260071 12.1837642,26.2658571 L17.7579535,27.8497672 C21.6733378,29.037772 23.531304,30.8195623 23.531304,33.3273476 C23.531304,36.5611277 20.8105965,38.6730078 16.6963415,38.6730078 C13.0165805,38.6730078 10.1337548,36.6416974 9.38621033,33.9529559 C9.33827218,33.7805339 9.29759739,33.529278 9.26636497,33.2945122 C9.21871736,32.9352033 8.91046056,32.6674574 8.54656646,32.6674574 L0.726547721,32.6674574 C0.312536474,32.6674574 -0.0183819887,33.0112888 0.000793269001,33.4231054 C0.0121241031,33.6642358 0.0269413477,33.9144791 0.0450997357,34.0928318 C0.788576774,41.4100622 7.26109786,46.6583734 16.4307933,46.6583734" id="Fill-3-Copy-21" fill="#0068FF"></path>
        </g>
    </g>
</svg>