<svg xmlns="http://www.w3.org/2000/svg" xmlns:xlink="http://www.w3.org/1999/xlink" viewBox="0 0 20 20"><defs><style>.a{fill:url(#a);}.b{fill:url(#b);}.c{fill:#fff;fill-rule:evenodd;}</style><linearGradient id="a" x1="-49.47" y1="71.61" x2="-50.2" y2="72.07" gradientTransform="matrix(20, 0, 0, -20, 1007, 1447)" gradientUnits="userSpaceOnUse"><stop offset="0" stop-color="#f17f14"/><stop offset="1" stop-color="#ed4e04"/></linearGradient><linearGradient id="b" x1="-49.7" y1="71.75" x2="-49.99" y2="71.94" gradientTransform="matrix(20, 0, 0, -20, 1007, 1447)" gradientUnits="userSpaceOnUse"><stop offset="0" stop-color="#f7a83d"/><stop offset="1" stop-color="#f56a1b"/></linearGradient></defs><title>svg_icon_mok</title><circle class="a" cx="10" cy="10" r="9.09"/><path class="b" d="M10,20A10,10,0,1,1,20,10,10,10,0,0,1,10,20ZM10,1.82A8.18,8.18,0,1,0,18.18,10,8.19,8.19,0,0,0,10,1.82Z"/><path class="c" d="M14.72,10.83a.63.63,0,0,0,.64-.63.58.58,0,0,0-.19-.45.61.61,0,0,0-.45-.2l-9,0a.54.54,0,0,0-.45.18A.58.58,0,0,0,5,10.2a.6.6,0,0,0,.19.45.63.63,0,0,0,.45.2Z"/></svg>