<svg xmlns="http://www.w3.org/2000/svg" width="20" height="20" viewBox="0 0 20 20"><g transform="translate(-1378.246 -495.288)"><rect width="20" height="20" transform="translate(1378.246 495.288)" fill="#fff" opacity="0"/><path d="M1398.1,511.974a.483.483,0,0,1-.3.613l-3.453,1.173a.484.484,0,0,1-.614-.3L1392.556,510a.484.484,0,0,1,.3-.614l.382-.129a.483.483,0,0,1,.613.3l.582,1.712a8.625,8.625,0,0,0-8.547-14.289.48.48,0,0,1-.585-.311l-.13-.381a.482.482,0,0,1,.3-.613l.026-.008a10,10,0,0,1,10.289,16.153l1.57-.533a.484.484,0,0,1,.614.3Zm-6.808,2.313a.482.482,0,0,1-.3.612l-.023.008a10,10,0,0,1-10.288-16.154l-1.57.534a.484.484,0,0,1-.614-.3l-.129-.381a.482.482,0,0,1,.3-.613l3.453-1.174a.484.484,0,0,1,.61.3l1.175,3.457a.483.483,0,0,1-.3.613h0l-.382.13a.483.483,0,0,1-.613-.3l-.582-1.713a8.626,8.626,0,0,0,8.546,14.29.482.482,0,0,1,.586.311Z" transform="translate(0 0)" fill="#4a81fd"/><path d="M1388.74,508.472h-1.024a.29.29,0,0,1-.185-.061.186.186,0,0,1-.074-.148v-.836a.181.181,0,0,1,.076-.153.3.3,0,0,1,.183-.056h1.024a.306.306,0,0,1,.2.061.186.186,0,0,1,.076.148v.836a.186.186,0,0,1-.076.149A.305.305,0,0,1,1388.74,508.472Zm-.013-2.508h-.985a.278.278,0,0,1-.2-.082.262.262,0,0,1-.083-.2v-5.3a.259.259,0,0,1,.083-.2.291.291,0,0,1,.2-.076h.984a.283.283,0,0,1,.2.082.266.266,0,0,1,.083.2v5.3a.266.266,0,0,1-.083.2A.278.278,0,0,1,1388.727,505.964Z" transform="translate(0 1.001)" fill="#4a81fd"/></g></svg>