<svg xmlns="http://www.w3.org/2000/svg" viewBox="0 0 20 20"><defs><style>.a{fill:#d8d8d8;fill-opacity:0;}.b{fill:#4a81fd;}</style></defs><rect class="a" width="20" height="20"/><path class="b" d="M18.85,16.07a.43.43,0,0,1-.26.55h0l-3.12,1a.43.43,0,0,1-.55-.26h0l-1-3.11a.42.42,0,0,1,.24-.54h0l.35-.12a.44.44,0,0,1,.55.28h0l.51,1.54A7.76,7.76,0,0,0,7.94,2.51a.43.43,0,0,1-.53-.28L7.3,1.88a.42.42,0,0,1,.26-.54h0a9,9,0,0,1,9.18,14.6l1.42-.47a.43.43,0,0,1,.55.26h0ZM12.7,18.12a.43.43,0,0,1-.26.55h0a9,9,0,0,1-9.2-14.6l-1.42.47a.43.43,0,0,1-.55-.26h0l-.11-.35a.44.44,0,0,1,.27-.55l3.12-1a.43.43,0,0,1,.55.26h0l1,3.12a.43.43,0,0,1-.27.55h0l-.34.12A.45.45,0,0,1,5,6.12L4.44,4.57a7.77,7.77,0,0,0,7.62,12.92.44.44,0,0,1,.53.28Z" transform="translate(0 0)"/><path class="b" d="M13.53,8.43l-.28-.29a.45.45,0,0,0-.64,0h0l-3,3.09L8.12,9.73a.44.44,0,0,0-.62,0h0l-.34.35a.47.47,0,0,0,0,.66l2.07,2.12a.45.45,0,0,0,.64,0h0L13.52,9.1a.47.47,0,0,0,0-.66Z" transform="translate(0 0)"/></svg>