<svg xmlns="http://www.w3.org/2000/svg" width="24" height="20.4" viewBox="0 0 24 20.4"><defs><style>.a{fill:#4a81fd;}</style></defs><path class="a" d="M21.6,12.8V17h1.8a.6.6,0,0,1,.6.6v1.8a3,3,0,0,1-3,3H3a3,3,0,0,1-3-3V17.6A.6.6,0,0,1,.6,17H2.4V6.8A2.4,2.4,0,0,1,4.8,4.4h8.4a6,6,0,1,1,8.4,8.4ZM12.5,5.6H4.8A1.2,1.2,0,0,0,3.6,6.8V17H9.333a.315.315,0,0,1,.3.266,1.2,1.2,0,0,0,1.17.934h2.4a1.2,1.2,0,0,0,1.17-.934.315.315,0,0,1,.3-.266H20.4V13.5a6,6,0,0,1-7.9-7.9ZM22.8,19.4V18.2H15.5a1.8,1.8,0,0,1-1.7,1.2H10.2a1.8,1.8,0,0,1-1.7-1.2H1.2v1.2A1.8,1.8,0,0,0,3,21.2H21A1.8,1.8,0,0,0,22.8,19.4ZM18,13.04A5.04,5.04,0,1,0,12.96,8,5.04,5.04,0,0,0,18,13.04Zm3.08-2.262a.135.135,0,0,1,0,.191l-.111.111a.135.135,0,0,1-.191,0L19.327,9.629a.138.138,0,0,1-.039-.1V9.419a2.366,2.366,0,1,1,.131-.132h.116a.134.134,0,0,1,.1.039ZM17.7,9.68A1.98,1.98,0,1,0,15.72,7.7,1.979,1.979,0,0,0,17.7,9.68Z" transform="translate(0 -2)"/></svg>