<svg xmlns="http://www.w3.org/2000/svg" width="20" height="20" viewBox="0 0 20 20"><g transform="translate(7405 -11446)"><rect width="20" height="20" transform="translate(-7405 11446)" fill="#fff" opacity="0"/><path d="M1493.226,447.148l-8.558,1.244v5.863l8.558-.068v-7.04m-11.823,1.709-5.893.8,0,4.662,5.891-.033,0-5.429m-5.889,8.554v4.666l5.889.807,0-5.434-5.884-.038m9.141.1.011,5.807,8.56,1.2,0-7-8.573-.014m9.711-11.681v9.481l-10.838.086v-7.99h0Zm-11.824,1.722,0,7.859-8.169.047-.008-6.8h0Zm-8.168,8.712,8.163.052h0l.006,7.867-8.169-1.12Zm9.139.109,10.856.018,0,9.439-10.837-1.524Z" transform="translate(-8879.368 11000.166)" fill="#4a81fd"/></g></svg>