<svg id="Layer_1" data-name="Layer 1" xmlns="http://www.w3.org/2000/svg" viewBox="0 0 20 20"><defs><style>.cls-1{fill:#d8d8d8;fill-opacity:0;}.cls-2{fill:#4A81FD;}</style></defs><title>Vantage_Icon_CriticalUpdate</title><rect id="Footprint" class="cls-1" width="20" height="20"/><g id="Icon"><path id="Path_139" data-name="Path 139" class="cls-2" d="M18.89,16a.43.43,0,0,1-.27.55h0l-3.11,1.05a.44.44,0,0,1-.56-.26h0l-1-3.11a.43.43,0,0,1,.27-.55h0l.34-.12a.43.43,0,0,1,.55.27h0l.53,1.55A7.77,7.77,0,0,0,7.89,2.52a.44.44,0,0,1-.53-.27L7.24,1.9a.45.45,0,0,1,.27-.55h0a9,9,0,0,1,9.27,14.54l1.41-.48a.45.45,0,0,1,.56.27ZM12.76,18.1a.44.44,0,0,1-.27.55h0A9,9,0,0,1,3.2,4.12L1.78,4.6a.44.44,0,0,1-.55-.27h0L1.11,4a.45.45,0,0,1,.27-.55L4.5,2.38a.43.43,0,0,1,.55.27L6.11,5.76a.44.44,0,0,1-.28.55h0l-.34.12a.43.43,0,0,1-.55-.27L4.41,4.61a7.77,7.77,0,0,0,7.7,12.87.42.42,0,0,1,.53.28Z" transform="translate(0)"/><path id="_" data-name=" " class="cls-2" d="M10.45,14.73H9.54a.24.24,0,0,1-.23-.23v-.95a.22.22,0,0,1,.07-.17.2.2,0,0,1,.16-.07h.91a.24.24,0,0,1,.24.24v.95a.23.23,0,0,1-.23.23Zm0-2.83H9.56a.23.23,0,0,1-.17-.1.3.3,0,0,1-.08-.22v-6a.31.31,0,0,1,.08-.23.2.2,0,0,1,.17-.09h.88a.26.26,0,0,1,.18.09.48.48,0,0,1,.07.23v6a.41.41,0,0,1-.07.22A.27.27,0,0,1,10.44,11.9Z" transform="translate(0)"/></g></svg>