<svg id="Layer_1" data-name="Layer 1" xmlns="http://www.w3.org/2000/svg" xmlns:xlink="http://www.w3.org/1999/xlink" viewBox="0 0 20 20"><defs><style>.cls-1{fill:none;}.cls-2{fill:#d8d8d8;fill-opacity:0;}.cls-3{clip-path:url(#clip-path);}.cls-4{fill:#4A81FD;}</style><clipPath id="clip-path" transform="translate(0)"><rect class="cls-1" width="20" height="20"/></clipPath></defs><title>Vantage_Icon_EyeSlash</title><rect id="Footprint" class="cls-2" width="20" height="20"/><g class="cls-3"><g id="组件_1" data-name="组件 1"><g id="AT_ICO_FA-Eye-Slash" data-name="AT ICO FA-Eye-Slash"><path id="路径_110" data-name="路径 110" class="cls-4" d="M19.88,17.14.72,2.05a.26.26,0,0,0-.35,0l-.32.39a.26.26,0,0,0,0,.35L19.25,17.92a.24.24,0,0,0,.35,0l.31-.39a.25.25,0,0,0,0-.35ZM10,5a4,4,0,0,1,3.52,5.86l.79.62A4.86,4.86,0,0,0,13.92,6a9.15,9.15,0,0,1,4,4,9.31,9.31,0,0,1-2.11,2.72l.79.62a10.25,10.25,0,0,0,2.21-2.89,1,1,0,0,0,0-.91A10,10,0,0,0,10,4a9.82,9.82,0,0,0-4.06.88L7.35,6A4,4,0,0,1,10,5Zm1.9,4.59a2,2,0,0,0-1.25-2.49A2.05,2.05,0,0,0,10,7H9.9a1.43,1.43,0,0,1,0,1ZM5.09,8A6,6,0,0,0,5,9a5,5,0,0,0,5,5,4.91,4.91,0,0,0,2.1-.46l-.92-.73A3.68,3.68,0,0,1,10,13,4,4,0,0,1,6,9a1.81,1.81,0,0,1,0-.23ZM10,15a9,9,0,0,1-8-5A9.2,9.2,0,0,1,4.13,7.28l-.81-.63A10.34,10.34,0,0,0,1.11,9.53a1,1,0,0,0,0,.91A10,10,0,0,0,10,16a9.68,9.68,0,0,0,4.06-.89l-.92-.72A8.69,8.69,0,0,1,10,15Z" transform="translate(0)"/></g><rect id="矩形_1276" data-name="矩形 1276" class="cls-1" width="20" height="20"/></g></g></svg>