<svg xmlns="http://www.w3.org/2000/svg" xmlns:xlink="http://www.w3.org/1999/xlink" viewBox="0 0 20.02 20"><defs><style>.a{fill:none;}.b{fill:#d8d8d8;fill-opacity:0;}.c{clip-path:url(#a);}.d{fill:#4a81fd;}</style><clipPath id="a" transform="translate(0.02 0)"><rect class="a" width="20" height="20"/></clipPath></defs><rect class="b" x="0.02" width="20" height="20"/><g class="c"><path class="d" d="M19.88,17.14.72,2.05a.26.26,0,0,0-.35,0l-.32.39a.26.26,0,0,0,0,.35l19.2,15.13a.24.24,0,0,0,.34,0h0l.31-.39a.24.24,0,0,0,0-.35ZM10,5a4,4,0,0,1,4,4,4,4,0,0,1-.46,1.84l.79.62A4.87,4.87,0,0,0,13.92,6a9.2,9.2,0,0,1,4,4,9.31,9.31,0,0,1-2.11,2.72l.79.62a10.25,10.25,0,0,0,2.21-2.89,1,1,0,0,0,0-.91A10,10,0,0,0,10,4a9.82,9.82,0,0,0-4.06.88L7.35,6A4,4,0,0,1,10,5Zm1.9,4.59A2,2,0,0,0,10.65,7.1,2.05,2.05,0,0,0,10,7H9.9a1.43,1.43,0,0,1,0,1ZM5.09,8A5.55,5.55,0,0,0,5,9a5,5,0,0,0,5,5,4.91,4.91,0,0,0,2.1-.46l-.92-.73A3.64,3.64,0,0,1,10,13,4,4,0,0,1,6,9V8.77ZM10,15a9,9,0,0,1-8-5A9.08,9.08,0,0,1,4.13,7.28l-.81-.63A10.34,10.34,0,0,0,1.11,9.53a1,1,0,0,0,0,.91A10,10,0,0,0,10,16a9.64,9.64,0,0,0,4.06-.89l-.92-.72A8.64,8.64,0,0,1,10,15Z" transform="translate(0.02 0)"/><rect class="a" x="0.02" width="20" height="20"/></g></svg>