<svg xmlns="http://www.w3.org/2000/svg" xmlns:xlink="http://www.w3.org/1999/xlink" width="20" height="20" viewBox="0 0 20 20"><defs><style>.a{fill:none;}.b{clip-path:url(#a);}.c{fill:rgba(0,0,0,0);}.d{stroke:#d34503;stroke-width:2px;fill:url(#b);}.e{fill:#fff;}</style><clipPath id="a"><rect class="a" width="20" height="20"/></clipPath><linearGradient id="b" x1="0.121" y1="0.178" x2="0.924" y2="0.685" gradientUnits="objectBoundingBox"><stop offset="0" stop-color="#eb4b00"/><stop offset="1" stop-color="#eb7200"/></linearGradient></defs><g class="b"><rect class="c" width="20" height="20"/><path class="d" d="M9,0A9,9,0,1,1,0,9,9,9,0,0,1,9,0Z" transform="translate(1 1)"/><path class="e" d="M1.651,10H.336A.36.36,0,0,1,.1,9.919a.25.25,0,0,1-.1-.2V8.613a.243.243,0,0,1,.1-.2.378.378,0,0,1,.238-.076H1.651a.385.385,0,0,1,.252.082.252.252,0,0,1,.1.2V9.721a.252.252,0,0,1-.1.2A.386.386,0,0,1,1.651,10ZM1.634,6.667H.366a.384.384,0,0,1-.259-.092A.288.288,0,0,1,0,6.349V.316A.284.284,0,0,1,.107.085.4.4,0,0,1,.366,0H1.634a.389.389,0,0,1,.26.092A.287.287,0,0,1,2,.316V6.349a.288.288,0,0,1-.106.225A.389.389,0,0,1,1.634,6.667Z" transform="translate(9 5)"/></g></svg>