<svg xmlns="http://www.w3.org/2000/svg" viewBox="0 0 1600 533.33"><defs><style>.a{fill:#fff;}</style></defs><title>logo-lenovo-white</title><path class="a" d="M1346.61,228c-31.48,0-54.33,23.85-54.33,57.79,0,32.4,24.21,57.79,55.09,57.79,31.48,0,54.33-24.51,54.33-57.79C1401.7,253.42,1377.5,228,1346.61,228Z" transform="translate(0 0)"/><path class="a" d="M912.64,228c-31.48,0-54.32,23.85-54.32,57.79,0,32.4,24.2,57.79,55.09,57.79,31.48,0,54.33-24.51,54.33-57.79C967.74,253.42,943.53,228,912.64,228Z" transform="translate(0 0)"/><path class="a" d="M448.84,224.59c-18.47,0-33.76,7.56-43.36,20.45-8.76,11.76-14.12,28.16-11.43,49.11l98.48-40.85C484.56,236.19,469.15,224.59,448.84,224.59Z" transform="translate(0 0)"/><path class="a" d="M0,0V533.33H1600V0ZM333.73,388.46H148.49V121.81h57.13V336.7H333.73ZM454.86,347.1c21.63,0,35.19-4.2,58.91-21.75l35.64,27.4C531.17,373.87,492.17,392,454,392,386,392,339.1,347.8,339.1,285.85c0-60.39,46.74-106.11,108.72-106.11,34.12,0,62.14,11.63,81.07,33.62,13,15.13,21.47,35,24.61,57.31L409.4,330.45C420.15,341.05,435.39,347.1,454.86,347.1Zm325.55,41.36H724V271.66c0-27.15-24.13-43.37-47.45-43.37-30.18,0-46.47,22.34-46.47,43.37v116.8H573.75V183.18h56.38v29.45c16.42-21.93,43.3-32.88,66.93-32.88,49.59,0,83.36,34.26,83.36,81.46Zm132.23,3.46C851,391.92,802.71,346,802.71,285.83c0-59.49,48.62-106.09,110.7-106.09,61.63,0,109.93,45.92,109.93,106.09C1023.34,345.31,974.71,391.92,912.64,391.92Zm186.54-3.53L1014.72,183.2h64.38l51,139.83,51-139.83h64.38l-84.46,205.19Zm247.43,3.53c-61.65,0-109.94-45.93-109.94-106.09,0-59.49,48.63-106.09,110.7-106.09,61.64,0,109.93,45.92,109.93,106.09C1457.3,345.31,1408.68,391.92,1346.61,391.92Z" transform="translate(0 0)"/></svg>