<svg id="Layer_1" data-name="Layer 1" xmlns="http://www.w3.org/2000/svg" viewBox="0 0 50 50">
	<title>Toolbar icon list</title>
	<circle class="a" cx="24.98" cy="31.95" r="3.57" />
	<style>.a{fill:#4a81fd}</style>
	<path class="a"
		d="M20.58,35.48a1.18,1.18,0,0,1-.28-2.16L40,21.93a1.17,1.17,0,0,1,1.61.43A1.19,1.19,0,0,1,41.21,24L21.47,35.36A1.17,1.17,0,0,1,20.58,35.48Z" />
	<path class="a"
		d="M46,28.49H44A1.24,1.24,0,0,1,44,26h2a21.69,21.69,0,0,0-5.24-13.09l-1.41,1.44a1.2,1.2,0,0,1-1.72,0,1.25,1.25,0,0,1,0-1.75h0L39,11.16A20.71,20.71,0,0,0,26.28,5.71v2a1.21,1.21,0,1,1-2.42,0v-2a20.69,20.69,0,0,0-12.78,5.38l1.4,1.44a1.26,1.26,0,0,1,0,1.75,1.2,1.2,0,0,1-1.72,0h0l-1.4-1.44A21.71,21.71,0,0,0,4,25.88H6a1.25,1.25,0,0,1,0,2.49H4a21.61,21.61,0,0,0,8.53,16.16,1.25,1.25,0,0,1,.28,1.73,1.19,1.19,0,0,1-1.69.29l0,0A24.15,24.15,0,0,1,1.56,27.11c0-13.25,10.57-24,23.51-23.92S48.48,14,48.44,27.26A24.14,24.14,0,0,1,39,46.46a1.18,1.18,0,0,1-1.69-.25,1.26,1.26,0,0,1,.25-1.74h0a21.65,21.65,0,0,0,8.47-16Z" />
</svg>
