<?xml version="1.0" encoding="utf-8"?>
<!-- Generator: Adobe Illustrator 23.0.3, SVG Export Plug-In . SVG Version: 6.00 Build 0)  -->
<svg version="1.1" id="图层_1" xmlns="http://www.w3.org/2000/svg" xmlns:xlink="http://www.w3.org/1999/xlink" x="0px" y="0px"
	 viewBox="0 0 21 21" style="enable-background:new 0 0 21 21;" xml:space="preserve">
<style type="text/css">
	.st0{fill:#4DA346;}
	.st1{fill:none;stroke:#FFFFFF;stroke-miterlimit:10;}
	.st2{fill:#FFFFFF;}
</style>
<title>img-my-software-download-available</title>
<g id="Layer_2">
	<g id="Layer_1-2">
		<path class="st0" d="M20.5,10.5c0,5.5-4.5,10-10,10s-10-4.5-10-10s4.5-10,10-10S20.5,5,20.5,10.5"/>
		<path class="st1" d="M20.5,10.5c0,5.5-4.5,10-10,10s-10-4.5-10-10s4.5-10,10-10S20.5,5,20.5,10.5z"/>
		<rect x="8.9" y="3.7" class="st2" width="2.9" height="5.7"/>
		<polygon class="st2" points="7.7,8.9 13.4,8.9 10.5,13 		"/>
		<polyline class="st1" points="5.3,10.5 5.3,14.8 16.1,14.8 16.1,10.8 		"/>
	</g>
</g>
</svg>
