<?xml version="1.0" encoding="UTF-8"?>
<svg width="20px" height="20px" viewBox="0 0 20 20" version="1.1" xmlns="http://www.w3.org/2000/svg" xmlns:xlink="http://www.w3.org/1999/xlink">
    <!-- Generator: Sketch 54.1 (76490) - https://sketchapp.com -->
    <title>6.20pxIcon/add</title>
    <desc>Created with Sketch.</desc>
    <g id="6.20pxIcon/add" stroke="none" stroke-width="1" fill="none" fill-rule="evenodd">
        <path d="M9.86634391,2 C9.30897756,2 8.85714286,2.44991629 8.85714286,2.99708744 L8.85714286,8.85714286 L2.99708744,8.85714286 C2.44641125,8.85714286 2,9.29785156 2,9.86634391 L2,10.1336561 C2,10.6910224 2.44991629,11.1428571 2.99708744,11.1428571 L8.85714286,11.1428571 L8.85714286,17.0029126 C8.85714286,17.5535887 9.29785156,18 9.86634391,18 L10.1336561,18 C10.6910224,18 11.1428571,17.5500837 11.1428571,17.0029126 L11.1428571,11.1428571 L17.0029126,11.1428571 C17.5535887,11.1428571 18,10.7021484 18,10.1336561 L18,9.86634391 C18,9.30897756 17.5500837,8.85714286 17.0029126,8.85714286 L11.1428571,8.85714286 L11.1428571,2.99708744 C11.1428571,2.44641125 10.7021484,2 10.1336561,2 L9.86634391,2 Z" id="Shape" fill="#047aff" fill-rule="nonzero"></path>
    </g>
</svg>