<?xml version="1.0" encoding="utf-8" ?>
<svg xmlns="http://www.w3.org/2000/svg" xmlns:xlink="http://www.w3.org/1999/xlink" width="35" height="35">
	<defs>
		<clipPath id="clip_0">
			<rect x="-723" y="-293" width="1600" height="1150" clip-rule="evenodd"/>
		</clipPath>
	</defs>
	<g clip-path="url(#clip_0)">
		<path fill="rgb(74,174,72)" stroke="none" transform="translate(0 8.75)" d="M17.5 17.7056C15.7227 17.7056 14.105 17.2266 12.6459 16.2706C11.1869 15.3136 10.0931 14.0831 9.36469 12.5792L2.1875 0C0.683594 2.68953 0 5.69734 0 8.75C0 13.125 1.42406 16.9422 4.27219 20.2005C7.12031 23.4588 10.6641 25.4067 14.9023 26.0455L19.9784 17.2616C19.4677 17.4114 18.6156 17.7056 17.5 17.7056Z"/>
	</g>
	<defs>
		<clipPath id="clip_1">
			<rect x="-723" y="-293" width="1600" height="1150" clip-rule="evenodd"/>
		</clipPath>
	</defs>
	<g clip-path="url(#clip_1)">
		<path fill="rgb(234,57,57)" stroke="none" transform="translate(3.67383 0)" d="M8.32344 10.4245C9.94 9.17219 11.7753 8.75 13.8261 8.75C14.0995 8.75 28.8652 8.75 28.8652 8.75C27.3153 6.1075 25.2077 3.87406 22.5422 2.32422C19.8756 0.775469 16.9706 0 13.8261 0C11.0917 0 8.53891 0.580781 6.16984 1.74344C3.79969 2.905 1.60672 4.59703 0 6.76813L5.07609 15.3125C5.57703 13.3536 6.70469 11.6791 8.32344 10.4245Z"/>
	</g>
	<defs>
		<clipPath id="clip_2">
			<rect x="-723" y="-293" width="1600" height="1150" clip-rule="evenodd"/>
		</clipPath>
	</defs>
	<g clip-path="url(#clip_2)">
		<path fill="rgb(254,209,75)" stroke="none" transform="translate(17.7056 10.9375)" d="M15.9786 0L5.81 0C7.58734 1.77734 8.75 4.05672 8.75 6.5625C8.75 8.43172 8.22609 10.1402 7.17719 11.69L0 24.0625C4.78516 24.0166 8.86375 22.2852 12.2369 18.8672C15.6078 15.4492 17.2944 6.5625 17.2944 6.5625C17.2944 6.5625 16.9181 1.98187 15.9786 0Z"/>
	</g>
	<defs>
		<clipPath id="clip_3">
			<rect x="-723" y="-293" width="1600" height="1150" clip-rule="evenodd"/>
		</clipPath>
	</defs>
	<g clip-path="url(#clip_3)">
		<path fill="rgb(24,143,209)" stroke="none" transform="translate(10.9375 10.9375)" d="M6.5625 13.125C10.1869 13.125 13.125 10.1869 13.125 6.5625C13.125 2.93813 10.1869 0 6.5625 0C2.93813 0 0 2.93813 0 6.5625C0 10.1869 2.93813 13.125 6.5625 13.125Z"/>
	</g>

</svg>