<?xml version="1.0" encoding="UTF-8"?>
<svg width="38px" height="34px" viewBox="0 0 38 34" version="1.1" xmlns="http://www.w3.org/2000/svg" xmlns:xlink="http://www.w3.org/1999/xlink">
    <!-- Generator: Sketch 53.1 (72631) - https://sketchapp.com -->
    <title>AT/ICO/Diamond</title>
    <desc>Created with Sketch.</desc>
    <g id="Page-1" stroke="none" stroke-width="1" fill="none" fill-rule="evenodd">
        <g id="Negative_Home_00-Expand" transform="translate(-1148.000000, -739.000000)" fill="#fff" fill-rule="nonzero">
            <g id="Right-side" transform="translate(1046.000000, 230.000000)">
                <g id="ICO/Diamond/Green" transform="translate(101.000000, 506.000000)">
                    <path d="M9.76,5.18616 C9.76,5.20510503 9.75966364,5.22402615 9.75899333,5.24291488 C9.75958279,5.22431948 9.76,5.20530622 9.76,5.18616 Z M4.55991981,14.0307417 C4.09435388,14.7818047 3.10808129,15.0132457 2.35701832,14.5476798 C1.60595535,14.0821139 1.37451426,13.0958413 1.84008019,12.3447783 L6.6530288,4.58040542 C6.83888075,4.00482679 7.28719101,3.57889146 7.85200202,3.37043161 C8.21216196,3.23750415 8.55977136,3.19976 9,3.19976 L31.8,3.19976 C32.2402286,3.19976 32.587838,3.23750415 32.947998,3.37043161 C33.541569,3.58950618 34.0064729,4.04876768 34.173301,4.66948538 L38.2233273,12.5569116 C38.6269637,13.3429935 38.3169304,14.3074509 37.5308484,14.7110873 C36.7447665,15.1147237 35.7803091,14.8046904 35.3766727,14.0186084 L31.4645554,6.39976 L9.2901824,6.39976 L4.55991981,14.0307417 Z M24.2541712,27.8753892 L34.153975,15.1996 L27.2327723,15.1996 L24.2541712,27.8753892 Z M27.9847194,11.9996 L35.53456,11.9996 C36.3632038,11.9996 37.1051425,12.1887704 37.6589037,12.6545753 C38.5847356,13.433353 38.6219652,14.6685432 37.889952,15.6148346 L22.3601201,35.4993574 C21.1948919,37.0057215 18.7503475,36.7327781 17.6457763,35.3145418 L2.1057999,15.6089574 C1.3783548,14.6685432 1.41558441,13.433353 2.34141627,12.6545753 C2.89517755,12.1887704 3.63711616,11.9996 4.46576,11.9996 L12.7530771,11.9996 L11.5042869,6.34504033 C11.3137264,5.48217655 11.8587359,4.62820743 12.7215997,4.43764691 C13.5844635,4.2470864 14.4384326,4.79209588 14.6289931,5.65495967 L16.0301852,11.9996 L24.6975588,11.9996 L26.1934647,5.63359554 C26.3956034,4.77337047 27.2568194,4.23988604 28.1170445,4.44202473 C28.9772695,4.64416341 29.510754,5.50537939 29.3086153,6.36560446 L27.9847194,11.9996 Z M23.9456117,15.1996 L16.7368942,15.1996 L20.2294691,31.0140847 L23.9456117,15.1996 Z M13.4597861,15.1996 L5.85822081,15.1996 L16.4166039,28.5881604 L13.4597861,15.1996 Z M31.0459406,5.32391188 C31.0419902,5.2781972 31.04,5.2322387 31.04,5.18616 C31.04,5.22843347 31.0420339,5.27005876 31.0459711,5.31096483 L31.0459406,5.32391188 Z M35.7696497,15.2160944 L35.7817923,15.2208026 C35.7842947,15.2213863 35.7867171,15.2219769 35.7890583,15.2225738 C35.7837472,15.2212197 35.7772797,15.2191252 35.7696497,15.2160944 Z" id="Stroke-396"></path>
                </g>
            </g>
        </g>
    </g>
</svg>