<?xml version="1.0" encoding="utf-8" ?>
<svg xmlns="http://www.w3.org/2000/svg" xmlns:xlink="http://www.w3.org/1999/xlink" width="33" height="35">
	<defs>
		<clipPath id="clip_0">
			<rect x="-560.8999" y="-286.08008" width="1568" height="1127" clip-rule="evenodd"/>
		</clipPath>
	</defs>
	<g clip-path="url(#clip_0)">
		<path fill="rgb(0,120,215)" stroke="none" transform="matrix(0.98 0 0 0.98 0.640137 1.06006)" d="M10.1877 20.7813C10.1877 21.6234 10.3135 22.3891 10.5707 23.0781C10.8442 23.7562 11.1999 24.3633 11.654 24.8938C12.1081 25.4242 12.6388 25.8781 13.2626 26.2609C13.8644 26.6438 14.521 26.9609 15.2213 27.207C15.9162 27.4586 16.6439 27.6445 17.3825 27.7648C18.1321 27.8852 18.8598 27.9453 19.5984 27.9453C20.5285 27.9453 21.393 27.8742 22.2137 27.7266C23.0344 27.5734 23.8332 27.3711 24.6211 27.1141C25.409 26.857 26.1695 26.5508 26.93 26.2008C27.696 25.8508 28.473 25.468 29.2718 25.0414L29.2718 32.457C28.3799 32.8945 27.5045 33.2609 26.6291 33.5781C25.7537 33.8844 24.8783 34.1523 23.9864 34.3656C23.0946 34.5844 22.1918 34.7484 21.2672 34.8469C20.3425 34.9453 19.396 35 18.4111 35C17.098 35 15.8286 34.8469 14.6085 34.5461C13.3884 34.2453 12.2449 33.8133 11.1725 33.2445C10.1001 32.6758 9.12076 31.9867 8.22892 31.1773C7.33162 30.368 6.5711 29.4547 5.93095 28.443C5.2908 27.4312 4.79838 26.3211 4.44274 25.1289C4.09805 23.9367 3.92296 22.668 3.92296 21.3227C3.92296 19.8844 4.11993 18.5172 4.51387 17.2102C4.91328 15.8977 5.47683 14.7055 6.22094 13.6117C6.95957 12.518 7.86234 11.5445 8.92926 10.6969C9.99617 9.84922 11.1944 9.15469 12.5294 8.61875C11.8017 9.34609 11.2327 10.2047 10.8333 11.2055C10.4229 12.2008 10.1658 13.2016 10.0509 14.2023L22.5146 14.2023C22.5146 12.9445 22.3888 11.8508 22.1316 10.9102C21.8745 9.96953 21.4641 9.1875 20.8896 8.56953C20.3206 7.94609 19.5875 7.47578 18.6847 7.16953C17.7819 6.85781 16.6931 6.69922 15.4183 6.69922C13.9137 6.69922 12.409 6.91797 10.9044 7.37187C9.39979 7.80937 7.97177 8.43828 6.61487 9.23125C5.25798 10.0352 4.01051 10.9812 2.87246 12.0641C1.73442 13.1578 0.776933 14.3336 0 15.6078C0.164141 14.1313 0.492422 12.7094 0.946545 11.3586C1.40067 10.0078 2.72474 7.58516 2.72474 7.58516C2.72474 7.58516 4.29502 5.38672 5.26345 4.44609C6.23188 3.50547 7.30426 2.69609 8.49155 2.03984C9.67883 1.38359 10.9372 0.853125 12.3051 0.497656C13.6729 0.185938 15.1283 0 16.6603 0C17.5576 0 18.4494 0.0820313 19.3413 0.240625C20.2331 0.404687 21.103 0.623437 21.9511 0.907812C23.6363 1.4875 25.1409 2.29688 26.465 3.325C27.789 4.36406 28.8997 5.54531 29.8025 6.89609C30.7053 8.24687 31.3892 9.73984 31.8597 11.3641C32.3303 12.9883 32.571 14.6781 32.571 16.4336L32.571 20.7813L10.1877 20.7813Z"/>
	</g>

</svg>