<svg width="35" height="35" viewBox="0 0 35 35" xmlns="http://www.w3.org/2000/svg"><defs><radialGradient cx="26.823%" cy="-2.344%" fx="26.823%" fy="-2.344%" r="87.848%" id="a"><stop stop-color="#15BEF0" offset="0%"/><stop stop-color="#0D91CE" offset="26.803%"/><stop stop-color="#066DB1" offset="53.039%"/><stop stop-color="#0257A0" offset="74.25%"/><stop stop-color="#004E9A" offset="87.777%"/></radialGradient><linearGradient x1="50%" y1="0%" x2="50%" y2="100%" id="b"><stop stop-opacity="0" offset="0%"/><stop stop-opacity=".4" offset="100%"/></linearGradient><radialGradient cx="73.437%" cy="19.378%" fx="73.437%" fy="19.378%" r="71.766%" gradientTransform="matrix(-.75926 .6238 -.60598 -.78159 1.41 -.113)" id="c"><stop stop-color="#FFF203" offset="0%"/><stop stop-color="#FBC40D" offset="29.843%"/><stop stop-color="#F47E1C" offset="77.65%"/><stop stop-color="#F26322" offset="100%"/></radialGradient><linearGradient x1="37.485%" y1="35.575%" x2="60.906%" y2="64.395%" id="d"><stop stop-color="#FFF" stop-opacity=".5" offset="0%"/><stop stop-color="#FFF" stop-opacity=".2" offset="100%"/></linearGradient><linearGradient x1="42.699%" y1="37.688%" x2="55.247%" y2="62.312%" id="e"><stop stop-color="#FFF" stop-opacity=".5" offset="0%"/><stop stop-color="#FFF" stop-opacity=".2" offset="100%"/></linearGradient><linearGradient x1="-.584%" y1="26.375%" x2="95.311%" y2="71.092%" id="f"><stop stop-color="#FFF" stop-opacity=".2" offset="0%"/><stop stop-color="#FFF" stop-opacity="0" offset="100%"/></linearGradient></defs><g fill="none" fill-rule="evenodd"><circle fill="url(#a)" cx="17.5" cy="17.5" r="17.5"/><circle fill="url(#b)" cx="18" cy="17" r="17"/><path d="M29.676 9.971l-.682-.126.526-.887c-.002-.004-1.074.718-1.076.713-.187-.439-.677-.247-1-.47.098-.163.137-.333.2-.46.094-.194.426-.51.37-.687l.07-.444.117-.269-.715-.054-.395-.087-.477-.2-.072.9-.184.194-.012-.01c-.415-.326-.595-1.16-1.103-.967-.51.193-.705-.298-1.353.014-.647.312-.502.106-.757.43-.255.325-.184.845-.224 1.173-.036.293-.238.714-.196 1.037-.04-.01-.079-.017-.121-.034-.316-.127-.163-.455-.512-.588-.214-.082-.209.282-.13.672a1.04 1.04 0 0 1-.529.244c-.334.052-.35-.314-.717-.25-.366.064.317.858.673 1.131.356.273.449.964.938.808.21-.066.356-.029.504.015.272.172.332.47.875.555.275.043.398.079.475.1l.023.034.322.715.361-1.023c.043-.046.071-.087.11-.136.147.644.338 1.47.333 1.471-.766.081-.74 1.019-1.253 1.45-.193-.255-.43-.413-.59-.588-.242-.266-.541-1-.84-1l-.635-.36-.345-.344-.467 1.188-.345.625-.56.704 1.325.61.195.416-.023.015c-.718.53-2.077.388-2.06 1.357.019.97-.831 1.039-.708 2.31.124 1.27-.11.912.244 1.521.354.61 1.181.769 1.657 1.014.425.22.954.79 1.467.892-.038.063-.068.125-.118.189-.362.468-.776.03-1.166.553-.24.32.314.508.948.585.01.023.182.45.084 1.03-.101.597-.664.429-.765 1.086-.101.658 1.471-.076 2.077-.535.606-.458 1.703-.244 1.732-1.162.012-.393.147-.621.294-.848.406-.372.89-.313 1.312-1.191.213-.445.334-.635.41-.755l.062-.02 1.258-.163-1.356-1.167c-.15-.309-.35-.583-.47-.822-.116-.236-.195-.605-.309-.932.176-.038.344-.15.503-.437.447-.81.846-.592 1.389-1.685s.476-.72.61-1.34c.133-.62-.149-1.018-.239-1.376-.09-.357-.013-1.153-.274-1.307l-.389-.642.04-.19c.3-.06.462-.262.621-.374.172-.12.607-.224.64-.407l.265-.352.298-.031.01-.49.153-.442-.324-.099zm-4.584 1.365l.02-.025c.074-.076.2-.153.308-.24.037.065.101.118.23.145a.757.757 0 0 1 .258.103l-.331.61-.485-.593z" fill="#000" fill-rule="nonzero" opacity=".1"/><path d="M35 17.245C35 27.032 27.163 35 17.5 35S0 27.032 0 17.245C0 14.1.822 11.14 2.237 8.583c-.898-1.295-1.217-3.853.806-5.98 0 .817.487 2.22 1.035 3.267.442.833.914 1.436 1.248 1.357.762-.18 3.424-.185 3.804 0 .624-.817 2.146-3.083 4.566-3.083-1.355 1.372-5.235 6.165 1.521 6.165h1.522l-4.565 3.083s.517 1.017 0 1.54c-.578-.585-3.044.633-3.044 2.313 0 1.68 1.766 3.853 5.327 3.853 3.56 0 2.663-1.541 4.565-1.541 1.902 0 2.282 1.54 2.282 1.54-2.617 0-4.52 3.083-7.608 3.083 1.521 1.14 2.526 1.542 4.565 1.542 5.037 0 9.13-4.146 9.13-9.248 0-2.065-.67-3.96-1.795-5.502a9.324 9.324 0 0 1 3.652 6.612c.274-1.079.426-2.235.426-3.422 0-4.623-1.826-10.82-5.19-13.162C30.679 3.728 35 9.97 35 17.245z" fill="url(#c)"/><path d="M9.3 17.677c0-1.646 2.786-2.838 3.44-2.265.478-.42.175-1.156.05-1.412a.758.758 0 0 1-.242.427C11.874 13.835 9 15.065 9 16.764c0 .396.123.82.348 1.236-.016-.108-.048-.218-.048-.323z" fill="#000" opacity=".1"/><path d="M30.584 14.024c0 .64-.146 2.46-.454 3.385.033.196.073.39.093.591.304-1.102.777-3.784.777-4.995 0-3.313-1.002-7.41-2.887-10.39A19.216 19.216 0 0 0 25 1c3.619 2.318 5.584 8.449 5.584 13.024z" fill="url(#d)"/><path d="M26 11a9.38 9.38 0 0 1 1.702 5.418 9.5 9.5 0 0 1-.36 2.582A9.763 9.763 0 0 0 28 15.475a9.772 9.772 0 0 0-.436-2.873A8.92 8.92 0 0 0 26 11z" fill="url(#e)"/><path d="M21 21.77s-.088-.38-.38-.77c-2.292.387-4.821 3.35-7.62 3.35.3.25.578.459.85.646 2.501.132 4.905-3.225 7.15-3.225zM2.607 3.844a2.944 2.944 0 0 1-.116-.688c-.038.04-.062.081-.098.12.062.188.135.38.214.568zM1.505 7.577c.01-.017.015-.034.024-.05-.021-.031-.038-.07-.058-.104.011.052.02.104.034.154zm16.514 27.025A18.195 18.195 0 0 1 4 28c3.211 4.222 8.32 7 14.019 7S28.789 32.275 32 28.053c-3.326 4.025-8.365 6.549-13.981 6.549zM15.186 10L12 12.002s.272.51.242.998L17 10.01h-1.607c-.076 0-.133-.009-.207-.01zm-3.913-1C11 7.414 13.158 5.632 14 5a6 6 0 0 0-1.775.277c-.924.997-1.638 2.87-.952 3.723z" fill="#000" opacity=".1"/><path d="M24.485 1.43c.057.04.11.089.167.13A17.213 17.213 0 0 0 17.5 0C12.113 0 7.302 2.463 4.128 6.324c-.016-.03-.033-.054-.05-.085-.548-1.035-1.034-2.42-1.034-3.226-2.024 2.1-1.705 4.626-.807 5.904A17.468 17.468 0 0 0 0 17.47C0 27.133 7.837 35 17.5 35S35 27.133 35 17.47c0-7.183-4.322-13.346-10.515-16.04z" fill="url(#f)"/></g></svg>