<?xml version="1.0" encoding="UTF-8"?>
<svg width="60px" height="61px" viewBox="0 0 60 61" version="1.1" xmlns="http://www.w3.org/2000/svg" xmlns:xlink="http://www.w3.org/1999/xlink">
    <!-- Generator: Sketch 54.1 (76490) - https://sketchapp.com -->
    <title>Main_icon</title>
    <desc>Created with Sketch.</desc>
    <g id="UX-1.5" stroke="none" stroke-width="1" fill="none" fill-rule="evenodd">
        <g id="Start_New_00" transform="translate(-153.000000, -296.000000)" fill="#FFFFFF">
            <g id="Score" transform="translate(86.000000, 230.000000)">
                <g id="Group-2">
                    <g id="Main_icon" transform="translate(40.000000, 40.000000)">
                        <g transform="translate(27.000000, 26.000000)">
                            <path d="M45.3137085,40.3137085 C46.9815321,40.7776394 48.6485844,41.0096048 50.3148655,41.0096048 C51.9811465,41.0096048 53.6474275,40.7776394 55.3137085,40.3137085 L55.3137085,57.3137085 C55.3137085,60.0751322 53.0751322,62.3137085 50.3137085,62.3137085 L50.3137085,62.3137085 C47.5522847,62.3137085 45.3137085,60.0751322 45.3137085,57.3137085 L45.3137085,40.3137085 Z" id="Rectangle" transform="translate(50.313708, 51.313708) rotate(-45.000000) translate(-50.313708, -51.313708) "></path>
                            <path d="M48,24.0002638 C48,37.2540601 37.2541192,48 24.0001319,48 C10.7464084,48 0,37.2540601 0,24.0002638 C0,10.7464675 10.7464084,0 24.0001319,0 C37.2541192,0 48,10.7464675 48,24.0002638 Z M24,45 C35.5979797,45 45,35.5979797 45,24 C45,12.4020203 35.5979797,3 24,3 C12.4020203,3 3,12.4020203 3,24 C3,35.5979797 12.4020203,45 24,45 Z" id="Shape" fill-rule="nonzero"></path>
                            <path d="M8,22 L12,22 C12,16.328539 16.3286212,12 22,12 L22,8 C14.0608566,8 8,14.0607957 8,22 Z" id="Path" fill-rule="nonzero"></path>
                            <circle id="Oval" cx="10" cy="22" r="2"></circle>
                            <circle id="Oval-Copy-3" cx="22" cy="10" r="2"></circle>
                        </g>
                    </g>
                </g>
            </g>
        </g>
    </g>
</svg>