<svg xmlns="http://www.w3.org/2000/svg" xmlns:xlink="http://www.w3.org/1999/xlink" width="18" height="18.855" viewBox="0 0 18 18.855">
  <defs>
    <clipPath id="clip-path">
      <rect width="18" height="18.856" fill="none"/>
    </clipPath>
  </defs>
  <g id="Active_protection" data-name="Active protection" clip-path="url(#clip-path)">
    <path id="路径_25" data-name="路径 25" d="M4.55,4.692c.025-.454.039-.91.074-1.363A1.172,1.172,0,0,1,5.717,2.272c.508-.034,1.019-.041,1.526-.094a12.964,12.964,0,0,0,5.6-1.954,1.239,1.239,0,0,1,1.1-.159,1.452,1.452,0,0,1,.3.147,13.208,13.208,0,0,0,4.975,1.88,13.806,13.806,0,0,0,2.043.172,1.2,1.2,0,0,1,1.244,1.2,17.06,17.06,0,0,1-.032,2.847,15.606,15.606,0,0,1-3.583,8.827,13.325,13.325,0,0,1-4.81,3.6,1.243,1.243,0,0,1-1.069-.01,13.418,13.418,0,0,1-4.437-3.194A14.9,14.9,0,0,1,5.2,9.375,18.035,18.035,0,0,1,4.55,4.692ZM5.809,3.461c-.013.225-.032.445-.037.667A16.858,16.858,0,0,0,5.99,7.409,14.627,14.627,0,0,0,7.7,12.325a12.461,12.461,0,0,0,5.739,5.3.25.25,0,0,0,.221,0,12.265,12.265,0,0,0,5.377-4.7,15.387,15.387,0,0,0,2.282-9.151c0-.1-.02-.208-.027-.316L21.19,3.45a14.867,14.867,0,0,1-2.249-.2,14.326,14.326,0,0,1-5.284-2.007.159.159,0,0,0-.2,0c-.3.18-.6.363-.912.526A14.263,14.263,0,0,1,6.811,3.412c-.327.021-.654.034-1,.05h0Zm11.415.4H9.875a.566.566,0,0,0-.565.565v7.911a.566.566,0,0,0,.565.565H13.55a.283.283,0,1,0,0-.565H9.875V4.425h7.35v7.911H15.246a.283.283,0,1,0,0,.565h1.979a.566.566,0,0,0,.565-.565V4.425A.566.566,0,0,0,17.224,3.86ZM11.005,4.99H10.44v.565h.565Zm5.654,0h-.565v.565h.565V4.99Zm-.565,6.781h.565v-.565h-.565v.565Zm-5.654,0h.565v-.565H10.44Zm4.523-5.086v2.26a.282.282,0,0,0,.282.283h0a1.286,1.286,0,0,0,1.413-1.413A1.311,1.311,0,0,0,15.246,6.4a.282.282,0,0,0-.283.282Zm1.131,1.13c0,.48-.179.739-.565.819V7A.727.727,0,0,1,16.094,7.815ZM12.984,6.4a.282.282,0,0,0-.283.282h0v2.26a.282.282,0,0,0,.282.283h0A1.286,1.286,0,0,0,14.4,7.815,1.311,1.311,0,0,0,12.984,6.4Zm.283,2.231V7a.727.727,0,0,1,.565.814C13.832,8.3,13.653,8.555,13.267,8.634Zm.848,1.159H10.723a.283.283,0,0,0,0,.565h3.392a.283.283,0,1,0,0-.565Zm1.131.565h1.131a.283.283,0,0,0,0-.565H15.246a.283.283,0,1,0,0,.565ZM10.44,8.945a.283.283,0,0,0,.565,0V8.1h.565v.847a.283.283,0,1,0,.565,0h0V6.685a.283.283,0,1,0-.565,0v.847h-.565V6.685a.283.283,0,0,0-.565,0Z" transform="translate(-4.55)" fill="#000000"/>
  </g>
</svg>
