<svg xmlns="http://www.w3.org/2000/svg" xmlns:xlink="http://www.w3.org/1999/xlink" width="22" height="22" viewBox="0 0 22 22"><defs><style>.a{fill:none;}.b{clip-path:url(#a);}.c{fill:rgba(0,0,0,0);}.d{stroke:#d34503;stroke-width:2px;fill:url(#b);}.e{fill:#fff;}</style><clipPath id="a"><rect class="a" width="22" height="22"/></clipPath><linearGradient id="b" x1="0.121" y1="0.178" x2="0.924" y2="0.685" gradientUnits="objectBoundingBox"><stop offset="0" stop-color="#eb4b00"/><stop offset="1" stop-color="#eb7200"/></linearGradient></defs><g class="b"><rect class="c" width="22" height="22"/><path class="d" d="M10,0A10,10,0,1,1,0,10,10,10,0,0,1,10,0Z" transform="translate(1 1)"/><path class="e" d="M1.651,12H.336A.325.325,0,0,1,.1,11.9a.325.325,0,0,1-.1-.238V10.336a.316.316,0,0,1,.1-.245A.338.338,0,0,1,.336,10H1.651a.345.345,0,0,1,.252.1.328.328,0,0,1,.1.238v1.329a.328.328,0,0,1-.1.238A.345.345,0,0,1,1.651,12ZM1.634,8H.366a.348.348,0,0,1-.259-.111A.376.376,0,0,1,0,7.619V.38A.371.371,0,0,1,.107.1.362.362,0,0,1,.366,0H1.634a.352.352,0,0,1,.26.111A.375.375,0,0,1,2,.38v7.24a.376.376,0,0,1-.106.27A.352.352,0,0,1,1.634,8Z" transform="translate(10 5)"/></g></svg>