<?xml version="1.0" encoding="utf-8"?>
<!-- Generator: Adobe Illustrator 22.1.0, SVG Export Plug-In . SVG Version: 6.00 Build 0)  -->
<svg version="1.1" id="Layer_1" xmlns="http://www.w3.org/2000/svg" xmlns:xlink="http://www.w3.org/1999/xlink" x="0px" y="0px"
	 viewBox="0 0 50 50" style="enable-background:new 0 0 50 50;" xml:space="preserve">
<style type="text/css">
	.st0{fill:#FFFFFF;}
</style>
<title>DS-ic-list</title>
<path class="st0" d="M25,49.6c-0.7,0-1.2-0.6-1.2-1.2V1.6c0-0.7,0.6-1.2,1.2-1.2s1.2,0.6,1.2,1.2v46.8C26.2,49.1,25.7,49.6,25,49.6z
	"/>
<path class="st0" d="M34.5,41.6c-0.7,0-1.2-0.6-1.2-1.2V9.6c0-0.7,0.6-1.2,1.2-1.2s1.2,0.6,1.2,1.2v30.8
	C35.8,41.1,35.2,41.6,34.5,41.6z"/>
<path class="st0" d="M15.5,41.6c-0.7,0-1.2-0.6-1.2-1.2V9.6c0-0.7,0.6-1.2,1.2-1.2c0.7,0,1.2,0.6,1.2,1.2v30.8
	C16.7,41.1,16.1,41.6,15.5,41.6z"/>
<path class="st0" d="M43.5,37.9c-0.7,0-1.2-0.6-1.2-1.2V13.3c0-0.7,0.6-1.2,1.2-1.2s1.2,0.6,1.2,1.2v23.4
	C44.7,37.4,44.1,37.9,43.5,37.9z"/>
<path class="st0" d="M6.5,37.9c-0.7,0-1.2-0.6-1.2-1.2V13.3c0-0.7,0.6-1.2,1.2-1.2s1.2,0.6,1.2,1.2v23.4C7.8,37.4,7.2,37.9,6.5,37.9
	z"/>
</svg>
