<svg id="Layer_1" data-name="Layer 1" xmlns="http://www.w3.org/2000/svg" viewBox="0 0 50 50"><defs><style>.cls-1{fill:#323231;}.cls-2{fill:none;}</style></defs><title>DS-ic-list</title><path class="cls-1" d="M8.33,32.6a.86.86,0,0,0-.66.67v7.2a.62.62,0,0,0,.66.66H10.6a.63.63,0,0,0,.67-.66V37a.63.63,0,0,1,.66-.67h26.4A.64.64,0,0,1,39,37v3.47a.63.63,0,0,0,.67.66h2.26a.63.63,0,0,0,.67-.66v-7.2a.64.64,0,0,0-.67-.67Z"/><path class="cls-1" d="M17.4,27.13a.68.68,0,0,0,.93.4l1.87-.8a.59.59,0,0,0,.4-.8l-1.2-2.66a1,1,0,0,0-.93-.67h-2.4c-.4,0-.54.27-.4.67Z"/><path class="cls-1" d="M12.87,30.6a.8.8,0,0,0,.93.13l1.47-1.33a.83.83,0,0,0,.13-.93l-4.13-5.2a1.65,1.65,0,0,0-1.07-.54H7.27c-.4,0-.54.27-.27.54Z"/><path class="cls-1" d="M34.73,28.33a.67.67,0,0,0,.14.94l1.46,1.33a.58.58,0,0,0,.94-.13L43.13,23c.27-.27.14-.53-.26-.53h-2.8A1.64,1.64,0,0,0,39,23Z"/><path class="cls-1" d="M29.53,25.8a.56.56,0,0,0,.4.8l1.87.8a.69.69,0,0,0,.93-.4l1.74-3.87c.13-.4,0-.66-.4-.66h-2.4a1,1,0,0,0-.94.66Z"/><path class="cls-1" d="M23.53,25.27a.63.63,0,0,0,.67.66h2a.63.63,0,0,0,.67-.66v-2a.64.64,0,0,0-.67-.67h-2a.64.64,0,0,0-.67.67Z"/><path class="cls-1" d="M7.27,19.53H5L8.73,9.13h2.54l3.6,10.4h-2.4L11.8,17.4H8.07ZM8.6,15.67h2.67L9.93,11.53h0Z"/><path class="cls-1" d="M24.6,15.93c0,2.67-1.6,3.87-4.27,3.87A4.92,4.92,0,0,1,17,18.6a3.87,3.87,0,0,1-.8-2.53V9.13h2.13V15.8c0,1.47.8,2.13,1.87,2.13,1.47,0,2.13-.66,2.13-2V9.13H24.6Z"/><path class="cls-1" d="M31.13,19.53H29V11H25.8V9.13h8.4V11H31v8.53Z"/><path class="cls-1" d="M40.07,8.87c1.33,0,4.93.53,4.93,5.46s-3.6,5.47-4.93,5.47-4.94-.53-4.94-5.47S38.6,8.87,40.07,8.87Zm0,9.06c1.2,0,2.8-.66,2.8-3.6s-1.6-3.6-2.8-3.6-2.8.67-2.8,3.6S38.87,17.93,40.07,17.93Z"/><rect class="cls-2" x="5" y="5" width="40" height="40"/><rect class="cls-2" x="5" y="5" width="40" height="40"/></svg>