<svg xmlns="http://www.w3.org/2000/svg" width="21" height="24" viewBox="0 0 21 24"><defs><style>.a{fill:#4a81fd;}</style></defs><path class="a" d="M21.75,3H19.5V.563A.563.563,0,0,0,18.937,0h-.375A.563.563,0,0,0,18,.563V3H9V.563A.563.563,0,0,0,8.437,0H8.063A.563.563,0,0,0,7.5.563V3H5.25A2.25,2.25,0,0,0,3,5.25v16.5A2.25,2.25,0,0,0,5.25,24h16.5A2.25,2.25,0,0,0,24,21.75V5.25A2.25,2.25,0,0,0,21.75,3ZM5.25,4.5h16.5a.751.751,0,0,1,.75.75V7.5H4.5V5.25A.751.751,0,0,1,5.25,4.5Zm16.5,18H5.25a.751.751,0,0,1-.75-.75V9h18V21.75A.751.751,0,0,1,21.75,22.5Z" transform="translate(-3)"/><rect class="a" width="3" height="3" transform="translate(3.561 12)"/><rect class="a" width="3" height="3" transform="translate(3.561 17)"/><rect class="a" width="3" height="3" transform="translate(8.885 12)"/><rect class="a" width="3" height="3" transform="translate(8.885 17)"/><rect class="a" width="3" height="3" transform="translate(14.209 12)"/><rect class="a" width="3" height="3" transform="translate(14.209 17)"/></svg>