<svg id="Layer_1" data-name="Layer 1" xmlns="http://www.w3.org/2000/svg" viewBox="0 0 50 50"><title>Toolbar icon list</title><path d="M30.34,10a.62.62,0,0,1,.58.41L32.65,15h8.6a1.25,1.25,0,0,1,1.25,1.25v22.5A1.25,1.25,0,0,1,41.25,40H8.75A1.25,1.25,0,0,1,7.5,38.75V16.25A1.25,1.25,0,0,1,8.75,15h8.61l1.57-4.19A1.26,1.26,0,0,1,20.1,10Zm0-2.5H20.1a3.75,3.75,0,0,0-3.51,2.43l-1,2.57H8.75A3.75,3.75,0,0,0,5,16.25v22.5A3.75,3.75,0,0,0,8.75,42.5h32.5A3.75,3.75,0,0,0,45,38.75V16.25a3.75,3.75,0,0,0-3.75-3.75H34.38l-1.12-3A3.11,3.11,0,0,0,30.34,7.5ZM25,36.88a9.38,9.38,0,1,1,9.38-9.38A9.38,9.38,0,0,1,25,36.88Zm0-16.25a6.88,6.88,0,1,0,6.88,6.87A6.88,6.88,0,0,0,25,20.63Z"/></svg>