<svg id="图层_1" data-name="图层 1" xmlns="http://www.w3.org/2000/svg" viewBox="0 0 50 50"><title>Quick settings</title><rect x="24" y="-4.8" width="2.01" height="59.6" rx="0.5" transform="translate(-10.07 29.51) rotate(-52.33)"/><path d="M31.12,24.37l3.23,2.48A9.38,9.38,0,0,0,25,18.12a8.86,8.86,0,0,0-1.8.18l3.24,2.48A6.91,6.91,0,0,1,31.12,24.37Z"/><path d="M18.93,10.81A1.25,1.25,0,0,1,20.1,10H30.34a.63.63,0,0,1,.58.41L32.65,15h8.6a1.25,1.25,0,0,1,1.25,1.25V33.1L45,35V16.25a3.75,3.75,0,0,0-3.75-3.75H34.38l-1.12-3a3.11,3.11,0,0,0-2.92-2H20.1a3.75,3.75,0,0,0-3.51,2.43l-1,2.54,2.1,1.61Z"/><path d="M25,34.39a6.87,6.87,0,0,1-6.52-9.07l-2.07-1.59a9.49,9.49,0,0,0-.79,3.77,9.38,9.38,0,0,0,15.24,7.32L28.8,33.24A6.79,6.79,0,0,1,25,34.39Z"/><path d="M8.75,40A1.25,1.25,0,0,1,7.5,38.75V16.9L5.19,15.13A3.76,3.76,0,0,0,5,16.25v22.5A3.75,3.75,0,0,0,8.75,42.5H40.88L37.62,40Z"/></svg>