<svg id="Layer_1" data-name="Layer 1" xmlns="http://www.w3.org/2000/svg" viewBox="0 0 50 50"><title>Toolbar icon list</title><path d="M34.4,38.31h-.07l.05,0H8.75A1.25,1.25,0,0,1,7.5,37.09v-19c0-.19,0-.4,0-.6L5,15.54V37.09a3.75,3.75,0,0,0,3.75,3.75H37.66Z"/><path d="M25,32.72a6.88,6.88,0,0,1-6.87-6.83L15.8,24.11h0a9.16,9.16,0,0,0-.16,1.74,9.36,9.36,0,0,0,13.45,8.44l-2.35-1.79A7,7,0,0,1,25,32.72Z"/><path d="M41.25,10.84H34.38l-1.12-3a3.12,3.12,0,0,0-2.92-2H20.1a3.75,3.75,0,0,0-3.51,2.43l-1,2.57H12.72L16,13.33h1.4l1.57-4.19a1.26,1.26,0,0,1,1.17-.81H30.34a.62.62,0,0,1,.58.41l1.73,4.59h8.6a1.25,1.25,0,0,1,1.25,1.25V33.78L45,35.71V14.59A3.75,3.75,0,0,0,41.25,10.84Z"/><path d="M34.38,25.84A9.38,9.38,0,0,0,25,16.47a9.28,9.28,0,0,0-3.84.82l2.38,1.83A7,7,0,0,1,25,19a6.89,6.89,0,0,1,6.87,6.58v0l2.37,1.83A8.87,8.87,0,0,0,34.38,25.84Z"/><rect x="24" y="-4.2" width="2" height="59.33" rx="0.5" transform="matrix(0.61, -0.79, 0.79, 0.61, -10.43, 29.73)"/></svg>