<svg id="Layer_1" data-name="Layer 1" xmlns="http://www.w3.org/2000/svg" viewBox="0 0 26 26"><title>battery</title><path d="M13,1.25a12,12,0,1,0,12,12A12,12,0,0,0,13,1.25Zm5.7,12.28a1.53,1.53,0,0,1-1.52,1.53A4.17,4.17,0,0,1,14,18.5v1.87c0,.35-.45.64-1,.64s-1-.29-1-.64V18.46A4.15,4.15,0,0,1,9,15.06H8.83A1.53,1.53,0,0,1,7.3,13.53v-1.8A1.52,1.52,0,0,1,8.83,10.2h.83V6.33a.94.94,0,0,1,1-.85.94.94,0,0,1,1,.85V10.2h2.77V6.33a1,1,0,0,1,2,0V10.2h.74a1.52,1.52,0,0,1,1.53,1.53Z"/><path d="M9.3,13.06h1.78l-.14,1.13a1.8,1.8,0,0,0,0,.27,2.16,2.16,0,0,0,4.31,0,1.49,1.49,0,0,0,0-.21l-.15-1.13,1.65-.06V12.2H9.3Z"/></svg>