<?xml version="1.0" encoding="utf-8"?>
<!-- Generator: Adobe Illustrator 22.1.0, SVG Export Plug-In . SVG Version: 6.00 Build 0)  -->
<svg version="1.1" id="Layer_1" xmlns="http://www.w3.org/2000/svg" xmlns:xlink="http://www.w3.org/1999/xlink" x="0px" y="0px"
	 viewBox="0 0 50 50" style="enable-background:new 0 0 50 50;" xml:space="preserve">
<style type="text/css">
	.st0{fill:#FFFFFF;}
</style>
<title>DS-ic-list</title>
<g>
	<g id="组_1910">
		<path id="路径_218" class="st0" d="M46.1,3.6H4.3C2.2,3.6,0.5,5.2,0.4,7.3c0,0,0,0,0,0v25c-0.1,2.1,1.6,3.9,3.7,3.9c0,0,0,0,0,0
			H21L19,45h-6.2c-0.7,0-1.3,0.6-1.3,1.3s0.6,1.3,1.3,1.3h24.7c0.7,0,1.3-0.6,1.3-1.3S38.2,45,37.5,45h-6.2l-2-8.7h16.7
			c2.1,0.1,3.9-1.6,3.9-3.7c0,0,0,0,0,0l0,0V7.5C49.9,5.4,48.2,3.7,46.1,3.6C46.1,3.6,46.1,3.6,46.1,3.6z M21.5,44.9l1.3-5.7h4.6
			l1.3,5.7H21.5z M47.4,7.5v24.9c0,0.7-0.5,1.3-1.2,1.4c0,0-0.1,0-0.1,0H4.3c-0.7,0-1.3-0.5-1.4-1.2c0,0,0-0.1,0-0.1v-25
			c0-0.7,0.5-1.3,1.2-1.4c0,0,0.1,0,0.1,0h41.7c0.7,0,1.3,0.5,1.4,1.2C47.3,7.4,47.3,7.4,47.4,7.5L47.4,7.5L47.4,7.5z"/>
	</g>
	<g>
		<g>
			<g id="组件">
				<g id="AT_ICO_FA-Camera">
					<path id="路径_108" class="st0" d="M20.3,15.2c0.1,0,0.2,0,0.2,0.1l0.6,1.5h2.8c0.2,0,0.4,0.2,0.4,0.4v7.3
						c0,0.2-0.2,0.4-0.4,0.4H13.3c-0.2,0-0.4-0.2-0.4-0.4v-7.3c0-0.2,0.2-0.4,0.4-0.4H16l0.5-1.4c0.1-0.2,0.2-0.3,0.4-0.3L20.3,15.2
						z M20.3,14.4h-3.3c-0.5,0-1,0.3-1.1,0.8L15.5,16h-2.2c-0.7,0-1.2,0.5-1.2,1.2l0,0l0,0v7.3c0,0.7,0.5,1.2,1.2,1.2l0,0h10.6
						c0.7,0,1.2-0.6,1.2-1.2l0,0v-7.3c0-0.7-0.5-1.2-1.2-1.2h-2.2l-0.4-1C21.1,14.7,20.7,14.4,20.3,14.4L20.3,14.4z M18.5,23.9
						c-1.7,0-3-1.4-3-3.1c0-1.7,1.4-3,3.1-3c1.7,0,3,1.4,3,3C21.6,22.5,20.3,23.9,18.5,23.9C18.6,23.9,18.6,23.9,18.5,23.9
						L18.5,23.9z M18.5,18.6c-1.2,0-2.2,1-2.2,2.2c0,1.2,1,2.2,2.2,2.2c1.2,0,2.2-1,2.2-2.2c0,0,0,0,0,0
						C20.8,19.6,19.8,18.7,18.5,18.6L18.5,18.6z"/>
				</g>
			</g>
		</g>
	</g>
	<circle class="st0" cx="31.2" cy="20.4" r="0.7"/>
	<circle class="st0" cx="33.4" cy="20.4" r="0.7"/>
	<circle class="st0" cx="35.4" cy="20.4" r="0.7"/>
</g>
</svg>
