<?xml version="1.0" encoding="utf-8"?>
<!-- Generator: Adobe Illustrator 24.0.1, SVG Export Plug-In . SVG Version: 6.00 Build 0)  -->
<svg version="1.1" id="Layer_1" xmlns="http://www.w3.org/2000/svg" xmlns:xlink="http://www.w3.org/1999/xlink" x="0px" y="0px"
	 viewBox="0 0 50 50" style="enable-background:new 0 0 50 50;" xml:space="preserve">
<style type="text/css">
	.st0{fill:#FFFFFF;}
	.st1{fill:#1AEBFF;}
	.st2{fill:#FFFFFF;stroke:#000000;stroke-width:1.0014;stroke-miterlimit:10;}
	.st3{fill:none;stroke:#000000;stroke-width:1.5;stroke-miterlimit:10;}
	.st4{fill:none;stroke:#000000;stroke-width:2;stroke-miterlimit:10;}
	.st5{fill:none;stroke:#000000;stroke-miterlimit:10;}
	.st6{fill:#F02922;}
	.st7{stroke:#FFFFFF;stroke-width:1.0014;stroke-miterlimit:10;}
	.st8{fill:none;stroke:#FFFFFF;stroke-width:1.5;stroke-miterlimit:10;}
	.st9{fill:none;stroke:#FFFFFF;stroke-width:2;stroke-miterlimit:10;}
	.st10{fill:none;stroke:#FFFFFF;stroke-miterlimit:10;}
	.st11{fill:none;}
	.st12{fill:#34495E;}
	.st13{fill:none;stroke:#000000;stroke-linecap:round;stroke-miterlimit:10;}
	.st14{fill-rule:evenodd;clip-rule:evenodd;fill:#4A81FD;}
	.st15{fill:#4A81FD;}
	.st16{fill:none;stroke:#4A81FD;stroke-miterlimit:10;}
	.st17{clip-path:url(#SVGID_2_);}
	.st18{clip-path:url(#SVGID_4_);}
	.st19{fill:#37006E;}
	.st20{fill:#E9EFF2;}
	.st21{stroke:#1AEBFF;stroke-miterlimit:10;}
	.st22{fill:none;stroke:#1AEBFF;stroke-linecap:round;stroke-linejoin:round;stroke-miterlimit:10;}
	.st23{fill:#FFFFFF;stroke:#37006E;stroke-miterlimit:10;}
	.st24{fill:none;stroke:#37006E;stroke-linecap:round;stroke-linejoin:round;stroke-miterlimit:10;}
	.st25{fill:#FFFFFF;stroke:#000000;stroke-miterlimit:10;}
	.st26{fill:none;stroke:#000000;stroke-linecap:round;stroke-linejoin:round;stroke-miterlimit:10;}
	.st27{stroke:#000000;stroke-width:0;stroke-linecap:round;stroke-linejoin:round;}
	.st28{stroke:#000000;stroke-miterlimit:10;}
	.st29{fill:none;stroke:#000000;stroke-linecap:round;stroke-linejoin:round;}
	.st30{clip-path:url(#SVGID_6_);}
	.st31{clip-path:url(#SVGID_8_);}
	.st32{fill:none;stroke:#4A81FD;stroke-width:2;stroke-linecap:round;stroke-linejoin:round;stroke-miterlimit:10;}
	.st33{fill:none;stroke:#000000;stroke-width:2;stroke-linecap:round;stroke-miterlimit:10;}
	.st34{fill:none;stroke:#000000;stroke-width:2;stroke-linecap:round;stroke-linejoin:round;stroke-miterlimit:10;}
	.st35{clip-path:url(#SVGID_10_);}
	.st36{clip-path:url(#SVGID_10_);fill:none;}
	.st37{clip-path:url(#SVGID_12_);}
	.st38{clip-path:url(#SVGID_14_);}
	.st39{clip-path:url(#SVGID_16_);}
	.st40{fill-rule:evenodd;clip-rule:evenodd;}
	.st41{fill:none;stroke:#000000;stroke-width:2;stroke-linecap:square;stroke-miterlimit:10;}
	.st42{clip-path:url(#SVGID_18_);}
	.st43{clip-path:url(#SVGID_18_);fill:none;}
	.st44{clip-path:url(#SVGID_20_);}
	.st45{clip-path:url(#SVGID_20_);fill:none;}
	.st46{clip-path:url(#SVGID_22_);}
	.st47{clip-path:url(#SVGID_24_);}
	.st48{clip-path:url(#SVGID_26_);}
	.st49{clip-path:url(#SVGID_28_);}
	.st50{clip-path:url(#SVGID_30_);}
	.st51{clip-path:url(#SVGID_30_);fill:none;}
	.st52{clip-path:url(#SVGID_32_);}
	.st53{fill:#FFFFFF;stroke:#FFFFFF;stroke-width:3;stroke-miterlimit:10;}
	.st54{fill:#FFFFFF;stroke:#4A81FD;stroke-miterlimit:10;}
	.st55{clip-path:url(#SVGID_34_);}
	.st56{fill:none;stroke:#000000;stroke-width:0;stroke-linecap:round;stroke-linejoin:round;}
	.st57{fill:#323231;}
	.st58{fill:none;stroke:#000000;stroke-width:2;stroke-linejoin:round;stroke-miterlimit:10;}
	.st59{fill:none;stroke:#000000;stroke-width:1.6;stroke-linecap:round;stroke-miterlimit:10;}
	.st60{clip-path:url(#XMLID_164_);fill:#323231;}
	.st61{fill:none;stroke:#231815;stroke-width:2;stroke-miterlimit:10;}
	.st62{clip-path:url(#XMLID_165_);}
	.st63{fill:none;stroke:#000000;stroke-width:0.25;stroke-miterlimit:10;}
</style>
<rect id="矩形_1376_3_" x="5" y="5" class="st11" width="40" height="40"/>
<path d="M8.98,34.36h-1v-6.95c0-0.97,0.79-1.76,1.76-1.76h6.17v1H9.74c-0.42,0-0.76,0.34-0.76,0.76V34.36z"/>
<path d="M22.88,29.64h-1v-2.24c0-0.42-0.34-0.76-0.76-0.76H14.5l1.41-1h5.2c0.97,0,1.76,0.79,1.76,1.76V29.64z"/>
<rect x="21.88" y="29.5" width="1" height="4.71"/>
<polygon points="24.77,36 23.77,36 23.77,34.71 22.38,34.71 22.38,33.71 24.77,33.71 "/>
<path d="M23.01,38.5H7.85c-0.97,0-1.76-0.71-1.76-1.58v-3.21h2.39v1H7.09v2.21c0,0.32,0.35,0.58,0.76,0.58h15.16
	c0.41,0,0.76-0.27,0.76-0.58V36h1v0.92C24.77,37.79,23.98,38.5,23.01,38.5z"/>
<rect x="18.34" y="33.71" width="4.03" height="1"/>
<rect x="8.48" y="33.71" width="4.03" height="1"/>
<path d="M17.25,36.61c-0.08,0-0.17-0.02-0.25-0.07c-0.24-0.14-0.32-0.44-0.18-0.68l1.09-1.89c0.14-0.24,0.44-0.32,0.68-0.18
	c0.24,0.14,0.32,0.44,0.18,0.68l-1.09,1.89C17.59,36.52,17.42,36.61,17.25,36.61z"/>
<path d="M13.6,36.61c-0.17,0-0.34-0.09-0.43-0.25l-1.09-1.89c-0.14-0.24-0.06-0.54,0.18-0.68c0.24-0.14,0.54-0.06,0.68,0.18
	l1.09,1.89c0.14,0.24,0.06,0.54-0.18,0.68C13.78,36.58,13.69,36.61,13.6,36.61z"/>
<rect x="13.6" y="35.61" width="3.65" height="1"/>
<polygon points="31.71,36.18 30.83,31.5 27.99,31.5 27.12,36.18 25.15,35.82 26.33,29.5 32.49,29.5 33.68,35.82 "/>
<path d="M36.41,37H24.8c-0.55,0-1-0.45-1-1s0.45-1,1-1h11.62c0.55,0,1,0.45,1,1S36.97,37,36.41,37z"/>
<path d="M40.91,30.5H22.38v-2h18.54c0.55,0,1-0.45,1-1v-13c0-0.55-0.45-1-1-1h-23c-0.55,0-1,0.45-1,1V26h-2V14.5c0-1.65,1.35-3,3-3
	h23c1.65,0,3,1.35,3,3v13C43.91,29.15,42.57,30.5,40.91,30.5z"/>
</svg>
