<?xml version="1.0" encoding="utf-8"?>
<!-- Generator: Adobe Illustrator 24.0.1, SVG Export Plug-In . SVG Version: 6.00 Build 0)  -->
<svg version="1.1" id="Layer_1" xmlns="http://www.w3.org/2000/svg" xmlns:xlink="http://www.w3.org/1999/xlink" x="0px" y="0px"
	 viewBox="0 0 50 50" style="enable-background:new 0 0 50 50;" xml:space="preserve">
<style type="text/css">
	.st0{fill:#FFFFFF;}
	.st1{fill:#1AEBFF;}
	.st2{fill:#FFFFFF;stroke:#000000;stroke-width:1.0014;stroke-miterlimit:10;}
	.st3{fill:none;stroke:#000000;stroke-width:1.5;stroke-miterlimit:10;}
	.st4{fill:none;stroke:#000000;stroke-width:2;stroke-miterlimit:10;}
	.st5{fill:none;stroke:#000000;stroke-miterlimit:10;}
	.st6{fill:#F02922;}
	.st7{stroke:#FFFFFF;stroke-width:1.0014;stroke-miterlimit:10;}
	.st8{fill:none;stroke:#FFFFFF;stroke-width:1.5;stroke-miterlimit:10;}
	.st9{fill:none;stroke:#FFFFFF;stroke-width:2;stroke-miterlimit:10;}
	.st10{fill:none;stroke:#FFFFFF;stroke-miterlimit:10;}
	.st11{fill:none;}
	.st12{fill:#34495E;}
	.st13{fill:none;stroke:#000000;stroke-linecap:round;stroke-miterlimit:10;}
	.st14{fill-rule:evenodd;clip-rule:evenodd;fill:#4A81FD;}
	.st15{fill:#4A81FD;}
	.st16{fill:none;stroke:#4A81FD;stroke-miterlimit:10;}
	.st17{clip-path:url(#SVGID_2_);}
	.st18{clip-path:url(#SVGID_4_);}
	.st19{fill:#37006E;}
	.st20{fill:#E9EFF2;}
	.st21{stroke:#1AEBFF;stroke-miterlimit:10;}
	.st22{fill:none;stroke:#1AEBFF;stroke-linecap:round;stroke-linejoin:round;stroke-miterlimit:10;}
	.st23{fill:#FFFFFF;stroke:#37006E;stroke-miterlimit:10;}
	.st24{fill:none;stroke:#37006E;stroke-linecap:round;stroke-linejoin:round;stroke-miterlimit:10;}
	.st25{fill:#FFFFFF;stroke:#000000;stroke-miterlimit:10;}
	.st26{fill:none;stroke:#000000;stroke-linecap:round;stroke-linejoin:round;stroke-miterlimit:10;}
	.st27{stroke:#000000;stroke-width:0;stroke-linecap:round;stroke-linejoin:round;}
	.st28{stroke:#000000;stroke-miterlimit:10;}
	.st29{fill:none;stroke:#000000;stroke-linecap:round;stroke-linejoin:round;}
	.st30{clip-path:url(#SVGID_6_);}
	.st31{clip-path:url(#SVGID_8_);}
	.st32{fill:none;stroke:#4A81FD;stroke-width:2;stroke-linecap:round;stroke-linejoin:round;stroke-miterlimit:10;}
	.st33{fill:none;stroke:#000000;stroke-width:2;stroke-linecap:round;stroke-miterlimit:10;}
	.st34{fill:none;stroke:#000000;stroke-width:2;stroke-linecap:round;stroke-linejoin:round;stroke-miterlimit:10;}
	.st35{clip-path:url(#SVGID_10_);}
	.st36{clip-path:url(#SVGID_10_);fill:none;}
	.st37{clip-path:url(#SVGID_12_);}
	.st38{clip-path:url(#SVGID_14_);}
	.st39{clip-path:url(#SVGID_16_);}
	.st40{fill-rule:evenodd;clip-rule:evenodd;}
	.st41{fill:none;stroke:#000000;stroke-width:2;stroke-linecap:square;stroke-miterlimit:10;}
	.st42{clip-path:url(#SVGID_18_);}
	.st43{clip-path:url(#SVGID_18_);fill:none;}
	.st44{clip-path:url(#SVGID_20_);}
	.st45{clip-path:url(#SVGID_20_);fill:none;}
	.st46{clip-path:url(#SVGID_22_);}
	.st47{clip-path:url(#SVGID_24_);}
	.st48{clip-path:url(#SVGID_26_);}
	.st49{clip-path:url(#SVGID_28_);}
	.st50{clip-path:url(#SVGID_30_);}
	.st51{clip-path:url(#SVGID_30_);fill:none;}
	.st52{clip-path:url(#SVGID_32_);}
	.st53{fill:#FFFFFF;stroke:#FFFFFF;stroke-width:3;stroke-miterlimit:10;}
	.st54{fill:#FFFFFF;stroke:#4A81FD;stroke-miterlimit:10;}
	.st55{clip-path:url(#SVGID_34_);}
	.st56{fill:none;stroke:#000000;stroke-width:0;stroke-linecap:round;stroke-linejoin:round;}
	.st57{fill:#323231;}
	.st58{fill:none;stroke:#000000;stroke-width:2;stroke-linejoin:round;stroke-miterlimit:10;}
	.st59{fill:none;stroke:#000000;stroke-width:1.6;stroke-linecap:round;stroke-miterlimit:10;}
	.st60{clip-path:url(#XMLID_164_);fill:#323231;}
	.st61{fill:none;stroke:#231815;stroke-width:2;stroke-miterlimit:10;}
	.st62{clip-path:url(#XMLID_165_);}
	.st63{fill:none;stroke:#000000;stroke-width:0.25;stroke-miterlimit:10;}
</style>
<g>
	<rect x="5" y="5" class="st11" width="40" height="40"/>
	<g>
		<g>
			<path d="M43,24.95c-0.55,0-1-0.45-1-1v-3.72c0-0.39-0.47-0.73-1-0.73H9c-0.53,0-1,0.34-1,0.73v3.72c0,0.55-0.45,1-1,1
				s-1-0.45-1-1v-3.72c0-1.51,1.35-2.73,3-2.73h32c1.65,0,3,1.23,3,2.73v3.72C44,24.51,43.55,24.95,43,24.95z"/>
			<path d="M41.5,27.24c-0.46,0-0.87-0.31-0.97-0.78c-0.12-0.54,0.21-1.08,0.75-1.2c0.42-0.1,0.72-0.39,0.72-0.7v-0.61
				c0-0.55,0.45-1,1-1s1,0.45,1,1v0.61c0,1.25-0.93,2.34-2.27,2.65C41.65,27.23,41.58,27.24,41.5,27.24z"/>
			<path d="M8.5,27.24c-0.07,0-0.15-0.01-0.22-0.03C6.93,26.91,6,25.82,6,24.57v-0.61c0-0.55,0.45-1,1-1s1,0.45,1,1v0.61
				c0,0.31,0.3,0.6,0.72,0.7c0.54,0.12,0.87,0.66,0.75,1.2C9.36,26.92,8.95,27.24,8.5,27.24z"/>
			<path d="M36.92,32.5H13.08c-0.29,0-0.56-0.13-0.75-0.34l-4.58-5.26c-0.36-0.42-0.32-1.05,0.1-1.41c0.42-0.36,1.05-0.32,1.41,0.1
				l4.28,4.92h22.93l4.28-4.92c0.36-0.42,0.99-0.46,1.41-0.1c0.42,0.36,0.46,0.99,0.1,1.41l-4.58,5.26
				C37.49,32.38,37.21,32.5,36.92,32.5z"/>
		</g>
		<path d="M38.5,25.5h-27c-0.55,0-1-0.45-1-1s0.45-1,1-1h27c0.55,0,1,0.45,1,1S39.05,25.5,38.5,25.5z"/>
	</g>
</g>
</svg>
