<svg id="Layer_1" data-name="Layer 1" xmlns="http://www.w3.org/2000/svg" viewBox="0 0 50 50"><title>DS-ic-list</title><circle cx="8.85" cy="6.45" r="1.36"/><path d="M41.51,7.45H18.38a1,1,0,0,1,0-2H41.51a1,1,0,0,1,0,2Z"/><circle cx="8.85" cy="15.72" r="1.36"/><path d="M41.51,17H18.38a1,1,0,0,1,0-2H41.51a1,1,0,1,1,0,2Z"/><circle cx="8.85" cy="25" r="1.36"/><circle cx="8.85" cy="34.28" r="1.36"/><circle cx="8.85" cy="43.55" r="1.36"/><g id="组件"><g id="AT_ICO_FA-Plug" data-name="AT ICO FA-Plug"><path id="Shape" d="M37.91,36.58,25.48,25.33a1.2,1.2,0,0,0-1.69.09l-1.61,1.77a1.2,1.2,0,0,0,.09,1.69l.29.27a8,8,0,0,0,0,10.71l-3.24,3.58,1.18,1.07,3.24-3.58A8,8,0,0,0,34.4,39.87l.29.26a1.19,1.19,0,0,0,1.69-.08L38,38.27A1.2,1.2,0,0,0,37.91,36.58Zm-2.44,2.1-1.18-1.07-1.08,1.18a6.38,6.38,0,1,1-9.46-8.57L24.82,29,23.64,28l1.07-1.18L36.54,37.5Zm-.28-5.63,4.28-4.74a.8.8,0,0,1,1.13,0,.79.79,0,0,1,.06,1.12l-4.29,4.74Zm-7.1-6.43,4.28-4.74A.8.8,0,0,1,33.56,23l-4.29,4.73Z"/></g></g></svg>