<svg id="Layer_1" data-name="Layer 1" xmlns="http://www.w3.org/2000/svg" viewBox="0 0 50 50"><defs><style>.cls-1{fill:none;}.cls-2{fill-rule:evenodd;}</style></defs><title>DS-ic-list</title><path d="M18.06,15.59a1,1,0,0,1-1-1V3.13a1,1,0,1,1,2,0V14.59A1,1,0,0,1,18.06,15.59Z"/><path d="M31.94,15.59a1,1,0,0,1-1-1V3.13a1,1,0,0,1,2,0V14.59A1,1,0,0,1,31.94,15.59Z"/><rect x="24" y="36.84" width="2" height="11.03"/><path d="M41.31,24.26H40a1,1,0,0,1,0-2h1.36a.38.38,0,0,0,.39-.38V16.32a.39.39,0,0,0-.39-.39H38.52a1,1,0,0,1,0-2h2.79a2.39,2.39,0,0,1,2.39,2.39v5.56A2.39,2.39,0,0,1,41.31,24.26Z"/><path d="M38.52,15.93h-27a1,1,0,0,1,0-2h27a1,1,0,0,1,0,2Z"/><path d="M10.05,24.26H8.69A2.39,2.39,0,0,1,6.3,21.88V16.32a2.39,2.39,0,0,1,2.39-2.39h2.79a1,1,0,0,1,0,2H8.69a.39.39,0,0,0-.39.39v5.56a.38.38,0,0,0,.39.38h1.36a1,1,0,0,1,0,2Z"/><path d="M25,38.84c-8.24,0-15.25-6.8-15.95-15.49A1,1,0,0,1,10,22.27a1,1,0,0,1,1.07.91c.62,7.66,6.75,13.66,14,13.66s13.34-6,14-13.66A1,1,0,0,1,40,22.27,1,1,0,0,1,41,23.35C40.25,32,33.24,38.84,25,38.84Z"/><path class="cls-1" d="M25,20.53a.2.2,0,0,0,.2-.2v-.8a.2.2,0,0,0-.4,0v.8A.2.2,0,0,0,25,20.53Z"/><path class="cls-1" d="M29.8,21.82a.19.19,0,0,0,.17-.1l.4-.7a.19.19,0,0,0-.07-.27.21.21,0,0,0-.27.07l-.4.7a.19.19,0,0,0,.07.27A.19.19,0,0,0,29.8,21.82Z"/><path class="cls-1" d="M20,21.72a.19.19,0,0,0,.27.07.19.19,0,0,0,.07-.27l-.4-.7a.21.21,0,0,0-.27-.07.19.19,0,0,0-.07.27Z"/><path class="cls-1" d="M33.31,25.33a.17.17,0,0,0,.1,0l.7-.4a.19.19,0,0,0,.07-.27.2.2,0,0,0-.27-.07l-.7.4a.21.21,0,0,0-.07.27A.19.19,0,0,0,33.31,25.33Z"/><path class="cls-1" d="M16.59,25.3a.17.17,0,0,0,.1,0,.19.19,0,0,0,.17-.1.21.21,0,0,0-.07-.27l-.7-.4a.2.2,0,0,0-.27.07.19.19,0,0,0,.07.27Z"/><path d="M25,20.73a9.21,9.21,0,0,1,8.76,6.4h1.66a10.79,10.79,0,0,0-20.84,0h1.66A9.21,9.21,0,0,1,25,20.73ZM33.21,25l.7-.4a.2.2,0,0,1,.27.07.19.19,0,0,1-.07.27l-.7.4a.17.17,0,0,1-.1,0,.19.19,0,0,1-.17-.1A.21.21,0,0,1,33.21,25Zm-3.58-3.44.4-.7a.21.21,0,0,1,.27-.07.19.19,0,0,1,.07.27l-.4.7a.19.19,0,0,1-.27.07A.19.19,0,0,1,29.63,21.52Zm-4.83-2a.2.2,0,0,1,.4,0v.8a.2.2,0,0,1-.4,0Zm-5.1,1.22a.21.21,0,0,1,.27.07l.4.7a.19.19,0,0,1-.07.27.19.19,0,0,1-.27-.07l-.4-.7A.19.19,0,0,1,19.7,20.75Zm-3.88,3.88a.2.2,0,0,1,.27-.07l.7.4a.21.21,0,0,1,.07.27.19.19,0,0,1-.17.1.17.17,0,0,1-.1,0l-.7-.4A.19.19,0,0,1,15.82,24.63Z"/><circle cx="25" cy="30.13" r="1"/><polygon class="cls-2" points="25 24.13 25.86 30.13 24.14 30.13 25 24.13"/></svg>