<svg id="Layer_1" data-name="Layer 1" xmlns="http://www.w3.org/2000/svg" viewBox="0 0 50 50"><title>DS-ic-list</title><g id="组件"><g id="AT_ICO_FA-Plug" data-name="AT ICO FA-Plug"><path id="Shape" d="M32.82,28.52,20.39,17.27a1.19,1.19,0,0,0-1.69.08l-1.61,1.78a1.2,1.2,0,0,0,.09,1.69l.29.27a8,8,0,0,0,0,10.7l-3.24,3.58,1.18,1.07,3.24-3.57A8,8,0,0,0,29.31,31.8l.29.27A1.2,1.2,0,0,0,31.29,32l1.61-1.77A1.2,1.2,0,0,0,32.82,28.52Zm-2.44,2.1-1.19-1.08-1.07,1.19a6.38,6.38,0,1,1-9.46-8.57L19.73,21,18.54,19.9l1.08-1.18L31.45,29.43ZM30.1,25l4.28-4.73a.8.8,0,0,1,1.13-.06.8.8,0,0,1,.06,1.13l-4.29,4.73ZM23,18.55l4.28-4.73a.8.8,0,1,1,1.19,1.07l-4.29,4.73Z"/></g></g><path d="M37.46,41a1,1,0,0,1-.77-.36,1,1,0,0,1,.13-1.41A18.48,18.48,0,0,0,22.9,6.63a1,1,0,0,1-.23-2A20.49,20.49,0,0,1,43.9,32.94a20.19,20.19,0,0,1-5.81,7.82A.94.94,0,0,1,37.46,41Z"/><path d="M25,45.49A20.48,20.48,0,0,1,6.1,17.06a20.19,20.19,0,0,1,5.81-7.82,1,1,0,0,1,1.27,1.54A18.48,18.48,0,0,0,27.1,43.37a1,1,0,1,1,.23,2A20.39,20.39,0,0,1,25,45.49Z"/></svg>