<svg id="Layer_1" data-name="Layer 1" xmlns="http://www.w3.org/2000/svg" viewBox="0 0 50 50"><title>DS-ic-list</title><path d="M18.11,10a1,1,0,0,1-1-1V3a1,1,0,0,1,2,0V9A1,1,0,0,1,18.11,10Z"/><path d="M31,10a1,1,0,0,1-1-1V3a1,1,0,0,1,2,0V9A1,1,0,0,1,31,10Z"/><path d="M38,48H12a5,5,0,0,1-5-5V13a5,5,0,0,1,5-5H38a5,5,0,0,1,5,5V43A5,5,0,0,1,38,48ZM12,10a3,3,0,0,0-3,3V43a3,3,0,0,0,3,3H38a3,3,0,0,0,3-3V13a3,3,0,0,0-3-3Z"/><path d="M42,17H8.92a1,1,0,0,1,0-2H42a1,1,0,0,1,0,2Z"/><g id="组件"><g id="AT_ICO_FA-Plug" data-name="AT ICO FA-Plug"><path id="Shape" d="M32.32,35.29,20.68,24.76a1.12,1.12,0,0,0-1.58.08L17.6,26.5a1.11,1.11,0,0,0,.08,1.58l.27.26a7.46,7.46,0,0,0,0,10l-3,3.35,1.11,1,3-3.36a7.47,7.47,0,0,0,10-1l.28.25a1.12,1.12,0,0,0,1.58-.08l1.51-1.66A1.13,1.13,0,0,0,32.32,35.29Zm-2.29,2-1.1-1-1,1.11a6,6,0,1,1-8.86-8l1-1.11-1.1-1,1-1.11L31,36.15ZM29.77,32l4-4.43a.75.75,0,0,1,1.06-.05.73.73,0,0,1,0,1.05l-4,4.43Zm-6.65-6,4-4.43a.74.74,0,0,1,1.1,1l-4,4.44Z"/></g></g></svg>