<?xml version="1.0" encoding="UTF-8"?>
<svg width="50px" height="50px" viewBox="0 0 50 50" version="1.1" xmlns="http://www.w3.org/2000/svg" xmlns:xlink="http://www.w3.org/1999/xlink">
    <!-- Generator: Sketch 53.2 (72643) - https://sketchapp.com -->
    <title>AT/ICO/LE-Dynamic@2x</title>
    <desc>Created with Sketch.</desc>
    <g id="AT/ICO/LE-Dynamic" stroke="none" stroke-width="1" fill="none" fill-rule="evenodd">
        <path d="M33.9201429,31.9997143 C41.403,31.9997143 47.4915714,25.9111429 47.4915714,18.4282857 C47.4915714,10.9454286 41.403,4.85685714 33.9201429,4.85685714 C26.4372857,4.85685714 20.3487143,10.9454286 20.3487143,18.4282857 C20.3487143,19.2897143 20.4372857,20.1282857 20.5915714,20.944 C22.1258571,20.9454286 23.6587143,20.944 25.1944286,20.9454286 C25.2887143,20.9454286 25.3987143,20.9225714 25.473,20.9611429 C25.5615714,21.0097143 25.6515714,21.1025714 25.6815714,21.1925714 C25.7187143,21.2968571 25.6901429,21.4225714 25.6901429,21.5382857 C25.6901429,24.0897143 25.6901429,26.6425714 25.6901429,29.1954286 C27.9758571,30.9468571 30.8244286,31.9997143 33.9201429,31.9997143 Z M22.673,28.3197143 L22.6715714,26.0154286 L22.6715714,23.5397143 C22.6715714,23.1897143 22.6444286,23.1597143 22.2744286,23.1582857 C21.9215714,23.1582857 21.5687143,23.1568571 21.2158571,23.1582857 L19.6972857,23.1611429 C18.6915714,23.164 17.7815714,23.4668571 16.9701429,24.0168571 C15.433,25.0568571 14.5772857,26.5297143 14.2615714,28.2782857 C14.0844286,29.2582857 14.123,30.2525714 14.3787143,31.2354286 C14.6544286,32.2897143 15.1287143,33.2368571 15.8715714,34.0511429 C16.8887143,35.164 18.1501429,35.8182857 19.7144286,35.8482857 C20.5658571,35.864 21.4187143,35.8525714 22.2701429,35.8511429 C22.6287143,35.8497143 22.673,35.8054286 22.673,35.464 L22.673,29.5011429 L22.673,28.3197143 Z M11.503,30.244 C11.7044286,28.434 11.2587143,26.7597143 10.0987143,25.2982857 C9.02442857,23.944 7.63442857,23.144 5.813,23.1568571 C5.03871429,23.1611429 4.26442857,23.1582857 3.49014286,23.1568571 C3.05871429,23.1568571 3.053,23.1625714 3.053,23.5682857 L3.053,29.4797143 C3.053,31.474 3.053,33.4697143 3.05442857,35.4654286 C3.05442857,35.8225714 3.08585714,35.8511429 3.44585714,35.8511429 C4.28014286,35.8511429 5.11442857,35.8568571 5.94871429,35.8497143 C7.10871429,35.8411429 8.14014286,35.4697143 9.03871429,34.774 C10.5401429,33.6111429 11.3001429,32.0511429 11.503,30.244 Z M33.9201429,3.42828571 C42.1915714,3.42828571 48.9201429,10.1568571 48.9201429,18.4282857 C48.9201429,26.6997143 42.1915714,33.4282857 33.9201429,33.4282857 C30.8815714,33.4282857 28.0558571,32.514 25.6901429,30.9554286 L25.6901429,37.6582857 C25.6915714,38.0325714 25.6544286,38.0697143 25.2615714,38.0697143 C21.123,38.0697143 16.9858571,38.0697143 12.8472857,38.0697143 L0.535857143,38.0697143 C0.493,38.0697143 0.448714286,38.0697143 0.405857143,38.0697143 C0.0401428571,38.064 0.00585714286,38.0325714 0.00585714286,37.6868571 C0.00585714286,32.3882857 0.00585714286,27.0897143 0.00728571429,21.7911429 C0.00728571429,21.6254286 0.00585714286,21.4597143 0.00585714286,21.294 C0.00442857143,20.9997143 0.0501428571,20.9554286 0.364428571,20.9454286 C0.484428571,20.9411429 0.604428571,20.944 0.725857143,20.944 L19.1487143,20.944 C19.0087143,20.124 18.9201429,19.2882857 18.9201429,18.4282857 C18.9201429,10.1568571 25.6487143,3.42828571 33.9201429,3.42828571 Z M3.185,44.7842857 C3.20642857,44.1 3.20642857,43.4114286 3.185,42.7257143 C3.17071429,42.2042857 2.82357143,41.8285714 2.38642857,41.8142857 C2.05214286,41.8057143 1.71785714,41.8071429 1.38357143,41.8128571 C1.12642857,41.8157143 1.075,41.8842857 1.075,42.1957143 C1.07357143,42.7142857 1.075,43.2342857 1.075,43.7528571 L1.07928571,43.7528571 C1.07928571,44.0171429 1.07928571,44.28 1.07785714,44.5457143 C1.07785714,44.81 1.07642857,45.0728571 1.075,45.3371429 C1.07357143,45.67 1.13071429,45.7385714 1.41357143,45.7428571 C1.71785714,45.7471429 2.02357143,45.7471429 2.32642857,45.7414286 C2.82071429,45.7342857 3.16642857,45.3671429 3.185,44.7842857 Z M3.96642857,41.6971429 C4.10642857,41.9642857 4.22214286,42.2928571 4.23642857,42.6 C4.27357143,43.3985714 4.27071429,44.2028571 4.23785714,45.0028571 C4.21785714,45.5214286 4.06785714,46.0242857 3.65785714,46.2985714 C3.43071429,46.45 3.15928571,46.5728571 2.90642857,46.5842857 C2.02928571,46.6228571 1.15214286,46.6057143 0.276428571,46.6128571 C0.0592857143,46.6142857 0.000714285714,46.4728571 0.000714285714,46.2414286 C0.00642857143,45.43 0.00357142857,44.62 0.00357142857,43.81 L0.000714285714,43.81 L0.000714285714,41.3528571 C0.000714285714,41.0671429 0.0607142857,40.98 0.297857143,40.9785714 C1.06357143,40.9757143 1.82928571,40.9514286 2.59357143,40.9914286 C3.11357143,41.02 3.655,41.1071429 3.96642857,41.6971429 Z M8.88742857,45.0492857 C8.90742857,44.2021429 8.89885714,43.3521429 8.89028571,42.5035714 C8.88742857,42.2292857 8.746,42.0392857 8.53457143,41.9378571 C8.10457143,41.7307143 7.66171429,41.7492857 7.22885714,41.8964286 C6.926,41.9992857 6.77314286,42.2807143 6.76885714,42.655 C6.76457143,43.025 6.76742857,43.3935714 6.76742857,43.7621429 L6.77742857,43.7621429 C6.77742857,44.1835714 6.76314286,44.6035714 6.78314286,45.0235714 C6.80028571,45.3821429 7.03885714,45.6807143 7.34028571,45.7092857 C7.67171429,45.7421429 8.01028571,45.7407143 8.34171429,45.7107143 C8.646,45.6821429 8.87885714,45.4107143 8.88742857,45.0492857 Z M9.92171429,42.2978571 C9.98457143,42.795 9.976,43.305 10.0002857,43.8107143 C9.98457143,43.8107143 9.96885714,43.8107143 9.95314286,43.8121429 C9.95314286,44.2492857 9.98028571,44.6892857 9.94742857,45.1235714 C9.886,45.9207143 9.44314286,46.425 8.77314286,46.5464286 C8.13314286,46.6621429 7.49028571,46.6921429 6.86028571,46.5235714 C6.59457143,46.4521429 6.33028571,46.2835714 6.10742857,46.0921429 C5.87457143,45.8907143 5.74314286,45.5592857 5.736,45.2207143 C5.71742857,44.2764286 5.69457143,43.3307143 5.74171429,42.3907143 C5.77314286,41.7821429 6.10314286,41.355 6.60885714,41.1621429 C7.45314286,40.8421429 8.30314286,40.8492857 9.13885714,41.185 C9.57742857,41.3621429 9.85457143,41.7635714 9.92171429,42.2978571 Z M13.9675714,45.6722857 C14.0761429,45.678 14.2618571,45.768 14.2732857,45.8508571 C14.3032857,46.0765714 14.2718571,46.3208571 14.2375714,46.5508571 C14.2318571,46.5951429 14.1047143,46.6337143 14.0318571,46.6351429 C13.2404286,46.6408571 12.449,46.638 11.6561429,46.6422857 C11.4404286,46.6437143 11.429,46.4594286 11.429,46.2608571 C11.429,45.4394286 11.429,44.618 11.429,43.798 L11.429,41.3608571 C11.4304286,40.9794286 11.4718571,40.9265714 11.7675714,40.928 C11.8861429,40.928 12.0061429,40.9265714 12.1247143,40.9294286 C12.3904286,40.9337143 12.4447143,41.0051429 12.4447143,41.3408571 C12.4432857,42.6351429 12.4418571,43.9294286 12.4418571,45.2237143 C12.4404286,45.6294286 12.4675714,45.6637143 12.7904286,45.6637143 C13.1818571,45.6637143 13.5761429,45.6508571 13.9675714,45.6722857 Z M18.2191429,45.7657143 C18.6605714,45.7042857 18.922,45.29 18.9048571,44.78 C18.8891429,44.2928571 18.7177143,44.1057143 18.2091429,44.03 C18.0705714,44.01 17.932,44.0014286 17.7934286,43.9957143 C17.5334286,43.9842857 17.462,43.8985714 17.472,43.62 C17.4791429,43.4 17.5762857,43.3128571 17.7777143,43.2942857 C18.0105714,43.2714286 18.2577143,43.2457143 18.462,43.14 C18.6877143,43.0242857 18.7448571,42.6171429 18.6491429,42.2657143 C18.5834286,42.0228571 18.332,41.7828571 18.0905714,41.7685714 C17.7962857,41.7528571 17.5005714,41.77 17.2062857,41.7571429 C16.9691429,41.7485714 16.8891429,41.8714286 16.892,42.1157143 C16.8991429,42.67 16.8934286,43.2228571 16.8934286,43.7771429 L16.8962857,43.7771429 C16.8962857,44.3485714 16.8948571,44.92 16.8962857,45.4914286 C16.8962857,45.6442857 16.9105714,45.7971429 17.092,45.7971429 C17.4677143,45.7971429 17.8491429,45.8171429 18.2191429,45.7657143 Z M19.2891429,43.7271429 C19.9677143,44.0242857 20.0848571,44.9828571 19.9505714,45.5014286 C19.7648571,46.2285714 19.2862857,46.5785714 18.6377143,46.6114286 C17.7477143,46.6571429 16.8548571,46.6328571 15.9634286,46.6414286 C15.7834286,46.6428571 15.7162857,46.5357143 15.7162857,46.3571429 C15.7162857,46.1428571 15.7177143,45.9285714 15.7177143,45.7142857 C15.7162857,44.25 15.7148571,42.7871429 15.7148571,41.3228571 C15.7148571,40.9885714 15.7634286,40.9314286 16.0677143,40.93 C16.7948571,40.93 17.5234286,40.9214286 18.2505714,40.9357143 C18.6305714,40.9442857 19.0177143,41.0028571 19.2991429,41.3042857 C19.4591429,41.4757143 19.6062857,41.7142857 19.6491429,41.9457143 C19.7348571,42.4071429 19.772,42.8957143 19.4162857,43.2771429 C19.3205714,43.38 19.1962857,43.4528571 19.032,43.5785714 C19.1391429,43.6414286 19.2105714,43.6928571 19.2891429,43.7271429 Z M23.598,40.9394286 C23.748,40.948 23.9008571,40.938 24.0508571,40.9408571 C24.2965714,40.9494286 24.3394286,41.0208571 24.2265714,41.2851429 C24.0851429,41.618 23.9265714,41.9408571 23.7722857,42.2651429 C23.4437143,42.9622857 23.1051429,43.6537143 22.7865714,44.3565714 C22.7265714,44.4908571 22.7137143,44.6651429 22.7108571,44.8222857 C22.7022857,45.3037143 22.7108571,45.7851429 22.7094286,46.2651429 C22.708,46.5537143 22.6465714,46.6294286 22.4008571,46.6394286 C22.198,46.6465714 21.9937143,46.638 21.7894286,46.6394286 C21.5894286,46.6422857 21.5037143,46.5294286 21.508,46.2937143 C21.5151429,45.8394286 21.4908571,45.3837143 21.5208571,44.9308571 C21.5465714,44.5437143 21.3865714,44.2451429 21.2494286,43.9351429 C20.9037143,43.148 20.5451429,42.3694286 20.1894286,41.588 C20.1365714,41.4708571 20.0651429,41.3637143 20.0251429,41.2408571 C19.9665714,41.0651429 20.008,40.9408571 20.1908571,40.9394286 C20.3808571,40.9394286 20.5765714,40.9051429 20.7565714,40.9522857 C20.8851429,40.9865714 21.0408571,41.098 21.1051429,41.2294286 C21.4365714,41.9137143 21.7422857,42.6165714 22.0565714,43.3122857 C22.068,43.3337143 22.0894286,43.348 22.1622857,43.4265714 C22.3065714,43.138 22.4394286,42.8765714 22.5665714,42.6137143 C22.8008571,42.1294286 23.0337143,41.6422857 23.2651429,41.1537143 C23.3394286,40.9965714 23.4465714,40.9308571 23.598,40.9394286 Z M33.4528571,15.2704286 C33.4314286,15.2475714 33.4214286,15.2061429 33.4214286,15.1732857 C33.4185714,14.5347143 33.4185714,13.8961429 33.42,13.2575714 C33.4214286,13.2161429 33.4328571,13.1718571 33.45,13.1347143 C33.6828571,12.6118571 34.0014286,12.1532857 34.41,11.7647143 C34.7771429,11.4175714 35.1885714,11.139 35.6471429,10.9318571 C35.9671429,10.7875714 36.2985714,10.6904286 36.6385714,10.6275714 C36.7857143,10.599 36.9371429,10.589 37.0871429,10.5832857 C37.2871429,10.5747143 37.49,10.5661429 37.69,10.5847143 C38.0085714,10.6147143 38.3385714,10.619 38.6314286,10.7818571 C38.8557143,10.9061429 38.9871429,11.1032857 39.0214286,11.3718571 C39.0614286,11.6704286 38.9642857,11.9061429 38.7642857,12.1132857 C38.1942857,12.6961429 37.6314286,13.2861429 37.06,13.8661429 C36.9828571,13.9461429 36.9542857,14.0204286 36.9728571,14.1232857 C37.0342857,14.4875714 37.0985714,14.8504286 37.1557143,15.2147143 C37.1685714,15.2947143 37.2114286,15.319 37.2757143,15.329 C37.6128571,15.3832857 37.9528571,15.4204286 38.2857143,15.499 C38.4271429,15.5318571 38.4957143,15.4832857 38.5814286,15.3947143 C39.1557143,14.7975714 39.7314286,14.2018571 40.3085714,13.609 C40.5242857,13.3861429 40.7928571,13.3247143 41.08,13.4061429 C41.3671429,13.4875714 41.5628571,13.6875714 41.6257143,13.9918571 C41.6785714,14.2561429 41.7128571,14.5247143 41.74,14.7932857 C41.8014286,15.3775714 41.72,15.949 41.5428571,16.5032857 C41.3742857,17.0332857 41.1142857,17.5147143 40.7671429,17.949 C40.4685714,18.3204286 40.1242857,18.6332857 39.7328571,18.8932857 C39.6585714,18.9432857 39.6171429,18.9361429 39.5557143,18.8718571 C39.3642857,18.6632857 39.1628571,18.4618571 38.9628571,18.2561429 C40.3671429,17.4118571 40.97,16.1632857 40.8014286,14.519 L40.7671429,14.4961429 C40.7414286,14.5218571 40.7142857,14.5461429 40.6871429,14.5732857 C40.0742857,15.2075714 39.4585714,15.8418571 38.8442857,16.4775714 C38.8,16.5247143 38.7614286,16.5475714 38.6871429,16.5332857 C37.9928571,16.4075714 37.2957143,16.2904286 36.6,16.1704286 C36.3771429,16.1332857 36.3714286,16.1332857 36.3314286,15.9018571 C36.2585714,15.4732857 36.1914286,15.0418571 36.1228571,14.6118571 C36.0757143,14.3247143 36.0357143,14.0375714 35.9814286,13.7532857 C35.9657143,13.6747143 35.9814286,13.6304286 36.0314286,13.5775714 C36.6485714,12.9418571 37.2642857,12.3047143 37.8814286,11.6675714 C37.9057143,11.6418571 37.93,11.6147143 37.9685714,11.5732857 C37.1885714,11.4561429 36.4614286,11.5518571 35.7814286,11.9275714 C35.1,12.3018571 34.5871429,12.8504286 34.2671429,13.5804286 C33.95,14.3047143 33.8742857,15.059 34.05,15.8547143 C34.0128571,15.8375714 33.9985714,15.8361429 33.9914286,15.829 C33.8114286,15.6432857 33.63,15.459 33.4528571,15.2704286 Z M32.8375714,21.699 C32.8675714,21.6704286 32.8818571,21.6304286 32.9047143,21.5947143 C33.0832857,21.9232857 33.2447143,22.2175714 33.4132857,22.5261429 C33.4018571,22.5361429 33.3761429,22.5632857 33.349,22.589 C32.3175714,23.579 31.2847143,24.569 30.2532857,25.559 C29.869,25.9275714 29.4161429,26.1775714 28.8775714,26.2547143 C28.1718571,26.3547143 27.5318571,26.1947143 26.9732857,25.7618571 C26.5004286,25.3961429 26.2132857,24.9175714 26.1147143,24.3504286 C26.0047143,23.7118571 26.1518571,23.1175714 26.559,22.5918571 C26.6561429,22.469 26.7661429,22.3532857 26.8804286,22.2432857 C28.3618571,20.819 29.8461429,19.3975714 31.329,17.9747143 C31.4275714,17.879 31.429,17.879 31.5247143,17.9718571 C31.729,18.1675714 31.9332857,18.3632857 32.1618571,18.5818571 C32.1147143,18.6161429 32.0761429,18.6375714 32.0461429,18.6661429 C30.5632857,20.089 29.0818571,21.5132857 27.5947143,22.9332857 C27.3475714,23.169 27.1632857,23.4347143 27.1132857,23.7661429 C27.0575714,24.1361429 27.1461429,24.4775714 27.3861429,24.7761429 C27.7004286,25.1675714 28.1275714,25.3204286 28.6304286,25.2832857 C28.9704286,25.259 29.2661429,25.1247143 29.5104286,24.8918571 C30.6204286,23.829 31.729,22.7647143 32.8375714,21.699 Z M40.6857143,23.3165714 C40.78,23.2222857 40.78,23.2222857 40.6842857,23.128 C39.4485714,21.8908571 38.2128571,20.6565714 36.9771429,19.4194286 C36.69,19.1322857 36.3471429,18.9794286 35.8828571,18.9865714 C35.7271429,18.9722857 35.5271429,19.018 35.3357143,19.1065714 C34.8028571,19.3565714 34.5085714,19.7837143 34.46,20.358 C34.4228571,20.7822857 34.5757143,21.1608571 34.8785714,21.4651429 C36.1242857,22.7151429 37.3742857,23.9608571 38.62,25.2108571 C38.6914286,25.2822857 38.73,25.2751429 38.7971429,25.208 C39.4257143,24.5751429 40.0557143,23.9465714 40.6857143,23.3165714 Z M30.9757143,15.4994286 C30.98,15.4694286 30.9828571,15.4565714 30.9828571,15.4437143 C30.9828571,14.9951429 30.9857143,14.5465714 30.9814286,14.098 C30.98,14.0551429 30.9385714,13.9994286 30.9014286,13.9708571 C30.48,13.6508571 30.0571429,13.3351429 29.6342857,13.018 C29.1628571,12.6637143 28.6914286,12.3108571 28.2214286,11.9551429 C28.1557143,11.9051429 28.1128571,11.908 28.0528571,11.9708571 C27.8614286,12.1694286 27.6685714,12.3651429 27.4685714,12.5537143 C27.3842857,12.6308571 27.3971429,12.6808571 27.4585714,12.7622857 C28.1257143,13.6465714 28.79,14.5322857 29.4528571,15.4194286 C29.4957143,15.478 29.5414286,15.5022857 29.6142857,15.5008571 C29.9471429,15.498 30.28,15.4994286 30.6128571,15.4994286 L30.9757143,15.4994286 Z M37.6457143,18.7022857 C38.9157143,19.9708571 40.1842857,21.2422857 41.4571429,22.5094286 C41.6585714,22.7108571 41.7557143,22.9508571 41.7571429,23.2294286 C41.7614286,23.5051429 41.6514286,23.738 41.46,23.9308571 C40.7657143,24.6265714 40.0757143,25.3265714 39.3728571,26.0137143 C38.99,26.3894286 38.3871429,26.358 38.0371429,26.0094286 C36.75,24.728 35.4671429,23.4422857 34.1828571,22.158 C33.7971429,21.7722857 33.5757143,21.3008571 33.4971429,20.768 C33.4142857,20.1965714 33.5471429,19.6637143 33.8442857,19.1737143 C33.8871429,19.1037143 33.8714286,19.0694286 33.8214286,19.0208571 C32.9957143,18.1965714 32.17,17.3708571 31.3471429,16.5451429 C31.2957143,16.4951429 31.2457143,16.478 31.1757143,16.478 C30.4957143,16.4794286 29.8157143,16.478 29.1357143,16.4808571 C29.0557143,16.4808571 29.0071429,16.4565714 28.9585714,16.3908571 C28.1928571,15.368 27.4242857,14.348 26.6585714,13.3251429 C26.4685714,13.0737143 26.2814286,12.8208571 26.0942857,12.5694286 L28.0542857,10.6094286 C28.2185714,10.7322857 28.3942857,10.8622857 28.57,10.9951429 C29.5671429,11.7422857 30.5657143,12.4908571 31.5628571,13.238 C31.6742857,13.3222857 31.79,13.4008571 31.8942857,13.4908571 C31.9314286,13.5237143 31.96,13.5865714 31.9614286,13.6365714 C31.9657143,14.3194286 31.9642857,15.0037143 31.9628571,15.6865714 C31.9614286,15.7594286 31.98,15.8137143 32.0328571,15.8665714 C32.8585714,16.6865714 33.68,17.5094286 34.5,18.3337143 C34.5571429,18.3922857 34.6,18.3951429 34.6642857,18.3537143 C35.12,18.0637143 35.6257143,17.968 36.1557143,18.0122857 C36.7328571,18.0594286 37.2328571,18.2894286 37.6457143,18.7022857 Z" fill="#000000" fill-rule="nonzero"></path>
    </g>
</svg>