<svg xmlns="http://www.w3.org/2000/svg" width="18.837" height="20" viewBox="0 0 18.837 20">
  <g id="Group_4458" data-name="Group 4458" transform="translate(-61 -704.001)">
    <path id="Path_200" data-name="Path 200" d="M963.479,3174.251a.583.583,0,0,0,0,1.167h3.347a.583.583,0,0,0,0-1.167h-3.348Z" transform="translate(-899.01 -2465.537)" fill="#4a81fd"/>
    <path id="Path_201" data-name="Path 201" d="M971.525,3178.919a.582.582,0,0,0-.582-.585h-7.46a.585.585,0,0,0-.052,1.168h7.509a.583.583,0,0,0,.585-.582Z" transform="translate(-899.014 -2464.913)" fill="#4a81fd"/>
    <path id="Path_202" data-name="Path 202" d="M968.977,3182.418h-5.5a.583.583,0,0,0,0,1.167h5.5a.583.583,0,0,0,0-1.167Z" transform="translate(-899.01 -2464.288)" fill="#4a81fd"/>
    <g id="Group_4457" data-name="Group 4457">
      <path id="Path_199" data-name="Path 199" d="M967.74,3189h-6.171v-17.663h7.294v5.073a.585.585,0,0,0,.582.584h5.074v2.285a.585.585,0,0,0,1.168,0v-2.869c0-.013-.007-.024-.008-.037a.609.609,0,0,0-.03-.15c-.007-.018-.012-.037-.02-.055a.529.529,0,0,0-.115-.17l-5.662-5.663a.566.566,0,0,0-.172-.115c-.017-.008-.035-.013-.052-.02a.581.581,0,0,0-.153-.03c-.013,0-.024-.008-.037-.008h-8.46a.583.583,0,0,0-.585.582v18.833a.585.585,0,0,0,.582.585h6.758a.585.585,0,1,0,.052-1.168h-.052Zm5.958-13.169H970.03v-3.669Z" transform="translate(-899.393 -2466.162)" fill="#4a81fd"/>
      <g id="Group_4394" data-name="Group 4394" transform="translate(70.02 714.183)">
        <path id="Path_986" data-name="Path 986" d="M973.791,3180.545l2.455,2.455-5.33,5.331-2.188.241a.46.46,0,0,1-.508-.408.436.436,0,0,1,0-.1l.243-2.191Z" transform="translate(-968.216 -3178.757)" fill="#4a81fd"/>
        <path id="Path_987" data-name="Path 987" d="M976.967,3180.417a.921.921,0,0,1,0,1.3h0l-1.085,1.084-2.455-2.455,1.085-1.084a.92.92,0,0,1,1.3,0h0Z" transform="translate(-967.419 -3178.994)" fill="#4a81fd"/>
      </g>
    </g>
  </g>
</svg>
