<?xml version="1.0" encoding="UTF-8"?>
<svg width="50px" height="50px" viewBox="0 0 50 50" version="1.1" xmlns="http://www.w3.org/2000/svg" xmlns:xlink="http://www.w3.org/1999/xlink">
    <!-- Generator: Sketch 53.2 (72643) - https://sketchapp.com -->
    <title>AT/ICO/FA-Eye-Slash@2x</title>
    <desc>Created with Sketch.</desc>
    <g id="AT/ICO/FA-Eye-Slash" stroke="none" stroke-width="1" fill="none" fill-rule="evenodd">
        <path d="M49.6879875,42.9290172 L1.79407176,5.21450858 C1.52499711,4.99946407 1.13257114,5.04310575 0.917316693,5.31201248 L0.137285491,6.28783151 C-0.0779396526,6.556701 -0.0346501496,6.94909939 0.23400936,7.16458658 L48.1279251,44.8790952 C48.2571922,44.9826124 48.4223059,45.0305005 48.5869003,45.0122122 C48.7514947,44.9939239 48.9020693,44.9109593 49.0054602,44.7815913 L49.7854914,43.8057722 C50.0005359,43.5366976 49.9568943,43.1442716 49.6879875,42.9290172 Z M24.9609984,12.5663027 C30.472735,12.5723212 34.9393792,17.0389654 34.9453978,22.550702 C34.9453978,24.2371295 34.4851794,25.8026521 33.7441498,27.1973479 L35.7293292,28.7574103 C36.7901716,26.925897 37.4414977,24.8237129 37.4414977,22.550702 C37.4414977,19.6778471 36.4344774,17.0663027 34.8065523,14.9586583 C39.1679993,17.1604877 42.7150553,20.6938833 44.9336973,25.0468019 C43.6078008,27.6208373 41.8153064,29.9261909 39.6474259,31.8455538 L41.6224649,33.400936 C43.8432137,31.351014 45.7464899,28.9344774 47.1552262,26.1848674 C47.5171038,25.4690329 47.5171038,24.6237908 47.1552262,23.9079563 C42.925117,15.6544462 34.550702,10.0702028 24.9609984,10.0702028 C21.4573569,10.0683451 17.9948259,10.8248757 14.8112324,12.2878315 L18.3814353,15.0959438 C20.1435257,13.5429017 22.4305772,12.5663027 24.9609984,12.5663027 Z M29.7082683,24.0195008 C30.2042544,22.5077124 29.9394851,20.8494491 28.9973963,19.5672733 C28.0553074,18.2850975 26.5519228,17.5369167 24.9609984,17.5585023 C24.8829953,17.5585023 24.8135725,17.5772231 24.7386895,17.5811232 C25.0414602,18.3919165 25.0347952,19.2858551 24.7199688,20.0920437 L29.7082683,24.0195008 Z M12.7332293,20.1848674 C12.5710486,20.9631954 12.4863916,21.7556786 12.4804992,22.550702 C12.4642147,26.8003997 14.6196732,30.7640251 18.1956701,33.0602049 C21.7716671,35.3563847 26.2727614,35.6669916 30.1302652,33.8837754 L27.8229329,32.0670827 C26.9102964,32.3424337 25.9625585,32.5351014 24.9617785,32.5351014 C19.4499152,32.5290836 14.9830474,28.0625648 14.9765991,22.550702 C14.9765991,22.3603744 15.0226209,22.1825273 15.0327613,21.9953198 L12.7332293,20.1848674 Z M24.9609984,37.5273011 C16.5865835,37.5273011 8.93369735,32.7449298 4.99219969,25.0468019 C6.35179407,22.3946958 8.19734789,20.1544462 10.3205928,18.2823713 L8.30343214,16.6934477 C6.08190328,18.7433697 4.17940718,21.1591264 2.77067083,23.9087363 C2.40879322,24.6245708 2.40879322,25.4698129 2.77067083,26.1856474 C6.99765991,34.4391576 15.3720749,40.0234009 24.9609984,40.0234009 C28.4646346,40.0252093 31.9271552,39.268681 35.1107644,37.8057722 L32.8291732,36.0117005 C30.3478939,36.9687988 27.7028081,37.5273011 24.9609984,37.5273011 Z" fill="#000000" fill-rule="nonzero"></path>
    </g>
</svg>