<?xml version="1.0" encoding="UTF-8"?>
<svg width="50px" height="50px" viewBox="0 0 50 50" version="1.1" xmlns="http://www.w3.org/2000/svg" xmlns:xlink="http://www.w3.org/1999/xlink">
    <!-- Generator: Sketch 53.2 (72643) - https://sketchapp.com -->
    <title>AT/ICO/FA-Info-circle@2x</title>
    <desc>Created with Sketch.</desc>
    <g id="AT/ICO/FA-Info-circle" stroke="none" stroke-width="1" fill="none" fill-rule="evenodd">
        <path d="M25,3.22580645 C36.9577621,3.22580645 46.7741935,12.9107863 46.7741935,25 C46.7741935,37.0253024 37.0352823,46.7741935 25,46.7741935 C12.9794355,46.7741935 3.22580645,37.040121 3.22580645,25 C3.22580645,12.9835685 12.9639113,3.22580645 25,3.22580645 L25,3.22580645 Z M25,0 C11.1938508,0 0,11.1978831 0,25 C0,38.8101815 11.1938508,50 25,50 C38.8061492,50 50,38.8101815 50,25 C50,11.1978831 38.8061492,0 25,0 Z M21.3709677,34.6774194 L22.5806452,34.6774194 L22.5806452,22.5806452 L21.3709677,22.5806452 C20.7029234,22.5806452 20.1612903,22.0390121 20.1612903,21.3709677 L20.1612903,20.5645161 C20.1612903,19.8964718 20.7029234,19.3548387 21.3709677,19.3548387 L26.2096774,19.3548387 C26.8777218,19.3548387 27.4193548,19.8964718 27.4193548,20.5645161 L27.4193548,34.6774194 L28.6290323,34.6774194 C29.2970766,34.6774194 29.8387097,35.2190524 29.8387097,35.8870968 L29.8387097,36.6935484 C29.8387097,37.3615927 29.2970766,37.9032258 28.6290323,37.9032258 L21.3709677,37.9032258 C20.7029234,37.9032258 20.1612903,37.3615927 20.1612903,36.6935484 L20.1612903,35.8870968 C20.1612903,35.2190524 20.7029234,34.6774194 21.3709677,34.6774194 Z M25,10.483871 C23.2184476,10.483871 21.7741935,11.928125 21.7741935,13.7096774 C21.7741935,15.4912298 23.2184476,16.9354839 25,16.9354839 C26.7815524,16.9354839 28.2258065,15.4912298 28.2258065,13.7096774 C28.2258065,11.928125 26.7815524,10.483871 25,10.483871 Z" fill="#4A81FD" fill-rule="nonzero"></path>
    </g>
</svg>