<?xml version="1.0" encoding="UTF-8"?>
<svg width="50px" height="50px" viewBox="0 0 50 50" version="1.1" xmlns="http://www.w3.org/2000/svg" xmlns:xlink="http://www.w3.org/1999/xlink">
    <!-- Generator: Sketch 53.2 (72643) - https://sketchapp.com -->
    <title>AT/ICO/FA-keyboard@2x</title>
    <desc>Created with Sketch.</desc>
    <g id="AT/ICO/FA-keyboard" stroke="none" stroke-width="1" fill="none" fill-rule="evenodd">
        <path d="M45.8333333,8 L4.16666667,8 C1.86545139,8 0,9.86545139 0,12.1666667 L0,37.1666667 C0,39.4678819 1.86545139,41.3333333 4.16666667,41.3333333 L45.8333333,41.3333333 C48.1345486,41.3333333 50,39.4678819 50,37.1666667 L50,12.1666667 C50,9.86545139 48.1345486,8 45.8333333,8 Z M47.2222222,37.1666667 C47.2222222,37.9325521 46.5992187,38.5555556 45.8333333,38.5555556 L4.16666667,38.5555556 C3.40078125,38.5555556 2.77777778,37.9325521 2.77777778,37.1666667 L2.77777778,12.1666667 C2.77777778,11.4007812 3.40078125,10.7777778 4.16666667,10.7777778 L45.8333333,10.7777778 C46.5992187,10.7777778 47.2222222,11.4007812 47.2222222,12.1666667 L47.2222222,37.1666667 Z M14.5833333,25.7083333 L14.5833333,23.625 C14.5833333,23.0497396 14.1169271,22.5833333 13.5416667,22.5833333 L11.4583333,22.5833333 C10.8830729,22.5833333 10.4166667,23.0497396 10.4166667,23.625 L10.4166667,25.7083333 C10.4166667,26.2835937 10.8830729,26.75 11.4583333,26.75 L13.5416667,26.75 C14.1169271,26.75 14.5833333,26.2835937 14.5833333,25.7083333 Z M22.9166667,25.7083333 L22.9166667,23.625 C22.9166667,23.0497396 22.4502604,22.5833333 21.875,22.5833333 L19.7916667,22.5833333 C19.2164062,22.5833333 18.75,23.0497396 18.75,23.625 L18.75,25.7083333 C18.75,26.2835937 19.2164062,26.75 19.7916667,26.75 L21.875,26.75 C22.4502604,26.75 22.9166667,26.2835937 22.9166667,25.7083333 Z M31.25,25.7083333 L31.25,23.625 C31.25,23.0497396 30.7835937,22.5833333 30.2083333,22.5833333 L28.125,22.5833333 C27.5497396,22.5833333 27.0833333,23.0497396 27.0833333,23.625 L27.0833333,25.7083333 C27.0833333,26.2835937 27.5497396,26.75 28.125,26.75 L30.2083333,26.75 C30.7835937,26.75 31.25,26.2835937 31.25,25.7083333 Z M39.5833333,25.7083333 L39.5833333,23.625 C39.5833333,23.0497396 39.1169271,22.5833333 38.5416667,22.5833333 L36.4583333,22.5833333 C35.8830729,22.5833333 35.4166667,23.0497396 35.4166667,23.625 L35.4166667,25.7083333 C35.4166667,26.2835937 35.8830729,26.75 36.4583333,26.75 L38.5416667,26.75 C39.1169271,26.75 39.5833333,26.2835937 39.5833333,25.7083333 Z M10.4166667,32.6527778 L10.4166667,30.5694444 C10.4166667,29.994184 9.95026042,29.5277778 9.375,29.5277778 L7.29166667,29.5277778 C6.71640625,29.5277778 6.25,29.994184 6.25,30.5694444 L6.25,32.6527778 C6.25,33.2280382 6.71640625,33.6944444 7.29166667,33.6944444 L9.375,33.6944444 C9.95026042,33.6944444 10.4166667,33.2280382 10.4166667,32.6527778 Z M43.75,32.6527778 L43.75,30.5694444 C43.75,29.994184 43.2835938,29.5277778 42.7083333,29.5277778 L40.625,29.5277778 C40.0497396,29.5277778 39.5833333,29.994184 39.5833333,30.5694444 L39.5833333,32.6527778 C39.5833333,33.2280382 40.0497396,33.6944444 40.625,33.6944444 L42.7083333,33.6944444 C43.2835938,33.6944444 43.75,33.2280382 43.75,32.6527778 Z M10.4166667,18.7638889 L10.4166667,16.6805556 C10.4166667,16.1052951 9.95026042,15.6388889 9.375,15.6388889 L7.29166667,15.6388889 C6.71640625,15.6388889 6.25,16.1052951 6.25,16.6805556 L6.25,18.7638889 C6.25,19.3391493 6.71640625,19.8055556 7.29166667,19.8055556 L9.375,19.8055556 C9.95026042,19.8055556 10.4166667,19.3391493 10.4166667,18.7638889 Z M18.75,18.7638889 L18.75,16.6805556 C18.75,16.1052951 18.2835937,15.6388889 17.7083333,15.6388889 L15.625,15.6388889 C15.0497396,15.6388889 14.5833333,16.1052951 14.5833333,16.6805556 L14.5833333,18.7638889 C14.5833333,19.3391493 15.0497396,19.8055556 15.625,19.8055556 L17.7083333,19.8055556 C18.2835937,19.8055556 18.75,19.3391493 18.75,18.7638889 Z M27.0833333,18.7638889 L27.0833333,16.6805556 C27.0833333,16.1052951 26.6169271,15.6388889 26.0416667,15.6388889 L23.9583333,15.6388889 C23.3830729,15.6388889 22.9166667,16.1052951 22.9166667,16.6805556 L22.9166667,18.7638889 C22.9166667,19.3391493 23.3830729,19.8055556 23.9583333,19.8055556 L26.0416667,19.8055556 C26.6169271,19.8055556 27.0833333,19.3391493 27.0833333,18.7638889 Z M35.4166667,18.7638889 L35.4166667,16.6805556 C35.4166667,16.1052951 34.9502604,15.6388889 34.375,15.6388889 L32.2916667,15.6388889 C31.7164062,15.6388889 31.25,16.1052951 31.25,16.6805556 L31.25,18.7638889 C31.25,19.3391493 31.7164062,19.8055556 32.2916667,19.8055556 L34.375,19.8055556 C34.9502604,19.8055556 35.4166667,19.3391493 35.4166667,18.7638889 Z M43.75,18.7638889 L43.75,16.6805556 C43.75,16.1052951 43.2835938,15.6388889 42.7083333,15.6388889 L40.625,15.6388889 C40.0497396,15.6388889 39.5833333,16.1052951 39.5833333,16.6805556 L39.5833333,18.7638889 C39.5833333,19.3391493 40.0497396,19.8055556 40.625,19.8055556 L42.7083333,19.8055556 C43.2835938,19.8055556 43.75,19.3391493 43.75,18.7638889 Z M35.4166667,31.9583333 L35.4166667,31.2638889 C35.4166667,30.6886285 34.9502604,30.2222222 34.375,30.2222222 L15.625,30.2222222 C15.0497396,30.2222222 14.5833333,30.6886285 14.5833333,31.2638889 L14.5833333,31.9583333 C14.5833333,32.5335938 15.0497396,33 15.625,33 L34.375,33 C34.9502604,33 35.4166667,32.5335938 35.4166667,31.9583333 Z" fill="#4A81FD" fill-rule="nonzero"></path>
    </g>
</svg>