<svg id="图层_1" data-name="图层 1" xmlns="http://www.w3.org/2000/svg" viewBox="0 0 50 50"><title>Quick settings</title><g id="AT_ICO_FA-Microphone" data-name="AT/ICO/FA-Microphone"><path d="M25,32.5A7.5,7.5,0,0,0,32.5,25V12.5a7.5,7.5,0,0,0-15,0V25A7.5,7.5,0,0,0,25,32.5Zm-5-20a5,5,0,0,1,10,0V25a5,5,0,0,1-10,0ZM36.88,20H35.63a.63.63,0,0,0-.63.62V25A10,10,0,0,1,24.32,35,10.24,10.24,0,0,1,15,24.65v-4a.62.62,0,0,0-.62-.62H13.13a.63.63,0,0,0-.63.62v3.94A12.8,12.8,0,0,0,23.75,37.4v5.1H18.12a.62.62,0,0,0-.62.62v1.25a.63.63,0,0,0,.62.63H31.88a.63.63,0,0,0,.62-.63V43.12a.62.62,0,0,0-.62-.62H26.25V37.42A12.5,12.5,0,0,0,37.5,25V20.62A.62.62,0,0,0,36.88,20Z"/></g></svg>