<?xml version="1.0" encoding="UTF-8"?>
<svg width="50px" height="50px" viewBox="0 0 50 50" version="1.1" xmlns="http://www.w3.org/2000/svg" xmlns:xlink="http://www.w3.org/1999/xlink">
    <!-- Generator: Sketch 53.2 (72643) - https://sketchapp.com -->
    <title>AT/ICO/FA-Microphone - slash@2x</title>
    <desc>Created with Sketch.</desc>
    <g id="AT/ICO/FA-Microphone---slash" stroke="none" stroke-width="1" fill="none" fill-rule="evenodd">
        <path d="M20.598629,13.3128351 C20.598629,10.6239963 22.7960442,8.43788664 25.4987884,8.43788664 C28.2015326,8.43788664 30.3989478,10.6239963 30.3989478,13.3128351 L30.3989478,24.6851758 L32.749493,26.5208985 C32.795432,26.1857458 32.8490275,25.8505931 32.8490275,25.5002062 L32.8490275,13.3128351 C32.8490275,9.2757684 29.5567329,6.00041241 25.4987884,6.00041241 C21.4408439,6.00041241 18.1485493,9.2757684 18.1485493,13.3128351 L18.1485493,15.087621 L20.598629,17.007132 L20.598629,13.3128351 Z M37.7491869,25.5002062 L37.7491869,21.2346263 C37.7491869,20.8994736 37.473553,20.6252578 37.136667,20.6252578 L35.9116271,20.6252578 C35.5747412,20.6252578 35.2991072,20.8994736 35.2991072,21.2346263 L35.2991072,25.5002062 C35.2991072,26.4371104 35.1230077,27.3283119 34.8703433,28.189045 L36.937598,29.8114887 C37.45824,28.4708779 37.7491869,27.0236276 37.7491869,25.5002062 Z M32.2365076,42.5625258 L26.7238282,42.5625258 L26.7238282,37.6114063 C28.806396,37.4057444 30.7128643,36.6440337 32.3590116,35.5319361 L30.3376958,33.9475778 C28.729831,34.8616306 26.8463322,35.3643597 24.832673,35.2272518 C19.6262536,34.884482 15.6984696,30.3446862 15.6984696,25.1574364 L15.6984696,22.4762147 L13.5163673,20.7623657 C13.3632373,20.8766223 13.2483898,21.0289644 13.2483898,21.2270092 L13.2483898,25.058414 C13.2483898,31.4110812 17.9724498,36.948718 24.2737485,37.5809378 L24.2737485,42.5625258 L18.7610692,42.5625258 C18.4241832,42.5625258 18.1485493,42.8367416 18.1485493,43.1718943 L18.1485493,44.3906314 C18.1485493,44.7257841 18.4241832,45 18.7610692,45 L32.2365076,45 C32.5733935,45 32.8490275,44.7257841 32.8490275,44.3906314 L32.8490275,43.1718943 C32.8490275,42.8367416 32.5733935,42.5625258 32.2365076,42.5625258 L32.2365076,42.5625258 Z M25.4987884,32.8126289 C26.4635073,32.8126289 27.3746307,32.6145841 28.2168456,32.2794314 L25.7514529,30.3446862 C25.6672314,30.3523033 25.5906664,30.3675375 25.4987884,30.3675375 C23.1023042,30.3675375 21.1116144,28.6460714 20.690507,26.3761735 L18.1485493,24.3957257 L18.1485493,25.5002062 C18.1485493,29.5372729 21.4408439,32.8126289 25.4987884,32.8126289 Z M49.7698905,42.9586153 L2.7589861,6.13752034 C2.49866513,5.92424134 2.10818368,5.96232688 1.9014582,6.22892562 L1.13580829,7.18106399 C0.92142632,7.44766273 0.967365314,7.82851808 1.22768628,8.03417997 L48.2385907,44.8628921 C48.4989116,45.0761711 48.8893931,45.0304684 49.0961186,44.7714868 L49.8617685,43.8193484 C50.0761504,43.5527497 50.037868,43.1718943 49.7698905,42.9586153 Z" id="Shape" fill="#000000" fill-rule="nonzero"></path>
    </g>
</svg>