<?xml version="1.0" encoding="UTF-8"?>
<svg width="50px" height="50px" viewBox="0 0 50 50" version="1.1" xmlns="http://www.w3.org/2000/svg" xmlns:xlink="http://www.w3.org/1999/xlink">
    <!-- Generator: Sketch 53.2 (72643) - https://sketchapp.com -->
    <title>AT/ICO/FA-Microphone@2x</title>
    <desc>Created with Sketch.</desc>
    <g id="AT/ICO/FA-Microphone" stroke="none" stroke-width="1" fill="none" fill-rule="evenodd">
        <path d="M25.5,32.5 C29.6421875,32.5 33,29.1421875 33,25 L33,12.5 C33,8.3578125 29.6421875,5 25.5,5 C21.3578125,5 18,8.3578125 18,12.5 L18,25 C18,29.1421875 21.3578125,32.5 25.5,32.5 Z M20.5,12.5 C20.5,9.74296875 22.7429688,7.5 25.5,7.5 C28.2570312,7.5 30.5,9.74296875 30.5,12.5 L30.5,25 C30.5,27.7570313 28.2570312,30 25.5,30 C22.7429688,30 20.5,27.7570313 20.5,25 L20.5,12.5 Z M37.375,20 L36.125,20 C35.7796875,20 35.5,20.2796875 35.5,20.625 L35.5,25 C35.5,30.7390625 30.640625,35.365625 24.8179687,34.9773438 C19.5078125,34.6234375 15.5,29.9695313 15.5,24.6476563 L15.5,20.625 C15.5,20.2796875 15.2203125,20 14.875,20 L13.625,20 C13.2796875,20 13,20.2796875 13,20.625 L13,24.5578125 C13,31.0726563 17.8164062,36.7546875 24.25,37.4039062 L24.25,42.5 L18.625,42.5 C18.2796875,42.5 18,42.7796875 18,43.125 L18,44.375 C18,44.7203125 18.2796875,45 18.625,45 L32.375,45 C32.7203125,45 33,44.7203125 33,44.375 L33,43.125 C33,42.7796875 32.7203125,42.5 32.375,42.5 L26.75,42.5 L26.75,37.4210937 C33.0554688,36.7890625 38,31.46875 38,25 L38,20.625 C38,20.2796875 37.7203125,20 37.375,20 Z" fill="#000000" fill-rule="nonzero"></path>
    </g>
</svg>