<?xml version="1.0" encoding="UTF-8"?>
<svg width="50px" height="50px" viewBox="0 0 50 50" version="1.1" xmlns="http://www.w3.org/2000/svg" xmlns:xlink="http://www.w3.org/1999/xlink">
    <!-- Generator: Sketch 53.2 (72643) - https://sketchapp.com -->
    <title>AT/ICO/FA-Plane@2x</title>
    <desc>Created with Sketch.</desc>
    <g id="AT/ICO/FA-Plane" stroke="none" stroke-width="1" fill="none" fill-rule="evenodd">
        <path d="M41.6666667,19.6666667 L31.7456597,19.6666667 L22.6223958,3.69965278 C22.3747639,3.26693532 21.9143625,2.99996873 21.4157986,3 L13.7456597,3 C12.8229167,3 12.1571181,3.8828125 12.4105903,4.76996528 L16.6666667,19.6666667 L11.1111111,19.6666667 L7.36111111,14.6666667 C7.09895833,14.3168403 6.68663194,14.1111111 6.25,14.1111111 L1.38975694,14.1111111 C0.486111111,14.1111111 -0.177083333,14.9600694 0.0425347222,15.8368056 L2.77777778,25.2222222 L0.0425347222,34.6076389 C-0.177083333,35.484375 0.486111111,36.3333333 1.38975694,36.3333333 L6.25,36.3333333 C6.6875,36.3333333 7.09895833,36.1276042 7.36111111,35.7777778 L11.1111111,30.7777778 L16.6666667,30.7777778 L12.4105903,45.6736111 C12.1571181,46.5607639 12.8229167,47.4444444 13.7456597,47.4444444 L21.4157986,47.4444444 C21.9140625,47.4444444 22.3741319,47.1770833 22.6215278,46.7447917 L31.7456597,30.7777778 L41.6666667,30.7777778 C44.7352431,30.7777778 50,28.2907986 50,25.2222222 C50,22.1536458 44.7352431,19.6666667 41.6666667,19.6666667 Z M41.6666667,28 L30.1336806,28 L20.6102431,44.6666667 L15.5876736,44.6666667 L20.3498264,28 L9.72222222,28 L5.55555556,33.5555556 L3.2421875,33.5555556 L5.67100694,25.2222222 L3.24045139,16.8888889 L5.55555556,16.8888889 L9.72222222,22.4444444 L20.3489583,22.4444444 L15.5876736,5.77777778 L20.6111111,5.77777778 L30.1345486,22.4444444 L41.6666667,22.4444444 C43.9444444,22.4444444 47.1015625,24.3324653 47.2222222,25.2144097 C47.1015625,26.1119792 43.9444444,28 41.6666667,28 Z" fill="#4A81FD" fill-rule="nonzero"></path>
    </g>
</svg>