<?xml version="1.0" encoding="UTF-8"?>
<svg width="50px" height="50px" viewBox="0 0 50 50" version="1.1" xmlns="http://www.w3.org/2000/svg" xmlns:xlink="http://www.w3.org/1999/xlink">
    <!-- Generator: Sketch 53.2 (72643) - https://sketchapp.com -->
    <title>AT/ICO/FA-Settings@2x</title>
    <desc>Created with Sketch.</desc>
    <g id="AT/ICO/FA-Settings" stroke="none" stroke-width="1" fill="none" fill-rule="evenodd">
        <path d="M47.9451613,29.3625 L44.6578629,27.4646169 C44.8645163,25.828003 44.8645163,24.1718961 44.6578629,22.5352823 L47.9451613,20.6373992 C48.9104839,20.0801411 49.3761089,18.9335685 49.0586694,17.865121 C47.9282258,14.0597782 45.9160282,10.6344758 43.2587702,7.82530242 C42.4892137,7.01179435 41.2610887,6.83377016 40.2913306,7.39364919 L37.008871,9.28860887 C35.6959107,8.28939006 34.2618515,7.4602309 32.7408266,6.82086694 L32.7408266,3.02913306 C32.7408266,1.90715726 31.9694556,0.931955645 30.8775202,0.67358871 C27.0827621,-0.224495968 23.1035282,-0.224596774 19.3079637,0.67358871 C18.216129,0.931955645 17.4446573,1.90705645 17.4446573,3.02913306 L17.4446573,6.82086694 C15.9236208,7.46020766 14.4895588,8.28936846 13.1766129,9.28860887 L9.89415323,7.39364919 C8.92429435,6.83377016 7.69616935,7.01179435 6.92671371,7.82530242 C4.26945565,10.6344758 2.25725806,14.059879 1.12681452,17.865121 C0.809375,18.9335685 1.275,20.0800403 2.24032258,20.6373992 L5.52762097,22.5352823 C5.32096762,24.1718961 5.32096762,25.828003 5.52762097,27.4646169 L2.24032258,29.3625 C1.275,29.9197581 0.809375,31.0663306 1.12681452,32.1347782 C2.25725806,35.9400202 4.26945565,39.3654234 6.92671371,42.1745968 C7.69627016,42.9881048 8.92439516,43.166129 9.89415323,42.6063508 L13.1766129,40.7113911 C14.4895516,41.7106152 15.9236159,42.5397434 17.4446573,43.1790323 L17.4446573,46.9707661 C17.4446573,48.0927419 18.2160282,49.0679435 19.3079637,49.3263105 C23.1028226,50.2243952 27.0819556,50.224496 30.8775202,49.3263105 C31.9693548,49.0679435 32.7408266,48.0928427 32.7408266,46.9707661 L32.7408266,43.1790323 C34.26184,42.5396872 35.6958975,41.710563 37.008871,40.7113911 L40.2913306,42.6063508 C41.2610887,43.1662298 42.4892137,42.9882056 43.2587702,42.1745968 C45.9160282,39.3654234 47.9282258,35.9400202 49.0586694,32.1347782 C49.3761089,31.0663306 48.9104839,29.9198589 47.9451613,29.3625 L47.9451613,29.3625 Z M41.3444556,39.4896169 L36.6762097,36.7940524 C33.9556452,39.1197581 32.9908266,39.7049395 29.5150202,40.9330645 L29.5150202,46.3240927 C26.597547,46.9259084 23.5879369,46.9259084 20.6704637,46.3240927 L20.6704637,40.9330645 C17.28125,39.7355847 16.3,39.1795363 13.5092742,36.7940524 L8.84102823,39.4896169 C6.85413306,37.2628024 5.34415323,34.6520161 4.41270161,31.8325605 L9.08296371,29.136996 C8.42419355,25.5667339 8.42389113,24.4349798 9.08296371,20.8629032 L4.41270161,18.1673387 C5.34415323,15.3478831 6.85423387,12.736996 8.84102823,10.5091734 L13.5092742,13.206754 C16.2690524,10.8444556 17.2454637,10.2768145 20.6704637,9.06673387 L20.6704637,3.67580645 C23.5878341,3.07298448 26.5976498,3.07298448 29.5150202,3.67580645 L29.5150202,9.06683468 C32.9402218,10.2770161 33.9167339,10.8447581 36.6762097,13.2068548 L41.3444556,10.5092742 C43.33125,12.736996 44.8413306,15.3478831 45.7727823,18.1674395 L41.1025202,20.863004 C41.7613911,24.4341734 41.7615927,25.5650202 41.1025202,29.1370968 L45.7727823,31.8326613 C44.8413306,34.6520161 43.3313508,37.2629032 41.3444556,39.4896169 Z M25.0927419,15.3225806 C19.7565524,15.3225806 15.4153226,19.6638105 15.4153226,25 C15.4153226,30.3361895 19.7565524,34.6774194 25.0927419,34.6774194 C30.4289315,34.6774194 34.7701613,30.3361895 34.7701613,25 C34.7701613,19.6638105 30.4289315,15.3225806 25.0927419,15.3225806 Z M25.0927419,31.4516129 C21.5352823,31.4516129 18.641129,28.5574597 18.641129,25 C18.641129,21.4425403 21.5352823,18.5483871 25.0927419,18.5483871 C28.6502016,18.5483871 31.5443548,21.4425403 31.5443548,25 C31.5443548,28.5574597 28.6502016,31.4516129 25.0927419,31.4516129 Z" id="Shape" fill="#4A81FD" fill-rule="nonzero"></path>
    </g>
</svg>