<?xml version="1.0" encoding="UTF-8"?>
<svg width="50px" height="50px" viewBox="0 0 50 50" version="1.1" xmlns="http://www.w3.org/2000/svg" xmlns:xlink="http://www.w3.org/1999/xlink">
    <!-- Generator: Sketch 53.2 (72643) - https://sketchapp.com -->
    <title>AT/ICO/FA-Tools@2x</title>
    <desc>Created with Sketch.</desc>
    <g id="AT/ICO/FA-Tools" stroke="none" stroke-width="1" fill="none" fill-rule="evenodd">
        <path d="M48.9863548,37.962963 L36.8615984,25.82846 C35.3411306,24.3079922 33.3430799,23.5477583 31.3450292,23.5477583 C29.8440546,23.5477583 28.3430799,23.9766082 27.0467836,24.8440546 L18.7134503,16.5107212 L18.7134503,9.35672515 L6.23781676,0 L0,6.23781676 L9.35672515,18.7134503 L16.5107212,18.7134503 L24.8440546,27.0467836 C22.8362573,30.0779727 23.1676413,34.1910331 25.8382066,36.8615984 L37.9727096,48.9961014 C38.5769981,49.6003899 39.3762183,49.9122807 40.1754386,49.9122807 C40.9746589,49.9122807 41.7738791,49.6101365 42.3781676,48.9961014 L48.9961014,42.3781676 C50.2046784,41.1500975 50.2046784,39.1812865 48.9863548,37.962963 Z M15.5945419,15.4093567 L15.5945419,15.5945419 L10.9161793,15.5945419 L4.12280702,6.53021442 L6.53021442,4.12280702 L15.5945419,10.9161793 L15.5945419,15.4093567 Z M40.165692,46.7836257 L28.0409357,34.6491228 C27.1539961,33.7621832 26.6666667,32.5925926 26.6666667,31.3450292 C26.6666667,30.0974659 27.1539961,28.9181287 28.0409357,28.0409357 C28.9278752,27.1539961 30.0974659,26.6666667 31.3450292,26.6666667 C32.5925926,26.6666667 33.7719298,27.1539961 34.6491228,28.0409357 L46.7836257,40.165692 L40.165692,46.7836257 Z M6.23781676,42.1052632 C6.23781676,42.962963 6.93957115,43.6647173 7.79727096,43.6647173 C8.65497076,43.6647173 9.35672515,42.962963 9.35672515,42.1052632 C9.35672515,41.2475634 8.65497076,40.545809 7.79727096,40.545809 C6.93957115,40.545809 6.23781676,41.2475634 6.23781676,42.1052632 Z M26.9785575,6.52046784 C29.1910331,4.3079922 32.1052632,3.11890838 35.1461988,3.11890838 C35.8187135,3.11890838 36.4912281,3.17738791 37.1637427,3.29434698 L30.4093567,10.0584795 L31.754386,18.1481481 L39.8538012,19.4931774 L46.6081871,12.7387914 C47.2612086,16.4619883 46.0916179,20.2241715 43.3820663,22.9239766 C42.5146199,23.791423 41.5204678,24.4834308 40.4580897,25.0194932 L42.7582846,27.3196881 C43.7719298,26.7153996 44.7270955,25.994152 45.5847953,25.1267057 C49.2690058,21.4424951 50.7212476,16.2183236 49.454191,11.1598441 C49.2300195,10.2339181 48.5087719,9.50292398 47.5925926,9.24951267 C46.6666667,8.99610136 45.6725146,9.24951267 44.9902534,9.93177388 L38.7621832,16.1598441 L34.454191,15.4385965 L33.7329435,11.1306043 L39.9610136,4.90253411 C40.6335283,4.23001949 40.8966862,3.23586745 40.6432749,2.31968811 C40.3898635,1.39376218 39.6491228,0.682261209 38.7231969,0.44834308 C33.6842105,-0.808966862 28.460039,0.633528265 24.7660819,4.31773879 C23.5087719,5.57504873 22.5341131,7.03703704 21.8323587,8.60623782 L21.8323587,15.214425 L23.9863548,17.3684211 C23.0506823,13.4307992 24.1423002,9.35672515 26.9785575,6.52046784 Z M10.4288499,45.5263158 C8.81091618,47.1442495 5.98440546,47.1442495 4.36647173,45.5263158 C2.69980507,43.8596491 2.69980507,41.1306043 4.36647173,39.4639376 L18.6062378,25.2241715 L16.4035088,23.0214425 L2.16374269,37.2612086 C-0.721247563,40.1461988 -0.721247563,44.8440546 2.16374269,47.7387914 C3.55750487,49.1325536 5.41910331,49.9025341 7.39766082,49.9025341 C9.37621832,49.9025341 11.2378168,49.1325536 12.6315789,47.7290448 L22.5536062,37.8167641 C21.9005848,36.920078 21.4035088,35.9356725 21.042885,34.9122807 L10.4288499,45.5263158 Z" fill="#4A81FD" fill-rule="nonzero"></path>
    </g>
</svg>