<?xml version="1.0" encoding="UTF-8"?>
<svg width="50px" height="50px" viewBox="0 0 50 50" version="1.1" xmlns="http://www.w3.org/2000/svg" xmlns:xlink="http://www.w3.org/1999/xlink">
    <!-- Generator: Sketch 53.2 (72643) - https://sketchapp.com -->
    <title>AT/ICO/FA-Umbrella@2x</title>
    <desc>Created with Sketch.</desc>
    <g id="AT/ICO/FA-Umbrella" stroke="none" stroke-width="1" fill="none" fill-rule="evenodd">
        <path d="M49.9306759,24.9930676 C47.3916811,14.3344887 37.3916811,7.72270364 26.4298094,7.19410745 L26.4298094,4.3864818 C26.4298094,3.62391681 25.8058925,3 25.0433276,3 C24.2807626,3 23.6568458,3.62391681 23.6568458,4.3864818 L23.6568458,7.19410745 C12.7383016,7.71403813 2.76429809,14.2564991 0.155979203,24.9844021 C-0.363951473,27.0554593 2.13171577,28.8058925 3.97746967,27.1594454 C8.26689775,23.1646447 11.7677643,24.7590988 14.8440208,29.559792 C15.8318891,31.102253 17.8596187,31.0242634 18.7954939,29.559792 C20.1126516,27.5233969 21.4991334,25.660312 23.6655113,25.0970537 L23.6655113,41.830156 C23.6655113,43.3639515 22.4263432,44.6031196 20.8925477,44.6031196 C19.7140381,44.6031196 18.6655113,43.8578856 18.2755633,42.7573657 C18.0155979,42.0381282 17.2270364,41.6568458 16.507799,41.9081456 C15.7885615,42.1594454 15.407279,42.9566724 15.6672444,43.6759099 C16.4471404,45.8856153 18.5528596,47.3760832 20.9012132,47.3760832 C23.9601386,47.3760832 26.4471404,44.8890815 26.4471404,41.830156 L26.4471404,25.1143847 C29.0554593,25.8336222 30.3119584,28 31.3171577,29.5511265 C32.2530329,31.0242634 34.2894281,31.084922 35.2686308,29.5511265 C38.4055459,24.7071057 41.9064125,23.2253033 46.135182,27.1507799 C47.9462738,28.7885615 50.4419411,27.0641248 49.9306759,24.9930676 Z M33.3015598,27.4800693 C31.1958406,24.0398614 28.2842288,22.1507799 25.0433276,22.1507799 C21.187175,22.1507799 18.8388215,24.4904679 16.8370884,27.4800693 C13.2322357,21.6048527 7.52166378,20.7642981 3.3102253,24.0745234 C6.33448873,15.0190641 15.5805893,9.93240901 25.0433276,9.93240901 C34.5147314,9.93240901 43.847487,15.0710572 46.8110919,24.117851 C41.7590988,20.3136915 36.9237435,22.220104 33.3015598,27.4800693 Z" id="Shape" fill="#4A81FD" fill-rule="nonzero"></path>
    </g>
</svg>