<?xml version="1.0" encoding="UTF-8"?>
<svg width="50px" height="50px" viewBox="0 0 50 50" version="1.1" xmlns="http://www.w3.org/2000/svg" xmlns:xlink="http://www.w3.org/1999/xlink">
    <!-- Generator: Sketch 53.2 (72643) - https://sketchapp.com -->
    <title>AT/ICO/FA-Wheel@2x</title>
    <desc>Created with Sketch.</desc>
    <g id="AT/ICO/FA-Wheel" stroke="none" stroke-width="1" fill="none" fill-rule="evenodd">
        <path d="M25,0 C11.1928427,0 0,11.1928427 0,25 C0,38.8071573 11.1928427,50 25,50 C38.8071573,50 50,38.8071573 50,25 C50,11.1928427 38.8071573,0 25,0 Z M42.0127016,11.408871 L35.6734879,17.7480847 C34.7576281,16.4031423 33.5969585,15.2424727 32.2520161,14.3266129 L38.5912298,7.98739919 C39.8545574,8.9980555 41.0020453,10.1455434 42.0127016,11.408871 Z M25,34.6774194 C19.6638105,34.6774194 15.3225806,30.3361895 15.3225806,25 C15.3225806,19.6638105 19.6638105,15.3225806 25,15.3225806 C30.3361895,15.3225806 34.6774194,19.6638105 34.6774194,25 C34.6774194,30.3361895 30.3361895,34.6774194 25,34.6774194 Z M17.7480847,14.3265121 C16.4031423,15.2423719 15.2424727,16.4030415 14.3266129,17.7479839 L7.98739919,11.4087702 C8.9980555,10.1454426 10.1455434,8.99795469 11.408871,7.98729839 L17.7480847,14.3265121 Z M6.134375,14.1177419 L12.8016129,20.7850806 C11.8615927,23.5058468 11.8610887,26.4925403 12.8016129,29.2149194 L6.134375,35.8822581 C2.25100806,29.1569556 2.25332661,20.8390121 6.134375,14.1177419 Z M14.3265121,32.2519153 C15.2423719,33.5968577 16.4030415,34.7575273 17.7479839,35.6733871 L11.4087702,42.0126008 C10.1454663,41.001918 8.99798123,39.8544329 7.98729839,38.591129 L14.3265121,32.2519153 Z M38.591129,42.0127016 L32.2519153,35.6734879 C33.5968577,34.7576281 34.7575273,33.5969585 35.6733871,32.2520161 L42.0126008,38.5912298 C41.0019445,39.8545574 39.8544566,41.0020453 38.591129,42.0127016 Z M43.865625,35.8822581 L37.1982863,29.2149194 C38.1383065,26.4941532 38.1388105,23.5074597 37.1982863,20.7850806 L43.865625,14.1177419 C47.7489919,20.8430444 47.7466734,29.1609879 43.865625,35.8822581 Z" id="Shape" fill="#4A81FD" fill-rule="nonzero"></path>
    </g>
</svg>