<svg xmlns="http://www.w3.org/2000/svg" xmlns:xlink="http://www.w3.org/1999/xlink" width="41.292" height="44.313" viewBox="0 0 41.292 44.313">
  <defs>
    <clipPath id="clip-path">
      <rect width="41.292" height="44.313" fill="none"/>
    </clipPath>
    <clipPath id="clip-path-2">
      <rect id="矩形_1335" data-name="矩形 1335" width="41.292" height="44.313" transform="translate(417.771 48.914)" fill="none"/>
    </clipPath>
  </defs>
  <g id="Flip_to_boot" data-name="Flip to boot" clip-path="url(#clip-path)">
    <g id="组_1195" data-name="组 1195" transform="translate(-417.771 -48.914)" clip-path="url(#clip-path-2)">
      <g id="组件">
        <g id="组_1163" data-name="组 1163">
          <g id="Group-21">
            <path id="Combined-Shape" d="M450.2,83.775l.26-.217,2.176,2.6-.261.218a18.636,18.636,0,0,1-3.754,2.426l-.3.149-.584-1.2,1.834,5.472-11.757-2.376,7.944-9,1.32,3.939.064-.031A15.235,15.235,0,0,0,450.2,83.775Zm5.44-13.013a15.373,15.373,0,0,0-.745-3.582l-.107-.321,3.216-1.078.109.32a18.774,18.774,0,0,1,.907,4.374l.029.338-3.38.287ZM454,79.035l.155-.3,3.017,1.559-.155.3a18.709,18.709,0,0,1-2.508,3.7l-.222.255-2.558-2.227.222-.256A15.385,15.385,0,0,0,454,79.04Zm1.682-6.173,3.382.261-.026.338a18.561,18.561,0,0,1-.875,4.382l-.106.323-3.222-1.061.106-.322a15.245,15.245,0,0,0,.715-3.581Zm-31.79-11.523-.194.278-2.783-1.932.193-.279a18.727,18.727,0,0,1,2.967-3.344l.253-.225,2.247,2.545-.254.224A15.439,15.439,0,0,0,423.891,61.339Zm4.379-4.2-.287.181-1.812-2.864.286-.181a18.709,18.709,0,0,1,2.248-1.2l-1.4-4.161L439.071,51.3l-7.944,9-1.339-3.99a15.185,15.185,0,0,0-1.517.832Zm-8.662,4.844.146-.307,3.06,1.469-.145.306a15.272,15.272,0,0,0-1.176,3.462l-.07.333-3.32-.7.068-.331A18.717,18.717,0,0,1,419.608,61.983Zm1.556,8.06a15.175,15.175,0,0,0,.288,2.93l.065.333-3.329.656-.065-.332a18.628,18.628,0,0,1-.352-3.587c0-.29.007-.581.02-.87l.015-.339,3.389.156-.013.337C421.171,69.562,421.164,69.8,421.164,70.043Z" fill="#4a81fd"/>
          </g>
        </g>
        <g id="组_1168" data-name="组 1168">
          <path id="路径_151" data-name="路径 151" d="M438.775,73.19a1,1,0,0,1-1-1V62.914a1,1,0,0,1,2,0V72.19A1,1,0,0,1,438.775,73.19Z" fill="#4a81fd"/>
          <path id="路径_152" data-name="路径 152" d="M438.775,81.1a9.011,9.011,0,0,1-9-9,8.918,8.918,0,0,1,2.812-6.535,1,1,0,1,1,1.4,1.429l-.024.023a7,7,0,1,0,9.758.131,1,1,0,0,1,1.414-1.414A9,9,0,0,1,438.775,81.1Z" fill="#4a81fd"/>
        </g>
      </g>
    </g>
  </g>
</svg>
