<svg xmlns="http://www.w3.org/2000/svg" xmlns:xlink="http://www.w3.org/1999/xlink" width="25.452" height="25.452" viewBox="0 0 25.452 25.452">
  <defs>
    <clipPath id="clip-path">
      <rect width="25.452" height="25.452" fill="none"/>
    </clipPath>
  </defs>
  <g id="Fn_key_Ctrol_swap" data-name="Fn key Ctrol swap" clip-path="url(#clip-path)">
    <path id="路径_21" data-name="路径 21" d="M-440.413,741.631a.436.436,0,0,1,.436.436v3.286a.435.435,0,0,1-.436.435h-3.29a.435.435,0,0,1-.436-.435v-.363a.436.436,0,0,1,.436-.436h1.63a7.769,7.769,0,0,0-6.91-4.21,7.768,7.768,0,0,0-7.76,7.356.434.434,0,0,1-.435.41h-.364a.434.434,0,0,1-.435-.454,9,9,0,0,1,8.994-8.546,9,9,0,0,1,7.771,4.45v-1.495a.436.436,0,0,1,.436-.436Zm0,6.48a.435.435,0,0,1,.435.454,9,9,0,0,1-8.994,8.546,9,9,0,0,1-7.771-4.45v1.495a.435.435,0,0,1-.436.435h-.363a.436.436,0,0,1-.436-.435v-3.286a.436.436,0,0,1,.436-.436h3.29a.436.436,0,0,1,.436.436v.363a.436.436,0,0,1-.436.435h-1.63a7.775,7.775,0,0,0,6.91,4.21,7.767,7.767,0,0,0,7.76-7.356.434.434,0,0,1,.435-.41Z" transform="matrix(0.695, -0.719, 0.719, 0.695, -213.534, -829.922)" fill="#418afd"/>
  </g>
</svg>
