<svg xmlns="http://www.w3.org/2000/svg" width="14.403" height="20" viewBox="0 0 14.403 20"><defs><style>.a{fill:#4a81fd;}</style></defs><g transform="translate(-225.461 -6.83)"><path class="a" d="M225.461,8.876l5.886-.8,0,5.678-5.884.034Zm5.883,5.53.005,5.683-5.884-.809V14.368Zm.714-6.437,7.8-1.139v6.85l-7.8.062Zm7.806,6.491,0,6.818-7.8-1.1-.011-5.73Z"/><path class="a" d="M229.808,26.83h-1.135V24.784h-2.081V26.83h-1.131V21.807h1.131v2h2.081v-2h1.135Z"/><path class="a" d="M230.577,26.83V21.807h1.78q2.676,0,2.676,2.448a2.476,2.476,0,0,1-.73,1.875,2.694,2.694,0,0,1-1.946.7Zm1.132-4.1v3.185h.56a1.517,1.517,0,0,0,1.155-.442,1.675,1.675,0,0,0,.418-1.2,1.517,1.517,0,0,0-.415-1.129,1.581,1.581,0,0,0-1.165-.412Z"/><path class="a" d="M239.864,26.83h-1.3l-.782-1.292c-.058-.1-.114-.186-.168-.263a1.485,1.485,0,0,0-.163-.2.648.648,0,0,0-.171-.126.443.443,0,0,0-.2-.044h-.3V26.83H235.65V21.807h1.794q1.828,0,1.828,1.366a1.431,1.431,0,0,1-.08.485,1.359,1.359,0,0,1-.228.4,1.436,1.436,0,0,1-.356.308,1.8,1.8,0,0,1-.464.2v.014a.7.7,0,0,1,.217.114,1.56,1.56,0,0,1,.2.183,2.771,2.771,0,0,1,.187.226c.06.081.114.16.163.237Zm-3.083-4.176v1.4h.491a.813.813,0,0,0,.585-.21.7.7,0,0,0,.224-.529q0-.658-.788-.659Z"/></g></svg>