<?xml version="1.0" encoding="utf-8"?>
<!-- Generator: Adobe Illustrator 24.0.1, SVG Export Plug-In . SVG Version: 6.00 Build 0)  -->
<svg version="1.1" id="Layer_1" xmlns="http://www.w3.org/2000/svg" xmlns:xlink="http://www.w3.org/1999/xlink" x="0px" y="0px"
	 viewBox="0 0 50 50" style="enable-background:new 0 0 50 50;" xml:space="preserve">
<style type="text/css">
	.st0{fill:#FFFFFF;}
	.st1{fill:#1AEBFF;}
	.st2{fill:#FFFFFF;stroke:#000000;stroke-width:1.0014;stroke-miterlimit:10;}
	.st3{fill:none;stroke:#000000;stroke-width:1.5;stroke-miterlimit:10;}
	.st4{fill:none;stroke:#000000;stroke-width:2;stroke-miterlimit:10;}
	.st5{fill:none;stroke:#000000;stroke-miterlimit:10;}
	.st6{fill:#F02922;}
	.st7{stroke:#FFFFFF;stroke-width:1.0014;stroke-miterlimit:10;}
	.st8{fill:none;stroke:#FFFFFF;stroke-width:1.5;stroke-miterlimit:10;}
	.st9{fill:none;stroke:#FFFFFF;stroke-width:2;stroke-miterlimit:10;}
	.st10{fill:none;stroke:#FFFFFF;stroke-miterlimit:10;}
	.st11{fill:none;}
	.st12{fill:#34495E;}
	.st13{fill:none;stroke:#000000;stroke-linecap:round;stroke-miterlimit:10;}
	.st14{fill-rule:evenodd;clip-rule:evenodd;fill:#4A81FD;}
	.st15{fill:#4A81FD;}
	.st16{fill:none;stroke:#4A81FD;stroke-miterlimit:10;}
	.st17{clip-path:url(#SVGID_2_);}
	.st18{clip-path:url(#SVGID_4_);}
	.st19{fill:#37006E;}
	.st20{fill:#E9EFF2;}
	.st21{stroke:#1AEBFF;stroke-miterlimit:10;}
	.st22{fill:none;stroke:#1AEBFF;stroke-linecap:round;stroke-linejoin:round;stroke-miterlimit:10;}
	.st23{fill:#FFFFFF;stroke:#37006E;stroke-miterlimit:10;}
	.st24{fill:none;stroke:#37006E;stroke-linecap:round;stroke-linejoin:round;stroke-miterlimit:10;}
	.st25{fill:#FFFFFF;stroke:#000000;stroke-miterlimit:10;}
	.st26{fill:none;stroke:#000000;stroke-linecap:round;stroke-linejoin:round;stroke-miterlimit:10;}
	.st27{stroke:#000000;stroke-width:0;stroke-linecap:round;stroke-linejoin:round;}
	.st28{stroke:#000000;stroke-miterlimit:10;}
	.st29{fill:none;stroke:#000000;stroke-linecap:round;stroke-linejoin:round;}
	.st30{clip-path:url(#SVGID_6_);}
	.st31{clip-path:url(#SVGID_8_);}
	.st32{fill:none;stroke:#4A81FD;stroke-width:2;stroke-linecap:round;stroke-linejoin:round;stroke-miterlimit:10;}
	.st33{fill:none;stroke:#000000;stroke-width:2;stroke-linecap:round;stroke-miterlimit:10;}
	.st34{fill:none;stroke:#000000;stroke-width:2;stroke-linecap:round;stroke-linejoin:round;stroke-miterlimit:10;}
	.st35{clip-path:url(#SVGID_10_);}
	.st36{clip-path:url(#SVGID_10_);fill:none;}
	.st37{clip-path:url(#SVGID_12_);}
	.st38{clip-path:url(#SVGID_14_);}
	.st39{clip-path:url(#SVGID_16_);}
	.st40{fill-rule:evenodd;clip-rule:evenodd;}
	.st41{fill:none;stroke:#000000;stroke-width:2;stroke-linecap:square;stroke-miterlimit:10;}
	.st42{clip-path:url(#SVGID_18_);}
	.st43{clip-path:url(#SVGID_18_);fill:none;}
	.st44{clip-path:url(#SVGID_20_);}
	.st45{clip-path:url(#SVGID_20_);fill:none;}
	.st46{clip-path:url(#SVGID_22_);}
	.st47{clip-path:url(#SVGID_24_);}
	.st48{clip-path:url(#SVGID_26_);}
	.st49{clip-path:url(#SVGID_28_);}
	.st50{clip-path:url(#SVGID_30_);}
	.st51{clip-path:url(#SVGID_30_);fill:none;}
	.st52{clip-path:url(#SVGID_32_);}
	.st53{fill:#FFFFFF;stroke:#FFFFFF;stroke-width:3;stroke-miterlimit:10;}
	.st54{fill:#FFFFFF;stroke:#4A81FD;stroke-miterlimit:10;}
	.st55{clip-path:url(#SVGID_34_);}
	.st56{fill:none;stroke:#000000;stroke-width:0;stroke-linecap:round;stroke-linejoin:round;}
	.st57{fill:#323231;}
	.st58{fill:none;stroke:#000000;stroke-width:2;stroke-linejoin:round;stroke-miterlimit:10;}
	.st59{fill:none;stroke:#000000;stroke-width:1.6;stroke-linecap:round;stroke-miterlimit:10;}
	.st60{clip-path:url(#XMLID_164_);fill:#323231;}
	.st61{fill:none;stroke:#231815;stroke-width:2;stroke-miterlimit:10;}
	.st62{clip-path:url(#XMLID_165_);}
	.st63{fill:none;stroke:#000000;stroke-width:0.25;stroke-miterlimit:10;}
</style>
<path d="M25,36.31c0.71,0,1.17-0.52,1.17-1.31v-1.27c0.09,0.07,0.17,0.15,0.27,0.24c0.24,0.27,0.55,0.41,0.86,0.38
	c0.27-0.03,0.53-0.18,0.77-0.45c0.48-0.54,0.45-1.25-0.09-1.86c-0.49-0.51-1.1-0.9-1.82-1.18v-3.59l2.79,1.76
	c-0.11,0.69-0.1,1.51,0.06,2.46c0.09,0.41,0.27,0.7,0.53,0.87c0.17,0.11,0.46,0.22,0.82,0.1c0.38-0.09,0.66-0.3,0.83-0.6
	c0.11-0.2,0.22-0.54,0.11-1.01c-0.03-0.13-0.05-0.25-0.06-0.38l1.04,0.69c0.35,0.2,0.68,0.24,0.98,0.11
	c0.19-0.08,0.46-0.26,0.61-0.66c0.18-0.4,0.21-0.77,0.1-1.1c-0.07-0.21-0.23-0.5-0.59-0.68l-0.98-0.61
	c0.11-0.06,0.23-0.12,0.35-0.18c0.64-0.21,0.95-0.84,0.77-1.63c-0.18-0.72-0.74-1.06-1.48-0.85c-0.71,0.27-1.36,0.67-1.91,1.19
	L27.36,25l2.77-1.75c0.51,0.49,1.16,0.89,1.97,1.2c0.69,0.19,1.25-0.15,1.44-0.89c0.17-0.77-0.13-1.4-0.72-1.59
	c-0.14-0.06-0.27-0.13-0.4-0.2l0.94-0.59c0.39-0.19,0.55-0.48,0.62-0.7c0.11-0.33,0.07-0.71-0.09-1.06
	c-0.16-0.43-0.43-0.62-0.62-0.7c-0.3-0.12-0.63-0.08-1,0.13l-1.06,0.66c0-0.13,0.01-0.25,0.03-0.36c0.11-0.48,0-0.83-0.11-1.03
	c-0.11-0.2-0.33-0.47-0.76-0.59c-0.43-0.12-0.73,0-0.91,0.12s-0.42,0.37-0.53,0.91c-0.12,0.8-0.11,1.6,0.03,2.4l-2.8,1.77v-3.58
	c0.72-0.28,1.33-0.68,1.84-1.2c0.52-0.58,0.54-1.3,0.07-1.84c-0.24-0.27-0.5-0.42-0.77-0.45c-0.31-0.03-0.61,0.1-0.81,0.33
	c-0.11,0.11-0.22,0.2-0.31,0.27v-1.26c0-0.8-0.46-1.31-1.17-1.31c-0.71,0-1.17,0.52-1.17,1.31v1.27c-0.09-0.07-0.17-0.15-0.27-0.24
	c-0.31-0.35-0.64-0.4-0.86-0.38c-0.27,0.03-0.53,0.18-0.77,0.45c-0.34,0.38-0.39,0.74-0.38,0.99c0.01,0.23,0.09,0.58,0.42,0.89
	c0.52,0.5,1.15,0.89,1.86,1.16v3.59l-2.86-1.78c0.14-0.8,0.14-1.61,0.02-2.45c-0.09-0.41-0.27-0.7-0.53-0.87
	c-0.17-0.11-0.46-0.22-0.82-0.1c-0.38,0.1-0.66,0.3-0.83,0.61c-0.11,0.2-0.22,0.54-0.11,1.01c0.02,0.11,0.04,0.22,0.06,0.33
	l-1.04-0.64c-0.35-0.2-0.68-0.24-0.98-0.11c-0.19,0.08-0.46,0.26-0.6,0.66c-0.18,0.4-0.21,0.77-0.1,1.1
	c0.07,0.22,0.24,0.51,0.56,0.67l0.95,0.59c-0.09,0.05-0.19,0.09-0.3,0.13c-0.5,0.16-0.97,0.68-0.76,1.74c0.15,0.52,0.61,1,1.46,0.76
	c0.74-0.26,1.38-0.66,1.88-1.18l2.82,1.8l-2.82,1.76c-0.56-0.57-1.19-0.97-1.89-1.2c-0.62-0.2-1.17,0.1-1.42,0.78l-0.03,0.11
	c-0.17,0.77,0.13,1.4,0.72,1.59c0.14,0.06,0.27,0.13,0.4,0.2l-0.95,0.59c-0.39,0.19-0.55,0.48-0.62,0.7
	c-0.11,0.33-0.08,0.71,0.09,1.06c0.17,0.43,0.43,0.62,0.62,0.7c0.3,0.12,0.63,0.09,1.02-0.14l1-0.66c-0.01,0.12-0.03,0.25-0.06,0.37
	c-0.11,0.48,0,0.81,0.11,1.01c0.17,0.31,0.45,0.51,0.79,0.59c0.39,0.12,0.67,0.01,0.85-0.1c0.27-0.18,0.46-0.5,0.55-1
	c0.11-0.82,0.11-1.59-0.02-2.32l2.86-1.78v3.59c-0.72,0.27-1.34,0.66-1.86,1.16c-0.34,0.31-0.42,0.66-0.43,0.89
	c-0.01,0.24,0.05,0.61,0.38,0.99c0.63,0.7,1.27,0.48,1.59,0.12c0.11-0.11,0.22-0.2,0.31-0.28v1.26C23.83,35.79,24.29,36.31,25,36.31
	z M45.93,9.16c0.59,0,1.07,0.48,1.07,1.06v8.03c0,0.59-0.48,1.06-1.07,1.06h-8.04c-0.59,0-1.07-0.48-1.07-1.06v-0.89
	c0-0.59,0.48-1.06,1.07-1.06h3.98c-3.16-6.11-9.54-10.29-16.89-10.29c-10.2,0-18.45,8-18.97,17.98c-0.03,0.56-0.5,1-1.06,1H4.07
	C3.46,25,2.97,24.5,3,23.89C3.58,12.26,13.2,3,24.99,3c8.1,0,15.17,4.37,19,10.88v-3.65c0-0.59,0.48-1.06,1.07-1.06H45.93z
	 M45.93,25c0.61,0,1.09,0.5,1.06,1.11C46.42,37.74,36.8,47,25.01,47c-8.1,0-15.17-4.37-19-10.88v3.65c0,0.59-0.48,1.06-1.07,1.06
	H4.07C3.48,40.84,3,40.36,3,39.78v-8.03c0-0.59,0.48-1.06,1.07-1.06h8.04c0.59,0,1.07,0.48,1.07,1.06v0.89
	c0,0.59-0.48,1.06-1.07,1.06H8.12c3.16,6.13,9.56,10.29,16.89,10.29c10.17,0,18.45-7.97,18.97-17.98c0.03-0.56,0.5-1,1.06-1H45.93z"
	/>
</svg>
