<?xml version="1.0" encoding="utf-8"?>
<!-- Generator: Adobe Illustrator 22.1.0, SVG Export Plug-In . SVG Version: 6.00 Build 0)  -->
<svg version="1.1" id="Layer_1" xmlns="http://www.w3.org/2000/svg" xmlns:xlink="http://www.w3.org/1999/xlink" x="0px" y="0px"
	 viewBox="0 0 50 50" style="enable-background:new 0 0 50 50;" xml:space="preserve">
<style type="text/css">
	.st0{fill:#FFFFFF;}
</style>
<title>DS-ic-list</title>
<g>
	<path class="st0" d="M43.2,42.1c-3.5,0-6.3-2.8-6.3-6.3v-8.8c0-3.5,2.8-6.3,6.3-6.3c3.5,0,6.3,2.8,6.3,6.3v8.8
		C49.5,39.3,46.7,42.1,43.2,42.1z M43.2,23.3c-2.1,0-3.8,1.7-3.8,3.8v8.8c0,2.1,1.7,3.8,3.8,3.8c2.1,0,3.8-1.7,3.8-3.8v-8.8
		C47,25,45.3,23.3,43.2,23.3C43.2,23.3,43.2,23.3,43.2,23.3z"/>
	<path class="st0" d="M43.2,30.8c-0.3,0-0.6-0.3-0.6-0.6v-3.8c0-0.3,0.3-0.6,0.6-0.6c0.3,0,0.6,0.3,0.6,0.6v3.8
		C43.8,30.6,43.6,30.8,43.2,30.8z"/>
	<path class="st0" d="M33,32.7H3.2c-1.6,0-2.8-1.3-2.8-2.8V11.5c0-1.6,1.3-2.8,2.8-2.8c0,0,0,0,0,0H33c1.6,0,2.8,1.3,2.8,2.8l0,0
		v18.4C35.8,31.4,34.5,32.7,33,32.7z M33,29.9L33,29.9z M3.2,11.5v18.4H33V11.5H3.2z"/>
	<path class="st0" d="M8.5,17.8h2.2c0.2,0,0.3,0.1,0.3,0.3v2.2c0,0.2-0.1,0.3-0.3,0.3H8.5c-0.2,0-0.3-0.1-0.3-0.3v-2.2
		C8.1,18,8.3,17.8,8.5,17.8z"/>
	<path class="st0" d="M14.1,17.8h2.2c0.2,0,0.3,0.1,0.3,0.3v2.2c0,0.2-0.1,0.3-0.3,0.3h-2.2c-0.2,0-0.3-0.1-0.3-0.3v-2.2
		C13.8,18,14,17.8,14.1,17.8z"/>
	<path class="st0" d="M19.8,17.8H22c0.2,0,0.3,0.1,0.3,0.3v2.2c0,0.2-0.1,0.3-0.3,0.3h-2.2c-0.2,0-0.3-0.1-0.3-0.3v-2.2
		C19.5,18,19.6,17.8,19.8,17.8z"/>
	<path class="st0" d="M25.5,17.8h2.2c0.2,0,0.3,0.1,0.3,0.3v2.2c0,0.2-0.1,0.3-0.3,0.3h-2.2c-0.2,0-0.3-0.1-0.3-0.3v-2.2
		C25.2,18,25.3,17.8,25.5,17.8z"/>
	<path class="st0" d="M5.6,12.2h2.2c0.2,0,0.3,0.1,0.3,0.3v2.2C8.1,14.9,8,15,7.8,15H5.6c-0.2,0-0.3-0.1-0.3-0.3v-2.2
		C5.3,12.3,5.5,12.2,5.6,12.2z"/>
	<path class="st0" d="M11.3,12.2h2.2c0.2,0,0.3,0.1,0.3,0.3v2.2c0,0.2-0.1,0.3-0.3,0.3h-2.2c-0.2,0-0.3-0.1-0.3-0.3v-2.2
		C11,12.3,11.1,12.2,11.3,12.2z"/>
	<path class="st0" d="M17,12.2h2.2c0.2,0,0.3,0.1,0.3,0.3v2.2c0,0.2-0.1,0.3-0.3,0.3H17c-0.2,0-0.3-0.1-0.3-0.3v-2.2
		C16.7,12.3,16.8,12.2,17,12.2z"/>
	<path class="st0" d="M22.6,12.2h2.2c0.2,0,0.3,0.1,0.3,0.3v2.2c0,0.2-0.1,0.3-0.3,0.3h-2.2c-0.2,0-0.3-0.1-0.3-0.3v-2.2
		C22.3,12.3,22.5,12.2,22.6,12.2z"/>
	<path class="st0" d="M28.3,12.2h2.2c0.2,0,0.3,0.1,0.3,0.3v2.2c0,0.2-0.1,0.3-0.3,0.3h-2.2c-0.2,0-0.3-0.1-0.3-0.3v-2.2
		C28,12.3,28.1,12.2,28.3,12.2z"/>
	<path class="st0" d="M5.6,23.5h2.2c0.2,0,0.3,0.1,0.3,0.3V26c0,0.2-0.1,0.3-0.3,0.3H5.6c-0.2,0-0.3-0.1-0.3-0.3v-2.2
		C5.3,23.6,5.5,23.5,5.6,23.5z"/>
	<path class="st0" d="M28.3,23.5h2.2c0.2,0,0.3,0.1,0.3,0.3V26c0,0.2-0.1,0.3-0.3,0.3h-2.2c-0.2,0-0.3-0.1-0.3-0.3v-2.2
		C28,23.6,28.1,23.5,28.3,23.5z"/>
	<path class="st0" d="M23.7,26.3H12.4c-0.8-0.1-1.4-0.8-1.3-1.6c0.1-0.7,0.6-1.2,1.3-1.3h11.3c0.8,0.1,1.4,0.8,1.3,1.6
		C25,25.7,24.4,26.3,23.7,26.3z"/>
</g>
</svg>
