<svg xmlns="http://www.w3.org/2000/svg" width="21.714" height="24.323" viewBox="0 0 21.714 24.323"><defs><style>.a{fill:#4a81fd;}</style></defs><path class="a" d="M28.394,5.674H22.869l-.946-1.918A2.4,2.4,0,0,0,19.749,2.4H17.14a2.4,2.4,0,0,0-2.174,1.356L14.02,5.674H8.5a.9.9,0,1,0,0,1.79H9.621l1.356,16.241a3.325,3.325,0,0,0,3.274,3.018h8.415a3.288,3.288,0,0,0,3.274-3.018L27.294,7.464h1.125a.9.9,0,1,0-.026-1.79ZM16.552,4.548a.624.624,0,0,1,.588-.358h2.609a.7.7,0,0,1,.588.358L20.9,5.674H16.015Zm7.622,19a1.547,1.547,0,0,1-1.509,1.407H14.25a1.51,1.51,0,0,1-1.509-1.407L11.411,7.464H25.529Z" transform="translate(-7.6 -2.4)"/><path class="a" d="M40.056,42.11l2.225-.307a.229.229,0,0,0,.128-.384l-.384-.384a2.249,2.249,0,0,1,3.044.153h0a.216.216,0,0,0,.358-.23,3.221,3.221,0,0,0-.614-.921,2.914,2.914,0,0,0-3.939-.153l-.384-.384a.229.229,0,0,0-.384.128L39.8,41.854A.241.241,0,0,0,40.056,42.11Z" transform="translate(-31.564 -29.782)"/><path class="a" d="M34.876,54.274l-.128.512a.219.219,0,0,0,.307.256l2.072-.844a.231.231,0,0,0,.1-.332l-1.381-1.79a.215.215,0,0,0-.384.077l-.153.537a2.263,2.263,0,0,1-1.381-2.711h0a.222.222,0,0,0-.384-.2,2.79,2.79,0,0,0-.486,1A2.85,2.85,0,0,0,34.876,54.274Z" transform="translate(-26.462 -37.598)"/><path class="a" d="M53.121,50.28l-.844,2.072a.219.219,0,0,0,.256.307l.537-.153a2.285,2.285,0,0,1-1.637,2.558h0a.224.224,0,0,0,.026.435,2.829,2.829,0,0,0,1.125-.077,2.908,2.908,0,0,0,2.1-3.351l.512-.128a.215.215,0,0,0,.077-.384l-1.79-1.381A.236.236,0,0,0,53.121,50.28Z" transform="translate(-40.103 -37.927)"/></svg>