<svg xmlns="http://www.w3.org/2000/svg" width="20" height="20" viewBox="0 0 20 20"><defs><style>.a,.c{fill:none;}.b{fill:#4a81fd;}.c{stroke:#4a81fd;stroke-linecap:round;stroke-linejoin:round;stroke-width:2.4px;}</style></defs><rect class="a" width="20" height="20"/><g transform="translate(0.001 2.5)"><g transform="translate(0 0)"><g transform="translate(7.485 8.761)"><path class="b" d="M581.038,375.923a2.455,2.455,0,1,1,1.537-4.368.5.5,0,1,1-.63.784,1.448,1.448,0,1,0-.907,2.577.5.5,0,1,1,0,1.007Z" transform="translate(-578.584 -371.014)"/></g><path class="b" d="M588.978,365.307a.5.5,0,0,1-.36-.152,13.112,13.112,0,0,0-18.152,0,.5.5,0,0,1-.72-.7,14.116,14.116,0,0,1,19.592,0,.5.5,0,0,1-.36.855Z" transform="translate(-569.602 -360.5)"/><g transform="translate(9.94 11.219)"><path class="c" d="M581.53,373.963" transform="translate(-581.53 -373.963)"/></g><g transform="translate(3.414 4.872)"><path class="b" d="M574.2,369.717a.5.5,0,0,1-.364-.85,8.781,8.781,0,0,1,6.387-2.52,10.7,10.7,0,0,1,4.1.852.5.5,0,1,1-.406.921,9.781,9.781,0,0,0-3.692-.766,7.885,7.885,0,0,0-5.657,2.207A.5.5,0,0,1,574.2,369.717Z" transform="translate(-573.699 -366.347)"/></g><g transform="translate(9.94 11.219)"><path class="c" d="M581.53,373.963" transform="translate(-581.53 -373.963)"/></g><g transform="translate(9.94 11.219)"><path class="c" d="M581.53,373.963" transform="translate(-581.53 -373.963)"/></g><g transform="translate(3.918 7.739)"><path class="c" d="M574.3,369.787" transform="translate(-574.304 -369.787)"/></g><g transform="translate(9.94 11.219)"><path class="c" d="M581.53,373.963" transform="translate(-581.53 -373.963)"/></g></g><g transform="translate(11.368 7.516)"><g transform="translate(0 4.107)"><path class="b" d="M591.372,380.154h-7.625a.5.5,0,0,1-.5-.5v-4.7a.5.5,0,0,1,.5-.5h7.625a.5.5,0,0,1,.5.5v4.7A.5.5,0,0,1,591.372,380.154Zm-7.122-1.007h6.618v-3.694h-6.618Z" transform="translate(-583.244 -374.447)"/></g><g transform="translate(1.15)"><path class="b" d="M590.42,374.632a.5.5,0,0,1-.5-.5v-1.573a2.146,2.146,0,0,0-4.286,0v1.573a.5.5,0,1,1-1.007,0v-1.573a3.152,3.152,0,0,1,6.3,0v1.573A.5.5,0,0,1,590.42,374.632Z" transform="translate(-584.624 -369.519)"/></g><g transform="translate(3.797 5.817)"><path class="b" d="M588.3,378.8a.5.5,0,0,1-.5-.5V377a.5.5,0,1,1,1.007,0v1.3A.5.5,0,0,1,588.3,378.8Z" transform="translate(-587.8 -376.499)"/></g></g></g></svg>