<svg id="Layer_1" data-name="Layer 1" xmlns="http://www.w3.org/2000/svg" viewBox="0 0 50 50"><defs><style>.cls-1{fill:#000000;}</style></defs><title>ICON_AIRPLANE_MODE_BATTERY@2x</title><g id="Icon_Plane_24px_1" data-name="Icon Plane 24px 1"><g id="AT_ICO_FA-Plane" data-name="AT ICO FA-Plane"><path id="路径_116" data-name="路径 116" class="cls-1" d="M20.35,10.89v8.46L6.81,27.1a.94.94,0,0,0-.56,1v6.48A1.11,1.11,0,0,0,7.38,35.7h.28L20.21,32v4.65L16,39.93a1.64,1.64,0,0,0-.28,1V45a1.1,1.1,0,0,0,1.12,1.12h.29L25,43.88l8,2.25a1.26,1.26,0,0,0,1.41-.84V40.92a1.29,1.29,0,0,0-.43-1l-4.23-3.24V32L42.34,35.7a1.13,1.13,0,0,0,1.41-.85V28.09a1.18,1.18,0,0,0-.56-1L29.65,19.35V10.89c0-2.54-2.11-7-4.65-7S20.35,8.35,20.35,10.89Zm7,0v9.73l14.09,8v4.23L27.4,28.79V38l4.65,3.52v2l-7-2.11-7,2.11v-2L22.6,38v-9L8.51,33V28.79l14.09-8V10.89c0-2,1.55-4.65,2.4-4.65S27.4,8.91,27.4,10.89Z"/></g></g></svg>