<svg id="Layer_1" data-name="Layer 1" xmlns="http://www.w3.org/2000/svg" viewBox="0 0 50 50"><defs><style>.cls-1{fill:#000000;}</style></defs><title>LE-ConvervationCharging@2x</title><path class="cls-1" d="M26.77,20.94a20,20,0,0,0-3.66,4.72c-1.22,2.44-.91,4.42-.15,5,.13.1.83.62.81.4-.11-.84.73-5.15,1-5.05s-.92,4.87-.2,5.43,1.76.05,2.23-.48c1.07-1.22-.15-4.26-.15-5.64S26.77,20.94,26.77,20.94Z"/><path class="cls-1" d="M23.87,31.5l.46.18s.35,2,.66,2-1.22.46-1,.26S23.87,31.5,23.87,31.5Z"/><path id="Combined-Shape" class="cls-1" d="M41.16,15.63A2.34,2.34,0,0,1,43.5,18v4.69A2.34,2.34,0,0,1,41.16,25h-.78A15.64,15.64,0,0,1,26.31,40.55V50H23.19V40.55A15.63,15.63,0,0,1,9.13,25H8.34A2.34,2.34,0,0,1,6,22.66V18a2.34,2.34,0,0,1,2.34-2.34Zm-.78,6.25V18.75H9.13v3.13h3.12V25a12.5,12.5,0,0,0,25,0V21.88Zm-7.82-7.82V1.56a1.57,1.57,0,0,1,3.13,0v12.5Zm-18.75,0V1.56a1.57,1.57,0,0,1,3.13,0v12.5Z"/></svg>
