<?xml version="1.0" encoding="UTF-8"?>
<svg width="50px" height="50px" viewBox="0 0 50 50" version="1.1" xmlns="http://www.w3.org/2000/svg" xmlns:xlink="http://www.w3.org/1999/xlink">
    <!-- Generator: Sketch 53.2 (72643) - https://sketchapp.com -->
    <title>AT/ICO/LE-Charging USB@2x</title>
    <desc>Created with Sketch.</desc>
    <g id="AT/ICO/LE-Charging-USB" stroke="none" stroke-width="1" fill="none" fill-rule="evenodd">
        <path d="M31.2142857,23.4285714 C30.5714254,23.4285714 30.0290201,23.1473242 29.5870536,22.5848214 C29.5468748,22.4642851 29.4062512,22.4040179 29.1651786,22.4040179 C27.8392791,22.3236603 26.8348248,22.1428585 26.1517857,21.8616071 C25.1071376,21.4598194 24.1830397,20.6763451 23.3794643,19.5111607 C22.5758888,18.3459763 21.89286,17.6227693 21.3303571,17.3415179 C20.5669605,16.8995514 19.502239,16.6785714 18.1361607,16.6785714 L16.6897321,16.6785714 C16.2075869,16.6785714 15.8459833,16.8794623 15.6049107,17.28125 C15.5647319,17.3616075 15.3839302,17.5624984 15.0625,17.8839286 C14.4196396,18.4464314 13.7366108,18.7276786 13.0133929,18.7276786 C12.1696386,18.7276786 11.4564761,18.4363868 10.8738839,17.8537946 C10.2912917,17.2712024 10,16.5580399 10,15.7142857 C10,14.8705315 10.2912917,14.157369 10.8738839,13.5747768 C11.4564761,12.9921846 12.1696386,12.7008929 13.0133929,12.7008929 L13.0736607,12.7008929 C14.1584876,12.7008929 15.0022291,13.1830309 15.6049107,14.1473214 C15.8861621,14.5089304 16.2477656,14.6897321 16.6897321,14.6897321 C17.2120562,14.6897321 17.7544615,14.4888413 18.3169643,14.0870536 C18.718752,13.8058022 19.2410682,13.1629515 19.8839286,12.1584821 C20.7276828,10.9129402 21.6517807,10.1093768 22.65625,9.74776786 C23.2589316,9.50669522 24.0424059,9.32589346 25.0066964,9.20535714 C25.3281266,9.16517837 25.5491065,9.08482203 25.6696429,8.96428571 C26.0714306,8.32142536 26.633925,8 27.3571429,8 C27.9196457,8 28.3816946,8.18080176 28.7433036,8.54241071 C29.1049125,8.90401967 29.2857143,9.36606862 29.2857143,9.92857143 C29.2857143,10.4910742 29.1049125,10.9531232 28.7433036,11.3147321 C28.3816946,11.6763411 27.9196457,11.8571429 27.3571429,11.8571429 C26.6741037,11.8571429 26.1517875,11.6160738 25.7901786,11.1339286 C25.6696423,10.9732135 25.3883951,10.8928571 24.9464286,10.8928571 C24.5446408,10.8928571 23.9821465,11.0334807 23.2589286,11.3147321 C22.6964258,11.5959835 22.1138423,12.1182998 21.5111607,12.8816964 C20.9084791,13.6450931 20.6071429,14.1674093 20.6071429,14.4486607 C20.6071429,14.7700909 20.8482119,14.9308036 21.3303571,14.9308036 L33.1428571,14.9308036 C33.1830359,14.9308036 33.2633923,14.8705363 33.3839286,14.75 L33.3839286,14.6897321 L33.4441964,14.6897321 C33.8459842,14.0870506 34.3883894,13.7857143 35.0714286,13.7857143 C35.6339314,13.7857143 36.0959803,13.966516 36.4575893,14.328125 C36.8191982,14.689734 37,15.1517829 37,15.7142857 C37,16.2767885 36.8191982,16.7388375 36.4575893,17.1004464 C36.0959803,17.4620554 35.6339314,17.6428571 35.0714286,17.6428571 C34.3482107,17.6428571 33.8058054,17.36161 33.4441964,16.7991071 C33.3638389,16.7187496 33.2633935,16.6785714 33.1428571,16.6785714 L24.7053571,16.6785714 C24.4241057,16.6785714 24.2332594,16.7087051 24.1328125,16.7689732 C24.0323656,16.8292414 24.0022319,16.9598204 24.0424107,17.1607143 C24.1227683,17.562502 24.4843718,18.15513 25.1272321,18.9386161 C25.7700925,19.7221021 26.2723196,20.1741065 26.6339286,20.2946429 C27.3973252,20.5357155 28.2209777,20.6763391 29.1049107,20.7165179 L29.1651786,20.7165179 L29.5267857,20.5357143 C29.9285734,19.8928539 30.4910678,19.5714286 31.2142857,19.5714286 C31.7767885,19.5714286 32.2388375,19.7522303 32.6004464,20.1138393 C32.9620554,20.4754482 33.1428571,20.9374972 33.1428571,21.5 C33.1428571,22.0625028 32.9620554,22.5245518 32.6004464,22.8861607 C32.2388375,23.2477697 31.7767885,23.4285714 31.2142857,23.4285714 Z M27.3571429,8.96428571 C26.7142825,8.96428571 26.3928571,9.28571107 26.3928571,9.92857143 C26.3928571,10.5714318 26.7142825,10.8928571 27.3571429,10.8928571 C28.0000032,10.8928571 28.3214286,10.5714318 28.3214286,9.92857143 C28.3214286,9.28571107 28.0000032,8.96428571 27.3571429,8.96428571 Z M35.0714286,14.75 C34.4285682,14.75 34.1071429,15.0714254 34.1071429,15.7142857 C34.1071429,16.3571461 34.4285682,16.6785714 35.0714286,16.6785714 C35.7142889,16.6785714 36.0357143,16.3571461 36.0357143,15.7142857 C36.0357143,15.0714254 35.7142889,14.75 35.0714286,14.75 Z M31.2142857,20.5357143 C30.5714254,20.5357143 30.25,20.8571396 30.25,21.5 C30.25,22.1428604 30.5714254,22.4642857 31.2142857,22.4642857 C31.8571461,22.4642857 32.1785714,22.1428604 32.1785714,21.5 C32.1785714,20.8571396 31.8571461,20.5357143 31.2142857,20.5357143 Z M36.25,28.5 L12.25,28.5 C11.8364219,28.5 11.5,28.8364219 11.5,29.25 L11.5,39.75 C11.5,40.1635781 11.8364219,40.5 12.25,40.5 L36.25,40.5 C36.6635781,40.5 37,40.1635781 37,39.75 L37,37.5 L38.5,37.5 L38.5,31.5 L37,31.5 L37,29.25 C37,28.8364219 36.6635781,28.5 36.25,28.5 Z M36.25,27 C37.4926562,27 38.5,28.0073438 38.5,29.25 L38.5,30 L38.875,30 C39.4963281,30 40,30.5036719 40,31.125 L40,37.875 C40,38.4963281 39.4963281,39 38.875,39 L38.5,39 L38.5,39.75 C38.5,40.9926562 37.4926562,42 36.25,42 L12.25,42 C11.0073438,42 10,40.9926562 10,39.75 L10,29.25 C10,28.0073438 11.0073438,27 12.25,27 L36.25,27 Z M31,37.21875 C31,37.3740801 30.8740801,37.5 30.71875,37.5 L29.78125,37.5 C29.6259199,37.5 29.5,37.3740801 29.5,37.21875 L29.5,31.78125 C29.5,31.6259199 29.6259199,31.5 29.78125,31.5 L30.71875,31.5 C30.8740801,31.5 31,31.6259199 31,31.78125 L31,37.21875 Z M32.96875,33.75 C33.1240801,33.75 33.25,33.8759199 33.25,34.03125 L33.25,34.96875 C33.25,35.1240801 33.1240801,35.25 32.96875,35.25 L27.53125,35.25 C27.3759199,35.25 27.25,35.1240801 27.25,34.96875 L27.25,34.03125 C27.25,33.8759199 27.3759199,33.75 27.53125,33.75 L32.96875,33.75 Z" id="Combined-Shape" fill="#4A81FD" fill-rule="nonzero"></path>
    </g>
</svg>