<?xml version="1.0" encoding="UTF-8"?>
<svg width="50px" height="50px" viewBox="0 0 50 50" version="1.1" xmlns="http://www.w3.org/2000/svg" xmlns:xlink="http://www.w3.org/1999/xlink">
    <!-- Generator: Sketch 53.2 (72643) - https://sketchapp.com -->
    <title>AT/ICO/LE-CoolingDown@2x</title>
    <desc>Created with Sketch.</desc>
    <g id="AT/ICO/LE-CoolingDown" stroke="none" stroke-width="1" fill="none" fill-rule="evenodd">
        <path d="M10.3755,12.9478 C10.5035,13.0148 10.7235,13.0868 11.0245,13.0868 C11.3265,13.0868 11.5455,13.0148 11.6735,12.9478 C11.5455,12.8808 11.3265,12.8088 11.0245,12.8088 C10.7235,12.8088 10.5035,12.8808 10.3755,12.9478 L10.3755,12.9478 Z M11.0245,14.5868 C9.7415,14.5868 8.7725,13.8828 8.7725,12.9478 C8.7725,12.0128 9.7415,11.3088 11.0245,11.3088 C12.3085,11.3088 13.2765,12.0128 13.2765,12.9478 C13.2765,13.8828 12.3085,14.5868 11.0245,14.5868 L11.0245,14.5868 Z M38.5225,27.0938 C37.6985,27.0938 37.1655,26.5608 37.1655,25.7368 L37.1655,24.4328 C37.0535,24.5138 36.9325,24.6088 36.8005,24.7178 C36.4315,25.0918 35.6825,25.3238 34.9555,24.5958 C34.5655,24.2068 34.4975,23.8268 34.5085,23.5768 C34.5195,23.3358 34.6145,22.9788 35.0055,22.6538 C35.6095,22.1428 36.3345,21.7408 37.1655,21.4578 L37.1655,17.7428 L33.8475,19.5808 C33.9965,20.3318 34.0045,21.1358 33.8715,21.9798 C33.7605,22.4888 33.5465,22.8198 33.2275,23.0098 C33.0255,23.1298 32.6935,23.2448 32.2415,23.1158 C31.8405,23.0288 31.5155,22.8178 31.3205,22.5018 C31.1925,22.2938 31.0655,21.9438 31.1885,21.4528 C31.2205,21.3228 31.2445,21.1948 31.2595,21.0668 L30.0925,21.7508 C29.6385,21.9798 29.2545,22.0198 28.9095,21.8918 C28.6865,21.8108 28.3805,21.6188 28.1885,21.1708 C28.0015,20.8018 27.9625,20.4188 28.0895,20.0728 C28.1705,19.8488 28.3625,19.5428 28.8105,19.3508 L29.9085,18.7428 C29.7635,18.6698 29.6085,18.6008 29.4445,18.5378 C28.7605,18.3448 28.4075,17.6928 28.6055,16.8968 L28.6445,16.7818 C28.9455,16.0798 29.5775,15.7728 30.2995,15.9778 C31.1115,16.2168 31.8475,16.6308 32.4975,17.2148 L35.7765,15.3988 L32.5055,13.5368 C31.9165,14.0738 31.1835,14.4828 30.3185,14.7558 C29.3305,15.0038 28.8025,14.5128 28.6225,13.9748 C28.3765,12.8858 28.9225,12.3468 29.5075,12.1798 C29.6275,12.1368 29.7435,12.0908 29.8525,12.0438 L28.7435,11.4318 C28.3625,11.2728 28.1705,10.9658 28.0895,10.7428 C27.9625,10.3968 28.0015,10.0128 28.2075,9.6038 C28.3805,9.1958 28.6865,9.0048 28.9095,8.9228 C29.2555,8.7968 29.6385,8.8348 30.0485,9.0408 L31.2545,9.7058 C31.2395,9.5928 31.2175,9.4788 31.1885,9.3618 C31.0655,8.8718 31.1925,8.5208 31.3205,8.3138 C31.5155,7.9968 31.8405,7.7868 32.2845,7.6878 C32.7035,7.5708 33.0375,7.6798 33.2375,7.7958 C33.5455,7.9738 33.7535,8.2758 33.8585,8.6948 C34.0055,9.5638 33.9965,10.4038 33.8385,11.2288 L37.1655,13.0718 L37.1655,9.3578 C36.3345,9.0738 35.6085,8.6718 35.0005,8.1568 C34.6145,7.8358 34.5195,7.4798 34.5085,7.2378 C34.4975,6.9878 34.5655,6.6088 34.9555,6.2188 C35.2335,5.9408 35.5365,5.7848 35.8545,5.7558 C36.1075,5.7308 36.4885,5.7808 36.8515,6.1438 C36.9625,6.2358 37.0665,6.3158 37.1655,6.3868 L37.1655,5.0788 C37.1655,4.2538 37.6985,3.7208 38.5225,3.7208 C39.3475,3.7208 39.8805,4.2538 39.8805,5.0788 L39.8805,6.3818 C39.9935,6.3008 40.1145,6.2068 40.2455,6.0978 C40.4775,5.8618 40.8335,5.7248 41.1915,5.7558 C41.5105,5.7848 41.8125,5.9408 42.0915,6.2188 C42.6445,6.7728 42.6145,7.5178 42.0145,8.1158 C41.4245,8.6568 40.7135,9.0698 39.8805,9.3568 L39.8805,13.0618 L43.1325,11.2328 C42.9735,10.4068 42.9625,9.5758 43.0995,8.7528 C43.2365,8.1948 43.5115,7.9408 43.7195,7.8158 C43.9275,7.6908 44.2805,7.5678 44.7805,7.6928 C45.2805,7.8178 45.5345,8.0918 45.6595,8.3008 C45.7845,8.5088 45.9075,8.8618 45.7825,9.3618 C45.7595,9.4738 45.7475,9.5978 45.7435,9.7318 L46.9705,9.0548 C47.4065,8.8358 47.7905,8.7958 48.1365,8.9228 C48.3595,9.0048 48.6665,9.1958 48.8575,9.6438 C49.0435,10.0128 49.0835,10.3968 48.9575,10.7428 C48.8755,10.9658 48.6845,11.2728 48.2355,11.4648 L47.1385,12.0718 C47.2835,12.1458 47.4385,12.2138 47.6025,12.2768 C48.2855,12.4698 48.6395,13.1218 48.4405,13.9188 C48.2205,14.6898 47.5685,15.0428 46.7715,14.8438 C45.8295,14.5178 45.0735,14.1038 44.4815,13.5998 L41.2685,15.4078 L44.4935,17.2218 C45.1405,16.6778 45.8855,16.2638 46.7155,15.9878 C47.5705,15.7708 48.2195,16.1258 48.4335,16.8708 C48.6395,17.6928 48.2855,18.3448 47.5395,18.5588 C47.4005,18.6128 47.2665,18.6738 47.1365,18.7398 L48.2745,19.3678 C48.6955,19.5608 48.8775,19.8558 48.9575,20.0728 C49.0835,20.4188 49.0435,20.8018 48.8395,21.2118 C48.6665,21.6188 48.3595,21.8108 48.1365,21.8918 C47.7915,22.0198 47.4075,21.9788 46.9975,21.7748 L45.7865,21.0658 C45.8015,21.1948 45.8255,21.3228 45.8575,21.4538 C45.9805,21.9438 45.8545,22.2938 45.7265,22.5018 C45.5305,22.8178 45.2055,23.0288 44.7605,23.1268 C44.3465,23.2468 44.0095,23.1358 43.8085,23.0188 C43.5015,22.8418 43.2925,22.5398 43.1885,22.1208 C43.0075,21.1358 42.9865,20.2898 43.1195,19.5748 L39.8805,17.7528 L39.8805,21.4588 C40.7125,21.7448 41.4205,22.1538 41.9915,22.6768 C42.6145,23.2978 42.6445,24.0418 42.0915,24.5948 C41.8125,24.8748 41.5105,25.0308 41.1915,25.0588 C40.8295,25.0918 40.4775,24.9538 40.1945,24.6708 C40.0835,24.5788 39.9795,24.4988 39.8805,24.4278 L39.8805,25.7368 C39.8805,26.5608 39.3475,27.0938 38.5225,27.0938 L38.5225,27.0938 Z M25.0235,48.2038 L1.7215,48.2038 L1.7215,34.9338 L3.5735,35.9148 C5.0725,36.7088 8.1335,37.1248 9.1865,37.2188 C13.1675,37.7438 14.6715,37.1918 15.2435,36.6368 C15.5835,36.3048 15.9515,35.6888 15.7615,33.8508 C15.5615,31.9058 15.5635,30.9138 16.4285,29.5868 C15.2645,29.2238 14.2955,28.9118 13.5705,28.6628 C12.1835,28.1848 11.1815,27.8388 11.2735,26.7388 C11.3165,26.2228 11.6915,25.6568 12.4345,25.5598 C12.6565,25.5308 13.7895,25.2078 14.9775,24.7138 C16.0165,24.2818 16.5065,23.9648 16.7145,23.8048 C16.6285,23.2428 16.2695,22.3208 15.9935,21.7718 L15.4365,20.6628 L16.5345,20.0878 C17.4405,19.6128 18.3755,19.3518 19.2015,19.1218 C19.8045,18.9528 20.4235,18.7798 20.7425,18.5838 C20.8105,18.5418 20.8455,18.4008 20.7895,18.3018 L20.7415,18.2138 L15.3055,6.8488 L17.5825,5.7608 L23.0095,17.1078 C23.7035,18.3278 23.2915,19.9738 22.0675,20.7308 C21.4435,21.1148 20.6845,21.3268 19.8805,21.5518 C19.5165,21.6538 19.1455,21.7568 18.7835,21.8778 C19.0565,22.6138 19.2865,23.4618 19.2525,24.1748 C19.1945,25.4318 17.7565,26.2578 16.2915,26.8968 C16.5665,26.9838 16.8655,27.0758 17.1915,27.1768 C17.9395,27.4058 18.5245,27.9678 18.7965,28.7188 C19.0715,29.4788 18.9785,30.2978 18.5425,30.9658 C18.2025,31.4868 18.0755,31.6818 18.2715,33.5918 C18.5755,36.5418 17.6925,37.7758 17.0005,38.4468 C15.5505,39.8568 12.9815,40.2638 8.9215,39.7278 C8.6465,39.7028 6.3075,39.4758 4.2445,38.8668 L4.2445,45.6808 L21.3295,45.6808 C20.6755,43.9058 19.8425,41.4228 19.5755,39.6538 C19.4415,38.7618 19.7615,37.8728 20.4325,37.2748 C20.4975,37.2178 20.5875,37.1108 20.6855,36.9988 C21.0405,36.5958 21.5435,36.0248 22.2375,35.6068 L22.5855,24.5648 C22.5885,22.6378 23.7305,21.3278 25.4265,21.3278 C27.1205,21.3278 28.2355,22.7068 28.2405,24.7578 L28.3915,28.3908 L28.4515,33.0958 C29.2905,32.8978 30.1935,33.1378 30.8545,33.4958 C31.1665,33.6648 31.4445,33.8648 31.6795,34.0888 C32.1015,33.9208 32.5845,33.8328 33.1065,33.8328 C34.1985,33.8328 35.0715,34.1848 35.6125,34.8178 C36.0645,34.7228 36.4925,34.7228 36.7615,34.7228 C38.4825,34.7228 39.9815,36.3098 39.9815,38.0528 L39.9525,38.5238 C40.1155,41.8528 39.9265,44.8068 39.3915,47.2158 L39.2295,47.9478 L36.7665,47.4018 L36.9285,46.6688 C37.4165,44.4718 37.5845,41.7318 37.4315,38.5258 L37.4295,38.4818 L37.4605,37.9848 C37.4535,37.6698 37.0495,37.2458 36.8375,37.2458 C36.5225,37.2458 36.3295,37.2598 36.2115,37.2758 L36.1695,38.5098 L33.6965,38.1908 L33.6905,36.5318 C33.6845,36.4528 33.5745,36.3568 33.1445,36.3568 C32.7215,36.3568 32.5595,36.4378 32.5335,36.4668 L32.5335,37.2168 L31.7785,37.2798 L30.0055,37.2798 L30.0055,35.9908 C29.9615,35.9348 29.8535,35.8228 29.6535,35.7148 C29.3495,35.5508 29.1025,35.5348 29.0365,35.5518 C28.5205,35.8948 28.5185,35.9658 28.5035,36.8348 L28.4875,37.7138 L25.9875,37.7048 L25.8685,28.4518 L25.7175,24.8018 C25.7165,24.2928 25.5835,23.9078 25.4925,23.8538 L25.4905,23.8538 C25.1485,23.8538 25.1075,24.3188 25.1075,24.5968 L24.7075,37.3678 L23.8395,37.6308 C23.3655,37.7738 22.9125,38.2878 22.5815,38.6638 C22.4075,38.8618 22.2555,39.0298 22.1115,39.1578 C22.0795,39.1868 22.0635,39.2308 22.0705,39.2768 C22.3995,41.4588 23.7645,45.0388 24.3355,46.4768 L25.0235,48.2038 Z" fill="#4A81FD" fill-rule="nonzero"></path>
    </g>
</svg>