<?xml version="1.0" encoding="UTF-8"?>
<svg width="50px" height="50px" viewBox="0 0 50 50" version="1.1" xmlns="http://www.w3.org/2000/svg" xmlns:xlink="http://www.w3.org/1999/xlink">
    <!-- Generator: Sketch 53.2 (72643) - https://sketchapp.com -->
    <title>AT/ICO/LE-Dolby@2x</title>
    <desc>Created with Sketch.</desc>
    <g id="AT/ICO/LE-Dolby" stroke="none" stroke-width="1" fill="none" fill-rule="evenodd">
        <path d="M6.77452148,16.8833594 C6.77452148,20.8046484 6.77334961,24.7259375 6.7755957,28.6472266 C6.77598633,29.3501563 6.83702148,29.4070898 7.5169043,29.4071875 C9.09512695,29.4073828 10.6734473,29.4160742 12.2516699,29.4042578 C14.4453223,29.3878516 16.3943457,28.6560156 18.0931738,27.2899023 C20.935166,25.0047461 22.3716895,21.9374609 22.7541113,18.3877539 C23.1374121,14.8297461 22.2941504,11.5374609 20.1008887,8.66666016 C18.0679785,6.00591797 15.4395605,4.43326172 11.9941504,4.45738281 C10.5298926,4.46763672 9.0653418,4.45884766 7.60098633,4.45835938 C6.78711914,4.45816406 6.77461914,4.46919922 6.77461914,5.26587891 C6.77432617,9.13833984 6.77452148,13.0108984 6.77452148,16.8833594 Z M43.8816504,16.9283789 L43.8799902,16.9283789 C43.8799902,13.0225195 43.8801855,9.11666016 43.8797949,5.21089844 C43.8797949,4.52056641 43.8264746,4.46207031 43.1271582,4.46050781 C41.5322363,4.45689453 39.9373145,4.46929688 38.3424902,4.45855469 C36.4046973,4.44537109 34.6544043,5.0509375 33.0938574,6.14888672 C30.1881934,8.193125 28.5704199,11.0858008 27.9728613,14.5238867 C27.6380957,16.4494727 27.7096777,18.402207 28.1953223,20.3351172 C28.7158301,22.4072852 29.6126074,24.2687109 31.0176855,25.868418 C32.9399512,28.0566992 35.3266699,29.3429297 38.2860449,29.4007422 C39.8965918,29.4321875 41.5082129,29.409043 43.1193457,29.4052344 C43.7974707,29.4036719 43.8813574,29.314707 43.8814551,28.6458594 C43.881748,24.7400977 43.8816504,20.8342383 43.8816504,16.9283789 Z M25.297373,33.7656836 C17.5358496,33.7654883 9.77422852,33.7654883 2.01260742,33.7654883 C1.93125977,33.7654883 1.84991211,33.7663672 1.76856445,33.7651953 C1.07481445,33.755918 1.0099707,33.6922461 1.01006836,33.015 C1.01084961,22.6010352 1.01192383,12.187168 1.01270508,1.77330078 C1.01270508,1.4478125 1.01006836,1.12242188 1.00977539,0.79703125 C1.00918945,0.218808594 1.09483398,0.130234375 1.68799805,0.111777344 C1.91553711,0.104648438 2.1434668,0.109921875 2.37129883,0.109921875 C17.7968848,0.109824219 33.2224707,0.10953125 48.6480566,0.1103125 C48.8266699,0.1103125 49.0365332,0.0660742188 49.1758887,0.143417969 C49.344541,0.237070313 49.5134863,0.418613281 49.5725684,0.598300781 C49.6402441,0.803671875 49.5866309,1.04869141 49.5866309,1.27652344 C49.5873145,11.836875 49.587998,22.3971289 49.5887793,32.9575781 C49.588877,33.6929297 49.5186621,33.7655859 48.7775488,33.7655859 C40.950791,33.7660742 33.1241309,33.7658789 25.297373,33.7656836 Z M7.36857143,45.7137942 C7.41142857,44.3452228 7.41142857,42.96808 7.36857143,41.5966514 C7.34,40.5537942 6.64571429,39.8023657 5.77142857,39.7737942 C5.10285714,39.7566514 4.43428571,39.7595085 3.76571429,39.7709371 C3.25142857,39.7766514 3.14857143,39.9137942 3.14857143,40.5366514 C3.14571429,41.5737942 3.14857143,42.6137942 3.14857143,43.6509371 L3.15714286,43.6509371 C3.15714286,44.1795085 3.15714286,44.7052228 3.15428571,45.2366514 C3.15428571,45.7652228 3.15142857,46.2909371 3.14857143,46.8195085 C3.14571429,47.4852228 3.26,47.6223657 3.82571429,47.6309371 C4.43428571,47.6395085 5.04571429,47.6395085 5.65142857,47.62808 C6.64,47.6137942 7.33142857,46.8795085 7.36857143,45.7137942 Z M8.93142857,39.5395085 C9.21142857,40.0737942 9.44285714,40.7309371 9.47142857,41.3452228 C9.54571429,42.9423657 9.54,44.5509371 9.47428571,46.1509371 C9.43428571,47.18808 9.13428571,48.1937942 8.31428571,48.7423657 C7.86,49.0452228 7.31714286,49.2909371 6.81142857,49.3137942 C5.05714286,49.3909371 3.30285714,49.3566514 1.55142857,49.3709371 C1.11714286,49.3737942 1,49.0909371 1,48.62808 C1.01142857,47.0052228 1.00571429,45.3852228 1.00571429,43.7652228 L1,43.7652228 L1,38.8509371 C1,38.2795085 1.12,38.1052228 1.59428571,38.1023657 C3.12571429,38.0966514 4.65714286,38.04808 6.18571429,38.12808 C7.22571429,38.1852228 8.30857143,38.3595085 8.93142857,39.5395085 Z M18.7734286,46.2437942 C18.8134286,44.5495085 18.7962857,42.8495085 18.7791429,41.1523657 C18.7734286,40.6037942 18.4905714,40.2237942 18.0677143,40.0209371 C17.2077143,39.6066514 16.322,39.6437942 15.4562857,39.93808 C14.8505714,40.1437942 14.5448571,40.7066514 14.5362857,41.4552228 C14.5277143,42.1952228 14.5334286,42.9323657 14.5334286,43.6695085 L14.5534286,43.6695085 C14.5534286,44.5123657 14.5248571,45.3523657 14.5648571,46.1923657 C14.5991429,46.9095085 15.0762857,47.5066514 15.6791429,47.5637942 C16.342,47.6295085 17.0191429,47.6266514 17.682,47.5666514 C18.2905714,47.5095085 18.7562857,46.9666514 18.7734286,46.2437942 Z M20.842,40.7409371 C20.9677143,41.7352228 20.9505714,42.7552228 20.9991429,43.7666514 C20.9677143,43.7666514 20.9362857,43.7666514 20.9048571,43.7695085 C20.9048571,44.6437942 20.9591429,45.5237942 20.8934286,46.3923657 C20.7705714,47.9866514 19.8848571,48.9952228 18.5448571,49.23808 C17.2648571,49.4695085 15.9791429,49.5295085 14.7191429,49.1923657 C14.1877143,49.0495085 13.6591429,48.7123657 13.2134286,48.3295085 C12.7477143,47.9266514 12.4848571,47.2637942 12.4705714,46.5866514 C12.4334286,44.69808 12.3877143,42.8066514 12.482,40.9266514 C12.5448571,39.7095085 13.2048571,38.8552228 14.2162857,38.4695085 C15.9048571,37.8295085 17.6048571,37.8437942 19.2762857,38.5152228 C20.1534286,38.8695085 20.7077143,39.6723657 20.842,40.7409371 Z M28.9337143,47.4897942 C29.1508571,47.5012228 29.5222857,47.6812228 29.5451429,47.8469371 C29.6051429,48.2983657 29.5422857,48.7869371 29.4737143,49.2469371 C29.4622857,49.3355085 29.208,49.4126514 29.0622857,49.4155085 C27.4794286,49.4269371 25.8965714,49.4212228 24.3108571,49.4297942 C23.8794286,49.4326514 23.8565714,49.06408 23.8565714,48.6669371 C23.8565714,47.02408 23.8565714,45.3812228 23.8565714,43.7412228 L23.8565714,38.8669371 C23.8594286,38.10408 23.9422857,37.9983657 24.5337143,38.0012228 C24.7708571,38.0012228 25.0108571,37.9983657 25.248,38.00408 C25.7794286,38.0126514 25.888,38.1555085 25.888,38.8269371 C25.8851429,41.4155085 25.8822857,44.00408 25.8822857,46.5926514 C25.8794286,47.40408 25.9337143,47.4726514 26.5794286,47.4726514 C27.3622857,47.4726514 28.1508571,47.4469371 28.9337143,47.4897942 Z M37.4368571,47.6766514 C38.3197143,47.5537942 38.8425714,46.7252228 38.8082857,45.7052228 C38.7768571,44.7309371 38.434,44.3566514 37.4168571,44.2052228 C37.1397143,44.1652228 36.8625714,44.14808 36.5854286,44.1366514 C36.0654286,44.1137942 35.9225714,43.9423657 35.9425714,43.3852228 C35.9568571,42.9452228 36.1511429,42.7709371 36.554,42.7337942 C37.0197143,42.68808 37.514,42.6366514 37.9225714,42.4252228 C38.374,42.1937942 38.4882857,41.3795085 38.2968571,40.6766514 C38.1654286,40.1909371 37.6625714,39.7109371 37.1797143,39.6823657 C36.5911429,39.6509371 35.9997143,39.6852228 35.4111429,39.6595085 C34.9368571,39.6423657 34.7768571,39.88808 34.7825714,40.3766514 C34.7968571,41.4852228 34.7854286,42.5909371 34.7854286,43.6995085 L34.7911429,43.6995085 C34.7911429,44.8423657 34.7882857,45.9852228 34.7911429,47.12808 C34.7911429,47.4337942 34.8197143,47.7395085 35.1825714,47.7395085 C35.934,47.7395085 36.6968571,47.7795085 37.4368571,47.6766514 Z M39.5768571,43.5995085 C40.934,44.1937942 41.1682857,46.1109371 40.8997143,47.14808 C40.5282857,48.6023657 39.5711429,49.3023657 38.274,49.36808 C36.494,49.4595085 34.7082857,49.4109371 32.9254286,49.42808 C32.5654286,49.4309371 32.4311429,49.2166514 32.4311429,48.8595085 C32.4311429,48.4309371 32.434,48.0023657 32.434,47.5737942 C32.4311429,44.6452228 32.4282857,41.7195085 32.4282857,38.7909371 C32.4282857,38.1223657 32.5254286,38.00808 33.134,38.0052228 C34.5882857,38.0052228 36.0454286,37.98808 37.4997143,38.0166514 C38.2597143,38.0337942 39.034,38.1509371 39.5968571,38.7537942 C39.9168571,39.0966514 40.2111429,39.5737942 40.2968571,40.0366514 C40.4682857,40.9595085 40.5425714,41.9366514 39.8311429,42.6995085 C39.6397143,42.9052228 39.3911429,43.0509371 39.0625714,43.3023657 C39.2768571,43.42808 39.4197143,43.5309371 39.5768571,43.5995085 Z M48.1945714,38.02408 C48.4945714,38.0412228 48.8002857,38.0212228 49.1002857,38.0269371 C49.5917143,38.04408 49.6774286,38.1869371 49.4517143,38.7155085 C49.1688571,39.3812228 48.8517143,40.0269371 48.5431429,40.6755085 C47.886,42.0697942 47.2088571,43.4526514 46.5717143,44.8583657 C46.4517143,45.1269371 46.426,45.4755085 46.4202857,45.7897942 C46.4031429,46.7526514 46.4202857,47.7155085 46.4174286,48.6755085 C46.4145714,49.2526514 46.2917143,49.40408 45.8002857,49.42408 C45.3945714,49.4383657 44.986,49.4212228 44.5774286,49.42408 C44.1774286,49.4297942 44.006,49.20408 44.0145714,48.7326514 C44.0288571,47.82408 43.9802857,46.9126514 44.0402857,46.0069371 C44.0917143,45.2326514 43.7717143,44.6355085 43.4974286,44.0155085 C42.806,42.4412228 42.0888571,40.88408 41.3774286,39.3212228 C41.2717143,39.0869371 41.1288571,38.8726514 41.0488571,38.6269371 C40.9317143,38.2755085 41.0145714,38.0269371 41.3802857,38.02408 C41.7602857,38.02408 42.1517143,37.9555085 42.5117143,38.0497942 C42.7688571,38.1183657 43.0802857,38.3412228 43.2088571,38.60408 C43.8717143,39.9726514 44.4831429,41.3783657 45.1117143,42.7697942 C45.1345714,42.8126514 45.1774286,42.8412228 45.3231429,42.9983657 C45.6117143,42.4212228 45.8774286,41.8983657 46.1317143,41.3726514 C46.6002857,40.40408 47.066,39.4297942 47.5288571,38.4526514 C47.6774286,38.1383657 47.8917143,38.0069371 48.1945714,38.02408 Z" fill="#000000" fill-rule="nonzero"></path>
    </g>
</svg>