<?xml version="1.0" encoding="UTF-8"?>
<svg width="50px" height="50px" viewBox="0 0 50 50" version="1.1" xmlns="http://www.w3.org/2000/svg" xmlns:xlink="http://www.w3.org/1999/xlink">
    <!-- Generator: Sketch 53.2 (72643) - https://sketchapp.com -->
    <title>AT/ICO/LE-Display-priority-control@2x</title>
    <desc>Created with Sketch.</desc>
    <g id="AT/ICO/LE-Display-priority-control" stroke="none" stroke-width="1" fill="none" fill-rule="evenodd">
        <path d="M36.9437652,28.21744 C40.6342629,28.21744 44.3248149,28.2176513 48.0153669,28.2171758 C48.4035686,28.217123 48.6943259,27.936927 48.6943803,27.5620996 C48.6949237,23.3489101 48.6950868,19.1357734 48.6923151,14.9225839 C48.6922607,14.8333947 48.6706306,14.7382876 48.6344897,14.6561785 C48.5056869,14.3634602 48.2536792,14.2680889 47.9450961,14.2680889 C40.6183392,14.2685645 33.2916366,14.2684588 25.9648254,14.2684588 C25.9286302,14.2684588 25.8923263,14.2675077 25.8561854,14.2689872 C25.5105375,14.2832004 25.2170629,14.5618112 25.2170629,14.8793631 C25.2166281,19.1233567 25.2166825,23.3673503 25.2177694,27.611291 C25.2177694,27.6626489 25.2246715,27.7172297 25.2433669,27.7647304 C25.3644524,28.0724546 25.5849388,28.2173871 25.9264563,28.2173871 C29.5989107,28.2175457 33.2713108,28.2174928 36.9437652,28.21744 Z M36.2922516,29.4855868 L36.1139386,29.4855868 C32.649362,29.4854811 29.1847854,29.4885985 25.7202632,29.4812542 C25.2814099,29.4803031 24.9016864,29.2869716 24.5744622,29.0079381 C24.215771,28.7020104 24.0024584,28.3138151 23.9201768,27.8576183 C23.9125139,27.814873 23.9139269,27.7701727 23.9139269,27.7264234 C23.9133291,23.4202404 23.9124595,19.1140573 23.9136008,14.8078743 C23.9137095,14.3821646 24.0880008,14.0155269 24.3602801,13.6926384 C24.6476678,13.3517853 25.0194567,13.1348356 25.4622773,13.0422647 C25.6017864,13.0131514 25.7478172,13.0021084 25.8908589,13.0020556 C33.2638652,13.0002063 40.6368716,12.9977229 48.0098779,13.0041691 C48.8329111,13.004856 49.4520882,13.3799476 49.8164315,14.1074637 C49.9406148,14.3552704 49.9984945,14.628756 49.9984945,14.9078952 C49.9992554,19.1304369 50.0023532,23.3529786 49.996538,27.5754674 C49.995125,28.54762 49.2883403,29.3218442 48.3347652,29.4598551 C48.2106363,29.4778197 48.08379,29.4844772 47.9581937,29.4845301 C44.5751379,29.485851 41.1920821,29.4855868 37.8090262,29.4855868 L37.6204959,29.4855868 L37.6204959,32.0217748 L37.7938634,32.0217748 C39.8726419,32.0217748 41.9513661,32.0215106 44.0301447,32.0220918 C44.3352496,32.0221975 44.58454,32.1156138 44.7243208,32.4063243 C44.907036,32.7865412 44.6027462,33.2761311 44.1700886,33.2892348 C44.142915,33.2900802 44.1157414,33.289816 44.0885678,33.289816 C39.3377572,33.289816 34.587001,33.2898688 29.8361904,33.2897632 C29.5016837,33.2897103 29.2776103,33.1478423 29.1602748,32.8462473 C29.0177223,32.4796624 29.3145121,32.1117567 29.6024433,32.0524733 C29.711518,32.0300174 29.8257557,32.0230958 29.9376565,32.0229901 C31.9982831,32.0213521 34.0589641,32.0217748 36.1195907,32.0217748 L36.2922516,32.0217748 L36.2922516,29.4855868 Z M16.8660609,35.8087643 C16.7519293,36.0068036 16.6658824,36.1945859 16.5465902,36.355993 C16.1769798,36.8562762 15.6807437,37.1422891 15.0734181,37.1492211 C13.7157899,37.1647757 12.3578902,37.1548568 11.0000991,37.1519826 C10.8842835,37.1517571 10.764937,37.1407675 10.6534128,37.1104473 C10.0266397,36.9402484 9.56804912,36.5532433 9.29578471,35.9403021 C9.24988219,35.8369993 9.19555968,35.7989581 9.08256886,35.7991272 C6.54804358,35.8029032 4.01340965,35.8020578 1.47883004,35.8020578 L1.30831169,35.8020578 C1.30831169,36.2067027 1.30793143,36.5906645 1.30847465,36.9746827 C1.30869194,37.1201971 1.29679531,37.267684 1.31521064,37.410775 C1.38083224,37.9182155 1.60762871,38.3434308 1.97713041,38.677911 C2.31148545,38.9805493 2.70092352,39.1807865 3.15256085,39.181012 C9.73335251,39.1844498 16.3142528,39.1835481 22.8950445,39.1814628 C23.0063513,39.1814628 23.119831,39.1641612 23.2285847,39.1381241 C24.1579885,38.9155694 24.7689537,38.1198053 24.7752551,37.1052624 C24.777591,36.7249638 24.7758527,36.3446089 24.7753095,35.9642539 C24.7752551,35.9143778 24.771181,35.8645016 24.7687364,35.8087643 L16.8660609,35.8087643 Z M3.9157921,34.4494842 L4.09473044,34.4494842 L6.75620743,34.4494842 C7.84705772,34.4494842 8.9378537,34.4489207 10.0286497,34.4501605 C10.1799922,34.4503296 10.3340508,34.4661096 10.4156432,34.6226136 C10.4638816,34.7151522 10.4836007,34.8234145 10.5182041,34.9237867 C10.6931769,35.4321853 11.2252116,35.8122585 11.7416013,35.8052138 C12.5969092,35.7934351 13.4524887,35.8029595 14.3079596,35.8007616 C14.4108464,35.8005361 14.5167753,35.7958585 14.6160226,35.7707232 C15.1066091,35.64685 15.4439519,35.3398721 15.5900795,34.8342914 C15.6766152,34.5348654 15.7643461,34.4494842 16.0646409,34.4494842 L21.9849252,34.4494842 L22.168155,34.4494842 L22.168155,34.2900496 C22.168155,30.510001 22.169839,29.6284468 22.163103,25.8483418 C22.1627227,25.662532 22.1176351,25.4634783 22.0440824,25.2935612 C21.7997941,24.7294817 21.343485,24.4996569 20.7686442,24.4994878 C15.6087121,24.4979098 10.4488343,24.4983043 5.28895647,24.5002205 C5.15939729,24.5002768 5.02608985,24.5089559 4.90087647,24.5405723 C4.32331956,24.686143 3.90987095,25.2793029 3.91122901,25.8721809 C3.9201379,29.6334626 3.9157921,30.4961935 3.9157921,34.2575879 L3.9157921,34.4494842 Z M2.61205189,34.4494842 L2.61205189,34.2478381 C2.61226918,30.4252397 2.60879254,29.5011358 2.61694092,25.6785375 C2.61813601,25.1351974 2.82266026,24.6480455 3.14267416,24.2187725 C3.55438445,23.6663589 4.08984142,23.3156478 4.75458595,23.1914365 C4.91739051,23.1610036 5.08541003,23.1479287 5.25103936,23.147816 C10.4384044,23.1456181 15.6258237,23.1418985 20.8131887,23.149394 C21.8955646,23.1509156 22.7043182,23.6672606 23.2073446,24.6660235 C23.3488004,24.9467388 23.4354448,25.2542239 23.4451142,25.5777708 C23.4535342,25.8582607 23.4705371,26.1387506 23.4707001,26.4192406 C23.4724384,29.9929654 23.4718952,30.6681394 23.4718952,34.2418078 L23.4718952,34.4494842 L23.6357319,34.4494842 C24.2061182,34.4494842 24.7764502,34.4467791 25.3467823,34.4509495 C25.5476669,34.4524148 25.7386105,34.4887652 25.8890295,34.6542864 C26.01408,34.7919671 26.0776373,34.9508945 26.0782892,35.1349572 C26.0808423,35.8487779 26.0988774,36.5633313 26.0738347,37.2761939 C26.0477056,38.0177424 25.814825,38.6910986 25.3554739,39.2752413 C24.829632,39.9440325 24.152013,40.3356026 23.3442373,40.4995458 C23.2301057,40.522765 23.1120086,40.5345436 22.9956498,40.5345436 C16.3507575,40.5362343 9.70575668,40.5382068 3.06086446,40.5319512 C2.53779302,40.531444 2.05285599,40.3423655 1.6051842,40.0644679 C0.898122424,39.6254451 0.413457002,38.9917644 0.156728826,38.1848979 C0.0666077844,37.9015337 0.0202163621,37.5929215 0.0113617932,37.2940591 C-0.0093350826,36.59027 0.00457147961,35.8854101 0.00457147961,35.1810011 C0.00457147961,34.7392731 0.278030988,34.4514004 0.704191068,34.4499914 C1.28354062,34.4479626 1.8629445,34.4494842 2.44234838,34.4494842 L2.61205189,34.4494842 Z" fill="#4A81FD" fill-rule="nonzero"></path>
    </g>
</svg>