<?xml version="1.0" encoding="UTF-8"?>
<svg width="50px" height="50px" viewBox="0 0 50 50" version="1.1" xmlns="http://www.w3.org/2000/svg" xmlns:xlink="http://www.w3.org/1999/xlink">
    <!-- Generator: Sketch 53.2 (72643) - https://sketchapp.com -->
    <title>AT/ICO/LE-Finger-Identification@2x</title>
    <desc>Created with Sketch.</desc>
    <g id="AT/ICO/LE-Finger-Identification" stroke="none" stroke-width="1" fill="none" fill-rule="evenodd">
        <path d="M41.9561928,24.611812 C41.9995958,24.0612353 42.4811114,23.6500899 43.031688,23.6934928 C43.5822647,23.7368958 43.9934101,24.2184114 43.9500072,24.768988 C43.5176559,30.253463 40.2811582,35.0963677 35.4694467,37.6469448 C34.9814784,37.9056055 34.3762159,37.719715 34.1175552,37.2317467 C33.8588945,36.7437784 34.044785,36.1385159 34.5327533,35.8798552 C38.7452154,33.6469264 41.5781037,29.4079591 41.9561928,24.611812 Z M32.98,13 C32.4277153,13 31.98,12.5522847 31.98,12 C31.98,11.4477153 32.4277153,11 32.98,11 L33,11 C36.3122847,11 39,13.6877153 39,17 L39,23 C39,25.954757 37.8264857,28.7277279 35.7771068,30.7771068 C35.3865825,31.1676311 34.7534175,31.1676311 34.3628932,30.7771068 C33.9723689,30.3865825 33.9723689,29.7534175 34.3628932,29.3628932 C36.0410143,27.6847721 37,25.4187245 37,23 L37,17 C37,14.7922847 35.2077153,13 33,13 L32.98,13 Z M29,17 C29,18.3333333 27,18.3333333 27,17 L27,16.75 C27,16.6919484 27.0049466,16.6350521 27.0144412,16.5797096 C27.0761516,15.6853924 27.3346547,14.8314529 27.7710151,14.0651614 C28.0443069,13.5852343 28.6549115,13.4177233 29.1348386,13.6910151 C29.6147657,13.9643069 29.7822767,14.5749115 29.5089849,15.0548386 C29.1760343,15.6395323 29,16.3011786 29,17 Z M47.0001,23.0002 L47.0001,17.0002 C47.0001,13.4853901 45.6969352,10.1799796 43.3790264,7.62162381 C43.0082093,7.21234017 43.0393925,6.57994355 43.4486762,6.20912641 C43.8579598,5.83830928 44.4903565,5.86949255 44.8611736,6.27877619 C47.5088482,9.20110589 49.0001,12.9835893 49.0001,17.0002 L49.0001,23.0002 C49.0001,23.7284035 48.9845424,24.4371681 48.9530716,25.1305413 C48.9495961,25.2071128 48.9376369,25.2811702 48.9181676,25.3518863 C48.293475,32.4652228 44.1503556,38.705976 37.810931,42.0650179 C37.0610472,42.4619537 36.2860739,42.8130436 35.4887624,43.1174333 C34.9727996,43.3144125 34.3948459,43.0558252 34.1978667,42.5398624 C34.0008875,42.0238996 34.2594748,41.4459459 34.7754376,41.2489667 C35.4968939,40.9735362 36.1976063,40.656089 36.8748992,40.2975779 C42.6662391,37.228947 46.4270586,31.5138141 46.9401928,25.0046117 C46.944196,24.9538303 46.9519162,24.9042609 46.9630614,24.8561432 C46.9878255,24.2518908 47.0001,23.634235 47.0001,23.0002 Z M19.2405754,14.4065041 C19.1385109,14.949276 18.6157677,15.3065399 18.0729959,15.2044754 C17.530224,15.1024109 17.1729601,14.5796677 17.2750246,14.0368959 C18.4257801,7.91725918 23.0780687,2.99220867 29.106454,1.47976045 C29.1221952,1.47581118 29.1379244,1.47225715 29.1536323,1.46909121 C30.415297,1.15903255 31.7005977,0.9997 32.9998,0.9997 C35.7199025,0.9997 38.3514132,1.68345692 40.6812448,2.96322358 C41.1653094,3.2291182 41.342171,3.83708023 41.0762764,4.32114479 C40.8103818,4.80520935 40.2024198,4.98207104 39.7183552,4.71617642 C37.6817566,3.59748139 35.3811318,2.9997 32.9998,2.9997 C31.849806,2.9997 30.7112795,3.14254183 29.5911645,3.42113453 C29.5778009,3.42445831 29.5644463,3.42749751 29.5511066,3.43025652 C24.2991391,4.76535689 20.2441754,9.06942975 19.2405754,14.4065041 Z M24.2635605,15.3189576 C24.1305385,15.8549834 23.5881681,16.1816825 23.0521424,16.0486605 C22.5161166,15.9156385 22.1894175,15.3732681 22.3224395,14.8372424 C23.5303463,9.96985852 27.918637,6.4901 33,6.4901 C39.0722847,6.4901 44,11.4178153 44,17.4901 L44,19.2501 C44,19.8023847 43.5522847,20.2501 43,20.2501 C42.4477153,20.2501 42,19.8023847 42,19.2501 L42,17.4901 C42,12.5223847 37.9677153,8.4901 33,8.4901 C28.8432077,8.4901 25.2514251,11.3382559 24.2635605,15.3189576 Z M32,17.4902 C32,16.9379153 32.4477153,16.4902 33,16.4902 C33.5522847,16.4902 34,16.9379153 34,17.4902 L34,21.7842 C34,22.3364847 33.5522847,22.7842 33,22.7842 C32.4477153,22.7842 32,22.3364847 32,21.7842 L32,17.4902 Z M3,48 C3,48.5522847 2.55228475,49 2,49 C1.44771525,49 1,48.5522847 1,48 L1,28.314 C1,21.5401187 8.21725895,16.186 17,16.186 C25.7827411,16.186 33,21.5401187 33,28.314 L33,48 C33,48.5522847 32.5522847,49 32,49 C31.4477153,49 31,48.5522847 31,48 L31,28.314 C31,22.7961414 24.7856095,18.186 17,18.186 C9.21439046,18.186 3,22.7961414 3,28.314 L3,48 Z M17,23 C13.2175878,23 9.68442855,23.8287816 7.07698945,25.2559379 L7.28805612,28.6076784 L7.63003883,34.0844022 C7.75091425,36.0115989 8.8692281,37.7271702 10.5630056,38.5694722 C12.4224043,39.4934445 14.6527427,40 17,40 C19.3472573,40 21.5775957,39.4934445 23.4367273,38.569605 C25.1307719,37.7271702 26.2490858,36.0115989 26.3699439,34.0846784 L26.7119769,28.6071522 L26.9230105,25.2559379 C24.3155714,23.8287816 20.7824121,23 17,23 Z M17,21 C21.3889154,21 25.5024372,22.0353009 28.4795497,23.8455598 C28.7971059,24.0386525 28.9813808,24.3919285 28.9580231,24.7628478 L28.7080561,28.7323216 L28.3660388,34.2095978 C28.2008485,36.8433367 26.6665174,39.1971074 24.3270056,40.3605278 C22.1864638,41.4242057 19.6512703,42 17,42 C14.3487297,42 11.8135362,41.4242057 9.67272726,40.360395 C7.33348261,39.1971074 5.7991515,36.8433367 5.63394388,34.2093216 L5.29197688,28.7328478 L5.04197688,24.7628478 C5.01861924,24.3919285 5.20289411,24.0386525 5.52045027,23.8455598 C8.49756275,22.0353009 12.6110846,21 17,21 Z M24.3918848,34.8118675 C24.8458256,35.1264405 24.9588056,35.749444 24.6442325,36.2033848 C24.3296595,36.6573256 23.706656,36.7703056 23.2527152,36.4557325 C21.4241924,35.1885983 19.2647801,34.4998 17.0003,34.4998 C14.7355675,34.4998 12.5751718,35.1887618 10.7468848,36.4557325 C10.292944,36.7703056 9.66994047,36.6573256 9.35536745,36.2033848 C9.04079443,35.749444 9.15377435,35.1264405 9.60771516,34.8118675 C11.767414,33.3152341 14.3243922,32.4998 17.0003,32.4998 C19.6760011,32.4998 22.231985,33.3150948 24.3918848,34.8118675 Z" id="Combined-Shape" fill="#4A81FD" fill-rule="nonzero"></path>
    </g>
</svg>