<?xml version="1.0" encoding="UTF-8"?>
<svg width="50px" height="50px" viewBox="0 0 50 50" version="1.1" xmlns="http://www.w3.org/2000/svg" xmlns:xlink="http://www.w3.org/1999/xlink">
    <!-- Generator: Sketch 53.2 (72643) - https://sketchapp.com -->
    <title>AT/ICO/LE-Handwritting-identification@2x</title>
    <desc>Created with Sketch.</desc>
    <g id="AT/ICO/LE-Handwritting-identification" stroke="none" stroke-width="1" fill="none" fill-rule="evenodd">
        <path d="M32.7431986,32.1606923 C32.942259,32.319853 33.1353135,32.4932591 33.3216152,32.679302 C34.2510005,33.6073964 34.785,34.8675694 34.785,36.2119 C34.785,38.9506428 32.57277,41.0119 29.786,41.0119 L17.791,41.0119 C17.2387153,41.0119 16.791,40.5641847 16.791,40.0119 C16.791,39.4596153 17.2387153,39.0119 17.791,39.0119 L29.786,39.0119 C31.4985538,39.0119 32.785,37.8132468 32.785,36.2119 C32.785,35.404175 32.4659738,34.6513126 31.9083848,34.094498 C31.232542,33.4195939 30.4778254,33.0239 29.786,33.0239 L17.791,33.0239 C17.2387153,33.0239 16.791,32.5761847 16.791,32.0239 C16.791,31.4716153 17.2387153,31.0239 17.791,31.0239 L29.786,31.0239 C31.1205214,31.0239 32.1688687,30.3708843 32.5822494,29.3013776 C32.7813605,28.7862337 33.3603785,28.5300384 33.8755224,28.7291494 C34.3906663,28.9282605 34.6468616,29.5072785 34.4477506,30.0224224 C34.100477,30.9208952 33.5042559,31.6475331 32.7431986,32.1606923 Z M25.8486,23.23 C26.4008847,23.23 26.8486,23.6777153 26.8486,24.23 C26.8486,24.7822847 26.4008847,25.23 25.8486,25.23 L17.7906,25.23 C17.2383153,25.23 16.7906,24.7822847 16.7906,24.23 C16.7906,23.6777153 17.2383153,23.23 17.7906,23.23 L25.8486,23.23 Z M39.9621462,24.6676262 C43.8131431,28.1759195 46.7736735,31.2178581 48.4648548,33.4211102 C48.7425824,33.7829306 48.7402831,34.2868325 48.4592653,34.6461033 L48.103718,35.1006574 L48.6123444,35.4946088 C49.0489758,35.8327973 49.1287796,36.4609129 48.7905912,36.8975444 C48.4524027,37.3341758 47.8242871,37.4139796 47.3876556,37.0757912 L46.8714973,36.676006 L46.3512653,37.3411033 C46.0721233,37.6979761 45.5879222,37.8225823 45.1711872,37.6447892 C43.8199311,37.0682983 42.1576064,36.2083622 40.2515424,35.1049846 C40.1999913,35.0807822 40.1498998,35.0518556 40.101866,35.0181314 C37.9847433,33.7866852 35.5730115,32.2601246 32.9571183,30.4921892 C30.6207547,28.9232939 28.1205494,27.1544045 25.5186033,25.23 L17.791,25.23 C17.7558757,25.23 17.7211744,25.2281891 17.6869843,25.2246556 C17.1833813,25.1728492 16.7906,24.7472941 16.7906,24.23 C16.7906,23.7476963 17.132042,23.3451407 17.5863917,23.2508673 C17.6524553,23.237216 17.720885,23.23 17.791,23.23 L31.786,23.23 C32.2575527,23.23 32.7035108,23.1215132 33.100253,22.9281572 C33.2932476,22.8341654 33.4752851,22.7197516 33.6433044,22.5870949 C33.6910761,22.5494166 33.73767,22.5103162 33.7830221,22.4698575 C34.0488021,22.2321337 34.2734679,21.9457297 34.4428386,21.6205819 C34.4523135,21.5958028 34.4616157,21.5767703 34.5083841,21.4810813 C34.5159021,21.4674122 34.5236821,21.4539982 34.5317139,21.4408411 C34.6939604,21.0722523 34.784,20.6646954 34.784,20.236 C34.784,19.4279828 34.4647434,18.6741825 33.9068932,18.1171068 C33.2330453,17.4432588 32.4772511,17.047 31.786,17.047 L28.37055,17.047 C28.2587642,17.0689525 28.1414307,17.0704579 28.0222937,17.047 L7.806,17.047 C6.19611845,17.047 4.797,18.5333074 4.797,20.236 C4.797,20.5717332 4.85409212,20.9078155 4.96333818,21.2193378 C5.03652713,21.4254225 5.15120107,21.6426135 5.32083183,21.904495 C5.33528329,21.9262754 5.33528329,21.9262754 5.35217278,21.9513306 C5.36992887,21.9775788 5.36992887,21.9775788 5.38992072,22.0072077 C5.51817348,22.1978306 5.59664364,22.3338887 5.66619614,22.5166325 C5.77231622,22.7922024 5.827,23.0860192 5.827,23.381 C5.827,23.8509701 5.6876105,24.31311 5.42823746,24.7098894 C5.18029702,25.0864909 4.90645069,25.2990227 4.46395434,25.5433241 C4.40268874,25.5769513 4.40268874,25.5769513 4.35058561,25.6052971 C3.48290418,26.0846752 3,26.9980484 3,28.192 C3,29.178608 3.2238708,29.8885669 3.68510678,30.3428932 C3.88244037,30.5402268 4.08632295,30.6968772 4.3221792,30.8259855 C4.4087225,30.876645 4.9763576,31.1637481 4.86794058,31.1077349 C5.40482894,31.3851164 5.74311155,31.6169901 6.00694847,31.9801204 C6.41710874,32.5445193 6.33116141,33.1548577 5.99874803,33.7298561 C5.88447413,33.9275236 5.7437641,34.1160383 5.56973089,34.3191001 C5.45598662,34.4518168 5.19197647,34.7398769 5.2138368,34.7052573 C4.942084,35.1397672 4.797,35.6559568 4.797,36.212 C4.797,37.0221624 5.11663671,37.7726906 5.68410678,38.3308932 C6.23766205,38.8844485 7.00067575,39.206 7.805,39.206 L7.885,39.206 C7.97522244,39.206 8.06502991,39.2182099 8.15197753,39.2422972 C9.09231634,39.5028022 9.64621577,40.1594129 9.65160665,41.0491914 C9.65493021,41.5977543 9.47625439,42.1135381 9.10178941,42.883425 C8.90128694,43.2921416 8.795,43.7407182 8.795,44.2 C8.795,45.0110495 9.11454945,45.7613728 9.68210678,46.3188932 C10.1387969,46.7755833 10.8394371,47 11.803,47 L29.566,47 C31.4241528,47 32.8684082,45.6728527 32.776204,44.0290568 C32.73995,43.290925 32.425829,42.59927 31.9083848,42.082598 C31.232542,41.4076939 30.4778254,41.012 29.786,41.012 L17.791,41.012 C17.2387153,41.012 16.791,40.5642847 16.791,40.012 C16.791,39.4597153 17.2387153,39.012 17.791,39.012 L29.786,39.012 C31.0848577,39.012 32.3039782,39.6511784 33.3215785,40.6673653 C34.1864066,41.5309027 34.712849,42.6900631 34.7734297,43.9239811 C34.9334663,46.7763254 32.5135737,49 29.566,49 L11.803,49 C10.3536858,49 9.14888639,48.6141 8.27426537,47.739422 C7.33297629,46.8148727 6.795,45.5516687 6.795,44.2 C6.795,43.4321259 6.97257716,42.6826739 7.30472771,42.0056108 C7.48471644,41.6355539 7.58930488,41.3719925 7.63076697,41.2029777 C6.35598537,41.158732 5.15546842,40.6306799 4.27576915,39.7509343 C3.33484846,38.8254596 2.797,37.5625558 2.797,36.212 C2.797,35.2846167 3.04549753,34.4004954 3.52059516,33.6408739 C3.61318094,33.4943309 4.06609352,33.0001602 4.0511448,33.0176024 C4.06710851,32.998976 4.08236664,32.9808577 4.09691161,32.963261 C4.05851791,32.941913 4.01637913,32.9191988 3.97049492,32.8952752 C4.06829001,32.9464193 3.45440523,32.6354525 3.33834632,32.5670038 C2.95292256,32.3568857 2.59788009,32.0840937 2.2762814,31.7624542 C1.38351099,30.8831365 1,29.6669124 1,28.192 C1,26.3026757 1.84483532,24.7047397 3.38814787,23.8521044 C3.44615395,23.8205174 3.44615395,23.8205174 3.49729795,23.7924456 C3.67984298,23.6916628 3.72938556,23.6532129 3.75596656,23.6128483 C3.80217201,23.5421631 3.827,23.459847 3.827,23.381 C3.827,23.3319173 3.81766091,23.2817382 3.79841678,23.2317446 C3.79556952,23.2242645 3.77959373,23.1965643 3.73053919,23.1236543 C3.71385715,23.0989315 3.71385715,23.0989315 3.69472805,23.0706504 C3.67405555,23.0399932 3.67405555,23.0399932 3.64674712,22.9987413 C3.39489491,22.6100129 3.21145525,22.2625805 3.077351,21.884948 C2.89210995,21.3567607 2.797,20.7968801 2.797,20.236 C2.797,17.4548633 5.06361449,15.047 7.806,15.047 L25.2962185,15.047 C23.4855366,13.6440364 21.6714276,12.2809609 19.8850588,10.9781182 L18.4100181,12.8642359 C18.0697908,13.2992806 17.4413088,13.3761453 17.0062641,13.0359181 C16.5712194,12.6956908 16.4943547,12.0672088 16.8345819,11.6321641 L18.2627534,9.80597759 C14.7682962,7.3051061 11.4194918,5.06413719 8.4575662,3.24053452 C7.66257956,2.82761818 6.63871182,2.95219143 5.99276867,3.56144814 C5.21675665,4.29363223 5.22361046,5.57467141 5.99922933,6.34990234 C8.29770657,8.55765021 9.88683352,10.0406816 11.5519643,11.4936143 C11.968103,11.8567218 12.0110932,12.4884256 11.6479857,12.9045643 C11.2848782,13.320703 10.6531744,13.3636932 10.2370357,13.0005857 C8.54173805,11.5213305 6.93368951,10.0206408 4.59969534,7.77850877 C3.02459893,6.20475745 3.01079826,3.62528672 4.62035323,2.10663687 C5.89573582,0.9036898 7.8416372,0.666933381 9.44240017,1.50132033 C12.6971086,3.50317874 16.3683874,5.97048828 20.175783,8.7184738 C20.2229287,8.74430279 20.2686094,8.77428556 20.3123359,8.80848194 C20.3354068,8.82652453 20.3574703,8.84537777 20.3785178,8.86496983 C20.851925,9.20745563 21.3273547,9.5542194 21.8042696,9.90490725 C21.6708501,8.52604565 22.0712882,7.09954702 23.032386,5.96550737 L23.1759534,5.78916667 C25.0830644,3.54123646 28.4522938,3.26049905 30.7022691,5.16356728 L42.5675358,15.1987929 C44.8186792,17.10408 45.1003528,20.4716012 43.1871891,22.7280305 L43.0629435,22.8713313 C42.2358809,23.8428386 41.132448,24.4513133 39.9621462,24.6676262 Z M37.2775131,22.2740976 C38.6620416,23.1188965 40.4679993,22.8341592 41.5458109,21.5681695 L41.6687475,21.4264095 C42.8596009,20.0218329 42.6835579,17.9171671 41.2757309,16.7256327 L29.4107075,6.69061294 C28.0035411,5.50040715 25.8946438,5.67612875 24.714614,7.06669263 L24.571427,7.24258464 C23.3803867,8.64815061 23.5564275,10.7527904 24.9714783,11.9497234 L28.5639482,15.047 L31.786,15.047 C33.084432,15.047 34.3053172,15.6871036 35.3206152,16.702402 C36.2498621,17.6303582 36.784,18.8915172 36.784,20.236 C36.784,20.7344625 36.71101,21.2157977 36.5751247,21.6699283 C36.6174914,21.7064977 36.6566555,21.7402905 36.6947206,21.7731211 C36.9160678,21.9640298 37.1030695,22.1248216 37.2775131,22.2740976 Z M36.0153244,23.8263103 C35.8849502,23.7148294 35.7486685,23.5978603 35.5973635,23.467621 C34.6807209,24.5460342 33.3135933,25.23 31.786,25.23 L28.9086991,25.23 C30.6987837,26.5214416 32.4279909,27.7277863 34.0745525,28.8334753 C36.3816886,30.3927366 38.5232849,31.7584973 40.4295158,32.8907236 L42.6825819,30.0092745 C40.8336974,28.1640955 38.5895504,26.0798838 36.0417678,23.8491726 C36.0327939,23.8416842 36.023979,23.8340618 36.0153244,23.8263103 Z M45.878008,34.6999367 C45.8868154,34.6874335 45.8959486,34.6750697 45.9054088,34.6628556 C45.9168679,34.6480609 45.9286599,34.6336759 45.9407659,34.619703 L46.3986347,34.0343347 C45.7697283,33.2650246 44.9961975,32.3988509 44.0936418,31.4515673 L42.1784038,33.9009677 C43.3210833,34.5407293 44.3538086,35.0753715 45.2571102,35.4937315 L45.878008,34.6999367 Z" id="Combined-Shape" fill="#4A81FD" fill-rule="nonzero"></path>
    </g>
</svg>