<?xml version="1.0" encoding="UTF-8"?>
<svg width="50px" height="50px" viewBox="0 0 50 50" version="1.1" xmlns="http://www.w3.org/2000/svg" xmlns:xlink="http://www.w3.org/1999/xlink">
    <!-- Generator: Sketch 53.2 (72643) - https://sketchapp.com -->
    <title>AT/ICO/LE-IR@2x</title>
    <desc>Created with Sketch.</desc>
    <g id="AT/ICO/LE-IR" stroke="none" stroke-width="1" fill="none" fill-rule="evenodd">
        <path d="M22.7324497,29.7367574 C25.3324497,29.6941538 27.151858,27.6207811 27.0323314,25.0489467 C26.9466509,23.2098935 25.0200237,20.7422012 22.7324497,21.1646864 L22.7324497,29.7367574 Z M22.7464142,16.4297751 C28.2096095,17.2058698 31.368426,20.347645 31.5094911,25.0259882 C31.5764734,27.2380592 31.0091361,29.243503 29.6380118,30.9791243 C27.8990769,33.180071 25.5329231,34.1871716 22.7696095,34.3322604 L22.7696095,38.7097751 C27.8302012,38.4423195 31.7329231,36.323503 34.1655858,31.9587692 C36.8119763,27.2098935 36.5802604,22.4013728 33.5693728,17.8875266 C31.047716,14.1071716 27.3634556,12.2782959 22.7464142,12.1187692 L22.7464142,16.4297751 Z M22.727716,7.50930178 C32.9459408,7.81652071 40.2093728,15.6567574 40.3961183,25.1372308 C40.4744615,29.1149822 39.3464142,32.7689467 36.9634556,35.9701302 C33.4417988,40.7010178 28.6034556,42.9668166 22.7904379,43.2191243 L22.7904379,47.624568 C31.5260592,47.1455148 38.2292544,43.3930888 42.2169467,35.6858698 C46.4500828,27.5036213 45.6813254,19.4077633 40.2297278,12.0008994 C35.9608521,6.20089941 29.9861775,3.43853254 22.727716,3.23663905 L22.727716,7.50930178 Z M13.7523314,20.8773491 C10.9778935,21.432142 9.40392899,22.9055148 9.38381065,25.1540355 C9.37552663,26.0491834 9.67304142,27.0328521 10.1049941,27.8274083 C10.8453491,29.1893018 12.2332781,29.7031479 13.755645,29.9040947 C13.755645,33.4551006 13.755645,36.9211361 13.7554083,40.3871716 C13.7554083,40.6236213 13.7686627,40.8617278 13.748071,41.0965207 C13.6593136,42.1128521 13.1106746,42.7893018 12.1371834,43.0427929 C11.6131598,43.1791243 11.0491361,43.1966391 10.5023905,43.2023195 C8.66712426,43.2205444 6.8316213,43.2091834 5.00984615,43.2091834 L5.00984615,47.5537988 C7.13931361,47.5537988 9.18286391,47.5627929 11.2264142,47.552142 C15.3158817,47.5298935 18.111858,44.7732071 18.1911479,40.6700118 C18.2214438,39.0936805 18.1973018,37.5164024 18.1973018,35.9395976 C18.1975385,27.5029112 18.2046391,19.0666982 18.1942249,10.6302485 C18.1894911,6.77959763 16.2855858,3.94338462 12.8732781,3.45983432 C10.3023905,3.09581065 7.63872189,3.38811834 5.00014201,3.38811834 L5.00014201,7.59853254 C5.50026036,7.59853254 5.92440237,7.59829586 6.34878107,7.59853254 C8.00440237,7.59995266 9.66097041,7.56752663 11.315645,7.61249704 C12.8041657,7.6532071 13.7281893,8.47095858 13.740497,9.80610651 C13.7748166,13.4697751 13.7523314,17.1341538 13.7523314,20.8773491 L13.7523314,20.8773491 Z" fill="#4A81FD" fill-rule="nonzero"></path>
    </g>
</svg>