<?xml version="1.0" encoding="UTF-8"?>
<svg width="50px" height="50px" viewBox="0 0 50 50" version="1.1" xmlns="http://www.w3.org/2000/svg" xmlns:xlink="http://www.w3.org/1999/xlink">
    <!-- Generator: Sketch 53.2 (72643) - https://sketchapp.com -->
    <title>AT/ICO/LE-Microphone-volume@2x</title>
    <desc>Created with Sketch.</desc>
    <g id="AT/ICO/LE-Microphone-volume" stroke="none" stroke-width="1" fill="none" fill-rule="evenodd">
        <path d="M25.3125,39.6875 C28.7298047,39.6875 31.5,36.9173047 31.5,33.5 L31.5,23.1875 C31.5,19.7701953 28.7298047,17 25.3125,17 C21.8951953,17 19.125,19.7701953 19.125,23.1875 L19.125,33.5 C19.125,36.9173047 21.8951953,39.6875 25.3125,39.6875 Z M21.1875,23.1875 C21.1875,20.9129492 23.0379492,19.0625 25.3125,19.0625 C27.5870508,19.0625 29.4375,20.9129492 29.4375,23.1875 L29.4375,33.5 C29.4375,35.7745508 27.5870508,37.625 25.3125,37.625 C23.0379492,37.625 21.1875,35.7745508 21.1875,33.5 L21.1875,23.1875 Z M35.109375,29.375 C35.3942578,29.375 35.625,29.6057422 35.625,29.890625 L35.625,33.5 C35.625,38.8367188 31.5457617,43.2259766 26.34375,43.7474023 L26.34375,47.9375 L30.984375,47.9375 C31.2692578,47.9375 31.5,48.1682422 31.5,48.453125 L31.5,49.484375 C31.5,49.7692578 31.2692578,50 30.984375,50 L19.640625,50 C19.3557422,50 19.125,49.7692578 19.125,49.484375 L19.125,48.453125 C19.125,48.1682422 19.3557422,47.9375 19.640625,47.9375 L24.28125,47.9375 L24.28125,43.7332227 C18.9735352,43.1976172 15,38.5099414 15,33.1351953 L15,29.890625 C15,29.6057422 15.2307422,29.375 15.515625,29.375 L16.546875,29.375 C16.8317578,29.375 17.0625,29.6057422 17.0625,29.890625 L17.0625,33.2093164 C17.0625,37.5998633 20.3689453,41.4393359 24.7498242,41.7313086 C29.5535156,42.0516406 33.5625,38.2347266 33.5625,33.5 L33.5625,29.890625 C33.5625,29.6057422 33.7932422,29.375 34.078125,29.375 L35.109375,29.375 Z M19.8907441,14.2148192 C22.727156,11.8156744 27.6283641,11.9920088 30.8159792,14.606868 C31.128233,14.8636653 31.3087699,15.2190317 31.3112218,15.5829027 C31.3152076,15.917735 31.1708047,16.2235156 30.9077851,16.4457528 C30.3825787,16.8904503 29.5191606,16.8688163 28.9426908,16.3957585 C26.8882114,14.7109993 23.7499856,14.5795864 21.9487001,16.1030887 C21.4226611,16.5475631 20.5592429,16.5259291 19.9827731,16.0528713 C19.5797662,15.7217814 19.403939,15.2355991 19.5248616,14.7843098 C19.5835381,14.5653262 19.7095984,14.3679678 19.8907441,14.2148192 Z M14.3120546,9.57272148 C14.0320631,9.87162106 13.6570561,10.0388636 13.2567561,10.0440481 C12.8654518,10.0489659 12.4972671,9.89765844 12.2215779,9.6176392 C11.8490561,9.23938794 11.7050251,8.67783809 11.8462502,8.15077877 C11.912066,7.90515081 12.0392739,7.67686521 12.2132407,7.49055843 C15.5343868,3.94514026 19.9615381,1.96063137 24.6785115,1.90197736 C29.2369529,1.84546573 33.5181861,3.6128491 36.7347841,6.87890755 C37.3001381,7.45339975 37.3031043,8.40818917 36.744177,9.00537879 C36.4629067,9.30572053 36.0878996,9.47296303 35.686767,9.47792452 C35.2954627,9.48284224 34.9283338,9.33092528 34.6526445,9.05090604 C31.9876482,6.34405343 28.4398401,4.88028088 24.6656726,4.92740328 C20.7501318,4.97591121 17.0729946,6.6259351 14.3120546,9.57272148 Z M17.882049,13.7964861 C17.6005395,14.1110424 17.2089672,14.2934795 16.8080577,14.2976083 C16.4221955,14.3021994 16.0620105,14.147681 15.7941576,13.8617297 C15.4344681,13.4788851 15.2996121,12.9064074 15.4437376,12.3685238 C15.5106689,12.1187327 15.6367175,11.8847819 15.8074136,11.6940291 C18.3247601,8.88365847 21.6528141,7.31411949 25.1797118,7.27391962 C28.4569017,7.2364193 31.5174696,8.55357274 33.7969401,10.983995 C34.3412989,11.5635705 34.3360261,12.5357855 33.7828516,13.1514725 C33.5013421,13.4660289 33.1106024,13.648689 32.7094698,13.6536505 C32.3236076,13.6582416 31.9634226,13.5037232 31.6955698,13.2177719 C29.8786568,11.2825374 27.4464502,10.2747549 24.8445537,10.3798625 C22.2336615,10.4852369 19.7613709,11.6986509 17.882049,13.7964861 Z" id="AT/ICO/FA-Microphone" fill="#000000" fill-rule="nonzero"></path>
    </g>
</svg>