<?xml version="1.0" encoding="UTF-8"?>
<svg width="50px" height="50px" viewBox="0 0 50 50" version="1.1" xmlns="http://www.w3.org/2000/svg" xmlns:xlink="http://www.w3.org/1999/xlink">
    <!-- Generator: Sketch 53.2 (72643) - https://sketchapp.com -->
    <title>AT/ICO/LE-Microphone-Optimize@2x</title>
    <desc>Created with Sketch.</desc>
    <g id="AT/ICO/LE-Microphone-Optimize" stroke="none" stroke-width="1" fill="none" fill-rule="evenodd">
        <path d="M26.7373187,11.3935319 C27.7184273,11.9838545 28.3750411,13.0590965 28.3750415,14.2878021 C28.375042,15.6103097 27.6073914,16.7435558 26.499833,17.2972519 L26.4998355,24.3642151 C26.4998358,25.1925225 25.8283071,25.8640512 24.9999998,25.8640509 C24.1716924,25.8640506 23.5001633,25.1925214 23.500163,24.3642141 L23.5001605,17.2912846 C22.3964134,16.734439 21.6249502,15.601358 21.6249498,14.2874683 C21.625115,13.0602542 22.2800708,11.9860071 23.2598531,11.3953537 C23.4479541,11.2821617 23.6877622,11.4162355 23.6877623,11.6356591 L23.6877631,14.1003624 L25.0001616,15.0378848 L26.3125594,14.1003633 L26.3125586,11.63566 C26.3125585,11.4175623 26.5505435,11.2810027 26.7373187,11.3935319 Z M25.3535534,24.7175144 C25.5487443,24.5223235 25.5487443,24.2055986 25.3535534,24.0104076 C25.1582151,23.8150694 24.8416375,23.8152167 24.6464466,24.0104076 C24.4512557,24.2055986 24.4511084,24.5221762 24.6464466,24.7175144 C24.8416375,24.9127054 25.1583625,24.9127054 25.3535534,24.7175144 Z M24.625,34.375 C19.4472656,34.375 15.25,30.1777344 15.25,25 L15.25,9.375 C15.25,4.19726562 19.4472656,0 24.625,0 C29.8027344,0 34,4.19726562 34,9.375 L34,25 C34,30.1777344 29.8027344,34.375 24.625,34.375 Z M18.375,9.375 L18.375,25 C18.375,28.4462891 21.1787109,31.25 24.625,31.25 C28.0712891,31.25 30.875,28.4462891 30.875,25 L30.875,9.375 C30.875,5.92871094 28.0712891,3.125 24.625,3.125 C21.1787109,3.125 18.375,5.92871094 18.375,9.375 Z M39.46875,18.75 C39.9003906,18.75 40.25,19.0996094 40.25,19.53125 L40.25,25 C40.25,33.0859375 34.0693359,39.7363281 26.1875,40.5263672 L26.1875,46.875 L33.21875,46.875 C33.6503906,46.875 34,47.2246094 34,47.65625 L34,49.21875 C34,49.6503906 33.6503906,50 33.21875,50 L16.03125,50 C15.5996094,50 15.25,49.6503906 15.25,49.21875 L15.25,47.65625 C15.25,47.2246094 15.5996094,46.875 16.03125,46.875 L23.0625,46.875 L23.0625,40.5048828 C15.0205078,39.6933594 9,32.5908203 9,24.4472656 L9,19.53125 C9,19.0996094 9.34960938,18.75 9.78125,18.75 L11.34375,18.75 C11.7753906,18.75 12.125,19.0996094 12.125,19.53125 L12.125,24.5595703 C12.125,31.2119141 17.1347656,37.0292969 23.7724609,37.4716797 C31.0507813,37.9570312 37.125,32.1738281 37.125,25 L37.125,19.53125 C37.125,19.0996094 37.4746094,18.75 37.90625,18.75 L39.46875,18.75 Z" id="Combined-Shape" fill="#4A81FD" fill-rule="nonzero"></path>
    </g>
</svg>