<?xml version="1.0" encoding="UTF-8"?>
<svg width="50px" height="50px" viewBox="0 0 50 50" version="1.1" xmlns="http://www.w3.org/2000/svg" xmlns:xlink="http://www.w3.org/1999/xlink">
    <!-- Generator: Sketch 53.2 (72643) - https://sketchapp.com -->
    <title>AT/ICO/LE-Palm-recognition@2x</title>
    <desc>Created with Sketch.</desc>
    <g id="AT/ICO/LE-Palm-recognition" stroke="none" stroke-width="1" fill="none" fill-rule="evenodd">
        <path d="M41,32.0259 L48,32.0259 C48.5522847,32.0259 49,32.4736153 49,33.0259 C49,33.5781847 48.5522847,34.0259 48,34.0259 L10.0501989,34.0259 C10.0447609,34.0259438 10.0393316,34.0259437 10.0339115,34.0259 L2,34.0259 C1.44771525,34.0259 1,33.5781847 1,33.0259 C1,32.4736153 1.44771525,32.0259 2,32.0259 L9.01194553,32.0259 L9.00400018,26.5235028 C9.00304908,24.9456323 8.80897247,23.3750936 8.42607482,21.8473033 L8.03007482,20.2693033 C7.87163382,19.6379399 8.34905967,19.0259 9,19.0259 L12,19.0259 C13.125576,19.0259 14.1643218,19.3978856 15,20.0256197 L15,9.1699 C15,6.99495063 16.6471513,5.11701939 18.7854715,5.00628058 C19.5926205,4.9638236 20.3531109,5.16186905 21,5.53601452 L21,4.9999 C21,2.71078379 22.9175606,0.885510007 25.2127186,1.0062383 C27.1044904,1.10420922 28.6121751,2.5842684 28.9356428,4.42942539 C29.5958082,4.03091645 30.3795807,3.81789589 31.2133326,3.86127029 C33.3525756,3.97337612 35,5.85069262 35,8.0259 L35,10.535463 C35.6464147,10.1616588 36.4062567,9.96381736 37.2127186,10.0062383 C39.3519249,10.1170233 41,11.9950813 41,14.1699 L41,32.0259 Z M39,32.0259 L39,14.1699 C39,13.0265466 38.1495644,12.0574358 37.1084715,12.0035194 C35.9582476,11.9430163 35,12.8551462 35,13.9999 C35,15.3332333 33,15.3332333 33,13.9999 L33,8.0259 C33,6.88193529 32.149797,5.91308952 31.1090471,5.85854954 C29.9583809,5.79868829 29,6.71115371 29,7.8559 C29,9.18923333 27,9.18923333 27,7.8559 L27,5.1699 C27,4.02654657 26.1495644,3.05743579 25.1084715,3.00351942 C23.9582476,2.94301632 23,3.85514622 23,4.9999 L23,8.9999 C23,10.3332333 21,10.3332333 21,8.9999 C21,7.85542437 20.0410274,6.94300185 18.8897186,7.0035617 C17.8497451,7.05741976 17,8.02622135 17,9.1699 L17,24.0259 C17,25.3592333 15,25.3592333 15,24.0259 C15,22.3691847 13.6567153,21.0259 12,21.0259 L10.2819579,21.0259 L10.3660004,21.3607967 C10.7887453,23.0475805 11.0029502,24.7810044 11.003999,26.521456 L11.0119461,32.0259 L39,32.0259 Z M44,7.0259 L39,7.0259 C38.4477153,7.0259 38,6.57818475 38,6.0259 C38,5.47361525 38.4477153,5.0259 39,5.0259 L45,5.0259 C45.5522847,5.0259 46,5.47361525 46,6.0259 L46,30.0259 C46,30.5781847 45.5522847,31.0259 45,31.0259 C44.4477153,31.0259 44,30.5781847 44,30.0259 L44,7.0259 Z M44,43.0259 L44,36.0259 C44,35.4736153 44.4477153,35.0259 45,35.0259 C45.5522847,35.0259 46,35.4736153 46,36.0259 L46,44.0259 C46,44.5781847 45.5522847,45.0259 45,45.0259 L40,45.0259 C39.4477153,45.0259 39,44.5781847 39,44.0259 C39,43.4736153 39.4477153,43.0259 40,43.0259 L44,43.0259 Z M6,43.0259 L10,43.0259 C10.5522847,43.0259 11,43.4736153 11,44.0259 C11,44.5781847 10.5522847,45.0259 10,45.0259 L5,45.0259 C4.44771525,45.0259 4,44.5781847 4,44.0259 L4,36.0259 C4,35.4736153 4.44771525,35.0259 5,35.0259 C5.55228475,35.0259 6,35.4736153 6,36.0259 L6,43.0259 Z M6,7.0259 L6,30.0259 C6,30.5781847 5.55228475,31.0259 5,31.0259 C4.44771525,31.0259 4,30.5781847 4,30.0259 L4,6.0259 C4,5.47361525 4.44771525,5.0259 5,5.0259 L11,5.0259 C11.5522847,5.0259 12,5.47361525 12,6.0259 C12,6.57818475 11.5522847,7.0259 11,7.0259 L6,7.0259 Z M38.643718,35.8438107 C38.7442831,35.3007591 39.2660376,34.9420529 39.8090893,35.042618 C40.3521409,35.1431831 40.7108471,35.6649376 40.610282,36.2079893 C40.5154414,36.7201285 40.4072461,37.2276344 40.2857537,37.7278973 C40.155416,38.2645821 39.6146874,38.5939914 39.0780027,38.4636537 C38.5413179,38.333316 38.2119086,37.7925874 38.3422463,37.2559027 C38.4549621,36.7917786 38.5554957,36.320211 38.643718,35.8438107 Z M37.4733858,40.1168923 C37.6652538,39.599007 38.2406225,39.3347178 38.7585077,39.5265858 C39.276393,39.7184538 39.5406822,40.2938225 39.3488142,40.8117077 C38.9542875,41.8766041 38.5032953,42.8741964 38.0038565,43.7766802 C37.7364379,44.2599045 37.1279215,44.4348495 36.6446972,44.1674309 C36.1614729,43.9000123 35.9865279,43.291496 36.2539465,42.8082717 C36.7028142,41.9971697 37.1125805,41.0907688 37.4733858,40.1168923 Z M34.5868309,45.1652286 C34.9643181,44.7620886 35.5971414,44.7412928 36.0002815,45.1187799 C36.4034215,45.4962671 36.4242173,46.1290905 36.0467302,46.5322305 C35.1436365,47.4966958 34.1537302,48.18607 33.0858122,48.5549245 C32.5637886,48.7352293 31.994439,48.4582115 31.8141342,47.936188 C31.6338294,47.4141644 31.9108472,46.8448147 32.4328708,46.6645099 C33.1693674,46.410127 33.8930634,45.9061425 34.5868309,45.1652286 Z M29.7535397,46.8561296 C30.3022764,46.9186312 30.6964479,47.4141378 30.6339463,47.9628745 C30.5714447,48.5116112 30.0759381,48.9057826 29.5272014,48.843281 C29.2848534,48.8156774 29.0351042,48.780577 28.7663528,48.7371636 C28.4327818,48.6832795 28.2029816,48.6411099 27.5672366,48.5203464 C27.0218373,48.4167445 26.7432783,48.3662588 26.423429,48.3157343 C25.8779083,48.229562 25.5055329,47.7174737 25.5917052,47.1719531 C25.6778775,46.6264324 26.1899658,46.254057 26.7354865,46.3402293 C27.0819249,46.3949539 27.3754712,46.4481559 27.9404743,46.5554816 C28.5571203,46.6726171 28.7765921,46.7128914 29.0852927,46.7627581 C29.3248938,46.8014626 29.5442437,46.8322906 29.7535397,46.8561296 Z M23.3147182,46.3447895 C23.8593105,46.2529323 24.3752546,46.6199466 24.4671118,47.1645388 C24.558969,47.7091311 24.1919547,48.2250753 23.6473624,48.3169324 C23.3498476,48.3671147 23.0737342,48.4215155 22.6200086,48.5166371 C21.9465974,48.6578149 21.8685203,48.6738369 21.5892241,48.7250828 C21.2020649,48.7961197 20.8577907,48.8463452 20.5182932,48.878057 C19.9684021,48.9294212 19.4809884,48.5252853 19.4296242,47.9753943 C19.37826,47.4255033 19.7823958,46.9380896 20.3322869,46.8867253 C20.6073845,46.861029 20.8951124,46.8190529 21.228285,46.7579217 C21.4834161,46.7111097 21.5578871,46.6958276 22.2096384,46.5591908 C22.6873321,46.4590443 22.9847615,46.4004438 23.3147182,46.3447895 Z M17.7580283,46.5378117 C18.2638001,46.7596525 18.4939716,47.349499 18.2721308,47.8552708 C18.05029,48.3610426 17.4604434,48.5912141 16.9546716,48.3693733 C15.9570074,47.9317794 15.0149459,47.2151992 14.1396996,46.2593241 C13.7667325,45.8519988 13.7945854,45.2194467 14.2019107,44.8464796 C14.6092361,44.4735124 15.2417882,44.5013653 15.6147553,44.9086906 C16.3132015,45.6714787 17.035505,46.2208996 17.7580283,46.5378117 Z M13.9207618,42.5442565 C14.1964192,43.0228287 14.0319243,43.6342527 13.553352,43.9099102 C13.0747798,44.1855677 12.4633558,44.0210728 12.1876983,43.5425005 C11.6687833,42.6416058 11.1967798,41.6548808 10.7828477,40.6126229 C10.5789964,40.0993364 10.8298431,39.5179813 11.3431296,39.3141299 C11.8564161,39.1102785 12.4377713,39.3611252 12.6416227,39.8744117 C13.0209308,40.8294886 13.4514166,41.7294208 13.9207618,42.5442565 Z M11.7630732,37.2241399 C11.9065347,37.7574664 11.5904867,38.3061116 11.0571601,38.4495732 C10.5238336,38.5930347 9.97518839,38.2769867 9.83172683,37.7436601 C9.69612361,37.2395474 9.57549526,36.7325436 9.47116733,36.2286397 C9.3591973,35.6878244 9.70684505,35.1586374 10.2476603,35.0466673 C10.7884756,34.9346973 11.3176626,35.282345 11.4296327,35.8231603 C11.5260213,36.2887172 11.6376018,36.7576928 11.7630732,37.2241399 Z" id="Combined-Shape" fill="#4A81FD" fill-rule="nonzero"></path>
    </g>
</svg>