<?xml version="1.0" encoding="UTF-8"?>
<svg width="50px" height="50px" viewBox="0 0 50 50" version="1.1" xmlns="http://www.w3.org/2000/svg" xmlns:xlink="http://www.w3.org/1999/xlink">
    <!-- Generator: Sketch 53.2 (72643) - https://sketchapp.com -->
    <title>AT/ICO/LE-Power-agenda@2x</title>
    <desc>Created with Sketch.</desc>
    <g id="AT/ICO/LE-Power-agenda" stroke="none" stroke-width="1" fill="none" fill-rule="evenodd">
        <path d="M42.0625,6.25 L37.375,6.25 L37.375,1.171875 C37.375,0.524707031 36.850293,0 36.203125,0 L35.421875,0 C34.774707,0 34.25,0.524707031 34.25,1.171875 L34.25,6.25 L15.5,6.25 L15.5,1.171875 C15.5,0.524707031 14.975293,0 14.328125,0 L13.546875,0 C12.899707,0 12.375,0.524707031 12.375,1.171875 L12.375,6.25 L7.6875,6.25 C5.09863281,6.25 3,8.34863281 3,10.9375 L3,45.3125 C3,47.9013672 5.09863281,50 7.6875,50 L42.0625,50 C44.6513672,50 46.75,47.9013672 46.75,45.3125 L46.75,10.9375 C46.75,8.34863281 44.6513672,6.25 42.0625,6.25 Z M7.6875,9.375 L42.0625,9.375 C42.9240234,9.375 43.625,10.0759766 43.625,10.9375 L43.625,15.625 L6.125,15.625 L6.125,10.9375 C6.125,10.0759766 6.82597656,9.375 7.6875,9.375 Z M42.0625,46.875 L7.6875,46.875 C6.82597656,46.875 6.125,46.1740234 6.125,45.3125 L6.125,18.75 L43.625,18.75 L43.625,45.3125 C43.625,46.1740234 42.9240234,46.875 42.0625,46.875 Z M32.8112063,33.5353375 L20.8762937,26.6447125 C20.4054685,26.3728814 19.8034435,26.5341935 19.5316124,27.0050187 L18.5472374,28.7100062 C18.2754064,29.1808314 18.4367185,29.7828564 18.9075437,30.0546875 L19.1917083,30.21875 C17.4902776,33.1657144 18.3343958,36.8836861 21.041704,38.8269634 L19.0566708,42.2651417 L20.1933292,42.9213917 L22.1783624,39.4832134 C25.214944,40.8561724 28.856861,39.7282144 30.5582917,36.78125 L30.8424563,36.9453125 C31.3132815,37.2171436 31.9153065,37.0558314 32.1871376,36.5850062 L33.1715126,34.8800187 C33.4433436,34.4091935 33.2820315,33.8071685 32.8112063,33.5353375 Z M31.2145417,35.6445917 L30.0778834,34.9883417 L29.4216334,36.125 C27.9709107,38.6377253 24.7631161,39.4975816 22.25,38.0466334 C19.7372747,36.5959107 18.8774184,33.3881161 20.3283666,30.875 L20.9846166,29.7383417 L19.8479583,29.0820917 L20.5042083,27.9454333 L31.8707917,34.5079333 L31.2145417,35.6445917 Z M30.0135209,31.1623208 L31.1501792,31.8185708 L33.7751792,27.2719374 C33.9564067,26.9580421 33.8488703,26.5567108 33.534975,26.3754833 C33.2210797,26.1942557 32.8197484,26.3017921 32.6385209,26.6156874 L30.0135209,31.1623208 Z M23.1935708,27.2248208 L24.3302291,27.8810708 L26.9552291,23.3344374 C27.1364567,23.0205421 27.0289203,22.6192108 26.715025,22.4379833 C26.4011297,22.2567557 25.9997983,22.3642921 25.8185708,22.6781874 L23.1935708,27.2248208 Z" fill="#4A81FD" fill-rule="nonzero"></path>
    </g>
</svg>