<?xml version="1.0" encoding="UTF-8"?>
<svg width="50px" height="50px" viewBox="0 0 50 50" version="1.1" xmlns="http://www.w3.org/2000/svg" xmlns:xlink="http://www.w3.org/1999/xlink">
    <!-- Generator: Sketch 53.2 (72643) - https://sketchapp.com -->
    <title>AT/ICO/LE-Voice-recognition@2x</title>
    <desc>Created with Sketch.</desc>
    <g id="AT/ICO/LE-Voice-recognition" stroke="none" stroke-width="1" fill="none" fill-rule="evenodd">
        <path d="M47,7 L42,7 C41.4477153,7 41,6.55228475 41,6 C41,5.44771525 41.4477153,5 42,5 L48,5 C48.5522847,5 49,5.44771525 49,6 L49,12 C49,12.5522847 48.5522847,13 48,13 C47.4477153,13 47,12.5522847 47,12 L47,7 Z M3,7 L3,12 C3,12.5522847 2.55228475,13 2,13 C1.44771525,13 1,12.5522847 1,12 L1,6 C1,5.44771525 1.44771525,5 2,5 L8,5 C8.55228475,5 9,5.44771525 9,6 C9,6.55228475 8.55228475,7 8,7 L3,7 Z M47,43 L47,38 C47,37.4477153 47.4477153,37 48,37 C48.5522847,37 49,37.4477153 49,38 L49,44 C49,44.5522847 48.5522847,45 48,45 L42,45 C41.4477153,45 41,44.5522847 41,44 C41,43.4477153 41.4477153,43 42,43 L47,43 Z M3,43 L8,43 C8.55228475,43 9,43.4477153 9,44 C9,44.5522847 8.55228475,45 8,45 L2,45 C1.44771525,45 1,44.5522847 1,44 L1,38 C1,37.4477153 1.44771525,37 2,37 C2.55228475,37 3,37.4477153 3,38 L3,43 Z M22.7150294,44.6990944 C22.0883975,45.3400096 21,44.896348 21,44 L21,38 L10,38 C8.34371525,38 7,36.6562847 7,35 L7,14 C7,12.3437153 8.34371525,11 10,11 L40,11 C41.6562847,11 43,12.3437153 43,14 L43,35 C43,36.6562847 41.6562847,38 40,38 L29.2648297,38 L22.7150294,44.6990944 Z M23,41.5467844 L28.1289706,36.3009056 C28.3171132,36.1084745 28.5748767,36 28.844,36 L40,36 C40.5517153,36 41,35.5517153 41,35 L41,14 C41,13.4482847 40.5517153,13 40,13 L10,13 C9.44828475,13 9,13.4482847 9,14 L9,35 C9,35.5517153 9.44828475,36 10,36 L22,36 C22.5522847,36 23,36.4477153 23,37 L23,41.5467844 Z M32,16 C32,15.4477153 32.4477153,15 33,15 C33.5522847,15 34,15.4477153 34,16 L34,33 C34,33.5522847 33.5522847,34 33,34 C32.4477153,34 32,33.5522847 32,33 L32,16 Z M28,21 C28,20.4477153 28.4477153,20 29,20 C29.5522847,20 30,20.4477153 30,21 L30,28 C30,28.5522847 29.5522847,29 29,29 C28.4477153,29 28,28.5522847 28,28 L28,21 Z M36,21 C36,20.4477153 36.4477153,20 37,20 C37.5522847,20 38,20.4477153 38,21 L38,28 C38,28.5522847 37.5522847,29 37,29 C36.4477153,29 36,28.5522847 36,28 L36,21 Z M24,23.333 C24,22.7807153 24.4477153,22.333 25,22.333 C25.5522847,22.333 26,22.7807153 26,23.333 L26,25.667 C26,26.2192847 25.5522847,26.667 25,26.667 C24.4477153,26.667 24,26.2192847 24,25.667 L24,23.333 Z M20,16 C20,15.4477153 20.4477153,15 21,15 C21.5522847,15 22,15.4477153 22,16 L22,33 C22,33.5522847 21.5522847,34 21,34 C20.4477153,34 20,33.5522847 20,33 L20,16 Z M16,21 C16,20.4477153 16.4477153,20 17,20 C17.5522847,20 18,20.4477153 18,21 L18,28 C18,28.5522847 17.5522847,29 17,29 C16.4477153,29 16,28.5522847 16,28 L16,21 Z M12,23.333 C12,22.7807153 12.4477153,22.333 13,22.333 C13.5522847,22.333 14,22.7807153 14,23.333 L14,25.667 C14,26.2192847 13.5522847,26.667 13,26.667 C12.4477153,26.667 12,26.2192847 12,25.667 L12,23.333 Z" id="Combined-Shape" fill="#4A81FD" fill-rule="nonzero"></path>
    </g>
</svg>