<?xml version="1.0" encoding="UTF-8"?>
<svg width="50px" height="50px" viewBox="0 0 50 50" version="1.1" xmlns="http://www.w3.org/2000/svg" xmlns:xlink="http://www.w3.org/1999/xlink">
    <!-- Generator: Sketch 53.2 (72643) - https://sketchapp.com -->
    <title>AT/ICO/LE-Voice@2x</title>
    <desc>Created with Sketch.</desc>
    <g id="AT/ICO/LE-Voice" stroke="none" stroke-width="1" fill="none" fill-rule="evenodd">
        <path d="M9.19225707,16.6373389 C9.13718232,16.1955805 9.08614699,15.7838283 9.03301965,15.3537285 C8.99235239,14.9784278 8.9712,14.6185625 8.9712,14.263 C8.9712,10.3088779 11.306027,6.78382052 14.8059302,5.2197032 C16.2577559,4.46907593 18.3630439,4.02706906 20.6357591,4.00106545 C21.1880077,3.99474682 21.6408159,4.4373105 21.6471346,4.9895591 C21.6534532,5.5418077 21.2108895,5.99461592 20.6586409,6.00093455 C18.6769939,6.02360786 16.873399,6.40227404 15.6735917,7.02080676 C12.8356346,8.290515 10.9712,11.1053869 10.9712,14.263 C10.9712,14.5431648 10.9881587,14.8316833 11.019562,15.1226401 C11.071003,15.5381717 11.1219249,15.9490087 11.1768929,16.3899111 C11.270737,17.1426412 11.3619416,17.8672571 11.4501532,18.5583946 C11.5230796,19.1297735 11.0994572,19.6444693 10.524719,19.6827852 C10.5102016,19.6832497 10.4979193,19.6836427 10.4874186,19.6839699 C10.0465578,19.7501283 9.70593469,20.1065203 9.65673752,20.5484714 C9.65642749,20.555866 9.65594725,20.5649005 9.65512009,20.5804614 C9.65278227,20.6307244 9.6534577,20.6977601 9.65147788,20.7069653 C9.65491527,20.7551854 9.65716349,20.7867237 9.65853838,20.8090743 C9.65904122,20.8132832 9.65955785,20.8176097 9.66008904,20.822058 C9.69035705,21.2871518 9.80666815,22.0173962 9.94258066,22.7028864 C10.0558467,23.2662359 10.401492,24.4792129 10.5737659,24.9028566 C10.580685,24.915827 10.5873682,24.929023 10.5938068,24.9424434 C10.7956117,25.3630789 11.2672494,25.5856709 11.7232985,25.4684712 C12.2540069,25.3320848 12.7956342,25.6481979 12.9379052,26.1773591 C13.023122,26.4943132 13.1047383,26.7940387 13.1798668,27.0670784 C13.2081512,27.1698722 13.2316556,27.2548851 13.2495604,27.3194 C13.2599437,27.3462087 13.2692388,27.3736361 13.2773855,27.4016368 C13.765492,29.0792834 14.7996779,30.548563 16.2040523,31.5809536 C17.9297051,32.8480413 17.7701635,35.4731785 15.9181056,36.5455019 L6.254388,42.1383384 C4.31371749,43.2623389 3.08925697,45.3074611 2.99940528,47.5598599 C2.97739129,48.1117057 2.51218598,48.5412193 1.96034015,48.5192053 C1.40849431,48.4971913 0.97898073,48.031986 1.00099472,47.4801401 C1.11805539,44.5456678 2.71624843,41.8763289 5.25229436,40.4074981 L14.9161359,34.8145898 C15.5255543,34.4617425 15.5777834,33.6023523 15.0198981,33.1927161 C13.2899384,31.9209799 12.0089856,30.119559 11.386041,28.0582378 C11.3718301,28.0232998 11.3594838,27.9872802 11.3491389,27.9502831 C11.3306418,27.8841266 11.2972896,27.7639641 11.2515332,27.5976716 C11.2416708,27.5618288 11.2316991,27.5255358 11.2216243,27.488813 C10.2259682,27.402567 9.31718027,26.8169492 8.83797324,25.9020231 C8.81624374,25.8666815 8.79646106,25.8295835 8.77883352,25.7908029 C8.54367334,25.2734505 8.12849243,23.8266192 7.98129544,23.0944897 C7.83769284,22.3702331 7.71658379,21.6201255 7.66993895,20.9997826 C7.65798605,20.8606503 7.65798605,20.8606503 7.660294,20.8190377 C7.65873605,20.8389003 7.65873605,20.8389003 7.66065773,20.8849753 C7.65300517,20.7434029 7.65163046,20.611259 7.65898967,20.4604731 C7.65755769,20.4856408 7.65755836,20.4856204 7.65788486,20.4757728 C7.65830768,20.4466409 7.65830768,20.4466409 7.66214551,20.3793035 C7.66841636,20.2977825 7.68466135,20.2173383 7.7105167,20.1397722 C7.68075341,20.2862983 7.66669218,20.3555224 7.66087139,20.3930699 C7.66658434,20.3500366 7.6808732,20.2796727 7.7115167,20.1287722 C7.76060951,19.9814938 7.84331836,19.8476681 7.95309322,19.7378932 C8.00290433,19.689059 8.00290433,19.689059 8.1061248,19.6124497 C8.25871246,19.5114978 8.25871246,19.5114978 8.6622,19.444 L8.6622,20.444 L7.66799929,20.3364595 C7.78090516,19.2926563 8.42950751,18.40542 9.35880709,17.9651675 C9.3042852,17.5334144 9.24874516,17.0904338 9.19225707,16.6373389 Z M8.9556584,21.4001569 L9.03231708,21.3727958 C8.96316827,21.3936515 8.86267206,21.4104634 8.6622,21.444 C8.76405461,21.444 8.86264554,21.4286931 8.9556584,21.4001569 Z M32.1957136,20 L27.4886068,24.7071068 C26.8586419,25.3370716 25.7815,24.8909049 25.7815,24 L25.7815,20 C24.1252153,20 22.7815,18.6562847 22.7815,17 L22.7815,4 C22.7815,2.34371525 24.1252153,1 25.7815,1 L45.7815,1 C47.4377847,1 48.7815,2.34371525 48.7815,4 L48.7815,17 C48.7815,18.6562847 47.4377847,20 45.7815,20 L32.1957136,20 Z M31.0743932,18.2928932 C31.2619296,18.1053568 31.5162835,18 31.7815,18 L45.7815,18 C46.3332153,18 46.7815,17.5517153 46.7815,17 L46.7815,4 C46.7815,3.44828475 46.3332153,3 45.7815,3 L25.7815,3 C25.2297847,3 24.7815,3.44828475 24.7815,4 L24.7815,17 C24.7815,17.5517153 25.2297847,18 25.7815,18 L26.7815,18 C27.3337847,18 27.7815,18.4477153 27.7815,19 L27.7815,21.5857864 L31.0743932,18.2928932 Z M30.0816871,14.2169305 C29.8722007,15.159619 28.5805402,15.2872309 28.1906352,14.4037603 L26.8666352,11.4037603 C26.6436445,10.8984945 26.8724738,10.3081259 27.3777397,10.0851352 C27.8830055,9.86214453 28.4733741,10.0909738 28.6963648,10.5962397 L28.7902326,10.8089311 L30.1293129,4.78306954 C30.3659827,3.71805554 31.894207,3.74771862 32.0893699,4.82111456 L33.2599278,11.2591831 L34.1353575,7.75746437 C34.3706576,6.81626396 35.6736656,6.72783171 36.0339767,7.62860932 L36.8854195,9.75721636 L38.1353575,4.75746437 C38.3964302,3.71317354 39.8968122,3.76204712 40.0893699,4.82111456 L41.3117978,11.5444679 L41.8183695,9.73096553 C42.0645099,8.84979436 43.2667701,8.73447215 43.6759272,9.5527864 L44.6759272,11.5527864 C44.9229164,12.0467649 44.7226921,12.6474379 44.2287136,12.8944272 C43.8298926,13.0938377 43.3615239,13.0017372 43.0658918,12.698887 L42.0686305,16.2690345 C41.7830718,17.291321 40.3115028,17.2231852 40.1216301,16.1788854 L38.9510722,9.74081692 L38.0756425,13.2425356 C37.8403424,14.183736 36.5373344,14.2721683 36.1770233,13.3713907 L35.3255805,11.2427836 L34.0756425,16.2425356 C33.8145698,17.2868265 32.3141878,17.2379529 32.1216301,16.1788854 L31.0074602,10.0509512 L30.0816871,14.2169305 Z M26.7613523,33.1925464 C26.2035657,33.60211 26.255607,34.4612179 26.8655116,34.8140594 L36.528688,40.4081616 C39.0643289,41.8767579 40.6624982,44.5449194 40.7806898,47.4792538 C40.8029172,48.0310911 40.3735835,48.4964624 39.8217462,48.5186898 C39.2699089,48.5409172 38.8045376,48.1115835 38.7823102,47.5597462 C38.6915801,45.3071965 37.4670942,43.2629036 35.5264884,42.1389406 L25.8637414,36.545087 C24.0107537,35.4730982 23.8517203,32.8477429 25.5775329,31.5805379 C26.9815506,30.549308 28.0160375,29.0793695 28.5043145,27.4011368 C28.5116392,27.3759616 28.5198921,27.3512498 28.5290296,27.3270345 C28.5473093,27.2615783 28.5717878,27.1735109 28.601614,27.0655597 C28.6769634,26.7928446 28.7586742,26.4934554 28.8437948,26.1768591 C28.9860658,25.6476979 29.5276931,25.3315848 30.0584015,25.4679712 C30.5144506,25.5851709 30.9860883,25.3625789 31.1878932,24.9419434 C31.1951369,24.926845 31.2026901,24.9120304 31.2105407,24.8975018 C31.3842427,24.4633919 31.7277404,23.2562537 31.8382589,22.7026935 C31.8920375,22.4361906 31.9473119,22.1345155 31.9939892,21.8419484 C32.0810026,21.2965613 32.5936644,20.9249759 33.1390516,21.0119892 C33.6844387,21.0990026 34.0560241,21.6116644 33.9690108,22.1570516 C33.9177389,22.4784164 33.8576262,22.8064981 33.7991473,23.0962829 C33.6555245,23.8156679 33.2388646,25.2685783 33.0052805,25.787178 C32.9858889,25.8302307 32.9636839,25.8714387 32.9389398,25.9106246 C32.4584211,26.8204524 31.5521866,27.4025073 30.5596818,27.4883471 C30.5494786,27.525405 30.5393778,27.5620263 30.529386,27.5981903 C30.4833717,27.7647315 30.4496247,27.8856322 30.4310748,27.9515162 C30.4218328,27.9843411 30.4110149,28.0163933 30.3987169,28.0476002 C29.7767176,30.1138274 28.49396,31.9199722 26.7613523,33.1925464 Z M32.4653565,24.4468738 C32.5848035,24.4953103 32.6976206,24.5684071 32.7966068,24.6673932 C32.68416,24.5684536 32.6274952,24.5185954 32.5407778,24.4823067 L32.4653565,24.4468738 Z" id="Combined-Shape" fill="#4A81FD" fill-rule="nonzero"></path>
    </g>
</svg>