<?xml version="1.0" encoding="UTF-8"?>
<svg width="50px" height="50px" viewBox="0 0 50 50" version="1.1" xmlns="http://www.w3.org/2000/svg" xmlns:xlink="http://www.w3.org/1999/xlink">
    <!-- Generator: Sketch 53.2 (72643) - https://sketchapp.com -->
    <title>AT/ICO/LE-VoiceRecognition@2x</title>
    <desc>Created with Sketch.</desc>
    <g id="AT/ICO/LE-VoiceRecognition" stroke="none" stroke-width="1" fill="none" fill-rule="evenodd">
        <path d="M44.4747102,39.8042853 C42.5188108,36.6484688 42.4067496,29.4860325 44.4807442,27.2275678 C46.4116453,25.1259888 47.1719377,20.3116662 47.1796957,20.2633936 C47.4193344,11.0424788 40.3344789,7.28239374 40.2629321,7.24618935 C40.2094875,7.21774304 35.8356517,4.86618133 30.9334041,4.86618133 C29.1205983,4.86618133 27.445714,5.18771085 25.9561617,5.82128777 C20.1936287,8.27198056 18.754073,12.8018401 18.5609829,16.1697109 C18.5187444,16.9213831 18.6342537,17.825631 18.7463149,18.7005706 C18.9661273,20.4107973 19.1919738,22.1796406 18.3515146,23.3286992 C17.5912223,24.3674205 15.5715342,27.1249886 16.0749477,27.9482076 C16.2525217,28.2404288 16.6231857,28.2938734 17.1688377,28.342146 C17.6196686,28.3817984 18.0851537,28.4231748 18.3661688,28.7662546 C18.5282265,28.9627927 18.5928772,29.2188095 18.5601209,29.5274089 C18.5058143,30.0213403 18.3592727,30.5273398 18.2247992,30.9626546 C18.201525,31.0419595 18.1567005,31.1385045 18.1058419,31.2402216 C18.0799816,31.2945282 18.0360192,31.3824532 18.0144689,31.4445179 C18.1446323,31.5419249 18.4575418,31.6988106 18.7144206,31.7944937 L18.7402809,31.7944937 L18.8333779,31.8410422 L18.6687341,32.2349805 L19.0428462,32.3410077 C19.0230199,32.4832392 19.0652584,33.1780188 19.0842226,33.3116303 C19.0790506,33.3392146 19.1290471,33.3461107 19.1661135,33.3512827 C19.3298953,33.373695 19.577292,33.4073133 19.8065865,33.6193676 C20.3013799,34.0753706 20.0858776,34.936518 19.9695063,35.3985551 C19.7402118,36.3381454 19.8436529,37.0992997 20.2436253,37.6087473 C20.673768,38.1561232 21.4263022,38.3724876 22.3960628,38.2078438 C22.778795,38.1423311 23.2106617,38.0699223 23.6666647,38.0087196 C25.3803394,37.5518546 29.7774495,36.0683364 32.4479547,32.4013483 C32.6884553,32.0720607 33.0401552,31.8582824 33.4401275,31.7996657 C33.8366519,31.7410491 34.2323142,31.8444902 34.5538437,32.0893009 C35.2098329,32.5918524 35.3468924,33.5460968 34.858133,34.2176022 C33.4125432,36.2002239 31.46785,37.8535579 29.0697398,39.1362279 C29.368857,39.4905138 29.5817734,39.9163465 29.7076267,40.4094159 L44.4747102,39.8042853 Z M49.9639862,20.7090525 C49.8743372,21.2917709 49.0140518,26.4922737 46.5400847,29.1851912 C46.2711378,29.4782744 45.7134177,31.0143752 45.8125488,33.6702262 C45.9125419,36.3657297 46.6047355,38.0544061 47.0452223,38.5310973 C47.6839713,39.2215669 47.8701653,40.236152 47.5219135,41.1162636 C47.1693516,42.0006853 46.3392366,42.5971958 45.4048183,42.6351242 L29.3585129,43.2911134 C28.178422,43.2911134 27.1871112,42.4273799 27.0017792,41.2386689 C26.9707468,41.0395448 26.9233363,40.7378415 25.522571,40.7378415 C25.4139578,40.7378415 25.3027586,40.7395655 25.1915594,40.7438755 C24.0787052,41.0843692 23.3141029,41.2188427 23.1701473,41.242117 C22.8512038,41.2964236 22.5495005,41.243841 22.2762435,41.1085055 C20.491884,41.247289 18.9669893,40.6119881 18.0015388,39.3465582 C17.1878019,38.2776666 16.8714444,36.8760392 17.0981529,35.3761428 C16.5999115,34.8641092 16.4033733,34.2512205 16.3283785,33.9090028 C16.3206204,33.8719364 16.3076903,33.8159058 16.2938981,33.7116026 C15.9809887,33.46593 15.735316,33.190949 15.5611901,32.8926937 C15.1922501,32.2677369 15.091395,31.5608891 15.2612108,30.8290431 C14.5897055,30.54027 14.0587077,30.081681 13.6802855,29.4610342 C12.164011,26.977585 14.4336818,23.8795232 16.0913259,21.6167484 C16.1852849,21.4150382 16.1421845,20.5530288 15.9516804,19.0703726 C15.822379,18.0652696 15.6887675,17.0248242 15.7473841,16.0033431 C16.0861538,10.0890964 19.3255853,5.53423863 24.8683058,3.17664286 C26.7026619,2.39652433 28.7430382,2 30.9334041,2 C36.3838897,2 41.0490847,4.42655653 41.5637043,4.70326155 C42.4524361,5.16960865 50.2768956,9.59085498 49.9924325,20.3944191 C49.9889844,20.5004462 49.9803644,20.6056114 49.9639862,20.7090525 Z M11.8281721,38.9018476 C8.77665874,36.7830284 7.67845874,32.0031862 9.37920333,28.2474111 C9.54643316,27.8793331 9.8429644,27.6129722 10.1938022,27.5164271 C10.5161938,27.4259161 10.8489294,27.4862568 11.1316685,27.6827949 C11.6971467,28.0750092 11.8997189,28.9146064 11.5919815,29.5938698 C10.4963675,32.0143923 11.181665,35.0796978 13.1194622,36.4252945 C13.6849404,36.8183708 13.8875126,37.657968 13.5797752,38.3372314 C13.3642729,38.8121986 12.9401643,39.1078678 12.4729551,39.1078678 C12.2462467,39.1078678 12.0229862,39.0371831 11.8281721,38.9018476 Z M10.7199728,44.974273 C11.0811547,45.1673631 11.3397576,45.4863066 11.4483707,45.8716248 C11.5543979,46.2483229 11.5035394,46.6431232 11.3044152,46.9818929 C11.0354682,47.4396199 10.5303307,47.724083 9.98467875,47.724083 C9.73038597,47.724083 9.4769552,47.6602943 9.25197074,47.540475 C4.96778391,45.250116 1.90506443,41.4874449 0.627566462,36.9463792 C-0.606831031,32.5578892 -0.0077344824,27.965103 2.3145189,24.0127898 C2.72311137,23.3180102 3.64459944,23.0680275 4.36610133,23.4533457 C4.7290073,23.6472978 4.98761012,23.9662413 5.09622331,24.3524215 C5.20225047,24.7291197 5.1505299,25.123058 4.95140573,25.4618277 C3.02653869,28.7366015 2.53088327,32.5423731 3.55322644,36.1757428 C4.61349803,39.94531 7.15901186,43.0700942 10.7199728,44.974273 Z M12.9099077,40.6915516 C13.2866058,40.8820556 13.5641729,41.2130673 13.6719241,41.5992475 C13.7762272,41.9707735 13.7201966,42.3586778 13.5133143,42.6914134 C13.2366093,43.1379343 12.7185416,43.4163633 12.1616835,43.4163633 C11.9030807,43.4163633 11.6444779,43.3551607 11.4160454,43.2396514 C8.0498986,41.5354588 5.67247661,38.7270321 4.72081821,35.3307149 C3.83639654,32.1748985 4.31653579,28.8777124 6.074173,26.0468735 C6.49310958,25.3710581 7.43356186,25.1245234 8.17144193,25.4994975 C8.54814004,25.6900016 8.82570708,26.0201512 8.93432027,26.4063314 C9.03862341,26.7778575 8.98259279,27.1657617 8.77571053,27.4984973 C7.37666924,29.754376 7.03272748,32.3645405 7.80767395,34.8505757 C8.58520645,37.345231 10.3971503,39.4192256 12.9099077,40.6915516 Z" id="Combined-Shape" fill="#4A81FD" fill-rule="nonzero"></path>
    </g>
</svg>