<svg id="Layer_1" data-name="Layer 1" xmlns="http://www.w3.org/2000/svg" viewBox="0 0 50 50"><defs><style>.cls-1{fill:#323231;}.cls-2{fill:none;}</style></defs><title>DS-ic-list</title><path class="cls-1" d="M26.52,14.56a.26.26,0,0,0-.25-.26H24a.26.26,0,0,0-.26.26v8.51a.26.26,0,0,0,.26.26h2.24a.25.25,0,0,0,.25-.26ZM34.6,27.45a.24.24,0,0,0,.35,0L45,14.51c.08-.11,0-.21-.1-.21h-3a.61.61,0,0,0-.41.21l-8.59,11a.28.28,0,0,0,0,.37Zm1.11-12.91a.16.16,0,0,0-.15-.24h-2.5a.45.45,0,0,0-.37.24l-4,9a.24.24,0,0,0,.13.33l2.08.84a.27.27,0,0,0,.35-.14ZM17.08,25.93a.27.27,0,0,0,0-.37l-8.58-11a.61.61,0,0,0-.42-.21h-3c-.14,0-.18.1-.1.21l10,12.91a.23.23,0,0,0,.35,0Zm4.12-2.11a.24.24,0,0,0,.13-.33l-4-8.95a.44.44,0,0,0-.37-.24h-2.5a.16.16,0,0,0-.15.24l4.48,10a.27.27,0,0,0,.35.14ZM10.83,35.44a.26.26,0,0,0,.25.26h2.55a.26.26,0,0,0,.26-.26V32.12a.26.26,0,0,1,.26-.26h21.7a.26.26,0,0,1,.26.26v3.32a.26.26,0,0,0,.26.26h2.54a.26.26,0,0,0,.26-.26V29.06a.26.26,0,0,0-.26-.26H11.08a.26.26,0,0,0-.25.26Z"/><rect class="cls-2" x="5" y="5" width="40" height="40"/></svg>