<svg id="Layer_1" data-name="Layer 1" xmlns="http://www.w3.org/2000/svg" viewBox="0 0 50 50"><defs><style>.cls-1{fill:#323231;}.cls-2{fill:none;}</style></defs><title>DS-ic-list</title><rect class="cls-1" x="23.55" y="14.84" width="3.26" height="5.82" rx="0.24"/><path class="cls-1" d="M17.65,22.12a.24.24,0,0,0,.31.13l2.6-1a.21.21,0,0,0,.12-.3L18,15.06a.39.39,0,0,0-.33-.22H14.58a.15.15,0,0,0-.14.22Z"/><path class="cls-1" d="M15.67,23.67a.27.27,0,0,0,0-.35L9.18,15a.56.56,0,0,0-.38-.19H5.13C5,14.84,5,14.93,5,15l8.21,10.48a.22.22,0,0,0,.32,0Z"/><path class="cls-1" d="M35.56,15.06a.15.15,0,0,0-.14-.22H32.31a.39.39,0,0,0-.33.22l-2.66,5.85a.22.22,0,0,0,.12.3l2.6,1a.24.24,0,0,0,.31-.13Z"/><path class="cls-1" d="M8.2,34.92a.24.24,0,0,0,.24.24H11.6a.24.24,0,0,0,.24-.24v-4a.23.23,0,0,1,.23-.24H37.93a.24.24,0,0,1,.24.24v4a.23.23,0,0,0,.23.24h3.16a.23.23,0,0,0,.23-.24v-7.6a.23.23,0,0,0-.23-.24H8.44a.24.24,0,0,0-.24.24Z"/><path class="cls-1" d="M45,15c.08-.1,0-.19-.09-.19H41.2a.56.56,0,0,0-.38.19L34.3,23.32a.27.27,0,0,0,0,.35l2.1,1.87a.22.22,0,0,0,.32,0Z"/><rect class="cls-2" x="5" y="5" width="40" height="40"/><rect class="cls-2" x="5" y="5" width="40" height="40"/></svg>