<?xml version="1.0" encoding="utf-8"?>
<!-- Generator: Adobe Illustrator 22.1.0, SVG Export Plug-In . SVG Version: 6.00 Build 0)  -->
<svg version="1.1" id="Layer_1" xmlns="http://www.w3.org/2000/svg" xmlns:xlink="http://www.w3.org/1999/xlink" x="0px" y="0px"
	 viewBox="0 0 20 20" style="enable-background:new 0 0 20 20;" xml:space="preserve">
<style type="text/css">
	.st0{fill:none;}
	.st1{display:none;}
	.st2{display:inline;fill:#2081F7;}
	.st3{fill:#2081F7;}
</style>
<rect class="st0" width="20" height="20"/>
<g class="st1">
	<path class="st2" d="M18.1,6.4c0,2.1,0.1,4.2-0.7,6.2c-1.3,3.3-3.5,5.7-6.8,7.1c-0.4,0.2-0.7,0.2-1.1,0c-4.8-2.2-7.2-5.9-7.5-11
		C1.9,6.9,2,5.2,2,3.4c0-0.5,0.1-0.7,0.6-0.8c2.4-0.5,4.7-1.2,7-2.2c0.3-0.2,0.7-0.2,1,0c2.3,1,4.6,1.7,7,2.2
		C18,2.7,18.1,3,18.1,3.4C18.1,4.4,18.1,5.4,18.1,6.4z M16.7,7.4c0-1.2,0-2.1,0-2.9c0-0.4-0.1-0.6-0.5-0.7c-1.9-0.4-3.8-1.1-5.7-1.8
		c-0.4-0.2-0.7-0.1-1,0C7.7,2.7,5.9,3.3,4,3.7C3.5,3.8,3.3,4,3.3,4.6c0,1.3,0,2.6,0,3.9c0.2,4.4,2.2,7.6,6.1,9.7
		c0.4,0.2,0.8,0.2,1.2,0c2.2-1.1,3.8-2.7,4.9-4.9C16.6,11.3,16.8,9.2,16.7,7.4z"/>
	<path class="st2" d="M10.5,10.8c0-0.6,0-1.3,0-1.9c0-0.4-0.1-0.5-0.5-0.5S9.5,8.5,9.5,8.9c0,1.2,0,2.5,0,3.7c0,0.6-0.1,0.8-0.6,0.5
		c-0.1,0-0.2-0.2-0.3-0.2c-0.3-0.2-0.6-0.6-1-0.5c-0.3,0.1-0.5,0.5-0.8,0.8c-0.1,0.1-0.2,0.2-0.4,0.3c-0.2,0.2-0.5,0.2-0.7-0.1
		c-0.2-0.2-0.1-0.4,0-0.6c0.3-0.3,0.6-0.7,0.9-0.9c0.5-0.4,0.4-0.8,0.3-1.3c-0.1-0.3-0.3-0.2-0.4-0.2c-0.3,0-0.7,0-1,0S5,10.2,5,9.9
		s0.2-0.5,0.5-0.5c0.2,0,0.4,0,0.6,0c0.4-0.1,0.9,0.2,1-0.2s0.2-0.9-0.2-1.3C6.5,7.6,6.3,7.4,6.1,7.1C5.9,6.9,5.8,6.6,6,6.4
		s0.5-0.2,0.7,0c0,0,0,0,0.1,0c0.7,1.1,1.8,1.1,2.9,1c0.4,0,0.8,0,1.2,0c0.9,0.1,1.7-0.1,2.3-0.9C13.4,6.2,13.7,6,14,6.3
		c0.4,0.3,0.1,0.6-0.2,0.9c-0.5,0.5-1,0.9-0.9,1.6C13,9.1,13,9.3,13.4,9.3c0.3,0,0.7,0,1,0s0.4,0.2,0.4,0.5s-0.2,0.4-0.4,0.5
		c-0.3,0-0.5,0-0.8,0s-0.6-0.2-0.7,0.2c-0.1,0.4-0.3,0.8,0.2,1.2c0.4,0.3,0.7,0.7,1,1c0.2,0.2,0.3,0.5,0.1,0.7
		c-0.2,0.3-0.5,0.2-0.7,0c-0.1-0.1-0.1-0.1-0.2-0.2c-0.3-0.3-0.6-0.7-0.9-0.8c-0.4-0.1-0.6,0.4-1,0.5c-0.9,0.4-0.8,0.3-0.8-0.5
		C10.5,11.9,10.5,11.4,10.5,10.8z"/>
	<path class="st2" d="M10,7C9.5,7,9,7,8.5,7C8.1,7,8.1,6.8,8.2,6.4C8.4,5.6,9.1,5,10,5s1.7,0.5,1.9,1.3C12,6.8,11.9,7,11.4,7
		C10.9,6.9,10.5,7,10,7L10,7z"/>
</g>
<g>
	<path class="st3" d="M18.4,12.1c0.4,0.4,0.6,0.9,0.6,1.5V17c0,0.6-0.2,1.1-0.6,1.5s-0.9,0.6-1.5,0.6H3.2c-0.6,0-1.1-0.2-1.5-0.6
		S1.1,17.6,1.1,17v-3.4c0-0.6,0.2-1.1,0.6-1.5c0.4-0.4,0.9-0.7,1.5-0.7h2V6.4C4.7,6.2,4.4,6,4.1,5.6S3.8,4.8,3.9,4.3
		c0-0.4,0.2-0.8,0.6-1.1s0.8-0.5,1.2-0.5c0.4,0,0.8,0.2,1.2,0.5c0.4,0.3,0.6,0.7,0.6,1.2c0,0.5-0.1,0.9-0.3,1.3C7,6,6.6,6.2,6.2,6.4
		v5.1h10.7C17.5,11.5,18,11.7,18.4,12.1z M18,17v-3.4c0-0.3-0.1-0.6-0.3-0.8c-0.2-0.2-0.5-0.3-0.8-0.3H3.2c-0.3,0-0.6,0.1-0.8,0.3
		c-0.2,0.2-0.3,0.5-0.3,0.8V17c0,0.3,0.1,0.6,0.3,0.8c0.2,0.2,0.5,0.3,0.8,0.3h13.7c0.3,0,0.6-0.1,0.8-0.3C18,17.6,18.1,17.3,18,17
		L18,17z M5.7,5.4c0.2,0,0.4-0.1,0.6-0.2C6.5,5,6.5,4.8,6.5,4.6c0-0.2-0.1-0.4-0.2-0.6C6.1,3.8,5.9,3.8,5.7,3.8
		C5.5,3.8,5.3,3.8,5.1,4C4.9,4.2,4.8,4.4,4.8,4.6c0,0.2,0.1,0.4,0.2,0.6C5.3,5.4,5.5,5.4,5.7,5.4z M6.1,14.9
		c-0.1-0.1-0.2-0.2-0.4-0.2c-0.4,0-0.6,0.2-0.6,0.6c0,0.4,0.2,0.6,0.6,0.6c0.4,0,0.6-0.2,0.6-0.6C6.3,15.2,6.3,15,6.1,14.9z M9,5.9
		c0,0.1,0.1,0.2,0.2,0.3c0.1,0.1,0.2,0.1,0.3,0.1c0.2,0,0.3-0.1,0.4-0.2c0.3-0.5,0.5-1,0.5-1.5S10.2,3.5,9.9,3
		C9.8,2.9,9.6,2.8,9.5,2.8C9.2,2.8,9.1,2.9,9,3.1C9,3.3,9,3.5,9.1,3.6c0.5,0.6,0.5,1.3,0,1.9C9,5.7,9,5.8,9,5.9z M15.4,15
		c-0.1-0.1-0.2-0.2-0.4-0.2H9.9c-0.1,0-0.3,0.1-0.4,0.2c-0.1,0.1-0.1,0.2-0.1,0.3c0,0.3,0.2,0.5,0.5,0.5h5.1c0.1,0,0.2,0,0.4-0.1
		c0.1-0.1,0.1-0.2,0.1-0.4C15.6,15.2,15.5,15.1,15.4,15z M11.6,7.9c0,0.1,0.1,0.2,0.2,0.3c0.1,0.1,0.2,0.1,0.3,0.1
		c0.2,0,0.3-0.1,0.4-0.2c0.7-1.1,1.1-2.2,1.1-3.5c0-1.3-0.4-2.5-1.1-3.5c-0.1-0.1-0.3-0.2-0.5-0.2c-0.2,0-0.4,0.1-0.4,0.3
		c-0.1,0.2,0,0.3,0.1,0.5c0.6,0.9,0.9,1.8,0.9,2.9s-0.3,2.1-0.9,2.9C11.6,7.6,11.6,7.8,11.6,7.9z"/>
</g>
</svg>
