<svg id="Layer_1" data-name="Layer 1" xmlns="http://www.w3.org/2000/svg" viewBox="0 0 50 50"><defs><style>.cls-1{fill:none;}</style></defs><title>DS-ic-list</title><path d="M26.33,15.87a.22.22,0,0,0-.22-.23h-2a.22.22,0,0,0-.22.23v7.45a.22.22,0,0,0,.22.22h2a.22.22,0,0,0,.22-.22ZM33.4,27.14a.19.19,0,0,0,.3,0l8.76-11.3c.08-.1,0-.18-.09-.18h-2.6a.52.52,0,0,0-.36.18L31.9,25.49a.23.23,0,0,0,0,.32Zm1-11.29c.05-.12,0-.21-.13-.21H32.05a.38.38,0,0,0-.32.21l-3.52,7.83a.22.22,0,0,0,.12.29l1.82.74a.24.24,0,0,0,.3-.13Zm-16.3,10a.24.24,0,0,0,0-.32l-7.51-9.67a.53.53,0,0,0-.37-.18H7.63c-.13,0-.17.08-.09.18l8.75,11.3a.2.2,0,0,0,.31,0ZM21.67,24a.22.22,0,0,0,.12-.29l-3.52-7.83a.38.38,0,0,0-.32-.21H15.76c-.12,0-.18.09-.13.21l3.92,8.73a.24.24,0,0,0,.3.13ZM12.6,34.13a.22.22,0,0,0,.22.23h2.23a.23.23,0,0,0,.23-.23v-2.9a.23.23,0,0,1,.23-.23h19a.22.22,0,0,1,.22.23v2.9a.23.23,0,0,0,.23.23h2.23a.22.22,0,0,0,.22-.23V28.55a.22.22,0,0,0-.22-.22H12.82a.22.22,0,0,0-.22.22Z"/><rect x="23.58" y="-1.86" width="2.85" height="53.72" transform="translate(-10.36 25) rotate(-45)"/><rect class="cls-1" x="5" y="5" width="40" height="40"/><rect class="cls-1" x="5" y="5" width="40" height="40"/></svg>