<?xml version="1.0" encoding="utf-8"?>
<!-- Generator: Adobe Illustrator 24.0.2, SVG Export Plug-In . SVG Version: 6.00 Build 0)  -->
<svg version="1.1" id="Layer_1" xmlns="http://www.w3.org/2000/svg" xmlns:xlink="http://www.w3.org/1999/xlink" x="0px" y="0px"
	 viewBox="0 0 50 50" style="enable-background:new 0 0 50 50;" xml:space="preserve">
<style type="text/css">
	.st0{fill:#FFFFFF;}
	.st1{fill:#1AEBFF;}
	.st2{fill:#FFFFFF;stroke:#000000;stroke-width:1.0014;stroke-miterlimit:10;}
	.st3{fill:none;stroke:#000000;stroke-width:1.5;stroke-miterlimit:10;}
	.st4{fill:none;stroke:#000000;stroke-width:2;stroke-miterlimit:10;}
	.st5{fill:none;stroke:#000000;stroke-miterlimit:10;}
	.st6{fill:#F02922;}
	.st7{stroke:#FFFFFF;stroke-width:1.0014;stroke-miterlimit:10;}
	.st8{fill:none;stroke:#FFFFFF;stroke-width:1.5;stroke-miterlimit:10;}
	.st9{fill:none;stroke:#FFFFFF;stroke-width:2;stroke-miterlimit:10;}
	.st10{fill:none;stroke:#FFFFFF;stroke-miterlimit:10;}
	.st11{fill:none;}
	.st12{fill:#34495E;}
	.st13{fill:none;stroke:#000000;stroke-linecap:round;stroke-miterlimit:10;}
	.st14{fill-rule:evenodd;clip-rule:evenodd;fill:#4A81FD;}
	.st15{fill:#4A81FD;}
	.st16{fill:none;stroke:#4A81FD;stroke-miterlimit:10;}
	.st17{clip-path:url(#SVGID_2_);}
	.st18{clip-path:url(#SVGID_4_);}
	.st19{fill:#37006E;}
	.st20{fill:#E9EFF2;}
	.st21{stroke:#1AEBFF;stroke-miterlimit:10;}
	.st22{fill:none;stroke:#1AEBFF;stroke-linecap:round;stroke-linejoin:round;stroke-miterlimit:10;}
	.st23{fill:#FFFFFF;stroke:#37006E;stroke-miterlimit:10;}
	.st24{fill:none;stroke:#37006E;stroke-linecap:round;stroke-linejoin:round;stroke-miterlimit:10;}
	.st25{fill:#FFFFFF;stroke:#000000;stroke-miterlimit:10;}
	.st26{fill:none;stroke:#000000;stroke-linecap:round;stroke-linejoin:round;stroke-miterlimit:10;}
	.st27{stroke:#000000;stroke-width:0;stroke-linecap:round;stroke-linejoin:round;}
	.st28{stroke:#000000;stroke-miterlimit:10;}
	.st29{fill:none;stroke:#000000;stroke-linecap:round;stroke-linejoin:round;}
	.st30{clip-path:url(#SVGID_6_);}
	.st31{clip-path:url(#SVGID_8_);}
	.st32{fill:none;stroke:#4A81FD;stroke-width:2;stroke-linecap:round;stroke-linejoin:round;stroke-miterlimit:10;}
	.st33{fill:none;stroke:#000000;stroke-width:2;stroke-linecap:round;stroke-miterlimit:10;}
	.st34{fill:none;stroke:#000000;stroke-width:2;stroke-linecap:round;stroke-linejoin:round;stroke-miterlimit:10;}
	.st35{clip-path:url(#SVGID_10_);}
	.st36{clip-path:url(#SVGID_10_);fill:none;}
	.st37{clip-path:url(#SVGID_12_);}
	.st38{clip-path:url(#SVGID_14_);}
	.st39{clip-path:url(#SVGID_16_);}
	.st40{fill-rule:evenodd;clip-rule:evenodd;}
	.st41{fill:none;stroke:#000000;stroke-width:2;stroke-linecap:square;stroke-miterlimit:10;}
	.st42{clip-path:url(#SVGID_18_);}
	.st43{clip-path:url(#SVGID_18_);fill:none;}
	.st44{clip-path:url(#SVGID_20_);}
	.st45{clip-path:url(#SVGID_20_);fill:none;}
	.st46{clip-path:url(#SVGID_22_);}
	.st47{clip-path:url(#SVGID_24_);}
	.st48{clip-path:url(#SVGID_26_);}
	.st49{clip-path:url(#SVGID_28_);}
	.st50{clip-path:url(#SVGID_30_);}
	.st51{clip-path:url(#SVGID_30_);fill:none;}
	.st52{clip-path:url(#SVGID_32_);}
	.st53{fill:#FFFFFF;stroke:#FFFFFF;stroke-width:3;stroke-miterlimit:10;}
	.st54{fill:#FFFFFF;stroke:#4A81FD;stroke-miterlimit:10;}
	.st55{clip-path:url(#SVGID_34_);}
	.st56{fill:none;stroke:#000000;stroke-width:0;stroke-linecap:round;stroke-linejoin:round;}
	.st57{fill:#323231;}
	.st58{fill:none;stroke:#000000;stroke-width:2;stroke-linejoin:round;stroke-miterlimit:10;}
	.st59{fill:none;stroke:#000000;stroke-width:1.6;stroke-linecap:round;stroke-miterlimit:10;}
	.st60{clip-path:url(#XMLID_164_);fill:#323231;}
	.st61{clip-path:url(#XMLID_165_);}
	.st62{fill:none;stroke:#000000;stroke-width:0.25;stroke-miterlimit:10;}
	.st63{fill:none;stroke:#FFFFFF;stroke-width:0.25;stroke-linecap:round;stroke-miterlimit:10;}
	.st64{fill:none;stroke:#FFFFFF;stroke-width:0.5;stroke-miterlimit:10;}
</style>
<g>
	<path d="M30.88,24.66c0.13,0.05,0.29-0.01,0.34-0.14l4.48-9.99c0.06-0.13-0.01-0.23-0.15-0.23h-2.5c-0.14,0-0.3,0.11-0.36,0.23
		l-4.03,8.95c-0.06,0.13,0,0.28,0.13,0.33L30.88,24.66z"/>
	<path d="M32.92,25.93l1.68,1.52c0.11,0.1,0.26,0.08,0.35-0.03l10.01-12.91c0.09-0.11,0.04-0.2-0.1-0.2h-2.97
		c-0.14,0-0.33,0.09-0.42,0.2l-8.58,11.05C32.8,25.67,32.81,25.84,32.92,25.93z"/>
	<path d="M15.4,27.45l1.68-1.52c0.11-0.09,0.12-0.26,0.03-0.38L8.53,14.51c-0.09-0.11-0.27-0.2-0.42-0.2H5.14
		c-0.14,0-0.19,0.09-0.1,0.2l10.01,12.91C15.14,27.53,15.29,27.55,15.4,27.45z"/>
	<path d="M45,42.99l-7.29-7.29h1.2c0.14,0,0.26-0.12,0.26-0.26v-6.38c0-0.14-0.12-0.26-0.26-0.26h-8.1l-5.47-5.47h0.92
		c0.14,0,0.26-0.12,0.26-0.26v-8.51c0-0.14-0.12-0.26-0.26-0.26h-2.24c-0.14,0-0.26,0.12-0.26,0.26v7.2l-5.85-5.85l-0.62-1.37
		c-0.06-0.13-0.22-0.23-0.36-0.23h-0.63L7.01,5L5,7.01l10.73,10.73l3.05,6.79c0.06,0.13,0.21,0.19,0.34,0.14l2.08-0.84
		c0.13-0.05,0.19-0.2,0.13-0.33l-0.12-0.26l5.58,5.58H11.08c-0.14,0-0.26,0.12-0.26,0.26v6.38c0,0.14,0.12,0.26,0.26,0.26h2.55
		c0.14,0,0.26-0.12,0.26-0.26v-3.32c0-0.14,0.12-0.26,0.26-0.26h15.7L42.99,45L45,42.99z M35.85,31.86c0.14,0,0.26,0.12,0.26,0.26
		v1.98l-2.24-2.24H35.85z"/>
</g>
</svg>
