<?xml version="1.0" encoding="UTF-8"?>
<svg width="50px" height="50px" viewBox="0 0 50 50" version="1.1" xmlns="http://www.w3.org/2000/svg" xmlns:xlink="http://www.w3.org/1999/xlink">
    <!-- Generator: Sketch 53.2 (72643) - https://sketchapp.com -->
    <title>AT/ICO/LE-OnlyMyVoice@2x</title>
    <desc>Created with Sketch.</desc>
    <g id="AT/ICO/LE-OnlyMyVoice" stroke="none" stroke-width="1" fill="none" fill-rule="evenodd">
        <path d="M26.3608333,35.0770833 C27.0325,34.40375 27.0316667,33.3095833 26.36,32.63875 C26.0325,32.31375 25.5983333,32.13375 25.1383333,32.13375 C24.6766667,32.13375 24.2433333,32.3129167 23.9191667,32.63875 C23.2475,33.3095833 23.2483333,34.40375 23.92,35.07875 C24.2283333,35.3879167 24.6716667,35.5645833 25.1375,35.5645833 L25.1391667,35.5645833 C25.6058333,35.5645833 26.0508333,35.38625 26.3608333,35.0770833 Z M15.9266667,42.3945833 L16.47,42.93625 L21.7325,37.6754167 L21.1891667,37.13125 L15.9266667,42.3945833 Z M25.1383333,30.19875 C26.1158333,30.19875 27.035,30.5795833 27.7266667,31.2704167 C29.1525,32.69625 29.1533333,35.0170833 27.7283333,36.4454167 C27.0358333,37.1370833 26.1158333,37.5179167 25.1383333,37.5179167 C24.8016667,37.5179167 24.4783333,37.45625 24.1633333,37.3695833 L24.4683333,37.6754167 L16.47,45.6729167 L15.5366667,44.7404167 L13.3675,46.9095833 L12,45.5420833 L14.1691667,43.3729167 L13.1908333,42.3945833 L21.1891667,34.3954167 L21.6325,34.8379167 C21.2916667,33.6070833 21.5866667,32.2354167 22.5508333,31.27125 C23.2425,30.5795833 24.1608333,30.19875 25.1383333,30.19875 Z M25.1279167,8.21833333 C26.0804167,8.21833333 26.8554167,7.4225 26.8554167,6.44416667 C26.8554167,5.465 26.0804167,4.66916667 25.1279167,4.66916667 C24.17375,4.66916667 23.3979167,5.465 23.3979167,6.44416667 C23.3979167,7.4225 24.17375,8.21833333 25.1279167,8.21833333 Z M30.5670833,15.8241667 L30.4020833,16.17 L32.1129167,17.0091667 L31.0195833,19.2416667 L29.3295833,18.4141667 L28.91625,19.28 L28.91625,12.805 C28.91625,11.1933333 27.68375,11.0583333 27.30625,11.055 L22.5729167,11.055 C21.23875,11.055 21.1904167,12.5825 21.18875,12.7566667 L21.18875,19.2258333 L20.7979167,18.395 L19.0679167,19.2416667 L17.9745833,17.0091667 L19.71125,16.1558333 L20.56625,17.9016667 L19.5195833,15.6766667 L19.5195833,12.7508333 C19.5195833,11.5866667 20.1579167,9.385 22.5729167,9.385 L23.38875,9.385 C22.39875,8.78333333 21.7279167,7.69583333 21.7279167,6.44416667 C21.7279167,4.545 23.2529167,3 25.1279167,3 C27.00125,3 28.5245833,4.545 28.5245833,6.44416667 C28.5245833,7.69583333 27.8545833,8.78333333 26.8654167,9.385 L27.30625,9.385 C27.29125,9.38416667 28.6620833,9.34666667 29.65875,10.3383333 C30.2745833,10.9475 30.5870833,11.7775 30.5870833,12.805 L30.5670833,15.8241667 Z M25.17225,27.3076667 L25.2539167,27.4735 L26.65225,28.1593333 L25.8205833,29.8593333 L25.0430833,29.4776667 L24.2664167,29.8593333 L23.4339167,28.1593333 L24.8330833,27.4735 L24.91475,27.3076667 L25.0430833,27.371 L25.17225,27.3076667 Z M17.2475,15.5246667 L16.1541667,13.2921667 L17.8916667,12.4405 L18.985,14.673 L17.2475,15.5246667 Z M15.3451667,7.23933333 L13.6076667,8.091 L12.5151667,5.85933333 L14.2518333,5.006 L15.3451667,7.23933333 Z M15.4274167,11.8088333 L14.3340833,9.57466667 L16.0715833,8.723 L17.1649167,10.9563333 L15.4274167,11.8088333 Z M19.79425,20.7256667 L21.53175,19.8748333 L22.62425,22.1065 L20.8875833,22.9573333 L19.79425,20.7256667 Z M21.6143333,24.4423333 L23.351,23.5915 L24.4443333,25.824 L22.7076667,26.6765 L21.6143333,24.4423333 Z M35.8350833,5.00625 L37.5725833,5.85875 L36.47925,8.09125 L34.74175,7.23958333 L35.8350833,5.00625 Z M32.9220833,10.956 L34.0154167,8.72266667 L35.7520833,9.57516667 L34.6595833,11.8085 L32.9220833,10.956 Z M28.47225,24.4423333 L27.3789167,26.674 L25.64225,25.8231667 L26.73475,23.5915 L28.47225,24.4423333 Z M27.4615,22.1066667 L28.5548333,19.875 L30.2931667,20.7258333 L29.1981667,22.9575 L27.4615,22.1066667 Z M31.10125,14.6725833 L32.1954167,12.4400833 L33.9329167,13.2925833 L32.8395833,15.52425 L31.10125,14.6725833 Z" fill="#4A81FD" fill-rule="nonzero"></path>
    </g>
</svg>