<svg xmlns="http://www.w3.org/2000/svg" width="96.042" height="83" viewBox="0 0 96.042 83"><defs><style>.a{fill:#7e5fef;}</style></defs><path class="a" d="M349.6,444.047a9,9,0,0,1-8.993-8.994,1.935,1.935,0,0,0-3.87,0A12.878,12.878,0,0,0,349.6,447.916a1.935,1.935,0,1,0,0-3.87Z" transform="translate(-296.935 -387.316)"/><path class="a" d="M309.366,315.294a21.586,21.586,0,1,0-6.341,6.338L318.887,337.5a4.455,4.455,0,0,0,3.169,1.312h0a4.481,4.481,0,0,0,3.169-7.652Zm-18.088,5.952a17.7,17.7,0,1,1,12.518-5.184A17.721,17.721,0,0,1,291.278,321.246Zm31.21,13.512a.6.6,0,0,1-.432.18.612.612,0,0,1-.434-.18l-15.546-15.547c.149-.141.31-.266.455-.413s.271-.305.412-.454l15.547,15.549a.61.61,0,0,1,.18.433A.6.6,0,0,1,322.488,334.759Z" transform="translate(-238.612 -255.808)"/><path class="a" d="M114.926,126.163V82.494a1.935,1.935,0,0,0-1.935-1.935H43.779a1.935,1.935,0,0,0-1.935,1.935v43.669L30.566,148.872a1.934,1.934,0,0,0,1.733,2.8H64.357a1.935,1.935,0,0,0,0-3.87H35.42l9.558-19.246H57.746a1.935,1.935,0,0,0,0-3.87H45.714V84.429h65.342v40.253h-3.808a1.935,1.935,0,0,0,0,3.87h4.544l9.557,19.246h-4.993a1.935,1.935,0,1,0,0,3.87h8.115a1.935,1.935,0,0,0,1.733-2.8Z" transform="translate(-30.364 -80.559)"/><path class="a" d="M195.282,144h15.479a1.935,1.935,0,1,0,0-3.87H195.282a1.935,1.935,0,1,0,0,3.87Z" transform="translate(-172.173 -132.395)"/><path class="a" d="M381.1,140.135h-8.949a1.935,1.935,0,1,0,0,3.87H381.1a1.935,1.935,0,1,0,0-3.87Z" transform="translate(-326.061 -132.395)"/><path class="a" d="M195.282,270.6H209.31a1.935,1.935,0,1,0,0-3.87H195.282a1.935,1.935,0,0,0,0,3.87Z" transform="translate(-172.173 -242.546)"/><path class="a" d="M524.748,144a1.935,1.935,0,1,0,0-3.87H515.8a1.935,1.935,0,1,0,0,3.87Z" transform="translate(-451.05 -132.395)"/><path class="a" d="M195.282,207.3h22.01a1.935,1.935,0,0,0,0-3.87h-22.01a1.935,1.935,0,0,0,0,3.87Z" transform="translate(-172.173 -187.471)"/><path class="a" d="M404.654,205.369a1.935,1.935,0,0,0,1.935,1.935h18.019a1.935,1.935,0,0,0,0-3.87H406.589A1.935,1.935,0,0,0,404.654,205.369Z" transform="translate(-356.028 -187.471)"/></svg>