<svg xmlns="http://www.w3.org/2000/svg" width="23.976" height="20.4" viewBox="0 0 23.976 20.4"><defs><style>.a{fill:#4a81fd;}</style></defs><path class="a" d="M21.578,12.8V17h1.8a.6.6,0,0,1,.6.6v1.8a3,3,0,0,1-3,3H3a3,3,0,0,1-3-3V17.6A.6.6,0,0,1,.6,17H2.4V6.8A2.4,2.4,0,0,1,4.8,4.4h8.391a6,6,0,1,1,8.392,8.4ZM12.487,5.6H4.8A1.2,1.2,0,0,0,3.6,6.8V17H9.323a.314.314,0,0,1,.3.266,1.2,1.2,0,0,0,1.169.934h2.4a1.2,1.2,0,0,0,1.169-.934.314.314,0,0,1,.3-.266H20.38V13.5a6,6,0,0,1-7.893-7.9Zm10.29,13.8V18.2h-7.3a1.8,1.8,0,0,1-1.7,1.2h-3.6a1.8,1.8,0,0,1-1.7-1.2H1.2v1.2A1.8,1.8,0,0,0,3,21.2H20.979A1.8,1.8,0,0,0,22.777,19.4Zm-4.8-6.36A5.04,5.04,0,1,0,12.947,8,5.037,5.037,0,0,0,17.982,13.04Zm3.077-2.262a.135.135,0,0,1,0,.191l-.111.111a.135.135,0,0,1-.191,0l-1.45-1.451a.138.138,0,0,1-.039-.1V9.419a2.367,2.367,0,1,1,.13-.132h.116a.133.133,0,0,1,.1.039Zm-3.377-1.1A1.98,1.98,0,1,0,15.7,7.7,1.978,1.978,0,0,0,17.682,9.68Z" transform="translate(0 -2)"/></svg>