<svg xmlns="http://www.w3.org/2000/svg" width="48" height="48" viewBox="0 0 48 48"><defs><style>.a{fill:none;}.b{fill:#4a81fd;}</style></defs><g transform="translate(-2538 -4465)"><rect class="a" width="48" height="48" transform="translate(2538 4465)"/><g transform="translate(2538 4471)"><path class="b" d="M38.4,2.8H3.2A3.159,3.159,0,0,0,0,6V27a3.159,3.159,0,0,0,3.2,3.2h14l-1.6,7H10.4a1.2,1.2,0,0,0,0,2.4H30.8A1.29,1.29,0,0,0,32,38.4a1.12,1.12,0,0,0-1-1.2H25.8l-1.6-7h13V27.8H3.2c-.2,0-.4-.2-.6-.2a.876.876,0,0,1-.2-.6V6a.86.86,0,0,1,.8-.8h35A.86.86,0,0,1,39,6V21.6h2.4V6A3.121,3.121,0,0,0,38.4,2.8ZM19.2,32.6h3.2l1,4.6H18.2Z" transform="translate(0 -2.8)"/><g transform="translate(34.8 16.4)"><path class="b" d="M28,11H20a2.647,2.647,0,0,0-2.6,2.6v15A2.83,2.83,0,0,0,20,31.4h8a2.647,2.647,0,0,0,2.6-2.6v-15A2.7,2.7,0,0,0,28,11Zm.2,17.8a.2.2,0,0,1-.2.2H20a.7.7,0,0,1-.2-.4v-15a.2.2,0,0,1,.2-.2h8a.7.7,0,0,1,.2.4Z" transform="translate(-17.4 -11)"/><path class="b" d="M21.2,18.6a1,1,0,1,0,1,1c.2-.6-.4-1-1-1Z" transform="translate(-14.6 -3.4)"/></g></g></g></svg>