<svg xmlns="http://www.w3.org/2000/svg" width="48" height="48" viewBox="0 0 48 48"><defs><style>.a{fill:none;}.b{fill:#4a81fd;}</style></defs><g transform="translate(-2461 -4465)"><rect class="a" width="48" height="48" transform="translate(2461 4465)"/><g transform="translate(2469 4465)"><path class="b" d="M20,2.4A13.573,13.573,0,0,1,33.6,15.8c0,5.8-8.6,20-13.6,27.8C15,36,6.4,21.6,6.4,15.8A13.573,13.573,0,0,1,20,2.4M20,0A16.006,16.006,0,0,0,4,15.8C4,24.4,20,48,20,48S36,24.6,36,15.8A15.877,15.877,0,0,0,20,0Z" transform="translate(-4)"/><path class="b" d="M17,5.4A7.6,7.6,0,1,1,9.4,13,7.6,7.6,0,0,1,17,5.4M17,3A9.9,9.9,0,0,0,7,13,9.9,9.9,0,0,0,17,23,9.9,9.9,0,0,0,27,13,9.9,9.9,0,0,0,17,3Z" transform="translate(-1 3)"/></g></g></svg>