<?xml version="1.0" encoding="utf-8"?>
<!-- Generator: Adobe Illustrator 22.1.0, SVG Export Plug-In . SVG Version: 6.00 Build 0)  -->
<svg version="1.1" id="Layer_1" xmlns="http://www.w3.org/2000/svg" xmlns:xlink="http://www.w3.org/1999/xlink" x="0px" y="0px"
	 viewBox="0 0 50 50" style="enable-background:new 0 0 50 50;" xml:space="preserve">
<style type="text/css">
	.st0{fill:none;}
	.st1{fill:#FFFFFF;}
</style>
<title>DS-ic-list</title>
<rect x="5" y="5" class="st0" width="40" height="40"/>
<g>
	<g>
		<path id="路径_124" class="st1" d="M43.6,14.9H3.9c-0.7,0-1.2,0.6-1.2,1.2l0,0v17.4c0,0.7,0.6,1.2,1.2,1.2h39.8
			c0.7,0,1.2-0.6,1.2-1.2l0,0v-3.7h2.5v-9.9h-2.5v-3.7C44.9,15.5,44.3,14.9,43.6,14.9z M43.6,12.4c2.1,0,3.7,1.7,3.7,3.7l0,0v1.2H48
			c1,0,1.9,0.8,1.9,1.9l0,0v11.2c0,1-0.8,1.9-1.9,1.9h-0.6v1.2c0,2.1-1.7,3.7-3.7,3.7H3.9c-2.1,0-3.7-1.7-3.7-3.7V16.2
			c0-2.1,1.7-3.7,3.7-3.7l0,0C3.9,12.4,43.6,12.4,43.6,12.4z M30,29.3c0,0.3-0.2,0.5-0.5,0.5h-1.6c-0.3,0-0.5-0.2-0.5-0.5l0,0v-9
			c0-0.3,0.2-0.5,0.5-0.5h1.6c0.3,0,0.5,0.2,0.5,0.5l0,0V29.3z M34.9,29.3c0,0.3-0.2,0.5-0.5,0.5l0,0h-1.6c-0.3,0-0.5-0.2-0.5-0.5
			l0,0v-9c0-0.3,0.2-0.5,0.5-0.5h1.6c0.3,0,0.5,0.2,0.5,0.5l0,0L34.9,29.3z M40.5,29.5c0,0.3-0.2,0.5-0.5,0.5l0,0h-1.6
			c-0.3,0-0.5-0.2-0.5-0.5l0,0v-9c0-0.3,0.2-0.5,0.5-0.5H40c0.3,0,0.5,0.2,0.5,0.5l0,0V29.5z M25,29.3c0,0.3-0.2,0.5-0.5,0.5H23
			c-0.3,0-0.5-0.2-0.5-0.5l0,0v-9c0-0.3,0.2-0.5,0.5-0.5h1.6c0.3,0,0.5,0.2,0.5,0.5l0,0V29.3z M19.4,29.5c0,0.3-0.2,0.5-0.5,0.5
			h-1.6c-0.3,0-0.5-0.2-0.5-0.5l0,0v-9c0-0.3,0.2-0.5,0.5-0.5h1.6c0.3,0,0.5,0.2,0.5,0.5l0,0V29.5z M14.4,29.5
			c0,0.3-0.2,0.5-0.5,0.5h-1.6c-0.3,0-0.5-0.2-0.5-0.5l0,0v-9c0-0.3,0.2-0.5,0.5-0.5h1.6c0.3,0,0.5,0.2,0.5,0.5l0,0L14.4,29.5z
			 M9.4,29.5c0,0.3-0.2,0.5-0.5,0.5H7.4c-0.3,0-0.5-0.2-0.5-0.5l0,0v-9C7,20.2,7.2,20,7.4,20H9c0.3,0,0.5,0.2,0.5,0.5l0,0V29.5z"/>
	</g>
	<rect id="矩形_1303" x="-44.4" y="-2.1" class="st0" width="40" height="40"/>
</g>
</svg>
