<svg xmlns="http://www.w3.org/2000/svg" xmlns:xlink="http://www.w3.org/1999/xlink" width="65.357" height="65.357" viewBox="0 0 65.357 65.357"><defs><style>.a{fill:none;}.b{clip-path:url(#a);}.c{fill:#4a81fd;}</style><clipPath id="a"><rect class="a" width="65.357" height="65.357"/></clipPath></defs><g class="b"><g transform="translate(6.537 3.92)"><g transform="translate(0 0)"><path class="c" d="M42.4,45.919l.341-.284,2.844,3.406-.341.284A24.342,24.342,0,0,1,40.333,52.5l-.4.2-.763-1.565,2.4,7.147L26.2,55.163,36.579,43.4,38.3,48.551l.083-.041A19.831,19.831,0,0,0,42.4,45.919Zm7.112-17a20.054,20.054,0,0,0-.974-4.682l-.14-.421L52.6,22.4l.142.419a24.481,24.481,0,0,1,1.185,5.717l.039.442-4.419.374ZM47.356,39.73l.2-.394,3.94,2.033-.2.394A24.439,24.439,0,0,1,48.017,46.6l-.291.334-3.344-2.911.291-.335A20.059,20.059,0,0,0,47.356,39.73Zm2.2-8.071L53.975,32l-.034.442A24.248,24.248,0,0,1,52.8,38.169l-.138.422L48.447,37.2l.138-.421A19.887,19.887,0,0,0,49.52,32.1ZM8,16.592l-.254.364L4.1,14.429l.252-.364A24.469,24.469,0,0,1,8.235,9.7L8.566,9.4,11.5,12.726l-.332.293A20.176,20.176,0,0,0,8,16.592Zm5.724-5.486-.376.236L10.982,7.6l.374-.238A24.466,24.466,0,0,1,14.294,5.8L12.468.357,27.843,3.469,17.46,15.229l-1.751-5.216A19.926,19.926,0,0,0,13.724,11.106ZM2.4,17.434l.192-.4,4,1.919-.19.4a19.921,19.921,0,0,0-1.536,4.525l-.092.435L.43,23.4l.089-.433A24.491,24.491,0,0,1,2.4,17.434ZM4.435,27.969a19.947,19.947,0,0,0,.376,3.83l.085.435-4.352.857-.085-.435A24.3,24.3,0,0,1,0,27.969q0-.569.027-1.137l.02-.444,4.43.2-.018.442C4.444,27.345,4.435,27.655,4.435,27.969Zm35.71-12.886,4.57,4.666L21.758,43.474,9.3,30.737l4.362-4.5L21.549,34.3Z" transform="translate(0 -0.357)"/></g></g><rect class="a" width="65.357" height="65.357"/></g></svg>