<svg id="图层_1" data-name="图层 1" xmlns="http://www.w3.org/2000/svg" viewBox="0 0 50 50"><title>Quick settings</title><path id="Icon" d="M44.66,38.49a1,1,0,0,1-.61,1.23L37.12,42a1,1,0,0,1-1.22-.6h0l-2.31-6.92a1,1,0,0,1,.61-1.22h0L35,33a1,1,0,0,1,1.22.61h0l1.15,3.44A17.26,17.26,0,0,0,20.41,8.36a1,1,0,0,1-1.17-.63L19,7a1,1,0,0,1,.6-1.22h0l0,0A20,20,0,0,1,40,38.17l3.15-1.05a1,1,0,0,1,1.23.61h0ZM31,43a1,1,0,0,1-.6,1.22h0A20,20,0,0,1,10,11.84L6.81,12.89a1,1,0,0,1-1.22-.62l-.26-.76A1,1,0,0,1,6,10.29L12.87,8a1,1,0,0,1,1.22.61l2.31,6.93a1,1,0,0,1-.62,1.22h0L15,17a1,1,0,0,1-1.22-.62L12.65,13A17.25,17.25,0,0,0,29.57,41.64a1,1,0,0,1,1.17.63Z"/><path d="M31.14,19.84H18.86a1.29,1.29,0,0,1,0-2.58H31.14a1.29,1.29,0,0,1,0,2.58Z"/><path d="M31.14,26.29H18.86a1.29,1.29,0,0,1,0-2.58H31.14a1.29,1.29,0,0,1,0,2.58Z"/><path d="M25.31,32.74H18.86a1.29,1.29,0,1,1,0-2.58h6.45a1.29,1.29,0,1,1,0,2.58Z"/></svg>