<svg id="Layer_1" data-name="Layer 1" xmlns="http://www.w3.org/2000/svg" viewBox="0 0 32 32"><title>Toolbar icon list</title><path id="Icon" d="M31.25,26.47a.74.74,0,0,1-.48.94L25.4,29.2a.75.75,0,0,1-.95-.48h0l-1.79-5.37a.76.76,0,0,1,.47-1h0l.59-.19a.74.74,0,0,1,.95.47h0l.89,2.66A13.38,13.38,0,0,0,12.44,3.1a.74.74,0,0,1-.9-.49l-.2-.6a.75.75,0,0,1,.47-.94h0l0,0A15.51,15.51,0,0,1,27.66,26.21l2.44-.81a.75.75,0,0,1,.95.47h0ZM20.65,30a.74.74,0,0,1-.46,1h0A15.51,15.51,0,0,1,4.34,5.79l-2.45.82a.76.76,0,0,1-.95-.48L.75,5.54a.75.75,0,0,1,.47-1L6.6,2.8a.76.76,0,0,1,.94.48L9.33,8.65a.75.75,0,0,1-.48.95h0l-.59.2a.75.75,0,0,1-1-.48L6.42,6.66A13.38,13.38,0,0,0,19.55,28.91a.74.74,0,0,1,.9.48Z"/><path d="M20.76,12H11.24a1,1,0,0,1,0-2h9.52a1,1,0,0,1,0,2Z"/><path d="M20.76,17H11.24a1,1,0,0,1,0-2h9.52a1,1,0,1,1,0,2Z"/><path d="M16.24,22h-5a1,1,0,0,1,0-2h5a1,1,0,0,1,0,2Z"/></svg>