<?xml version="1.0" encoding="utf-8"?>
<!-- Generator: Adobe Illustrator 23.0.4, SVG Export Plug-In . SVG Version: 6.00 Build 0)  -->
<svg version="1.1" id="Layer_1" xmlns="http://www.w3.org/2000/svg" xmlns:xlink="http://www.w3.org/1999/xlink" x="0px" y="0px"
	 viewBox="0 0 24 24" style="enable-background:new 0 0 24 24;" xml:space="preserve">
<style type="text/css">
	.st0{fill:#5778BB;}
</style>
<path id="联合_9_2_" class="st0" d="M11.05,15.4c-0.06-0.08-0.1-0.16-0.13-0.25L6.74,7.25l5.99,6.62
	c0.07,0.06,0.14,0.13,0.19,0.21c0.36,0.52,0.24,1.23-0.28,1.59C12.12,16.04,11.41,15.91,11.05,15.4z"/>
<path class="st0" d="M5.79,19l-0.57-0.99l-2.89,1.67c-0.77-1.52-1.2-3.2-1.2-4.91c0-1.74,0.42-3.42,1.19-4.93l2.91,1.68l0.57-0.99
	L2.89,8.85C3.3,8.22,3.77,7.63,4.31,7.08c1.91-1.92,4.42-3.01,7.11-3.15v2.82h1.14V3.93c3.57,0.19,6.68,2.09,8.52,4.92l-2.89,1.67
	l0.57,0.99l2.89-1.67c0.76,1.48,1.19,3.15,1.19,4.92c0,1.72-0.43,3.4-1.2,4.91l-2.89-1.67L18.18,19l3.88,2.24
	c0.12-0.18,0.25-0.35,0.36-0.54c1.03-1.8,1.57-3.85,1.57-5.93c0-6.62-5.38-12.01-12-12.01c-3.21,0-6.22,1.25-8.48,3.52
	c-2.27,2.27-3.52,5.28-3.52,8.49c0,2.08,0.54,4.13,1.57,5.93c0.11,0.19,0.24,0.37,0.36,0.55"/>
</svg>
