<svg xmlns="http://www.w3.org/2000/svg" width="18.402" height="19.999" viewBox="0 0 18.402 19.999"><defs><style>.a{isolation:isolate;}.b{fill:#4a81fd;}</style></defs><g class="a"><g transform="translate(0 0)"><path class="b" d="M39.388,41.279h-1.2V36.69h4.594v1.2h-3.4Z" transform="translate(-38.19 -36.69)"/><path class="b" d="M68.729,70.229H64.14v-1.2h3.391V65.64h1.2Z" transform="translate(-50.326 -50.229)"/><path class="b" d="M68.729,41.279h-1.2V37.888H64.14v-1.2h4.589Z" transform="translate(-50.326 -36.69)"/><path class="b" d="M42.784,70.229H38.19V65.64h1.2v3.391h3.4Z" transform="translate(-38.19 -50.229)"/><path class="b" d="M32.671,24.412A1.1,1.1,0,0,0,31.777,24a.358.358,0,0,0-.213.043l-.144.075a4.583,4.583,0,0,0-.7-2.56,6.813,6.813,0,0,0-4.9-2.694,5.515,5.515,0,0,0-4.589,2.332c-.4.58-.564.724-.846,2.72a.693.693,0,0,0-.053.144.793.793,0,0,0-.351-.08,1.091,1.091,0,0,0-.894.41,2.129,2.129,0,0,0-.373,1.389,2.849,2.849,0,0,0,1.9,2.981c.958,2.71,3.231,4.679,5.249,4.679h0c1.837,0,4.3-1.943,5.259-4.658A2.857,2.857,0,0,0,33.028,25.8,2.129,2.129,0,0,0,32.671,24.412Zm-1.98,3.774-.059.032-.059.186c-.894,2.662-3.231,4.376-4.7,4.376h0c-1.634,0-3.8-1.746-4.684-4.4l-.064-.186-.043-.032A2.172,2.172,0,0,1,19.4,25.774c.048-1.118.346-1.144.607-1.144a1.129,1.129,0,0,1,.974.415v-.5a13.234,13.234,0,0,1,.2-1.821,5.134,5.134,0,0,1,4.61-3.258c1.411,0,4.466.969,4.892,3.806.053.421.1.852.112,1.3v.5a1.645,1.645,0,0,1,.974-.415c.261,0,.559.027.607,1.145a2.18,2.18,0,0,1-1.677,2.39Z" transform="translate(-16.579 -15.852)"/><path class="b" d="M22.2,22.789s2.486-2.129,2.811-3.487c1.139.99,5.164,4.147,7.985,3.29,0-3.151-2.183-6.212-5.542-6.212C23.742,16.38,21.672,19.372,22.2,22.789Z" transform="translate(-18.174 -14.693)"/></g></g></svg>