<svg id="Layer_1" data-name="Layer 1" xmlns="http://www.w3.org/2000/svg" viewBox="0 0 40 34"><defs><style>.cls-1{fill:#4a81fd;}</style></defs><title>Toolbar icon list</title><g id="组_1201" data-name="组 1201"><path id="路径_168" data-name="路径 168" class="cls-1" d="M23.09,16.56,18.65,14V11.93l4.44,4.43Zm-7.45-2.82V10.21h1.28l.38.38v3.15Zm7.45.73L18.65,10V9.93l4.44-2.55Zm3.78,3.76L24.43,15.8V5.06l-1,.58L17.79,8.87h-.32L13.81,5.22l-1,1,2.72,2.7H14.28v6.2H17.8l6.64,3.81V17.7l1.48,1.47Z"/><path class="cls-1" d="M37.32,34H2.68A2.68,2.68,0,0,1,0,31.33V2.67A2.68,2.68,0,0,1,2.68,0H37.32A2.68,2.68,0,0,1,40,2.67V31.33A2.68,2.68,0,0,1,37.32,34ZM2.68,1A1.7,1.7,0,0,0,1,2.67V31.33A1.7,1.7,0,0,0,2.68,33H37.32a1.7,1.7,0,0,0,1.7-1.7V2.67A1.7,1.7,0,0,0,37.32,1Z"/></g></svg>