<svg xmlns="http://www.w3.org/2000/svg" width="28.224" height="24.324" viewBox="0 0 28.224 24.324"><defs><style>.a{fill:#4a81fd;}</style></defs><path class="a" d="M4.13,24.324A4.107,4.107,0,0,1,.648,22.33a4.614,4.614,0,0,1-.142-4.463L9.732,2.77C10.777,1.234,12.138,0,14.116,0S17.455,1.234,18.5,2.77l9.179,15.019a4.6,4.6,0,0,1-.111,4.542,4.087,4.087,0,0,1-3.482,1.994H4.13Zm9.986-7.881A1.511,1.511,0,1,1,12.6,17.962,1.506,1.506,0,0,1,14.116,16.443Zm0-1.5A1.064,1.064,0,0,1,13.1,13.927L12.6,9.385a1.537,1.537,0,0,1,1.519-1.5,1.512,1.512,0,0,1,1.5,1.5l-.506,4.542A1.039,1.039,0,0,1,14.116,14.94ZM4.13,22.314H24.086a2.089,2.089,0,0,0,1.772-1.045,2.624,2.624,0,0,0,.079-2.469L16.822,3.893A3.437,3.437,0,0,0,14.116,2.01a3.462,3.462,0,0,0-2.722,1.883L2.294,18.8a2.537,2.537,0,0,0,.079,2.469A2.044,2.044,0,0,0,4.13,22.314Z" transform="translate(0 0)"/></svg>