<svg id="组_1172" data-name="组 1172" xmlns="http://www.w3.org/2000/svg" xmlns:xlink="http://www.w3.org/1999/xlink" width="34.93" height="29" viewBox="0 0 34.93 29">
  <defs>
    <clipPath id="clip-path">
      <rect id="矩形_1317" data-name="矩形 1317" width="34.93" height="29" transform="translate(0 0)" fill="none"/>
    </clipPath>
  </defs>
  <g id="组_1171" data-name="组 1171" clip-path="url(#clip-path)">
    <g id="Icon_Translator_Inactive" data-name="Icon Translator Inactive">
      <g id="Rectangle_93" data-name="Rectangle 93">
        <path id="Path_172" data-name="Path 172" d="M17.246,29H17.22a.752.752,0,0,1-.639-.4l-2.815-5.27H4.806A4.808,4.808,0,0,1,0,18.522H0V4.809A4.814,4.814,0,0,1,4.806,0H30.121a4.807,4.807,0,0,1,4.808,4.806h0V18.523a4.814,4.814,0,0,1-4.808,4.808H21.2l-3.319,5.314A.754.754,0,0,1,17.246,29ZM4.807,1.506a3.306,3.306,0,0,0-3.3,3.3V18.519a3.306,3.306,0,0,0,3.3,3.3H14.22a.753.753,0,0,1,.662.4L17.3,26.736l2.85-4.564a.754.754,0,0,1,.639-.354H30.12a3.306,3.306,0,0,0,3.3-3.3V4.808a3.3,3.3,0,0,0-3.3-3.3h0Z"/>
      </g>
      <g id="A">
        <g id="Group_157" data-name="Group 157">
          <path id="Path_173" data-name="Path 173" d="M21.812,15.912a.242.242,0,0,1-.081-.187l.025-.113,3-8.038a.4.4,0,0,1,.436-.311H26.55a.428.428,0,0,1,.437.311l3,8.038a.36.36,0,0,1,.012.113.252.252,0,0,1-.075.187.238.238,0,0,1-.174.075H28.666a.374.374,0,0,1-.25-.075.347.347,0,0,1-.112-.162l-.585-1.52h-3.7l-.586,1.52a.363.363,0,0,1-.361.237H21.988A.259.259,0,0,1,21.812,15.912ZM27.289,12.8,25.868,8.945,24.46,12.8Z"/>
        </g>
      </g>
      <path id="Path_171" data-name="Path 171" d="M8.962,14.938,9.083,15a8.832,8.832,0,0,0,4.239,1.084h.046V14.726a8.471,8.471,0,0,1-3-.589l-.313-.12.2-.267a5.941,5.941,0,0,0,1.191-3.032l.023-.229h1.9V9.133H9.634V7.266H8.284V9.133H4.555v1.354H6.446l.022.229A5.918,5.918,0,0,0,7.66,13.747l.2.267-.313.12a8.449,8.449,0,0,1-3,.589v1.361A8.659,8.659,0,0,0,8.834,15ZM7.838,10.765l-.026-.278H10.1l-.025.277A4.074,4.074,0,0,1,9.155,13l-.195.236L8.76,13a4.067,4.067,0,0,1-.926-2.239Z"/>
      <path id="Path_208" data-name="Path 208" d="M17.53,18.537a.6.6,0,0,1-.6-.6v-1.2a.6.6,0,0,1,1.2,0v1.2A.6.6,0,0,1,17.53,18.537Zm0-3.614a.6.6,0,0,1-.6-.6v-1.2a.6.6,0,0,1,1.2,0v1.2A.6.6,0,0,1,17.53,14.923Zm0-3.614a.6.6,0,0,1-.6-.6v-1.2a.6.6,0,0,1,1.2,0v1.2A.6.6,0,0,1,17.53,11.309Zm0-3.614a.6.6,0,0,1-.6-.6v-1.2a.6.6,0,0,1,1.2,0v1.2a.6.6,0,0,1-.6.6Z"/>
    </g>
  </g>
</svg>
