<svg xmlns="http://www.w3.org/2000/svg" width="26.322" height="26.403" viewBox="0 0 26.322 26.403"><defs><style>.a{fill:none;}.b,.c{stroke:none;}.c{fill:#4a81fd;}</style></defs><g class="a"><path class="b" d="M0,3.738,10.757,2.273l0,10.376L.01,12.71,0,3.738ZM10.752,13.845l.008,10.385L.008,22.751V13.775l10.744.07Zm1.3-11.763L26.318,0V12.517l-14.263.113V2.082ZM26.322,13.942l0,12.461L12.056,24.39l-.02-10.471Z"/><path class="c" d="M 24.81831741333008 1.734819412231445 L 13.55570793151855 3.378622055053711 L 13.55570793151855 11.11832427978516 L 24.81831741333008 11.02901363372803 L 24.81831741333008 1.734819412231445 M 9.257671356201172 3.99134635925293 L 1.501424789428711 5.047653198242188 L 1.508127212524414 11.20180034637451 L 9.260862350463867 11.15769290924072 L 9.257671356201172 3.99134635925293 M 1.5078125 15.28469562530518 L 1.508237838745117 21.4433422088623 L 9.25860595703125 22.5089225769043 L 9.252851486206055 15.33487510681152 L 1.5078125 15.28469562530518 M 13.53852558135986 15.42135238647461 L 13.55312919616699 23.0864429473877 L 24.81868934631348 24.67643737792969 L 24.82120895385742 15.43978595733643 L 13.53852558135986 15.42135238647461 M 26.31831741333008 3.814697265625e-06 L 26.31831741333008 12.51716327667236 L 12.05570793151855 12.63026332855225 L 12.05570793151855 2.081663131713867 L 12.05570793151855 2.081563949584961 L 26.31831741333008 3.814697265625e-06 Z M 10.75690746307373 2.273323059082031 L 10.76152801513672 12.64918327331543 L 0.009767532348632813 12.71035289764404 L -1.9073486328125e-06 3.738283157348633 L -1.9073486328125e-06 3.738183975219727 L 10.75690746307373 2.273323059082031 Z M 0.007707595825195313 13.77494335174561 L 10.75165748596191 13.84455299377441 L 10.75175762176514 13.84455299377441 L 10.75998783111572 24.22945404052734 L 0.008327484130859375 22.75123405456543 L 0.007707595825195313 13.77494335174561 Z M 12.03565788269043 13.9188928604126 L 26.32161712646484 13.94223308563232 L 26.31821823120117 26.4029426574707 L 12.05560779571533 24.38995361328125 L 12.03565788269043 13.9188928604126 Z"/></g></svg>