<svg xmlns="http://www.w3.org/2000/svg" xmlns:xlink="http://www.w3.org/1999/xlink" width="20" height="20" viewBox="0 0 20 20">
  <defs>
    <clipPath id="clip-path">
      <rect width="20" height="20" fill="none"/>
    </clipPath>
  </defs>
  <g id="Zero_touch_lock" data-name="Zero touch lock" clip-path="url(#clip-path)">
    <g id="组_25" data-name="组 25">
      <path id="Combined-Shape" d="M48.467,10.519a.386.386,0,0,1-.385-.384V7.187c0-.213.255-.386.465-.386h2.911a.39.39,0,0,1,0,.779H48.851v2.555A.386.386,0,0,1,48.467,10.519Zm19.231,0a.386.386,0,0,1-.385-.384V7.58H65.126a.39.39,0,0,1,0-.779h2.658c.21,0,.3.173.3.386v2.948A.386.386,0,0,1,67.7,10.519ZM51.458,26.8H48.547c-.21,0-.465-.172-.465-.384V23.468a.385.385,0,0,1,.769,0v2.554h2.607a.39.39,0,0,1,0,.779Zm16.326,0H65.126a.39.39,0,0,1,0-.779h2.187V23.468a.385.385,0,0,1,.769,0v2.949C68.082,26.629,67.994,26.8,67.784,26.8Z" transform="translate(-48.082 -6.801)" fill="#4a81fd"/>
    </g>
    <g id="组_26" data-name="组 26" transform="translate(4.961 4.241)">
      <path id="Shape" d="M64.5,25.367a.452.452,0,0,1-.45-.45V23.477a.45.45,0,1,1,.9,0v1.439A.451.451,0,0,1,64.5,25.367Zm5.039-3.329v4.319a1.08,1.08,0,0,1-1.079,1.08H60.543a1.08,1.08,0,0,1-1.08-1.08V22.037a1.08,1.08,0,0,1,1.08-1.079h.36v-1.44a3.6,3.6,0,1,1,7.2.034v1.406h.36A1.08,1.08,0,0,1,69.541,22.037Zm-7.918-1.079h5.759v-1.44a2.879,2.879,0,1,0-5.759,0Zm7.2,5.4V22.037a.361.361,0,0,0-.36-.36H60.543a.361.361,0,0,0-.36.36v4.319a.361.361,0,0,0,.36.36h7.918A.361.361,0,0,0,68.821,26.357Z" transform="translate(-59.463 -15.919)" fill="#4a81fd"/>
    </g>
  </g>
</svg>
