<svg xmlns="http://www.w3.org/2000/svg" xmlns:xlink="http://www.w3.org/1999/xlink" width="20" height="20" viewBox="0 0 20 20">
  <defs>
    <clipPath id="clip-path">
      <rect width="20" height="20" fill="none"/>
    </clipPath>
  </defs>
  <g id="Zero_touch_login" data-name="Zero touch login" clip-path="url(#clip-path)">
    <path id="Combined-Shape" d="M3216.385,1315.792a.387.387,0,0,1-.385-.385v-2.948c0-.212.256-.385.466-.385h2.911a.39.39,0,0,1,0,.78h-2.607v2.554A.386.386,0,0,1,3216.385,1315.792Zm19.23,0a.386.386,0,0,1-.384-.385v-2.554h-2.186a.39.39,0,0,1,0-.78h2.656c.211,0,.3.173.3.385v2.948A.386.386,0,0,1,3235.615,1315.792Zm-16.239,16.281h-2.911c-.21,0-.466-.172-.466-.385v-2.948a.385.385,0,0,1,.77,0v2.555h2.607a.39.39,0,0,1,0,.779Zm16.325,0h-2.656a.39.39,0,0,1,0-.779h2.186v-2.555a.384.384,0,1,1,.769,0v2.948C3236,1331.9,3235.912,1332.074,3235.7,1332.074Zm-10.983-14.312c-3.418.581-6.317,3.316-7.151,4.2a14.933,14.933,0,0,0,7.151,3.6v.778a15.7,15.7,0,0,1-7.947-4.089.391.391,0,0,1-.008-.524c.154-.179,3.51-4.073,7.955-4.745Zm10.584,3.964a.388.388,0,0,1-.03.524,15.155,15.155,0,0,1-8.075,4.1v-.778a14.271,14.271,0,0,0,7.26-3.617c-.845-.888-3.67-3.67-7.26-4.213v-.78C3231.727,1317.59,3235.147,1321.545,3235.3,1321.726Zm-11.906,1.208a2.921,2.921,0,0,0,1.353,1.4v.831a3.656,3.656,0,0,1-2.177-2.234Zm-.835-2.511a3.684,3.684,0,0,1,2.188-2.272v.832a2.967,2.967,0,0,0-1.371,1.44Zm6.119,0a2.794,2.794,0,0,0-1.451-1.44v-.831a3.609,3.609,0,0,1,2.27,2.271Zm-1.451,3.912a2.751,2.751,0,0,0,1.436-1.4h.821a3.783,3.783,0,0,1-2.257,2.232Zm-1.2-.841a1.835,1.835,0,1,1,1.813-1.835A1.825,1.825,0,0,1,3226.027,1323.494Zm0-2.9a1.066,1.066,0,1,0,1.052,1.066A1.059,1.059,0,0,0,3226.027,1320.593Zm0-1.157a.353.353,0,0,1-.341-.385v-3.076a.344.344,0,1,1,.684,0v3.076A.353.353,0,0,1,3226.027,1319.436Zm0,8.461a.352.352,0,0,1-.341-.384v-3.078a.344.344,0,1,1,.684,0v3.078A.352.352,0,0,1,3226.027,1327.9Zm-2.743-5.849h-3.038a.389.389,0,0,1,0-.779h3.038a.389.389,0,0,1,0,.779Zm8.352,0H3228.6a.389.389,0,0,1,0-.779h3.037a.389.389,0,0,1,0,.779Z" transform="translate(-3216 -1312.074)" fill="#4a81fd"/>
  </g>
</svg>
