<svg xmlns="http://www.w3.org/2000/svg" xmlns:xlink="http://www.w3.org/1999/xlink" width="40" height="40" viewBox="0 0 40 40">
  <defs>
    <clipPath id="clip-path">
      <rect width="40" height="40" fill="none"/>
    </clipPath>
  </defs>
  <g id="ZERO_TOUCH_VIDEO_PLAYBACK" data-name="ZERO TOUCH VIDEO PLAYBACK" clip-path="url(#clip-path)">
    <g id="Zero_touch_video_playback-2" data-name="Zero touch video playback">
      <g id="组_38" data-name="组 38">
        <g id="组_25" data-name="组 25">
          <path id="Combined-Shape" d="M48.851,14.238a.772.772,0,0,1-.769-.769v-5.9c0-.426.511-.771.93-.771h5.822a.78.78,0,0,1,0,1.559H49.621v5.11A.772.772,0,0,1,48.851,14.238Zm38.461,0a.772.772,0,0,1-.769-.769V8.36H82.17a.78.78,0,0,1,0-1.559h5.315c.419,0,.6.345.6.771v5.9A.772.772,0,0,1,87.313,14.238ZM54.834,46.8H49.012c-.419,0-.93-.344-.93-.769v-5.9a.769.769,0,0,1,1.539,0v5.108h5.214a.78.78,0,0,1,0,1.559Zm32.651,0H82.17a.78.78,0,0,1,0-1.559h4.373V40.134a.769.769,0,0,1,1.539,0v5.9C88.082,46.457,87.905,46.8,87.486,46.8Z" transform="translate(-48.082 -6.801)" fill="#4a81fd"/>
        </g>
      </g>
      <g id="路径_28" data-name="路径 28" transform="translate(12 9.761)" fill="none" stroke-linecap="round" stroke-linejoin="round">
        <path d="M0,1.238l16,9.49L0,19.369Z" stroke="none"/>
        <path d="M 0 1.237916946411133 L 0 19.36897850036621 L 16 10.72819805145264 L 0 1.237916946411133 M -2.09808349609375e-05 -0.7620792388916016 C 0.3530721664428711 -0.7620792388916016 0.7059707641601563 -0.6686935424804688 1.020299911499023 -0.4822521209716797 L 17.02029991149902 9.008028030395508 C 17.63998985290527 9.375587463378906 18.01407051086426 10.04804801940918 17.99959945678711 10.76838779449463 C 17.98512077331543 11.48872756958008 17.58431053161621 12.14560794830322 16.95035934448242 12.4879674911499 L 0.9503602981567383 21.12874794006348 C 0.6534500122070313 21.28910064697266 0.326507568359375 21.36897850036621 4.9591064453125e-05 21.36897850036621 C -0.3549423217773438 21.36897850036621 -0.709381103515625 21.27460670471191 -1.024520874023438 21.08663749694824 C -1.629459381103516 20.7258186340332 -2 20.0733585357666 -2 19.36897850036621 L -2 1.237916946411133 C -2 0.5191783905029297 -1.614339828491211 -0.1442813873291016 -0.9897994995117188 -0.4999828338623047 C -0.6828231811523438 -0.6748142242431641 -0.3413314819335938 -0.7620792388916016 -2.09808349609375e-05 -0.7620792388916016 Z" stroke="none" fill="#4a81fd"/>
      </g>
    </g>
  </g>
</svg>
