<svg width="48" height="48" fill="none" xmlns="http://www.w3.org/2000/svg"><path fill-rule="evenodd" clip-rule="evenodd" d="M24 25.5V45l16.5-9V16.5l-16.5 9z" fill="#1C8832"/><path fill-rule="evenodd" clip-rule="evenodd" d="M7.5 36.75L24 45V25.5l-16.5-9v20.25z" fill="#64B98A"/><path d="M48 12L31.5 3 24 7.5l16.5 9L48 12z" fill="#64B98A"/><path d="M0 12l16.5-9L24 7.5l-16.5 9L0 12z" fill="#1C8832"/><path d="M37.368 16.5L24 23.791 10.633 16.5 24 9.209 37.368 16.5z" stroke="#fff" stroke-width="3"/><path d="M38.934 16.5L24 24.646 9.066 16.5 24 8.354 38.934 16.5z" stroke="#000" stroke-width="1.5" stroke-linecap="square"/><path d="M48 21l-16.5 9-7.5-4.5 16.5-9L48 21z" fill="#64B98A"/><path d="M0 21l16.5 9 7.5-4.5-16.5-9L0 21z" fill="#1C8832"/></svg>