<svg width="49" height="48" fill="none" xmlns="http://www.w3.org/2000/svg"><path fill-rule="evenodd" clip-rule="evenodd" d="M18 27c5.799 0 10.5-4.701 10.5-10.5S23.799 6 18 6 7.5 10.701 7.5 16.5 12.201 27 18 27zm0-3a7.5 7.5 0 100-15 7.5 7.5 0 000 15zm14.7 21c-1.39-6.847-7.443-12-14.7-12S4.69 38.153 3.3 45h29.4zm3.051 0C34.323 36.487 26.92 30 18 30S1.677 36.487.249 45A18.122 18.122 0 000 48h36a18.12 18.12 0 00-.249-3z" fill="#fff"/><path d="M32.25 34.89l3.455 3.36 11.92-11.625" stroke="#fff" stroke-width="1.5"/><circle cx="36.75" cy="33" r="11.25" fill="#40A15E"/><path d="M32.25 30.39l4.773 4.86 10.227-10.5" stroke="#000" stroke-width="1.5"/><path fill-rule="evenodd" clip-rule="evenodd" d="M18 25.5a9 9 0 100-18 9 9 0 000 18zm16.433 21c-.758-8.41-7.826-15-16.433-15s-15.675 6.59-16.433 15h32.866zm1.505 0C35.176 37.26 27.436 30 18 30 8.564 30 .824 37.26.062 46.5.02 46.995 0 47.495 0 48h36c0-.505-.02-1.005-.062-1.5zM18 27c5.799 0 10.5-4.701 10.5-10.5S23.799 6 18 6 7.5 10.701 7.5 16.5 12.201 27 18 27z" fill="#101010"/></svg>