<?xml version="1.0" encoding="UTF-8"?>
<svg width="83px" height="81px" viewBox="0 0 83 81" version="1.1" xmlns="http://www.w3.org/2000/svg" xmlns:xlink="http://www.w3.org/1999/xlink">
    <!-- Generator: Sketch 55 (78076) - https://sketchapp.com -->
    <title>Ecosystem circle -- Green</title>
    <desc>Created with Sketch.</desc>
    <g id="Page-1" stroke="none" stroke-width="1" fill="none" fill-rule="evenodd">
        <g id="Design-Security/V2-CHS" transform="translate(-477.000000, -1347.000000)" fill="#21C48A" fill-rule="nonzero">
            <g id="Group-37" transform="translate(470.000000, 1343.000000)">
                <g id="Ecosystem-circle----Green">
                    <g id="AT/ICO/FA-Camera" transform="translate(47.000000, 3.000000)">
                        <path d="M10.7677734,2.0825 C10.8773438,2.0825 10.9769531,2.15222656 11.0167969,2.25515625 L11.7505859,4.2075 L15.40625,4.2075 C15.6984375,4.2075 15.9375,4.4465625 15.9375,4.73875 L15.9375,14.30125 C15.9375,14.5934375 15.6984375,14.8325 15.40625,14.8325 L1.59375,14.8325 C1.3015625,14.8325 1.0625,14.5934375 1.0625,14.30125 L1.0625,4.73875 C1.0625,4.4465625 1.3015625,4.2075 1.59375,4.2075 L5.25273437,4.2075 L5.92011719,2.4278125 C5.99648437,2.22195313 6.19570312,2.0825 6.41816406,2.0825 L10.7677734,2.0825 L10.7677734,2.0825 Z M10.7677734,1.02 L6.41816406,1.02 C5.75410156,1.02 5.15976562,1.43171875 4.92734375,2.05261719 L4.515625,3.145 L1.59375,3.145 C0.713867188,3.145 0,3.85886719 0,4.73875 L0,14.30125 C0,15.1811328 0.713867188,15.895 1.59375,15.895 L15.40625,15.895 C16.2861328,15.895 17,15.1811328 17,14.30125 L17,4.73875 C17,3.85886719 16.2861328,3.145 15.40625,3.145 L12.484375,3.145 L12.0095703,1.88328125 C11.8169922,1.36199219 11.3222656,1.02 10.7677734,1.02 Z M8.5,13.504375 C6.30195312,13.504375 4.515625,11.7180469 4.515625,9.52 C4.515625,7.32195313 6.30195312,5.535625 8.5,5.535625 C10.6980469,5.535625 12.484375,7.32195313 12.484375,9.52 C12.484375,11.7180469 10.6980469,13.504375 8.5,13.504375 Z M8.5,6.598125 C6.88964844,6.598125 5.578125,7.90964844 5.578125,9.52 C5.578125,11.1303516 6.88964844,12.441875 8.5,12.441875 C10.1103516,12.441875 11.421875,11.1303516 11.421875,9.52 C11.421875,7.90964844 10.1103516,6.598125 8.5,6.598125 Z"></path>
                    </g>
                    <g id="AT/ICO/FA-Device" transform="translate(73.000000, 36.000000)">
                        <path d="M15.5833333,1.02 L1.41666667,1.02 C0.634548611,1.02 0,1.65454861 0,2.43666667 L0,10.9366667 C0,11.7187847 0.634548611,12.3533333 1.41666667,12.3533333 L7.08333333,12.3533333 L6.375,15.1866667 L4.25,15.1866667 C3.99027778,15.1866667 3.77777778,15.3991667 3.77777778,15.6588889 C3.77777778,15.9186111 3.99027778,16.1311111 4.25,16.1311111 L12.75,16.1311111 C13.0097222,16.1311111 13.2222222,15.9186111 13.2222222,15.6588889 C13.2222222,15.3991667 13.0097222,15.1866667 12.75,15.1866667 L10.625,15.1866667 L9.91666667,12.3533333 L15.5833333,12.3533333 C16.3654514,12.3533333 17,11.7187847 17,10.9366667 L17,2.43666667 C17,1.65454861 16.3654514,1.02 15.5833333,1.02 Z M7.34895833,15.1866667 L7.82118056,13.2977778 L9.17881944,13.2977778 L9.65104167,15.1866667 L7.34895833,15.1866667 Z M16.0555556,10.9366667 C16.0555556,11.1963889 15.8430556,11.4088889 15.5833333,11.4088889 L1.41666667,11.4088889 C1.15694444,11.4088889 0.944444444,11.1963889 0.944444444,10.9366667 L0.944444444,2.43666667 C0.944444444,2.17694444 1.15694444,1.96444444 1.41666667,1.96444444 L15.5833333,1.96444444 C15.8430556,1.96444444 16.0555556,2.17694444 16.0555556,2.43666667 L16.0555556,10.9366667 Z" id="Shape"></path>
                    </g>
                    <g id="AT/ICO/FA-Gamepad" transform="translate(47.000000, 72.000000)">
                        <path d="M12.5375,4.93 C14.535,4.93 16.15,6.545 16.15,8.5425 C16.15,10.54 14.535,12.155 12.5375,12.155 C11.4192188,12.155 10.4125,11.5175 9.9609375,11.0925 L7.0390625,11.0925 C6.5875,11.5175 5.89421875,12.155 4.4625,12.155 C2.465,12.155 0.85,10.54 0.85,8.5425 C0.85,6.545 2.465,4.93 4.4625,4.93 L12.5375,4.93 L12.5375,4.93 Z M12.5375,4.08 L4.4625,4.08 C1.9975,4.08 0,6.0775 0,8.5425 C0,11.0075 1.9975,13.005 4.4625,13.005 C5.56484375,13.005 6.57421875,12.6039062 7.3525,11.9425 L9.6475,11.9425 C10.4257813,12.6039062 11.4351563,13.005 12.5375,13.005 C15.0025,13.005 17,11.0075 17,8.5425 C17,6.0775 15.0025,4.08 12.5375,4.08 Z M13.6,6.73625 C13.0714063,6.73625 12.64375,7.16390625 12.64375,7.6925 C12.64375,8.22109375 13.0714063,8.64875 13.6,8.64875 C14.1285938,8.64875 14.55625,8.22109375 14.55625,7.6925 C14.55625,7.16390625 14.1285938,6.73625 13.6,6.73625 Z M11.9,8.43625 C11.3714063,8.43625 10.94375,8.86390625 10.94375,9.3925 C10.94375,9.92109375 11.3714063,10.34875 11.9,10.34875 C12.4285938,10.34875 12.85625,9.92109375 12.85625,9.3925 C12.85625,8.86390625 12.4285938,8.43625 11.9,8.43625 Z M4.78125,8.01125 L4.78125,6.789375 C4.78125,6.70171875 4.70953125,6.63 4.621875,6.63 L3.878125,6.63 C3.79046875,6.63 3.71875,6.70171875 3.71875,6.789375 L3.71875,8.01125 L2.496875,8.01125 C2.40921875,8.01125 2.3375,8.08296875 2.3375,8.170625 L2.3375,8.914375 C2.3375,9.00203125 2.40921875,9.07375 2.496875,9.07375 L3.71875,9.07375 L3.71875,10.295625 C3.71875,10.3832813 3.79046875,10.455 3.878125,10.455 L4.621875,10.455 C4.70953125,10.455 4.78125,10.3832813 4.78125,10.295625 L4.78125,9.07375 L6.003125,9.07375 C6.09078125,9.07375 6.1625,9.00203125 6.1625,8.914375 L6.1625,8.170625 C6.1625,8.08296875 6.09078125,8.01125 6.003125,8.01125 L4.78125,8.01125 Z"></path>
                    </g>
                    <g id="AT/ICO/FA-mobile-alt" transform="translate(4.000000, 57.000000)">
                        <path d="M9.435,13.8125 C9.435,14.4001953 8.96019531,14.875 8.3725,14.875 C7.78480469,14.875 7.31,14.4001953 7.31,13.8125 C7.31,13.2248047 7.78480469,12.75 8.3725,12.75 C8.96019531,12.75 9.435,13.2248047 9.435,13.8125 Z M10.4975,3.1875 L6.2475,3.1875 L6.2475,11.15625 L10.4975,11.15625 L10.4975,3.1875 L10.4975,3.1875 Z M11.1615625,2.125 C11.3807031,2.125 11.56,2.30429688 11.56,2.5234375 L11.56,11.8203125 C11.56,12.0394531 11.3807031,12.21875 11.1615625,12.21875 L5.5834375,12.21875 C5.36429688,12.21875 5.185,12.0394531 5.185,11.8203125 L5.185,2.5234375 C5.185,2.30429688 5.36429688,2.125 5.5834375,2.125 L11.1615625,2.125 Z M13.685,1.59375 L13.685,15.40625 C13.685,16.2861328 12.9711328,17 12.09125,17 L4.65375,17 C3.77386719,17 3.06,16.2861328 3.06,15.40625 L3.06,1.59375 C3.06,0.713867188 3.77386719,0 4.65375,0 L12.09125,0 C12.9711328,0 13.685,0.713867188 13.685,1.59375 Z M12.6225,1.59375 C12.6225,1.3015625 12.3834375,1.0625 12.09125,1.0625 L4.65375,1.0625 C4.3615625,1.0625 4.1225,1.3015625 4.1225,1.59375 L4.1225,15.40625 C4.1225,15.6984375 4.3615625,15.9375 4.65375,15.9375 L12.09125,15.9375 C12.3834375,15.9375 12.6225,15.6984375 12.6225,15.40625 L12.6225,1.59375 Z" id="Shape"></path>
                    </g>
                    <g id="AT/ICO/LE-Smart-Assist" transform="translate(8.000000, 16.000000)">
                        <path d="M15.3,8.33031126 L15.3,11.305 L16.575,11.305 C16.8098125,11.305 17,11.4951875 17,11.73 L17,13.005 C17,14.1766719 16.0469375,15.13 14.875,15.13 L2.125,15.13 C0.9530625,15.13 0,14.1766719 0,13.005 L0,11.73 C0,11.4951875 0.1901875,11.305 0.425,11.305 L1.7,11.305 L1.7,4.08 C1.7,3.14234375 2.462875,2.38 3.4,2.38 L9.34968874,2.38 C10.1250641,1.3477203 11.3595548,0.68 12.75,0.68 C15.0972102,0.68 17,2.58278981 17,4.93 C17,6.32044516 16.3322797,7.55493588 15.3,8.33031126 Z M8.85363713,3.23 L3.4,3.23 C2.93064062,3.23 2.55,3.61064062 2.55,4.08 L2.55,11.305 L6.61060938,11.305 C6.71845312,11.305 6.79707813,11.3881406 6.82098438,11.4933281 C6.90678125,11.8721094 7.24545313,12.155 7.65,12.155 L9.35,12.155 C9.75454688,12.155 10.0932188,11.8721094 10.1790156,11.4933281 C10.2029219,11.3881406 10.2815469,11.305 10.3893906,11.305 L14.45,11.305 L14.45,8.82636287 C13.929407,9.05381962 13.354439,9.18 12.75,9.18 C10.4027898,9.18 8.5,7.27721019 8.5,4.93 C8.5,4.32556099 8.62618038,3.750593 8.85363713,3.23 Z M16.15,13.005 L16.15,12.155 L10.9769531,12.155 C10.8019063,12.6495937 10.329625,13.005 9.775,13.005 L7.225,13.005 C6.67064063,13.005 6.19809375,12.6495937 6.02304688,12.155 L0.85,12.155 L0.85,13.005 C0.85,13.7081094 1.42189063,14.28 2.125,14.28 L14.875,14.28 C15.5781094,14.28 16.15,13.7081094 16.15,13.005 Z M12.75,8.5 C14.7216566,8.5 16.32,6.90165656 16.32,4.93 C16.32,2.95834344 14.7216566,1.36 12.75,1.36 C10.7783434,1.36 9.18,2.95834344 9.18,4.93 C9.18,6.90165656 10.7783434,8.5 12.75,8.5 Z M12.92,2.93250072 C12.701465,2.93142334 12.4905335,3.01428906 12.329092,3.16464753 C11.9739571,3.4954269 11.9487298,4.05746104 12.2727475,4.41999421 C12.2201593,4.50999613 12.1920835,4.61270652 12.1914253,4.71750217 C12.1914253,4.72856561 12.1940695,4.73887604 12.1946142,4.74975412 C11.9282233,4.53155535 11.7542873,4.20077598 11.7542873,3.82500145 C11.7542873,3.16777541 12.2761974,2.63499276 12.92,2.63499276 C13.5638026,2.63499276 14.0857127,3.16777541 14.0857127,3.82500145 C14.0857127,3.96054302 14.0583859,4.08865877 14.0178609,4.21006695 C13.9384226,4.34033747 13.7988721,4.41965825 13.6485633,4.41999421 L13.5703392,4.41999421 C13.5698853,4.41916011 13.5686937,4.41860404 13.5686937,4.41776994 C13.7147468,4.25331282 13.7952066,4.03900653 13.7942419,3.81703114 C13.7920971,3.3263243 13.4006816,2.93031121 12.92,2.93250072 Z M11.317138,4.12249783 C11.2366669,4.12249783 11.1714253,4.0558971 11.1714253,3.97374964 L11.1714253,3.82500145 C11.1714253,2.84064524 11.9557317,2.04 12.92,2.04 C13.8842683,2.04 14.6685633,2.84064524 14.6685633,3.82500145 L14.6685633,3.97374964 C14.6678711,4.54851542 14.2115998,5.0142803 13.6485633,5.01499855 L12.7742873,5.01499855 C12.6133339,5.01499855 12.4828507,4.8817971 12.4828507,4.71750217 C12.4828507,4.55318408 12.6133339,4.41999421 12.7742873,4.41999421 L13.0657127,4.41999421 C13.2266548,4.41999421 13.3571493,4.55318408 13.3571493,4.71750217 L13.6485633,4.71750217 C14.0507598,4.71703878 14.3766841,4.38431318 14.377138,3.97374964 L14.377138,3.82500145 C14.377138,3.00482432 13.7234283,2.33749638 12.92,2.33749638 C12.1165717,2.33749638 11.462862,3.00482432 11.462862,3.82500145 L11.462862,3.97374964 C11.462862,4.0558971 11.3976204,4.12249783 11.317138,4.12249783 Z M11.1714253,6.50249204 L14.6685633,6.50230668 C14.668064,6.00960726 14.2769208,5.61031568 13.7942873,5.60980596 L13.7514814,5.60980596 C13.6885549,5.60980596 13.6155056,5.62486613 13.5216208,5.65731502 C13.1313288,5.79242795 12.7082967,5.79242795 12.318016,5.65731502 C12.2247554,5.62505149 12.1518991,5.60999131 12.0888817,5.60999131 L12.0457127,5.60999131 C11.5630678,5.61051263 11.1719247,6.00979262 11.1714253,6.50249204 Z M13.7942873,5.31249493 C14.4380786,5.31249493 14.96,5.84527758 14.96,6.50249204 C14.96,6.66679854 14.8295282,6.8 14.6685633,6.8 L11.1714253,6.8 C11.0104718,6.8 10.88,6.66679854 10.88,6.50249204 C10.8801021,5.84534709 11.4019782,5.31268029 12.0457127,5.31268029 L12.0888817,5.31268029 C12.1993465,5.31268029 12.306906,5.33945264 12.4114469,5.37571291 C12.7411388,5.48988062 13.098498,5.48988062 13.4281672,5.37571291 C13.5329124,5.33945264 13.6407443,5.31249493 13.7514814,5.31249493 L13.7942873,5.31249493 Z" id="AT/ICO/LE-Visible-to-online-trackers"></path>
                    </g>
                    <path d="M26.2718017,16.7996885 C28.3772931,15.0426779 31.1625191,13.6006755 34.6297258,12.4781927 C38.1072358,11.3523743 40.8993104,10.8023255 42.995029,10.8231623 L43.004971,9.82321168 C40.7838114,9.80112773 37.8930352,10.3706211 34.3217218,11.5268076 C30.7401052,12.6863298 27.8424804,14.1865248 25.6310935,16.0319039 L26.2718017,16.7996885 Z" id="Path"></path>
                    <path d="M4.18205203,49.1002904 C6.0284621,47.3758394 8.47028835,45.9609512 11.511101,44.8591799 C14.5605663,43.7542736 17.0060924,43.2150755 18.8352095,43.2354291 L18.8463363,42.235491 C16.8772908,42.2135804 14.3228169,42.7767996 11.1704447,43.918992 C8.00941995,45.0643195 5.4512462,46.5466239 3.49949372,48.3694593 L4.18205203,49.1002904 Z" id="Path-Copy-4" transform="translate(11.172915, 45.667583) rotate(-68.000000) translate(-11.172915, -45.667583) "></path>
                    <path d="M23.5504062,82.5486714 C26.6134516,80.499493 30.0839148,78.9112233 33.9636028,77.7842058 C37.8486793,76.655623 40.9705844,76.1037644 43.3196622,76.1247214 L43.3285832,75.1247612 C40.8666552,75.1027974 37.6552269,75.670481 33.6846427,76.8239031 C29.7086699,77.9788906 26.1446413,79.6099808 22.9943639,81.7175174 L23.5504062,82.5486714 Z" id="Path-Copy-3" transform="translate(33.161474, 78.836409) rotate(-139.000000) translate(-33.161474, -78.836409) "></path>
                    <path d="M65.471919,28.9021708 C67.6511234,26.9950498 70.470405,25.4793169 73.9334663,24.3581762 C77.4195275,23.2295894 80.6811013,22.5730923 83.7178618,22.3872733 L83.6567862,21.3891401 C80.5318906,21.5803521 77.1882245,22.2533729 73.6254624,23.4067911 C70.0397003,24.5676553 67.1010961,26.1475397 64.8133523,28.1496484 L65.471919,28.9021708 Z" id="Path-Copy" transform="translate(74.265607, 25.145655) rotate(-288.000000) translate(-74.265607, -25.145655) "></path>
                    <path d="M64.8558531,71.856354 C67.5389336,69.5360569 70.6092138,67.8163955 74.070398,66.6958625 C77.5564592,65.5672757 80.818033,64.9107785 83.8547935,64.7249595 L83.7937179,63.7268264 C80.6688222,63.9180384 77.3251562,64.5910592 73.762394,65.7444774 C70.1747548,66.9059493 66.9866335,68.6916134 64.2017342,71.0999623 L64.8558531,71.856354 Z" id="Path-Copy-2" transform="translate(74.028264, 67.791590) rotate(-212.000000) translate(-74.028264, -67.791590) "></path>
                </g>
            </g>
        </g>
    </g>
</svg>