<?xml version="1.0" encoding="UTF-8"?>
<svg width="30px" height="30px" viewBox="0 0 30 30" version="1.1" xmlns="http://www.w3.org/2000/svg" xmlns:xlink="http://www.w3.org/1999/xlink">
    <!-- Generator: Sketch 63.1 (92452) - https://sketch.com -->
    <title>7.Home/tileIcon/accessory</title>
    <desc>Created with Sketch.</desc>
    <g id="7.Home/tileIcon/accessory" stroke="none" stroke-width="1" fill="none" fill-rule="evenodd">
        <path d="M2.87564435,8 L15,12.7991536 L27.1243557,8 L16.9059889,16.1004232 L15,29 L13.0940111,16.1004232 L2.87564435,8 Z M1.90742643,10.0310448 L5.26709883,12.6943772 C5.09242563,13.4345456 5,14.2064792 5,15 C5,19.5253417 8.00592773,23.3486113 12.130037,24.5820627 L12.7571031,28.8212976 C6.09133099,27.7479357 1,21.9685399 1,15 C1,13.2501373 1.32103745,11.5752569 1.90742643,10.0310448 Z M28.0925736,10.0310448 C28.6789626,11.5752569 29,13.2501373 29,15 C29,21.9681916 23.9091779,27.747358 17.2438964,28.8211366 L17.869963,24.5820627 C21.9940723,23.3486113 25,19.5253417 25,15 C25,14.2064792 24.9075744,13.4345456 24.7329012,12.6943772 L28.0925736,10.0310448 Z M15,1 C19.3739646,1 23.279438,3.0058492 25.8467409,6.14786817 L21.8611693,7.72505056 C20.0704781,6.03559477 17.6561771,5 15,5 C12.3438229,5 9.92952187,6.03559477 8.13883074,7.72505056 L4.15408055,6.14686298 C6.72139496,3.0054214 10.6265018,1 15,1 Z" id="Combined-Shape" fill="#00009F" fill-rule="nonzero"></path>
    </g>
</svg>