<?xml version="1.0" encoding="utf-8"?>
<!-- Generator: Adobe Illustrator 23.0.1, SVG Export Plug-In . SVG Version: 6.00 Build 0)  -->
<svg version="1.1" xmlns="http://www.w3.org/2000/svg" xmlns:xlink="http://www.w3.org/1999/xlink" x="0px" y="0px"
	 viewBox="0 0 200 1000" style="enable-background:new 0 0 200 1000;" xml:space="preserve">
<style type="text/css">
	.st0{fill:url(#SVGID_1_);}
	.st1{fill:none;stroke:#253048;stroke-width:15;stroke-miterlimit:10;}
</style>
<g id="Layer_1">
	<linearGradient id="SVGID_1_" gradientUnits="userSpaceOnUse" x1="100" y1="1000" x2="100" y2="-9.094947e-13">
		<stop  offset="0" style="stop-color:#FF9F00"/>
		<stop  offset="0.9989" style="stop-color:#FF2815"/>
	</linearGradient>
	<rect class="st0" width="200" height="1000"/>
</g>
<g id="Layer_2">
	<line class="st1" x1="0" y1="51" x2="200" y2="51"/>
	<line class="st1" x1="0" y1="100" x2="200" y2="100"/>
	<line class="st1" x1="0" y1="150.78" x2="200" y2="150.78"/>
	<line class="st1" x1="0" y1="200" x2="200" y2="200"/>
	<line class="st1" x1="0" y1="250.56" x2="200" y2="250.56"/>
	<line class="st1" x1="0" y1="300" x2="200" y2="300"/>
	<line class="st1" x1="0" y1="350.33" x2="200" y2="350.33"/>
	<line class="st1" x1="0" y1="400" x2="200" y2="400"/>
	<line class="st1" x1="0" y1="450.11" x2="200" y2="450.11"/>
	<line class="st1" x1="0" y1="500" x2="200" y2="500"/>
	<line class="st1" x1="0" y1="549.89" x2="200" y2="549.89"/>
	<line class="st1" x1="0" y1="600" x2="200" y2="600"/>
	<line class="st1" x1="0" y1="649.67" x2="200" y2="649.67"/>
	<line class="st1" x1="0" y1="700" x2="200" y2="700"/>
	<line class="st1" x1="0" y1="749.44" x2="200" y2="749.44"/>
	<line class="st1" x1="0" y1="800" x2="200" y2="800"/>
	<line class="st1" x1="0" y1="849.22" x2="200" y2="849.22"/>
	<line class="st1" x1="0" y1="900" x2="200" y2="900"/>
	<line class="st1" x1="0" y1="949" x2="200" y2="949"/>
</g>
</svg>
