<?xml version="1.0" encoding="UTF-8"?>
<svg width="208px" height="47px" viewBox="0 0 208 47" version="1.1" xmlns="http://www.w3.org/2000/svg" xmlns:xlink="http://www.w3.org/1999/xlink">
    <!-- Generator: sketchtool 52.4 (67378) - http://www.bohemiancoding.com/sketch -->
    <title>830A3995-C855-4F71-84FA-65C6448B583C</title>
    <desc>Created with sketchtool.</desc>
    <defs>
        <filter x="-6.0%" y="-30.0%" width="112.5%" height="160.0%" filterUnits="objectBoundingBox" id="filter-1">
            <feOffset dx="0" dy="2" in="SourceAlpha" result="shadowOffsetOuter1"></feOffset>
            <feGaussianBlur stdDeviation="2" in="shadowOffsetOuter1" result="shadowBlurOuter1"></feGaussianBlur>
            <feColorMatrix values="0 0 0 0 0   0 0 0 0 0   0 0 0 0 0  0 0 0 0.4 0" type="matrix" in="shadowBlurOuter1" result="shadowMatrixOuter1"></feColorMatrix>
            <feMerge>
                <feMergeNode in="shadowMatrixOuter1"></feMergeNode>
                <feMergeNode in="SourceGraphic"></feMergeNode>
            </feMerge>
        </filter>
        <polygon id="path-2" points="0.7563 0.937 35.256 0.937 35.256 38.247 0.7563 38.247"></polygon>
    </defs>
    <g id="MyDevice" stroke="none" stroke-width="1" fill="none" fill-rule="evenodd">
        <g id="Home1200pxOptimized" transform="translate(-81.000000, -159.000000)">
            <g id="OR/Title-Bar" transform="translate(0.000000, 100.000000)">
                <g id="material/legion" filter="url(#filter-1)" transform="translate(85.000000, 60.000000)">
                    <polygon id="Fill-1" fill="#FFFFFF" points="34.2153 1.7521 34.2153 39.0621 64.4493 39.0621 64.4493 30.2951 44.4343 30.2951 44.4343 24.3561 62.4113 24.3561 62.4113 16.1131 44.4343 16.1131 44.4343 10.5321 64.4493 10.5321 64.4493 1.7521"></polygon>
                    <polygon id="Fill-2" fill="#FFFFFF" points="0 1.7521 0 39.0621 30.047 39.0621 30.047 30.2931 10.418 30.2931 10.418 1.7521"></polygon>
                    <path d="M86.4321,1.0317 C75.7321,1.0317 67.0551,9.7027 67.0551,20.4067 C67.0551,31.1077 75.7321,39.7817 86.4321,39.7817 C93.3051,39.7817 99.3391,36.1997 102.7801,30.8037 L102.7801,16.3837 L85.9051,16.3837 L85.9051,24.6377 L93.6981,24.6377 L93.6981,27.7337 C91.8351,29.5837 89.2651,30.7257 86.4321,30.7257 C80.7301,30.7257 76.1101,26.1077 76.1101,20.4067 C76.1101,14.7047 80.7301,10.0847 86.4321,10.0847 C88.7931,10.0847 90.9651,10.8797 92.7071,12.2147 L100.8771,7.4967 C97.3281,3.5287 92.1711,1.0317 86.4321,1.0317" id="Fill-3" fill="#FFFFFF"></path>
                    <g id="Group-7" transform="translate(165.000000, 0.814900)">
                        <mask id="mask-3" fill="white">
                            <use xlink:href="#path-2"></use>
                        </mask>
                        <g id="Clip-6"></g>
                        <polygon id="Fill-5" fill="#FFFFFF" mask="url(#mask-3)" points="35.2563 0.937 24.9403 0.937 24.9403 19.508 10.3443 0.937 0.7563 0.937 0.7563 38.247 11.0713 38.247 11.0713 17.557 26.1103 38.247 35.2563 38.247"></polygon>
                    </g>
                    <polygon id="Fill-8" fill="#FFFFFF" points="107.435 39.0609 117.751 39.0609 117.751 1.7519 107.435 1.7519"></polygon>
                    <path d="M125.0808,10.4482 C123.3358,13.3602 122.3298,16.7662 122.3298,20.4062 C122.3298,30.5332 130.0868,38.8452 139.9828,39.7332 L138.8408,30.3332 C134.5388,29.0782 131.3928,25.1132 131.3928,20.4062 C131.3928,19.1552 131.6278,17.9582 132.0348,16.8472 L125.0808,10.4482 Z" id="Fill-10" fill="#FFFFFF"></path>
                    <path d="M141.737,1 C135.351,1 129.688,4.084 126.153,8.843 L134.559,12.971 C136.418,11.174 138.946,10.064 141.737,10.064 C144.529,10.064 147.058,11.176 148.919,12.972 L157.325,8.848 C153.788,4.087 148.125,1 141.737,1" id="Fill-11" fill="#FFFFFF"></path>
                    <path d="M158.4018,10.4594 L151.4438,16.8574 C151.8498,17.9664 152.0818,19.1584 152.0818,20.4064 C152.0818,25.1104 148.9388,29.0734 144.6418,30.3294 L143.4918,39.7324 C153.3868,38.8434 161.1448,30.5334 161.1448,20.4064 C161.1448,16.7704 160.1418,13.3684 158.4018,10.4594" id="Fill-12" fill="#FFFFFF"></path>
                    <path d="M128.9419,11.915 C128.9419,11.915 137.8669,16.552 140.4869,17.592 C141.3579,17.937 142.0949,17.923 142.9869,17.592 C144.7069,16.955 154.5339,11.915 154.5339,11.915 C154.5339,11.915 145.7079,19.958 144.7249,20.949 C144.1709,21.507 143.9129,22.021 143.8319,22.69 C143.3089,26.971 141.7359,39.815 141.7359,39.815 C141.7359,39.815 139.8579,24.053 139.6559,22.692 C139.5409,21.922 139.3209,21.464 138.7609,20.948 C137.2509,19.556 128.9419,11.915 128.9419,11.915" id="Fill-13" fill="#3E8DDD"></path>
                </g>
            </g>
        </g>
    </g>
</svg>