<?xml version="1.0" encoding="UTF-8"?>
<svg width="20px" height="20px" viewBox="0 0 20 20" version="1.1" xmlns="http://www.w3.org/2000/svg" xmlns:xlink="http://www.w3.org/1999/xlink">
    <!-- Generator: Sketch 54.1 (76490) - https://sketchapp.com -->
    <title>6.20pxIcon/gear</title>
    <desc>Created with Sketch.</desc>
    <g id="6.20pxIcon/gear" stroke="none" stroke-width="1" fill="none" fill-rule="evenodd">
        <path d="M11.6458557,9.8850913 C11.6458557,8.97250045 10.9084654,8.23291739 9.99858038,8.23291739 C9.08869531,8.23291739 8.35130509,8.97250045 8.35130509,9.8850913 C8.35130509,10.7976822 9.08869531,11.5372652 9.99858038,11.5372652 C10.9084654,11.5372652 11.6458557,10.7976822 11.6458557,9.8850913 Z M13.293131,9.8850913 C13.293131,11.7101526 11.8182305,13.1894391 9.99858038,13.1894391 C8.17893029,13.1894391 6.7040298,11.7101526 6.7040298,9.8850913 C6.7040298,8.06002999 8.17893029,6.58074348 9.99858038,6.58074348 C11.8182305,6.58074348 13.293131,8.06002999 13.293131,9.8850913 Z M18.3608704,12.0039494 C18.9224296,12.3968422 19.0541544,13.1711062 18.662808,13.7307736 L16.7697606,16.4379773 C16.3777707,16.9998053 15.5966919,17.1346655 15.0441327,16.7468093 L14.3152294,16.2444799 C13.8683182,16.5354018 13.3865837,16.782546 12.8827535,16.9791988 L12.8827535,17.9762826 C12.8827535,18.7375328 12.6051409,19.5 11.7329554,19.5 L8.43840477,19.5 C7.68553419,19.5 7.11728999,18.6354624 7.11728999,17.9762826 L7.11728999,16.9773447 C6.66636603,16.7958727 6.24108923,16.5665365 5.81333257,16.280413 L5.03432997,16.8560718 C4.47870752,17.252356 3.70789389,17.1224835 3.31211771,16.5655086 L1.40075052,13.8745334 C1.00431016,13.3171232 1.13381342,12.5435402 1.68978742,12.1457663 L2.49451839,11.5708428 C2.33998597,10.9527758 2.26029879,10.3196851 2.26029879,9.67906522 C2.26029879,9.07668256 2.32840602,8.4829769 2.46173769,7.90585452 L1.528339,7.25179128 C0.971747591,6.86027763 0.830694516,6.0894435 1.22157478,5.52743299 L3.10480208,2.81996199 C3.49501653,2.2589088 4.25564118,2.1206259 4.81974345,2.51744017 L5.70659966,3.14909013 C6.15800205,2.84178179 6.62704309,2.58722031 7.11728999,2.38672919 L7.11728999,1.73913043 C7.11728999,1.49302047 7.22669852,1.25972658 7.41571687,1.10278912 L7.91319401,0.689745639 C8.06090427,0.567105312 8.24664995,0.5 8.43840477,0.5 L11.7329554,0.5 C11.8609908,0.5 11.9135407,0.501733302 12.0068159,0.516332637 C12.2063058,0.547556597 12.3934511,0.628000224 12.5544392,0.784460338 C12.8201947,1.04274115 12.8827535,1.32622708 12.8827535,1.73913043 L12.8827535,2.37871388 C13.3846236,2.57447297 13.8641554,2.82036911 14.3094722,3.1100111 L15.1366183,2.53840647 C15.6920393,2.14226594 16.4622103,2.27196598 16.8592911,2.82903819 L18.7701978,5.51994483 C19.1667576,6.07752306 19.0371398,6.85217376 18.4811332,7.24873178 L17.6844515,7.81785482 C17.8335209,8.42570577 17.9102377,9.0485134 17.9102377,9.67906522 C17.9102377,10.3061109 17.8344437,10.9255673 17.6871426,11.5300926 L18.3608704,12.0039494 Z M16.2616052,12.5453818 C15.9645611,12.3364609 15.8387973,11.9572005 15.9519138,11.611459 C16.1569443,10.9847818 16.2629624,10.3368071 16.2629624,9.67906522 C16.2629624,9.01983647 16.156333,8.37047248 15.9500887,7.74201584 C15.8372702,7.39824118 15.9606967,7.02083987 16.2546115,6.81087692 L17.1900149,6.14265583 L15.752843,4.1188532 L14.7712874,4.79724624 C14.4767418,5.00081866 14.0848616,4.99043681 13.8014416,4.77155269 C13.2233339,4.3250823 12.5445293,3.97671305 11.8213604,3.75802922 C11.4735201,3.65284353 11.2354782,3.3314952 11.2354782,2.9671087 L11.2354782,2.15217391 L8.76456528,2.15217391 L8.76456528,2.9671087 C8.76456528,3.32870467 8.5300923,3.6482759 8.18588163,3.75581637 C7.49105209,3.97289942 6.84439864,4.32533171 6.22376099,4.81612112 C5.93674744,5.04308641 5.53493386,5.05319663 5.23693456,4.84095113 L4.21424843,4.1125453 L2.80858176,6.13343875 L3.88057662,6.88461966 C4.17577244,7.09147276 4.30276315,7.46668452 4.19412123,7.81103093 C4.00493131,8.41067857 3.90757408,9.03787114 3.90757408,9.67906522 C3.90757408,10.3459173 4.01757819,11.0038793 4.22999453,11.6415178 C4.3447739,11.9860663 4.22166532,12.3653863 3.92666004,12.5761468 L2.98095779,13.2517841 L4.41076841,15.2647853 L5.31745542,14.5946661 C5.6120858,14.376909 6.01464064,14.3802661 6.30562014,14.6029067 C6.94493453,15.0920731 7.51535015,15.402167 8.1757869,15.5992312 C8.52508172,15.7034554 8.76456528,16.0255135 8.76456528,16.3910217 L8.76456528,17.8478261 L11.2354782,17.8478261 L11.2354782,16.3910217 C11.2354782,16.0267752 11.4733405,15.7055157 11.820999,15.6002106 C12.5455479,15.3807461 13.2274555,15.0307129 13.8061467,14.5834563 C14.089252,14.364651 14.4807462,14.3539445 14.7753188,14.5569515 L15.6510381,15.1604869 L17.0781132,13.119659 L16.2616052,12.5453818 Z" id="Combined-Shape" fill="#FFFFFF" fill-rule="nonzero"></path>
    </g>
</svg>