<?xml version="1.0" encoding="UTF-8"?>
<svg width="30px" height="30px" viewBox="0 0 30 30" version="1.1" xmlns="http://www.w3.org/2000/svg" xmlns:xlink="http://www.w3.org/1999/xlink">
    <!-- Generator: Sketch 54.1 (76490) - https://sketchapp.com -->
    <title>7.Home/tileIcon/macrokey</title>
    <desc>Created with Sketch.</desc>
    <defs>
        <linearGradient x1="-28.9006843%" y1="18.5999491%" x2="111.139622%" y2="74.2248087%" id="linearGradient-1">
            <stop stop-color="#5AA4FF" offset="0%"></stop>
            <stop stop-color="#0078FF" offset="80.1269222%"></stop>
            <stop stop-color="#1C88FF" offset="100%"></stop>
        </linearGradient>
    </defs>
    <g id="7.Home/tileIcon/macrokey" stroke="none" stroke-width="1" fill="none" fill-rule="evenodd">
        <path d="M27.6284585,6 C28.9376152,6.00147032 29.9985297,7.06238481 30,8.3715415 L30,22.3932806 C29.9985297,23.7024373 28.9376152,24.7633518 27.6284585,24.7648221 L2.3715415,24.7648221 C1.06238481,24.7633518 0.00147032151,23.7024373 0,22.3932806 L0,8.3715415 C0.00147032151,7.06238481 1.06238481,6.00147032 2.3715415,6 L27.6284585,6 Z M28.2213439,22.3932806 L28.2213439,8.3715415 C28.2213439,8.04409995 27.9559,7.77865613 27.6284585,7.77865613 L2.3715415,7.77865613 C2.04409995,7.77865613 1.77865613,8.04409995 1.77865613,8.3715415 L1.77865613,22.3932806 C1.77865613,22.7207222 2.04409995,22.986166 2.3715415,22.986166 L27.6284585,22.986166 C27.7857015,22.986166 27.9365042,22.9237015 28.0476918,22.8125139 C28.1588793,22.7013263 28.2213439,22.5505236 28.2213439,22.3932806 Z M5.6916996,11.3063241 L8.65612648,11.3063241 L8.65612648,13.6778656 L5.6916996,13.6778656 L5.6916996,11.3063241 Z M5.6916996,17.1166008 L8.65612648,17.1166008 L8.65612648,19.4881423 L5.6916996,19.4881423 L5.6916996,17.1166008 Z M10.9090909,11.3063241 L13.8735178,11.3063241 L13.8735178,13.6778656 L10.9090909,13.6778656 L10.9090909,11.3063241 Z M10.9090909,17.1166008 L19.0909091,17.1166008 L19.0909091,19.4881423 L10.9090909,19.4881423 L10.9090909,17.1166008 Z M16.1561265,11.3063241 L19.1205534,11.3063241 L19.1205534,13.6778656 L16.1561265,13.6778656 L16.1561265,11.3063241 Z M21.3735178,11.3063241 L24.3379447,11.3063241 L24.3379447,13.6778656 L21.3735178,13.6778656 L21.3735178,11.3063241 Z M21.3735178,17.1166008 L24.3379447,17.1166008 L24.3379447,19.4881423 L21.3735178,19.4881423 L21.3735178,17.1166008 Z" id="Combined-Shape" fill="url(#linearGradient-1)" fill-rule="nonzero"></path>
    </g>
</svg>