<?xml version="1.0" encoding="UTF-8"?>
<svg width="30px" height="30px" viewBox="0 0 30 30" version="1.1" xmlns="http://www.w3.org/2000/svg" xmlns:xlink="http://www.w3.org/1999/xlink">
    <!-- Generator: Sketch 54.1 (76490) - https://sketchapp.com -->
    <title>7.Home/tileIcon/media</title>
    <desc>Created with Sketch.</desc>
    <defs>
        <linearGradient x1="-28.9006843%" y1="-6.63030952%" x2="111.139622%" y2="93.6896876%" id="linearGradient-1">
            <stop stop-color="#5AA4FF" offset="0%"></stop>
            <stop stop-color="#0078FF" offset="80.1269222%"></stop>
            <stop stop-color="#1C88FF" offset="100%"></stop>
        </linearGradient>
    </defs>
    <g id="7.Home/tileIcon/media" stroke="none" stroke-width="1" fill="none" fill-rule="evenodd">
        <path d="M4.99044444,20.9341481 L25.880963,20.9341481 L25.880963,7.00681481 L4.99044444,7.00681481 L4.99044444,20.9341481 Z M27.206963,5.00481481 C27.5728889,5.00481481 27.8694815,5.29081481 27.8694815,5.64422222 L27.8694815,22.0367407 C27.8694815,22.3911111 27.5728889,22.6771111 27.2079259,22.6771111 L27.2079259,22.68 L19.3751852,22.68 L19.3751852,24.604963 L21.6400741,24.604963 C22.006,24.604963 22.3035556,24.8928889 22.3035556,25.2472593 C22.3035556,25.6035556 22.006,25.8905185 21.6400741,25.8905185 L18.7107407,25.8905185 L12.1606667,25.8905185 L9.2322963,25.8905185 C8.86637037,25.8905185 8.56785185,25.6035556 8.56785185,25.2472593 C8.56785185,24.8928889 8.86637037,24.604963 9.2322963,24.604963 L11.4971852,24.604963 L11.4971852,22.68 L3.66348148,22.68 C3.29659259,22.68 3,22.393037 3,22.0367407 L3,5.6422963 C3,5.28792593 3.29659259,5 3.66348148,5 C3.6837037,5 3.70296296,5.00096296 3.72318519,5.00288889 L27.206963,5.00481481 Z M12.5344889,9.97572593 L19.2492296,8.99928148 L19.2492296,9.97572593 L19.2492296,10.9800963 L19.2492296,16.5874296 C19.2492296,16.5874296 18.7735259,17.6303185 18.1707111,17.9943185 C17.3396741,18.4969852 16.378637,18.3409852 16.0059704,17.722763 C15.6323407,17.1055037 16.0329333,16.1974296 16.8649333,15.6957259 C17.4629333,15.3336519 18.0811556,15.2855037 18.6647111,15.5146889 L18.6647111,11.0677259 L13.1180444,11.8679481 L13.1180444,17.462763 C13.1180444,17.462763 12.8224148,18.5480222 12.218637,18.9120222 C11.388563,19.4156519 10.4015259,19.3020222 10.0288593,18.6838 C9.65522963,18.0665407 10.0047852,17.1584667 10.8358222,16.656763 C11.4347852,16.2946889 12.2427111,16.2465407 12.5344889,16.4766889 L12.5344889,11.9565407 L12.5344889,10.936763 L12.5344889,9.97572593 Z" id="Combined-Shape" fill="url(#linearGradient-1)" fill-rule="nonzero"></path>
    </g>
</svg>