<?xml version="1.0" encoding="UTF-8"?>
<svg width="20px" height="20px" viewBox="0 0 20 20" version="1.1" xmlns="http://www.w3.org/2000/svg" xmlns:xlink="http://www.w3.org/1999/xlink">
    <!-- Generator: Sketch 54.1 (76490) - https://sketchapp.com -->
    <title>6.20pxIcon/question</title>
    <desc>Created with Sketch.</desc>
    <defs>
        <linearGradient x1="-28.9006843%" y1="-30.2571913%" x2="111.139622%" y2="111.917578%" id="linearGradient-1">
            <stop stop-color="#5AA4FF" offset="0%"></stop>
            <stop stop-color="#0078FF" offset="80.1269222%"></stop>
            <stop stop-color="#1C88FF" offset="100%"></stop>
        </linearGradient>
    </defs>
    <g id="6.20pxIcon/question" stroke="none" stroke-width="1" fill="none" fill-rule="evenodd">
        <path d="M9.36727099,12.2781489 C9.29570575,12.2781489 9.23606894,12.2542941 9.18835878,12.206584 C9.14064862,12.1588738 9.11679389,12.1032128 9.11679389,12.0395992 C9.11679389,11.8726137 9.12076968,11.7453885 9.12872137,11.6579198 C9.16847984,11.2841902 9.28775346,10.9541999 9.4865458,10.6679389 C9.68533814,10.381678 9.95966746,10.063615 10.309542,9.71374046 C10.5798996,9.44338287 10.7806768,9.22073879 10.9118798,9.04580153 C11.0430827,8.87086427 11.1166348,8.68797805 11.1325382,8.4971374 C11.1643449,8.17111796 11.0589866,7.91269179 10.8164599,7.72185115 C10.5739333,7.5310105 10.2817129,7.4355916 9.93979008,7.4355916 C9.16847579,7.4355916 8.70330868,7.82124296 8.54427481,8.59255725 C8.48861295,8.77544621 8.37331512,8.86688931 8.19837786,8.86688931 L7.16068702,8.86688931 C7.08117009,8.86688931 7.0155696,8.8390588 6.96388359,8.78339695 C6.91219758,8.72773509 6.88635496,8.65617092 6.88635496,8.56870229 C6.90225835,8.13135914 7.03544722,7.72185305 7.28592557,7.34017176 C7.53640392,6.95849046 7.89621267,6.65036695 8.3653626,6.41579198 C8.83451252,6.18121702 9.38714695,6.0639313 10.0232824,6.0639313 C10.683273,6.0639313 11.225968,6.16928966 11.6513836,6.38000954 C12.0767992,6.59072943 12.3869106,6.85909506 12.5817271,7.1851145 C12.7765436,7.51113395 12.8739504,7.84907586 12.8739504,8.19895038 C12.8739504,8.59653507 12.7844952,8.94242855 12.6055821,9.23664122 C12.426669,9.53085389 12.1622791,9.8687958 11.8124046,10.2504771 C11.5579504,10.5208347 11.3611489,10.7534182 11.2219943,10.9482347 C11.0828396,11.1430512 10.9894086,11.3517801 10.9416985,11.5744275 C10.9098917,11.7732198 10.8900128,11.9083966 10.8820611,11.9799618 C10.8423026,12.0833339 10.7985689,12.1588738 10.7508588,12.206584 C10.7031486,12.2542941 10.6355602,12.2781489 10.5480916,12.2781489 L9.36727099,12.2781489 Z M9.33148855,14.5324427 C9.25197161,14.5324427 9.18438323,14.5046122 9.12872137,14.4489504 C9.07305952,14.3932885 9.04522901,14.3257001 9.04522901,14.2461832 L9.04522901,13.1846374 C9.04522901,13.1051205 9.07305952,13.0375321 9.12872137,12.9818702 C9.18438323,12.9262084 9.25197161,12.8983779 9.33148855,12.8983779 L10.5123092,12.8983779 C10.5918261,12.8983779 10.6614024,12.9262084 10.7210401,12.9818702 C10.7806778,13.0375321 10.8104962,13.1051205 10.8104962,13.1846374 L10.8104962,14.2461832 C10.8104962,14.3257001 10.7826657,14.3932885 10.7270038,14.4489504 C10.671342,14.5046122 10.5997778,14.5324427 10.5123092,14.5324427 L9.33148855,14.5324427 Z M10,20 C4.47734823,20 0,15.5226518 0,10 C0,4.47734823 4.47734823,0 10,0 C15.5226518,0 20,4.47734823 20,10 C20,15.5226518 15.5226518,20 10,20 Z M10,18.129771 C14.4897528,18.129771 18.129771,14.4897528 18.129771,10 C18.129771,5.51024719 14.4897528,1.87022901 10,1.87022901 C5.51024719,1.87022901 1.87022901,5.51024719 1.87022901,10 C1.87022901,14.4897528 5.51024719,18.129771 10,18.129771 Z" id="Stroke-202" fill="url(#linearGradient-1)" fill-rule="nonzero"></path>
    </g>
</svg>