<?xml version="1.0" encoding="UTF-8"?>
<svg width="30px" height="30px" viewBox="0 0 30 30" version="1.1" xmlns="http://www.w3.org/2000/svg" xmlns:xlink="http://www.w3.org/1999/xlink">
    <!-- Generator: Sketch 54.1 (76490) - https://sketchapp.com -->
    <title>7.Home/tileIcon/systemUpdate</title>
    <desc>Created with Sketch.</desc>
    <defs>
        <linearGradient x1="-16.626329%" y1="-30.2571913%" x2="101.628305%" y2="111.917578%" id="linearGradient-1">
            <stop stop-color="#5AA4FF" offset="0%"></stop>
            <stop stop-color="#0078FF" offset="80.1269222%"></stop>
            <stop stop-color="#1C88FF" offset="100%"></stop>
        </linearGradient>
    </defs>
    <g id="7.Home/tileIcon/systemUpdate" stroke="none" stroke-width="1" fill="none" fill-rule="evenodd">
        <path d="M11.9508193,11.3994995 L14.7174089,11.3994995 L10.7479139,15.5804536 L6.35642809,11.3994995 L9.12301776,11.3994995 L9.12301776,4.17001021 L11.9508193,4.17001021 L11.9508193,11.3994995 Z M13.4349281,7.82259489 L13.4349281,6.37855194 L16.1338138,6.37855194 L16.1338138,7.82259489 L13.4349281,7.82259489 Z M25.0416204,6.37910842 C26.4346535,6.37910842 27.568,7.51338236 27.568,8.90641544 L27.568,22.153214 C27.568,23.5462471 26.4346535,24.6795936 25.0416204,24.6795936 L19.044715,24.6795936 L19.044715,26.3814683 L21.2195902,26.3814683 C21.6183947,26.3814683 21.941148,26.7042216 21.941148,27.103026 C21.941148,27.500903 21.6183947,27.8236563 21.2195902,27.8236563 L8.31594893,27.8236563 C7.91714452,27.8236563 7.59439118,27.500903 7.59439118,27.103026 C7.59439118,26.7042216 7.91714452,26.3814683 8.31594893,26.3814683 L10.4463064,26.3814683 L10.4463064,24.6795936 L4.52637957,24.6795936 C3.13334649,24.6795936 2,23.5462471 2,22.153214 L2,8.90641544 C2,7.51338236 3.13334649,6.37910842 4.52637957,6.37910842 L7.66024028,6.37910842 L7.66024028,7.82315136 L4.52637957,7.82315136 C3.93002786,7.82315136 3.44404295,8.30913627 3.44404295,8.90641544 L3.44404295,22.153214 C3.44404295,22.7504932 3.93002786,23.2364781 4.52637957,23.2364781 L25.0416204,23.2364781 C25.6388996,23.2364781 26.1239571,22.7504932 26.1239571,22.153214 L26.1239571,8.90641544 C26.1239571,8.30913627 25.6388996,7.82315136 25.0416204,7.82315136 L21.9086872,7.82315136 L21.9086872,6.37910842 L25.0416204,6.37910842 Z M23.2124994,4.18095415 L20.4459097,4.18095415 L20.4459097,11.5180279 L17.6181082,11.5180279 L17.6181082,4.18095415 L14.8505911,4.18095415 L19.0612237,5.32907052e-15 L23.2124994,4.18095415 Z" id="Combined-Shape" fill="url(#linearGradient-1)" fill-rule="nonzero"></path>
    </g>
</svg>