<?xml version="1.0" encoding="UTF-8"?>
<svg width="30px" height="30px" viewBox="0 0 30 30" version="1.1" xmlns="http://www.w3.org/2000/svg" xmlns:xlink="http://www.w3.org/1999/xlink">
    <!-- Generator: Sketch 54.1 (76490) - https://sketchapp.com -->
    <title>7.Home/tileIcon/wifiSecurity</title>
    <desc>Created with Sketch.</desc>
    <defs>
        <linearGradient x1="-28.9006843%" y1="0.401255458%" x2="111.139622%" y2="88.2649093%" id="linearGradient-1">
            <stop stop-color="#5AA4FF" offset="0%"></stop>
            <stop stop-color="#0078FF" offset="80.1269222%"></stop>
            <stop stop-color="#1C88FF" offset="100%"></stop>
        </linearGradient>
    </defs>
    <g id="7.Home/tileIcon/wifiSecurity" stroke="none" stroke-width="1" fill="none" fill-rule="evenodd">
        <path d="M16.9061016,19.2794708 L16.9061016,24.2942739 C16.2923012,24.8675742 15.4742007,25.2248744 14.5670002,25.2248744 C12.668899,25.2248744 11.1289981,23.6858735 11.1289981,21.7868723 C11.1289981,19.8878712 12.668899,18.3488702 14.5670002,18.3488702 C15.4742007,18.3488702 16.2923012,18.7061704 16.9061016,19.2794708 Z M18.0847423,14.0095175 C17.6761421,14.5423179 17.4061419,15.2254183 17.2324418,15.8797187 C15.5431408,15.0850182 12.9583392,14.729518 10.0369374,17.3809196 C9.83623726,17.5627197 9.5833371,17.6527198 9.33133694,17.6527198 C9.04603677,17.6527198 8.76163659,17.5375197 8.55373647,17.3089196 C8.16493623,16.8787193 8.19733625,16.2145189 8.62573651,15.8257187 C12.3688388,12.4309166 15.8248409,12.9556169 18.0847423,14.0095175 Z M22.7095752,11.9529263 C22.0084747,11.9421263 21.1885742,12.0744264 20.3452737,12.4218266 C17.6947721,10.6965255 12.5440689,8.76332432 6.71026533,14.0553276 C6.50956521,14.2362277 6.25666505,14.3271277 6.0055649,14.3271277 C5.71936472,14.3271277 5.43496455,14.2110277 5.22706442,13.9824275 C4.83826418,13.5522273 4.8706642,12.8880269 5.29996447,12.4983266 C13.6906696,4.89242194 21.1138742,10.1718252 23.1838755,11.9628263 C22.9921753,11.9583263 22.8238752,11.9547263 22.7095752,11.9529263 Z M2.04997247,11.538926 C1.76467229,11.538926 1.47937212,11.423726 1.27237199,11.1951258 C0.882671751,10.7658256 0.915071771,10.1007251 1.34437203,9.7119249 C15.4266807,-3.05728295 27.5937882,9.55262481 27.7152882,9.68132489 C28.1121885,10.1025251 28.0914885,10.7658256 27.6711882,11.1627258 C27.249088,11.561426 26.5857876,11.542526 26.1870873,11.1213258 C25.747887,10.6578255 15.2952806,-0.105281131 2.7546729,11.2671259 C2.55397278,11.448926 2.30107262,11.538926 2.04997247,11.538926 Z M23.5207457,21.4230921 L23.5180457,21.4230921 C23.5783457,21.4158921 23.8258459,20.8758918 23.8258459,20.5437916 C23.8258459,19.7679911 23.1967455,19.1388907 22.420045,19.1388907 C21.6433445,19.1388907 21.0142441,19.7679911 21.0142441,20.5437916 C21.0142441,20.8767918 21.2131442,21.4185921 21.3220443,21.4230921 L21.3202443,21.4230921 L21.0178441,23.3841933 L23.8222459,23.3841933 L23.5207457,21.4230921 Z M22.503745,15.0501882 C21.5767445,15.0501882 20.775744,16.0275888 20.5237438,17.3154896 L24.4837463,17.3154896 C24.2317461,16.0275888 23.4316456,15.0501882 22.503745,15.0501882 Z M26.7796477,17.3154896 C26.8264477,17.3154896 26.8642477,17.3523896 26.8642477,17.3982896 L26.8642477,25.1409944 C26.8642477,25.1877944 26.8264477,25.2255944 26.7796477,25.2255944 L18.2278424,25.2255944 C18.1810424,25.2255944 18.1441424,25.1877944 18.1441424,25.1409944 L18.1441424,17.3982896 C18.1441424,17.3523896 18.1810424,17.3154896 18.2278424,17.3154896 L18.4024425,17.3154896 C18.7264427,14.8449881 20.4346438,12.9513869 22.503745,12.9513869 C24.5728463,12.9513869 26.2810474,14.8449881 26.6059476,17.3154896 L26.7796477,17.3154896 Z" id="Combined-Shape" fill="url(#linearGradient-1)" fill-rule="nonzero"></path>
    </g>
</svg>