<svg xmlns="http://www.w3.org/2000/svg" viewBox="0 0 200 200"><defs><style>.a{fill:#4a81fd;}</style></defs><title>svg_icon</title><path class="a" d="M147.2539,69.6108q-1.6413,0-3.3013.1065A56.3108,56.3108,0,1,0,34.1094,94.5112a40.5514,40.5514,0,0,0,3.1152,80.4512,6.015,6.015,0,0,0,1.2944.14H61.3838a6,6,0,0,0,0-12H39.395q-.2607-.0381-.5283-.0537A28.5492,28.5492,0,0,1,40.5513,106c.4536,0,.9048.0142,1.353.0347a6,6,0,0,0,5.8389-8.2432,44.3011,44.3011,0,1,1,85.1723-20.8506,6,6,0,0,0,7.04,5.3355,40.7428,40.7428,0,1,1,7.2983,80.8261H101.9351V124.08l16.57,14.0624a6,6,0,0,0,7.7646-9.1494L99.8389,106.5615a5.9844,5.9844,0,0,0-7.25-.3639c-.0137.0092-.0264.0194-.04.0287a5.9487,5.9487,0,0,0-.5169.3709L66.0874,129.0283a6,6,0,0,0,7.8486,9.0781l15.9991-13.8325v44.8286a6,6,0,0,0,6,6h51.3188a52.7459,52.7459,0,1,0,0-105.4917Z"/></svg>