<?xml version="1.0" encoding="UTF-8"?>
<svg width="23px" height="23px" viewBox="0 0 23 23" version="1.1" xmlns="http://www.w3.org/2000/svg" xmlns:xlink="http://www.w3.org/1999/xlink">
    <!-- Generator: Sketch 53.1 (72631) - https://sketchapp.com -->
    <title>AT/ICO/Diamond Copy</title>
    <desc>Created with Sketch.</desc>
    <g id="Privacy-Tab-2.0" stroke="none" stroke-width="1" fill="none" fill-rule="evenodd">
        <g id="Negative_Breached-Accs_02_Details" transform="translate(-382.000000, -1087.000000)" fill="#E74C3C" fill-rule="nonzero">
            <g id="Breaches" transform="translate(61.000000, 519.000000)">
                <g id="Group-11">
                    <g id="Group-6" transform="translate(0.000000, 168.000000)">
                        <g id="Group-3" transform="translate(0.000000, 127.000000)">
                            <g id="Group-10" transform="translate(80.000000, 171.000000)">
                                <g id="AT/ICO/Diamond-Copy" transform="translate(240.000000, 102.000000)">
                                    <path d="M2.52752128,12.6600181 C2.44826207,12.7392773 2.35154247,12.8021451 2.23918585,12.8489603 C2.13218113,12.8935456 2.02345883,12.9207262 1.91368407,12.9298741 C1.79023078,12.9401619 1.66747809,12.9197031 1.54832046,12.8700541 C1.44331629,12.8263023 1.34656711,12.7691324 1.23889128,12.6811119 C1.12579262,12.5680132 1.04541412,12.430897 0.999052308,12.2732668 C0.952057474,12.1134844 0.947226474,11.9540614 0.985918954,11.7992914 C1.02335671,11.6495404 1.09732038,11.5108585 1.21439083,11.3748646 L11.4060788,0.761231873 C11.5906962,0.576614438 11.8129094,0.48 12.0609407,0.48 C12.1904839,0.48 12.3132652,0.503611778 12.4274671,0.551195913 C12.5489086,0.601796545 12.6519723,0.679094341 12.7195534,0.765067555 L22.8656472,11.3752238 L22.8705812,11.3805422 C23.0385536,11.5671781 23.1207656,11.7896342 23.1113102,12.0354739 C23.1021021,12.2748842 23.0132503,12.4899991 22.8408025,12.6811119 C22.6689605,12.852954 22.4531257,12.94125 22.2070344,12.94125 C21.942879,12.94125 21.7160923,12.8426471 21.5483604,12.6561184 L21.0548469,12.1396508 L21.0548469,21.645 C21.0548469,21.8920634 20.9623559,22.111121 20.7841619,22.289315 C20.6059679,22.467509 20.3869103,22.56 20.1398469,22.56 L15.4148469,22.56 C15.1677835,22.56 14.9487259,22.467509 14.7705319,22.289315 C14.5923379,22.111121 14.4998469,21.8920634 14.4998469,21.645 L14.4998469,15.135 L9.60019178,15.135 L9.5798469,21.645 C9.5798469,21.7085881 9.57010073,21.7768113 9.55158735,21.8508648 C9.53347285,21.9233228 9.51005052,21.9889053 9.4806813,22.0476438 C9.4521147,22.104777 9.41841033,22.157741 9.37959917,22.2062549 C9.3408571,22.2546825 9.29438704,22.3011526 9.24036616,22.34617 C9.18446061,22.3927579 9.12691167,22.4311239 9.06749067,22.4608344 C9.01174725,22.4887061 8.95218859,22.5116133 8.8889831,22.529672 C8.8177866,22.5500139 8.74289051,22.56 8.6648469,22.56 L3.96094065,22.56 C3.69937752,22.56 3.4743373,22.4670486 3.30155576,22.2846681 C3.13283733,22.1065764 3.04594065,21.8893347 3.04594065,21.645 L3.04594065,12.1298286 L2.52752128,12.6600181 Z M19.2248469,20.73 L19.2248469,10.3176563 C19.2248469,10.2876501 19.2263227,10.2576809 19.2292643,10.2277736 L12.0606948,2.73336008 L4.8715453,10.2279975 C4.87447225,10.2578305 4.87594065,10.287725 4.87594065,10.3176563 L4.87594065,20.73 L7.75059577,20.73 L7.77094065,14.22 C7.77094065,13.9729366 7.86343161,13.753879 8.04162565,13.575685 C8.21981969,13.397491 8.43887722,13.305 8.68594065,13.305 L15.4148469,13.305 C15.6619103,13.305 15.8809679,13.397491 16.0591619,13.575685 C16.2373559,13.753879 16.3298469,13.9729366 16.3298469,14.22 L16.3298469,20.73 L19.2248469,20.73 Z" id="home---simple-line-icons"></path>
                                </g>
                            </g>
                        </g>
                    </g>
                </g>
            </g>
        </g>
    </g>
</svg>