<?xml version="1.0" encoding="UTF-8"?>
<svg width="22px" height="19px" viewBox="0 0 22 19" version="1.1" xmlns="http://www.w3.org/2000/svg" xmlns:xlink="http://www.w3.org/1999/xlink">
    <!-- Generator: Sketch 53.1 (72631) - https://sketchapp.com -->
    <title>AT/ICO/Diamond Copy</title>
    <desc>Created with Sketch.</desc>
    <g id="Privacy-Tab-2.0" stroke="none" stroke-width="1" fill="none" fill-rule="evenodd">
        <g id="Negative_Breached-Accs_02_Details" transform="translate(-162.000000, -1046.000000)" fill="#E74C3C" fill-rule="nonzero">
            <g id="Breaches" transform="translate(61.000000, 519.000000)">
                <g id="Group-11">
                    <g id="Group-6" transform="translate(0.000000, 168.000000)">
                        <g id="Group-3" transform="translate(0.000000, 127.000000)">
                            <g id="Group-10" transform="translate(80.000000, 171.000000)">
                                <g id="AT/ICO/Diamond-Copy" transform="translate(21.000000, 61.000000)">
                                    <path d="M19.765625,0.12 C20.2343773,0.12 20.6328109,0.284060859 20.9609375,0.6121875 C21.2890641,0.940314141 21.453125,1.33874766 21.453125,1.8075 L21.453125,16.479375 C21.453125,16.9481273 21.2890641,17.3465609 20.9609375,17.6746875 C20.6328109,18.0028141 20.2343773,18.166875 19.765625,18.166875 L2.1171875,18.166875 C1.64843516,18.166875 1.25000164,18.0028141 0.921875,17.6746875 C0.593748359,17.3465609 0.4296875,16.9481273 0.4296875,16.479375 L0.4296875,1.8075 C0.4296875,1.33874766 0.593748359,0.940314141 0.921875,0.6121875 C1.25000164,0.284060859 1.64843516,0.12 2.1171875,0.12 L19.765625,0.12 Z M17.9609375,1.8075 L3.921875,1.8075 L10.34375,7.104375 L10.390625,7.1278125 C10.5468758,7.29968836 10.7421863,7.385625 10.9765625,7.385625 L11,7.385625 C11.2343762,7.385625 11.4374991,7.29968836 11.609375,7.1278125 L11.6328125,7.0809375 L11.6796875,7.0575 L17.9609375,1.8075 Z M19.765625,16.479375 L19.765625,2.4871875 L12.78125,8.323125 C12.2968726,8.8231275 11.7031285,9.073125 11,9.073125 C10.2968715,9.073125 9.70312742,8.83093992 9.21875,8.3465625 L2.1171875,2.4871875 L2.1171875,16.479375 L19.765625,16.479375 Z" id="mail---anticon"></path>
                                </g>
                            </g>
                        </g>
                    </g>
                </g>
            </g>
        </g>
    </g>
</svg>