<?xml version="1.0" encoding="UTF-8"?>
<svg width="16px" height="20px" viewBox="0 0 16 20" version="1.1" xmlns="http://www.w3.org/2000/svg" xmlns:xlink="http://www.w3.org/1999/xlink">
    <!-- Generator: Sketch 53.1 (72631) - https://sketchapp.com -->
    <title>AT/ICO/Diamond Copy</title>
    <desc>Created with Sketch.</desc>
    <g id="Privacy-Tab-2.0" stroke="none" stroke-width="1" fill="none" fill-rule="evenodd">
        <g id="Negative_Breached-Accs_02_Details" transform="translate(-385.000000, -1045.000000)" fill="#E74C3C" fill-rule="nonzero">
            <g id="Breaches" transform="translate(61.000000, 519.000000)">
                <g id="Group-11">
                    <g id="Group-6" transform="translate(0.000000, 168.000000)">
                        <g id="Group-3" transform="translate(0.000000, 127.000000)">
                            <g id="Group-10" transform="translate(80.000000, 171.000000)">
                                <g id="AT/ICO/Diamond-Copy" transform="translate(244.000000, 60.000000)">
                                    <path d="M15.1489063,4.871875 C15.5473457,5.84406736 15.7465625,6.86405716 15.7465625,7.931875 L15.7465625,18.355 C15.7465625,18.7693771 15.6031264,19.1279672 15.31625,19.4307812 C15.0293736,19.7335953 14.6787521,19.885 14.264375,19.885 L2.19171875,19.885 C1.79327926,19.885 1.45062643,19.7335953 1.16375,19.4307812 C0.876873566,19.1279672 0.7334375,18.7693771 0.7334375,18.355 L0.7334375,7.931875 C0.7334375,6.86405716 0.932654258,5.84406736 1.33109375,4.871875 C1.71359566,3.91562022 2.25148091,3.0749255 2.94476563,2.34976562 C3.63805034,1.62460575 4.43093304,1.05484582 5.3234375,0.64046875 C6.24781712,0.226091678 7.2199949,0.01890625 8.24,0.01890625 C9.2600051,0.01890625 10.2321829,0.226091678 11.1565625,0.64046875 C12.0650045,1.05484582 12.8618716,1.62062141 13.5471875,2.3378125 C14.2325034,3.07094117 14.7664043,3.91562022 15.1489063,4.871875 Z M5.8971875,2.0509375 C5.21187157,2.35375151 4.59031529,2.79999705 4.0325,3.3896875 C3.47468471,3.97937795 3.03640784,4.65671492 2.71765625,5.42171875 C2.39890466,6.21859773 2.23953125,7.05530812 2.23953125,7.931875 L2.23953125,8.57734375 L14.2404688,8.57734375 L14.2404688,7.931875 C14.2404688,7.05530812 14.0731267,6.21859773 13.7384375,5.42171875 C13.4356235,4.65671492 13.0053153,3.97937795 12.4475,3.3896875 C11.8896847,2.79999705 11.2521911,2.34578284 10.535,2.02703125 C9.80187133,1.69234208 9.03687898,1.525 8.24,1.525 C7.42718344,1.525 6.66219109,1.69234208 5.945,2.02703125 L5.92109375,2.0509375 L5.8971875,2.0509375 Z M14.2404688,10.1073437 L2.23953125,10.1073437 L2.23953125,18.3789062 L14.2404688,18.3789062 L14.2404688,10.1073437 Z M7.54671875,13.5020312 C7.14827926,13.24703 6.9490625,12.8804711 6.9490625,12.4023437 C6.9490625,12.051717 7.07656123,11.7489075 7.3315625,11.4939062 C7.58656378,11.238905 7.89335758,11.1114062 8.25195313,11.1114062 C8.61054867,11.1114062 8.91335814,11.238905 9.16039063,11.4939062 C9.40742311,11.7489075 9.5309375,12.051717 9.5309375,12.4023437 C9.5309375,12.8804711 9.33968941,13.24703 8.9571875,13.5020312 L8.9571875,15.48625 C8.9571875,15.677501 8.88546947,15.8408587 8.74203125,15.9763281 C8.59859303,16.1117976 8.43125096,16.1795312 8.24,16.1795312 C8.04874904,16.1795312 7.8853913,16.1117976 7.74992188,15.9763281 C7.61445245,15.8408587 7.54671875,15.677501 7.54671875,15.48625 L7.54671875,13.5020312 Z" id="lock---anticon"></path>
                                </g>
                            </g>
                        </g>
                    </g>
                </g>
            </g>
        </g>
    </g>
</svg>