<?xml version="1.0" encoding="UTF-8"?>
<svg width="22px" height="22px" viewBox="0 0 22 22" version="1.1" xmlns="http://www.w3.org/2000/svg" xmlns:xlink="http://www.w3.org/1999/xlink">
    <!-- Generator: Sketch 53.1 (72631) - https://sketchapp.com -->
    <title>AT/ICO/Diamond Copy</title>
    <desc>Created with Sketch.</desc>
    <g id="Privacy-Tab-2.0" stroke="none" stroke-width="1" fill="none" fill-rule="evenodd">
        <g id="Negative_Breached-Accs_02_Details" transform="translate(-162.000000, -1088.000000)" fill="#E74C3C" fill-rule="nonzero">
            <g id="Breaches" transform="translate(61.000000, 519.000000)">
                <g id="Group-11">
                    <g id="Group-6" transform="translate(0.000000, 168.000000)">
                        <g id="Group-3" transform="translate(0.000000, 127.000000)">
                            <g id="Group-10" transform="translate(80.000000, 171.000000)">
                                <g id="AT/ICO/Diamond-Copy" transform="translate(21.000000, 103.000000)">
                                    <path d="M19.2336274,17.3686755 L12.789006,14.2965083 L13.8604316,13.4572249 C14.4705738,12.9792801 14.9313505,12.3099956 15.2440977,11.4300627 C15.5778905,10.490917 15.7419664,9.63994679 15.7419664,8.8777491 L15.7419664,5.91335581 C15.7419664,5.60002654 15.6334954,5.26185204 15.3991735,4.88969381 C15.1352593,4.47053585 14.794219,4.09304856 14.3724269,3.75561483 C13.9492479,3.41707164 13.452349,3.13923571 12.8784197,2.9226586 C12.3165101,2.71061728 11.7746344,2.6064104 11.2492637,2.6064104 C10.53016,2.6064104 9.81490507,2.78194916 9.09511894,3.13917635 C8.36837527,3.49985655 7.78957825,3.95443686 7.34994169,4.50398255 C6.94367635,5.01181423 6.75656101,5.47737501 6.75656101,5.91335581 L6.75656101,8.8777491 C6.75656101,9.57389245 6.92577644,10.4033254 7.27156486,11.3613294 C7.59834885,12.2666818 8.0705485,12.9632415 8.68853467,13.4679302 L9.72229889,14.312171 L3.26378869,17.3690459 L3.21560742,17.3851063 C3.2201411,17.3835951 3.21251938,17.3868616 3.19636314,17.3949397 C3.18131528,17.4024636 3.10572961,17.447815 2.99405465,17.5188809 C2.88605851,17.5876057 2.79336588,17.6541543 2.71610467,17.7177812 C2.68101504,17.7466785 2.64424306,17.7871787 2.60641041,17.8413614 L2.6064104,19.5495649 C2.6064104,19.6466835 2.63154784,19.7071493 2.70219929,19.7778007 C2.77115355,19.846755 2.83715224,19.8735896 2.94896252,19.8735896 L19.5495649,19.8735896 C19.6466835,19.8735896 19.7071493,19.8484522 19.7778007,19.7778007 C19.8484522,19.7071493 19.8735896,19.6466835 19.8735896,19.5495649 L19.8735896,17.8072141 C19.8460718,17.7647836 19.8147144,17.730339 19.7774397,17.7009116 C19.6773443,17.6218889 19.5812736,17.5517833 19.4894429,17.4905628 C19.432314,17.4524769 19.3854961,17.4249611 19.3514615,17.4079535 L19.2336274,17.3686755 Z M6.7304344,13.8624802 C6.29807172,13.3104695 5.94967407,12.6662648 5.6853217,11.9338787 C5.27765639,10.8044453 5.07015061,9.78732681 5.07015061,8.8777491 L5.07015061,5.91335581 C5.07015061,5.06475975 5.4017989,4.2395872 6.0330764,3.45049033 C6.63098268,2.70310748 7.40467657,2.09545748 8.34541246,1.62857374 C9.2931059,1.158237 10.2638328,0.92 11.2492637,0.92 C11.9837665,0.92 12.7264483,1.06282343 13.4738191,1.34485013 C14.20917,1.62234103 14.860962,1.9867839 15.4259191,2.43874954 C15.9922629,2.89182463 16.460247,3.4098222 16.8262694,3.99115197 C17.2218843,4.61948149 17.4283769,5.26325244 17.4283769,5.91335581 L17.4283769,8.8777491 C17.4283769,9.84478947 17.2280831,10.8836011 16.8331255,11.9948376 C16.5793021,12.708985 16.2403452,13.3360049 15.8165509,13.8715225 L19.8655025,15.8016678 L19.9273746,15.8222919 L19.9928845,15.8471987 C20.1314329,15.9065766 20.2738345,15.9866775 20.4248951,16.0873846 C20.555395,16.1743845 20.6878273,16.2710243 20.8224143,16.3772771 C21.017164,16.531027 21.1816469,16.7160702 21.3133143,16.9287637 C21.4720792,17.18523 21.56,17.4625187 21.56,17.7524015 L21.56,19.5495649 C21.56,20.0947348 21.3566344,20.5839115 20.9702729,20.9702729 C20.5839115,21.3566344 20.0947348,21.56 19.5495649,21.56 L2.94896252,21.56 C2.39378097,21.56 1.89778572,21.3583316 1.50972706,20.9702729 C1.12336559,20.5839115 0.92,20.0947348 0.92,19.5495649 L0.92,17.7524015 C0.92,17.4577605 1.01909521,17.1817096 1.19130827,16.92339 C1.32219823,16.727055 1.47282794,16.5569892 1.64404135,16.41599 C1.77675905,16.306693 1.92492096,16.2003204 2.08866223,16.0961214 C2.24872468,15.9942635 2.35841174,15.9284512 2.44217748,15.8865684 C2.50467759,15.8553183 2.56499453,15.8283795 2.62469477,15.8057662 L6.7304344,13.8624802 Z M19.9124048,15.8240263 L19.5495649,16.5851717 L19.8162098,15.785237 L19.8655025,15.8016678 L19.9124048,15.8240263 Z" id="Path"></path>
                                </g>
                            </g>
                        </g>
                    </g>
                </g>
            </g>
        </g>
    </g>
</svg>