<svg width="12" height="11" viewBox="0 0 12 11" xmlns="http://www.w3.org/2000/svg"><title>AT/ICO/Arrow-Down Copy</title><path d="M1.24 4.823c-.18 0-.333.07-.461.21A.659.659 0 0 0 .6 5.53c.01.17.076.315.2.435a.59.59 0 0 0 .426.18h8.149L6.304 9.267a.68.68 0 0 0-.192.465.628.628 0 0 0 .178.465.593.593 0 0 0 .882.03L11.38 5.95a.637.637 0 0 0 .199-.473.638.638 0 0 0-.2-.473L7.2.74a.66.66 0 0 0-.455-.18.556.556 0 0 0-.434.203.695.695 0 0 0-.178.473c0 .18.067.335.2.465l3.071 3.122H1.241z" fill="#4A81FD"/></svg>
