<?xml version="1.0" encoding="UTF-8"?>
<svg width="38px" height="38px" viewBox="0 0 38 38" version="1.1" xmlns="http://www.w3.org/2000/svg" xmlns:xlink="http://www.w3.org/1999/xlink">
    <!-- Generator: Sketch 53.1 (72631) - https://sketchapp.com -->
    <title>Combined Shape Copy</title>
    <desc>Created with Sketch.</desc>
    <g id="Symbols" stroke="none" stroke-width="1" fill="none" fill-rule="evenodd">
        <g id="ICO/Close" transform="translate(-6.000000, -7.000000)" fill="#4A81FD" fill-rule="nonzero">
            <path d="M27.4134221,25.8780465 L42.9411215,41.1128225 C43.7295715,41.8863988 43.7416291,43.1526714 42.9680528,43.9411215 C42.1944765,44.7295715 40.9282039,44.7416291 40.1397539,43.9680528 L24.6119377,28.7331621 L9.08412145,43.9680528 C8.29567139,44.7416291 7.02939884,44.7295715 6.25582255,43.9411215 C5.48224625,43.1526714 5.49430383,41.8863988 6.28275389,41.1128225 L21.7804091,25.9075239 L6.64962809,11.0621786 C5.86117803,10.2886023 5.84912045,9.02232975 6.62269675,8.23387969 C7.39627304,7.44542962 8.66254559,7.43337205 9.45099565,8.20694835 L24.5819501,23.0524639 L39.4329892,7.91587969 C40.2065655,7.12742962 41.4728381,7.11537205 42.2612881,7.88894835 C43.0497382,8.66252464 43.0617958,9.92879719 42.2882195,10.7172473 L27.4134221,25.8780465 Z" id="Combined-Shape-Copy" transform="translate(24.611938, 25.928501) scale(1, -1) rotate(-90.000000) translate(-24.611938, -25.928501) "></path>
        </g>
    </g>
</svg>