<svg width="28" height="28" viewBox="0 0 28 28" xmlns="http://www.w3.org/2000/svg"><g transform="translate(2 2)" fill="none" fill-rule="evenodd"><circle stroke="#4A81FD" stroke-width="4" cx="12" cy="12" r="12"/><path d="M8.994 12c-.58 0-1.044-.163-1.393-.489-.35-.326-.541-.768-.575-1.327A11.27 11.27 0 0 1 7 9.598c0-.121.009-.368.026-.74.025-.568.208-1.02.55-1.355.34-.335.813-.503 1.418-.503s1.077.168 1.418.503c.34.335.528.787.562 1.355.017.372.026.619.026.74 0 .111-.009.307-.026.586-.034.559-.227 1.001-.581 1.327-.354.326-.82.489-1.4.489zm-.666 5a.351.351 0 0 1-.235-.079.258.258 0 0 1-.093-.207c0-.057.019-.11.057-.157l7.046-9.286a.948.948 0 0 1 .214-.207.528.528 0 0 1 .285-.064h1.07c.095 0 .173.026.235.079a.258.258 0 0 1 .093.207c0 .057-.019.11-.057.157l-7.046 9.286a.948.948 0 0 1-.214.207.528.528 0 0 1-.285.064h-1.07zm.666-6a.416.416 0 0 0 .39-.228c.084-.151.13-.34.138-.564.016-.337.024-.573.024-.708 0-.146-.008-.376-.024-.691a1.284 1.284 0 0 0-.138-.581.416.416 0 0 0-.39-.228c-.32 0-.496.27-.528.809-.008.157-.012.388-.012.691 0 .303.004.54.012.708.016.236.066.427.15.573a.41.41 0 0 0 .378.219zm6.012 6c-.579 0-1.045-.167-1.399-.5-.354-.333-.547-.778-.581-1.333a11.145 11.145 0 0 1-.026-.584c0-.11.009-.352.026-.722.034-.574.221-1.028.562-1.361.34-.333.813-.5 1.418-.5s1.078.167 1.419.5c.34.333.524.787.55 1.361.016.37.025.611.025.722 0 .111-.009.306-.026.584-.034.555-.225 1-.575 1.333-.349.333-.813.5-1.393.5zm-.012-1a.407.407 0 0 0 .378-.228 1.39 1.39 0 0 0 .15-.581c.016-.337.024-.573.024-.708 0-.146-.008-.376-.024-.69a1.327 1.327 0 0 0-.15-.574.41.41 0 0 0-.378-.219.416.416 0 0 0-.39.228c-.084.151-.13.34-.138.564-.008.157-.012.388-.012.691 0 .304.004.54.012.708.008.236.054.43.138.581a.416.416 0 0 0 .39.228z" fill="#7DC4FF" fill-rule="nonzero"/></g></svg>