<svg width="28" height="28" viewBox="0 0 28 28" xmlns="http://www.w3.org/2000/svg"><g transform="translate(2 2)" fill="none" fill-rule="evenodd"><path d="M10.086 6h-4.92a2 2 0 0 0-1.2.4l-2.04 1.531a2 2 0 0 0-.528 2.608l2.146 3.68a2 2 0 0 1 .17 1.64l-.267.799a2 2 0 0 0 .67 2.21L7.5 21.5l1.683-3.703A1.27 1.27 0 0 0 8.026 16a1.27 1.27 0 0 1-.898-.372l-.92-.92A1 1 0 0 1 6.913 13h.172c.78 0 1.414-.633 1.414-1.414 0-.375.149-.735.414-1l2.172-2.172a1.414 1.414 0 0 0-1-2.414zm5.664-3H20l2.5 2.5 1 4.5v4.5L21 19l-4.796-3.198a1.894 1.894 0 0 1-.644-2.422l1.358-2.717a.773.773 0 0 1 .228-.272L17.8 9.9a.5.5 0 1 0-.8-.4.5.5 0 0 1-.5.5h-1.16c-.224 0-.447-.046-.653-.134l-.684-.293a2 2 0 0 1-.731-3.14l1.046-1.22A.61.61 0 0 1 14.78 5a.61.61 0 0 0 .487-.976L15.25 4a.625.625 0 0 1 .5-1z" fill="#7DC4FF" fill-rule="nonzero"/><circle stroke="#4A81FD" stroke-width="4" cx="12" cy="12" r="12"/></g></svg>