<?xml version="1.0" encoding="UTF-8"?>
<svg width="10px" height="12px" viewBox="0 0 10 12" version="1.1" xmlns="http://www.w3.org/2000/svg" xmlns:xlink="http://www.w3.org/1999/xlink">
    <!-- Generator: Sketch 55.1 (78136) - https://sketchapp.com -->
    <title>Download_ico</title>
    <desc>Created with Sketch.</desc>
    <g id="Symbols" stroke="none" stroke-width="1" fill="none" fill-rule="evenodd">
        <g id="Install" transform="translate(-57.000000, -17.000000)" fill="#346CEF" fill-rule="nonzero">
            <g id="Group-9" transform="translate(57.000000, 17.000000)">
                <path d="M5.67073171,0.565768548 L5.67073171,6.88871365 L8.84146341,4.1771803 C8.9735779,4.06001469 9.13109665,4.00143276 9.31402439,4.00143276 C9.49695213,4.00143276 9.65701151,4.05373805 9.79420732,4.1583502 C9.93140312,4.26296235 10,4.39058726 10,4.54122876 C10,4.69187025 9.939025,4.82577179 9.81707317,4.9429374 L5.48780488,8.63363558 C5.3556904,8.75080118 5.19563102,8.80938311 5.00762195,8.80938311 C4.81961288,8.80938311 4.65955351,8.75080118 4.52743902,8.63363558 L0.182926829,4.91783061 C0.060975,4.80903398 -2.13162821e-14,4.68350128 -2.13162821e-14,4.54122876 C-2.13162821e-14,4.38221829 0.0711375,4.24831675 0.213414634,4.13952011 C0.345529116,4.03072348 0.503047866,3.97841819 0.68597561,3.98260267 C0.868903354,3.98678716 1.0264221,4.04327687 1.15853659,4.15207351 L4.32926829,6.86360686 L4.32926829,0.553215153 C4.32926829,0.41094263 4.39024329,0.285409934 4.51219512,0.176613299 C4.63414695,0.0678166633 4.7815032,0.00923473835 4.95426829,0.000865766399 C5.14735869,-0.00750320555 5.31503994,0.0448020845 5.45731707,0.157783206 C5.59959421,0.270764327 5.67073171,0.406758081 5.67073171,0.565768548 Z M1,10 L9,10 C9.55228475,10 10,10.4477153 10,11 C10,11.5522847 9.55228475,12 9,12 L1,12 C0.44771525,12 6.76353751e-17,11.5522847 0,11 C-6.76353751e-17,10.4477153 0.44771525,10 1,10 Z" id="Download_ico"></path>
            </g>
        </g>
    </g>
</svg>