<svg width="28" height="28" viewBox="0 0 28 28" xmlns="http://www.w3.org/2000/svg"><g fill="none" fill-rule="evenodd"><path d="M17.04 7C13.487 7 11 3.111 11 2h6.04c1.479.556 3.55 5 0 5z" fill="#7DC4FF" fill-rule="nonzero"/><path d="M18 6.125c0 1.585-.46 3.144-1.225 4.25C16.033 11.45 15.095 12 14 12c-1.094 0-2.033-.551-2.775-1.625C10.46 9.27 10 7.71 10 6.125c0-1.557.44-2.532 1.009-3.113C11.572 2.437 12.506 2 14 2s2.428.437 2.991 1.012C17.561 3.593 18 4.568 18 6.125z" stroke="#4A81FD" stroke-width="4"/><path d="M2 24.992A5.492 5.492 0 0 1 7.492 19.5a2.937 2.937 0 0 0 2.785-2.008L8.38 16.86l1.897.632.095-.284a7.32 7.32 0 0 0 7.256 0l.095.284a2.937 2.937 0 0 0 2.785 2.008A5.492 5.492 0 0 1 26 24.992V26H2v-1.008z" stroke="#7DC4FF" stroke-width="4"/></g></svg>