<svg width="12" height="12" viewBox="0 0 12 12" fill="none" xmlns="http://www.w3.org/2000/svg">
<path d="M7.18299 3.3335C5.70328 3.3335 4.66669 1.77794 4.66669 1.3335H6.56645H7.18299C7.79954 1.55572 8.66271 3.3335 7.18299 3.3335Z" fill="#8D96B2"/>
<mask id="path-2-inside-1" fill="white">
<path fill-rule="evenodd" clip-rule="evenodd" d="M6.84403 4.7593C7.13996 4.30051 7.33331 3.62331 7.33331 2.91667C7.33331 2.22321 7.14952 1.85258 6.98046 1.66767C6.82644 1.49921 6.54774 1.33333 5.99998 1.33333C5.45222 1.33333 5.17352 1.49921 5.0195 1.66767C4.85044 1.85258 4.66665 2.22321 4.66665 2.91667C4.66665 3.62331 4.86 4.30051 5.15593 4.7593C5.44146 5.20196 5.73392 5.33333 5.99998 5.33333C6.26604 5.33333 6.5585 5.20196 6.84403 4.7593ZM5.99998 6.66667C7.68313 6.66667 8.66665 4.75762 8.66665 2.91667C8.66665 1.07572 7.68313 0 5.99998 0C4.31683 0 3.33331 1.07572 3.33331 2.91667C3.33331 4.75762 4.31683 6.66667 5.99998 6.66667Z"/>
</mask>
<path fill-rule="evenodd" clip-rule="evenodd" d="M6.84403 4.7593C7.13996 4.30051 7.33331 3.62331 7.33331 2.91667C7.33331 2.22321 7.14952 1.85258 6.98046 1.66767C6.82644 1.49921 6.54774 1.33333 5.99998 1.33333C5.45222 1.33333 5.17352 1.49921 5.0195 1.66767C4.85044 1.85258 4.66665 2.22321 4.66665 2.91667C4.66665 3.62331 4.86 4.30051 5.15593 4.7593C5.44146 5.20196 5.73392 5.33333 5.99998 5.33333C6.26604 5.33333 6.5585 5.20196 6.84403 4.7593ZM5.99998 6.66667C7.68313 6.66667 8.66665 4.75762 8.66665 2.91667C8.66665 1.07572 7.68313 0 5.99998 0C4.31683 0 3.33331 1.07572 3.33331 2.91667C3.33331 4.75762 4.31683 6.66667 5.99998 6.66667Z" fill="#62687F"/>
<path d="M6.84403 4.7593L8.52473 5.84338L8.52473 5.84338L6.84403 4.7593ZM6.98046 1.66767L8.45652 0.318131L8.45652 0.318131L6.98046 1.66767ZM5.0195 1.66767L3.54344 0.318131L3.54344 0.318131L5.0195 1.66767ZM5.15593 4.7593L3.47523 5.84338L3.47523 5.84338L5.15593 4.7593ZM5.33331 2.91667C5.33331 3.09138 5.30889 3.26154 5.26923 3.40796C5.22827 3.55916 5.18157 3.64693 5.16332 3.67522L8.52473 5.84338C9.06083 5.01224 9.33331 3.94479 9.33331 2.91667H5.33331ZM5.5044 3.01721C5.38082 2.88204 5.33437 2.76849 5.32179 2.73052C5.31026 2.69574 5.33331 2.74427 5.33331 2.91667H9.33331C9.33331 1.87709 9.0535 0.971079 8.45652 0.318131L5.5044 3.01721ZM5.99998 3.33333C6.07365 3.33333 6.02149 3.3445 5.89949 3.29604C5.7651 3.24265 5.6238 3.1478 5.5044 3.01721L8.45652 0.318131C7.85404 -0.34083 6.99714 -0.666667 5.99998 -0.666667V3.33333ZM6.49556 3.01721C6.37616 3.1478 6.23486 3.24265 6.10047 3.29604C5.97847 3.3445 5.92631 3.33333 5.99998 3.33333V-0.666667C5.00282 -0.666667 4.14592 -0.34083 3.54344 0.318131L6.49556 3.01721ZM6.66665 2.91667C6.66665 2.74427 6.6897 2.69574 6.67817 2.73051C6.66559 2.76849 6.61914 2.88204 6.49556 3.01721L3.54344 0.318131C2.94646 0.971079 2.66665 1.87709 2.66665 2.91667H6.66665ZM6.83664 3.67522C6.81839 3.64693 6.77169 3.55916 6.73073 3.40796C6.69107 3.26154 6.66665 3.09138 6.66665 2.91667H2.66665C2.66665 3.94479 2.93913 5.01224 3.47523 5.84338L6.83664 3.67522ZM5.99998 3.33333C6.22001 3.33333 6.44904 3.39452 6.63996 3.51302C6.81069 3.61899 6.86306 3.71619 6.83664 3.67522L3.47523 5.84338C4.03123 6.70538 4.89183 7.33333 5.99998 7.33333V3.33333ZM5.16332 3.67522C5.1369 3.71619 5.18927 3.61899 5.36 3.51302C5.55091 3.39452 5.77995 3.33333 5.99998 3.33333V7.33333C7.10813 7.33333 7.96873 6.70538 8.52473 5.84338L5.16332 3.67522ZM6.66665 2.91667C6.66665 3.51639 6.49955 4.06344 6.28379 4.39794C6.18194 4.55585 6.09702 4.62446 6.05869 4.64867C6.03312 4.66481 6.02386 4.66667 5.99998 4.66667V8.66667C7.70484 8.66667 8.9328 7.67057 9.6452 6.5661C10.342 5.48584 10.6666 4.15789 10.6666 2.91667H6.66665ZM5.99998 2C6.40084 2 6.48554 2.11435 6.48844 2.11752C6.5139 2.14536 6.66665 2.33672 6.66665 2.91667H10.6666C10.6666 1.65567 10.3276 0.388689 9.44055 -0.581561C8.5309 -1.57649 7.28228 -2 5.99998 -2V2ZM5.33331 2.91667C5.33331 2.33672 5.48606 2.14536 5.51152 2.11752C5.51442 2.11435 5.59912 2 5.99998 2V-2C4.71768 -2 3.46906 -1.57649 2.55941 -0.581561C1.67232 0.388689 1.33331 1.65567 1.33331 2.91667H5.33331ZM5.99998 4.66667C5.9761 4.66667 5.96684 4.66481 5.94127 4.64867C5.90294 4.62446 5.81802 4.55585 5.71617 4.39794C5.50041 4.06344 5.33331 3.51639 5.33331 2.91667H1.33331C1.33331 4.15789 1.65797 5.48584 2.35476 6.5661C3.06716 7.67057 4.29512 8.66667 5.99998 8.66667V4.66667Z" fill="#62687F" mask="url(#path-2-inside-1)"/>
<mask id="path-4-inside-2" fill="white">
<path fill-rule="evenodd" clip-rule="evenodd" d="M10.584 10.6668C10.3471 9.8948 9.62862 9.33349 8.779 9.33349C8.20203 9.33349 7.67331 9.04812 7.3539 8.58899C6.48305 8.9229 5.51697 8.92287 4.64614 8.58889C4.32675 9.04807 3.798 9.33349 3.22098 9.33349C2.37136 9.33349 1.65284 9.8948 1.41603 10.6668H10.584ZM3.22098 8.00015C1.44208 8.00015 0 9.44223 0 11.2211V11.5557C0 11.8012 0.198984 12.0002 0.444444 12.0002H11.5556C11.801 12.0002 12 11.8012 12 11.5557V11.2212C12 9.44224 10.5579 8.00015 8.779 8.00015C8.61118 8.00015 8.46096 7.89606 8.40202 7.73892L8.27087 7.38928C8.13242 7.02016 7.68625 6.87625 7.35822 7.09491C6.53575 7.64317 5.46428 7.64311 4.64186 7.09477C4.31381 6.87605 3.86757 7.01997 3.72913 7.38914L3.59797 7.7389C3.53904 7.89604 3.38881 8.00015 3.22098 8.00015Z"/>
</mask>
<path fill-rule="evenodd" clip-rule="evenodd" d="M10.584 10.6668C10.3471 9.8948 9.62862 9.33349 8.779 9.33349C8.20203 9.33349 7.67331 9.04812 7.3539 8.58899C6.48305 8.9229 5.51697 8.92287 4.64614 8.58889C4.32675 9.04807 3.798 9.33349 3.22098 9.33349C2.37136 9.33349 1.65284 9.8948 1.41603 10.6668H10.584ZM3.22098 8.00015C1.44208 8.00015 0 9.44223 0 11.2211V11.5557C0 11.8012 0.198984 12.0002 0.444444 12.0002H11.5556C11.801 12.0002 12 11.8012 12 11.5557V11.2212C12 9.44224 10.5579 8.00015 8.779 8.00015C8.61118 8.00015 8.46096 7.89606 8.40202 7.73892L8.27087 7.38928C8.13242 7.02016 7.68625 6.87625 7.35822 7.09491C6.53575 7.64317 5.46428 7.64311 4.64186 7.09477C4.31381 6.87605 3.86757 7.01997 3.72913 7.38914L3.59797 7.7389C3.53904 7.89604 3.38881 8.00015 3.22098 8.00015Z" fill="#8D96B2"/>
<path d="M10.584 10.6668V12.6668H13.2894L12.496 10.0803L10.584 10.6668ZM7.3539 8.58899L8.9957 7.44684L8.10089 6.16059L6.63787 6.72156L7.3539 8.58899ZM4.64614 8.58889L5.36231 6.72151L3.89912 6.16036L3.00427 7.44685L4.64614 8.58889ZM1.41603 10.6668L-0.496038 10.0803L-1.28942 12.6668H1.41603V10.6668ZM8.40202 7.73892L6.52941 8.4413L6.52941 8.44131L8.40202 7.73892ZM8.27087 7.38928L6.39826 8.09165L6.39826 8.09166L8.27087 7.38928ZM7.35822 7.09491L6.2489 5.43076L6.2489 5.43076L7.35822 7.09491ZM4.64186 7.09477L3.53238 8.75882L4.64186 7.09477ZM3.72913 7.38914L1.85647 6.68689L1.85647 6.68689L3.72913 7.38914ZM3.59797 7.7389L5.47063 8.44115L5.47063 8.44115L3.59797 7.7389ZM8.779 11.3335C8.75602 11.3335 8.72942 11.3243 8.71046 11.31C8.6947 11.2982 8.68007 11.28 8.6719 11.2533L12.496 10.0803C12.0088 8.49195 10.5318 7.33349 8.779 7.33349V11.3335ZM5.71211 9.73114C6.39917 10.7188 7.53653 11.3335 8.779 11.3335V7.33349C8.86752 7.33349 8.94744 7.37747 8.9957 7.44684L5.71211 9.73114ZM3.92998 10.4563C5.26182 10.9671 6.73804 10.9671 8.06994 10.4564L6.63787 6.72156C6.22806 6.87869 5.77211 6.87868 5.36231 6.72151L3.92998 10.4563ZM3.22098 11.3335C4.46354 11.3335 5.60098 10.7187 6.28802 9.73093L3.00427 7.44685C3.05253 7.37748 3.13245 7.33349 3.22098 7.33349V11.3335ZM3.3281 11.2533C3.31993 11.28 3.30529 11.2982 3.28953 11.31C3.27057 11.3243 3.24397 11.3335 3.22098 11.3335V7.33349C1.46817 7.33349 -0.00882895 8.49196 -0.496038 10.0803L3.3281 11.2533ZM10.584 8.66682H1.41603V12.6668H10.584V8.66682ZM2 11.2211C2 10.5468 2.54665 10.0002 3.22098 10.0002V6.00015C0.337513 6.00015 -2 8.33767 -2 11.2211H2ZM2 11.5557V11.2211H-2V11.5557H2ZM0.444444 10.0002C1.30355 10.0002 2 10.6966 2 11.5557H-2C-2 12.9057 -0.905586 14.0002 0.444444 14.0002V10.0002ZM11.5556 10.0002H0.444444V14.0002H11.5556V10.0002ZM10 11.5557C10 10.6966 10.6964 10.0002 11.5556 10.0002V14.0002C12.9056 14.0002 14 12.9057 14 11.5557H10ZM10 11.2212V11.5557H14V11.2212H10ZM8.779 10.0002C9.45334 10.0002 10 10.5468 10 11.2212H14C14 8.33767 11.6625 6.00015 8.779 6.00015V10.0002ZM6.52941 8.44131C6.88111 9.37897 7.77754 10.0002 8.779 10.0002V6.00015C9.44481 6.00015 10.0408 6.41314 10.2746 7.03654L6.52941 8.44131ZM6.39826 8.09166L6.52941 8.4413L10.2746 7.03654L10.1435 6.6869L6.39826 8.09166ZM8.46754 8.75907C7.72379 9.25485 6.71217 8.92857 6.39826 8.09165L10.1435 6.6869C9.55267 5.11175 7.64871 4.49766 6.2489 5.43076L8.46754 8.75907ZM3.53238 8.75882C5.02656 9.75505 6.97324 9.75516 8.46754 8.75907L6.2489 5.43076C6.09826 5.53118 5.90199 5.53117 5.75134 5.43073L3.53238 8.75882ZM5.60179 8.09139C5.2879 8.92843 4.27613 9.25471 3.53238 8.75882L5.75134 5.43073C4.3515 4.49739 2.44724 5.11151 1.85647 6.68689L5.60179 8.09139ZM5.47063 8.44115L5.60179 8.09139L1.85647 6.68689L1.72531 7.03665L5.47063 8.44115ZM3.22098 10.0002C4.2225 10.0002 5.11897 9.3789 5.47063 8.44115L1.72531 7.03665C1.95911 6.41319 2.55512 6.00015 3.22098 6.00015V10.0002Z" fill="#8D96B2" mask="url(#path-4-inside-2)"/>
</svg>
