<?xml version="1.0" encoding="UTF-8"?>
<svg width="16px" height="14px" viewBox="0 0 16 14" version="1.1" xmlns="http://www.w3.org/2000/svg" xmlns:xlink="http://www.w3.org/1999/xlink">
    <!-- Generator: sketchtool 55.1 (78136) - https://sketchapp.com -->
    <title>D2A21396-1E6B-4DC9-9FEF-A5AE3B40CF7A</title>
    <desc>Created with sketchtool.</desc>
    <g id="2.1" stroke="none" stroke-width="1" fill="none" fill-rule="evenodd">
        <g id="Breaches_08" transform="translate(-246.000000, -1009.000000)" fill="#34495E" fill-rule="nonzero">
            <g id="Group-34" transform="translate(85.000000, 230.000000)">
                <g id="Group" transform="translate(40.000000, 552.000000)">
                    <g id="Group-33" transform="translate(80.000000, 149.000000)">
                        <g id="Group-12-Copy-6" transform="translate(30.000000, 70.000000)">
                            <g id="ICO/Password" transform="translate(10.000000, 6.000000)">
                                <path d="M15.5742188,2.34 C15.925783,2.34 16.2246081,2.46304564 16.4707031,2.70914062 C16.7167981,2.95523561 16.8398438,3.25406074 16.8398438,3.605625 L16.8398438,14.6095312 C16.8398438,14.9610955 16.7167981,15.2599206 16.4707031,15.5060156 C16.2246081,15.7521106 15.925783,15.8751562 15.5742188,15.8751562 L2.33789062,15.8751562 C1.98632637,15.8751562 1.68750123,15.7521106 1.44140625,15.5060156 C1.19531127,15.2599206 1.07226562,14.9610955 1.07226562,14.6095312 L1.07226562,3.605625 C1.07226562,3.25406074 1.19531127,2.95523561 1.44140625,2.70914062 C1.68750123,2.46304564 1.98632637,2.34 2.33789062,2.34 L15.5742188,2.34 Z M14.2207031,3.605625 L3.69140625,3.605625 L8.5078125,7.57828125 L8.54296875,7.59585937 C8.66015684,7.72476627 8.80663975,7.78921875 8.98242188,7.78921875 L9,7.78921875 C9.17578213,7.78921875 9.32812436,7.72476627 9.45703125,7.59585937 L9.47460938,7.56070312 L9.50976562,7.543125 L14.2207031,3.605625 Z M15.5742188,14.6095312 L15.5742188,4.11539062 L10.3359375,8.49234375 C9.97265443,8.86734562 9.52734639,9.05484375 9,9.05484375 C8.47265361,9.05484375 8.02734557,8.87320494 7.6640625,8.50992187 L2.33789062,4.11539062 L2.33789062,14.6095312 L15.5742188,14.6095312 Z" id="mail---anticon"></path>
                            </g>
                        </g>
                    </g>
                </g>
            </g>
        </g>
    </g>
</svg>