<svg width="30" height="24" viewBox="0 0 30 24" xmlns="http://www.w3.org/2000/svg"><g fill="none" fill-rule="evenodd"><path d="M18.168 2.832c.53-.53.305-1.427-.431-1.57A14.371 14.371 0 0 0 15 1C9.997 1 5.535 3.58 2.632 7.611a17.986 17.986 0 0 0-1.773 3.06 3.25 3.25 0 0 0 0 2.694 17.95 17.95 0 0 0 1.95 3.302c.35.468 1.03.494 1.442.081l2.56-2.56c.244-.243.34-.594.287-.934a8 8 0 0 1 9.156-9.156c.34.053.691-.043.935-.287l.979-.979zm1.4 2.6l2.554-2.554c3.039 1.704 5.516 4.465 7.044 7.85a3.13 3.13 0 0 1 .013 2.583c-1.756 3.87-6.308 9.726-14.18 9.726-3.567 0-6.86-1.313-9.508-3.528l2.94-2.94A8 8 0 1 0 19.569 5.431z" fill="#7DC4FF" fill-rule="nonzero"/><path d="M10.608 14.392l6.784-6.784a5 5 0 1 1-6.783 6.783z" fill="#4A81FD"/><path d="M24 1L4 21a1.414 1.414 0 1 0 2 2L26 3a1.414 1.414 0 1 0-2-2z" fill="#4A81FD" fill-rule="nonzero"/></g></svg>