<svg width="90" height="100" viewBox="0 0 90 100" xmlns="http://www.w3.org/2000/svg"><path d="M80 40c5.523 0 10 4.477 10 10v6c0 5.523-4.477 10-10 10v1c0 24.373-19.627 33-31 33h-8V88a2 2 0 0 1 2-2h3.813a2 2 0 0 1 1.999 2.07c-.043 1.217.02 2.527.188 3.93 11.842-.155 23.278-9.823 23-25l.024-1H72V40h.137A699.25 699.25 0 0 0 72 33c.278-11.494-10.341-25.159-27-25-17.393-.159-27.176 14.246-27 25-.034 2.434-.058 5.1-.072 8H18v26h-8C4.477 67 0 62.523 0 57v-6c0-5.523 4.477-10 10-10v-5C10 13.623 27.529 0 45 0c16.737 0 35 13.623 35 36v4z" fill="#4A81FD" fill-rule="evenodd"/></svg>
