<svg width="48" height="48" viewBox="0 0 48 48" fill="none" xmlns="http://www.w3.org/2000/svg"><path d="M27.04 17C23.487 17 21 13.111 21 12H27.04c1.479.556 3.55 5 0 5z" fill="#80D814"/><path d="M28 16.125c0 1.585-.46 3.144-1.225 4.25C26.033 21.45 25.095 22 24 22c-1.094 0-2.033-.551-2.775-1.625C20.46 19.27 20 17.71 20 16.125c0-1.557.44-2.532 1.009-3.113C21.572 12.437 22.506 12 24 12s2.428.437 2.991 1.012c.57.581 1.009 1.556 1.009 3.113z" stroke="#0A2" stroke-width="4"/><path d="M40 14h-5.25a.752.752 0 0 1-.75-.75V8c0-3.315 2.685-6 6-6h5.25c.413 0 .75.337.75.75V8c0 3.315-2.685 6-6 6z" fill="#0A2"/><path d="M40 14h-5.25a.752.752 0 0 1-.75-.75V8c0-3.315 2.685-6 6-6h5.25c.413 0 .75.337.75.75V8c0 3.315-2.685 6-6 6z" fill="#0A2"/><path d="M12 34.992a5.492 5.492 0 0 1 5.492-5.492 2.937 2.937 0 0 0 2.785-2.008l-1.897-.632 1.898.632.094-.284a7.32 7.32 0 0 0 7.256 0l.095.284a2.937 2.937 0 0 0 2.785 2.008A5.492 5.492 0 0 1 36 34.992V36H12v-1.008z" stroke="#80D814" stroke-width="4"/></svg>