<?xml version="1.0" encoding="UTF-8"?>
<svg width="12px" height="12px" viewBox="0 0 12 12" version="1.1" xmlns="http://www.w3.org/2000/svg" xmlns:xlink="http://www.w3.org/1999/xlink">
    <!-- Generator: sketchtool 55.1 (78136) - https://sketchapp.com -->
    <title>8896EA9C-1594-4D69-A5D5-515094BF02AB</title>
    <desc>Created with sketchtool.</desc>
    <g id="2.1" stroke="none" stroke-width="1" fill="none" fill-rule="evenodd">
        <g id="Breaches_08" transform="translate(-455.000000, -730.000000)" fill="#E74C3C" fill-rule="nonzero">
            <g id="Group-34" transform="translate(85.000000, 230.000000)">
                <g id="Group-6-Copy-2" transform="translate(40.000000, 468.000000)">
                    <g id="Google">
                        <g id="Ico/Email" transform="translate(320.000000, 26.000000)">
                            <g id="Password">
                                <g id="ICO/Password" transform="translate(10.000000, 6.000000)">
                                    <path d="M7.6875,0.03 C8.1484398,0.03 8.58398232,0.117889746 8.99414062,0.293671875 C9.40429893,0.469454004 9.76171723,0.711639082 10.0664062,1.02023438 C10.3710953,1.32882967 10.6132804,1.68820107 10.7929688,2.09835937 C10.9726571,2.50851768 11.0625,2.9440602 11.0625,3.405 C11.0625,3.87375234 10.9726571,4.31320107 10.7929688,4.72335938 C10.6132804,5.13351768 10.3710953,5.49288908 10.0664062,5.80148438 C9.76171723,6.11007967 9.40429893,6.35226475 8.99414062,6.52804688 C8.58398232,6.703829 8.1484398,6.79171875 7.6875,6.79171875 C7.25781035,6.79171875 6.85547063,6.71750074 6.48046875,6.5690625 C6.10546687,6.42062426 5.76953273,6.21750129 5.47265625,5.9596875 C5.47265625,6.00656273 5.46289072,6.05539037 5.44335938,6.10617188 C5.42382803,6.15695338 5.39453145,6.2018748 5.35546875,6.2409375 L3.33984375,8.26828125 L4.93359375,9.8971875 C5.0039066,9.96750035 5.0390625,10.0553901 5.0390625,10.1608594 C5.0390625,10.2663287 5.0039066,10.3542184 4.93359375,10.4245312 C4.85546836,10.4948441 4.76562551,10.53 4.6640625,10.53 C4.56249949,10.53 4.47656285,10.4948441 4.40625,10.4245312 L2.8125,8.80734375 L1.83984375,9.78 L3.43359375,11.3971875 C3.5039066,11.4675004 3.5390625,11.5553901 3.5390625,11.6608594 C3.5390625,11.7663287 3.5039066,11.8542184 3.43359375,11.9245312 C3.35546836,11.9948441 3.26562551,12.03 3.1640625,12.03 C3.06249949,12.03 2.97656285,11.9948441 2.90625,11.9245312 L1.06640625,10.0495312 L1.0546875,10.0495312 L1.0546875,10.0378125 C0.976562109,9.96749965 0.9375,9.8796099 0.9375,9.77414062 C0.9375,9.66867135 0.976562109,9.5807816 1.0546875,9.51046875 L4.828125,5.71359375 C4.8671877,5.67453105 4.91210912,5.64523447 4.96289062,5.62570313 C5.01367213,5.60617178 5.06640598,5.59640625 5.12109375,5.59640625 C4.86327996,5.3073423 4.6640632,4.97531438 4.5234375,4.6003125 C4.3828118,4.22531062 4.3125,3.82687711 4.3125,3.405 C4.3125,2.9440602 4.40038975,2.50851768 4.57617188,2.09835937 C4.751954,1.68820107 4.99218598,1.32882967 5.296875,1.02023438 C5.60156402,0.711639082 5.95898232,0.469454004 6.36914062,0.293671875 C6.77929893,0.117889746 7.21874766,0.03 7.6875,0.03 Z M7.6875,6.03 C8.0468768,6.03 8.38476404,5.96164131 8.70117188,5.82492188 C9.01757971,5.68820244 9.29492068,5.50070432 9.53320312,5.26242188 C9.77148557,5.02413943 9.9609368,4.74484535 10.1015625,4.42453125 C10.2421882,4.10421715 10.3125,3.7643768 10.3125,3.405 C10.3125,3.0456232 10.2421882,2.70578285 10.1015625,2.38546875 C9.9609368,2.06515465 9.77148557,1.78586057 9.53320312,1.54757813 C9.29492068,1.30929568 9.01757971,1.12179756 8.70117188,0.985078125 C8.38476404,0.848358691 8.0468768,0.78 7.6875,0.78 C7.32031066,0.78 6.97851721,0.848358691 6.66210938,0.985078125 C6.34570154,1.12179756 6.06836057,1.30929568 5.83007812,1.54757813 C5.59179568,1.78586057 5.40429756,2.06515465 5.26757812,2.38546875 C5.13085869,2.70578285 5.0625,3.0456232 5.0625,3.405 C5.0625,3.7643768 5.13085869,4.10421715 5.26757812,4.42453125 C5.40429756,4.74484535 5.59179568,5.02413943 5.83007812,5.26242188 C6.06836057,5.50070432 6.34570154,5.68820244 6.66210938,5.82492188 C6.97851721,5.96164131 7.32031066,6.03 7.6875,6.03 Z" id="key---simple-line-icons"></path>
                                </g>
                            </g>
                        </g>
                    </g>
                </g>
            </g>
        </g>
    </g>
</svg>