<?xml version="1.0" encoding="UTF-8"?>
<svg width="17px" height="9px" viewBox="0 0 17 9" version="1.1" xmlns="http://www.w3.org/2000/svg" xmlns:xlink="http://www.w3.org/1999/xlink">
    <!-- Generator: sketchtool 55.1 (78136) - https://sketchapp.com -->
    <title>25CE1B8E-C1E2-496D-9E1A-22E75251827C</title>
    <desc>Created with sketchtool.</desc>
    <g id="Privacy-Tab-2.1" stroke="none" stroke-width="1" fill="none" fill-rule="evenodd" opacity="0.300000012">
        <g id="Passwords_01" transform="translate(-930.000000, -917.000000)" fill="#34495E" fill-rule="nonzero">
            <g id="Score-Copy-6" transform="translate(85.000000, 230.000000)">
                <g id="Google" transform="translate(40.000000, 646.000000)">
                    <g id="Details/Closed" transform="translate(743.000000, 30.000000)">
                        <g id="ICO/Arrow-Down/Blue" transform="translate(59.883117, 5.172414)">
                            <path d="M10.7030684,7.61882062 L4.29092899,14.4900939 C3.98098657,14.8222294 3.48321048,14.8170525 3.17911498,14.4785309 C2.87501949,14.1400094 2.87975936,13.5963344 3.18970179,13.2641989 L9.81624634,6.16316821 C10.0579377,5.90417084 10.4138467,5.85028612 10.7030684,5.99963262 C10.99229,5.85028612 11.3481991,5.90417084 11.5898904,6.16316821 L18.216435,13.2641989 C18.5263774,13.5963344 18.5311173,14.1400094 18.2270218,14.4785309 C17.9229263,14.8170525 17.4251502,14.8222294 17.1152078,14.4900939 L10.7030684,7.61882062 Z" id="Combined-Shape-Copy" transform="translate(10.703068, 10.326631) scale(1, -1) translate(-10.703068, -10.326631) "></path>
                        </g>
                    </g>
                </g>
            </g>
        </g>
    </g>
</svg>