<svg width="22" height="22" viewBox="0 0 22 22" xmlns="http://www.w3.org/2000/svg"><title></title><path d="M22 2.021V19.98A2.013 2.013 0 0 1 19.979 22H2.02A2.013 2.013 0 0 1 0 19.979V2.02C0 .898.898 0 2.021 0H19.98C21.102 0 22 .898 22 2.021zm-2.201 16.16V3.819a1.61 1.61 0 0 0-1.617-1.617H3.807A1.61 1.61 0 0 0 2.19 3.818v14.364a1.61 1.61 0 0 0 1.617 1.617h14.375a1.61 1.61 0 0 0 1.617-1.617zM6.626 8.322c.056-2.245 1.65-3.762 4.447-3.762 2.628 0 4.346 1.415 4.346 3.493 0 1.325-.651 2.257-1.943 2.999-1.224.696-1.56 1.123-1.56 1.965v.471H9.466l-.011-.46c-.124-1.449.382-2.224 1.628-2.965 1.18-.696 1.528-1.112 1.528-1.931 0-.809-.686-1.382-1.696-1.382-1.033 0-1.718.618-1.763 1.573H6.626zm4.166 9.479c-1.033 0-1.684-.584-1.684-1.539 0-.965.651-1.538 1.684-1.538s1.674.573 1.674 1.538c0 .955-.64 1.539-1.674 1.539z" fill="#4A81FD" fill-rule="nonzero"/></svg>