<?xml version="1.0" encoding="UTF-8"?>
<svg width="16px" height="19px" viewBox="0 0 16 19" version="1.1" xmlns="http://www.w3.org/2000/svg" xmlns:xlink="http://www.w3.org/1999/xlink">
    <!-- Generator: sketchtool 55.1 (78136) - https://sketchapp.com -->
    <title>88DF2543-289F-450A-8D1D-1F0314850CEC</title>
    <desc>Created with sketchtool.</desc>
    <g id="2.1" stroke="none" stroke-width="1" fill="none" fill-rule="evenodd">
        <g id="Breaches_08" transform="translate(-453.000000, -1007.000000)" fill="#34495E" fill-rule="nonzero">
            <g id="Group-34" transform="translate(85.000000, 230.000000)">
                <g id="Group" transform="translate(40.000000, 552.000000)">
                    <g id="Group-33" transform="translate(80.000000, 149.000000)">
                        <g id="Group-12-Copy-17" transform="translate(237.000000, 70.000000)">
                            <g id="ICO/Password" transform="translate(10.000000, 6.000000)">
                                <path d="M11.53125,0.045 C12.2226597,0.045 12.8759735,0.176834619 13.4912109,0.440507812 C14.1064484,0.704181006 14.6425758,1.06745862 15.0996094,1.53035156 C15.5566429,1.9932445 15.9199205,2.53230161 16.1894531,3.14753906 C16.4589857,3.76277651 16.59375,4.41609029 16.59375,5.1075 C16.59375,5.81062852 16.4589857,6.46980161 16.1894531,7.08503906 C15.9199205,7.70027651 15.5566429,8.23933362 15.0996094,8.70222656 C14.6425758,9.1651195 14.1064484,9.52839712 13.4912109,9.79207031 C12.8759735,10.0557435 12.2226597,10.1875781 11.53125,10.1875781 C10.8867155,10.1875781 10.2832059,10.0762511 9.72070312,9.85359375 C9.15820031,9.63093639 8.6542991,9.32625193 8.20898438,8.93953125 C8.20898438,9.0098441 8.19433608,9.08308556 8.16503906,9.15925781 C8.13574204,9.23543007 8.09179717,9.30281221 8.03320312,9.36140625 L5.00976562,12.4024219 L7.40039062,14.8457812 C7.5058599,14.9512505 7.55859375,15.0830851 7.55859375,15.2412891 C7.55859375,15.399493 7.5058599,15.5313276 7.40039062,15.6367969 C7.28320254,15.7422662 7.14843826,15.795 6.99609375,15.795 C6.84374924,15.795 6.71484428,15.7422662 6.609375,15.6367969 L4.21875,13.2110156 L2.75976562,14.67 L5.15039062,17.0957813 C5.2558599,17.2012505 5.30859375,17.3330851 5.30859375,17.4912891 C5.30859375,17.649493 5.2558599,17.7813276 5.15039062,17.8867969 C5.03320254,17.9922662 4.89843826,18.045 4.74609375,18.045 C4.59374924,18.045 4.46484428,17.9922662 4.359375,17.8867969 L1.59960938,15.0742969 L1.58203125,15.0742969 L1.58203125,15.0567187 C1.46484316,14.9512495 1.40625,14.8194149 1.40625,14.6612109 C1.40625,14.503007 1.46484316,14.3711724 1.58203125,14.2657031 L7.2421875,8.57039062 C7.30078154,8.51179658 7.36816368,8.46785171 7.44433594,8.43855469 C7.52050819,8.40925767 7.59960896,8.39460937 7.68164062,8.39460937 C7.29491994,7.96101346 6.9960948,7.46297156 6.78515625,6.90046875 C6.5742177,6.33796594 6.46875,5.74031566 6.46875,5.1075 C6.46875,4.41609029 6.60058462,3.76277651 6.86425781,3.14753906 C7.12793101,2.53230161 7.48827896,1.9932445 7.9453125,1.53035156 C8.40234604,1.06745862 8.93847349,0.704181006 9.55371094,0.440507812 C10.1689484,0.176834619 10.8281215,0.045 11.53125,0.045 Z M11.53125,9.045 C12.0703152,9.045 12.5771461,8.94246196 13.0517578,8.73738281 C13.5263696,8.53230366 13.942381,8.25105647 14.2998047,7.89363281 C14.6572283,7.53620915 14.9414052,7.11726803 15.1523438,6.63679687 C15.3632823,6.15632572 15.46875,5.6465652 15.46875,5.1075 C15.46875,4.5684348 15.3632823,4.05867428 15.1523438,3.57820312 C14.9414052,3.09773197 14.6572283,2.67879085 14.2998047,2.32136719 C13.942381,1.96394353 13.5263696,1.68269634 13.0517578,1.47761719 C12.5771461,1.27253804 12.0703152,1.17 11.53125,1.17 C10.980466,1.17 10.4677758,1.27253804 9.99316406,1.47761719 C9.51855231,1.68269634 9.10254085,1.96394353 8.74511719,2.32136719 C8.38769353,2.67879085 8.10644634,3.09773197 7.90136719,3.57820312 C7.69628804,4.05867428 7.59375,4.5684348 7.59375,5.1075 C7.59375,5.6465652 7.69628804,6.15632572 7.90136719,6.63679687 C8.10644634,7.11726803 8.38769353,7.53620915 8.74511719,7.89363281 C9.10254085,8.25105647 9.51855231,8.53230366 9.99316406,8.73738281 C10.4677758,8.94246196 10.980466,9.045 11.53125,9.045 Z" id="key---simple-line-icons"></path>
                            </g>
                        </g>
                    </g>
                </g>
            </g>
        </g>
    </g>
</svg>