<?xml version="1.0" encoding="UTF-8"?>
<svg width="12px" height="10px" viewBox="0 0 12 10" version="1.1" xmlns="http://www.w3.org/2000/svg" xmlns:xlink="http://www.w3.org/1999/xlink">
    <!-- Generator: sketchtool 55.1 (78136) - https://sketchapp.com -->
    <title>2963C429-0607-4DA8-B47A-65B77E4214B0</title>
    <desc>Created with sketchtool.</desc>
    <g id="2.1" stroke="none" stroke-width="1" fill="none" fill-rule="evenodd">
        <g id="Breaches_08" transform="translate(-564.000000, -731.000000)" fill="#E74C3C" fill-rule="nonzero">
            <g id="Group-34" transform="translate(85.000000, 230.000000)">
                <g id="Group-6-Copy-2" transform="translate(40.000000, 468.000000)">
                    <g id="Google">
                        <g id="Ico/Email" transform="translate(429.000000, 26.000000)">
                            <g id="Email">
                                <g id="ICO/Password" transform="translate(10.000000, 6.000000)">
                                    <path d="M10.3828125,1.56 C10.6171887,1.56 10.8164054,1.64203043 10.9804688,1.80609375 C11.1445321,1.97015707 11.2265625,2.16937383 11.2265625,2.40375 L11.2265625,9.7396875 C11.2265625,9.97406367 11.1445321,10.1732804 10.9804688,10.3373438 C10.8164054,10.5014071 10.6171887,10.5834375 10.3828125,10.5834375 L1.55859375,10.5834375 C1.32421758,10.5834375 1.12500082,10.5014071 0.9609375,10.3373438 C0.79687418,10.1732804 0.71484375,9.97406367 0.71484375,9.7396875 L0.71484375,2.40375 C0.71484375,2.16937383 0.79687418,1.97015707 0.9609375,1.80609375 C1.12500082,1.64203043 1.32421758,1.56 1.55859375,1.56 L10.3828125,1.56 Z M9.48046875,2.40375 L2.4609375,2.40375 L5.671875,5.0521875 L5.6953125,5.06390625 C5.77343789,5.14984418 5.87109316,5.1928125 5.98828125,5.1928125 L6,5.1928125 C6.11718809,5.1928125 6.21874957,5.14984418 6.3046875,5.06390625 L6.31640625,5.04046875 L6.33984375,5.02875 L9.48046875,2.40375 Z M10.3828125,9.7396875 L10.3828125,2.74359375 L6.890625,5.6615625 C6.64843629,5.91156375 6.35156426,6.0365625 6,6.0365625 C5.64843574,6.0365625 5.35156371,5.91546996 5.109375,5.67328125 L1.55859375,2.74359375 L1.55859375,9.7396875 L10.3828125,9.7396875 Z" id="mail---anticon"></path>
                                </g>
                            </g>
                        </g>
                    </g>
                </g>
            </g>
        </g>
    </g>
</svg>