<?xml version="1.0" encoding="utf-8" ?>
<svg xmlns="http://www.w3.org/2000/svg" xmlns:xlink="http://www.w3.org/1999/xlink" width="44" height="38">
	<path fill="rgb(74,129,253)" stroke="none" transform="matrix(0.98 0 0 0.98 0.318947 0.27002)" d="M40.2832 0C41.2598 0 42.0898 0.341793 42.7734 1.02539C43.457 1.70899 43.7988 2.53906 43.7988 3.51563L43.7988 34.082C43.7988 35.0586 43.457 35.8887 42.7734 36.5723C42.0898 37.2559 41.2598 37.5977 40.2832 37.5977L3.51563 37.5977C2.53906 37.5977 1.70899 37.2559 1.02539 36.5723C0.341793 35.8887 0 35.0586 0 34.082L0 3.51563C0 2.53906 0.341793 1.70899 1.02539 1.02539C1.70899 0.341793 2.53906 0 3.51563 0L40.2832 0ZM36.5234 3.51563L7.27539 3.51563L20.6543 14.5508L20.752 14.5996C21.0775 14.9577 21.4844 15.1367 21.9727 15.1367L22.0215 15.1367C22.5098 15.1367 22.9329 14.9577 23.291 14.5996L23.3398 14.502L23.4375 14.4531L36.5234 3.51563ZM40.2832 4.93164L40.2832 34.082L3.51563 34.082L3.51563 4.93164L18.3105 17.1387C19.3197 18.1478 20.5566 18.6523 22.0215 18.6523C23.4863 18.6523 24.7233 18.1315 25.7324 17.0898L40.2832 4.93164Z" fill-rule="evenodd"/>

</svg>