<svg width="26" height="23" viewBox="0 0 26 23" xmlns="http://www.w3.org/2000/svg"><title>Group 3</title><g fill="none" fill-rule="evenodd"><path d="M11.5 20a.5.5 0 0 1 .5.5V23h-1v-2.5a.5.5 0 0 1 .5-.5z" fill="#4A81FD"/><path d="M11.518 22.5C5.198 22.5.5 17.338.5 11.5s4.48-11 11-11 11.036 5.581 11.036 11" stroke="#4A81FD"/><path d="M8.354 8.354a.49.49 0 0 1 .7.007l2.153 2.24-.707.708-2.154-2.241a.51.51 0 0 1 .008-.714zm8.949-2.829a.5.5 0 0 1 0 .707l-4.596 4.596-.707-.707 4.596-4.596a.5.5 0 0 1 .707 0zM3 11.5a.5.5 0 0 1-.5.5H0v-1h2.5a.5.5 0 0 1 .5.5zM11.5 3a.5.5 0 0 1-.5-.5V0h1v2.5a.5.5 0 0 1-.5.5zm11.036 8.657l2.474-2.475a.5.5 0 1 1 .708.707l-2.829 2.829a.5.5 0 0 1-.707 0l-2.828-2.829a.5.5 0 1 1 .707-.707l2.475 2.475z" fill="#4A81FD"/><circle stroke="#4A81FD" cx="11.5" cy="11.5" r="1"/></g></svg>